<?xml version="1.0" encoding="UTF-8" standalone="no"?>
<!-- Created with Inkscape (http://www.inkscape.org/) -->

<svg
   xmlns:dc="http://purl.org/dc/elements/1.1/"
   xmlns:cc="http://creativecommons.org/ns#"
   xmlns:rdf="http://www.w3.org/1999/02/22-rdf-syntax-ns#"
   xmlns:svg="http://www.w3.org/2000/svg"
   xmlns="http://www.w3.org/2000/svg"
   xmlns:sodipodi="http://sodipodi.sourceforge.net/DTD/sodipodi-0.dtd"
   xmlns:inkscape="http://www.inkscape.org/namespaces/inkscape"
   version="1.1"
   id="svg2"
   width="256"
   height="128"
   viewBox="0 0 256 128"
   sodipodi:docname="accelerateur.svg"
   inkscape:version="0.92.2 2405546, 2018-03-11">
  <metadata
     id="metadata8">
    <rdf:RDF>
      <cc:Work
         rdf:about="">
        <dc:format>image/svg+xml</dc:format>
        <dc:type
           rdf:resource="http://purl.org/dc/dcmitype/StillImage" />
        <dc:title></dc:title>
      </cc:Work>
    </rdf:RDF>
  </metadata>
  <defs
     id="defs6" />
  <sodipodi:namedview
     pagecolor="#ffffff"
     bordercolor="#666666"
     borderopacity="1"
     objecttolerance="10"
     gridtolerance="10"
     guidetolerance="10"
     inkscape:pageopacity="0"
     inkscape:pageshadow="2"
     inkscape:window-width="1364"
     inkscape:window-height="732"
     id="namedview4"
     showgrid="false"
     inkscape:zoom="1.543379"
     inkscape:cx="140.61256"
     inkscape:cy="106.82329"
     inkscape:window-x="0"
     inkscape:window-y="35"
     inkscape:window-maximized="0"
     inkscape:current-layer="svg2" />
  <g
     id="g817"
     transform="matrix(0.25303466,0,0,0.25303466,17.230268,2.3475934)">
    <path
       style="fill:#92cae8"
       d="M 731.40499,444.75 729.5,442.5 l 2.25,1.90499 c 1.2375,1.04774 2.25,2.06024 2.25,2.25 0,0.80025 -0.80479,0.20945 -2.59501,-1.90499 z M 265.4644,392.5 c -1.7e-4,-28.05 0.12792,-39.66895 0.28467,-25.8199 0.15674,13.84906 0.15688,36.79906 3.1e-4,51 -0.15656,14.20095 -0.28481,2.8699 -0.28498,-25.1801 z m 47.00032,-0.5 c 0,-28.325 0.12803,-39.9125 0.28452,-25.75 0.15649,14.1625 0.15649,37.3375 0,51.5 -0.15649,14.1625 -0.28452,2.575 -0.28452,-25.75 z m 47.98667,15.5 c -3.2e-4,-19.8 0.13325,-28.04173 0.29682,-18.31497 0.16358,9.72677 0.16384,25.92677 5.9e-4,36 C 360.58555,435.25827 360.45172,427.3 360.45139,407.5 Z M 388.4562,403 c 0,-22.275 0.13167,-31.3875 0.29261,-20.25 0.16093,11.1375 0.16093,29.3625 0,40.5 -0.16094,11.1375 -0.29261,2.025 -0.29261,-20.25 z m 94.82981,35.5 c 0.008,-2.75 0.20172,-3.75631 0.43157,-2.23625 0.22986,1.52006 0.22371,3.77006 -0.0136,5 -0.23736,1.22994 -0.42542,-0.0138 -0.41792,-2.76375 z m 40.15705,-25 c -4.5e-4,-16.5 0.13655,-23.39031 0.30444,-15.31181 0.16789,8.07851 0.16826,21.57851 8.2e-4,30 -0.16745,8.4215 -0.30481,1.81181 -0.30526,-14.68819 z m 60.9119,21 c -0.003,-4.95 0.16605,-7.10108 0.37577,-4.78017 0.20972,2.3209 0.21222,6.3709 0.006,9 C 584.5296,441.34892 584.358,439.45 584.35496,434.5 Z M 654.3605,434 c 0,-5.225 0.16854,-7.3625 0.37454,-4.75 0.206,2.6125 0.206,6.8875 0,9.5 -0.206,2.6125 -0.37454,0.475 -0.37454,-4.75 z m 155.09882,-36.5 c 2.3e-4,-24.2 0.13067,-33.95691 0.28986,-21.68203 0.1592,12.27489 0.15901,32.07489 -4.1e-4,44 C 809.58934,431.74309 809.45909,421.7 809.45932,397.5 Z M 400.27236,420 c 0,-2.475 0.19502,-3.4875 0.43337,-2.25 0.23836,1.2375 0.23836,3.2625 0,4.5 -0.23835,1.2375 -0.43337,0.225 -0.43337,-2.25 z m 26.95964,-3 c 0,-1.925 0.2058,-2.7125 0.45733,-1.75 0.25152,0.9625 0.25152,2.5375 0,3.5 -0.25153,0.9625 -0.45733,0.175 -0.45733,-1.75 z m 447.84695,-16.58333 c 0.048,-1.16495 0.28494,-1.4019 0.60416,-0.60417 0.28887,0.72187 0.25335,1.58438 -0.0789,1.91667 -0.33229,0.33229 -0.56864,-0.25834 -0.52522,-1.3125 z M 407.5,399 c 0.99549,-1.1 2.03498,-2 2.30998,-2 0.275,0 -0.31449,0.9 -1.30998,2 -0.99549,1.1 -2.03498,2 -2.30998,2 -0.275,0 0.31449,-0.9 1.30998,-2 z m 451.57895,-0.58333 c 0.048,-1.16495 0.28494,-1.4019 0.60416,-0.60417 0.28887,0.72187 0.25335,1.58438 -0.0789,1.91667 -0.33229,0.33229 -0.56864,-0.25834 -0.52522,-1.3125 z m -270.8152,-17.13425 c 1.52006,-0.22986 3.77006,-0.22371 5,0.0136 1.22994,0.23736 -0.0137,0.42542 -2.76375,0.41792 -2.75,-0.008 -3.75631,-0.20172 -2.23625,-0.43157 z m -113.1848,-2.86575 c 0.048,-1.16495 0.28494,-1.4019 0.60416,-0.60417 0.28887,0.72187 0.25335,1.58438 -0.0789,1.91667 -0.33229,0.33229 -0.56864,-0.25834 -0.52522,-1.3125 z M 522.15789,364 c 0,-1.375 0.22698,-1.9375 0.50439,-1.25 0.27741,0.6875 0.27741,1.8125 0,2.5 -0.27741,0.6875 -0.50439,0.125 -0.50439,-1.25 z m -53.7529,-3.25 -1.90499,-2.25 2.25,1.90499 c 2.11444,1.79022 2.70524,2.59501 1.90499,2.59501 -0.18976,0 -1.20226,-1.0125 -2.25,-2.25 z m 98,-1 -1.90499,-2.25 2.25,1.90499 c 1.2375,1.04774 2.25,2.06024 2.25,2.25 0,0.80025 -0.80479,0.20945 -2.59501,-1.90499 z m 266.46745,-4.5 c -1.24387,-1.58606 -1.2085,-1.62143 0.37756,-0.37756 0.9625,0.75485 1.75,1.54235 1.75,1.75 0,0.82304 -0.82119,0.29331 -2.12756,-1.37244 z M 717,329.62244 c 0,-0.20765 0.7875,-0.99515 1.75,-1.75 1.58606,-1.24387 1.62143,-1.2085 0.37756,0.37756 C 717.82119,329.91575 717,330.44548 717,329.62244 Z m 5,-5 c 0,-0.20765 0.7875,-0.99515 1.75,-1.75 1.58606,-1.24387 1.62143,-1.2085 0.37756,0.37756 C 722.82119,324.91575 722,325.44548 722,324.62244 Z m 59.7277,-9.34417 c 1.77523,-0.22091 4.92523,-0.22454 7,-0.008 2.07476,0.21648 0.6223,0.39722 -3.2277,0.40166 -3.85,0.004 -5.54754,-0.17268 -3.7723,-0.39359 z m -3.9152,-14.96138 c 0.72187,-0.28887 1.58438,-0.25335 1.91667,0.0789 0.33229,0.33229 -0.25834,0.56864 -1.3125,0.52522 -1.16495,-0.048 -1.4019,-0.28494 -0.60417,-0.60416 z m 14,0 c 0.72187,-0.28887 1.58438,-0.25335 1.91667,0.0789 0.33229,0.33229 -0.25834,0.56864 -1.3125,0.52522 -1.16495,-0.048 -1.4019,-0.28494 -0.60417,-0.60416 z M 469.07895,280.41667 c 0.048,-1.16495 0.28494,-1.4019 0.60416,-0.60417 0.28887,0.72187 0.25335,1.58438 -0.0789,1.91667 -0.33229,0.33229 -0.56864,-0.25834 -0.52522,-1.3125 z M 493.87244,280.25 c -1.24387,-1.58606 -1.2085,-1.62143 0.37756,-0.37756 1.66575,1.30637 2.19548,2.12756 1.37244,2.12756 -0.20765,0 -0.99515,-0.7875 -1.75,-1.75 z m 129.20651,0.16667 c 0.048,-1.16495 0.28494,-1.4019 0.60416,-0.60417 0.28887,0.72187 0.25335,1.58438 -0.0789,1.91667 -0.33229,0.33229 -0.56864,-0.25834 -0.52522,-1.3125 z m -108,-2 c 0.048,-1.16495 0.28494,-1.4019 0.60416,-0.60417 0.28887,0.72187 0.25335,1.58438 -0.0789,1.91667 -0.33229,0.33229 -0.56864,-0.25834 -0.52522,-1.3125 z M 617,278.62244 c 0,-0.20765 0.7875,-0.99515 1.75,-1.75 1.58606,-1.24387 1.62143,-1.2085 0.37756,0.37756 C 617.82119,278.91575 617,279.44548 617,278.62244 Z m -357.1875,-1.30555 c 0.72187,-0.28887 1.58438,-0.25335 1.91667,0.0789 0.33229,0.33229 -0.25834,0.56864 -1.3125,0.52522 -1.16495,-0.048 -1.4019,-0.28494 -0.60417,-0.60416 z m 87,0 c 0.72187,-0.28887 1.58438,-0.25335 1.91667,0.0789 0.33229,0.33229 -0.25834,0.56864 -1.3125,0.52522 -1.16495,-0.048 -1.4019,-0.28494 -0.60417,-0.60416 z m 206,0 c 0.72187,-0.28887 1.58438,-0.25335 1.91667,0.0789 0.33229,0.33229 -0.25834,0.56864 -1.3125,0.52522 -1.16495,-0.048 -1.4019,-0.28494 -0.60417,-0.60416 z M 442.75,276.33772 c 0.6875,-0.27741 1.8125,-0.27741 2.5,0 0.6875,0.27741 0.125,0.50439 -1.25,0.50439 -1.375,0 -1.9375,-0.22698 -1.25,-0.50439 z m 159.51903,-0.0307 c 0.97297,-0.25354 2.32297,-0.23687 3,0.0371 0.67703,0.27393 -0.11903,0.48137 -1.76903,0.46099 -1.65,-0.0204 -2.20394,-0.2445 -1.23097,-0.49804 z m -132.19008,-1.89034 c 0.048,-1.16495 0.28494,-1.4019 0.60416,-0.60417 0.28887,0.72187 0.25335,1.58438 -0.0789,1.91667 -0.33229,0.33229 -0.56864,-0.25834 -0.52522,-1.3125 z M 596.87244,274.25 c -1.24387,-1.58606 -1.2085,-1.62143 0.37756,-0.37756 0.9625,0.75485 1.75,1.54235 1.75,1.75 0,0.82304 -0.82119,0.29331 -2.12756,-1.37244 z m -294.79349,-0.83333 c 0.048,-1.16495 0.28494,-1.4019 0.60416,-0.60417 0.28887,0.72187 0.25335,1.58438 -0.0789,1.91667 -0.33229,0.33229 -0.56864,-0.25834 -0.52522,-1.3125 z m 87,0 c 0.048,-1.16495 0.28494,-1.4019 0.60416,-0.60417 0.28887,0.72187 0.25335,1.58438 -0.0789,1.91667 -0.33229,0.33229 -0.56864,-0.25834 -0.52522,-1.3125 z m 272,0 c 0.048,-1.16495 0.28494,-1.4019 0.60416,-0.60417 0.28887,0.72187 0.25335,1.58438 -0.0789,1.91667 -0.33229,0.33229 -0.56864,-0.25834 -0.52522,-1.3125 z M 491.15789,272 c 0,-1.375 0.22698,-1.9375 0.50439,-1.25 0.27741,0.6875 0.27741,1.8125 0,2.5 -0.27741,0.6875 -0.50439,0.125 -0.50439,-1.25 z M 452,272.62244 c 0,-0.20765 0.7875,-0.99515 1.75,-1.75 1.58606,-1.24387 1.62143,-1.2085 0.37756,0.37756 C 452.82119,272.91575 452,273.44548 452,272.62244 Z M 500.232,270 c 0,-1.925 0.2058,-2.7125 0.45733,-1.75 0.25152,0.9625 0.25152,2.5375 0,3.5 -0.25153,0.9625 -0.45733,0.175 -0.45733,-1.75 z m 132.84695,-0.58333 c 0.048,-1.16495 0.28494,-1.4019 0.60416,-0.60417 0.28887,0.72187 0.25335,1.58438 -0.0789,1.91667 -0.33229,0.33229 -0.56864,-0.25834 -0.52522,-1.3125 z M 595.232,267 c 0,-1.925 0.2058,-2.7125 0.45733,-1.75 0.25152,0.9625 0.25152,2.5375 0,3.5 -0.25153,0.9625 -0.45733,0.175 -0.45733,-1.75 z m -292.15305,0.41667 c 0.048,-1.16495 0.28494,-1.4019 0.60416,-0.60417 0.28887,0.72187 0.25335,1.58438 -0.0789,1.91667 -0.33229,0.33229 -0.56864,-0.25834 -0.52522,-1.3125 z M 425.34941,260 c 0,-4.675 0.17226,-6.5875 0.3828,-4.25 0.21053,2.3375 0.21053,6.1625 0,8.5 -0.21054,2.3375 -0.3828,0.425 -0.3828,-4.25 z m 8.84554,4.5 c 0.0204,-1.65 0.2445,-2.20394 0.49804,-1.23097 0.25354,0.97297 0.23687,2.32297 -0.0371,3 -0.27393,0.67703 -0.48137,-0.11903 -0.46099,-1.76903 z m -311.116,-0.0833 c 0.048,-1.16495 0.28494,-1.4019 0.60416,-0.60417 0.28887,0.72187 0.25335,1.58438 -0.0789,1.91667 -0.3323,0.33229 -0.56864,-0.25834 -0.52522,-1.3125 z m 56,0 c 0.048,-1.16495 0.28494,-1.4019 0.60416,-0.60417 0.28887,0.72187 0.25335,1.58438 -0.0789,1.91667 -0.3323,0.33229 -0.56864,-0.25834 -0.52522,-1.3125 z m 55,0 c 0.048,-1.16495 0.28494,-1.4019 0.60416,-0.60417 0.28887,0.72187 0.25335,1.58438 -0.0789,1.91667 -0.3323,0.33229 -0.56864,-0.25834 -0.52522,-1.3125 z m 87,0 c 0.048,-1.16495 0.28494,-1.4019 0.60416,-0.60417 0.28887,0.72187 0.25335,1.58438 -0.0789,1.91667 -0.33229,0.33229 -0.56864,-0.25834 -0.52522,-1.3125 z m 206,0 c 0.048,-1.16495 0.28494,-1.4019 0.60416,-0.60417 0.28887,0.72187 0.25335,1.58438 -0.0789,1.91667 -0.33229,0.33229 -0.56864,-0.25834 -0.52522,-1.3125 z m -232,-1 c 0.048,-1.16495 0.28494,-1.4019 0.60416,-0.60417 0.28887,0.72187 0.25335,1.58438 -0.0789,1.91667 -0.33229,0.33229 -0.56864,-0.25834 -0.52522,-1.3125 z m 87,0 c 0.048,-1.16495 0.28494,-1.4019 0.60416,-0.60417 0.28887,0.72187 0.25335,1.58438 -0.0789,1.91667 -0.33229,0.33229 -0.56864,-0.25834 -0.52522,-1.3125 z m 110,0 c 0.048,-1.16495 0.28494,-1.4019 0.60416,-0.60417 0.28887,0.72187 0.25335,1.58438 -0.0789,1.91667 -0.33229,0.33229 -0.56864,-0.25834 -0.52522,-1.3125 z m 162,0 c 0.048,-1.16495 0.28494,-1.4019 0.60416,-0.60417 0.28887,0.72187 0.25335,1.58438 -0.0789,1.91667 -0.33229,0.33229 -0.56864,-0.25834 -0.52522,-1.3125 z M 132.19495,260.5 c 0.0204,-1.65 0.2445,-2.20394 0.49804,-1.23097 0.25354,0.97297 0.23687,2.32297 -0.0371,3 -0.27393,0.67703 -0.48137,-0.11903 -0.46099,-1.76903 z m 56,0 c 0.0204,-1.65 0.2445,-2.20394 0.49804,-1.23097 0.25354,0.97297 0.23687,2.32297 -0.0371,3 -0.27393,0.67703 -0.48137,-0.11903 -0.46099,-1.76903 z m 55,0 c 0.0204,-1.65 0.2445,-2.20394 0.49804,-1.23097 0.25354,0.97297 0.23687,2.32297 -0.0371,3 -0.27393,0.67703 -0.48137,-0.11903 -0.46099,-1.76903 z m 87,0 c 0.0204,-1.65 0.2445,-2.20394 0.49804,-1.23097 0.25354,0.97297 0.23687,2.32297 -0.0371,3 -0.27393,0.67703 -0.48137,-0.11903 -0.46099,-1.76903 z m 141.884,0.91667 c 0.048,-1.16495 0.28494,-1.4019 0.60416,-0.60417 0.28887,0.72187 0.25335,1.58438 -0.0789,1.91667 -0.33229,0.33229 -0.56864,-0.25834 -0.52522,-1.3125 z m 64.116,-0.91667 c 0.0204,-1.65 0.2445,-2.20394 0.49804,-1.23097 0.25354,0.97297 0.23687,2.32297 -0.0371,3 -0.27393,0.67703 -0.48137,-0.11903 -0.46099,-1.76903 z m 50.96294,0.5 c 0,-1.375 0.22698,-1.9375 0.50439,-1.25 0.27741,0.6875 0.27741,1.8125 0,2.5 -0.27741,0.6875 -0.50439,0.125 -0.50439,-1.25 z m -196.07894,-0.58333 c 0.048,-1.16495 0.28494,-1.4019 0.60416,-0.60417 0.28887,0.72187 0.25335,1.58438 -0.0789,1.91667 -0.33229,0.33229 -0.56864,-0.25834 -0.52522,-1.3125 z m 272,0 c 0.048,-1.16495 0.28494,-1.4019 0.60416,-0.60417 0.28887,0.72187 0.25335,1.58438 -0.0789,1.91667 -0.33229,0.33229 -0.56864,-0.25834 -0.52522,-1.3125 z m -367,-3 c 0.048,-1.16495 0.28494,-1.4019 0.60416,-0.60417 0.28887,0.72187 0.25335,1.58438 -0.0789,1.91667 -0.33229,0.33229 -0.56864,-0.25834 -0.52522,-1.3125 z M 434.25218,255.5 c 0.0111,-2.2 0.21589,-2.98225 0.45508,-1.73834 0.23919,1.24391 0.23011,3.04391 -0.0202,4 -0.25029,0.95609 -0.446,-0.0617 -0.4349,-2.26166 z M 33.412314,255.7581 31.5,253.5 l 2.106618,1.77523 c 1.746684,1.47191 2.297908,1.54474 3.226206,0.4262 0.829101,-0.999 0.814411,-1.6542 -0.05662,-2.52522 C 36.129293,252.52929 35.8599,252 36.177555,252 c 0.317656,0 1.081067,0.60669 1.696469,1.34821 0.850468,1.02475 0.67887,1.74644 -0.715241,3.00809 -1.719379,1.55602 -1.953823,1.51859 -3.746469,-0.5982 z m 439.666636,-0.34143 c 0.048,-1.16495 0.28494,-1.4019 0.60416,-0.60417 0.28887,0.72187 0.25335,1.58438 -0.0789,1.91667 -0.33229,0.33229 -0.56864,-0.25834 -0.52522,-1.3125 z m -81,-1 c 0.048,-1.16495 0.28494,-1.4019 0.60416,-0.60417 0.28887,0.72187 0.25335,1.58437 -0.0789,1.91667 -0.33229,0.33229 -0.56864,-0.25834 -0.52522,-1.3125 z m 110,0 c 0.048,-1.16495 0.28494,-1.4019 0.60416,-0.60417 0.28887,0.72187 0.25335,1.58437 -0.0789,1.91667 -0.33229,0.33229 -0.56864,-0.25834 -0.52522,-1.3125 z m 162,0 c 0.048,-1.16495 0.28494,-1.4019 0.60416,-0.60417 0.28887,0.72187 0.25335,1.58437 -0.0789,1.91667 -0.33229,0.33229 -0.56864,-0.25834 -0.52522,-1.3125 z M 132.232,251 c 0,-1.925 0.2058,-2.7125 0.45733,-1.75 0.25152,0.9625 0.25152,2.5375 0,3.5 -0.25153,0.9625 -0.45733,0.175 -0.45733,-1.75 z m 56,0 c 0,-1.925 0.2058,-2.7125 0.45733,-1.75 0.25152,0.9625 0.25152,2.5375 0,3.5 -0.25153,0.9625 -0.45733,0.175 -0.45733,-1.75 z m 54.884,1.25 c -0.0992,-1.92377 0.35523,-2.22828 3.134,-2.10017 2.93391,0.13526 2.98854,0.18977 0.56168,0.56047 -1.47858,0.22585 -2.88888,1.17093 -3.134,2.10017 -0.31611,1.19834 -0.4794,1.03539 -0.56168,-0.56047 z m 87,0 c -0.0992,-1.92377 0.35523,-2.22828 3.134,-2.10017 2.93391,0.13526 2.98854,0.18977 0.56168,0.56047 -1.47858,0.22585 -2.88888,1.17093 -3.134,2.10017 -0.31611,1.19834 -0.4794,1.03539 -0.56168,-0.56047 z m 206,0 c -0.0992,-1.92377 0.35523,-2.22828 3.134,-2.10017 2.93391,0.13526 2.98854,0.18977 0.56168,0.56047 -1.47858,0.22585 -2.88888,1.17093 -3.134,2.10017 -0.31611,1.19834 -0.4794,1.03539 -0.56168,-0.56047 z M 99.078947,251.41667 c 0.04798,-1.16495 0.284941,-1.4019 0.604167,-0.60417 0.288871,0.72187 0.253344,1.58437 -0.07895,1.91667 -0.332292,0.33229 -0.568641,-0.25834 -0.52522,-1.3125 z m 498.000003,0 c 0.048,-1.16495 0.28494,-1.4019 0.60416,-0.60417 0.28887,0.72187 0.25335,1.58437 -0.0789,1.91667 -0.33229,0.33229 -0.56864,-0.25834 -0.52522,-1.3125 z m -103,-1 c 0.048,-1.16495 0.28494,-1.4019 0.60416,-0.60417 0.28887,0.72187 0.25335,1.58437 -0.0789,1.91667 -0.33229,0.33229 -0.56864,-0.25834 -0.52522,-1.3125 z m 142,0 c 0.048,-1.16495 0.28494,-1.4019 0.60416,-0.60417 0.28887,0.72187 0.25335,1.58437 -0.0789,1.91667 -0.33229,0.33229 -0.56864,-0.25834 -0.52522,-1.3125 z M 33,248 c -1.174904,-1.65 -1.911188,-3 -1.636188,-3 0.275,0 1.461284,1.35 2.636188,3 1.174904,1.65 1.911188,3 1.636188,3 -0.275,0 -1.461284,-1.35 -2.636188,-3 z m 201.15789,1 c 0,-1.375 0.22698,-1.9375 0.50439,-1.25 0.27741,0.6875 0.27741,1.8125 0,2.5 -0.27741,0.6875 -0.50439,0.125 -0.50439,-1.25 z m 87,0 c 0,-1.375 0.22698,-1.9375 0.50439,-1.25 0.27741,0.6875 0.27741,1.8125 0,2.5 -0.27741,0.6875 -0.50439,0.125 -0.50439,-1.25 z m 206,0 c 0,-1.375 0.22698,-1.9375 0.50439,-1.25 0.27741,0.6875 0.27741,1.8125 0,2.5 -0.27741,0.6875 -0.50439,0.125 -0.50439,-1.25 z M 26.379684,246 C 21.378172,238.77317 14.376417,225.20953 10.635125,215.5 -7.3597701,168.79902 -2.3546334,116.58937 24.200182,74 L 29.5,65.5 29.774378,82.29395 c 0.187642,11.485023 0.608608,16.587386 1.33166,16.140515 0.581505,-0.35939 -0.183477,1.308332 -1.69996,3.706045 -7.341578,11.6078 -14.12273,29.98863 -16.973505,46.00797 -2.20523,12.39184 -2.213003,34.35305 -0.01658,46.85152 2.198716,12.51154 7.573223,28.35482 13.399565,39.5 3.790292,7.25043 4.605142,9.68039 4.19169,12.5 l -0.51322,3.5 -3.11434,-4.5 z m 96.778206,2 c 0,-1.375 0.22698,-1.9375 0.50439,-1.25 0.27741,0.6875 0.27741,1.8125 0,2.5 -0.27741,0.6875 -0.50439,0.125 -0.50439,-1.25 z m 56,0 c 0,-1.375 0.22698,-1.9375 0.50439,-1.25 0.27741,0.6875 0.27741,1.8125 0,2.5 -0.27741,0.6875 -0.50439,0.125 -0.50439,-1.25 z m 79.65461,1.31689 c 0.72187,-0.28887 1.58438,-0.25335 1.91667,0.0789 0.33229,0.33229 -0.25834,0.56864 -1.3125,0.52522 -1.16495,-0.048 -1.4019,-0.28494 -0.60417,-0.60416 z m 47.26645,-0.90022 c 0.048,-1.16495 0.28494,-1.4019 0.60416,-0.60417 0.28887,0.72187 0.25335,1.58437 -0.0789,1.91667 -0.33229,0.33229 -0.56864,-0.25834 -0.52522,-1.3125 z m 39.73355,0.90022 c 0.72187,-0.28887 1.58438,-0.25335 1.91667,0.0789 0.33229,0.33229 -0.25834,0.56864 -1.3125,0.52522 -1.16495,-0.048 -1.4019,-0.28494 -0.60417,-0.60416 z m 206,0 c 0.72187,-0.28887 1.58438,-0.25335 1.91667,0.0789 0.33229,0.33229 -0.25834,0.56864 -1.3125,0.52522 -1.16495,-0.048 -1.4019,-0.28494 -0.60417,-0.60416 z M 75.797482,248.25525 c 4.563614,-0.18572 11.763614,-0.18468 16,0.002 4.236385,0.18698 0.502518,0.33893 -8.297482,0.33766 -8.8,-0.001 -12.266133,-0.15425 -7.702518,-0.33996 z m 350.281468,-1.83858 c 0.048,-1.16495 0.28494,-1.4019 0.60416,-0.60417 0.28887,0.72187 0.25335,1.58437 -0.0789,1.91667 -0.33229,0.33229 -0.56864,-0.25834 -0.52522,-1.3125 z m 40,-1 c 0.048,-1.16495 0.28494,-1.4019 0.60416,-0.60417 0.28887,0.72187 0.25335,1.58437 -0.0789,1.91667 -0.33229,0.33229 -0.56864,-0.25834 -0.52522,-1.3125 z m -81,-1 c 0.048,-1.16495 0.28494,-1.4019 0.60416,-0.60417 0.28887,0.72187 0.25335,1.58437 -0.0789,1.91667 -0.33229,0.33229 -0.56864,-0.25834 -0.52522,-1.3125 z m 272,0 c 0.048,-1.16495 0.28494,-1.4019 0.60416,-0.60417 0.28887,0.72187 0.25335,1.58437 -0.0789,1.91667 -0.33229,0.33229 -0.56864,-0.25834 -0.52522,-1.3125 z M 254.75,243.33772 c 0.6875,-0.27741 1.8125,-0.27741 2.5,0 0.6875,0.27741 0.125,0.50439 -1.25,0.50439 -1.375,0 -1.9375,-0.22698 -1.25,-0.50439 z m 87,0 c 0.6875,-0.27741 1.8125,-0.27741 2.5,0 0.6875,0.27741 0.125,0.50439 -1.25,0.50439 -1.375,0 -1.9375,-0.22698 -1.25,-0.50439 z m 133.32895,-0.92105 c 0.048,-1.16495 0.28494,-1.4019 0.60416,-0.60417 0.28887,0.72187 0.25335,1.58437 -0.0789,1.91667 -0.33229,0.33229 -0.56864,-0.25834 -0.52522,-1.3125 z m 72.67105,0.92105 c 0.6875,-0.27741 1.8125,-0.27741 2.5,0 0.6875,0.27741 0.125,0.50439 -1.25,0.50439 -1.375,0 -1.9375,-0.22698 -1.25,-0.50439 z m -43.67105,-1.92105 c 0.048,-1.16495 0.28494,-1.4019 0.60416,-0.60417 0.28887,0.72187 0.25335,1.58437 -0.0789,1.91667 -0.33229,0.33229 -0.56864,-0.25834 -0.52522,-1.3125 z m 86,0 c 0.048,-1.16495 0.28494,-1.4019 0.60416,-0.60417 0.28887,0.72187 0.25335,1.58437 -0.0789,1.91667 -0.33229,0.33229 -0.56864,-0.25834 -0.52522,-1.3125 z m 39,-1 c 0.048,-1.16495 0.28494,-1.4019 0.60416,-0.60417 0.28887,0.72187 0.25335,1.58437 -0.0789,1.91667 -0.33229,0.33229 -0.56864,-0.25834 -0.52522,-1.3125 z m -330,-2 c 0.048,-1.16495 0.28494,-1.4019 0.60416,-0.60417 0.28887,0.72187 0.25335,1.58437 -0.0789,1.91667 -0.33229,0.33229 -0.56864,-0.25834 -0.52522,-1.3125 z m 168,0 c 0.048,-1.16495 0.28494,-1.4019 0.60416,-0.60417 0.28887,0.72187 0.25335,1.58437 -0.0789,1.91667 -0.33229,0.33229 -0.56864,-0.25834 -0.52522,-1.3125 z m 163,-4 c 0.048,-1.16495 0.28494,-1.4019 0.60416,-0.60417 0.28887,0.72187 0.25335,1.58437 -0.0789,1.91667 -0.33229,0.33229 -0.56864,-0.25834 -0.52522,-1.3125 z m -30,-2 c 0.048,-1.16495 0.28494,-1.4019 0.60416,-0.60417 0.28887,0.72187 0.25335,1.58437 -0.0789,1.91667 -0.33229,0.33229 -0.56864,-0.25834 -0.52522,-1.3125 z M 285.28601,228.5 c 0.008,-2.75 0.20172,-3.75631 0.43157,-2.23625 0.22986,1.52006 0.22371,3.77006 -0.0136,5 -0.23736,1.22994 -0.42542,-0.0137 -0.41792,-2.76375 z m 87,0 c 0.008,-2.75 0.20172,-3.75631 0.43157,-2.23625 0.22986,1.52006 0.22371,3.77006 -0.0136,5 -0.23736,1.22994 -0.42542,-0.0137 -0.41792,-2.76375 z m 124.79294,2.91667 c 0.048,-1.16495 0.28494,-1.4019 0.60416,-0.60417 0.28887,0.72187 0.25335,1.58437 -0.0789,1.91667 -0.33229,0.33229 -0.56864,-0.25834 -0.52522,-1.3125 z M 578.28601,228.5 c 0.008,-2.75 0.20172,-3.75631 0.43157,-2.23625 0.22986,1.52006 0.22371,3.77006 -0.0136,5 -0.23736,1.22994 -0.42542,-0.0137 -0.41792,-2.76375 z m 60.79294,2.91667 c 0.048,-1.16495 0.28494,-1.4019 0.60416,-0.60417 0.28887,0.72187 0.25335,1.58437 -0.0789,1.91667 -0.33229,0.33229 -0.56864,-0.25834 -0.52522,-1.3125 z m -330,-2 c 0.048,-1.16495 0.28494,-1.4019 0.60416,-0.60417 0.28887,0.72187 0.25335,1.58437 -0.0789,1.91667 -0.33229,0.33229 -0.56864,-0.25834 -0.52522,-1.3125 z m 197,-1 c 0.048,-1.16495 0.28494,-1.4019 0.60416,-0.60417 0.28887,0.72187 0.25335,1.58437 -0.0789,1.91667 -0.33229,0.33229 -0.56864,-0.25834 -0.52522,-1.3125 z m 86,0 c 0.048,-1.16495 0.28494,-1.4019 0.60416,-0.60417 0.28887,0.72187 0.25335,1.58437 -0.0789,1.91667 -0.33229,0.33229 -0.56864,-0.25834 -0.52522,-1.3125 z M 404,227.62244 c 0,-0.20765 0.7875,-0.99515 1.75,-1.75 1.58606,-1.24387 1.62143,-1.2085 0.37756,0.37756 C 404.82119,227.91575 404,228.44548 404,227.62244 Z m 272,0 c 0,-0.20765 0.7875,-0.99515 1.75,-1.75 1.58606,-1.24387 1.62143,-1.2085 0.37756,0.37756 C 676.82119,227.91575 676,228.44548 676,227.62244 Z m -287.92105,-2.20577 c 0.048,-1.16495 0.28494,-1.4019 0.60416,-0.60417 0.28887,0.72187 0.25335,1.58437 -0.0789,1.91667 -0.33229,0.33229 -0.56864,-0.25834 -0.52522,-1.3125 z m 81,0 c 0.048,-1.16495 0.28494,-1.4019 0.60416,-0.60417 0.28887,0.72187 0.25335,1.58437 -0.0789,1.91667 -0.33229,0.33229 -0.56864,-0.25834 -0.52522,-1.3125 z m 191,0 c 0.048,-1.16495 0.28494,-1.4019 0.60416,-0.60417 0.28887,0.72187 0.25335,1.58437 -0.0789,1.91667 -0.33229,0.33229 -0.56864,-0.25834 -0.52522,-1.3125 z M 168.87244,224.25 c -1.26951,-1.61876 -1.22245,-1.63998 0.62756,-0.28297 1.1,0.80687 2.1875,1.59437 2.41667,1.75 0.22916,0.15563 -0.0532,0.28297 -0.62756,0.28297 -0.57432,0 -1.66182,-0.7875 -2.41667,-1.75 z m 56,0 c -1.26951,-1.61876 -1.22245,-1.63998 0.62756,-0.28297 1.1,0.80687 2.1875,1.59437 2.41667,1.75 0.22916,0.15563 -0.0532,0.28297 -0.62756,0.28297 -0.57432,0 -1.66182,-0.7875 -2.41667,-1.75 z m 85.20651,-0.83333 c 0.048,-1.16495 0.28494,-1.4019 0.60416,-0.60417 0.28887,0.72187 0.25335,1.58437 -0.0789,1.91667 -0.33229,0.33229 -0.56864,-0.25834 -0.52522,-1.3125 z m 168,0 c 0.048,-1.16495 0.28494,-1.4019 0.60416,-0.60417 0.28887,0.72187 0.25335,1.58437 -0.0789,1.91667 -0.33229,0.33229 -0.56864,-0.25834 -0.52522,-1.3125 z m -384.000003,-1 c 0.04798,-1.16495 0.284941,-1.4019 0.604167,-0.60417 0.288871,0.72187 0.253344,1.58437 -0.07895,1.91667 -0.332292,0.33229 -0.568641,-0.25834 -0.52522,-1.3125 z M 437.5,221 c 0.99549,-1.1 2.03498,-2 2.30998,-2 0.275,0 -0.31449,0.9 -1.30998,2 -0.99549,1.1 -2.03498,2 -2.30998,2 -0.275,0 0.31449,-0.9 1.30998,-2 z m 194.57895,0.41667 c 0.048,-1.16495 0.28494,-1.4019 0.60416,-0.60417 0.28887,0.72187 0.25335,1.58437 -0.0789,1.91667 -0.33229,0.33229 -0.56864,-0.25834 -0.52522,-1.3125 z m -330,-2 c 0.048,-1.16495 0.28494,-1.4019 0.60416,-0.60417 0.28887,0.72187 0.25335,1.58437 -0.0789,1.91667 -0.33229,0.33229 -0.56864,-0.25834 -0.52522,-1.3125 z m 300,0 c 0.048,-1.16495 0.28494,-1.4019 0.60416,-0.60417 0.28887,0.72187 0.25335,1.58437 -0.0789,1.91667 -0.33229,0.33229 -0.56864,-0.25834 -0.52522,-1.3125 z m -446.26645,-0.0998 c 0.72187,-0.28887 1.58437,-0.25335 1.91667,0.0789 0.33229,0.33229 -0.25834,0.56864 -1.3125,0.52522 -1.16495,-0.048 -1.4019,-0.28494 -0.60417,-0.60416 z m 56,0 c 0.72187,-0.28887 1.58437,-0.25335 1.91667,0.0789 0.33229,0.33229 -0.25834,0.56864 -1.3125,0.52522 -1.16495,-0.048 -1.4019,-0.28494 -0.60417,-0.60416 z m 53.45653,-0.01 c 0.97297,-0.25354 2.32297,-0.23687 3,0.0371 0.67703,0.27393 -0.11903,0.48137 -1.76903,0.46099 -1.65,-0.0204 -2.20394,-0.2445 -1.23097,-0.49804 z m 87,0 c 0.97297,-0.25354 2.32297,-0.23687 3,0.0371 0.67703,0.27393 -0.11903,0.48137 -1.76903,0.46099 -1.65,-0.0204 -2.20394,-0.2445 -1.23097,-0.49804 z m 206,0 c 0.97297,-0.25354 2.32297,-0.23687 3,0.0371 0.67703,0.27393 -0.11903,0.48137 -1.76903,0.46099 -1.65,-0.0204 -2.20394,-0.2445 -1.23097,-0.49804 z M 470.63837,215.5 c 0.31659,-0.825 0.75246,-1.5 0.96862,-1.5 0.21615,0 0.39301,0.675 0.39301,1.5 0,0.825 -0.43588,1.5 -0.96862,1.5 -0.53273,0 -0.70959,-0.675 -0.39301,-1.5 z M 525,215.16667 c 0,-0.77835 -2.74595,-1.23365 -8.25,-1.36791 l -8.25,-0.20125 7.90514,-0.34361 c 7.31076,-0.31778 11.03125,0.64304 9.27819,2.3961 C 525.3075,216.02583 525,215.80833 525,215.16667 Z m -221.92105,-1.75 c 0.048,-1.16495 0.28494,-1.4019 0.60416,-0.60417 0.28887,0.72187 0.25335,1.58437 -0.0789,1.91667 -0.33229,0.33229 -0.56864,-0.25834 -0.52522,-1.3125 z M 495.99126,213.296 c 1.9202,-0.25229 3.86695,-0.9846 4.32613,-1.62735 0.56944,-0.79711 0.70661,-0.69176 0.43144,0.33135 -0.26338,0.97929 -1.76516,1.54421 -4.32613,1.62735 -3.75781,0.122 -3.77594,0.10807 -0.43144,-0.33135 z M 92.078947,210.41667 c 0.04798,-1.16495 0.284941,-1.4019 0.604167,-0.60417 0.288871,0.72187 0.253344,1.58437 -0.07895,1.91667 -0.332292,0.33229 -0.568641,-0.25834 -0.52522,-1.3125 z m 221.000003,-6 c 0.048,-1.16495 0.28494,-1.4019 0.60416,-0.60417 0.28887,0.72187 0.25335,1.58437 -0.0789,1.91667 -0.33229,0.33229 -0.56864,-0.25834 -0.52522,-1.3125 z M 90.5,203 c 0.339919,-0.55 0.816476,-1 1.059017,-1 C 91.801558,202 92,202.45 92,203 c 0,0.55 -0.476558,1 -1.059017,1 -0.582459,0 -0.780902,-0.45 -0.440983,-1 z m 215.57895,-8.58333 c 0.048,-1.16495 0.28494,-1.4019 0.60416,-0.60417 0.28887,0.72187 0.25335,1.58437 -0.0789,1.91667 -0.33229,0.33229 -0.56864,-0.25834 -0.52522,-1.3125 z m 10,-9 c 0.048,-1.16495 0.28494,-1.4019 0.60416,-0.60417 0.28887,0.72187 0.25335,1.58437 -0.0789,1.91667 -0.33229,0.33229 -0.56864,-0.25834 -0.52522,-1.3125 z M 128.40499,159.75 126.5,157.5 l 2.25,1.90499 c 2.11444,1.79022 2.70524,2.59501 1.90499,2.59501 -0.18976,0 -1.20226,-1.0125 -2.25,-2.25 z M 36,90.622445 c 0,-0.207656 0.7875,-0.995156 1.75,-1.75 C 39.336056,87.628574 39.371426,87.663944 38.127555,89.25 36.821186,90.915748 36,91.445479 36,90.622445 Z M 41,84.5 C 42.291745,83.125 43.573628,82 43.848628,82 44.123628,82 43.291745,83.125 42,84.5 40.708255,85.875 39.426372,87 39.151372,87 38.876372,87 39.708255,85.875 41,84.5 Z m 9,-10 C 51.291745,73.125 52.573628,72 52.848628,72 53.123628,72 52.291745,73.125 51,74.5 49.708255,75.875 48.426372,77 48.151372,77 47.876372,77 48.708255,75.875 50,74.5 Z m 8,-6.877555 c 0,-0.207656 0.7875,-0.995156 1.75,-1.75 C 61.336056,64.628574 61.371426,64.663944 60.127555,66.25 58.821186,67.915748 58,68.445479 58,67.622445 Z M 35.5,58 c 0.995486,-1.1 2.034975,-2 2.309975,-2 0.275,0 -0.314489,0.9 -1.309975,2 -0.995486,1.1 -2.034975,2 -2.309975,2 -0.275,0 0.314489,-0.9 1.309975,-2 z M 39,53.724972 c 0,-0.151265 3.4875,-3.638765 7.75,-7.75 L 54.5,38.5 47.025028,46.25 C 40.082438,53.448029 39,54.456274 39,53.724972 Z M 270,46.5 c -2.42903,-2.475 -4.19142,-4.5 -3.91642,-4.5 0.275,0 2.48739,2.025 4.91642,4.5 2.42903,2.475 4.19142,4.5 3.91642,4.5 -0.275,0 -2.48739,-2.025 -4.91642,-4.5 z M 125.8125,36.316886 c 0.72187,-0.288871 1.58438,-0.253344 1.91667,0.07895 0.33229,0.332292 -0.25834,0.568641 -1.3125,0.52522 -1.16495,-0.04798 -1.4019,-0.284941 -0.60417,-0.604167 z m 40,0 c 0.72187,-0.288871 1.58437,-0.253344 1.91667,0.07895 0.33229,0.332292 -0.25834,0.568641 -1.3125,0.52522 -1.16495,-0.04798 -1.4019,-0.284941 -0.60417,-0.604167 z m -32,-1 c 0.72187,-0.288871 1.58437,-0.253344 1.91667,0.07895 0.33229,0.332292 -0.25834,0.568641 -1.3125,0.52522 -1.16495,-0.04798 -1.4019,-0.284941 -0.60417,-0.604167 z m 21.4375,-0.0062 c 0.9625,-0.251527 2.5375,-0.251527 3.5,0 0.9625,0.251528 0.175,0.457323 -1.75,0.457323 -1.925,0 -2.7125,-0.205795 -1.75,-0.457323 z m 25.5625,-33.9938 c 0.72187,-0.2888706 1.58437,-0.2533443 1.91667,0.078947 0.33229,0.3322917 -0.25834,0.5686404 -1.3125,0.5252193 -1.16495,-0.047984 -1.4019,-0.2849403 -0.60417,-0.6041663 z m -38,-1.00000004 c 0.72187,-0.28887061 1.58437,-0.25334429 1.91667,0.0789474 0.33229,0.33229167 -0.25834,0.56864035 -1.3125,0.5252193 -1.16495,-0.0479839 -1.4019,-0.2849403 -0.60417,-0.6041667 z m 29.45653,-0.009877 c 0.97297,-0.25354341 2.32297,-0.23686912 3,0.037054 0.67703,0.2739231 -0.11903,0.48136771 -1.76903,0.46098802 -1.65,-0.0203797 -2.20394,-0.24449859 -1.23097,-0.49804202 z"
       id="path835"
       inkscape:connector-curvature="0" />
    <path
       style="fill:#72bbe2"
       d="m 455.5,278 c 0.99549,-1.1 2.03498,-2 2.30998,-2 0.275,0 -0.31449,0.9 -1.30998,2 -0.99549,1.1 -2.03498,2 -2.30998,2 -0.275,0 0.31449,-0.9 1.30998,-2 z m -326.62756,-0.75 c -1.24387,-1.58606 -1.2085,-1.62143 0.37756,-0.37756 0.9625,0.75485 1.75,1.54235 1.75,1.75 0,0.82304 -0.82119,0.29331 -2.12756,-1.37244 z m 56,0 c -1.24387,-1.58606 -1.2085,-1.62143 0.37756,-0.37756 0.9625,0.75485 1.75,1.54235 1.75,1.75 0,0.82304 -0.82119,0.29331 -2.12756,-1.37244 z m 55,0 c -1.24387,-1.58606 -1.2085,-1.62143 0.37756,-0.37756 0.9625,0.75485 1.75,1.54235 1.75,1.75 0,0.82304 -0.82119,0.29331 -2.12756,-1.37244 z m 87,0 c -1.24387,-1.58606 -1.2085,-1.62143 0.37756,-0.37756 1.66575,1.30637 2.19548,2.12756 1.37244,2.12756 -0.20765,0 -0.99515,-0.7875 -1.75,-1.75 z m 206,0 c -1.24387,-1.58606 -1.2085,-1.62143 0.37756,-0.37756 1.66575,1.30637 2.19548,2.12756 1.37244,2.12756 -0.20765,0 -0.99515,-0.7875 -1.75,-1.75 z m -369.32973,-4.1809 c -0.31644,-0.512 -0.19299,-1.1672 0.27431,-1.45601 0.46731,-0.28881 0.84965,0.13009 0.84965,0.9309 0,1.68617 -0.31534,1.83349 -1.12396,0.52511 z m 56,0 c -0.31644,-0.512 -0.19299,-1.1672 0.27431,-1.45601 0.46731,-0.28881 0.84965,0.13009 0.84965,0.9309 0,1.68617 -0.31534,1.83349 -1.12396,0.52511 z M 615,271.62244 c 0,-0.20765 0.7875,-0.99515 1.75,-1.75 1.58606,-1.24387 1.62143,-1.2085 0.37756,0.37756 C 615.82119,271.91575 615,272.44548 615,271.62244 Z M 462.5,269 c 0.33992,-0.55 0.81648,-1 1.05902,-1 0.24254,0 0.44098,0.45 0.44098,1 0,0.55 -0.47656,1 -1.05902,1 -0.58246,0 -0.7809,-0.45 -0.44098,-1 z M 32.520068,253.6152 c -1.801372,-2.36172 -2.554174,-4.42848 -2.338355,-6.41977 0.317097,-2.92575 0.332204,-2.91702 4.040381,2.33463 3.084235,4.36801 3.484961,5.46817 2.338354,6.41977 -1.097777,0.91108 -1.932757,0.4286 -4.04038,-2.33463 z M 246.5,221 c 0.99549,-1.1 2.03498,-2 2.30998,-2 0.275,0 -0.31449,0.9 -1.30998,2 -0.99549,1.1 -2.03498,2 -2.30998,2 -0.275,0 0.31449,-0.9 1.30998,-2 z m 87,0 c 0.99549,-1.1 2.03498,-2 2.30998,-2 0.275,0 -0.31449,0.9 -1.30998,2 -0.99549,1.1 -2.03498,2 -2.30998,2 -0.275,0 0.31449,-0.9 1.30998,-2 z m 206,0 c 0.99549,-1.1 2.03498,-2 2.30998,-2 0.275,0 -0.31449,0.9 -1.30998,2 -0.99549,1.1 -2.03498,2 -2.30998,2 -0.275,0 0.31449,-0.9 1.30998,-2 z M 402,220.62244 c 0,-0.20765 0.7875,-0.99515 1.75,-1.75 1.58606,-1.24387 1.62143,-1.2085 0.37756,0.37756 C 402.82119,220.91575 402,221.44548 402,220.62244 Z m 272,0 c 0,-0.20765 0.7875,-0.99515 1.75,-1.75 1.58606,-1.24387 1.62143,-1.2085 0.37756,0.37756 C 674.82119,220.91575 674,221.44548 674,220.62244 Z M 30,82.561319 V 65.722638 l 5.467494,-6.682906 C 46.932998,45.025471 63.594325,30.493892 77.801726,22.116907 L 83,19.051894 v 15.815124 15.815124 l -4.990903,2.71639 C 64.526016,60.736944 45.387693,77.958197 36.221833,91 33.7093,94.575 31.281534,97.9275 30.826796,98.45 30.372058,98.9725 30,91.822594 30,82.561319 Z"
       id="path833"
       inkscape:connector-curvature="0" />
    <path
       style="fill:#8eaac9"
       d="m 783.75,466.33772 c 0.6875,-0.27741 1.8125,-0.27741 2.5,0 0.6875,0.27741 0.125,0.50439 -1.25,0.50439 -1.375,0 -1.9375,-0.22698 -1.25,-0.50439 z M 425.8125,444.31689 c 0.72187,-0.28887 1.58438,-0.25335 1.91667,0.0789 0.33229,0.33229 -0.25834,0.56864 -1.3125,0.52522 -1.16495,-0.048 -1.4019,-0.28494 -0.60417,-0.60416 z M 293.46705,388 c 0,-30.525 0.12703,-43.0125 0.28229,-27.75 0.15526,15.2625 0.15526,40.2375 0,55.5 -0.15526,15.2625 -0.28229,2.775 -0.28229,-27.75 z m 201.9855,18.5 c 3.1e-4,-20.35 0.13365,-28.53307 0.29631,-18.1846 0.16266,10.34848 0.16241,26.99848 -5.6e-4,37 -0.16297,10.00153 -0.29606,1.5346 -0.29575,-18.8154 z M 741.25,441.25845 c 3.7125,-0.19241 9.7875,-0.19241 13.5,0 3.7125,0.19241 0.675,0.34983 -6.75,0.34983 -7.425,0 -10.4625,-0.15742 -6.75,-0.34983 z m 44.23942,0.008 12.49245,-0.32649 0.27296,-51.22019 0.27295,-51.22019 -0.0139,51.5 -0.0139,51.5 -12.75152,0.0467 -12.75152,0.0467 12.49246,-0.32649 z m 30.76058,-0.008 c 3.7125,-0.19241 9.7875,-0.19241 13.5,0 3.7125,0.19241 0.675,0.34983 -6.75,0.34983 -7.425,0 -10.4625,-0.15742 -6.75,-0.34983 z M 475.43355,404.5 c -6.1e-4,-13.75 0.14023,-19.5137 0.31298,-12.80822 0.17275,6.70549 0.17325,17.95549 10e-4,25 -0.17214,7.04452 -0.31348,1.55822 -0.31409,-12.19178 z m -27.08414,5.5 c 0,-4.675 0.17226,-6.5875 0.3828,-4.25 0.21053,2.3375 0.21053,6.1625 0,8.5 -0.21054,2.3375 -0.3828,0.425 -0.3828,-4.25 z M 193.75,415.25601 c 4.5375,-0.18529 11.9625,-0.18529 16.5,0 4.5375,0.1853 0.825,0.3369 -8.25,0.3369 -9.075,0 -12.7875,-0.1516 -8.25,-0.3369 z m 681.32895,-17.83934 c 0.048,-1.16495 0.28494,-1.4019 0.60416,-0.60417 0.28887,0.72187 0.25335,1.58438 -0.0789,1.91667 -0.33229,0.33229 -0.56864,-0.25834 -0.52522,-1.3125 z M 448.19495,383.5 c 0.0204,-1.65 0.2445,-2.20394 0.49804,-1.23097 0.25354,0.97297 0.23687,2.32297 -0.0371,3 -0.27393,0.67703 -0.48137,-0.11903 -0.46099,-1.76903 z m 426.96294,0.5 c 0,-1.375 0.22698,-1.9375 0.50439,-1.25 0.27741,0.6875 0.27741,1.8125 0,2.5 -0.27741,0.6875 -0.50439,0.125 -0.50439,-1.25 z M 585.36523,371.5 c 0.003,-5.5 0.17053,-7.62242 0.37317,-4.71648 0.20265,2.90594 0.20052,7.40594 -0.005,10 -0.20525,2.59406 -0.37104,0.21648 -0.36844,-5.28352 z m -13.28628,1.91667 c 0.048,-1.16495 0.28494,-1.4019 0.60416,-0.60417 0.28887,0.72187 0.25335,1.58438 -0.0789,1.91667 -0.33229,0.33229 -0.56864,-0.25834 -0.52522,-1.3125 z m 34.70457,-0.15507 c 2.90594,-0.20265 7.40594,-0.20052 10,0.005 2.59406,0.20525 0.21648,0.37104 -5.28352,0.36844 -5.5,-0.003 -7.62242,-0.17053 -4.71648,-0.37317 z M 352.41832,360 l 0.0817,-4.5 14,-0.0412 14,-0.0412 -13.69632,0.3183 -13.69631,0.31831 -0.38537,4.22287 -0.38536,4.22287 0.0817,-4.5 z m 135,0 0.0817,-4.5 14,-0.0412 14,-0.0412 -13.69632,0.3183 -13.69631,0.31831 -0.38537,4.22287 -0.38536,4.22287 0.0817,-4.5 z m 120.39349,-4.74832 c 8.42149,-0.16744 21.92149,-0.16707 30,8.2e-4 8.0785,0.16789 1.18819,0.30489 -15.31181,0.30444 -16.5,-4.5e-4 -23.10969,-0.13781 -14.68819,-0.30526 z M 436.8125,354.31689 c 0.72187,-0.28887 1.58438,-0.25335 1.91667,0.0789 0.33229,0.33229 -0.25834,0.56864 -1.3125,0.52522 -1.16495,-0.048 -1.4019,-0.28494 -0.60417,-0.60416 z m 111.45125,-0.0345 c 1.52006,-0.22986 3.77006,-0.22371 5,0.0136 1.22994,0.23736 -0.0137,0.42542 -2.76375,0.41792 -2.75,-0.008 -3.75631,-0.20172 -2.23625,-0.43157 z m -178.45125,-4.9655 c 0.72187,-0.28887 1.58438,-0.25335 1.91667,0.0789 0.33229,0.33229 -0.25834,0.56864 -1.3125,0.52522 -1.16495,-0.048 -1.4019,-0.28494 -0.60417,-0.60416 z m 5,0 c 0.72187,-0.28887 1.58438,-0.25335 1.91667,0.0789 0.33229,0.33229 -0.25834,0.56864 -1.3125,0.52522 -1.16495,-0.048 -1.4019,-0.28494 -0.60417,-0.60416 z m 389.5963,-7.69395 c -0.29063,-0.75738 -0.35762,-3.56988 -0.14886,-6.25 l 0.37956,-4.87294 0.18025,5.67668 c 0.14197,4.4711 0.5519,5.77379 1.93025,6.13399 1.64009,0.4286 1.63812,0.46461 -0.0314,0.57333 -0.97977,0.0638 -2.01918,-0.50368 -2.30982,-1.26106 z M 170.40553,335.6144 c -0.29244,-0.76207 -0.35693,-3.34957 -0.14333,-5.75 l 0.38839,-4.3644 0.1747,5.18664 c 0.1704,5.0586 0.25494,5.1966 3.42471,5.58996 l 3.25,0.40333 -3.28138,0.16003 c -1.99542,0.0973 -3.48976,-0.38297 -3.81309,-1.22556 z m 87,0 c -0.29244,-0.76207 -0.35693,-3.34957 -0.14333,-5.75 l 0.38839,-4.3644 0.1747,5.17668 c 0.1349,3.9971 0.57347,5.28088 1.92471,5.63399 1.64009,0.4286 1.63812,0.46461 -0.0314,0.57333 -0.97977,0.0638 -2.02066,-0.50752 -2.31309,-1.2696 z m 47,0 c -0.29244,-0.76207 -0.35693,-3.34957 -0.14333,-5.75 l 0.38839,-4.3644 0.1747,5.17668 c 0.1349,3.9971 0.57347,5.28088 1.92471,5.63399 1.64009,0.4286 1.63812,0.46461 -0.0314,0.57333 -0.97977,0.0638 -2.02066,-0.50752 -2.31309,-1.2696 z m 478.36238,-35.33913 c 1.79735,-0.22256 4.49735,-0.21797 6,0.0102 1.50265,0.22818 0.0321,0.41027 -3.26791,0.40466 -3.3,-0.006 -4.52944,-0.1923 -2.73209,-0.41486 z"
       id="path831"
       inkscape:connector-curvature="0" />
    <path
       style="fill:#50abda"
       d="m 506.26903,277.30701 c 0.97297,-0.25354 2.32297,-0.23687 3,0.0371 0.67703,0.27393 -0.11903,0.48137 -1.76903,0.46099 -1.65,-0.0204 -2.20394,-0.2445 -1.23097,-0.49804 z M 436.87244,274.25 c -1.24387,-1.58606 -1.2085,-1.62143 0.37756,-0.37756 0.9625,0.75485 1.75,1.54235 1.75,1.75 0,0.82304 -0.82119,0.29331 -2.12756,-1.37244 z m 158.20651,-11.83333 c 0.048,-1.16495 0.28494,-1.4019 0.60416,-0.60417 0.28887,0.72187 0.25335,1.58438 -0.0789,1.91667 -0.33229,0.33229 -0.56864,-0.25834 -0.52522,-1.3125 z M 123.30987,256.5 c 0.006,-3.3 0.1923,-4.52944 0.41486,-2.73209 0.22256,1.79735 0.21797,4.49735 -0.0102,6 -0.22818,1.50265 -0.41027,0.0321 -0.40466,-3.26791 z m 56,0 c 0.006,-3.3 0.1923,-4.52944 0.41486,-2.73209 0.22256,1.79735 0.21797,4.49735 -0.0102,6 -0.22818,1.50265 -0.41027,0.0321 -0.40466,-3.26791 z m 54.98979,0.5 c 0,-3.025 0.18747,-4.2625 0.41659,-2.75 0.22913,1.5125 0.22913,3.9875 0,5.5 -0.22912,1.5125 -0.41659,0.275 -0.41659,-2.75 z m 87,0 c 0,-3.025 0.18747,-4.2625 0.41659,-2.75 0.22913,1.5125 0.22913,3.9875 0,5.5 -0.22912,1.5125 -0.41659,0.275 -0.41659,-2.75 z m 206,0 c 0,-3.025 0.18747,-4.2625 0.41659,-2.75 0.22913,1.5125 0.22913,3.9875 0,5.5 -0.22912,1.5125 -0.41659,0.275 -0.41659,-2.75 z M 254.8125,249.31689 c 0.72187,-0.28887 1.58438,-0.25335 1.91667,0.0789 0.33229,0.33229 -0.25834,0.56864 -1.3125,0.52522 -1.16495,-0.048 -1.4019,-0.28494 -0.60417,-0.60416 z m 87,0 c 0.72187,-0.28887 1.58438,-0.25335 1.91667,0.0789 0.33229,0.33229 -0.25834,0.56864 -1.3125,0.52522 -1.16495,-0.048 -1.4019,-0.28494 -0.60417,-0.60416 z m 206,0 c 0.72187,-0.28887 1.58438,-0.25335 1.91667,0.0789 0.33229,0.33229 -0.25834,0.56864 -1.3125,0.52522 -1.16495,-0.048 -1.4019,-0.28494 -0.60417,-0.60416 z m -302.54347,-5.00988 c 0.97297,-0.25354 2.32297,-0.23687 3,0.0371 0.67703,0.27393 -0.11903,0.48137 -1.76903,0.46099 -1.65,-0.0204 -2.20394,-0.2445 -1.23097,-0.49804 z m 87,0 c 0.97297,-0.25354 2.32297,-0.23687 3,0.0371 0.67703,0.27393 -0.11903,0.48137 -1.76903,0.46099 -1.65,-0.0204 -2.20394,-0.2445 -1.23097,-0.49804 z m 206,0 c 0.97297,-0.25354 2.32297,-0.23687 3,0.0371 0.67703,0.27393 -0.11903,0.48137 -1.76903,0.46099 -1.65,-0.0204 -2.20394,-0.2445 -1.23097,-0.49804 z M 141.5,225 c 0.99549,-1.1 2.03498,-2 2.30998,-2 0.275,0 -0.31449,0.9 -1.30998,2 -0.99549,1.1 -2.03498,2 -2.30998,2 -0.275,0 0.31449,-0.9 1.30998,-2 z m 56,0 c 0.99549,-1.1 2.03498,-2 2.30998,-2 0.275,0 -0.31449,0.9 -1.30998,2 -0.99549,1.1 -2.03498,2 -2.30998,2 -0.275,0 0.31449,-0.9 1.30998,-2 z m 298.25,-3.72847 c -2.0625,-0.21574 -3.75,-0.72474 -3.75,-1.13109 0,-1.01606 6.8863,-0.13342 7.56829,0.97005 0.30236,0.48923 0.41069,0.81386 0.24073,0.72141 -0.16996,-0.0925 -1.99652,-0.34462 -4.05902,-0.56037 z m 15.53017,-1.0078 c 2.6291,-0.20668 6.6791,-0.20418 9,0.006 2.32091,0.20972 0.16983,0.37882 -4.78017,0.37577 -4.95,-0.003 -6.84892,-0.17464 -4.21983,-0.38131 z M 83,34.650873 V 19.301746 l 9.75,-4.53343 C 103.65797,9.6964694 115.27155,5.7080535 125,3.6927991 L 131.5,2.3463204 131.20441,19.17316 130.90881,36 h -2.46499 C 121.22479,36 98.827361,42.56439 88.783244,47.623992 86.189028,48.930796 83.826528,50 83.533244,50 83.23996,50 83,43.092893 83,34.650873 Z M 146.8125,0.31688596 c 0.72187,-0.28887061 1.58437,-0.25334429 1.91667,0.0789474 0.33229,0.33229167 -0.25834,0.56864035 -1.3125,0.5252193 -1.16495,-0.0479839 -1.4019,-0.2849403 -0.60417,-0.6041667 z M 167.75,0.3377193 c 0.6875,-0.27741228 1.8125,-0.27741228 2.5,0 0.6875,0.27741228 0.125,0.50438596 -1.25,0.50438596 -1.375,0 -1.9375,-0.22697368 -1.25,-0.50438596 z"
       id="path829"
       inkscape:connector-curvature="0" />
    <path
       style="fill:#1f98d0"
       d="m 140.7175,282.90842 c -8.39495,-1.97678 -13.81271,-6.84679 -15.80145,-14.20389 -1.7651,-6.52981 -0.6118,-25.89886 1.97711,-33.20453 3.11413,-8.78777 8.50942,-15.37405 15.53894,-18.96908 5.05457,-2.585 6.93589,-2.99696 13.47147,-2.9499 8.03321,0.0579 14.65804,2.11297 15.71833,4.87606 0.32659,0.85107 0.31585,2.65483 -0.0239,4.00836 l -0.61766,2.46096 -3.55341,-2.41141 c -7.64221,-5.18614 -18.83925,-4.1027 -25.39965,2.4577 C 135.27919,231.72081 132,241.97787 132,256.33733 c 0,9.35556 2.34577,15.4749 7.32333,19.10413 4.05343,2.95543 14.57293,2.82732 20.42667,-0.24877 4.60128,-2.41793 5.20461,-1.8337 3.2945,3.19025 -1.67774,4.4128 -13.03198,6.71421 -22.327,4.52548 z m 56,0 c -8.39495,-1.97678 -13.81271,-6.84679 -15.80145,-14.20389 -1.7651,-6.52981 -0.6118,-25.89886 1.97711,-33.20453 3.11413,-8.78777 8.50942,-15.37405 15.53894,-18.96908 5.05457,-2.585 6.93589,-2.99696 13.47147,-2.9499 8.03321,0.0579 14.65804,2.11297 15.71833,4.87606 0.32659,0.85107 0.31585,2.65483 -0.0239,4.00836 l -0.61766,2.46096 -3.55341,-2.41141 c -7.64221,-5.18614 -18.83925,-4.1027 -25.39965,2.4577 C 191.27919,231.72081 188,241.97787 188,256.33733 c 0,9.35556 2.34577,15.4749 7.32333,19.10413 4.05343,2.95543 14.57293,2.82732 20.42667,-0.24877 4.60128,-2.41793 5.20461,-1.8337 3.2945,3.19025 -1.67774,4.4128 -13.03198,6.71421 -22.327,4.52548 z m 55,0 c -8.18156,-1.92653 -13.7597,-6.79857 -15.67349,-13.68947 -1.37304,-4.94384 -1.32452,-19.80536 0.0863,-26.41973 2.64475,-12.39981 9.14585,-21.83645 18.30627,-26.5724 4.13671,-2.13868 6.43617,-2.61877 12.56346,-2.62304 7.94285,-0.006 11.83961,1.35153 15.50236,5.39883 3.10723,3.43345 2.86238,15.28494 -0.41059,19.87397 -4.04777,5.6754 -12.79932,9.04356 -27.02518,10.40106 L 243,250.4291 l 0.022,7.03545 c 0.0233,7.4693 2.1019,13.66732 5.58681,16.65902 5.34654,4.58987 16.17545,4.84475 23.83969,0.56112 l 4.2742,-2.38889 -0.80636,3.57532 c -0.98581,4.37095 -2.693,5.7008 -9.07562,7.06963 -5.71905,1.22651 -9.81433,1.21776 -15.12318,-0.0323 z m 10.70844,-40.00449 C 271.78085,241.08405 277,235.97289 277,228.63145 c 0,-4.84826 -0.81572,-6.4848 -4.07152,-8.16844 -6.30531,-3.26059 -15.89198,-0.68542 -21.58454,5.79805 -3.17729,3.61872 -7.34394,13.15281 -7.34394,16.8043 0,1.84948 0.47771,1.94811 6.75,1.39359 3.7125,-0.32821 8.96667,-1.02797 11.67594,-1.55502 z m 76.29156,40.00449 c -8.18156,-1.92653 -13.7597,-6.79857 -15.67349,-13.68947 -1.37304,-4.94384 -1.32452,-19.80536 0.0863,-26.41973 2.64475,-12.39981 9.14585,-21.83645 18.30627,-26.5724 4.13671,-2.13868 6.43617,-2.61877 12.56346,-2.62304 7.94285,-0.006 11.83961,1.35153 15.50236,5.39883 3.10723,3.43345 2.86238,15.28494 -0.41059,19.87397 -4.04777,5.6754 -12.79932,9.04356 -27.02518,10.40106 L 330,250.4291 l 0.022,7.03545 c 0.0233,7.4693 2.1019,13.66732 5.58681,16.65902 5.34654,4.58987 16.17545,4.84475 23.83969,0.56112 l 4.2742,-2.38889 -0.80636,3.57532 c -0.98581,4.37095 -2.693,5.7008 -9.07562,7.06963 -5.71905,1.22651 -9.81433,1.21776 -15.12318,-0.0323 z m 10.70844,-40.00449 C 358.78085,241.08405 364,235.97289 364,228.63145 c 0,-4.84826 -0.81572,-6.4848 -4.07152,-8.16844 -6.30531,-3.26059 -15.89198,-0.68542 -21.58454,5.79805 -3.17729,3.61872 -7.34394,13.15281 -7.34394,16.8043 0,1.84948 0.47771,1.94811 6.75,1.39359 3.7125,-0.32821 8.96667,-1.02797 11.67594,-1.55502 z m 86.90697,39.99877 c -3.90572,-1.13076 -7.91716,-5.74456 -9.2889,-10.68375 -1.485,-5.34697 -1.25057,-19.57999 0.45511,-27.63139 4.29392,-20.26876 14.64763,-30.95606 30.00088,-30.96747 4.65757,-0.003 8.07094,0.56118 10.20034,1.68735 3.9163,2.07121 4.29966,2.08838 4.29966,0.19256 0,-1.89977 6.98781,-2.1485 7.02351,-0.25 0.0129,0.6875 -2.32296,16.2125 -5.19087,34.5 L 468.61827,283 h -3.69296 -3.69296 l 1.36847,-7.18202 c 0.75266,-3.95011 1.20171,-7.34878 0.9979,-7.5526 -0.20382,-0.20382 -1.33174,1.18461 -2.50649,3.08539 -3.14994,5.09671 -9.42191,10.36931 -13.77145,11.57711 -4.45672,1.23756 -6.64363,1.23255 -10.98787,-0.0252 z m 12.60225,-7.36917 c 4.178,-2.16053 10.68088,-9.99767 14.05719,-16.94146 2.18306,-4.48972 3.4942,-9.61547 4.98491,-19.48791 C 469.08977,231.73645 470,225.15022 470,224.4681 470,222.41795 463.53805,220 458.05903,220 c -10.02601,0 -16.67856,6.01831 -21.09397,19.08292 -2.34999,6.95333 -3.73494,22.99975 -2.53645,29.38821 1.3899,7.40883 7.80095,10.53 14.50655,7.0624 z m 51.0889,7.4442 c -3.82259,-0.89908 -6.6956,-3.82085 -7.70268,-7.83341 -0.36022,-1.43519 1.05118,-13.82683 3.14629,-27.62355 2.08975,-13.76142 3.85192,-25.47077 3.91594,-26.02077 0.064,-0.55 -1.34611,-1.14101 -3.13361,-1.31336 -2.85772,-0.27553 -3.25,-0.66781 -3.25,-3.25 0,-2.74842 0.25075,-2.93664 3.9121,-2.93664 3.83213,0 3.92562,-0.0869 4.57305,-4.25 1.08222,-6.95882 1.41257,-7.48076 5.37063,-8.48542 l 3.79317,-0.96281 -1.17483,6.84911 L 508.29929,214 h 8.46698 c 8.29258,0 8.45457,0.0463 7.86402,2.25 -0.33164,1.2375 -0.60913,2.5875 -0.61664,3 -0.008,0.4125 -3.83865,0.75 -8.51365,0.75 -5.40524,0 -8.5,0.39213 -8.5,1.07702 0,0.59236 -1.575,11.22752 -3.5,23.63368 -3.90017,25.13564 -4.10296,28.08244 -2.11929,30.79528 1.48937,2.03683 7.30587,2.63567 11.36929,1.17053 2.01578,-0.72683 2.25,-0.49686 2.25,2.2091 0,2.63841 -0.47424,3.15209 -3.75,4.06181 -4.26348,1.18403 -6.29738,1.18952 -11.22594,0.0303 z m 44.69344,-0.0693 c -8.18156,-1.92653 -13.7597,-6.79857 -15.67349,-13.68947 -1.37304,-4.94384 -1.32452,-19.80536 0.0863,-26.41973 2.64475,-12.39981 9.14585,-21.83645 18.30627,-26.5724 4.13671,-2.13868 6.43617,-2.61877 12.56346,-2.62304 7.94285,-0.006 11.83961,1.35153 15.50236,5.39883 3.10723,3.43345 2.86238,15.28494 -0.41059,19.87397 -4.04777,5.6754 -12.79932,9.04356 -27.02518,10.40106 L 536,250.4291 l 0.022,7.03545 c 0.0233,7.4693 2.1019,13.66732 5.58681,16.65902 5.34654,4.58987 16.17545,4.84475 23.83969,0.56112 l 4.2742,-2.38889 -0.80636,3.57532 c -0.98581,4.37095 -2.693,5.7008 -9.07562,7.06963 -5.71905,1.22651 -9.81433,1.21776 -15.12318,-0.0323 z m 10.70844,-40.00449 C 564.78085,241.08405 570,235.97289 570,228.63145 c 0,-4.84826 -0.81572,-6.4848 -4.07152,-8.16844 -6.30531,-3.26059 -15.89198,-0.68542 -21.58454,5.79805 -3.17729,3.61872 -7.34394,13.15281 -7.34394,16.8043 0,1.84948 0.47771,1.94811 6.75,1.39359 3.7125,-0.32821 8.96667,-1.02797 11.67594,-1.55502 z m 38.99786,39.26263 c -8.05814,-3.78206 -8.45515,-9.60933 -2.97499,-43.66656 1.94702,-12.1 3.54254,-22.5625 3.54561,-23.25 0.004,-0.79173 1.47903,-1.25 4.02463,-1.25 3.64824,0 3.97328,0.20759 3.52292,2.25 C 601.07686,222.8943 595,264.65331 595,268.07693 c 0,2.92842 0.66382,4.6778 2.45455,6.46852 5.08532,5.08533 14.60878,2.11088 21.61325,-6.75044 7.33597,-9.2807 8.69306,-13.13176 12.08206,-34.28581 L 634.27534,214 h 3.88138 c 3.51405,0 3.83169,0.21294 3.3563,2.25 C 641.02262,218.35141 631,281.55546 631,282.54662 631,282.79598 629.425,283 627.5,283 c -3.95092,0 -3.97273,-0.0755 -2.43122,-8.41423 0.58782,-3.17985 0.86874,-5.98158 0.62426,-6.22606 -0.24448,-0.24448 -2.0506,1.79105 -4.01359,4.5234 -6.75282,9.39943 -18.49049,13.39736 -27.25565,9.28345 z M 66.5,236 90.004167,189 h 3.418461 c 2.923108,0 3.501819,0.39849 3.993717,2.75 C 98.486138,196.86413 113,280.8552 113,281.93191 113,282.51936 111.26102,283 109.1356,283 h -3.86439 L 102.42912,265.5 99.587035,248 H 83.789846 67.992657 l -8.733068,17.5 -8.733067,17.5 h -3.765345 -3.765344 z m 31.43711,4.25 c -0.03459,-0.9625 -1.552198,-10.3 -3.372464,-20.75 l -3.309573,-19 -1.736709,3.97917 c -0.95519,2.18854 -5.515084,11.52604 -10.133098,20.75 L 70.988877,242 h 13.505562 c 12.21973,0 13.499573,-0.16661 13.442671,-1.75 z m 195.54031,39.5 c 0.31243,-1.7875 3.90434,-24.33401 7.98202,-50.10336 4.07767,-25.76935 7.63179,-47.0712 7.89803,-47.33745 0.26625,-0.26624 2.1112,-0.85105 4.09989,-1.29957 3.10152,-0.69951 3.55127,-0.5804 3.16207,0.83744 -0.24955,0.90912 -3.97184,24.04044 -8.27175,51.40294 L 300.52966,283 h -3.81014 c -3.74848,0 -3.80095,-0.0526 -3.2421,-3.25 z M 380,282.65309 c 0,-0.85902 10.07458,-64.39998 10.52837,-66.40309 0.41041,-1.81159 1.19683,-2.25 4.036,-2.25 3.42844,0 3.51047,0.0901 2.957,3.25 -0.31308,1.7875 -0.96067,5.5 -1.43908,8.25 l -0.86984,5 2.14378,-3 c 7.68177,-10.74988 15.49206,-15.37722 23.63304,-14.00181 l 3.76403,0.63593 -0.98185,3.86819 c -0.92937,3.66141 -1.12268,3.81465 -3.61625,2.8666 -4.20083,-1.59716 -8.64585,-0.13406 -13.83222,4.55292 -5.90532,5.3367 -10.7727,13.25776 -12.645,20.57817 -0.77369,3.025 -2.44765,12.5875 -3.71991,21.25 l -2.3132,15.75 h -3.82244 C 381.7201,283 380,282.84389 380,282.65309 Z m 272,0 c 0,-0.85902 10.07458,-64.39998 10.52837,-66.40309 0.41041,-1.81159 1.19683,-2.25 4.036,-2.25 3.42844,0 3.51047,0.0901 2.957,3.25 -0.31308,1.7875 -0.96067,5.5 -1.43908,8.25 l -0.86984,5 2.14378,-3 c 7.68177,-10.74988 15.49206,-15.37722 23.63304,-14.00181 l 3.76403,0.63593 -0.98185,3.86819 c -0.92937,3.66141 -1.12268,3.81465 -3.61625,2.8666 -4.20083,-1.59716 -8.64585,-0.13406 -13.83222,4.55292 -5.90532,5.3367 -10.7727,13.25776 -12.645,20.57817 -0.77369,3.025 -2.44765,12.5875 -3.71991,21.25 l -2.3132,15.75 h -3.82244 C 653.7201,283 652,282.84389 652,282.65309 Z M 257.46805,201.89934 c -0.3667,-1.15537 -0.28452,-2.4383 0.18261,-2.85097 C 259.74871,197.19497 278.80412,184 279.38265,184 c 0.35571,0 1.51672,1.43055 2.58001,3.179 l 1.93327,3.17901 -11.69796,6.80146 c -6.43389,3.7408 -12.23015,6.81025 -12.88058,6.82099 -0.65044,0.0108 -1.48264,-0.92576 -1.84934,-2.08112 z m 87,0 c -0.3667,-1.15537 -0.28452,-2.4383 0.18261,-2.85097 C 346.74871,197.19497 365.80412,184 366.38265,184 c 0.35571,0 1.51672,1.43055 2.58001,3.179 l 1.93327,3.17901 -11.69796,6.80146 c -6.43389,3.7408 -12.23015,6.81025 -12.88058,6.82099 -0.65044,0.0108 -1.48264,-0.92576 -1.84934,-2.08112 z M 174,37.303711 C 170.56049,36.381215 161.46655,35.628099 149.72581,35.29344 L 130.95162,34.758298 131.22581,18.655853 131.5,2.5534075 136,1.671405 c 5.7076,-1.11869308 36.27379,-1.38145089 41.25,-0.3545996 L 181,2.0906261 V 20.545313 c 0,10.150078 -0.3375,18.404926 -0.75,18.344108 -0.4125,-0.06082 -3.225,-0.774388 -6.25,-1.58571 z"
       id="path827"
       inkscape:connector-curvature="0" />
    <path
       style="fill:#4c79ab"
       d="m 775.8125,480.31689 c 0.72187,-0.28887 1.58438,-0.25335 1.91667,0.0789 0.33229,0.33229 -0.25834,0.56864 -1.3125,0.52522 -1.16495,-0.048 -1.4019,-0.28494 -0.60417,-0.60416 z m 18,0 c 0.72187,-0.28887 1.58438,-0.25335 1.91667,0.0789 0.33229,0.33229 -0.25834,0.56864 -1.3125,0.52522 -1.16495,-0.048 -1.4019,-0.28494 -0.60417,-0.60416 z M 779.75,466.33772 c 0.6875,-0.27741 1.8125,-0.27741 2.5,0 0.6875,0.27741 0.125,0.50439 -1.25,0.50439 -1.375,0 -1.9375,-0.22698 -1.25,-0.50439 z m 8.51903,-0.0307 c 0.97297,-0.25354 2.32297,-0.23687 3,0.0371 0.67703,0.27393 -0.11903,0.48137 -1.76903,0.46099 -1.65,-0.0204 -2.20394,-0.2445 -1.23097,-0.49804 z M 724.40499,458.75 722.5,456.5 l 2.25,1.90499 c 2.11444,1.79022 2.70524,2.59501 1.90499,2.59501 -0.18976,0 -1.20226,-1.0125 -2.25,-2.25 z M 849.5,455 c 2.14824,-2.2 4.1309,-4 4.4059,-4 0.275,0 -1.25766,1.8 -3.4059,4 -2.14824,2.2 -4.1309,4 -4.4059,4 -0.275,0 1.25766,-1.8 3.4059,-4 z m -132.62756,-3.75 c -1.24387,-1.58606 -1.2085,-1.62143 0.37756,-0.37756 1.66575,1.30637 2.19548,2.12756 1.37244,2.12756 -0.20765,0 -0.99515,-0.7875 -1.75,-1.75 z m 19,-2 c -1.24387,-1.58606 -1.2085,-1.62143 0.37756,-0.37756 1.66575,1.30637 2.19548,2.12756 1.37244,2.12756 -0.20765,0 -0.99515,-0.7875 -1.75,-1.75 z m 102.08577,-3.5 c 2.45201,-2.6125 4.58951,-4.75 4.75,-4.75 0.75088,0 -0.043,0.89783 -4.45821,5.04179 L 833.5,450.5 Z M 421.75,444.33772 c 0.6875,-0.27741 1.8125,-0.27741 2.5,0 0.6875,0.27741 0.125,0.50439 -1.25,0.50439 -1.375,0 -1.9375,-0.22698 -1.25,-0.50439 z m -266,-1.08023 c 3.9875,-0.18981 10.5125,-0.18981 14.5,0 3.9875,0.18982 0.725,0.34512 -7.25,0.34512 -7.975,0 -11.2375,-0.1553 -7.25,-0.34512 z m 70.90451,-0.007 c -0.25494,-0.4125 6.6935,-0.75 15.44098,-0.75 8.74748,0 15.90451,0.3375 15.90451,0.75 0,0.4125 -6.94844,0.75 -15.44098,0.75 -8.49254,0 -15.64957,-0.3375 -15.90451,-0.75 z m 45.55174,0.009 c 3.68844,-0.19186 9.98844,-0.19314 14,-0.003 4.01156,0.1903 0.99375,0.34727 -6.70625,0.34883 -7.7,0.002 -10.98219,-0.15414 -7.29375,-0.34599 z m 54.28381,0.006 13.49274,-0.32212 0.27164,-53.97195 0.27164,-53.97195 -0.013,54.25012 -0.013,54.25011 -13.75134,0.0439 -13.75134,0.044 13.49274,-0.32212 z m 40.71619,-0.006 c 3.68844,-0.19186 9.98844,-0.19314 14,-0.003 4.01156,0.1903 0.99375,0.34727 -6.70625,0.34883 -7.7,0.002 -10.98219,-0.15414 -7.29375,-0.34599 z m 95,0 c 3.68844,-0.19186 9.98844,-0.19314 14,-0.003 4.01156,0.1903 0.99375,0.34727 -6.70625,0.34883 -7.7,0.002 -10.98219,-0.15414 -7.29375,-0.34599 z m 40,0 c 3.68844,-0.19186 9.98844,-0.19314 14,-0.003 4.01156,0.1903 0.99375,0.34727 -6.70625,0.34883 -7.7,0.002 -10.98219,-0.15414 -7.29375,-0.34599 z m 43.25706,-0.49448 c -0.27297,-0.71134 -0.36885,-13.66197 -0.21306,-28.77916 L 545.53351,386.5 545.76675,414.75 546,443 h 12.98687 12.98687 l 0.28312,-34.00027 0.28311,-34.00027 -0.02,34.25027 -0.02,34.25027 -13.27019,0.27917 c -10.13584,0.21322 -13.38742,-0.0263 -13.7665,-1.0142 z m 56.22219,0.48691 c 9.45202,-0.1642 25.20202,-0.16448 35,-6.2e-4 9.79797,0.16387 2.0645,0.29822 -17.1855,0.29856 -19.25,3.4e-4 -27.26653,-0.13373 -17.8145,-0.29794 z M 406.40499,438.75 404.5,436.5 l 2.25,1.90499 c 1.2375,1.04774 2.25,2.06024 2.25,2.25 0,0.80025 -0.80479,0.20945 -2.59501,-1.90499 z M 772.46203,394 c 0,-26.125 0.12919,-36.8125 0.28709,-23.75 0.15789,13.0625 0.15789,34.4375 0,47.5 -0.1579,13.0625 -0.28709,2.375 -0.28709,-23.75 z M 446.5,420 c 0.99549,-1.1 2.03498,-2 2.30998,-2 0.275,0 -0.31449,0.9 -1.30998,2 -0.99549,1.1 -2.03498,2 -2.30998,2 -0.275,0 0.31449,-0.9 1.30998,-2 z m 248.65789,-22 c 0,-1.375 0.22698,-1.9375 0.50439,-1.25 0.27741,0.6875 0.27741,1.8125 0,2.5 -0.27741,0.6875 -0.50439,0.125 -0.50439,-1.25 z m 15.16218,-7 c 0,-3.575 0.1815,-5.0375 0.40333,-3.25 0.22182,1.7875 0.22182,4.7125 0,6.5 -0.22183,1.7875 -0.40333,0.325 -0.40333,-3.25 z m 164.97959,0 c 0,-3.025 0.18747,-4.2625 0.41659,-2.75 0.22913,1.5125 0.22913,3.9875 0,5.5 -0.22912,1.5125 -0.41659,0.275 -0.41659,-2.75 z m -180.14177,-7 c 0,-1.375 0.22698,-1.9375 0.50439,-1.25 0.27741,0.6875 0.27741,1.8125 0,2.5 -0.27741,0.6875 -0.50439,0.125 -0.50439,-1.25 z m -249.28545,-7.75 c -1.24387,-1.58606 -1.2085,-1.62143 0.37756,-0.37756 1.66575,1.30637 2.19548,2.12756 1.37244,2.12756 -0.20765,0 -0.99515,-0.7875 -1.75,-1.75 z M 652.3605,365 c 0,-5.225 0.16854,-7.3625 0.37454,-4.75 0.206,2.6125 0.206,6.8875 0,9.5 -0.206,2.6125 -0.37454,0.475 -0.37454,-4.75 z m -298.548,0.31689 c 0.72187,-0.28887 1.58438,-0.25335 1.91667,0.0789 0.33229,0.33229 -0.25834,0.56864 -1.3125,0.52522 -1.16495,-0.048 -1.4019,-0.28494 -0.60417,-0.60416 z m 135,0 c 0.72187,-0.28887 1.58438,-0.25335 1.91667,0.0789 0.33229,0.33229 -0.25834,0.56864 -1.3125,0.52522 -1.16495,-0.048 -1.4019,-0.28494 -0.60417,-0.60416 z M 441.75,354.2766 c 1.7875,-0.22182 4.7125,-0.22182 6.5,0 1.7875,0.22183 0.325,0.40333 -3.25,0.40333 -3.575,0 -5.0375,-0.1815 -3.25,-0.40333 z m 305.03352,-1.015 c 2.90594,-0.20265 7.40594,-0.20052 10,0.005 2.59406,0.20525 0.21648,0.37104 -5.28352,0.36844 -5.5,-0.003 -7.62242,-0.17053 -4.71648,-0.37317 z m 68,0 c 2.90594,-0.20265 7.40594,-0.20052 10,0.005 2.59406,0.20525 0.21648,0.37104 -5.28352,0.36844 -5.5,-0.003 -7.62242,-0.17053 -4.71648,-0.37317 z M 359.87244,345.25 c -1.24387,-1.58606 -1.2085,-1.62143 0.37756,-0.37756 0.9625,0.75485 1.75,1.54235 1.75,1.75 0,0.82304 -0.82119,0.29331 -2.12756,-1.37244 z M 181.15789,342 c 0,-1.375 0.22698,-1.9375 0.50439,-1.25 0.27741,0.6875 0.27741,1.8125 0,2.5 -0.27741,0.6875 -0.50439,0.125 -0.50439,-1.25 z M 388.232,337 c 0,-1.925 0.2058,-2.7125 0.45733,-1.75 0.25152,0.9625 0.25152,2.5375 0,3.5 -0.25153,0.9625 -0.45733,0.175 -0.45733,-1.75 z M 731.5,336 c 0.99549,-1.1 2.03498,-2 2.30998,-2 0.275,0 -0.31449,0.9 -1.30998,2 -0.99549,1.1 -2.03498,2 -2.30998,2 -0.275,0 0.31449,-0.9 1.30998,-2 z m -346.62756,-7.75 c -1.24387,-1.58606 -1.2085,-1.62143 0.37756,-0.37756 0.9625,0.75485 1.75,1.54235 1.75,1.75 0,0.82304 -0.82119,0.29331 -2.12756,-1.37244 z m -16.05994,-3.93311 c 0.72187,-0.28887 1.58438,-0.25335 1.91667,0.0789 0.33229,0.33229 -0.25834,0.56864 -1.3125,0.52522 -1.16495,-0.048 -1.4019,-0.28494 -0.60417,-0.60416 z M 843.87244,321.25 c -1.24387,-1.58606 -1.2085,-1.62143 0.37756,-0.37756 0.9625,0.75485 1.75,1.54235 1.75,1.75 0,0.82304 -0.82119,0.29331 -2.12756,-1.37244 z m -69.05994,-5.93311 c 0.72187,-0.28887 1.58438,-0.25335 1.91667,0.0789 0.33229,0.33229 -0.25834,0.56864 -1.3125,0.52522 -1.16495,-0.048 -1.4019,-0.28494 -0.60417,-0.60416 z M 139.26903,164.30701 c 0.97297,-0.25354 2.32297,-0.23687 3,0.0371 0.67703,0.27393 -0.11903,0.48137 -1.76903,0.46099 -1.65,-0.0204 -2.20394,-0.2445 -1.23097,-0.49804 z M 151,160.62244 c 0,-0.20765 0.7875,-0.99515 1.75,-1.75 1.58606,-1.24387 1.62143,-1.2085 0.37756,0.37756 C 151.82119,160.91575 151,161.44548 151,160.62244 Z m -26.92105,-12.20577 c 0.048,-1.16495 0.28494,-1.4019 0.60416,-0.60417 0.28887,0.72187 0.25335,1.58437 -0.0789,1.91667 -0.3323,0.33229 -0.56864,-0.25834 -0.52522,-1.3125 z M 242.87244,74.25 c -1.24387,-1.586056 -1.2085,-1.621426 0.37756,-0.377555 0.9625,0.754844 1.75,1.542344 1.75,1.75 0,0.823034 -0.82119,0.293303 -2.12756,-1.372445 z"
       id="path825"
       inkscape:connector-curvature="0" />
    <path
       style="fill:#1c82bd"
       d="m 205.51889,47.913778 c -4.38961,-2.167141 -11.70211,-5.152052 -16.25,-6.633135 L 181,38.587764 V 20.293882 C 181,9.6177206 181.38918,2 181.93462,2 184.18226,2 198.23067,5.2866062 206.25,7.688547 l 8.75,2.620792 v 20.84533 c 0,11.464932 -0.3375,20.812489 -0.75,20.772349 -0.4125,-0.04014 -4.3415,-1.846098 -8.73111,-4.01324 z"
       id="path823"
       inkscape:connector-curvature="0" />
    <path
       style="fill:#0f6eac"
       d="M 258.48556,92.25 C 257.5261,90.7375 255.71103,88.375 254.45207,87 l -2.28902,-2.5 5.41848,-2.766936 L 263,78.966129 v 8.016935 c 0,8.839308 -1.29207,10.346744 -4.51444,5.266936 z M 242.5,73.783771 C 236.33953,67.505443 224.48285,57.961376 219.05126,54.908653 L 215,52.631718 V 31.815859 C 215,20.367137 215.23235,11 215.51634,11 c 1.88601,0 20.94761,9.824441 28.20521,14.537102 8.71177,5.656915 25.83674,19.042741 20.55543,16.067257 -0.93466,-0.526581 -1.28834,2.778064 -1.5,14.015456 L 262.5,70.324321 255.52522,74.66216 c -3.83613,2.385812 -7.21113,4.310712 -7.5,4.277555 C 247.73635,78.906558 245.25,76.586384 242.5,73.783771 Z"
       id="path821"
       inkscape:connector-curvature="0" />
    <path
       style="fill:#134e90"
       d="m 769.98392,479.54598 c -47.64272,-7.81127 -79.31781,-50.07255 -73.96816,-98.6892 4.62089,-41.99384 33.60212,-72.47826 75.04764,-78.94021 10.12056,-1.57794 28.43078,-0.62358 38.4366,2.00339 33.43809,8.77896 57.70106,34.76177 64.04064,68.58004 2.46915,13.17157 1.61789,32.90842 -1.93209,44.79659 -7.32632,24.53435 -22.41129,42.71337 -44.70126,53.86985 -15.92042,7.96843 -38.84656,11.34332 -56.92337,8.37954 z m 34.84772,-15.05551 c 20.85588,-4.95847 38.53272,-19.39223 47.7511,-38.99047 6.15248,-13.08015 7.76912,-21.68627 7.20571,-38.3593 -0.40251,-11.91161 -0.84737,-14.75127 -3.50943,-22.40191 C 851.99066,352.41423 847.77801,345.78314 838,335.96591 831.22108,329.1598 827.77892,326.58463 821,323.2478 807.89006,316.7946 801.87471,315.5 785,315.5 c -16.30693,0 -23.73922,1.66919 -36,8.08509 -31.96665,16.72772 -46.37442,55.76027 -34.45391,93.34017 3.45365,10.88781 8.8155,19.4313 17.95391,28.60753 14.91046,14.97217 33.73962,22.01422 56,20.94386 5.5,-0.26447 12.84924,-1.15825 16.33164,-1.98618 z m -69.62337,-65.07966 0.29173,-41.58919 2.36078,-1.91081 C 739.84618,354.30383 741.87354,354 750.61078,354 H 761 V 397.5 441 H 747.95827 734.91654 Z M 772.98526,394.25 c -0.016,-50.65159 -0.0984,-51.46765 -5.25843,-52.06642 C 765.12347,341.88148 765,341.61598 765,336.3201 v -5.54706 l 13.75,0.45743 c 7.5625,0.25158 14.57197,0.81402 15.5766,1.24986 1.00464,0.43584 2.24214,1.88536 2.75,3.22115 0.52108,1.37055 0.9234,24.83848 0.9234,53.86362 V 441 H 785.5 773 l -0.0147,-46.75 z M 810,397.5 V 354 h 10.30887 c 11.81565,0 13.36865,0.68849 14.72224,6.52678 0.50665,2.18527 0.93191,21.18572 0.94503,42.22322 L 836,441 h -13 -13 z m -397.54137,44.62034 c -8.35725,-3.79617 -12.241,-12.78494 -11.1886,-25.89554 1.3126,-16.35223 10.58536,-23.34976 37.22997,-28.09495 l 10,-1.78092 -0.0987,-4.34278 c -0.0751,-3.30275 -0.67381,-4.81018 -2.5,-6.29449 -3.44966,-2.80385 -16.63706,-1.93567 -26.73954,1.76037 -4.03606,1.4766 -7.45015,2.53696 -7.58686,2.35635 C 411.18493,379.31327 406,364.94547 406,364.38007 c 0,-1.30297 13.38061,-6.33781 20.90975,-7.86789 12.16253,-2.47168 30.92872,-1.81246 36.83913,1.29409 4.96812,2.61127 8.73704,7.86745 10.17756,14.19373 0.56357,2.475 1.03567,16.43737 1.04911,31.02749 0.0266,28.88632 0.40255,30.97251 5.58115,30.97251 2.2291,0 2.4433,0.39452 2.4433,4.5 v 4.5 h -14.30887 c -15.83024,0 -17.42647,-0.50006 -18.52629,-5.80382 l -0.66484,-3.20612 -4.95871,3.52821 c -2.72729,1.94052 -7.19647,4.19275 -9.9315,5.00497 -6.91989,2.05498 -17.14976,1.86892 -22.15116,-0.4029 z m 31.86169,-19.77458 4.17968,-2.93432 0.28909,-9.32394 0.28909,-9.32394 -2.78909,0.66038 c -9.38048,2.22104 -13.89071,4.02383 -16.43692,6.57005 -2.42599,2.42599 -2.85217,3.65224 -2.85217,8.20658 0,3.33967 0.61582,6.23363 1.63662,7.69103 1.43437,2.04783 2.24636,2.27802 6.57032,1.86254 3.28224,-0.31538 6.33276,-1.45627 9.11338,-3.40838 z M 149.25069,441.75 C 152.63772,432.63853 182,342.92757 182,341.6906 182,338.8139 178.29138,336 174.5,336 H 171 v -5 -5 h 21.875 c 12.03125,0 23.27486,0.27997 24.9858,0.62216 6.67228,1.33446 6.77649,1.60116 23.49505,60.12678 C 249.96013,416.86943 257,441.84793 257,442.25673 257,442.66553 250.26906,443 242.04235,443 h -14.95766 l -1.96789,-6.75 c -1.08234,-3.7125 -2.92045,-10.0125 -4.08469,-14 L 218.91531,415 H 202.05506 185.1948 l -2.01537,6.75 c -1.10845,3.7125 -2.97134,10.0125 -4.13974,14 l -2.12438,7.25 h -14.06464 c -10.83287,0 -13.95788,-0.28722 -13.59998,-1.25 z m 65.45108,-47.0848 c -0.28172,-0.73414 -2.90745,-10.18414 -5.83495,-21 C 205.93932,362.84934 203.27527,354 202.94672,354 c -0.55309,0 -12.98618,39.57618 -12.95893,41.25 0.007,0.4125 5.68535,0.75 12.6192,0.75 10.10192,0 12.50521,-0.26523 12.09478,-1.3348 z M 266,391.0567 v -51.94329 l -2.22251,-1.55671 C 262.55512,336.70052 260.75512,336 259.77749,336 258.31117,336 258,335.1247 258,331 v -5 h 13.35078 c 13.9822,0 19.03717,0.98785 20.67033,4.03944 C 292.62594,331.16958 293,353.10159 293,387.43426 V 443 H 279.5 266 Z m 47,0 v -51.94329 l -2.22251,-1.55671 C 309.55512,336.70052 307.75512,336 306.77749,336 305.31117,336 305,335.1247 305,331 v -5 h 13.35078 c 13.9822,0 19.03717,0.98785 20.67033,4.03944 C 339.62594,331.16958 340,353.10159 340,387.43426 V 443 H 326.5 313 Z m 48,15.37756 c 0,-22.26037 -0.38797,-37.29067 -0.99168,-38.41872 -0.54543,-1.01914 -2.34543,-2.15031 -4,-2.51371 C 353.21723,364.8888 353,364.52189 353,360.42054 V 356 h 15.04545 c 14.64086,0 15.11147,0.066 17.5,2.45455 L 388,360.90909 V 401.95455 443 H 374.5 361 Z m 135,0 c 0,-22.26037 -0.38797,-37.29067 -0.99168,-38.41872 -0.54543,-1.01914 -2.34543,-2.15031 -4,-2.51371 C 488.21723,364.8888 488,364.52189 488,360.42054 V 356 l 14.75,0.0153 c 8.1125,0.008 15.24513,0.34592 15.8503,0.75 1.76519,1.17865 3.3997,4.89003 3.3997,7.71947 0,2.6133 0.007,2.61098 6.52445,-2.03948 7.78275,-5.55365 13.5098,-7.45291 22.38448,-7.42334 7.01551,0.0234 13.23533,2.16879 16.30293,5.62341 4.56282,5.13846 4.78814,7.29479 4.78814,45.82251 V 443 h -12.91322 -12.91323 l -0.33867,-30.75 c -0.23905,-21.70567 -0.69532,-31.37293 -1.55126,-32.8679 -2.43677,-4.25603 -10.0771,-3.76985 -17.45185,1.11053 L 523,383.02838 V 413.01419 443 H 509.5 496 Z m 89,27.92133 v -8.64442 l 18.5,-25.89783 C 613.675,385.56954 622,373.70952 622,373.45776 622,373.20599 617.15013,373 611.22251,373 c -11.77653,0 -14.49155,0.95149 -15.6273,5.47667 C 595.03599,380.7048 594.43768,381 590.48095,381 H 586 V 370.67431 C 586,354.98787 583.56426,356 621.31445,356 H 652 v 9.06394 9.06394 L 633.99129,399.31394 615.98258,424.5 634.99129,424.77159 654,425.04319 v 8.9784 V 443 H 619.5 585 Z M 365.00051,347.87655 c -5.90955,-2.35646 -8.84624,-7.7495 -7.51653,-13.80362 1.5442,-7.03068 10.76102,-11.07158 20.49263,-8.98453 6.7454,1.44663 10.02339,5.29446 10.02339,11.76582 0,5.59279 -1.98226,8.8226 -6.59857,10.75141 -3.81958,1.59592 -12.70978,1.74277 -16.40092,0.27092 z M 131.99949,161.75 c -6.92946,-4.72998 -9.19159,-15.15562 -4.74142,-21.85212 3.17565,-4.77862 10.12494,-8.1808 15.15059,-7.4173 2.14977,0.32659 5.14448,1.32381 6.65491,2.21604 l 2.74624,1.62225 44.8451,-26.31614 C 221.31971,95.528846 244.425,81.799427 248,79.492905 c 3.575,-2.306522 8.40046,-5.384046 10.72324,-6.838944 l 4.22324,-2.645267 0.27676,-14.754347 L 263.5,40.5 l 9.16656,9.439499 9.16657,9.4395 3.99657,-1.802203 c 6.56285,-2.959434 8.81237,0.627193 2.74519,4.376919 l -3.42511,2.116833 4.11972,5.970119 c 2.56393,3.715545 3.76299,6.318544 3.17511,6.892752 C 291.92507,77.440868 285.2,81.464726 277.5,85.875328 l -14,8.019274 -0.29167,-7.425451 -0.29167,-7.425451 -6.80915,3.47013 c -3.74503,1.908571 -27.67675,16.255041 -53.1816,31.88105 l -46.37245,28.41091 -0.0914,5.6104 C 156.31039,157.72574 149.88384,164 140.5,164 c -3.75364,0 -6.12301,-0.62715 -8.50051,-2.25 z"
       id="path819"
       inkscape:connector-curvature="0" />
  </g>
</svg>
