<?xml version="1.0" encoding="UTF-8" standalone="no"?>
<!-- Created with Inkscape (http://www.inkscape.org/) -->

<svg
   xmlns:dc="http://purl.org/dc/elements/1.1/"
   xmlns:cc="http://creativecommons.org/ns#"
   xmlns:rdf="http://www.w3.org/1999/02/22-rdf-syntax-ns#"
   xmlns:svg="http://www.w3.org/2000/svg"
   xmlns="http://www.w3.org/2000/svg"
   xmlns:sodipodi="http://sodipodi.sourceforge.net/DTD/sodipodi-0.dtd"
   xmlns:inkscape="http://www.inkscape.org/namespaces/inkscape"
   version="1.1"
   id="svg2"
   width="256"
   height="128"
   viewBox="0 0 256 128"
   sodipodi:docname="Accor.svg"
   inkscape:version="0.92.2 2405546, 2018-03-11">
  <metadata
     id="metadata8">
    <rdf:RDF>
      <cc:Work
         rdf:about="">
        <dc:format>image/svg+xml</dc:format>
        <dc:type
           rdf:resource="http://purl.org/dc/dcmitype/StillImage" />
        <dc:title></dc:title>
      </cc:Work>
    </rdf:RDF>
  </metadata>
  <defs
     id="defs6" />
  <sodipodi:namedview
     pagecolor="#ffffff"
     bordercolor="#666666"
     borderopacity="1"
     objecttolerance="10"
     gridtolerance="10"
     guidetolerance="10"
     inkscape:pageopacity="0"
     inkscape:pageshadow="2"
     inkscape:window-width="1364"
     inkscape:window-height="732"
     id="namedview4"
     showgrid="false"
     inkscape:zoom="2.1520641"
     inkscape:cx="207.13338"
     inkscape:cy="71.60337"
     inkscape:window-x="0"
     inkscape:window-y="35"
     inkscape:window-maximized="0"
     inkscape:current-layer="svg2" />
  <g
     id="g817"
     transform="matrix(0.66767647,0,0,0.66767647,-19.389582,12.939072)">
    <path
       style="fill:#e39503;stroke-width:0.32000002"
       d="m 197.12,57.612631 c -1.27781,-0.25456 -1.33178,-0.225661 2.89063,-1.547728 3.49338,-1.093805 8.87601,-3.528909 10.444,-4.724868 0.64129,-0.489133 1.06537,-1.094426 1.06537,-1.520589 0,-1.037917 -1.72778,-3.406714 -5.64661,-7.741517 C 200.70585,36.361874 197.76,32.12486 197.76,30.408456 c 0,-0.63973 0.0316,-0.643138 1.2,-0.129342 4.49284,1.975726 7.70481,2.782389 15.76,3.958011 2.552,0.372455 5.62018,1.017882 6.81818,1.434285 3.72297,1.294045 6.88493,3.670183 9.33017,7.011412 l 0.90954,1.242816 2.31707,-0.195863 c 1.53405,-0.129673 3.54512,-0.646377 5.95106,-1.529008 7.18783,-2.636883 7.81478,-2.824345 9.47306,-2.832502 1.4555,-0.0072 1.83899,0.133789 2.88,1.058534 0.66051,0.58674 1.88493,1.253456 2.72093,1.481591 2.70212,0.737376 2.10589,0.972422 -4.08,1.608403 -4.31109,0.443229 -7.77218,1.166599 -11.04,2.307363 -3.14174,1.096749 -4.59541,1.870381 -9.42723,5.017102 -6.62554,4.31487 -13.33339,6.06487 -25.92745,6.76417 -5.9476,0.330246 -5.90397,0.330204 -7.52533,0.0072 z"
       id="path821"
       inkscape:connector-curvature="0" />
    <path
       style="fill:#062332;stroke-width:0.32000002"
       d="m 168.05419,132.46972 c -1.21524,-0.27301 -2.84852,-1.68778 -3.31294,-2.86971 -0.17289,-0.44 -0.31072,-1.47507 -0.30628,-2.30016 0.033,-6.12387 8.26304,-6.71434 9.19703,-0.65984 l 0.2098,1.36 h -3.8809 c -3.71548,0 -3.8809,0.0283 -3.8809,0.66461 0,0.36554 0.42093,1.08554 0.93539,1.6 1.12729,1.1273 2.85452,1.25624 4.37861,0.32687 1.06881,-0.65174 1.94961,-0.43575 1.6291,0.39949 -0.41625,1.08472 -3.12911,1.89206 -4.96891,1.47874 z m 3.73612,-6.71471 c -0.44098,-1.26502 -1.41616,-1.915 -2.87306,-1.915 -0.9252,0 -1.35944,0.21282 -2.0088,0.98455 -1.43043,1.69997 -1.20407,1.89545 2.19491,1.89545 h 3.02335 z m 7.72969,6.65732 c -2.17956,-0.59253 -3.52,-2.55548 -3.52,-5.15472 0,-3.45033 3.79795,-5.9791 6.72,-4.47436 1.24873,0.64305 2.56,2.85815 2.56,4.32456 v 0.8922 h -3.84 c -2.57027,0 -3.84,0.11593 -3.84,0.35063 0,0.19284 0.2398,0.75657 0.53289,1.25273 0.98577,1.66878 3.01856,2.0628 4.85763,0.94159 0.83898,-0.5115 1.16859,-0.57127 1.52395,-0.27635 1.31888,1.09458 -2.62573,2.78768 -4.99447,2.14372 z m 4.16,-5.965 c 0,-0.14997 -0.32973,-0.76197 -0.73274,-1.36 -0.66704,-0.98982 -0.87393,-1.08732 -2.30726,-1.08732 -1.43332,0 -1.64021,0.0975 -2.30725,1.08732 -0.40301,0.59803 -0.73275,1.21003 -0.73275,1.36 0,0.14997 1.368,0.27268 3.04,0.27268 1.672,0 3.04,-0.12271 3.04,-0.27268 z m 5.83535,6.02099 c -1.19031,-0.47821 -1.37452,-1.61994 -1.28226,-7.94734 0.0861,-5.90814 0.0933,-5.96188 0.80691,-6.06323 l 0.72,-0.10225 v 5.91608 c 0,3.25385 0.0874,6.14386 0.19424,6.42226 0.10683,0.27839 0.47135,0.50617 0.81004,0.50617 0.76701,0 1.16518,0.92569 0.56235,1.30739 -0.54459,0.34484 -0.8733,0.33774 -1.81128,-0.0391 z m 33.10347,-0.13245 c -1.64226,-0.58501 -2.33425,-1.26829 -2.9698,-2.93245 -1.23462,-3.23281 0.65486,-6.64646 3.89869,-7.0436 2.47116,-0.30255 4.9323,1.89673 4.9323,4.40751 v 1.23268 h -3.86157 c -3.85246,0 -3.86108,0.002 -3.65497,0.72 0.11363,0.396 0.6296,1.116 1.14661,1.6 1.15085,1.07736 2.78771,1.16842 4.29194,0.23875 0.87821,-0.54276 1.09457,-0.57254 1.40881,-0.1939 0.28725,0.34611 0.25449,0.56411 -0.14473,0.96334 -1.21992,1.21992 -3.2908,1.63336 -5.04728,1.00767 z m 4.26119,-5.95175 c 0,-0.63562 -0.93712,-2.14686 -1.45434,-2.34533 -0.91547,-0.3513 -2.54359,-0.21256 -3.24142,0.27622 -0.37298,0.26124 -0.82953,0.90924 -1.01455,1.44 l -0.3364,0.965 h 3.02335 c 1.8976,0 3.02336,-0.12507 3.02336,-0.33589 z m 6.08,6.19381 c -1.17522,-0.42001 -1.28,-1.05048 -1.28,-7.70134 v -6.52109 l 0.72,0.10225 c 0.7155,0.10162 0.72054,0.14171 0.80676,6.42226 l 0.0868,6.32 h 0.79324 c 0.56496,0 0.79324,0.17432 0.79324,0.60576 0,0.8199 -0.84056,1.15795 -1.92,0.77216 z m 7.04,-0.16404 c -2.5694,-0.69492 -4.24148,-3.65451 -3.53887,-6.26382 0.93115,-3.45802 5.35288,-5.02679 7.9272,-2.81245 0.75064,0.64566 0.81153,0.82058 0.44105,1.26698 -0.39367,0.47435 -0.51707,0.46397 -1.46737,-0.12335 -3.171,-1.95978 -6.49345,0.9579 -5.08868,4.46875 0.87526,2.18751 3.06424,2.85994 5.13793,1.57832 0.87847,-0.54292 1.17784,-0.59612 1.56172,-0.27754 1.33728,1.10985 -2.57513,2.81164 -4.97298,2.16311 z m 10.72,-0.10725 c -3.58755,-1.23273 -4.6241,-5.62778 -1.97994,-8.39504 2.52338,-2.64084 6.80275,-1.90991 8.27263,1.41301 1.82513,4.12601 -2.05979,8.43652 -6.29269,6.98203 z m 3.3072,-1.55933 c 2.12151,-1.09707 2.44096,-4.14991 0.62433,-5.96653 -0.74429,-0.7443 -1.21965,-0.93929 -2.27615,-0.93366 -2.16973,0.0116 -3.41538,1.41348 -3.41538,3.84385 0,1.08934 0.1989,1.53194 1.088,2.42104 1.21054,1.21054 2.47608,1.41259 3.9792,0.6353 z m 27.92974,1.71889 c -0.59568,-0.13364 -1.59098,-0.7509 -2.21178,-1.37169 -0.95245,-0.95245 -1.15134,-1.40154 -1.27359,-2.87575 -0.18643,-2.24806 0.36162,-3.86944 1.63441,-4.83533 1.53473,-1.16469 3.11571,-1.34492 4.77049,-0.54386 1.56563,0.75791 2.36435,1.90246 2.67252,3.82967 l 0.2128,1.33077 h -3.88089 c -3.72846,0 -3.8809,0.0264 -3.8809,0.67161 0,0.36939 0.44723,1.08939 0.99384,1.6 1.19255,1.11401 2.82019,1.23453 4.32015,0.31987 1.06881,-0.65174 1.94961,-0.43575 1.6291,0.39949 -0.41808,1.08949 -3.12957,1.89171 -4.98615,1.47522 z m 3.77286,-6.62561 c -0.57449,-1.51103 -1.23787,-2.00058 -2.71095,-2.00058 -1.128,0 -1.50428,0.16913 -2.19041,0.98455 -1.4311,1.70076 -1.20476,1.89545 2.20364,1.89545 h 3.03208 z m -131.66701,6.22999 c -0.0864,-0.22519 -0.11789,-3.21319 -0.07,-6.64 l 0.0872,-6.23057 h 4.32 c 4.10667,0 4.32,0.0316 4.32,0.64 0,0.59671 -0.24349,0.64612 -3.6,0.73048 l -3.6,0.0905 v 2.22952 2.22952 h 3.2 3.2 v 0.8 0.8 h -3.2 -3.2 v 2.88 c 0,2.6815 -0.0448,2.88 -0.65004,2.88 -0.35752,0 -0.72074,-0.18425 -0.80716,-0.40943 z m 47.27877,-6.12931 c -1.26586,-3.5963 -2.30157,-6.62987 -2.30157,-6.74125 0,-0.11139 0.37909,-0.15696 0.84242,-0.10127 0.78282,0.0941 0.97308,0.47479 2.68942,5.38126 1.41385,4.04172 1.90702,5.12991 2.1029,4.64 0.14074,-0.352 0.92089,-2.728 1.73366,-5.28 1.35549,-4.25611 1.54064,-4.64 2.23777,-4.64 0.69777,0 0.88622,0.39316 2.30078,4.8 0.84742,2.64 1.62399,5.016 1.7257,5.28 0.10185,0.26431 1.01298,-1.8925 2.02774,-4.8 1.75038,-5.01524 1.88753,-5.28529 2.73522,-5.38551 0.63591,-0.0752 0.84787,0.0168 0.73739,0.32 -0.0853,0.23403 -1.14908,3.26822 -2.36402,6.74266 -1.95646,5.59503 -2.28865,6.31748 -2.90598,6.32 -0.76467,0.003 -1.02941,-0.57962 -2.97896,-6.55715 -0.57401,-1.76 -1.13807,-3.30513 -1.25345,-3.43361 -0.11539,-0.12848 -0.97181,2.06752 -1.90317,4.88 -1.51506,4.57511 -1.76872,5.11361 -2.40883,5.11361 -0.64218,0 -0.9512,-0.66975 -3.01702,-6.53874 z m 59.13844,1.57874 v -4.96 h 0.8 c 0.60804,0 0.8,0.16694 0.8,0.69578 v 0.69578 l 0.75411,-0.70846 c 1.45509,-1.36698 3.86337,-1.1956 4.96184,0.35311 0.4219,0.59482 0.46642,0.58545 1.38101,-0.29079 0.78072,-0.74797 1.22421,-0.90542 2.5503,-0.90542 1.40868,0 1.71957,0.12796 2.53899,1.04505 0.92599,1.03637 0.93375,1.07821 0.93375,5.04 0,3.78161 -0.0342,3.99495 -0.64,3.99495 -0.5911,0 -0.64014,-0.21393 -0.64179,-2.8 -0.003,-4.46544 -0.62933,-5.84 -2.66172,-5.84 -0.43208,0 -1.12554,0.27475 -1.54104,0.61057 -0.69304,0.56013 -0.76867,0.91041 -0.91545,4.24 -0.1507,3.41837 -0.20024,3.63516 -0.85201,3.72802 -0.66959,0.0954 -0.6955,-0.0202 -0.8,-3.56738 -0.12031,-4.08404 -0.52947,-5.01121 -2.21142,-5.01121 -2.29117,0 -2.85657,1.0736 -2.85657,5.42411 v 3.21589 h -0.8 -0.8 z M 80.522907,104.79374 c -4.16567,-1.05578 -8.288057,-4.18199 -10.209897,-7.742668 -1.072813,-1.987649 -2.155063,-6.050769 -2.147453,-8.062254 0.03005,-7.946323 5.503699,-14.802045 13.072538,-16.373329 2.596918,-0.53912 7.732473,-0.204925 10.210598,0.664452 2.033757,0.713481 5.831309,3.229843 5.831309,3.863984 0,0.396345 -3.877491,5.035469 -4.239261,5.071952 -0.13159,0.01328 -0.939097,-0.478656 -1.794461,-1.093174 -2.346876,-1.686065 -3.759209,-2.174097 -6.315075,-2.182186 -3.694742,-0.01168 -6.515066,1.751408 -8.165882,5.104832 -0.653462,1.327427 -0.764819,2.022368 -0.761878,4.754656 0.0032,2.842004 0.09831,3.378999 0.851427,4.800001 1.735245,3.274112 4.417031,4.941104 7.968125,4.952973 2.656067,0.0089 4.475914,-0.610115 6.663767,-2.266573 l 1.726761,-1.30736 2.259415,2.259414 2.259414,2.259415 -0.786176,0.840155 c -1.44319,1.54227 -3.871766,3.11788 -6.01976,3.90549 -2.72257,0.99828 -7.614765,1.25702 -10.403511,0.55022 z m 33.920003,0 c -7.28401,-1.84612 -12.10377,-8.123731 -12.15666,-15.833735 -0.0664,-9.683626 6.89213,-16.640001 16.64523,-16.640001 4.65174,0 8.56608,1.304945 11.25719,3.752871 l 1.32705,1.20713 -2.12697,2.4 c -1.16984,1.32 -2.24429,2.44647 -2.38767,2.50327 -0.14338,0.0568 -0.80528,-0.332636 -1.47089,-0.865411 -3.10398,-2.484534 -7.39919,-3.147306 -10.46709,-1.615123 -3.64092,1.818365 -5.50524,5.333914 -5.23417,9.870071 0.22637,3.788186 1.99495,6.604333 5.12816,8.165674 3.1907,1.589994 7.83532,0.887427 10.77649,-1.630099 l 1.36279,-1.1665 2.28171,2.281713 2.28171,2.281712 -1.10989,1.145238 c -1.50354,1.55142 -3.657,2.89132 -5.93573,3.69325 -2.51539,0.88521 -7.57139,1.10887 -10.17126,0.44994 z m 34.28722,-0.0107 c -7.47136,-1.81129 -12.45419,-8.205991 -12.45419,-15.983045 0,-7.85505 4.87312,-14.065044 12.58815,-16.041543 2.703,-0.692474 7.6666,-0.454131 10.33591,0.496314 7.25697,2.583936 11.78998,10.068596 10.71125,17.685815 -1.41181,9.969159 -11.08415,16.290309 -21.18112,13.842479 z m 8.57334,-7.142983 c 3.34806,-1.583904 5.25653,-4.793437 5.25653,-8.840062 0,-3.986201 -1.92371,-7.247702 -5.27498,-8.94329 -3.70638,-1.875257 -8.55138,-0.950163 -11.19422,2.137402 -3.33955,3.901514 -3.16365,10.205057 0.38678,13.860817 2.74324,2.824624 7.10747,3.544269 10.82589,1.785146 z m 112.29654,7.312893 c -3.77626,-0.75797 -7.75247,-3.13944 -9.86825,-5.910384 -2.34956,-3.07712 -3.40205,-6.24714 -3.40796,-10.264491 -0.0112,-7.593171 4.99403,-14.051357 12.36239,-15.95114 4.1236,-1.063184 9.30542,-0.47512 12.97005,1.47192 2.07848,1.104308 5.07393,3.938474 6.20817,5.873908 3.81596,6.51144 2.76288,14.859354 -2.54391,20.165917 -3.92818,3.92802 -10.10577,5.74126 -15.72049,4.61427 z m 7.75568,-7.142663 c 1.85259,-0.969977 3.36603,-2.565629 4.29411,-4.527382 0.76607,-1.619309 0.90974,-2.331658 0.90995,-4.511799 2.2e-4,-2.245424 -0.12909,-2.847741 -0.97473,-4.540007 -1.76572,-3.533517 -4.59545,-5.294099 -8.51276,-5.296416 -5.11647,-0.0029 -8.78588,3.500739 -9.28707,8.867828 -0.41829,4.479363 2.1973,8.823063 6.21417,10.319847 1.61159,0.600518 5.96616,0.415785 7.35633,-0.312071 z m 116.93417,6.986263 c -2.58758,-0.4687 -6.93801,-2.42407 -8.63577,-3.88151 L 384.58814,100 l 1.99564,-2.400004 c 1.0976,-1.32 2.02432,-2.43904 2.05936,-2.486755 0.035,-0.04772 0.91268,0.47022 1.95028,1.150966 2.45891,1.613207 4.24896,2.286474 6.68361,2.513824 3.2506,0.303546 5.60298,-0.961366 5.60298,-3.012803 0,-1.507411 -1.52621,-2.431594 -6.41584,-3.885063 -5.47175,-1.626509 -7.23472,-2.476733 -8.71043,-4.200771 -1.42874,-1.669168 -1.96144,-3.578285 -1.76439,-6.323409 0.18563,-2.586205 1.01427,-4.356048 2.87792,-6.14679 2.09971,-2.017591 4.204,-2.695485 8.41274,-2.710122 3.81037,-0.01325 5.47626,0.383792 8.8,2.097379 3.2625,1.682016 3.21014,1.477607 1.13331,4.424666 -0.99958,1.418381 -1.86221,2.578877 -1.91696,2.578877 -0.0548,0 -1.30486,-0.612 -2.77798,-1.36 -2.51485,-1.27697 -2.84119,-1.36 -5.34538,-1.36 -2.52528,0 -2.70806,0.0477 -3.44,0.897843 -1.76166,2.046173 -0.48867,3.887744 3.48829,5.046352 7.10733,2.07058 8.66733,2.757783 10.54797,4.646519 3.13149,3.144983 2.68358,9.749383 -0.87303,12.872111 -1.58566,1.39225 -2.76521,1.94878 -5.2438,2.47411 -2.57639,0.54605 -4.26113,0.54139 -7.36257,-0.0204 z M 31.786068,104.40727 c 0.186571,-0.30188 11.844579,-27.664459 12.818608,-30.086632 l 0.675325,-1.679366 3.36,0.0059 3.36,0.0059 5.6,13.184352 c 3.08,7.251396 6.130884,14.448456 6.779744,15.993466 l 1.179741,2.80912 h -3.746307 -3.74631 l -1.414884,-3.52618 -1.414886,-3.526184 -6.72096,0.08619 -6.720964,0.08619 -1.344694,3.359994 -1.344695,3.36 -3.738188,0.0904 c -2.056007,0.0497 -3.667694,-0.0237 -3.58153,-0.16311 z M 52.480001,91.021423 c 0,-0.345177 -3.563523,-8.944404 -3.810793,-9.195917 -0.13761,-0.139971 -0.944237,1.444029 -1.7925,3.52 -0.848265,2.075975 -1.736473,4.2425 -1.973798,4.8145 l -0.431498,1.04 h 4.004295 c 2.202361,0 4.004294,-0.08036 4.004294,-0.178583 z M 177.6,88.640005 V 72.640004 l 7.28,0.0099 c 8.49567,0.01152 11.44373,0.321994 13.74397,1.447396 2.25274,1.102166 4.32577,3.465584 5.04476,5.751447 0.73901,2.349526 0.56112,6.079033 -0.39216,8.221539 -0.76012,1.708404 -3.0733,4.115348 -4.53813,4.722103 -0.53814,0.222906 -0.97844,0.543312 -0.97844,0.712019 0,0.168704 1.66386,2.743236 3.69746,5.721178 l 3.69745,5.414434 h -4.17644 -4.17646 l -3.281,-4.951691 -3.28101,-4.951694 -2.8,-0.0083 -2.8,-0.0083 v 4.96 4.960005 h -3.52 -3.52 z m 17.30506,-1.195363 c 1.40193,-0.867955 1.89494,-1.881731 1.89494,-3.896538 0,-1.097049 -0.20011,-1.796189 -0.69372,-2.423721 -1.15261,-1.465303 -2.36221,-1.764378 -7.136,-1.764378 H 184.64 v 4.515584 4.515588 l 4.56,-0.11881 c 4.02775,-0.104938 4.69366,-0.201552 5.70506,-0.827725 z M 218.88,88.62918 V 72.618353 l 3.44001,0.09083 3.44,0.09082 0.0868,6.320001 0.0868,6.32 h 7.82648 7.82647 l 0.0868,-6.32 0.0868,-6.320001 h 3.52 3.52 l 0.083,15.920001 0.083,15.920006 h -3.68299 -3.68298 v -6.400005 -6.4 h -7.84 -7.84 v 6.4 6.400005 h -3.52 -3.52001 z m 84.80001,3.370826 V 79.360005 h -4.8 -4.8 v -3.36 -3.360001 h 13.12 13.12 v 3.360001 3.36 h -4.8 -4.8 v 12.640001 12.640004 h -3.52 -3.52 z m 23.36,-3.360001 V 72.640004 h 12 12 v 3.200001 3.2 h -8.48 -8.48 v 3.2 3.2 h 7.52 7.52 v 3.2 3.200001 h -7.52 -7.52 v 3.2 3.2 h 8.64 8.64 v 3.200004 3.2 h -12.16 -12.16 z m 31.75702,0.08 0.083,-15.920001 h 3.52 3.52 l 0.0837,12.720001 0.0836,12.720001 h 7.03635 7.03632 v 3.200004 3.2 h -10.72298 -10.72301 z"
       id="path819"
       inkscape:connector-curvature="0" />
  </g>
</svg>
