<?xml version="1.0" encoding="UTF-8" standalone="no"?>
<!-- Created with Inkscape (http://www.inkscape.org/) -->

<svg
   xmlns:dc="http://purl.org/dc/elements/1.1/"
   xmlns:cc="http://creativecommons.org/ns#"
   xmlns:rdf="http://www.w3.org/1999/02/22-rdf-syntax-ns#"
   xmlns:svg="http://www.w3.org/2000/svg"
   xmlns="http://www.w3.org/2000/svg"
   xmlns:sodipodi="http://sodipodi.sourceforge.net/DTD/sodipodi-0.dtd"
   xmlns:inkscape="http://www.inkscape.org/namespaces/inkscape"
   version="1.1"
   id="svg2"
   width="256"
   height="128"
   viewBox="0 0 256 128"
   sodipodi:docname="bengs.svg"
   inkscape:version="0.92.2 2405546, 2018-03-11">
  <metadata
     id="metadata8">
    <rdf:RDF>
      <cc:Work
         rdf:about="">
        <dc:format>image/svg+xml</dc:format>
        <dc:type
           rdf:resource="http://purl.org/dc/dcmitype/StillImage" />
        <dc:title></dc:title>
      </cc:Work>
    </rdf:RDF>
  </metadata>
  <defs
     id="defs6" />
  <sodipodi:namedview
     pagecolor="#ffffff"
     bordercolor="#666666"
     borderopacity="1"
     objecttolerance="10"
     gridtolerance="10"
     guidetolerance="10"
     inkscape:pageopacity="0"
     inkscape:pageshadow="2"
     inkscape:window-width="1364"
     inkscape:window-height="732"
     id="namedview4"
     showgrid="false"
     inkscape:snap-global="false"
     inkscape:zoom="1.4942634"
     inkscape:cx="322.29767"
     inkscape:cy="22.249173"
     inkscape:window-x="0"
     inkscape:window-y="35"
     inkscape:window-maximized="0"
     inkscape:current-layer="svg2" />
  <g
     id="g832"
     transform="matrix(0.83450728,0,0,0.83450728,-34.42519,-23.445035)">
    <g
       transform="translate(129.2142,22.45119)"
       id="g817">
      <path
         sodipodi:nodetypes="sccssscsccsssccccssccssscccsssssccccssccsssssssscccssscscsssssssssscccscscccsssccccccccssscscccsssssscccsc"
         inkscape:connector-curvature="0"
         id="path819"
         d="m 99.042773,114.19106 c 3.588097,-1.6706 6.052647,-3.72356 7.999997,-6.66395 l 2.81437,-4.24955 0.3204,-22.497668 c 0.37288,-26.181605 -0.14847,-28.63299 -7.45778,-35.066901 -9.023957,-7.943209 -20.956627,-7.467972 -30.090187,1.198387 -4.75119,4.508163 -6.59454,11.09326 -6.08553,21.739709 0.36196,7.570539 0.83478,9.483153 3.37191,13.639586 5.27603,8.643421 16.3336,12.400493 26.22505,8.910584 2.21943,-0.783058 4.301007,-1.158058 4.625727,-0.833333 0.32473,0.324725 0.59041,2.810409 0.59041,5.523743 0,4.277123 -0.45225,5.385583 -3.399997,8.333333 -3.1049,3.1049 -3.91652,3.4 -9.35106,3.4 -4.39711,0 -7.15589,-0.64062 -10.56514,-2.45333 l -4.61408,-2.45333 -2.21188,3.10631 -2.21189,3.10631 2.92702,2.36743 c 6.82228,5.51799 18.74252,6.78976 27.11266,2.89267 z M 82.473313,82.91251 C 77.809653,80.615089 75.407153,75.003671 75.379103,66.342881 75.340613,54.454638 79.610713,48.625 88.357143,48.625 c 8.93175,0 12.999997,5.544074 12.999997,17.715942 0,9.306734 -1.975577,13.916779 -7.084807,16.532504 -4.24663,2.174112 -7.44349,2.184696 -11.79902,0.03906 z m -133.487821,6.138842 c 7.188355,-4.444219 10.373375,-11.139456 10.366074,-21.790544 -0.007,-10.140757 -1.244679,-14.712304 -5.204294,-19.222057 -6.036841,-6.875581 -14.05898,-9.276144 -23.115657,-6.91718 -3.174629,0.826886 -5.975097,1.503429 -6.223262,1.503429 -0.248166,0 -0.45121,-6.975 -0.45121,-15.5 v -15.5 h -4.5 -4.5 l 0.0056,31.25 c 0.0034,19.099656 0.421369,32.747423 1.07497,35.101286 1.309839,4.717221 8.50369,12.168013 13.095341,13.563065 6.013611,1.827078 14.15783,0.78542 19.452461,-2.487999 z m -17.628349,-6.177906 c -5.060321,-2.527914 -6.996565,-7.10624 -6.998446,-16.548106 -0.0024,-12.15457 4.070177,-17.70034 12.998446,-17.70034 8.812201,0 13,5.800978 13,18.007719 0,8.752633 -2.350362,13.981594 -7.351249,16.35467 -4.41252,2.093878 -7.285439,2.065776 -11.648751,-0.113943 z m 68.00797386,7.285418 C 1.2857309,89.186568 3.8744009,87.460781 5.1177149,86.323781 l 2.260568,-2.067273 -2.606449,-2.720551 -2.606452,-2.720551 -3.467348,2.353006 C -9.3030601,86.598101 -20.510913,84.63751 -24.045003,77.18997 -27.095584,70.761347 -26.755582,70.625 -7.6742421,70.625 h 17.031385 v -6.803656 c 0,-5.337758 -0.56512,-7.937713 -2.62291,-12.067149 -7.812428,-15.677501 -30.6861039,-15.325047 -38.5247219,0.593616 -2.001047,4.063725 -2.349089,6.270669 -2.330413,14.777189 0.03047,13.879734 2.705236,18.906973 12.496028,23.486389 5.426303,2.538028 15.5121519,2.320586 20.98999086,-0.452525 z M -25.014487,61.098931 c -1.001339,-2.609448 2.022756,-8.290811 5.561454,-10.448296 3.932259,-2.397433 9.7752899,-2.612156 13.8429089,-0.508708 3.36573,1.740486 6.23303396,6.604107 5.77794796,9.800758 -0.297256,2.088013 -0.834908,2.194407 -12.44224586,2.462143 -10.322061,0.23809 -12.222327,0.04331 -12.740065,-1.305897 z m 50.55851,12.44694 0.31312,-18.079129 3.73531,-3.420871 c 2.97077,-2.720679 4.56722,-3.420871 7.79966,-3.420871 5.31302,0 9.513,2.255706 11.66862,6.266927 1.39816,2.601716 1.81172,6.504023 2.11776,19.983073 l 0.38031,16.75 h 4.49812 4.49812 l -0.39493,-17.25 c -0.41974,-18.333351 -1.33586,-22.475485 -6.1007,-27.583671 -9.3392,-10.012173 -27.00909,-8.304007 -34.19335,3.305507 l -3.00892,4.862317 -0.31184,18.332923 -0.31184,18.332924 h 4.49871 4.49872 z M 145.10602,88.81048 c 2.38107,-1.24688 5.45828,-4.052509 7,-6.382206 2.35035,-3.551609 2.75112,-5.187586 2.75112,-11.230245 0,-11.616615 -4.60348,-16.782172 -20.96761,-23.527721 -12.83167,-5.289411 -14.53239,-7.112336 -14.53239,-15.576584 0,-3.488427 0.62315,-5.134592 2.91438,-7.698932 2.56848,-2.874628 3.66635,-3.321583 9.25,-3.765777 l 6.33562,-0.504015 0.31429,-4.388967 0.31429,-4.388967 -7.08332,0.506808 c -13.38438,0.957648 -21.04526,8.643068 -21.04526,21.112685 0,7.53057 2.84819,13.803667 7.79287,17.163664 1.96846,1.337603 7.94233,4.273188 13.27525,6.523523 12.27554,5.179909 14.43188,7.342128 14.43188,14.471254 0,9.116111 -5.5341,12.5 -20.44282,12.5 h -7.05718 v 4.107926 4.107926 l 11.25,-0.402691 c 9.17031,-0.32825 12.03546,-0.814007 15.49888,-2.627681 z"
         style="fill:#000101" />
    </g>
    <path
       inkscape:connector-curvature="0"
       id="path817"
       d="m 259.3924,178.59609 c -0.94826,-0.3202 -1.86077,-1.27449 -2.12359,-2.22085 -0.11895,-0.42829 -0.21682,-2.12514 -0.21745,-3.77078 l -10e-4,-2.99207 h 1.04985 1.04985 v 2.92969 c 0,1.73019 0.0971,3.14285 0.2372,3.4503 0.3225,0.70781 1.269,1.07858 2.13195,0.83518 1.13743,-0.32079 1.40959,-1.17654 1.40997,-4.43307 v -2.7821 h 0.94487 0.94486 l -0.003,3.30702 c -0.003,3.03186 -0.0425,3.37594 -0.47254,4.13521 -0.25801,0.45549 -0.77665,1.00779 -1.15256,1.22734 -0.82109,0.47955 -2.81895,0.64477 -3.7981,0.31413 z m 10.7809,0.058 c -0.93674,-0.22906 -2.41465,-1.03579 -2.41465,-1.31805 0,-0.13568 0.24425,-0.50166 0.54281,-0.81327 l 0.54281,-0.56659 0.87449,0.50007 c 0.92789,0.53061 2.003,0.64635 2.67302,0.28776 0.9668,-0.51741 0.27415,-1.19256 -1.91812,-1.8697 -1.61118,-0.49762 -2.2872,-1.12577 -2.44033,-2.2675 -0.23867,-1.77939 1.05911,-2.99545 3.18982,-2.98898 1.1912,0.004 2.82415,0.51793 3.10929,0.97934 0.0641,0.1037 -0.0786,0.49676 -0.31707,0.87343 -0.30895,0.48797 -0.53123,0.64288 -0.77305,0.53884 -1.63633,-0.70407 -2.09298,-0.79887 -2.6424,-0.54854 -0.40632,0.18513 -0.54192,0.38456 -0.49345,0.7257 0.0542,0.3817 0.36858,0.57139 1.66718,1.00602 2.06799,0.69215 2.63814,1.08198 2.8838,1.97168 0.6704,2.42797 -1.60013,4.19501 -4.48415,3.48979 z m 36.53474,-0.0967 c -1.20025,-0.3796 -2.20468,-0.93655 -2.20468,-1.22248 0,-0.13508 0.24425,-0.50053 0.54281,-0.81214 l 0.54281,-0.56659 0.87449,0.50007 c 0.92789,0.53061 2.003,0.64635 2.67302,0.28776 0.96397,-0.51589 0.26693,-1.22799 -1.80776,-1.84689 -1.72161,-0.51355 -2.39328,-1.11666 -2.55069,-2.29031 -0.32894,-2.45232 2.51567,-3.79287 5.40806,-2.54859 0.56997,0.2452 1.03629,0.49387 1.03629,0.55264 0,0.0588 -0.20025,0.43086 -0.44501,0.82686 -0.32178,0.52066 -0.53981,0.67929 -0.78739,0.57286 -1.64217,-0.70592 -2.09562,-0.80015 -2.64537,-0.54968 -0.40631,0.18513 -0.54191,0.38456 -0.49345,0.7257 0.0542,0.3817 0.36859,0.57139 1.66719,1.00602 0.88019,0.29459 1.84399,0.69528 2.14177,0.89038 1.05848,0.69355 1.14994,2.91134 0.1571,3.80986 -0.95635,0.86548 -2.62202,1.13485 -4.10919,0.66453 z m 9.44864,0 c -1.20025,-0.3796 -2.20468,-0.93655 -2.20468,-1.22248 0,-0.13508 0.24425,-0.50053 0.54281,-0.81214 l 0.54281,-0.56659 0.87448,0.50007 c 0.9279,0.53061 2.00301,0.64635 2.67303,0.28776 0.96397,-0.51589 0.26693,-1.22799 -1.80776,-1.84689 -1.66691,-0.49723 -2.36495,-1.09308 -2.53931,-2.16752 -0.29026,-1.78867 1.04594,-3.11505 3.13951,-3.11639 1.09115,0 3.29346,0.66642 3.29346,0.99765 0,0.0588 -0.20025,0.43086 -0.44501,0.82686 -0.32178,0.52066 -0.53981,0.67929 -0.78739,0.57286 -1.64217,-0.70592 -2.09562,-0.80015 -2.64537,-0.54968 -0.40631,0.18513 -0.54191,0.38456 -0.49345,0.7257 0.0542,0.3817 0.36858,0.57139 1.66719,1.00602 0.88019,0.29459 1.84399,0.69528 2.14177,0.89038 1.05848,0.69355 1.14994,2.91134 0.1571,3.80986 -0.95635,0.86548 -2.62202,1.13485 -4.10919,0.66453 z m -69.60498,-4.41511 v -4.52985 l 2.46714,0.005 c 3.49214,0.007 4.67183,0.58859 4.67183,2.30505 0,0.71809 -0.32075,1.45099 -0.78484,1.79337 -0.24237,0.17881 -0.19962,0.27036 0.23476,0.50284 0.29209,0.15632 0.69095,0.62111 0.88635,1.03288 0.31506,0.66394 0.32207,0.84246 0.062,1.57784 -0.52866,1.49477 -1.04309,1.69737 -4.50721,1.7751 l -3.03001,0.068 z m 5.35116,2.40169 c 0.38198,-0.31701 0.41215,-0.87427 0.0661,-1.22036 -0.14996,-0.14996 -0.87255,-0.25197 -1.78474,-0.25197 h -1.53278 v 0.97309 0.97306 l 1.46672,-0.10494 c 0.8067,-0.0577 1.60984,-0.2237 1.78474,-0.36888 z m -0.64402,-3.48951 c 0.19288,-0.074 0.33213,-0.37269 0.33213,-0.71242 0,-0.70386 -0.29185,-0.83988 -1.80191,-0.83988 h -1.13766 v 0.83988 0.83988 h 1.13766 c 0.62571,0 1.28711,-0.0574 1.46978,-0.12746 z m 26.62667,1.12481 0.0567,-4.46186 0.99736,-0.064 0.99735,-0.064 v 4.52585 4.52586 h -1.05402 -1.05403 z m 5.62087,-0.0525 v -4.51435 h 0.93386 0.93386 l 1.91994,2.51911 c 1.05598,1.38553 2.00578,2.57217 2.1107,2.63701 0.11049,0.0683 0.19076,-0.99164 0.19076,-2.51911 v -2.63701 h 0.94487 0.94486 v 4.52642 4.52643 l -0.88265,-0.0646 c -0.86363,-0.0632 -0.927,-0.12273 -2.93958,-2.76371 l -2.05692,-2.69911 v 2.75161 2.75163 h -1.04985 -1.04985 z m 11.54834,0 v -4.51435 h 3.35951 3.35952 v 0.94486 0.94487 h -2.30967 -2.30967 v 0.83228 0.83227 l 2.04721,0.0601 2.0472,0.0601 v 0.83988 0.83988 l -2.0472,0.0601 -2.04721,0.0601 v 0.82539 0.82541 l 2.36216,0.0594 2.36216,0.0594 0.0646,0.89237 0.0646,0.89237 h -3.47657 -3.47657 z m -48.1935,-11.90673 c -0.0597,-0.15557 -0.0829,-2.21728 -0.0515,-4.58157 l 0.057,-4.29871 h 0.52493 0.52492 v 4.51435 4.51435 l -0.47337,0.0672 c -0.26035,0.037 -0.52222,-0.0601 -0.58191,-0.21563 z m 5.03362,-0.0147 c -0.0566,-0.14746 -0.0772,-2.20254 -0.0459,-4.56684 0.0753,-5.67738 -0.037,-5.65292 3.74546,-0.81582 l 2.82059,3.60699 0.0575,-3.61138 c 0.0573,-3.59909 0.0591,-3.61114 0.52493,-3.54494 0.46668,0.0663 0.46741,0.0735 0.46741,4.58078 0,4.35211 -0.0149,4.51435 -0.41381,4.51435 -0.28579,0 -1.29268,-1.11871 -3.25453,-3.61601 l -2.84072,-3.61606 -0.0574,3.66853 c -0.0549,3.51456 -0.075,3.66851 -0.47902,3.66851 -0.23191,0 -0.46798,-0.12067 -0.52457,-0.26813 z m 13.91294,0.137 c -0.0818,-0.0819 -0.14883,-1.92834 -0.14883,-4.10329 v -3.95442 h -1.46979 c -1.43155,0 -1.46979,-0.0139 -1.46979,-0.53001 v -0.53 l 3.517,0.0576 c 3.4675,0.0567 3.51793,0.0642 3.5841,0.53001 0.0641,0.45158 0.002,0.47243 -1.41279,0.47243 h -1.47984 l -0.057,4.04192 c -0.0548,3.8874 -0.0734,4.04426 -0.48562,4.10327 -0.23571,0.0337 -0.49555,-0.006 -0.57741,-0.0875 z m 8.69967,-0.32215 c -1.7813,-0.88173 -2.83745,-3.20633 -2.3496,-5.17152 0.35783,-1.44142 1.15185,-2.46758 2.38479,-3.082 3.18405,-1.58665 6.64485,0.54219 6.64485,4.08746 0,1.95707 -1.04086,3.57256 -2.76614,4.29326 -1.12869,0.47148 -2.81513,0.41668 -3.9139,-0.1272 z m 3.98109,-1.07068 c 1.05932,-0.70399 1.71483,-2.10967 1.57528,-3.3781 -0.22547,-2.04954 -1.49834,-3.28676 -3.38146,-3.28676 -1.20728,0 -2.14791,0.49528 -2.92028,1.53767 -0.34527,0.46601 -0.43924,0.90062 -0.43924,2.03181 0,1.60577 0.32665,2.24903 1.57264,3.09706 0.95758,0.65172 2.61099,0.65095 3.59306,-0.002 z m -0.86627,-14.95772 c -2.69116,-0.85248 -3.91787,-4.03699 -2.55789,-6.64025 1.87773,-3.59441 7.1494,-3.09498 8.37512,0.79343 1.12729,3.57616 -2.25467,6.97532 -5.81723,5.84682 z m 2.95083,-1.20827 c 1.34954,-0.68175 1.88343,-1.58945 1.88343,-3.20204 0,-1.0053 -0.10786,-1.46118 -0.47243,-1.99686 -0.68755,-1.0102 -1.45215,-1.4995 -2.53377,-1.6214 -3.35689,-0.37837 -5.15755,3.8908 -2.64873,6.27977 1.16878,1.11295 2.31362,1.27702 3.7715,0.54053 z m 43.66246,1.20825 c -2.69116,-0.85248 -3.91787,-4.03697 -2.5579,-6.64026 1.88335,-3.60511 7.22863,-3.08363 8.36224,0.81582 1.06608,3.66723 -2.21634,6.96102 -5.80434,5.82444 z m 2.94025,-1.20825 c 1.34737,-0.68849 1.76124,-1.36993 1.85319,-3.05128 0.0662,-1.20968 0.007,-1.5125 -0.41345,-2.12618 -0.70829,-1.03313 -1.46513,-1.52035 -2.55193,-1.64284 -3.35689,-0.37837 -5.15755,3.8908 -2.64873,6.27977 1.1684,1.11257 2.31803,1.27779 3.76092,0.54053 z m -80.26531,1.18118 c -0.0819,-0.0819 -0.14883,-2.11731 -0.14883,-4.52323 v -4.37436 h 0.63409 0.63408 l -0.0567,4.46185 c -0.0547,4.31035 -0.0712,4.46394 -0.48526,4.52321 -0.23571,0.0337 -0.49555,-0.006 -0.57741,-0.0875 z m 4.89044,-4.38324 v -4.51435 l 0.57742,0.0134 c 0.49223,0.0113 0.9801,0.53025 3.30702,3.51699 l 2.72961,3.5036 0.0576,-3.517 0.0576,-3.51699 h 0.51984 0.51985 v 4.52831 4.52829 l -0.4999,-0.0664 c -0.36247,-0.0482 -1.27158,-1.04771 -3.30702,-3.63592 l -2.80713,-3.56949 -0.0575,3.62198 -0.0574,3.62196 h -0.51997 -0.51997 v -4.51435 z m 11.54834,0 v -4.51435 h 0.51338 c 0.4137,0 1.04573,0.67614 3.25453,3.48161 l 2.74115,3.48163 v -3.48163 -3.48161 h 0.63409 0.63409 l -0.0567,4.46185 c -0.0743,5.85003 0.0569,5.8156 -3.73772,0.98069 l -2.82802,-3.60331 -0.0574,3.59472 -0.0574,3.59475 h -0.51997 -0.51997 z m 24.42954,0.0628 c -1.87181,-4.42194 -1.88735,-4.4729 -1.3838,-4.54043 0.2801,-0.0375 0.55688,-0.0208 0.61506,0.0375 0.0582,0.0582 0.7994,1.78951 1.64715,3.8474 1.18035,2.86527 1.57839,3.64333 1.69952,3.32202 0.087,-0.23078 0.78707,-1.93137 1.55573,-3.7791 1.28955,-3.09983 1.44215,-3.36481 1.97411,-3.4278 0.71232,-0.0844 0.80715,-0.40358 -1.42485,4.79718 -2.40061,5.5937 -2.20179,5.6046 -4.68292,-0.25677 z m 7.94291,4.14931 c 0.0373,-0.16625 0.91826,-2.19695 1.95761,-4.51267 2.54361,-5.66729 2.33369,-5.66893 4.92937,0.0381 1.06361,2.33854 1.98237,4.37 2.04169,4.51435 0.0718,0.1747 -0.0973,0.26247 -0.50588,0.26247 -0.54592,0 -0.66661,-0.1276 -1.09239,-1.15484 l -0.47865,-1.15483 h -2.47519 -2.47516 l -0.46872,1.15483 c -0.38934,0.95931 -0.55606,1.15484 -0.98465,1.15484 -0.34044,0 -0.49284,-0.10283 -0.44803,-0.30228 z m 6.26199,-3.18127 c 0,-0.26504 -1.74695,-4.0752 -1.86722,-4.07251 -0.0991,0.002 -1.51558,3.02541 -1.87724,4.00664 -0.0385,0.10444 0.78825,0.1899 1.83724,0.1899 1.04897,0 1.90722,-0.0558 1.90722,-0.12403 z m 7.13897,-0.50588 V 138.117 h -1.57477 c -1.53977,0 -1.57478,-0.0118 -1.57478,-0.52493 v -0.52492 h 3.56949 3.56949 v 0.52492 c 0,0.50993 -0.042,0.52493 -1.46979,0.52493 h -1.46979 v 3.98942 3.98943 h -0.52493 -0.52492 z m 7.34894,-0.52492 v -4.51435 h 0.52493 0.52492 v 4.51435 4.51435 h -0.52492 -0.52493 z m 17.21752,0 v -4.51435 l 0.57742,0.0134 c 0.49223,0.0113 0.9801,0.53025 3.30702,3.51699 l 2.72961,3.5036 0.0576,-3.517 0.0576,-3.51699 h 0.52402 0.52402 l -0.0567,4.46186 c -0.0735,5.78767 0.0502,5.75829 -3.76644,0.89468 l -2.79929,-3.5672 -0.0575,3.61969 -0.0575,3.61967 h -0.51997 -0.51997 v -4.51435 z m -75.03914,-11.87052 c -0.73116,-0.21892 -1.51873,-0.92514 -1.9823,-1.77752 -0.27424,-0.50426 -0.34356,-1.27909 -0.3475,-3.88444 l -0.005,-3.25453 h 0.52492 0.52493 l 0.10498,3.25453 c 0.067,2.0764 0.20224,3.42476 0.37366,3.72479 0.58082,1.01653 2.39706,1.41978 3.59788,0.79881 1.05157,-0.54378 1.27771,-1.39649 1.27771,-4.8178 l -9e-5,-3.06532 h 0.52493 0.52492 v 3.21004 c 0,2.91137 -0.044,3.29722 -0.47243,4.14691 -0.77691,1.54066 -2.72719,2.23927 -4.64678,1.66453 z m 50.18655,-0.0904 c -3.5757,-1.2747 -3.88425,-6.84808 -0.4706,-8.5006 1.1949,-0.57844 3.20074,-0.58474 4.32034,-0.0136 1.00176,0.51107 1.11624,0.67986 0.7763,1.14475 -0.24976,0.34157 -0.3142,0.33528 -1.05754,-0.1033 -1.01329,-0.59785 -2.70363,-0.65303 -3.60692,-0.11774 -1.1588,0.6867 -1.67027,1.69855 -1.6693,3.30237 0,1.58776 0.32921,2.22477 1.59321,3.09176 0.60204,0.41294 0.91891,0.47832 1.99681,0.41197 0.74126,-0.0456 1.51556,-0.2324 1.83724,-0.44317 0.4781,-0.31326 0.55602,-0.51077 0.55602,-1.40933 v -1.04501 h -1.36481 c -1.31582,0 -1.3648,-0.0188 -1.3648,-0.52492 0,-0.52104 0.0141,-0.52492 1.88973,-0.52492 h 1.88972 l -0.002,1.83723 -0.002,1.83724 -0.68096,0.4546 c -1.33673,0.89238 -3.16351,1.12955 -4.64157,0.60263 z m -59.76522,-3.89183 v -3.98943 h -1.46979 c -1.4278,0 -1.46979,-0.015 -1.46979,-0.52492 v -0.52493 h 3.56949 3.56948 v 0.52493 c 0,0.51326 -0.035,0.52492 -1.57477,0.52492 h -1.57477 v 3.98943 3.98942 h -0.52493 -0.52492 z m 18.47734,-0.54652 v -4.53594 l 2.57213,0.0763 c 2.90064,0.086 3.68392,0.37442 4.24848,1.56416 0.66668,1.40492 0.0973,2.99491 -1.27836,3.56969 -0.52488,0.21931 -0.69059,0.38759 -0.5561,0.56478 2.55942,3.37237 2.51903,3.29695 1.76511,3.29695 -0.53521,0 -0.79451,-0.23451 -1.84962,-1.67283 l -1.22717,-1.67284 -1.31231,-0.007 -1.31231,-0.007 v 1.67976 c 0,1.65176 -0.009,1.67976 -0.52493,1.67976 h -0.52492 v -4.53594 z m 5.19112,-0.28763 c 0.8184,-0.49901 1.08355,-1.33587 0.66147,-2.08784 -0.45748,-0.81508 -1.16676,-1.06094 -3.07049,-1.06434 l -1.73225,-0.003 v 1.78474 1.78475 l 1.73225,-8.4e-4 c 1.35149,-6.3e-4 1.88101,-0.0915 2.40902,-0.41343 z m 5.51733,0.30922 v -4.51435 l 0.47244,0.009 c 0.35749,0.007 1.13654,0.86254 3.20204,3.51581 l 2.7296,3.50639 0.0576,-3.51582 0.0576,-3.51581 h 0.51984 0.51985 v 4.51435 4.51435 l -0.47244,-0.004 c -0.3599,-0.003 -1.12254,-0.8355 -3.20203,-3.49682 l -2.72961,-3.49331 -0.0576,3.49682 -0.0576,3.49682 h -0.51984 -0.51985 v -4.51435 z m 11.54834,0 v -4.51435 h 0.52493 0.52492 v 4.51435 4.51435 h -0.52492 -0.52493 z m 5.03928,0 v -4.51435 l 0.47243,0.004 c 0.35991,0.003 1.12254,0.8355 3.20204,3.49682 l 2.7296,3.49331 0.0576,-3.49682 0.0576,-3.49682 h 0.51984 0.51985 v 4.51435 4.51435 l -0.47243,-0.0129 c -0.35548,-0.01 -1.14814,-0.87892 -3.20204,-3.51149 l -2.72961,-3.49865 -0.0576,3.51149 -0.0576,3.51149 h -0.51984 -0.51984 v -4.51435 z"
       style="fill:#0dafe4;stroke-width:0.20996977" />
  </g>
</svg>
