<?xml version="1.0" encoding="UTF-8" standalone="no"?>
<svg
   xmlns:dc="http://purl.org/dc/elements/1.1/"
   xmlns:cc="http://creativecommons.org/ns#"
   xmlns:rdf="http://www.w3.org/1999/02/22-rdf-syntax-ns#"
   xmlns:svg="http://www.w3.org/2000/svg"
   xmlns="http://www.w3.org/2000/svg"
   xmlns:sodipodi="http://sodipodi.sourceforge.net/DTD/sodipodi-0.dtd"
   xmlns:inkscape="http://www.inkscape.org/namespaces/inkscape"
   id="Calque_1"
   data-name="Calque 1"
   viewBox="0 0 256 128"
   version="1.1"
   sodipodi:docname="blueshaker.svg"
   width="256"
   height="128"
   inkscape:version="0.92.2 2405546, 2018-03-11">
  <metadata
     id="metadata31">
    <rdf:RDF>
      <cc:Work
         rdf:about="">
        <dc:format>image/svg+xml</dc:format>
        <dc:type
           rdf:resource="http://purl.org/dc/dcmitype/StillImage" />
        <dc:title>Logo_BlueShaker_DEF</dc:title>
      </cc:Work>
    </rdf:RDF>
  </metadata>
  <sodipodi:namedview
     pagecolor="#ffffff"
     bordercolor="#666666"
     borderopacity="1"
     objecttolerance="10"
     gridtolerance="10"
     guidetolerance="10"
     inkscape:pageopacity="0"
     inkscape:pageshadow="2"
     inkscape:window-width="1364"
     inkscape:window-height="732"
     id="namedview29"
     showgrid="false"
     inkscape:zoom="4.0239293"
     inkscape:cx="135.47047"
     inkscape:cy="53.938275"
     inkscape:window-x="0"
     inkscape:window-y="35"
     inkscape:window-maximized="0"
     inkscape:current-layer="Calque_1" />
  <defs
     id="defs4">
    <style
       id="style2">.cls-1,.cls-2{fill:#009fe3;stroke:#009fe3;stroke-miterlimit:10;}.cls-1{stroke-width:0.87px;}</style>
  </defs>
  <title
     id="title6">Logo_BlueShaker_DEF</title>
  <g
     id="g848"
     transform="matrix(0.53951767,0,0,0.53951767,0.96858354,18.187442)">
    <path
       style="fill:#009fe3;stroke:#009fe3;stroke-width:0.87px;stroke-miterlimit:10"
       inkscape:connector-curvature="0"
       id="path8"
       d="M 55.45,124.82 V 44.000002 a 0.87,0.87 0 0 1 0.87,-0.87 h 7.17 a 0.87,0.87 0 0 1 0.87,0.87 V 124.83 a 0.87,0.87 0 0 1 -0.87,0.87 h -7.17 a 0.87,0.87 0 0 1 -0.87,-0.88 z"
       class="cls-1" />
    <path
       style="fill:#009fe3;stroke:#009fe3;stroke-width:0.87px;stroke-miterlimit:10"
       inkscape:connector-curvature="0"
       id="path10"
       d="m 94.82,126.84 c -12.05,-0.11 -21.4,-8.33 -21.4,-23.09 V 73.100002 a 0.87,0.87 0 0 1 0.87,-0.87 h 6.72 a 0.87,0.87 0 0 1 0.87,0.87 V 104.2 c 0,8.78 5.74,13.85 12.28,14 8,0.11 13.4,-5.63 13.4,-12.73 V 73.100002 a 0.87,0.87 0 0 1 0.87,-0.87 h 6.72 a 0.87,0.87 0 0 1 0.87,0.87 V 107.1 c -0.02,10.17 -9.59,19.85 -21.2,19.74 z"
       class="cls-1" />
    <path
       style="fill:#009fe3;stroke:#009fe3;stroke-width:0.87px;stroke-miterlimit:10"
       inkscape:connector-curvature="0"
       id="path12"
       d="M 276.41,124.77 V 92.850002 a 12.85,12.85 0 0 0 -12.44,-12.94 c -7.23,-0.14 -13.13,5 -13.13,12.95 V 124.77 a 0.87,0.87 0 0 1 -0.87,0.87 h -6.83 a 0.87,0.87 0 0 1 -0.87,-0.87 V 44.100002 a 0.87,0.87 0 0 1 0.87,-0.87 h 6.83 a 0.87,0.87 0 0 1 0.85,0.87 v 25.86 a 2.82,2.82 0 0 0 3.85,2.65 c 2.8,-1.16 5.69,-1.33 9.33,-1.33 11.6,0 20.84,8.67 20.84,21.62 V 124.81 a 0.87,0.87 0 0 1 -0.87,0.87 h -6.72 a 0.87,0.87 0 0 1 -0.84,-0.91 z"
       class="cls-1" />
    <path
       style="fill:#009fe3;stroke:#009fe3;stroke-width:0.87px;stroke-miterlimit:10"
       inkscape:connector-curvature="0"
       id="path14"
       d="m 340.19,124.74 v -2.64 a 1.41,1.41 0 0 0 -2.32,-1.08 29.05,29.05 0 0 1 -17.51,6.1 28,28 0 1 1 28,-27.999998 V 124.83 a 0.87,0.87 0 0 1 -0.87,0.87 H 341 a 0.87,0.87 0 0 1 -0.81,-0.96 z M 320.37,79.990002 a 19,19 0 1 0 0,37.999998 19,19 0 0 0 0,-37.999998 z"
       class="cls-1" />
    <path
       style="fill:#009fe3;stroke:#009fe3;stroke-width:0.87px;stroke-miterlimit:10"
       inkscape:connector-curvature="0"
       id="path16"
       d="m 383.54,125.37 -15.18,-20 a 1.5,1.5 0 0 0 -2.69,0.91 v 18.56 a 0.87,0.87 0 0 1 -0.87,0.87 h -6.38 a 0.87,0.87 0 0 1 -0.87,-0.87 V 44.020002 a 0.87,0.87 0 0 1 0.87,-0.87 h 6.4 a 0.87,0.87 0 0 1 0.87,0.87 v 43.08 a 2.6,2.6 0 0 0 4.72,1.5 l 11.24,-15.92 a 0.87,0.87 0 0 1 0.71,-0.37 h 8.33 a 0.87,0.87 0 0 1 0.7,1.37 l -16.57,22.78 a 3.12,3.12 0 0 0 0,3.729998 l 18.47,24.13 a 0.87,0.87 0 0 1 -0.69,1.39 h -8.4 a 0.87,0.87 0 0 1 -0.66,-0.34 z"
       class="cls-1" />
    <path
       style="fill:#009fe3;stroke:#009fe3;stroke-width:0.87px;stroke-miterlimit:10"
       inkscape:connector-curvature="0"
       id="path18"
       d="m 469.66,80.630002 a 9.62,9.62 0 0 0 -5.52,1.46 c -1.91,1.35 -2.48,3.27 -2.48,5.63 V 124.81 a 0.87,0.87 0 0 1 -0.87,0.87 h -6.83 a 0.87,0.87 0 0 1 -0.87,-0.87 V 89.310002 c 0,-6 1.35,-10.93 5.29,-14.19 2.7,-2.14 6.53,-3.27 10.93,-3.27 h 1.72 a 0.87,0.87 0 0 1 0.87,0.87 v 7.05 a 0.87,0.87 0 0 1 -0.87,0.87 z"
       class="cls-1" />
    <path
       style="fill:#009fe3;stroke:#009fe3;stroke-miterlimit:10"
       inkscape:connector-curvature="0"
       id="path20"
       d="m 0.52,74.610002 c 0,-10.27 0,-20.53 0,-30.8 0,-0.93 0.23,-1.19 1.16,-1.16 2.3,0.07 4.61,0.06 6.92,0 0.85,0 1,0.23 1,1.05 0,9.63 0,19.27 0,28.9 a 3,3 0 0 0 0.33,1.83 1.94,1.94 0 0 0 2.08,0.73 12,12 0 0 0 2.61,-0.94 c 12.92,-5.35 30.35,1.47 31.84,19.41 A 65.21,65.21 0 0 1 46.23,108.32 22.36,22.36 0 0 1 26.4,127.23 c -8.42,0.82 -15.56,-1.67 -21,-8.35 A 23,23 0 0 1 0.49,104.16 C 0.48,94.320002 0.52,84.470002 0.52,74.610002 Z m 9.08,25.18 c 0,1.619998 0,2.999998 0,4.369998 0.1,4.78 1.54,9 5.39,12.09 a 13.1,13.1 0 0 0 13.55,2 c 5.08,-2 7.85,-5.94 8.75,-11.21 0.63,-3.75 0.21,-7.569998 0.27,-11.349998 a 16.89,16.89 0 0 0 -0.48,-4 13.68,13.68 0 0 0 -13.42,-11 c -6.32,-0.08 -11.64,4.11 -13.41,10.48 -0.82,2.93 -0.59,5.93 -0.65,8.62 z"
       class="cls-2" />
    <path
       style="fill:#009fe3;stroke:#009fe3;stroke-miterlimit:10"
       inkscape:connector-curvature="0"
       id="path22"
       d="m 135.13,103.45 c -1.93,0.22 -2.73,1.22 -2.55,3.17 a 12.33,12.33 0 0 0 7.76,10.6 c 7.11,3.16 13.73,1.69 19.82,-2.84 l 0.08,-0.08 c 0.76,-0.48 1.29,-1.67 2.08,-1.55 0.79,0.12 1.24,1.15 1.84,1.78 1,1 1.89,2.1 2.91,3.06 0.67,0.63 0.53,1 0,1.62 a 24.8,24.8 0 0 1 -13.93,7.46 27.28,27.28 0 0 1 -17.39,-1.88 20.58,20.58 0 0 1 -12,-16.54 58.86,58.86 0 0 1 0.1,-17.869998 c 2.07,-12.12 11.93,-19.87 24.27,-19.39 a 22.71,22.71 0 0 1 21.7,19.67 c 0.57,4 0.34,8 0.43,11.999998 0,0.89 -0.51,0.75 -1,0.75 -5.63,-0.03 -33.71,-0.01 -34.12,0.04 z m 23.14,-8.429998 c 1.79,-0.06 2.58,-1 2.61,-2.77 a 10,10 0 0 0 -0.36,-2.82 c -2,-7.43 -10.41,-11.78 -18.07,-9.38 a 13.62,13.62 0 0 0 -9.86,11.62 c -0.22,2.16 0.7,3.24 2.84,3.37 0.39,0.06 20.33,0.06 22.84,-0.02 z"
       class="cls-2" />
    <path
       style="fill:#009fe3;stroke:#009fe3;stroke-miterlimit:10"
       inkscape:connector-curvature="0"
       id="path24"
       d="m 410.82,103.45 c -1.93,0.22 -2.73,1.22 -2.55,3.17 a 12.33,12.33 0 0 0 7.76,10.6 c 7.11,3.16 13.73,1.69 19.82,-2.84 l 0.08,-0.08 c 0.76,-0.48 1.45,-1.06 2.08,-1.55 0.48,-0.42 1.31,1.23 1.84,1.78 a 29.81,29.81 0 0 0 2.97,3.07 c 0.67,0.63 0.53,1 0,1.62 a 24.8,24.8 0 0 1 -14,7.46 27.28,27.28 0 0 1 -17.39,-1.88 20.58,20.58 0 0 1 -12,-16.54 58.86,58.86 0 0 1 0.1,-17.869998 c 2.07,-12.12 11.93,-19.87 24.27,-19.39 a 22.71,22.71 0 0 1 21.7,19.67 c 0.57,4 0.34,8 0.43,11.999998 0,0.89 -0.51,0.75 -1,0.75 -5.57,-0.04 -33.65,-0.02 -34.11,0.03 z m 23.14,-8.429998 c 1.79,-0.06 2.58,-1 2.61,-2.77 a 10,10 0 0 0 -0.36,-2.82 c -2,-7.43 -10.41,-11.78 -18.07,-9.38 a 13.62,13.62 0 0 0 -9.86,11.62 c -0.22,2.16 0.7,3.24 2.84,3.37 0.43,0.06 20.38,0.06 22.88,-0.02 z"
       class="cls-2" />
    <path
       style="fill:#009fe3;stroke:#009fe3;stroke-miterlimit:10"
       inkscape:connector-curvature="0"
       id="path26"
       d="m 204.57,127.48 c -2.52,0 -5,0 -7.55,0 -0.62,0 -0.83,-0.13 -0.82,-0.79 q 0.06,-3.55 0,-7.09 c 0,-0.68 0.24,-0.78 0.84,-0.78 4.32,0 8.63,0 13,0 a 24.29,24.29 0 0 0 7.74,-1.24 11.47,11.47 0 0 0 8.21,-10.69 c 0.44,-5.89 -1.85,-10.249998 -7.1,-12.999998 -4.21,-2.23 -8.7,-3.81 -13.09,-5.62 a 52.88,52.88 0 0 1 -8.45,-4.14 20.27,20.27 0 0 1 -9.69,-15.53 23.49,23.49 0 0 1 3.33,-15.84 c 3.81,-5.93 9.43,-8.91 16.3,-9.77 3,-0.38 6.07,-0.13 9.11,-0.21 0.53,0 0.73,0.15 0.72,0.69 0,2.4 0,4.81 0,7.21 0,0.61 -0.29,0.64 -0.76,0.64 -2,0 -3.9,0 -5.86,0 -7.09,0.08 -12.34,4.24 -13.63,11.15 -1.09,5.82 0.72,10.57 5.72,13.82 3.1,2 6.6,3.17 10,4.56 4.4,1.81 8.82,3.53 12.81,6.19 7.24,4.83 10.22,11.66 9.7,20.209998 -0.35,5.7 -2.21,10.68 -6.66,14.47 a 24.22,24.22 0 0 1 -11.25,5 c -4.21,0.89 -8.37,0.77 -12.62,0.76 z"
       class="cls-2" />
  </g>
</svg>
