<?xml version="1.0" encoding="UTF-8" standalone="no"?>
<!-- Created with Inkscape (http://www.inkscape.org/) -->

<svg
   xmlns:dc="http://purl.org/dc/elements/1.1/"
   xmlns:cc="http://creativecommons.org/ns#"
   xmlns:rdf="http://www.w3.org/1999/02/22-rdf-syntax-ns#"
   xmlns:svg="http://www.w3.org/2000/svg"
   xmlns="http://www.w3.org/2000/svg"
   xmlns:sodipodi="http://sodipodi.sourceforge.net/DTD/sodipodi-0.dtd"
   xmlns:inkscape="http://www.inkscape.org/namespaces/inkscape"
   version="1.1"
   id="svg2"
   width="256"
   height="128"
   viewBox="0 0 256 128"
   sodipodi:docname="bridge.svg"
   inkscape:version="0.92.2 2405546, 2018-03-11">
  <metadata
     id="metadata8">
    <rdf:RDF>
      <cc:Work
         rdf:about="">
        <dc:format>image/svg+xml</dc:format>
        <dc:type
           rdf:resource="http://purl.org/dc/dcmitype/StillImage" />
        <dc:title></dc:title>
      </cc:Work>
    </rdf:RDF>
  </metadata>
  <defs
     id="defs6" />
  <sodipodi:namedview
     pagecolor="#ffffff"
     bordercolor="#666666"
     borderopacity="1"
     objecttolerance="10"
     gridtolerance="10"
     guidetolerance="10"
     inkscape:pageopacity="0"
     inkscape:pageshadow="2"
     inkscape:window-width="1364"
     inkscape:window-height="732"
     id="namedview4"
     showgrid="false"
     inkscape:zoom="1.3524355"
     inkscape:cx="223.58501"
     inkscape:cy="117.17047"
     inkscape:window-x="0"
     inkscape:window-y="35"
     inkscape:window-maximized="0"
     inkscape:current-layer="svg2"
     inkscape:snap-global="false" />
  <g
     id="g812"
     transform="matrix(0.66426641,0,0,0.6591526,-24.629105,13.162063)">
    <path
       style="fill:#cfd1d2;stroke-width:0.71444917"
       d="m 41.540044,153.78515 c -0.18326,-0.29471 1.646403,-0.44588 4.065919,-0.33592 7.39642,0.3361 8.272329,0.65216 2.119324,0.76471 -3.218623,0.0589 -6.001982,-0.13408 -6.185243,-0.42879 z m 47.402519,0.26191 c 0,-0.15067 0.803755,-0.42759 1.786123,-0.61538 0.982368,-0.18779 1.786123,-0.0645 1.786123,0.27393 0,0.33846 -0.803755,0.61538 -1.786123,0.61538 -0.982368,0 -1.786123,-0.12327 -1.786123,-0.27393 z m 5.894206,-0.21856 c 0.687657,-0.1797 1.812915,-0.1797 2.500572,0 0.687657,0.1797 0.125029,0.32674 -1.250286,0.32674 -1.375315,0 -1.937944,-0.14704 -1.250286,-0.32674 z m 4.833472,-5.33312 c 0.006,-2.88659 0.247144,-5.60424 0.535839,-6.03922 0.33485,-0.50453 5.31032,-0.94016 13.7422,-1.20322 28.08268,-0.87611 48.69969,-6.99819 59.33867,-17.62021 5.48191,-5.47316 7.46233,-9.74811 7.46233,-16.10816 0,-3.7882 -0.40213,-5.8176 -1.65804,-8.367515 -3.26459,-6.628166 -12.99375,-14.731292 -23.85893,-19.871375 l -4.48989,-2.124071 25.37248,-5.65e-4 25.37249,-5.64e-4 3.91993,2.590971 c 12.64087,8.35529 20.05079,21.126939 20.25866,34.917609 0.14518,9.63135 -3.31182,16.35424 -12.01487,23.36558 -8.99818,7.24908 -18.45561,10.85586 -35.54765,13.55678 -8.40738,1.32855 -13.46393,1.53862 -43.97199,1.82674 l -34.472169,0.32558 z m -5.512439,-9.89227 c 0,-2.16121 0.133935,-3.04534 0.297632,-1.96474 0.163698,1.08061 0.163698,2.84887 0,3.92947 -0.163697,1.08061 -0.297632,0.19648 -0.297632,-1.96473 z m -1.438651,-3.21502 c 0.0054,-1.96474 0.144114,-2.6837 0.308333,-1.59769 0.16422,1.08601 0.159831,2.69352 -0.0098,3.57225 -0.169583,0.87873 -0.303944,-0.01 -0.298581,-1.97456 z m 5.732637,-2.14335 c 0.004,-2.35768 0.137389,-3.23606 0.296398,-1.95194 0.159009,1.28412 0.155728,3.21313 -0.0073,4.2867 -0.163018,1.07356 -0.293117,0.0229 -0.289106,-2.33476 z m -57.182731,-6.07282 c 0,-1.76826 0.139329,-2.49164 0.30962,-1.60751 0.170291,0.88413 0.170291,2.33089 0,3.21502 -0.170291,0.88413 -0.30962,0.16075 -0.30962,-1.60751 z m 53.528381,-2.50057 c 0.01456,-1.17884 0.174681,-1.5746 0.355825,-0.87947 0.181144,0.69514 0.169231,1.65965 -0.02647,2.14335 -0.195707,0.48371 -0.343916,-0.085 -0.329355,-1.26388 z m -1.402426,-2.50057 c 0,-1.37532 0.14703,-1.93795 0.326734,-1.25029 0.179704,0.68766 0.179704,1.81292 0,2.50057 -0.179704,0.68766 -0.326734,0.12503 -0.326734,-1.25028 z m 5.715594,-3.57225 c 0,-1.37531 0.14703,-1.93794 0.326734,-1.25028 0.179703,0.68765 0.179703,1.81291 0,2.50057 -0.179704,0.68765 -0.326734,0.12503 -0.326734,-1.25029 z m -57.182409,-1.78612 c 0.01456,-1.17884 0.174682,-1.5746 0.355826,-0.87947 0.181144,0.69514 0.169231,1.65965 -0.02647,2.14335 -0.195704,0.4837 -0.343913,-0.085 -0.329353,-1.26388 z m 53.557217,-1.78612 c 0,-0.98237 0.16216,-1.38425 0.360358,-0.89307 0.198197,0.49119 0.198197,1.29494 0,1.78613 -0.198198,0.49118 -0.360358,0.0893 -0.360358,-0.89306 z m -1.428899,-2.14335 c 0,-0.98237 0.162161,-1.38425 0.360358,-0.89306 0.198197,0.49118 0.198197,1.29494 0,1.78612 -0.198197,0.49118 -0.360358,0.0893 -0.360358,-0.89306 z m 5.742067,-3.21502 c 0.01456,-1.17884 0.174681,-1.57461 0.355828,-0.87947 0.18114,0.69514 0.16923,1.65965 -0.0265,2.14335 -0.19571,0.4837 -0.343919,-0.085 -0.329358,-1.26388 z m -57.238813,-0.0595 c 0.03428,-0.83229 0.203576,-1.00158 0.431647,-0.43165 0.206383,0.51574 0.181001,1.13196 -0.0564,1.36937 -0.237406,0.2374 -0.406265,-0.18457 -0.375243,-0.93772 z m 53.640094,-2.44106 c 0,-0.98236 0.16216,-1.38424 0.360358,-0.89306 0.198197,0.49119 0.198197,1.29494 0,1.78613 -0.198198,0.49118 -0.360358,0.0893 -0.360358,-0.89307 z M 94.770964,105.024 c 0,-0.98237 0.162161,-1.38425 0.360359,-0.89306 0.198196,0.49118 0.198196,1.29493 0,1.78612 -0.198198,0.49118 -0.360359,0.0893 -0.360359,-0.89306 z m -51.496746,-1.13121 c 0.03428,-0.8323 0.203576,-1.00159 0.431647,-0.43165 0.206383,0.51574 0.181001,1.13195 -0.0564,1.36936 -0.237405,0.23741 -0.406264,-0.18457 -0.375243,-0.93771 z m 57.155932,-1.4289 c 0.0343,-0.8323 0.20358,-1.00159 0.43165,-0.43165 0.20638,0.51574 0.181,1.13195 -0.0564,1.36936 -0.2374,0.23741 -0.40626,-0.18457 -0.37524,-0.93771 z m -3.572242,-2.14335 c 0.03428,-0.832295 0.203575,-1.001584 0.431646,-0.431646 0.206384,0.515736 0.181002,1.131956 -0.05641,1.369366 -0.237405,0.2374 -0.406265,-0.18457 -0.375243,-0.93772 z m -1.428899,-1.428896 c 0.03428,-0.832297 0.203576,-1.001586 0.431647,-0.431648 0.206384,0.515739 0.181001,1.131951 -0.05641,1.369363 -0.237406,0.237401 -0.406265,-0.184571 -0.375243,-0.937715 z m 5.715591,-2.143347 c 0.0343,-0.832298 0.20358,-1.001586 0.43165,-0.431649 0.20638,0.51574 0.181,1.131952 -0.0564,1.369363 -0.2374,0.237405 -0.40626,-0.18457 -0.37524,-0.937714 z m -5.001142,-3.572246 c 0.03428,-0.832298 0.203576,-1.001586 0.431647,-0.431649 0.206384,0.51574 0.181001,1.131952 -0.05641,1.369364 -0.237405,0.237404 -0.406265,-0.184571 -0.375243,-0.937715 z m 5.715592,-1.428898 c 0.0343,-0.832298 0.20358,-1.001587 0.43165,-0.431649 0.20638,0.515739 0.181,1.131952 -0.0564,1.369363 -0.2374,0.237405 -0.40626,-0.184571 -0.37524,-0.937714 z M 202.08309,67.158191 c 0,-3.732997 0.12042,-5.260132 0.26759,-3.393633 0.14718,1.866498 0.14718,4.920768 0,6.787267 -0.14717,1.866498 -0.26759,0.339363 -0.26759,-3.393634 z m -47.3548,-9.704601 c 0.0343,-0.832292 0.20358,-1.001586 0.43165,-0.431646 0.20638,0.515743 0.181,1.131955 -0.0564,1.369361 -0.23742,0.237405 -0.40627,-0.184567 -0.37525,-0.937715 z m 46.4392,-2.857796 c 0.0343,-0.832293 0.20358,-1.001587 0.43164,-0.431647 0.20639,0.515743 0.18101,1.131956 -0.0564,1.369361 -0.23741,0.237405 -0.40626,-0.184566 -0.37524,-0.937714 z m -45.55248,-6.72773 c 0,-2.554156 0.12967,-3.599038 0.28816,-2.32196 0.15848,1.277078 0.15848,3.366842 0,4.64392 -0.15849,1.277078 -0.28816,0.232196 -0.28816,-2.32196 z m 44.83803,1.726586 c 0.0343,-0.832293 0.20358,-1.001587 0.43164,-0.431647 0.20639,0.515743 0.18101,1.131955 -0.0564,1.369361 -0.23741,0.237405 -0.40626,-0.184566 -0.37524,-0.937714 z M 150.29406,30.899896 c -0.88868,-1.133156 -0.86341,-1.158426 0.26975,-0.269744 1.19009,0.933334 1.56855,1.52003 0.98053,1.52003 -0.14835,0 -0.71098,-0.562629 -1.25028,-1.250286 z m -22.77124,0.266093 c 0,-0.14836 0.56263,-0.710988 1.25029,-1.250286 1.13315,-0.888683 1.15842,-0.863413 0.26974,0.269744 -0.93333,1.190092 -1.52003,1.568558 -1.52003,0.980542 z m 19.91344,-3.12389 c -0.88868,-1.133156 -0.86341,-1.158426 0.26975,-0.269743 1.19009,0.933334 1.56856,1.520029 0.98054,1.520029 -0.14836,0 -0.71099,-0.562628 -1.25029,-1.250286 z m 42.53298,-1.786123 -1.36101,-1.60751 1.60751,1.361017 c 0.88413,0.748559 1.60751,1.471939 1.60751,1.607511 0,0.57174 -0.57498,0.149646 -1.85401,-1.361018 z m -23.28567,-2.452785 c 0.51574,-0.206384 1.13195,-0.181001 1.36936,0.05641 0.2374,0.237406 -0.18457,0.406265 -0.93772,0.375243 -0.83229,-0.03428 -1.00158,-0.203576 -0.43164,-0.431647 z m -15.76254,-0.699565 c 0.49118,-0.198197 1.29494,-0.198197 1.78612,0 0.49119,0.198197 0.0893,0.360358 -0.89306,0.360358 -0.98237,0 -1.38424,-0.162161 -0.89306,-0.360358 z m 10.71674,0 c 0.49118,-0.198197 1.29494,-0.198197 1.78612,0 0.49119,0.198197 0.0893,0.360358 -0.89306,0.360358 -0.98237,0 -1.38425,-0.162161 -0.89306,-0.360358 z m -4.99282,-2.175483 c 0.88871,-0.170892 2.17472,-0.164404 2.8578,0.01442 0.68308,0.178821 -0.0441,0.318642 -1.61584,0.310712 -1.57179,-0.0079 -2.13067,-0.154239 -1.24196,-0.32513 z m -3.9378,-4.273882 c 0.68766,-0.179703 1.81292,-0.179703 2.50058,0 0.68765,0.179704 0.12502,0.326734 -1.25029,0.326734 -1.37532,0 -1.93794,-0.14703 -1.25029,-0.326734 z m 6.08115,-0.01281 c 0.88871,-0.170891 2.17472,-0.164403 2.8578,0.01442 0.68308,0.178821 -0.0441,0.318641 -1.61584,0.310711 -1.57179,-0.0079 -2.13067,-0.154238 -1.24196,-0.32513 z m -7.49645,-1.418703 c 0.69514,-0.181144 1.65964,-0.169231 2.14335,0.02647 0.4837,0.195704 -0.085,0.343913 -1.26388,0.329353 -1.17884,-0.01456 -1.57461,-0.174682 -0.87947,-0.355826 z m 10.00229,0 c 0.69514,-0.181144 1.65964,-0.169231 2.14335,0.02647 0.4837,0.195704 -0.085,0.343913 -1.26388,0.329353 -1.17885,-0.01456 -1.57461,-0.174682 -0.87947,-0.355826 z M 119.85609,4.5060106 c 0.69513,-0.1811439 1.65964,-0.1692309 2.14334,0.026473 0.48371,0.1957041 -0.085,0.3439128 -1.26388,0.3293525 -1.17884,-0.01456 -1.5746,-0.1746818 -0.87946,-0.3558255 z m 18.57568,0 c 0.69513,-0.1811439 1.65964,-0.1692309 2.14334,0.026473 0.48371,0.1957041 -0.085,0.3439128 -1.26388,0.3293525 -1.17884,-0.01456 -1.5746,-0.1746818 -0.87946,-0.3558255 z"
       id="path820"
       inkscape:connector-curvature="0"
       sodipodi:nodetypes="ccccsssssssssccscscscccsscssccsscscsccccscccsssssccssscssccscccccsccsscssccccccccccsccssccscccccccscccccccccccccccccccccccccccsccsccccccscsccsccccccscssssccscccssccccccscssccsccccccccsccccccccsccccsccccscccsc" />
    <path
       style="fill:#bad546;stroke-width:0.71444917"
       d="m 47.50451,153.65205 -6.072818,-0.40273 -0.228987,-7.85894 c -0.125943,-4.32242 0.126101,-13.48523 0.560099,-20.36181 C 45.670662,63.109589 65.589389,23.502732 99.785457,9.6549863 109.6282,5.6691541 115.38482,4.7481272 130.38062,4.7599326 c 10.83833,0.00853 14.5354,0.2907983 20.54051,1.5682395 9.46961,2.014432 17.82421,5.0648459 24.88852,9.0872439 7.98385,4.545978 8.3938,5.351494 1.56032,3.06586 -8.17315,-2.733719 -15.34801,-3.730472 -23.41253,-3.252544 C 131.55677,16.556264 115.7872,28.719495 106.42157,51.893625 98.696439,71.008521 93.928529,101.22989 92.630706,139.3069 l -0.473122,13.88099 -1.786123,0.49533 c -2.089596,0.5795 -34.008658,0.55629 -42.866951,-0.0311 z m 46.446029,-3.08192 c 0.03589,-15.95265 2.732436,-47.93555 5.390329,-63.933032 6.519822,-39.241888 19.237762,-60.28477 40.493222,-66.999366 14.64578,-4.626602 33.09585,-2.841535 46.6066,4.509245 3.10744,1.690662 10.3837,9.367859 10.3837,10.95586 0,0.287629 -1.68789,-0.627074 -3.75086,-2.032675 -5.54465,-3.777837 -16.04685,-8.594459 -22.43072,-10.2874 -7.07385,-1.875921 -17.82031,-2.022743 -24.8818,-0.339944 -14.16472,3.375546 -24.26838,11.886326 -31.76747,26.75921 -9.39539,18.633816 -15.747033,56.752512 -15.759818,94.580832 l -0.0033,9.82368 h -2.143347 c -2.046358,0 -2.143038,-0.1374 -2.136516,-3.03641 z M 153.82348,23.088742 c 0.51574,-0.206384 1.13195,-0.181002 1.36936,0.05641 0.23741,0.237405 -0.18457,0.406265 -0.93771,0.375243 -0.8323,-0.03428 -1.00159,-0.203576 -0.43165,-0.431647 z m 5.71559,0 c 0.51574,-0.206384 1.13196,-0.181002 1.36937,0.05641 0.2374,0.237405 -0.18457,0.406265 -0.93772,0.375243 -0.8323,-0.03428 -1.00158,-0.203576 -0.43165,-0.431647 z"
       id="path818"
       inkscape:connector-curvature="0"
       sodipodi:nodetypes="ccsssssssssscccccssssssssccscccccccccccc" />
    <path
       style="fill:#6ebc44;stroke-width:0.71444917"
       d="m 152.61973,71.623499 c 1.82841,-7.648812 3.48274,-19.179671 3.47258,-24.204351 -0.0196,-9.728466 -4.16166,-17.677112 -11.0345,-21.175602 l -2.11235,-1.075257 4.2557,-0.898028 c 9.37215,-1.977688 20.44158,-0.753967 31.29219,3.45934 4.82737,1.874474 14.38261,7.138577 18.17584,10.013308 2.58221,1.956946 4.45772,12.230089 4.94628,27.093323 l 0.4051,12.324248 h -25.36221 -25.36221 z"
       id="path816"
       inkscape:connector-curvature="0"
       sodipodi:nodetypes="ccccsssscccc" />
    <path
       style="fill:#39aa46;stroke-width:0.71444917"
       d="m 362.73998,96.068649 c -4.17961,-1.49024 -6.18369,-3.72309 -6.18369,-6.889569 0,-2.16929 0.43801,-3.02427 2.29319,-4.47616 2.18665,-1.71131 2.23644,-1.8574 1.07167,-3.14445 -1.73414,-1.9162 -1.51658,-3.99198 0.69372,-6.61876 1.72257,-2.04716 1.79444,-2.34372 0.71443,-2.94812 -1.77416,-0.99287 -3.34411,-4.46142 -3.34411,-7.38825 0,-6.3019 4.93205,-10.02937 12.40801,-9.37754 2.40985,0.21011 6.87318,0.59251 9.91852,0.84978 5.2492,0.44346 5.53698,0.55748 5.53698,2.19367 0,1.3461 -0.47165,1.82022 -2.14334,2.15456 -2.03229,0.40646 -2.14335,0.61044 -2.14335,3.93675 0,6.29779 -3.30027,9.23522 -11.06655,9.84986 -4.1173,0.32585 -5.03814,0.62796 -5.24676,1.72139 -0.40137,2.10366 0.51822,2.47652 7.98425,3.23739 7.62713,0.77728 10.09441,1.85846 11.27376,4.94025 1.67243,4.37026 -2.65468,10.631169 -8.46216,12.243919 -3.70466,1.02879 -9.99835,0.8941 -13.30457,-0.28472 z m 12.65926,-4.63926 c 3.26486,-1.241299 4.05907,-5.017559 1.285,-6.109879 -0.65728,-0.25881 -3.52943,-0.65184 -6.38256,-0.8734 -4.36139,-0.33868 -5.41384,-0.19802 -6.60866,0.88328 -1.87985,1.70124 -1.80377,4.28787 0.16673,5.66806 1.79564,1.257719 8.68888,1.515729 11.53949,0.431939 z M 374.36566,68.07924 c 3.769,-4.79151 -0.87584,-10.34762 -6.77536,-8.10463 -2.57248,0.97805 -3.15022,1.85585 -3.16413,4.80734 -0.0152,3.22199 2.12138,5.17976 5.6528,5.17976 2.18035,0 3.13608,-0.4197 4.28669,-1.88247 z m -137.83684,15.871 c 0,-2.13443 0.27135,-2.50341 2.14335,-2.91457 l 2.14335,-0.47075 V 64.27865 47.9924 l -2.14335,-0.42867 c -1.91296,-0.3826 -2.14335,-0.70971 -2.14335,-3.04333 v -2.61467 l 12.68148,0.37783 c 13.45533,0.4009 16.44391,1.00364 19.63084,3.95916 5.17587,4.80004 3.80453,13.54674 -2.54231,16.21538 l -2.14418,0.90156 3.27361,1.44807 c 4.19735,1.85669 5.68253,4.1345 5.64746,8.66143 -0.0346,4.47306 -1.55519,7.44146 -4.96913,9.70069 -3.72766,2.46685 -8.65067,3.22419 -20.95854,3.22419 h -10.61923 z m 26.64065,-5.42385 c 3.72713,-2.93176 3.08501,-9.0489 -1.1333,-10.79618 -1.22847,-0.50885 -4.65704,-0.93831 -7.61903,-0.95435 l -5.38545,-0.0292 -0.20543,6.60865 -0.20542,6.60866 h 6.3605 c 5.29153,0 6.66767,-0.24161 8.18813,-1.43761 z m -0.86552,-19.22646 c 2.7294,-2.7294 2.86877,-6.48402 0.33475,-9.01804 -1.58828,-1.58829 -2.32938,-1.75365 -7.85895,-1.75365 h -6.10529 v 6.43004 6.43004 h 5.77055 c 5.42538,0 5.89547,-0.12492 7.85894,-2.08839 z m 13.65293,24.77215 c 0.1855,-1.92393 0.6219,-2.43913 2.54583,-3.00554 l 2.32196,-0.68358 V 70.89522 61.4075 l -2.50057,-1.04481 c -2.08311,-0.87038 -2.50057,-1.40871 -2.50057,-3.22461 v -2.1798 l 4.46531,0.0109 c 5.27811,0.0129 5.91482,0.33648 6.56544,3.33615 l 0.49352,2.27542 2.81126,-2.81126 c 2.428,-2.428 3.24379,-2.81124 5.98411,-2.81124 1.74507,0 3.31795,0.24113 3.49529,0.53584 0.17734,0.29471 0.1069,1.82184 -0.15654,3.39363 -0.46586,2.77959 -0.55011,2.85157 -3.07862,2.63009 -1.4298,-0.12523 -3.58546,0.28209 -4.79035,0.90516 -3.47346,1.7962 -4.44481,4.48354 -4.20718,11.63968 l 0.20617,6.20871 2.32196,0.66411 c 2.02635,0.57955 2.32196,0.96929 2.32196,3.06132 v 2.39722 h -8.26143 -8.26143 z m 26.43461,0 c 0.18551,-1.92393 0.62191,-2.43913 2.54584,-3.00554 l 2.32196,-0.68358 v -9.7068 -9.7068 l -2.32196,-0.68358 c -1.92393,-0.56641 -2.36033,-1.08161 -2.54584,-3.00554 l -0.22387,-2.32196 h 6.11808 6.11808 v 12.80331 12.80333 l 2.14335,0.47075 c 1.87201,0.41116 2.14335,0.78014 2.14335,2.91457 v 2.4438 h -8.26143 -8.26143 z m 24.86157,0.71445 c -3.94232,-2.6791 -5.34949,-6.30647 -5.3353,-13.75315 0.0141,-7.37955 1.50048,-11.19343 5.46182,-14.01415 3.02382,-2.15314 9.81027,-2.74341 12.35693,-1.07478 2.9974,1.96397 3.32342,1.54116 3.09793,-4.01776 -0.20823,-5.13362 -0.22702,-5.17784 -2.35326,-5.5401 -1.8029,-0.30717 -2.17891,-0.7335 -2.36723,-2.68401 l -0.22388,-2.31884 h 5.74938 5.74938 l 0.1901,19.43683 0.19009,19.43683 1.78612,0.41721 c 1.37835,0.32197 1.83724,0.94092 2.01001,2.7111 l 0.22388,2.29388 h -5.04642 c -4.51896,0 -5.04641,-0.14494 -5.04641,-1.38673 0,-1.61552 -1.12391,-2.54254 -1.78523,-1.47251 -0.25028,0.40497 -1.70645,1.37472 -3.23592,2.155 -3.77258,1.92463 -8.42521,1.84771 -11.42199,-0.18882 z m 10.50243,-4.15567 c 4.54664,-1.72268 5.22626,-3.11189 5.22626,-10.68296 0,-8.0175 -0.71484,-9.21012 -5.86521,-9.78542 -5.84833,-0.65326 -8.98315,4.26854 -8.20896,12.88842 0.38444,4.28033 1.694,6.54713 4.42911,7.66659 1.93242,0.79092 2.11197,0.7874 4.4188,-0.0866 z m 59.16718,4.76816 c -7.74332,-3.39266 -11.14419,-14.75829 -6.90274,-23.06878 2.55057,-4.99746 6.80107,-7.37992 13.13122,-7.36021 6.84566,0.0213 11.46307,4.03936 12.78725,11.12738 0.99628,5.33281 1.075,5.2932 -10.51878,5.2932 -11.3381,0 -11.23144,-0.0514 -9.31001,4.48825 2.23867,5.28916 7.00082,6.7337 13.28566,4.03003 l 3.80499,-1.63686 1.33842,1.65287 c 1.65038,2.03814 0.88345,3.22248 -3.32703,5.13778 -3.40476,1.54879 -11.10789,1.73011 -14.28898,0.33634 z m 12.88457,-20.25984 c -0.86686,-3.49264 -3.09437,-5.17976 -6.83887,-5.17976 -2.66724,0 -3.73429,0.38401 -5.23383,1.88355 -1.03595,1.03595 -1.88355,2.13491 -1.88355,2.44214 0,0.30722 -0.19514,1.06714 -0.43366,1.6887 -0.37882,0.98718 0.53456,1.1301 7.22194,1.1301 h 7.65561 z M 307.66755,48.83443 c -1.51591,-1.51591 -1.41908,-4.81766 0.18384,-6.26828 2.83237,-2.56326 7.26684,-0.59316 7.26684,3.22842 0,3.5538 -4.92668,5.56386 -7.45068,3.03986 z"
       id="path814"
       inkscape:connector-curvature="0" />
    <path
       inkscape:connector-curvature="0"
       id="path942"
       d="m 255.54159,126.34365 c -1.21217,-0.52778 -2.93146,-1.88159 -3.82065,-3.00845 -2.22394,-2.81839 -1.86322,-9.35867 0.66458,-12.04937 2.37385,-2.52686 6.28256,-3.46791 9.68005,-2.33053 3.51246,1.17587 5.45358,3.89986 5.82179,8.16974 0.3689,4.27798 -1.54211,7.70492 -5.13338,9.20545 -3.00194,1.25428 -4.35615,1.25676 -7.21239,0.0131 z m 7.16458,-4.14459 c 0.6117,-0.87332 1.11218,-2.89156 1.11218,-4.48495 0,-3.98555 -1.59614,-6.07282 -4.64392,-6.07282 -1.69038,0 -2.75472,0.47853 -3.53173,1.58787 -1.48803,2.12447 -1.44666,7.57509 0.0702,9.25123 1.69871,1.87705 5.59114,1.72046 6.99325,-0.28133 z m 105.42177,3.94307 c -4.84629,-2.48757 -6.40841,-9.87268 -3.04674,-14.40384 3.18361,-4.29115 10.46941,-4.306 14.06854,-0.0286 3.18045,3.77975 2.18832,11.60536 -1.78598,14.08735 -2.49127,1.55583 -6.57957,1.70861 -9.23582,0.34517 z m 7.26684,-3.53761 c 0.9068,-0.82064 1.30655,-2.19283 1.30655,-4.48495 0,-4.37672 -1.5065,-6.47828 -4.64392,-6.47828 -3.04778,0 -4.64392,2.08727 -4.64392,6.07282 0,3.87762 1.60842,6.07282 4.44956,6.07282 1.22386,0 2.81313,-0.53208 3.53173,-1.18241 z m 32.5637,4.24293 c -1.75992,-0.26661 -1.96474,-0.5906 -1.96474,-3.10798 0,-1.54568 0.24113,-2.80542 0.53584,-2.7994 0.95172,0.0194 2.05734,1.02925 2.53026,2.31102 0.53713,1.45582 4.04461,1.71274 5.3644,0.39295 1.58357,-1.58357 0.87863,-2.75656 -2.53629,-4.22027 -6.1918,-2.65392 -7.41114,-5.22481 -4.23138,-8.92149 1.31962,-1.53416 2.31498,-1.94504 4.82253,-1.9907 4.67156,-0.0851 5.66028,0.5201 5.66028,3.46452 0,1.83223 -0.31172,2.52299 -1.13856,2.52299 -0.62621,0 -1.30089,-0.62076 -1.4993,-1.37948 -0.4673,-1.78696 -2.09708,-2.38551 -3.88704,-1.42755 -1.94875,1.04293 -1.39458,2.96513 1.17527,4.07661 5.02747,2.17439 5.70861,2.72021 5.94411,4.76316 0.59031,5.1208 -3.36381,7.43838 -10.77538,6.31562 z m -171.2892,-1.34129 c 0,-0.62621 0.64301,-1.3067 1.4289,-1.51223 1.28353,-0.33564 1.4289,-0.97452 1.4289,-6.27982 0,-5.30531 -0.14537,-5.94418 -1.4289,-6.27984 -1.81121,-0.47363 -1.8862,-2.65077 -0.0913,-2.65077 1.00497,0 1.44967,-0.70097 1.78834,-2.81884 0.5491,-3.43388 2.58785,-5.0401 6.39732,-5.0401 2.23716,0 2.69118,0.21912 2.34161,1.1301 -0.23852,0.62155 -0.43367,1.26455 -0.43367,1.4289 0,0.16433 -0.5787,0.29879 -1.28601,0.29879 -1.76075,0 -3.00068,1.38754 -3.00068,3.35791 0,1.34952 0.38311,1.64324 2.14335,1.64324 1.66704,0 2.14334,0.31753 2.14334,1.42888 0,1.11137 -0.4763,1.4289 -2.14334,1.4289 h -2.14335 v 5.98949 c 0,5.38864 0.14334,6.02698 1.4289,6.36316 0.78589,0.20552 1.42889,0.88602 1.42889,1.51222 0,0.93335 -0.9014,1.13857 -5.00114,1.13857 -4.09974,0 -5.00114,-0.20522 -5.00114,-1.13857 z m 32.86467,0 c 0,-0.62621 0.643,-1.3067 1.4289,-1.51223 1.28353,-0.33564 1.42889,-0.97452 1.42889,-6.27982 0,-5.30531 -0.14536,-5.94418 -1.42889,-6.27984 -0.7859,-0.20552 -1.4289,-0.88602 -1.4289,-1.51222 0,-0.87311 0.74958,-1.13856 3.21502,-1.13856 2.73872,0 3.21502,0.21169 3.21502,1.42889 0,0.7859 0.3215,1.4289 0.71445,1.4289 0.39295,0 0.71445,-0.31324 0.71445,-0.6961 0,-1.03955 4.2557,-3.04091 5.47296,-2.5738 0.61191,0.23481 0.96095,1.08422 0.82858,2.01642 -0.16963,1.19452 -0.78254,1.6723 -2.37207,1.84909 -3.6267,0.40337 -4.64392,1.92212 -4.64392,6.93352 0,3.849 0.19294,4.50031 1.4289,4.82352 0.78589,0.20552 1.4289,0.88602 1.4289,1.51222 0,0.93335 -0.90141,1.13857 -5.00115,1.13857 -4.09974,0 -5.00114,-0.20522 -5.00114,-1.13856 z m 24.29127,0.0583 c 0,-0.65826 0.643,-1.36497 1.4289,-1.57049 1.33973,-0.35035 1.4289,-0.97452 1.4289,-10.00229 0,-9.02777 -0.0892,-9.65194 -1.4289,-10.00229 -0.82463,-0.21565 -1.4289,-0.97452 -1.4289,-1.79449 0,-1.35316 0.39971,-1.40768 8.39478,-1.14492 8.91919,0.29314 10.88483,0.93021 12.27341,3.9778 1.2569,2.7586 0.88693,4.49771 -1.41406,6.64716 l -2.17933,2.03581 2.11984,1.09622 c 3.61344,1.86857 3.66523,6.83903 0.10476,10.05166 -1.36793,1.23429 -2.79001,1.46116 -10.44151,1.66578 -7.90333,0.21132 -8.85789,0.10788 -8.85789,-0.95997 z m 16.29989,-3.48222 c 1.23085,-1.23085 1.34863,-4.50937 0.20314,-5.65485 -0.45229,-0.45231 -2.66262,-0.83007 -4.91184,-0.83949 l -4.08947,-0.0171 -0.22369,3.11816 c -0.35343,4.92674 0.0323,5.36201 4.30372,4.85614 2.03095,-0.24054 4.15412,-0.89881 4.71814,-1.46284 z m -1.24949,-10.46605 c 0.95388,-0.51053 1.38193,-1.49859 1.38193,-3.18992 0,-2.98503 -1.44829,-3.92947 -6.02585,-3.92947 h -3.26199 v 3.45317 c 0,1.89925 0.21434,3.6675 0.4763,3.92947 0.74216,0.74216 5.89191,0.55967 7.42961,-0.26328 z m 9.24087,13.88997 c 0,-0.62621 0.64301,-1.3067 1.4289,-1.51223 1.28555,-0.33618 1.4289,-0.97452 1.4289,-6.36315 0,-5.51319 -0.11363,-5.98949 -1.4289,-5.98949 -0.9526,0 -1.4289,-0.4763 -1.4289,-1.4289 0,-1.23837 0.4763,-1.42889 3.57225,-1.42889 h 3.57224 v 7.50171 c 0,6.1919 0.18712,7.50172 1.07168,7.50172 0.59537,0 1.07167,0.63507 1.07167,1.4289 0,1.28234 -0.4763,1.4289 -4.64392,1.4289 -3.77288,0 -4.64392,-0.21356 -4.64392,-1.13857 z m 11.43119,-0.29034 c 0,-0.95259 0.4763,-1.42889 1.4289,-1.42889 1.3613,0 1.4289,-0.4763 1.4289,-10.06918 0,-9.46832 -0.0853,-10.09147 -1.4289,-10.44284 -0.79084,-0.20681 -1.4289,-0.97452 -1.4289,-1.71923 0,-1.11846 0.54267,-1.34557 3.21502,-1.34557 h 3.21502 v 11.49807 c 0,10.89722 0.0747,11.5176 1.4289,11.87174 0.79084,0.20681 1.4289,0.97452 1.4289,1.71923 0,1.17979 -0.57216,1.34558 -4.64392,1.34558 -4.16762,0 -4.64392,-0.14656 -4.64392,-1.42891 z m 11.43119,0 c 0,-0.79383 0.4763,-1.42889 1.07167,-1.42889 0.90333,0 1.07167,-1.62736 1.07167,-10.35951 0,-8.73216 -0.16834,-10.35952 -1.07167,-10.35952 -0.59537,0 -1.07167,-0.63507 -1.07167,-1.4289 0,-1.2172 0.4763,-1.42889 3.21502,-1.42889 h 3.21502 v 11.70508 c 0,11.10423 0.0734,11.72426 1.4289,12.07874 0.78589,0.20553 1.4289,0.88602 1.4289,1.51223 0,0.925 -0.87105,1.13856 -4.64392,1.13856 -4.16762,0 -4.64392,-0.14655 -4.64392,-1.4289 z m 10.71673,0.29034 c 0,-0.62621 0.64301,-1.3067 1.4289,-1.51223 1.28353,-0.33564 1.4289,-0.97452 1.4289,-6.27982 0,-5.30531 -0.14537,-5.94418 -1.4289,-6.27984 -0.78589,-0.20552 -1.4289,-0.88602 -1.4289,-1.51222 0,-0.88998 0.77995,-1.13856 3.57225,-1.13856 h 3.57225 v 7.41839 c 0,6.81753 0.11573,7.44865 1.42889,7.79205 0.7859,0.20552 1.4289,0.88602 1.4289,1.51222 0,0.93335 -0.9014,1.13857 -5.00114,1.13857 -4.09974,0 -5.00115,-0.20522 -5.00115,-1.13856 z m 31.43577,-0.29034 c 0,-0.79383 0.4763,-1.42889 1.07167,-1.42889 0.86855,0 1.07168,-1.15106 1.07168,-6.07282 0,-4.92177 -0.20313,-6.07283 -1.07168,-6.07283 -0.59537,0 -1.07167,-0.63506 -1.07167,-1.4289 0,-1.1926 0.4763,-1.42888 2.88021,-1.42888 1.93694,0 3.01879,0.36107 3.3033,1.1025 0.37519,0.97773 0.57317,0.96669 1.749,-0.0974 1.36634,-1.23653 6.17399,-1.64376 7.76885,-0.65809 1.6383,1.01253 2.87432,5.30825 2.87432,9.98955 0,3.67204 0.22845,4.66687 1.07167,4.66687 0.58942,0 1.07167,0.13446 1.07167,0.29879 0,0.16434 0.19515,0.80734 0.43367,1.4289 0.36055,0.9396 -0.18143,1.13011 -3.21502,1.13011 h -3.64869 v -6.11979 c 0,-7.11886 -0.68449,-8.89295 -3.41877,-8.86093 -3.57601,0.0419 -4.44017,1.39232 -4.44017,6.93861 0,4.41681 0.17111,5.06241 1.4289,5.39132 0.78589,0.20553 1.4289,0.88603 1.4289,1.51223 0,0.925 -0.87104,1.13857 -4.64392,1.13857 -4.16762,0 -4.64392,-0.14656 -4.64392,-1.4289 z m -61.63969,-20.10065 c -2.62965,-1.47162 -0.60119,-5.481468 2.30612,-4.55872 0.9386,0.2979 1.46318,1.07848 1.46318,2.17723 0,2.08241 -2.0215,3.35961 -3.7693,2.38149 z m 34.29356,0 c -1.74256,-0.97518 -1.59004,-3.98064 0.23135,-4.55872 1.74955,-0.55528 3.53795,0.74574 3.53795,2.5738 0,1.74421 -2.16355,2.88354 -3.7693,1.98492 z"
       style="fill:#6ebc44;stroke-width:0.71444917"
       sodipodi:nodetypes="cccscccccsssccccscccccssssccsccscccsssccccccscscscsssssscscssccscscsssssccsscsssccscssccccscccccccsccccsscscccscsssscsssssssscsscscssssssssscscsssscsssscscssssssssscccssscscscscssssccsccssc" />
  </g>
</svg>
