<?xml version="1.0" encoding="UTF-8" standalone="no"?>
<!-- Created with Inkscape (http://www.inkscape.org/) -->

<svg
   xmlns:dc="http://purl.org/dc/elements/1.1/"
   xmlns:cc="http://creativecommons.org/ns#"
   xmlns:rdf="http://www.w3.org/1999/02/22-rdf-syntax-ns#"
   xmlns:svg="http://www.w3.org/2000/svg"
   xmlns="http://www.w3.org/2000/svg"
   xmlns:sodipodi="http://sodipodi.sourceforge.net/DTD/sodipodi-0.dtd"
   xmlns:inkscape="http://www.inkscape.org/namespaces/inkscape"
   version="1.1"
   id="svg2"
   width="256"
   height="128"
   viewBox="0 0 256 128"
   sodipodi:docname="cityai.svg"
   inkscape:version="0.92.2 2405546, 2018-03-11">
  <metadata
     id="metadata8">
    <rdf:RDF>
      <cc:Work
         rdf:about="">
        <dc:format>image/svg+xml</dc:format>
        <dc:type
           rdf:resource="http://purl.org/dc/dcmitype/StillImage" />
        <dc:title></dc:title>
      </cc:Work>
    </rdf:RDF>
  </metadata>
  <defs
     id="defs6" />
  <sodipodi:namedview
     pagecolor="#ffffff"
     bordercolor="#666666"
     borderopacity="1"
     objecttolerance="10"
     gridtolerance="10"
     guidetolerance="10"
     inkscape:pageopacity="0"
     inkscape:pageshadow="2"
     inkscape:window-width="1364"
     inkscape:window-height="732"
     id="namedview4"
     showgrid="false"
     inkscape:zoom="2.1150628"
     inkscape:cx="100.10377"
     inkscape:cy="54.770845"
     inkscape:window-x="0"
     inkscape:window-y="35"
     inkscape:window-maximized="0"
     inkscape:current-layer="svg2" />
  <g
     id="g12"
     transform="matrix(1.7249595,0,0,1.7249595,-74.541724,19.801068)">
    <path
       style="fill:#e53e42;stroke-width:0.32498866"
       d="m 144.76655,34.823002 c 0.0111,-0.32172 1.59142,-4.53356 3.51196,-9.359641 l 3.4919,-8.774694 1.50484,-0.09822 c 1.21398,-0.07923 1.56951,0.0226 1.83938,0.526864 0.66184,1.236652 6.85625,17.289974 6.85625,17.768526 0,0.375928 -0.40861,0.489674 -1.75903,0.489674 h -1.75902 l -0.8693,-2.274921 -0.86929,-2.27492 h -3.2023 c -3.56186,0 -3.37722,-0.108885 -4.40891,2.599909 l -0.68079,1.787437 -1.83788,0.09746 c -1.59509,0.08459 -1.83523,0.02018 -1.81781,-0.487483 z m 10.66811,-6.892824 c 0.3712,-0.235073 0.25615,-0.838103 -0.64998,-3.406735 -0.60556,-1.716606 -1.24726,-3.072757 -1.426,-3.013669 -0.17874,0.05909 -0.82139,1.462997 -1.42811,3.119798 -0.90952,2.483679 -1.02359,3.062724 -0.64998,3.299302 0.58616,0.37116 3.56856,0.372096 4.15407,0.0013 z m 12.78727,-1.898087 0.0862,-9.343424 1.70619,-0.09823 1.70619,-0.09823 v 9.441655 9.441655 h -1.79242 -1.79242 z"
       id="path16"
       inkscape:connector-curvature="0"
       sodipodi:nodetypes="cscccsscccsccccccccscccccccccccc" />
    <path
       style="fill:#161616;stroke-width:0.32498866"
       d="M 45.19644,48.813193 C 45.074629,48.69138 44.974966,38.230496 44.974966,25.566779 V 2.5418405 l 9.505918,0.086156 9.505918,0.086156 V 4.5015901 6.2890277 L 56.674557,6.4515221 49.362313,6.6140164 V 25.625853 44.63769 l 7.474739,0.162494 7.474739,0.162494 v 1.949932 1.949932 l -9.446938,0.08606 c -5.195817,0.04733 -9.546602,-0.0136 -9.668413,-0.135413 z m 125.35889,-0.230762 c -0.0955,-0.24885 -0.12831,-1.165094 -0.0729,-2.036102 l 0.10069,-1.583651 7.29702,-0.08764 c 5.34011,-0.06414 7.36513,-0.19487 7.55101,-0.487483 0.39657,-0.6243 0.32673,-36.8864701 -0.0725,-37.6324104 -0.31729,-0.5928521 -0.75175,-0.6286122 -7.63723,-0.6286122 h -7.30081 V 4.1717654 2.2169975 l 9.66841,0.086083 9.66841,0.086083 V 25.625853 48.862542 l -9.51423,0.08617 c -7.88782,0.07144 -9.54391,0.0088 -9.68785,-0.366282 z M 66.50471,34.690944 c -1.826551,-0.904129 -4.118722,-3.496878 -4.762921,-5.387499 -0.284565,-0.835151 -0.517391,-2.503342 -0.517391,-3.70709 0,-1.835021 0.171024,-2.519007 1.058532,-4.23344 1.728236,-3.338506 4.215963,-4.831073 8.058588,-4.834932 2.077338,-0.0021 4.766606,1.154532 5.831172,2.507908 0.909406,1.156123 0.822429,1.556271 -0.518387,2.384942 l -1.16955,0.722822 -0.699134,-0.852527 c -0.763502,-0.931017 -2.685275,-1.844202 -3.857336,-1.832922 -1.527526,0.0147 -3.415971,1.188466 -4.254132,2.644163 -2.107261,3.659838 -0.932888,8.174088 2.597386,9.984261 1.597891,0.81933 3.859522,0.28213 5.508895,-1.308513 1.003488,-0.967757 1.034538,-0.974588 2.0479,-0.450558 1.449245,0.749433 1.560768,1.345941 0.469007,2.50855 -2.295034,2.443964 -6.856846,3.308021 -9.792629,1.854835 z m 17.615825,0.273721 c -0.08671,-0.225967 -0.118683,-4.430508 -0.07105,-9.343424 l 0.08661,-8.932576 h 1.462449 1.462449 l 0.08623,9.343424 0.08623,9.343424 h -1.477632 c -0.891155,0 -1.540206,-0.163067 -1.635291,-0.410848 z M 100.13,35.174147 c -0.12758,-0.127575 -0.231952,-3.541962 -0.231952,-7.587529 0,-5.287686 -0.109638,-7.465215 -0.389987,-7.745563 -0.241105,-0.241105 -1.426882,-0.389987 -3.106079,-0.389987 H 93.68589 l 0.09993,-1.381201 0.09993,-1.381202 h 7.63723 7.63723 v 1.299954 1.299955 l -2.65187,0.09392 c -1.66575,0.05899 -2.7813,0.249854 -2.99991,0.513259 -0.21903,0.263927 -0.38044,3.180045 -0.43551,7.868305 l -0.0875,7.448962 -1.31175,0.09654 c -0.72145,0.0531 -1.41612,-0.0078 -1.54369,-0.135409 z m 20.47398,-3.12e-4 c -0.12741,-0.127402 -0.23165,-1.669564 -0.23165,-3.427026 v -3.195386 l -3.23043,-5.750147 c -1.77674,-3.162581 -3.15743,-5.868263 -3.06821,-6.012626 0.2588,-0.418757 2.98569,-0.303312 3.39561,0.143756 0.20487,0.22343 1.27091,2.161175 2.36898,4.3061 1.09808,2.144925 2.14265,3.899864 2.32127,3.899864 0.17863,0 1.1742,-1.608694 2.21238,-3.574875 2.74769,-5.203753 2.60642,-5.037324 4.27593,-5.037324 0.78967,0 1.51615,0.13006 1.6144,0.289024 0.0982,0.158963 -1.24589,2.827932 -2.98697,5.931043 l -3.16559,5.642019 -0.16249,3.412381 -0.1625,3.41238 -1.47454,0.09623 c -0.81101,0.05293 -1.57879,-0.008 -1.70619,-0.135413 z m 15.92486,3.25e-4 c -0.12763,-0.127539 -0.23206,-0.938815 -0.23206,-1.802744 v -1.570778 h 1.31694 1.31693 l -0.0982,1.70619 c -0.0943,1.637205 -0.13812,1.710097 -1.08487,1.802839 -0.54266,0.05316 -1.09108,-0.0078 -1.21871,-0.13541 z"
       id="path14"
       inkscape:connector-curvature="0" />
  </g>
</svg>
