<?xml version="1.0" encoding="UTF-8" standalone="no"?>
<!-- Created with Inkscape (http://www.inkscape.org/) -->

<svg
   xmlns:dc="http://purl.org/dc/elements/1.1/"
   xmlns:cc="http://creativecommons.org/ns#"
   xmlns:rdf="http://www.w3.org/1999/02/22-rdf-syntax-ns#"
   xmlns:svg="http://www.w3.org/2000/svg"
   xmlns="http://www.w3.org/2000/svg"
   xmlns:sodipodi="http://sodipodi.sourceforge.net/DTD/sodipodi-0.dtd"
   xmlns:inkscape="http://www.inkscape.org/namespaces/inkscape"
   version="1.1"
   id="svg2"
   width="256"
   height="256"
   viewBox="0 0 256 256"
   sodipodi:docname="franceai.svg"
   inkscape:version="0.92.2 2405546, 2018-03-11">
  <metadata
     id="metadata8">
    <rdf:RDF>
      <cc:Work
         rdf:about="">
        <dc:format>image/svg+xml</dc:format>
        <dc:type
           rdf:resource="http://purl.org/dc/dcmitype/StillImage" />
        <dc:title></dc:title>
      </cc:Work>
    </rdf:RDF>
  </metadata>
  <defs
     id="defs6" />
  <sodipodi:namedview
     pagecolor="#ffffff"
     bordercolor="#666666"
     borderopacity="1"
     objecttolerance="10"
     gridtolerance="10"
     guidetolerance="10"
     inkscape:pageopacity="0"
     inkscape:pageshadow="2"
     inkscape:window-width="1364"
     inkscape:window-height="732"
     id="namedview4"
     showgrid="false"
     inkscape:zoom="1.0301814"
     inkscape:cx="41.954111"
     inkscape:cy="138.35637"
     inkscape:window-x="0"
     inkscape:window-y="35"
     inkscape:window-maximized="0"
     inkscape:current-layer="svg2" />
  <path
     style="fill:#353434;stroke-width:0.57059562"
     d="m 205.79178,147.19741 c -0.2495,-0.31716 2.53034,-8.66485 6.1774,-18.55042 l 6.63104,-17.97376 h 3.38303 3.38304 l 6.67486,17.97376 c 5.13259,13.82081 6.51177,18.10665 5.96903,18.54885 -0.39875,0.32488 -2.26123,0.44901 -4.28091,0.2853 -3.55079,-0.28781 -3.58139,-0.30535 -4.50201,-2.58054 -1.52288,-3.76356 -1.39976,-3.7005 -7.22399,-3.7005 -5.87308,0 -6.48763,0.34299 -7.42179,4.14221 -0.21293,0.86599 -0.61785,1.71711 -0.89982,1.89137 -0.93772,0.57955 -7.42891,0.5497 -7.88988,-0.0363 z m 7.94508,-3.42996 c 1.45053,-3.80946 1.22502,-3.70854 8.28693,-3.70854 7.06191,0 6.8364,-0.10092 8.28693,3.70854 0.82732,2.17276 0.9991,2.29109 3.56622,2.45663 1.95217,0.12588 2.69704,-0.0359 2.69704,-0.58573 0,-0.4178 -2.08061,-6.40173 -4.62357,-13.29761 -2.54297,-6.89589 -5.14659,-14.07859 -5.78584,-15.96155 -0.63923,-1.88297 -1.41451,-3.74453 -1.72284,-4.13682 -0.72595,-0.92364 -4.11174,-0.92364 -4.82976,0 -0.74345,0.95633 -12.13837,32.22035 -12.13837,33.30379 0,0.65976 0.60814,0.81261 2.69704,0.67792 2.56712,-0.16554 2.7389,-0.28387 3.56622,-2.45663 z m 3.69029,-9.00651 c -0.38241,-0.99655 3.85958,-13.1174 4.68257,-13.37972 0.653,-0.20813 4.76413,11.10963 4.76413,13.11545 0,0.86677 -0.60049,0.99747 -4.58267,0.99747 -3.20632,0 -4.66718,-0.22021 -4.86403,-0.7332 z m 7.14461,-0.95432 c 0.72102,-0.45604 0.6561,-1.08803 -0.47149,-4.58907 -0.73419,-2.27959 -1.58605,-3.9674 -1.94243,-3.84861 -0.34912,0.11637 -1.2718,1.95071 -2.0504,4.07632 -1.19175,3.25349 -1.28752,3.94582 -0.60554,4.37747 1.0548,0.66763 4.00362,0.65826 5.06986,-0.0161 z m 18.27244,13.76513 c -0.35644,-0.12014 -0.56427,-7.00287 -0.56427,-18.68701 v -18.4968 h 3.93313 c 3.06012,0 4.00999,0.20033 4.27946,0.90256 0.53709,1.39962 0.39091,34.66179 -0.15612,35.52486 -0.44302,0.69897 -5.99861,1.25985 -7.4922,0.75639 z m 5.99758,-18.63946 v -17.11786 h -2.56768 -2.56768 l -0.15162,16.54032 c -0.0834,9.09718 -0.0216,16.87929 0.13743,17.29359 0.19272,0.50222 1.09894,0.69469 2.7193,0.57754 l 2.43025,-0.17572 z M 44.853847,146.83717 c -3.114544,-1.23829 -6.222008,-5.38287 -7.105638,-9.47716 -0.688002,-3.18785 0.680098,-7.97387 3.020898,-10.56803 3.542349,-3.92575 8.03393,-4.91448 12.343713,-2.71723 2.020005,1.02986 2.313656,1.05232 3.205549,0.24517 0.592797,-0.53647 1.737777,-0.81613 2.889644,-0.70577 l 1.90781,0.18278 v 11.41191 11.41192 l -2.045922,0.1715 c -1.284959,0.10771 -2.305715,-0.14152 -2.744388,-0.6701 -0.611605,-0.73694 -0.995798,-0.70661 -3.089439,0.24392 -2.589392,1.17559 -6.112266,1.37359 -8.382227,0.47109 z m 8.585119,-5.22727 c 1.96896,-1.55158 2.826794,-3.54993 2.826794,-6.58507 0,-2.72873 -0.214744,-3.28313 -1.940025,-5.00841 -1.653227,-1.65322 -2.334535,-1.94002 -4.608656,-1.94002 -2.173039,0 -2.970583,0.30195 -4.294565,1.62593 -2.996836,2.99683 -2.800066,8.96736 0.377912,11.46716 1.69553,1.33371 6.177057,1.59209 7.63854,0.44041 z m 48.838064,5.03094 c -4.606351,-1.64212 -7.789624,-6.25861 -7.768831,-11.26661 0.03218,-7.74861 6.400341,-13.18421 14.343971,-12.2434 3.70482,0.43877 5.04375,1.6147 5.04375,4.42974 0,2.73945 -0.72105,3.17509 -2.8023,1.6931 -2.42739,-1.72844 -6.30952,-1.59862 -8.54914,0.2859 -3.437885,2.89278 -3.440778,8.44333 -0.006,11.33358 2.27263,1.9123 6.12354,2.02226 8.61794,0.24609 1.41436,-1.00712 1.80466,-1.08239 2.21907,-0.42795 0.67001,1.05806 0.65182,3.19115 -0.0382,4.48047 -1.18138,2.20742 -6.86977,2.96297 -11.06034,1.46908 z m 22.1513,-0.23672 c -4.17849,-1.89802 -6.53188,-5.93159 -6.53188,-11.19528 0,-7.18505 4.71183,-12.24274 11.40555,-12.24274 6.10338,0 10.52646,4.27321 10.54565,10.18833 l 0.0104,3.1956 -7.69199,0.16014 c -4.2306,0.0881 -7.91139,0.37952 -8.17955,0.64767 -0.64944,0.64944 1.04592,3.8547 2.43094,4.59594 2.22769,1.19223 5.56849,0.70109 7.64747,-1.12428 2.26979,-1.9929 3.17876,-2.10925 4.99412,-0.63926 l 1.32451,1.07252 -1.53108,2.00734 c -3.1161,4.08543 -9.51418,5.56429 -14.42411,3.33402 z m 9.74984,-14.94638 c 0.20831,-0.33707 -0.20644,-1.23575 -0.92168,-1.99709 -1.85025,-1.96949 -5.72711,-1.94588 -7.72001,0.047 -0.7872,0.7872 -1.27392,1.68589 -1.08159,1.99708 0.4769,0.77164 9.24352,0.72924 9.72328,-0.047 z m 40.89597,15.06996 c -1.02992,-0.50763 -2.42276,-1.69561 -3.0952,-2.63997 l -1.22262,-1.71701 1.30398,-1.0559 c 1.69728,-1.37438 3.59545,-1.34125 4.88644,0.0853 1.21081,1.33794 3.27971,1.48993 4.25671,0.31271 1.23153,-1.4839 0.36275,-2.80129 -3.11901,-4.72955 -4.41708,-2.44627 -5.98777,-4.22212 -5.98777,-6.76993 0,-4.35943 2.9208,-7.07229 7.61436,-7.07229 2.01062,0 2.90263,0.34279 4.3078,1.65541 2.15041,2.00879 2.19991,2.60276 0.31956,3.83481 -1.26978,0.83199 -1.73868,0.85735 -3.72601,0.20147 -1.68711,-0.55679 -2.43935,-0.58437 -2.91682,-0.1069 -0.94788,0.94788 0.30811,2.20057 4.15178,4.14084 4.53223,2.28787 5.83852,4.07921 5.50821,7.55351 -0.54149,5.6955 -6.8988,8.96051 -12.28141,6.30752 z M 6.4109257,146.03277 c -0.1966672,-0.51251 -0.3575809,-4.47415 -0.3575809,-8.80364 0,-6.30106 -0.1707849,-8.01354 -0.8558934,-8.58214 -1.1057344,-0.91767 -1.1057344,-4.21767 0,-5.13536 0.6414807,-0.53238 0.8639617,-2.01502 0.8880979,-5.91847 0.017688,-2.86448 0.338677,-6.09793 0.7132445,-7.18547 1.2310943,-3.57434 6.3511002,-5.71269 9.5627832,-3.99385 0.814058,0.43567 1.103681,1.201 1.103681,2.91648 v 2.32581 L 15.524262,111.292 c -3.217999,-0.6037 -3.836342,0.53656 -3.642911,6.71769 l 0.163248,5.21664 2.56768,0.2853 2.567681,0.2853 v 2.28238 2.28239 l -2.567681,0.28529 -2.56768,0.2853 -0.285298,8.84423 -0.285298,8.84424 -2.3527481,0.17192 c -1.7590093,0.12854 -2.442988,-0.0632 -2.7103292,-0.75991 z m 14.7455663,0.17719 c -0.16157,-0.42105 -0.223696,-5.63622 -0.138061,-11.58928 l 0.155698,-10.82375 1.66178,-0.18948 c 0.913974,-0.10422 2.230532,0.11489 2.925678,0.48693 1.031825,0.55221 1.540893,0.49492 2.772381,-0.31198 1.079693,-0.70744 2.173467,-0.8992 3.847909,-0.67461 3.336472,0.44752 3.820126,1.13992 2.503716,3.58434 -1.015917,1.88644 -1.225143,1.99569 -3.187227,1.6642 -1.719912,-0.29058 -2.39742,-0.0989 -3.743763,1.05918 -1.632863,1.40452 -1.64573,1.4666 -1.929766,9.3096 l -0.285943,7.89565 -2.144321,0.17737 c -1.401594,0.11593 -2.246064,-0.0878 -2.438081,-0.58817 z m 47.449359,-0.17719 c -0.459398,-1.19717 -0.469389,-20.42464 -0.01124,-21.61858 0.409442,-1.06699 3.707753,-1.23114 5.259962,-0.26177 0.790879,0.49391 1.436526,0.42852 2.816899,-0.2853 3.698464,-1.91255 8.501259,-0.64039 10.79426,2.85916 0.822628,1.2555 1.062323,3.08358 1.236657,9.43168 0.118941,4.33088 0.05038,8.53527 -0.152389,9.34309 -0.332948,1.32659 -0.601579,1.45188 -2.774795,1.29425 l -2.40615,-0.17454 -0.285298,-8.3306 c -0.328041,-9.57871 -0.592969,-10.21376 -4.2609,-10.21376 -4.073853,0 -4.533502,0.98862 -4.86863,10.47151 l -0.285298,8.07285 -2.352748,0.17192 c -1.759009,0.12854 -2.442988,-0.0632 -2.71033,-0.75991 z m 91.888709,0.49289 c -0.20922,-0.20922 -0.3804,-5.48703 -0.3804,-11.72847 v -11.34808 l 2.71033,0.17391 2.71033,0.17391 0.1555,10.76738 c 0.10771,7.45884 -0.0452,11.00926 -0.49782,11.55456 -0.66746,0.80424 -4.01097,1.09375 -4.69794,0.40679 z m 0.0801,-30.28912 c -1.50718,-1.755 -1.66961,-2.37274 -0.97209,-3.69708 0.89042,-1.69057 1.60653,-2.13217 3.47484,-2.14278 1.64438,-0.009 3.31328,1.77465 3.31328,3.54179 0,1.43902 -2.04007,3.29661 -3.62044,3.29661 -0.73593,0 -1.72394,-0.44934 -2.19559,-0.99854 z"
     id="path12"
     inkscape:connector-curvature="0" />
</svg>
