<?xml version="1.0" encoding="UTF-8" standalone="no"?>
<!-- Created with Inkscape (http://www.inkscape.org/) -->

<svg
   xmlns:dc="http://purl.org/dc/elements/1.1/"
   xmlns:cc="http://creativecommons.org/ns#"
   xmlns:rdf="http://www.w3.org/1999/02/22-rdf-syntax-ns#"
   xmlns:svg="http://www.w3.org/2000/svg"
   xmlns="http://www.w3.org/2000/svg"
   xmlns:sodipodi="http://sodipodi.sourceforge.net/DTD/sodipodi-0.dtd"
   xmlns:inkscape="http://www.inkscape.org/namespaces/inkscape"
   version="1.1"
   id="svg2"
   width="256"
   height="128"
   viewBox="0 0 256 128"
   sodipodi:docname="frenchweb.svg"
   inkscape:version="0.92.2 2405546, 2018-03-11">
  <metadata
     id="metadata8">
    <rdf:RDF>
      <cc:Work
         rdf:about="">
        <dc:format>image/svg+xml</dc:format>
        <dc:type
           rdf:resource="http://purl.org/dc/dcmitype/StillImage" />
        <dc:title></dc:title>
      </cc:Work>
    </rdf:RDF>
  </metadata>
  <defs
     id="defs6" />
  <sodipodi:namedview
     pagecolor="#ffffff"
     bordercolor="#666666"
     borderopacity="1"
     objecttolerance="10"
     gridtolerance="10"
     guidetolerance="10"
     inkscape:pageopacity="0"
     inkscape:pageshadow="2"
     inkscape:window-width="1364"
     inkscape:window-height="732"
     id="namedview4"
     showgrid="false"
     inkscape:zoom="2.3754762"
     inkscape:cx="285.69847"
     inkscape:cy="75.907224"
     inkscape:window-x="0"
     inkscape:window-y="35"
     inkscape:window-maximized="0"
     inkscape:current-layer="svg2" />
  <path
     style="fill:#020202;stroke-width:0.48717669"
     d="m 112.38815,126.53028 c -1.60581,-0.38639 -3.62085,-2.63516 -3.95438,-4.41303 -0.4226,-2.25259 0.53395,-5.19987 2.08309,-6.41843 1.86166,-1.46437 5.20194,-1.36793 6.7652,0.19531 1.47461,1.47462 1.50448,2.02008 0.13028,2.37944 -0.72719,0.19016 -1.27741,-0.0239 -1.73275,-0.67394 -0.78428,-1.1197 -2.47456,-1.23562 -3.80731,-0.26109 -1.14617,0.8381 -1.33051,5.02833 -0.27704,6.29769 0.93969,1.13226 3.32178,1.03357 4.07262,-0.16871 0.64151,-1.02723 2.06211,-1.30315 2.56019,-0.49725 0.5192,0.84009 -0.75154,2.50695 -2.45324,3.21795 -1.71767,0.7177 -1.79364,0.72537 -3.38666,0.34206 z m -43.115141,-6.00552 v -5.86583 l 4.013819,0.14149 c 3.368579,0.11875 4.040005,0.27855 4.176722,0.99406 0.140681,0.73625 -0.240714,0.85256 -2.795877,0.85256 h -2.958781 v 1.46153 c 0,1.42905 0.05414,1.46153 2.435884,1.46153 2.111097,0 2.435883,0.12991 2.435883,0.97435 0,0.84444 -0.324786,0.97435 -2.435883,0.97435 h -2.435884 v 2.43589 c 0,2.27349 -0.0812,2.43588 -1.217941,2.43588 h -1.217942 z m 8.76918,0.0197 v -5.84612 h 3.675967 c 3.29081,0 3.806155,0.13018 4.918428,1.24245 0.970613,0.97061 1.170384,1.52964 0.913043,2.55496 -0.406734,1.62057 -1.134055,2.53588 -2.015041,2.53588 -0.421398,0 0.0077,0.94469 1.155798,2.54404 l 1.826103,2.54402 0.137252,-5.71067 0.137258,-5.71068 h 4.125538 c 3.767147,0 4.125543,0.0826 4.125543,0.95111 0,0.82597 -0.399021,0.97019 -3.03304,1.09615 -2.871784,0.13732 -3.033045,0.20979 -3.033045,1.36297 0,1.15459 0.159405,1.22553 3.064133,1.3638 2.577642,0.12269 3.039163,0.27738 2.906875,0.97435 -0.120654,0.63566 -0.836613,0.8852 -3.075945,1.0721 -2.794217,0.23319 -2.919504,0.30071 -2.93789,1.58331 -0.0191,1.33187 2.29e-4,1.33974 3.288442,1.33974 2.982862,0 3.307647,0.0957 3.307647,0.97436 0,0.92147 -0.324785,0.97434 -5.984668,0.97434 h -5.984673 l -0.903099,-1.52882 c -1.20108,-2.03329 -2.551904,-3.34296 -3.447978,-3.34296 -0.552132,0 -0.730765,0.59543 -0.730765,2.43588 0,2.27349 -0.0812,2.43588 -1.217942,2.43588 h -1.217941 z m 7.020342,-1.76687 c 0.478847,-1.24784 -0.637885,-2.13054 -2.695407,-2.13054 -1.774161,0 -1.889052,0.0889 -1.889052,1.46152 0,1.40213 0.08699,1.46153 2.140172,1.46153 1.52707,0 2.227294,-0.22703 2.444287,-0.79251 z m 12.953901,1.73451 v -5.87848 l 1.306277,0.15416 c 1.035031,0.12213 1.768471,0.90604 3.532031,3.77511 l 2.22576,3.62097 0.14284,-3.77388 c 0.13174,-3.48033 0.21979,-3.76199 1.13203,-3.62097 0.92352,0.14277 0.99487,0.53284 1.07509,5.87733 l 0.086,5.72443 -1.21794,-0.001 c -0.99471,-0.001 -1.64181,-0.69331 -3.53047,-3.77572 l -2.31252,-3.77416 -0.001,3.77562 c -0.001,3.70211 -0.0253,3.7756 -1.219511,3.7756 h -1.217943 z m 21.435768,0.0324 v -5.84612 h 1.21795 c 1.13674,0 1.21794,0.16238 1.21794,2.43588 v 2.43589 h 2.19229 2.1923 v -2.43589 -2.43588 h 2.42661 c 2.11591,0 2.45933,0.14033 2.6823,1.09615 0.14063,0.60287 0.53991,2.3856 0.88729,3.96161 l 0.63158,2.86547 0.54913,-1.89112 c 0.30202,-1.04011 0.79228,-2.82284 1.08948,-3.96161 0.47777,-1.83072 0.70262,-2.0705 1.94155,-2.0705 1.34215,0 1.43745,0.15372 2.26109,3.64744 0.47294,2.0061 0.98489,3.52684 1.13769,3.3794 0.1528,-0.14742 0.61096,-1.73397 1.01815,-3.52565 l 0.74034,-3.2576 5.47117,-0.13776 c 5.22094,-0.13144 5.47115,-0.0924 5.47115,0.85258 0,0.89508 -0.3076,0.9903 -3.199,0.9903 h -3.19901 l 0.15416,1.33974 c 0.14825,1.28838 0.26156,1.33974 2.95631,1.33974 2.58142,0 2.80209,0.0863 2.80127,1.09614 -9.8e-4,1.01486 -0.21768,1.09615 -2.92396,1.09615 h -2.92305 v 1.46153 1.46153 h 3.41023 c 3.08545,0 3.41024,0.0928 3.41024,0.97435 0,0.9066 -0.32479,0.97434 -4.67129,0.97434 h -4.67128 l 0.1649,-5.31959 c 0.0907,-2.92577 0.10135,-5.25551 0.0237,-5.17719 -0.0777,0.0784 -0.70037,2.47217 -1.38385,5.31961 -1.20079,5.00272 -1.28726,5.17717 -2.56618,5.17717 -1.23592,0 -1.38274,-0.23376 -2.21832,-3.53201 -1.2008,-4.73983 -1.52324,-5.26816 -1.92106,-3.14763 -0.17865,0.95226 -0.65941,2.85811 -1.06837,4.23521 -0.67659,2.27832 -0.86086,2.49017 -2.04613,2.35233 -1.23111,-0.14317 -1.37367,-0.4455 -2.59835,-5.51041 l -1.29578,-5.35895 -0.0534,5.48074 -0.0535,5.48072 h -1.21794 c -1.13674,0 -1.21794,-0.16238 -1.21794,-2.43587 v -2.43593 h -2.19231 -2.19229 v 2.43588 c 0,2.27349 -0.0812,2.43588 -1.21794,2.43588 h -1.21794 v -5.84611 z m 34.10238,0 v -5.84612 h 3.65382 c 3.00425,0 3.82705,0.17322 4.62818,0.97435 1.15669,1.1567 1.26938,3.04608 0.23295,3.90624 -0.65482,0.54345 -0.62637,0.69587 0.24359,1.30521 0.65882,0.46147 0.98499,1.23627 0.98499,2.3398 0,2.45269 -1.34251,3.16663 -5.95453,3.16663 h -3.789 v -5.8461 z m 7.06406,2.43588 c 0,-1.10736 -0.21012,-1.23142 -2.31409,-1.36642 -2.29639,-0.14736 -2.31409,-0.13691 -2.31409,1.36642 0,1.50333 0.0177,1.51378 2.31409,1.36642 2.10397,-0.135 2.31409,-0.25906 2.31409,-1.36642 z m -0.80463,-3.84146 c 0.3613,-0.22897 0.57864,-0.82849 0.48297,-1.33228 -0.13185,-0.6944 -0.67376,-0.9522 -2.24022,-1.06578 -2.01241,-0.1459 -2.0663,-0.11096 -2.0663,1.33974 0,1.35725 0.14061,1.48888 1.58332,1.48208 0.87083,-0.004 1.87894,-0.1948 2.24023,-0.42376 z m 4.45845,6.27735 c 0,-0.69017 0.32479,-0.97435 1.11354,-0.97435 0.78877,0 1.11356,0.28418 1.11356,0.97435 0,0.69017 -0.32479,0.97434 -1.11356,0.97434 -0.78875,0 -1.11354,-0.28417 -1.11354,-0.97434 z m 3.41023,-4.87176 v -5.84612 h 3.89742 c 3.57263,0 3.89741,0.0812 3.89741,0.97435 0,0.85625 -0.32478,0.97435 -2.67947,0.97435 -2.6524,0 -2.67947,0.0148 -2.67947,1.46153 0,1.42906 0.0541,1.46154 2.43588,1.46154 2.1111,0 2.43588,0.12991 2.43588,0.97435 0,0.84444 -0.32478,0.97435 -2.43588,0.97435 h -2.43588 v 2.43588 c 0,2.27349 -0.0812,2.43587 -1.21794,2.43587 h -1.21795 z m 8.76918,-0.0516 v -5.89768 l 3.94077,0.17896 c 3.2006,0.14535 4.06988,0.35553 4.62818,1.11905 1.33165,1.82114 0.6172,4.56153 -1.37439,5.27171 -0.44226,0.15772 -0.32469,0.55053 0.414,1.38324 0.56743,0.63964 1.41475,1.76586 1.88294,2.50272 l 0.85128,1.33972 h -1.39668 c -1.10101,0 -1.75927,-0.48985 -3.10956,-2.31408 -1.02373,-1.38304 -2.09487,-2.31409 -2.66228,-2.31409 -0.82779,0 -0.93116,0.29639 -0.80708,2.31409 0.13519,2.1985 0.0797,2.31408 -1.11244,2.31408 h -1.25474 z m 6.73031,-2.24527 c 0.11437,-0.80443 -0.1519,-1.15556 -1.04659,-1.38012 -2.24737,-0.56406 -3.40552,-0.10146 -3.46816,1.3853 -0.0556,1.31946 0.0119,1.35764 2.15196,1.21794 1.85626,-0.12116 2.23389,-0.31664 2.36279,-1.22312 z m -59.34538,-8.49007 c -1.77563,-0.48773 -2.85093,-1.54289 -28.299454,-27.769444 l -11.176393,-11.51809 5.73159,-5.950468 5.731594,-5.950463 15.814773,16.382124 15.81476,16.382128 4.80297,-4.759697 c 2.64163,-2.617829 5.21629,-5.328114 5.72145,-6.022852 l 0.91848,-1.263161 -10.04559,-10.346781 -10.04558,-10.346774 5.84643,-5.846432 5.84643,-5.846432 9.91868,10.279233 c 5.45527,5.653577 10.07216,10.220503 10.25973,10.148719 0.18758,-0.07178 2.81065,-2.721155 5.82902,-5.887501 l 5.48797,-5.756992 -3.85552,-3.986541 c -2.12054,-2.192598 -5.46506,-5.656794 -7.43227,-7.698215 l -3.57676,-3.711674 5.77041,-5.931663 5.7704,-5.931662 10.34221,10.730476 c 6.16489,6.396326 10.64153,11.446862 11.08327,12.504099 0.40759,0.975489 0.74107,2.653135 0.74107,3.728101 0,4.726913 -0.0541,4.796112 -18.74355,23.98583 -29.35582,30.141542 -29.01509,29.809442 -31.19206,30.403332 -2.31216,0.63076 -4.72167,0.62421 -7.06406,-0.0192 z M 78.557763,64.702975 c -3.130558,-3.423019 -4.391591,-5.993855 -4.391591,-8.953021 0,-3.96972 1.361791,-5.899558 11.319419,-16.041166 C 90.635038,34.464203 99.562006,25.350131 105.3233,19.455293 121.21694,3.1932543 121.79585,2.6365184 123.5932,1.8855399 c 2.38347,-0.99587645 6.01867,-0.8789395 8.26407,0.2658383 1.76283,0.8987387 23.40242,22.5780118 23.40242,23.4453278 0,0.209461 -2.51777,2.93275 -5.59504,6.051746 l -5.59506,5.670903 -8.29582,-8.627509 -8.29581,-8.627509 -5.75758,5.97185 -5.75758,5.97185 2.34974,2.492808 c 1.29235,1.371044 3.88277,4.084388 5.7565,6.029655 l 3.40677,3.536846 -5.71441,5.714407 -5.7144,5.714402 -5.7854,-5.77033 -5.78541,-5.77033 -11.649875,11.805397 -11.649884,11.805391 z"
     id="path12"
     inkscape:connector-curvature="0" />
</svg>
