<?xml version="1.0" encoding="UTF-8" standalone="no"?>
<!-- Created with Inkscape (http://www.inkscape.org/) -->

<svg
   xmlns:dc="http://purl.org/dc/elements/1.1/"
   xmlns:cc="http://creativecommons.org/ns#"
   xmlns:rdf="http://www.w3.org/1999/02/22-rdf-syntax-ns#"
   xmlns:svg="http://www.w3.org/2000/svg"
   xmlns="http://www.w3.org/2000/svg"
   xmlns:sodipodi="http://sodipodi.sourceforge.net/DTD/sodipodi-0.dtd"
   xmlns:inkscape="http://www.inkscape.org/namespaces/inkscape"
   version="1.1"
   id="svg2"
   width="256"
   height="128"
   viewBox="0 0 256 128"
   sodipodi:docname="google.svg"
   inkscape:version="0.92.2 2405546, 2018-03-11">
  <metadata
     id="metadata8">
    <rdf:RDF>
      <cc:Work
         rdf:about="">
        <dc:format>image/svg+xml</dc:format>
        <dc:type
           rdf:resource="http://purl.org/dc/dcmitype/StillImage" />
        <dc:title></dc:title>
      </cc:Work>
    </rdf:RDF>
  </metadata>
  <defs
     id="defs6" />
  <sodipodi:namedview
     pagecolor="#ffffff"
     bordercolor="#666666"
     borderopacity="1"
     objecttolerance="10"
     gridtolerance="10"
     guidetolerance="10"
     inkscape:pageopacity="0"
     inkscape:pageshadow="2"
     inkscape:window-width="1364"
     inkscape:window-height="732"
     id="namedview4"
     showgrid="false"
     inkscape:zoom="1.668772"
     inkscape:cx="143.59454"
     inkscape:cy="107.94287"
     inkscape:window-x="0"
     inkscape:window-y="35"
     inkscape:window-maximized="0"
     inkscape:current-layer="svg2" />
  <g
     id="g835"
     transform="matrix(0.78368558,0,0,0.78368558,-30.332082,-94.241711)">
    <path
       style="fill:#fdbb03"
       d="M 195.45913,210.63313 C 186.31517,206.37514 181.0519,197.75354 181.03173,187 181.00293,171.64588 191.58817,161.06064 207,161.03173 c 14.39544,-0.027 24.61997,9.27607 25.74312,23.42308 0.60686,7.64397 -0.91863,13.30873 -5.03862,18.7104 -7.17305,9.4045 -21.14008,12.63922 -32.24537,7.46792 z m 19.45429,-10.41442 c 8.98368,-6.69551 8.53652,-20.62938 -0.86537,-26.96531 -10.96955,-7.39238 -25.26693,5.18095 -21.00927,18.47587 3.16799,9.89234 14.23134,14.18597 21.87464,8.48944 z M 352.87244,167.25 c -1.24387,-1.58606 -1.2085,-1.62143 0.37756,-0.37756 0.9625,0.75485 1.75,1.54235 1.75,1.75 0,0.82304 -0.82119,0.29331 -2.12756,-1.37244 z"
       id="path845"
       inkscape:connector-curvature="0" />
    <path
       style="fill:#4279f7"
       d="M 252.01828,234.30309 C 247.26588,231.79884 240,224.43376 240,222.12073 c 0,-0.39809 2.24794,-1.67352 4.99542,-2.8343 l 4.99543,-2.11051 1.73273,2.93328 c 2.42077,4.09805 9.13046,7.19641 13.71977,6.33545 C 272.33354,225.15204 277,219.15392 277,211.5901 v -3.47414 l -4.25,2.42997 c -5.93141,3.39134 -13.57811,3.34069 -20.55523,-0.13616 -18.49573,-9.21682 -19.00569,-35.88477 -0.88856,-46.4673 4.66,-2.72199 5.91367,-3.00268 12.1982,-2.7311 5.38869,0.23287 7.75308,0.83579 10.25,2.61376 C 276.9573,166.10578 277,166.10898 277,164.06809 277,162.2254 277.60568,162 282.55712,162 h 5.55712 l -0.30712,28.25 -0.30712,28.25 -3,6 c -4.10394,8.20788 -9.61472,11.62309 -19.76131,12.24674 -6.51738,0.40059 -7.78492,0.15709 -12.72041,-2.44365 z m 19.85701,-34.21429 c 6.11495,-4.35423 7.67421,-15.36736 3.2141,-22.70141 C 273.0302,174.00132 267.60767,171 263.54921,171 c -8.75227,0 -16.05746,10.68509 -13.58436,19.86945 2.87008,10.65868 13.56765,15.15994 21.91044,9.21935 z M 68.328848,211.12128 C 57.818652,207.22565 49.3487,199.46643 44.221985,189.03727 41.758944,184.02676 41.5,182.45156 41.5,172.47897 c 0,-10.40167 0.181721,-11.39015 3.233628,-17.58946 5.845709,-11.87432 17.397889,-20.50284 30.75605,-22.97223 10.34119,-1.91168 22.928589,1.23618 30.113112,7.53068 l 3.89721,3.41443 -3.75708,3.80922 c -3.23791,3.28284 -3.99793,3.63491 -5.5,2.54778 -5.38871,-3.90011 -11.987568,-6.20025 -17.814781,-6.20962 -16.399977,-0.0264 -28.176164,11.03746 -29.188681,27.42306 -0.76386,12.36159 4.538974,22.35918 14.904989,28.10079 C 72.903175,201.16943 74.447244,201.5 82,201.5 c 7.661807,0 9.04236,-0.30629 14,-3.10608 5.8891,-3.32582 10.44177,-9.26622 11.60616,-15.14392 L 108.25,180 H 95.125 82 v -5.5 -5.5 h 18.45469 18.45468 l 0.65213,3.47613 c 0.89633,4.77783 -1.17974,15.837 -4.02821,21.45817 -3.20201,6.31887 -9.54855,12.43682 -16.357091,15.76792 -7.582158,3.70961 -22.781173,4.4088 -30.847351,1.41906 z"
       id="path843"
       inkscape:connector-curvature="0" />
    <path
       style="fill:#747474"
       d="m 200.22395,261.76261 c 0.24618,-13.5886 0.46541,-15.27374 2.02605,-15.57332 1.08833,-0.20892 1.75,0.28037 1.75,1.29409 0,1.48471 0.19814,1.49125 2.22251,0.0733 4.52472,-3.16924 10.67921,-1.58122 13.26714,3.42328 2.54998,4.93112 1.97047,10.71375 -1.41273,14.09694 -3.39879,3.3988 -9.22701,4.00221 -12.24818,1.26809 -1.75283,-1.58629 -1.82874,-1.39951 -1.82874,4.5 0,5.5147 -0.21077,6.15499 -2.02605,6.15499 -1.95816,0 -2.01679,-0.51054 -1.75,-15.23739 z m 14.14119,1.16481 c 3.33493,-2.62326 3.68895,-8.66351 0.668,-11.39743 -6.8285,-6.17971 -15.12304,4.47102 -8.57859,11.01546 2.9947,2.99471 4.49683,3.06724 7.91059,0.38197 z M 46,259 c 0,-8.33333 -0.148148,-9 -2,-9 -1.333333,0 -2,-0.66667 -2,-2 0,-1.33333 0.666667,-2 2,-2 1.414561,0 2,-0.66667 2,-2.27749 C 46,239.79533 48.726388,237 52.556704,237 54.950745,237 56,237.45709 56,238.5 c 0,0.825 -0.81,1.5 -1.8,1.5 -2.30387,0 -4.2,1.89613 -4.2,4.2 0,1.25333 0.759259,1.8 2.5,1.8 1.833333,0 2.5,0.53333 2.5,2 0,1.46667 -0.666667,2 -2.5,2 -2.481481,0 -2.5,0.0667 -2.5,9 0,8.33333 -0.148148,9 -2,9 -1.851852,0 -2,-0.66667 -2,-9 z m 15.116873,7.36931 C 57.442154,263.79543 55.737809,258.68742 56.995408,254.01705 58.362496,248.94008 62.117586,246 67.234859,246 c 7.865887,0 13.295965,9.18271 9.648101,16.31574 -2.801014,5.4771 -10.79818,7.53322 -15.766087,4.05357 z m 10.428582,-3.82386 c 5.715936,-5.71593 0.702355,-14.92221 -6.717735,-12.33555 -5.268896,1.83675 -5.62771,11.12776 -0.524959,13.59315 3.356056,1.62147 4.575341,1.40976 7.242694,-1.2576 z m 9.670713,-5.28359 c 0.24579,-9.29892 0.518384,-10.78307 2.033832,-11.07333 1.088018,-0.20839 1.75,0.28142 1.75,1.29485 0,1.48471 0.198138,1.49125 2.222506,0.0733 3.02133,-2.11622 7.199879,-2.0998 6.384483,0.0251 C 93.273145,248.45177 93,249.35177 93,249.58179 93,249.8118 91.900517,250 90.556704,250 86.719682,250 85,253.47313 85,261.22251 85,267.37091 84.81122,268 82.966168,268 c -1.936462,0 -2.020243,-0.51409 -1.75,-10.73814 z M 105,252.5 V 237 h 9 c 7.33333,0 9,0.27778 9,1.5 0,1.19048 -1.44444,1.5 -7,1.5 h -7 v 4.95228 4.95229 l 6.23996,0.29771 c 5.00561,0.23883 6.3059,0.64389 6.57332,2.04772 0.29012,1.52299 -0.51932,1.75 -6.23996,1.75 H 109 v 5 5 h 7 c 6.33333,0 7,0.19048 7,2 0,1.85185 -0.66667,2 -9,2 h -9 z m 22,4.5 c 0,-8.91088 0.27367,-11 1.44098,-11 0.79254,0 1.71985,0.45122 2.06069,1.0027 0.41425,0.67028 1.24086,0.67028 2.49328,0 3.05917,-1.63722 7.84787,-1.15988 10.00505,0.9973 1.7037,1.7037 2,3.33333 2,11 0,6.91216 -0.31482,9 -1.35711,9 -0.9856,0 -1.50933,-2.22098 -1.9132,-8.1132 -0.30585,-4.46226 -1.0114,-8.56851 -1.56789,-9.125 -1.64446,-1.64446 -6.40026,-1.15617 -7.83381,0.80433 -0.8172,1.11758 -1.32799,4.62738 -1.32799,9.125 0,6.6422 -0.18243,7.30887 -2,7.30887 -1.87879,0 -2,-0.66667 -2,-11 z m 26.46553,9.59846 c -1.52615,-1.11595 -1.99491,-2.94989 -2.30043,-9 C 150.88039,251.9603 150.42262,250 149.3907,250 148.62582,250 148,249.1 148,248 c 0,-1.11111 0.66667,-2 1.5,-2 1,0 1.5,-1 1.5,-3 0,-2.33333 0.44444,-3 2,-3 1.55556,0 2,0.66667 2,3 0,2.53333 0.38889,3 2.5,3 1.83333,0 2.5,0.53333 2.5,2 0,1.47624 -0.66667,2 -2.54569,2 -2.50502,0 -2.54097,0.10766 -2.25,6.73966 0.25547,5.823 0.56771,6.79081 2.29569,7.11568 1.93272,0.36337 3.45304,1.84441 3.48469,3.39466 0.0265,1.2954 -5.51299,0.8154 -7.51916,-0.65154 z M 164,257.07332 C 164,247.89704 164.25697,246 165.5,246 c 0.825,0 1.5,0.70052 1.5,1.5567 0,1.40894 0.21096,1.40894 2.22251,0 1.22237,-0.85618 3.28037,-1.5567 4.57332,-1.5567 3.54843,0 2.3837,3.19678 -1.53466,4.21213 -3.64263,0.9439 -4.11,2.11426 -4.50377,11.27815 -0.20571,4.78727 -0.60885,6.05717 -2.0074,6.32333 -1.58136,0.30094 -1.75,-0.73406 -1.75,-10.74029 z m 15.92308,8.0036 c -3.3832,-3.38319 -3.96271,-9.16582 -1.41273,-14.09694 C 180.38887,247.34732 182.82403,246 187.51118,246 192.27207,246 197,250.44604 197,254.92308 V 258 h -8 c -8.89306,0 -10.15543,1.15938 -5.36514,4.92742 3.24066,2.5491 4.43567,2.58455 7.48028,0.22191 2.57055,-1.99477 4.88486,-1.81601 4.88486,0.3773 0,2.31755 -4.24065,4.47337 -8.79943,4.47337 -3.47944,0 -4.94178,-0.58736 -7.27749,-2.92308 z m 12.48587,-10.9296 c 0.75332,-1.21889 -1.54241,-3.83705 -4.00182,-4.56386 -2.31798,-0.68502 -7.82738,2.92754 -6.85764,4.49661 0.71621,1.15887 10.14871,1.21728 10.85946,0.0673 z m 31.80722,3.11454 c 0.24579,-9.29892 0.51838,-10.78307 2.03383,-11.07333 1.08802,-0.20839 1.75,0.28142 1.75,1.29485 0,1.48471 0.19814,1.49125 2.22251,0.0733 3.02133,-2.11622 7.19987,-2.0998 6.38448,0.0251 -0.33385,0.86998 -0.60699,1.76998 -0.60699,2 C 236,249.8118 234.90052,250 233.5567,250 229.71968,250 228,253.47313 228,261.22251 228,267.37091 227.81122,268 225.96617,268 c -1.93646,0 -2.02024,-0.51409 -1.75,-10.73814 z m 16.93407,8.21111 C 233.64544,259.15809 238.07159,246 247.7006,246 c 4.71835,0 7.2181,1.56117 8.88406,5.54837 2.5953,6.21145 2.33504,6.45163 -6.99104,6.45163 -8.00147,0 -8.38038,0.0994 -7.86653,2.0644 1.19886,4.58443 8.92126,6.17329 11.09814,2.28341 0.47137,-0.84229 1.49253,-1.1631 2.48723,-0.7814 2.34404,0.89949 2.11544,1.95185 -0.94732,4.36101 -3.73649,2.93912 -9.41389,2.74388 -13.2149,-0.45445 z M 253,253.62244 c 0,-2.01448 -2.63884,-3.87244 -5.5,-3.87244 -2.86116,0 -5.5,1.85796 -5.5,3.87244 0,1.0031 1.49505,1.37756 5.5,1.37756 4.00495,0 5.5,-0.37446 5.5,-1.37756 z M 261,257 c 0,-8.94361 0.27113,-11 1.45031,-11 0.79767,0 1.84397,0.70343 2.32511,1.56319 0.79332,1.41758 0.99565,1.41758 2.17214,0 1.82171,-2.19503 7.63297,-1.98266 9.98036,0.36473 3.49979,3.49979 4.25513,19.23597 0.95335,19.8615 -1.35369,0.25646 -1.69537,-1.01712 -2.08676,-7.77813 C 275.28319,251.1785 274.53262,249.75 270.40299,249.75 266.29574,249.75 265,252.37389 265,260.69113 265,267.33333 264.81757,268 263,268 c -1.87879,0 -2,-0.66667 -2,-11 z m 24.92308,8.07692 C 283.44853,262.60237 283,261.36302 283,257 c 0,-4.36302 0.44853,-5.60237 2.92308,-8.07692 3.12067,-3.12068 8.32233,-3.93247 12.13231,-1.89344 2.27843,1.21938 4.94461,6.02951 4.94461,8.9207 0,1.89541 -0.60206,2.04966 -8,2.04966 -8.17825,0 -8.9181,0.41599 -7.02638,3.95071 1.55903,2.91306 5.93259,3.49475 9.03428,1.20157 3.94848,-2.91924 6.28433,-1.1567 3.04158,2.29505 -3.5535,3.78253 -10.14634,3.60966 -14.1264,-0.37041 z m 12.52709,-10.9963 c 1.31692,-2.13082 -3.23954,-4.65666 -7.45017,-4.12995 -1.54093,0.19276 -4,2.79965 -4,4.24046 0,1.12456 10.75098,1.0208 11.45017,-0.11051 z m 9.62241,11.28452 C 306.35097,263.17647 306,261.31373 306,254.36514 306,246.66667 306.15939,246 308,246 c 1.83285,0 2,0.66667 2,7.97695 0,7.34663 0.19224,8.10291 2.43294,9.57107 1.91725,1.25623 2.88123,1.35421 4.54787,0.46225 2.87246,-1.53729 4.01919,-5.00348 4.01919,-12.14869 0,-5.18384 0.24012,-5.96199 1.75,-5.67121 1.53381,0.29539 1.75,1.63077 1.75,10.80963 0,9.17886 -0.21619,10.51424 -1.75,10.80963 -1.12163,0.21601 -1.75,-0.28356 -1.75,-1.39129 0,-1.61102 -0.12411,-1.616 -1.82874,-0.0733 -2.92513,2.64721 -8.64269,2.14242 -11.09868,-0.97987 z M 329,257 c 0,-8.94361 0.27113,-11 1.45031,-11 0.79767,0 1.84397,0.70343 2.32511,1.56319 0.79332,1.41758 0.99565,1.41758 2.17214,0 1.79336,-2.16087 7.48967,-2.14496 6.65943,0.0186 -0.33385,0.86998 -0.60699,1.76998 -0.60699,2 C 341,249.8118 339.94474,250 338.65499,250 334.5142,250 333,252.89955 333,260.82874 333,267.33333 332.81407,268 331,268 c -1.87879,0 -2,-0.66667 -2,-11 z m 16.18856,8.96104 c -3.9746,-3.7029 -1.80422,-6.37708 2.45595,-3.02602 3.09095,2.43134 4.30912,2.55059 6.87661,0.67319 1.60297,-1.17212 1.69619,-1.64144 0.59065,-2.97354 -0.722,-0.86996 -2.80358,-1.86143 -4.62572,-2.20327 C 346.52532,257.68837 343,254.6597 343,252 c 0,-3.08823 3.9201,-6 8.07778,-6 4.43982,0 9.07225,3.19607 7.27912,5.02212 -0.86793,0.88386 -1.78049,0.74644 -3.79096,-0.57087 -2.16726,-1.42004 -3.10846,-1.52509 -5.18545,-0.57875 -3.56382,1.62378 -2.53159,3.37193 3.04953,5.16459 7.31368,2.34917 9.62822,6.90467 5.56998,10.96291 -2.75863,2.75863 -9.83167,2.73712 -12.81144,-0.039 z"
       id="path841"
       inkscape:connector-curvature="0" />
    <path
       style="fill:#fb0519"
       d="M 140.74797,211.62521 C 128.16208,206.95945 121.249,192.84136 124.91569,179.29205 127.69492,169.02213 138.25223,161 148.98847,161 c 10.85699,0 18.73412,4.42665 23.57038,13.24567 2.46167,4.4889 2.87812,6.3469 2.85876,12.75433 -0.0171,5.66341 -0.54113,8.49247 -2.13991,11.55291 -2.62656,5.02784 -7.43192,9.8065 -12.17012,12.10251 -4.67259,2.2642 -15.47936,2.77896 -20.35961,0.96979 z m 15.05169,-10.0302 c 10.00153,-5.20379 11.9138,-18.63421 3.77621,-26.52148 -6.74085,-6.53349 -17.51735,-4.82806 -22.30942,3.53057 -7.47976,13.04667 5.85421,29.58779 18.53321,22.99091 z m 173.82784,9.93682 c -12.61841,-4.49793 -19.27798,-18.90268 -15.20939,-32.89815 3.08289,-10.60474 11.92549,-17.56832 22.36401,-17.61172 9.48709,-0.0394 17.047,4.88112 21.8064,14.19327 2.83566,5.5482 4.0197,4.46137 -12.08852,11.09607 -6.05,2.49189 -13.1697,5.46407 -15.82156,6.60484 l -4.82156,2.07413 2.04562,2.8728 c 4.48447,6.29787 14.67862,6.87374 20.57154,1.16209 l 3.30281,-3.20121 4.11158,2.72091 c 2.26136,1.4965 4.11157,3.02284 4.11157,3.39186 0,1.52671 -6.81329,7.09178 -11,8.98474 -5.27953,2.38707 -13.64846,2.65075 -19.3725,0.61037 z m 6.41292,-30.18252 C 342.1242,178.76767 347,176.10976 347,175.37499 347,173.3848 341.61791,171 337.12639,171 c -4.71915,0 -9.66173,3.64366 -11.76236,8.67119 -1.39771,3.34519 -1.78599,6.32881 -0.82361,6.32881 0.29724,0 5.47224,-2.09281 11.5,-4.65069 z"
       id="path839"
       inkscape:connector-curvature="0" />
    <path
       style="fill:#00b152"
       d="m 296,173 v -39 h 5.5 5.5 v 39 39 h -5.5 -5.5 z"
       id="path837"
       inkscape:connector-curvature="0" />
  </g>
</svg>
