<?xml version="1.0" encoding="UTF-8" standalone="no"?>
<!-- Created with Inkscape (http://www.inkscape.org/) -->

<svg
   xmlns:dc="http://purl.org/dc/elements/1.1/"
   xmlns:cc="http://creativecommons.org/ns#"
   xmlns:rdf="http://www.w3.org/1999/02/22-rdf-syntax-ns#"
   xmlns:svg="http://www.w3.org/2000/svg"
   xmlns="http://www.w3.org/2000/svg"
   xmlns:xlink="http://www.w3.org/1999/xlink"
   xmlns:sodipodi="http://sodipodi.sourceforge.net/DTD/sodipodi-0.dtd"
   xmlns:inkscape="http://www.inkscape.org/namespaces/inkscape"
   version="1.1"
   id="svg2"
   width="256"
   height="128"
   viewBox="0 0 256 128"
   sodipodi:docname="groupama.svg"
   inkscape:version="0.92.2 2405546, 2018-03-11">
  <metadata
     id="metadata8">
    <rdf:RDF>
      <cc:Work
         rdf:about="">
        <dc:format>image/svg+xml</dc:format>
        <dc:type
           rdf:resource="http://purl.org/dc/dcmitype/StillImage" />
        <dc:title></dc:title>
      </cc:Work>
    </rdf:RDF>
  </metadata>
  <defs
     id="defs6">
    <linearGradient
       inkscape:collect="always"
       id="linearGradient1033">
      <stop
         style="stop-color:#5d975b;stop-opacity:1"
         offset="0"
         id="stop1029" />
      <stop
         style="stop-color:#8fb344;stop-opacity:1"
         offset="1"
         id="stop1031" />
    </linearGradient>
    <linearGradient
       inkscape:collect="always"
       xlink:href="#linearGradient1033"
       id="linearGradient1035"
       x1="585.77795"
       y1="127.36725"
       x2="634.72925"
       y2="87.735596"
       gradientUnits="userSpaceOnUse"
       gradientTransform="translate(-0.37038927,2.0371409)" />
    <linearGradient
       inkscape:collect="always"
       xlink:href="#linearGradient1033"
       id="linearGradient1045"
       x1="593.86218"
       y1="144.75397"
       x2="658.11145"
       y2="132.28024"
       gradientUnits="userSpaceOnUse" />
  </defs>
  <sodipodi:namedview
     pagecolor="#ffffff"
     bordercolor="#666666"
     borderopacity="1"
     objecttolerance="10"
     gridtolerance="10"
     guidetolerance="10"
     inkscape:pageopacity="0"
     inkscape:pageshadow="2"
     inkscape:window-width="1364"
     inkscape:window-height="732"
     id="namedview4"
     showgrid="false"
     inkscape:zoom="1.3499311"
     inkscape:cx="192.81996"
     inkscape:cy="84.266492"
     inkscape:window-x="0"
     inkscape:window-y="35"
     inkscape:window-maximized="0"
     inkscape:current-layer="svg2" />
  <path
     style="fill:#5d975b;stroke-width:0.66666669"
     d="m 572.65203,-16.659771 c -381.76802,96.439849 -190.88401,48.219929 0,0 z"
     id="path821"
     inkscape:connector-curvature="0" />
  <g
     id="g1067"
     transform="matrix(0.80468285,0,0,0.80468285,-313.71878,-56.25606)">
    <path
       d="m 648.76769,169.34485 v -5.66668 h 4 c 3.11111,0 4,0.22222 4,1 0,0.74075 -0.77778,1 -3,1 -2.55556,0 -3,0.19755 -3,1.33335 0,1.11111 0.44444,1.33333 2.66666,1.33333 1.92593,0 2.66667,0.27778 2.66667,1 0,0.72222 -0.74074,1 -2.66667,1 -2.22222,0 -2.66666,0.22222 -2.66666,1.33332 0,1.1358 0.44444,1.33334 3,1.33334 2.22222,0 3,0.25927 3,1 0,0.77778 -0.88889,1 -4,1 h -4 z m -17.66667,-1.66668 c 0,-1.39303 -0.35571,-1.70095 -2.16667,-1.87556 -2.02702,-0.19545 -2.16666,-0.0746 -2.16666,1.87556 0,1.95013 0.13964,2.07103 2.16666,1.87559 1.81096,-0.17462 2.16667,-0.48253 2.16667,-1.87559 z m -6.33333,1.66668 v -5.66668 h 3.23 c 3.67848,0 5.43666,1.35223 5.43666,4.18136 0,2.08574 -2.18505,3.81864 -4.815,3.81864 -1.53066,0 -1.85166,0.28892 -1.85166,1.66668 0,1.03703 -0.37778,1.66666 -1,1.66666 -0.81046,0 -1,-1.07408 -1,-5.66666 z m -24.61828,3.91008 c -1.74828,-2.22257 -2.04141,-9.57676 -0.38172,-9.57676 0.73856,0 1,0.77296 1,2.9566 0,4.21731 0.96518,6.37673 2.85016,6.37673 2.41174,0 3.14984,-1.281 3.14984,-5.46666 0,-2.99259 0.22605,-3.86667 1,-3.86667 1.59816,0 1.41059,8.7551 -0.21916,10.23 -1.95009,1.76481 -5.7618,1.42828 -7.39912,-0.65324 z m -19.60342,-1.9869 c 1.02364,-1.56228 1.04025,-1.92606 0.15976,-3.5 -1.9038,-3.40321 -6.60473,-2.35912 -6.60473,1.46693 0,2.66346 1.01721,3.77654 3.4513,3.77654 1.26081,0 2.21567,-0.55609 2.99367,-1.74347 z m -6.52421,3.07234 c -1.5404,-0.90004 -2.81109,-4.34695 -2.32154,-6.29746 1.64851,-6.56821 11.73411,-5.44919 11.73411,1.30194 0,3.32694 -2.41171,5.67356 -5.80303,5.64639 -1.39167,-0.0111 -3.01596,-0.30405 -3.60954,-0.65087 z m -20.6885,-5.25229 c 1.65721,-1.05021 0.59417,-3.06006 -1.73772,-3.28547 -1.89411,-0.1831 -2.16121,-0.0115 -2.16121,1.38889 0,0.87879 0.2,1.79779 0.44445,2.04224 0.61344,0.61343 2.37377,0.53922 3.45448,-0.14566 z m -5.89893,0.25677 v -5.66668 h 3.28572 c 2.09812,0 3.66436,0.37866 4.33333,1.04762 1.24281,1.24282 1.37937,4.35396 0.24108,5.49226 -0.63095,0.63094 -0.55017,1.24055 0.37102,2.8 1.14206,1.93334 1.13853,1.99346 -0.11678,1.99346 -0.71189,0 -1.78577,-0.75 -2.38639,-1.66666 -0.60063,-0.91668 -1.68513,-1.66668 -2.41001,-1.66668 -0.96139,0 -1.31797,0.45091 -1.31797,1.66668 0,1.03703 -0.37778,1.66666 -1,1.66666 -0.81046,0 -1,-1.07408 -1,-5.66666 z m -25.0303,4.03029 c -1.12978,-1.12976 -1.63636,-2.37746 -1.63636,-4.03029 0,-3.66773 2.3606,-5.66668 6.69192,-5.66668 4.26087,0 4.25464,1.47789 -0.009,2.05756 -2.7157,0.36924 -4.68325,1.87672 -4.68325,3.58819 0,0.39834 0.47851,1.40741 1.06335,2.24238 0.83658,1.19439 1.58298,1.47482 3.5,1.31501 2.96051,-0.24681 3.42113,-2.08986 0.60332,-2.41407 -3.00117,-0.34533 -2.30342,-2.12239 0.83333,-2.12239 h 2.66666 v 2.92866 c 0,3.29588 -0.562,3.738 -4.75149,3.738 -1.91667,0 -3.09189,-0.44944 -4.27881,-1.63637 z m -41.63636,-4.03029 v -5.66668 h 4 c 3.11111,0 4,0.22222 4,1 0,0.74075 -0.77778,1 -3,1 -2.55556,0 -3,0.19755 -3,1.33335 0,1.11111 0.44444,1.33333 2.66666,1.33333 1.92593,0 2.66667,0.27778 2.66667,1 0,0.72222 -0.74074,1 -2.66667,1 -2.22222,0 -2.66666,0.22222 -2.66666,1.33332 0,1.1358 0.44444,1.33334 3,1.33334 2.22222,0 3,0.25927 3,1 0,0.77778 -0.88889,1 -4,1 h -4 z m -23.33333,0 c 0,-4.59259 0.18954,-5.66668 1,-5.66668 0.79365,0 1,0.96297 1,4.66668 v 4.66666 h 2.66666 c 1.92593,0 2.66667,0.27779 2.66667,1 0,0.76769 -0.85185,1 -3.66667,1 h -3.66666 z m 156.66666,29.69683 v -12.63646 l 2.5,-0.48527 c 2.24526,-0.43585 10.72795,-0.51251 18.83333,-0.17023 1.65,0.0697 5.1,-0.10249 7.66667,-0.38262 5.92159,-0.64626 9.64582,0.30151 11.95133,3.04144 1.6855,2.00311 1.71534,2.22319 1.71534,12.65408 v 10.6155 h -3 -3 v -8.61214 c 0,-4.73668 -0.18636,-9.09777 -0.41412,-9.69132 -0.79035,-2.0596 -4.14738,-3.19664 -8.01219,-2.71376 l -3.57369,0.44654 v 10.28536 10.28536 h -2.94835 -2.94835 l -0.21832,-8.93216 c -0.18494,-7.56677 -0.40722,-9.14058 -1.45411,-10.29555 -1.56975,-1.73181 -4.41657,-2.35913 -8.15903,-1.79791 l -2.93851,0.44066 v 10.29248 10.29248 h -3 -3 V 199.0417 Z m -156.66666,0.0557 V 186.5166 l 3.16666,-0.40176 c 1.74167,-0.22097 5.19167,-0.60104 7.66667,-0.84462 l 4.5,-0.44284 v 3.06161 3.0616 l -4.5,0.19712 -4.5,0.19713 -0.18403,10.16667 -0.18403,10.16666 h -2.98264 -2.98263 z m 224.49999,8.1606 c 1.32002,-0.35375 1.5,-0.83261 1.5,-3.9909 0,-4.11223 0.35094,-3.97685 -7.64115,-2.94756 -6.11123,0.78706 -7.99965,3.05117 -5.02551,6.02531 1.05144,1.05145 2.21422,1.33141 5.5,1.32423 2.29166,-0.005 4.84166,-0.19 5.66666,-0.41108 z m -13.57458,4.48033 c -5.87018,-2.56716 -5.65017,-12.49966 0.3288,-14.84432 0.96018,-0.37655 4.59247,-0.87915 8.07176,-1.11689 7.00164,-0.47844 8.0999,-1.33973 5.29058,-4.14904 -1.37322,-1.37322 -1.90006,-1.44323 -8.37432,-1.1128 l -6.9089,0.35261 v -2.54179 -2.54178 l 4.33332,-0.46406 c 2.38334,-0.25523 6.32165,-0.33745 8.75182,-0.18271 4.08256,0.25996 4.58942,0.46786 6.66668,2.73454 l 2.24818,2.45319 v 10.30378 c 0,6.86779 -0.24826,10.45721 -0.74446,10.76387 -1.18083,0.7298 -18.10472,1.02708 -19.66346,0.3454 z m -69.97994,-4.4648 c 0.78259,-0.3003 1.05452,-1.33896 1.05452,-4.0278 v -3.62315 l -5.16666,0.43737 c -5.90686,0.50002 -8.16667,1.58725 -8.16667,3.92913 0,2.47104 2.34222,3.6891 7.09381,3.6891 2.27176,0 4.60501,-0.18209 5.185,-0.40465 z m -14.06482,4.04705 c -4.06827,-2.10468 -5.47416,-9.07494 -2.49448,-12.36744 1.69657,-1.87469 7.14153,-3.27495 12.73482,-3.27495 4.74772,0 4.879,-0.0445 4.879,-1.6513 0,-2.98982 -2.49998,-3.9073 -9.63047,-3.53432 l -6.2571,0.32728 -0.43253,-2.30562 c -0.2379,-1.26809 -0.2419,-2.49626 -0.009,-2.72926 0.23301,-0.23301 4.12777,-0.42736 8.65503,-0.43188 9.33036,-0.009 11.30142,0.76878 12.803,5.05421 1.00763,2.87571 1.15412,20.35053 0.17567,20.95525 -0.38241,0.23634 -4.65741,0.57028 -9.5,0.74208 -7.29819,0.25892 -9.16733,0.12477 -10.92405,-0.78405 z m -66.6017,0.42523 c -0.76324,-0.33453 -2.18824,-1.55962 -3.16666,-2.72241 -1.76451,-2.09699 -1.77896,-2.20042 -1.77896,-12.72969 v -10.61552 h 3 3 l 0.0212,9.16667 c 0.0149,6.46241 0.27682,9.50311 0.88766,10.30713 1.42905,1.88094 4.32411,2.60376 8.52502,2.12849 l 3.89945,-0.44117 v -10.58057 -10.58056 h 3 3 v 12.62732 c 0,8.57868 -0.23869,12.77485 -0.74445,13.08743 -1.17333,0.72515 -18.10014,1.02923 -19.64326,0.35288 z m -94.51891,-0.45213 c -4.43921,-1.41386 -9.19096,-6.22473 -10.73258,-10.86612 -1.46748,-4.41819 -1.19318,-12.62849 0.54064,-16.18247 2.97975,-6.1079 9.13013,-9.84569 17.0994,-10.39191 4.85949,-0.33308 14.66974,0.81681 14.66211,1.71858 -0.002,0.24187 -0.32522,1.59763 -0.71817,3.0128 -0.67844,2.44335 -0.82105,2.5511 -2.82961,2.13783 -8.71809,-1.7938 -14.54838,-1.02669 -18.7938,2.47274 -3.08733,2.54484 -4.32565,5.40914 -4.30673,9.96165 0.0417,10.03786 7.27652,14.71969 19.39857,12.55336 l 4.58679,-0.8197 v -4.27279 -4.27279 h -6.66666 -6.66667 v -3 -3 h 9.66667 9.66666 v 9.30655 9.30654 l -4.5,1.4526 c -5.89482,1.90284 -15.85199,2.33376 -20.40662,0.88313 z m 72.32558,-5.32643 c 3.56654,-1.84434 4.86603,-7.08207 2.82448,-11.38434 -2.72001,-5.73199 -12.21699,-5.65529 -14.62929,0.11815 -3.40718,8.15452 4.05334,15.27463 11.80481,11.26619 z m -8.91937,6.12758 c -6.29532,-1.74403 -9.83292,-6.58896 -9.83292,-13.46668 0,-1.95464 0.35605,-4.393 0.79122,-5.41859 1.15168,-2.71423 4.5367,-6.15943 7.12352,-7.25015 2.84346,-1.19892 10.12814,-1.22696 12.94,-0.0498 3.01649,1.26282 6.98066,5.87995 7.52091,8.75971 0.79311,4.2276 -2.1e-4,9.37594 -1.88319,12.22131 -3.06884,4.63734 -10.41838,6.93323 -16.65954,5.2042 z m 78.2114,-6.21554 c 4.26139,-2.51726 4.9488,-9.9772 1.25936,-13.66665 -1.7376,-1.7376 -2.24309,-1.86778 -7.2524,-1.86778 h -5.38462 v 7.95112 c 0,8.99337 -0.33478,8.50298 5.89714,8.6382 2.27724,0.0494 4.25576,-0.33141 5.48052,-1.05489 z m -17.37766,-0.46216 v -18.92772 l 1.52191,-0.38198 c 3.60473,-0.90473 14.26441,-1.22111 16.90626,-0.50178 8.08459,2.20131 11.39043,14.60691 5.83379,21.89206 -2.6287,3.44638 -4.71756,4.18048 -11.89552,4.18048 h -6.36644 v 6.33334 6.33333 h -3 -3 z"
       style="fill:#1e695a;stroke-width:0.66666669"
       id="path956"
       inkscape:connector-curvature="0" />
    <g
       id="g1055">
      <path
         style="fill:#8fb344;stroke-width:0.66666669"
         d="m 593.86216,144.75397 c 0.032,-0.77664 0.18996,-0.9346 0.40277,-0.40278 0.19258,0.48124 0.1689,1.05624 -0.0526,1.27778 -0.22152,0.22152 -0.37909,-0.17223 -0.35014,-0.875 z"
         id="path1018"
         inkscape:connector-curvature="0" />
      <path
         style="fill:#8fb344;stroke-width:0.66666669"
         d="m 622.47619,85.476192 c -0.91666,-0.524014 -1.349,-0.963383 -0.96075,-0.976376 0.38825,-0.01299 1.28825,0.416835 2,0.955174 1.64599,1.24496 1.12025,1.255686 -1.03925,0.0212 z"
         id="path1014"
         inkscape:connector-curvature="0" />
      <path
         style="fill:#1e695a;stroke-width:0.66666669"
         d="m 457.43436,146.66492 c 0,-1.06789 11.51551,-16.98674 12.28801,-16.98674 0.11861,0 4.37732,1.45556 9.46381,3.23458 5.08649,1.77903 11.71398,4.0506 14.72775,5.04795 l 5.47957,1.81335 -3.81291,3.59441 -3.8129,3.59441 -17.16667,0.0243 c -9.44166,0.0133 -17.16666,-0.13166 -17.16666,-0.32228 z"
         id="path954"
         inkscape:connector-curvature="0" />
      <path
         style="fill:#1e695a;stroke-width:0.66666669"
         d="m 496.26606,124.80542 -14.83496,-7.468 5.16829,-4.35972 c 8.23881,-6.94985 13.45054,-10.74312 14.1589,-10.30533 0.98918,0.61134 22.87014,25.04793 22.58758,25.22575 -0.87936,0.5534 -11.1211,4.43992 -11.62386,4.41101 -0.34154,-0.0197 -7.29672,-3.39631 -15.45595,-7.50371 z"
         id="path952"
         inkscape:connector-curvature="0" />
      <path
         style="fill:#1e695a;stroke-width:0.66666669"
         d="m 529.05944,108.15214 c -5.11047,-8.727764 -9.38124,-16.265834 -9.49061,-16.751274 -0.32531,-1.44395 19.54591,-9.71845 20.56511,-8.56344 0.24627,0.27908 1.86032,8.90741 3.58679,19.174084 1.72647,10.26667 3.27085,19.13593 3.43195,19.70948 0.23394,0.83289 -0.62246,1.16933 -4.25429,1.67131 l -4.5472,0.62849 z"
         id="path950"
         inkscape:connector-curvature="0" />
      <path
         style="fill:#1e695a;fill-opacity:1;stroke:none;stroke-width:1px;stroke-linecap:butt;stroke-linejoin:miter;stroke-opacity:1"
         d="m 563.03093,77.059626 -3.08892,45.213934 8.74441,0.42515 c 6.38826,-11.75414 13.91909,-30.363709 20.92699,-45.835671 -8.86083,-0.849425 -17.72165,-0.266921 -26.58248,0.196587 z"
         id="path1025"
         inkscape:connector-curvature="0"
         sodipodi:nodetypes="ccccc" />
      <path
         style="fill:url(#linearGradient1035);fill-opacity:1;stroke:none;stroke-width:1px;stroke-linecap:butt;stroke-linejoin:miter;stroke-opacity:1"
         d="m 583.18519,126.34918 7.3006,6.15476 53.5032,-32.21387 c -7.7521,-8.797701 -17.32133,-14.566831 -28.03297,-18.431959 z"
         id="path1027"
         inkscape:connector-curvature="0"
         sodipodi:nodetypes="ccccc" />
      <path
         style="fill:url(#linearGradient1045);fill-opacity:1;stroke:none;stroke-width:1px;stroke-linecap:butt;stroke-linejoin:miter;stroke-opacity:1"
         d="m 593.96455,147.14282 63.07218,4e-5 -2.53673,-26.13095 -60.36905,21.86905 z"
         id="path1037"
         inkscape:connector-curvature="0" />
    </g>
  </g>
</svg>
