<?xml version="1.0" encoding="UTF-8" standalone="no"?>
<!-- Created with Inkscape (http://www.inkscape.org/) -->

<svg
   xmlns:dc="http://purl.org/dc/elements/1.1/"
   xmlns:cc="http://creativecommons.org/ns#"
   xmlns:rdf="http://www.w3.org/1999/02/22-rdf-syntax-ns#"
   xmlns:svg="http://www.w3.org/2000/svg"
   xmlns="http://www.w3.org/2000/svg"
   xmlns:sodipodi="http://sodipodi.sourceforge.net/DTD/sodipodi-0.dtd"
   xmlns:inkscape="http://www.inkscape.org/namespaces/inkscape"
   version="1.1"
   id="svg2"
   width="256"
   height="128"
   viewBox="0 0 256 128"
   sodipodi:docname="hellotomorrow.svg"
   inkscape:version="0.92.2 2405546, 2018-03-11">
  <metadata
     id="metadata8">
    <rdf:RDF>
      <cc:Work
         rdf:about="">
        <dc:format>image/svg+xml</dc:format>
        <dc:type
           rdf:resource="http://purl.org/dc/dcmitype/StillImage" />
        <dc:title></dc:title>
      </cc:Work>
    </rdf:RDF>
  </metadata>
  <defs
     id="defs6" />
  <sodipodi:namedview
     pagecolor="#ffffff"
     bordercolor="#666666"
     borderopacity="1"
     objecttolerance="10"
     gridtolerance="10"
     guidetolerance="10"
     inkscape:pageopacity="0"
     inkscape:pageshadow="2"
     inkscape:window-width="1364"
     inkscape:window-height="732"
     id="namedview4"
     showgrid="false"
     inkscape:zoom="1.3657263"
     inkscape:cx="-9.3643197"
     inkscape:cy="-46.516022"
     inkscape:window-x="0"
     inkscape:window-y="35"
     inkscape:window-maximized="0"
     inkscape:current-layer="svg2" />
  <g
     id="g7"
     transform="matrix(1.5214584,0,0,1.5214584,-61.89798,28.245565)">
    <path
       style="fill:#15f2c8;stroke-width:0.11748425"
       d="m 61.376231,48.184899 c 0.192606,-0.183069 1.275819,-1.200776 2.407139,-2.261572 1.13132,-1.060796 2.883174,-2.708522 3.893009,-3.661613 1.009836,-0.953091 1.924247,-1.732893 2.032023,-1.732893 0.107778,0 1.898074,1.602558 3.978435,3.561241 2.080363,1.958682 3.993949,3.754761 4.252414,3.991286 l 0.469937,0.430044 -8.691575,0.0032 -8.691575,0.0032 0.350193,-0.332852 z m -1.204615,-1.923676 c -0.195401,-0.240527 -2.175278,-7.248765 -2.101872,-7.440061 0.05656,-0.147391 0.782161,-0.172089 5.055871,-0.172089 3.689846,0 5.012019,0.03589 5.074987,0.13778 0.05211,0.08431 -0.231111,0.437668 -0.729769,0.910503 -0.736937,0.698776 -5.928884,5.560456 -6.812564,6.379208 -0.286844,0.265767 -0.389209,0.30461 -0.486653,0.184659 z m 14.961865,-3.56767 c -2.177392,-2.047543 -3.939185,-3.781967 -3.915096,-3.854273 0.05663,-0.169976 9.940342,-0.248541 10.108532,-0.08035 0.127236,0.127237 -1.859717,7.250594 -2.093103,7.503914 -0.113683,0.123392 -0.918348,-0.57706 -4.100333,-3.569289 z M 54.207433,42.99472 c -6.517791,-4.428831 -6.096459,-4.126779 -5.915974,-4.241143 0.202792,-0.128499 8.331835,-0.133461 8.533959,-0.0052 0.136653,0.0867 2.140127,6.776314 2.140127,7.145891 0,0.08597 -0.06609,0.151299 -0.146855,0.145165 -0.08077,-0.0061 -2.155836,-1.376254 -4.611257,-3.044708 z m 26.25773,2.830341 c 0,-0.341165 1.940751,-6.867756 2.085135,-7.012139 0.133824,-0.133823 0.899683,-0.163518 4.179293,-0.16205 2.208494,9.4e-4 4.087326,0.04734 4.175182,0.10301 0.172864,0.109526 -0.135619,0.328135 -7.697977,5.455251 -2.473843,1.677212 -2.741633,1.835048 -2.741633,1.615928 z m 39.915277,-1.151795 c 0.21,-0.02606 0.55364,-0.02606 0.76364,0 0.21001,0.02606 0.0382,0.04738 -0.38182,0.04738 -0.42001,0 -0.59183,-0.02132 -0.38182,-0.04738 z m 33.60049,0 c 0.21001,-0.02606 0.55365,-0.02606 0.76365,0 0.21,0.02606 0.0382,0.04738 -0.38182,0.04738 -0.42001,0 -0.59183,-0.02132 -0.38183,-0.04738 z m 29.841,0 c 0.21,-0.02606 0.55365,-0.02606 0.76365,0 0.21,0.02606 0.0382,0.04738 -0.38182,0.04738 -0.42001,0 -0.59183,-0.02132 -0.38183,-0.04738 z m -74.12522,-0.11275 c 0.0848,-0.03394 0.18614,-0.02976 0.22518,0.0093 0.039,0.03904 -0.0303,0.06681 -0.1542,0.0617 -0.13686,-0.0056 -0.1647,-0.03348 -0.071,-0.07098 z m 1.64478,0 c 0.0848,-0.03394 0.18614,-0.02976 0.22518,0.0093 0.039,0.03904 -0.0303,0.06681 -0.1542,0.0617 -0.13686,-0.0056 -0.1647,-0.03348 -0.071,-0.07098 z m 10.57358,0 c 0.0848,-0.03394 0.18614,-0.02976 0.22518,0.0093 0.039,0.03904 -0.0303,0.06681 -0.15419,0.0617 -0.13687,-0.0056 -0.16471,-0.03348 -0.071,-0.07098 z m 31.13333,0 c 0.0848,-0.03394 0.18614,-0.02976 0.22518,0.0093 0.039,0.03904 -0.0303,0.06681 -0.1542,0.0617 -0.13686,-0.0056 -0.1647,-0.03348 -0.071,-0.07098 z m 29.841,0 c 0.0848,-0.03394 0.18614,-0.02976 0.22518,0.0093 0.039,0.03904 -0.0304,0.06681 -0.1542,0.0617 -0.13686,-0.0056 -0.1647,-0.03348 -0.071,-0.07098 z m 11.40301,-0.125343 c -0.14613,-0.186337 -0.14198,-0.190493 0.0444,-0.04436 0.1957,0.153478 0.25794,0.249955 0.16124,0.249955 -0.0244,0 -0.11691,-0.09252 -0.2056,-0.205597 z m 1.02982,-0.08811 c 0.27162,-0.463879 0.2775,-0.47078 0.2775,-0.326307 0,0.06823 -0.10887,0.248859 -0.24195,0.401405 l -0.24193,0.277354 z m 7.08922,0.114644 c -0.0817,-0.09849 -0.12585,-0.201817 -0.098,-0.229625 0.0278,-0.02781 0.11509,0.05277 0.19396,0.179066 0.17056,0.273118 0.11369,0.303105 -0.0959,0.05056 z m 0.82475,0.134709 c 0,-0.0244 0.0925,-0.116915 0.2056,-0.205598 0.18634,-0.146135 0.19049,-0.141979 0.0444,0.04436 -0.15348,0.195699 -0.24996,0.257934 -0.24996,0.16124 z m -91.30729,-0.153382 c 0.0848,-0.03394 0.18614,-0.02976 0.22518,0.0093 0.039,0.03904 -0.0303,0.06681 -0.1542,0.06171 -0.13686,-0.0056 -0.1647,-0.03348 -0.071,-0.07098 z m 16.66426,-0.252077 c -0.10694,-0.118167 -0.19443,-0.256194 -0.19443,-0.306726 0,-0.05053 0.0925,0.01879 0.20559,0.154042 0.17352,0.207546 0.36143,0.251676 1.20422,0.282813 l 0.99861,0.03689 -1.00977,0.02391 c -0.84845,0.02009 -1.04085,-0.01041 -1.20422,-0.190934 z m 9.90921,0.168675 c 0,-0.02539 0.0821,-0.07766 0.18233,-0.116139 0.10455,-0.04012 0.15171,-0.02042 0.11055,0.04617 -0.069,0.111634 -0.29288,0.165118 -0.29288,0.06997 z m 5.74174,-0.159425 c -0.14613,-0.186337 -0.14198,-0.190492 0.0444,-0.04436 0.1957,0.153478 0.25794,0.249955 0.16124,0.249955 -0.0244,0 -0.11691,-0.09252 -0.2056,-0.205598 z m 2.12971,0.159425 c 0,-0.02539 0.082,-0.07766 0.18233,-0.116139 0.10455,-0.04012 0.15171,-0.02042 0.11055,0.04617 -0.069,0.111634 -0.29288,0.165118 -0.29288,0.06997 z m 18.09257,0 c 0,-0.02539 0.0821,-0.07766 0.18233,-0.116139 0.10456,-0.04012 0.15171,-0.02042 0.11055,0.04617 -0.069,0.111634 -0.29288,0.165118 -0.29288,0.06997 z m 8.69384,0.0018 c 0,-0.0244 0.0925,-0.116915 0.20559,-0.205598 0.18635,-0.146135 0.19049,-0.14198 0.0444,0.04436 -0.15349,0.1957 -0.24996,0.257935 -0.24996,0.161241 z m -55.012,-0.257809 c -0.45552,-0.24712 -0.40393,-0.332402 0.0587,-0.0971 0.44286,0.225225 0.52123,0.283598 0.37203,0.277082 -0.0592,-0.0026 -0.25308,-0.08358 -0.43077,-0.179978 z m 18.17348,-3.222356 c 0,-1.776949 0.0163,-2.503883 0.0363,-1.615408 0.02,0.888474 0.02,2.342342 0,3.230817 -0.02,0.888474 -0.0363,0.161541 -0.0363,-1.615409 z m 10.41384,2.986059 c 0.006,-0.136864 0.0335,-0.164702 0.071,-0.07098 0.0339,0.08481 0.0298,0.18614 -0.009,0.225179 -0.039,0.03904 -0.0668,-0.03035 -0.0617,-0.154198 z m 18.1357,-3.514738 c 5e-5,-2.067723 0.016,-2.897063 0.0355,-1.842979 0.0195,1.054085 0.0195,2.745858 -8e-5,3.759496 -0.0195,1.013639 -0.0355,0.151206 -0.0354,-1.916517 z M 162.17068,38.8253 c 3e-5,-2.843119 0.0153,-3.989402 0.0341,-2.547297 0.0187,1.442106 0.0187,3.768294 -5e-5,5.169307 -0.0187,1.401014 -0.034,0.221109 -0.034,-2.62201 z m -18.09489,1.762264 c 6e-5,-1.809258 0.0164,-2.532993 0.0362,-1.608301 0.0199,0.924693 0.0198,2.404994 -1.1e-4,3.289559 -0.0199,0.884566 -0.0362,0.127999 -0.0361,-1.681258 z m 6.69253,2.848993 -0.2238,-0.26434 0.26434,0.223806 c 0.14538,0.123093 0.26434,0.242046 0.26434,0.26434 0,0.09402 -0.0946,0.02461 -0.30488,-0.223806 z m 6.76651,0.219982 c 0,-0.0244 0.0925,-0.116915 0.2056,-0.205598 0.18634,-0.146135 0.19049,-0.141979 0.0444,0.04436 -0.15348,0.195699 -0.24996,0.257934 -0.24996,0.16124 z m 23.07449,-0.219982 -0.2238,-0.26434 0.26434,0.223806 c 0.24841,0.210323 0.31782,0.304873 0.2238,0.304873 -0.0223,0 -0.14125,-0.118953 -0.26434,-0.264339 z m -55.97499,-0.352453 c 0.28807,-0.306928 0.5392,-0.55805 0.55805,-0.55805 0.0882,0 -0.005,0.105481 -0.52377,0.592331 l -0.55805,0.523769 z m -7.87286,-0.05874 -0.40487,-0.440566 0.44057,0.404871 c 0.41007,0.376843 0.49458,0.476261 0.40487,0.476261 -0.0196,0 -0.21789,-0.198255 -0.44057,-0.440566 z m 41.36078,0.16124 c 0,-0.0244 0.0925,-0.116915 0.2056,-0.205598 0.18634,-0.146135 0.19049,-0.141979 0.0444,0.04436 -0.15348,0.195699 -0.24996,0.257934 -0.24996,0.16124 z m 29.841,0 c 0,-0.0244 0.0925,-0.116915 0.2056,-0.205598 0.18634,-0.146135 0.19049,-0.141979 0.0444,0.04436 -0.15348,0.195699 -0.24996,0.257934 -0.24996,0.16124 z m 8.11001,-0.366838 c 0,-0.06462 0.0512,-0.196786 0.11389,-0.29371 0.0626,-0.09692 0.11389,-0.123359 0.11389,-0.05874 0,0.06462 -0.0513,0.196786 -0.11389,0.29371 -0.0626,0.09693 -0.11389,0.123359 -0.11389,0.05874 z m -88.34248,-0.244758 c 0.006,-0.136863 0.0335,-0.164701 0.071,-0.07098 0.0339,0.08481 0.0298,0.18614 -0.009,0.225179 -0.039,0.03904 -0.0668,-0.03035 -0.0617,-0.154198 z m 42.15259,-0.01958 c -0.14614,-0.186337 -0.14198,-0.190493 0.0444,-0.04436 0.11307,0.08868 0.20559,0.181202 0.20559,0.205598 0,0.09669 -0.0965,0.03446 -0.24995,-0.16124 z m 29.84099,0 c -0.14612,-0.186337 -0.14198,-0.190493 0.0444,-0.04436 0.19569,0.153478 0.25793,0.249955 0.16123,0.249955 -0.0244,0 -0.11691,-0.09252 -0.2056,-0.205597 z m -21.13217,0.04376 c 0,-0.0244 0.0925,-0.116915 0.2056,-0.205598 0.18633,-0.146135 0.19049,-0.14198 0.0444,0.04436 -0.15347,0.195699 -0.24995,0.257934 -0.24995,0.16124 z m 29.841,0 c 0,-0.0244 0.0925,-0.116915 0.2056,-0.205598 0.18634,-0.146135 0.19048,-0.14198 0.0444,0.04436 -0.15348,0.195699 -0.24996,0.257934 -0.24996,0.16124 z M 120.61678,42.208 c 0.14613,-0.0281 0.35761,-0.02703 0.46993,0.0024 0.11233,0.02941 -0.007,0.0524 -0.26571,0.05109 -0.25846,-0.0013 -0.35036,-0.02536 -0.20422,-0.05346 z m 33.48301,0 c 0.14614,-0.0281 0.35761,-0.02703 0.46993,0.0024 0.11233,0.02941 -0.007,0.0524 -0.26571,0.05109 -0.25846,-0.0013 -0.35036,-0.02536 -0.20422,-0.05346 z m 29.841,0 c 0.14614,-0.0281 0.35761,-0.02703 0.46994,0.0024 0.11231,0.02941 -0.007,0.0524 -0.26572,0.05109 -0.25846,-0.0013 -0.35037,-0.02536 -0.20422,-0.05346 z m -72.78063,-0.115807 c 0.11431,-0.02979 0.27291,-0.02783 0.35245,0.0044 0.0795,0.03218 -0.014,0.05655 -0.20783,0.05416 -0.19385,-0.0024 -0.25893,-0.02873 -0.14462,-0.05851 z m 43.88547,0.0012 c 0.0848,-0.03394 0.18614,-0.02976 0.22518,0.0093 0.039,0.03904 -0.0303,0.06681 -0.1542,0.06171 -0.13686,-0.0056 -0.1647,-0.03348 -0.071,-0.07098 z m 29.841,0 c 0.0848,-0.03394 0.18614,-0.02976 0.22518,0.0093 0.039,0.03904 -0.0303,0.06681 -0.15419,0.06171 -0.13687,-0.0056 -0.1647,-0.03348 -0.071,-0.07098 z M 107.65567,38.8253 c 6e-5,-1.809258 0.0164,-2.532992 0.0362,-1.608301 0.0199,0.924693 0.0198,2.404994 -10e-5,3.289559 -0.0199,0.884566 -0.0362,0.127999 -0.0361,-1.681258 z m 14.17374,3.187988 c 0.0269,-0.02356 0.18112,-0.105774 0.34266,-0.182707 0.27694,-0.131894 0.28069,-0.129448 0.0657,0.04283 -0.18715,0.14994 -0.56955,0.280937 -0.40832,0.139879 z m 31.18311,-0.07331 c -0.0412,-0.0666 0.006,-0.08629 0.11055,-0.04617 0.20353,0.0781 0.24077,0.162312 0.0718,0.162312 -0.0608,0 -0.14285,-0.05226 -0.18233,-0.116139 z m -30.13554,-0.647509 c 0.2192,-0.226157 0.42498,-0.411195 0.45728,-0.411195 0.0323,0 -0.1206,0.185038 -0.3398,0.411195 -0.2192,0.226157 -0.42498,0.411195 -0.45729,0.411195 -0.0323,0 0.12061,-0.185038 0.33981,-0.411195 z m 29.24725,-0.02937 -0.40487,-0.440566 0.44057,0.404871 c 0.41007,0.376843 0.49458,0.476261 0.40487,0.476261 -0.0196,0 -0.21789,-0.198255 -0.44057,-0.440566 z m 29.841,0 -0.40487,-0.440566 0.44057,0.404871 c 0.41006,0.376843 0.49458,0.476261 0.40487,0.476261 -0.0196,0 -0.21789,-0.198255 -0.44057,-0.440566 z m -63.38759,0.05874 -0.22381,-0.264339 0.26434,0.223806 c 0.24842,0.210323 0.31783,0.304873 0.22381,0.304873 -0.0223,0 -0.14125,-0.118953 -0.26434,-0.26434 z m 67.50586,0.219982 c 0,-0.0244 0.0925,-0.116914 0.2056,-0.205597 0.18634,-0.146135 0.19049,-0.14198 0.0444,0.04436 -0.15348,0.1957 -0.24996,0.257935 -0.24996,0.16124 z m -75.72627,-3.010233 c 0,-1.647716 0.0165,-2.321782 0.0367,-1.497924 0.0202,0.823858 0.0202,2.17199 0,2.995848 -0.0202,0.823859 -0.0367,0.149793 -0.0367,-1.497924 z m 68.5155,2.638854 c -0.11336,-0.295437 -0.0799,-0.371667 0.0586,-0.133502 0.0686,0.117925 0.0999,0.239158 0.0697,0.269407 -0.0302,0.03025 -0.088,-0.03091 -0.12826,-0.135905 z m -21.85903,-0.67606 c 0.0441,-0.115865 0.10982,-0.181069 0.14599,-0.144897 0.0362,0.03617 7e-5,0.130971 -0.0802,0.210665 -0.11603,0.115165 -0.12952,0.101671 -0.0658,-0.06577 z m 29.84101,0 c 0.0441,-0.115865 0.10981,-0.181069 0.14598,-0.144897 0.0362,0.03617 7e-5,0.130971 -0.0802,0.210665 -0.11602,0.115165 -0.12952,0.101671 -0.0658,-0.06577 z m -63.32402,-0.117484 c 0.0441,-0.115865 0.10981,-0.181069 0.14599,-0.144897 0.0362,0.03617 7e-5,0.13097 -0.0802,0.210665 -0.11603,0.115165 -0.12952,0.101671 -0.0658,-0.06577 z m 57.78987,0.02662 c -0.0426,-0.06891 -0.0522,-0.150497 -0.0214,-0.181293 0.0308,-0.0308 0.0873,0.02559 0.12557,0.1253 0.0794,0.20702 0.0118,0.243434 -0.10412,0.05599 z m -32.58777,-0.1782 c 0.006,-0.136863 0.0335,-0.164701 0.071,-0.07098 0.0339,0.08481 0.0298,0.18614 -0.009,0.225179 -0.039,0.03904 -0.0668,-0.03035 -0.0617,-0.154198 z M 126.2933,40.107837 c 0.006,-0.136864 0.0335,-0.164702 0.071,-0.07098 0.0339,0.08481 0.0298,0.18614 -0.009,0.225179 -0.039,0.03904 -0.0668,-0.03035 -0.0617,-0.154198 z m 33.60049,-0.234969 c 0.006,-0.136863 0.0335,-0.164701 0.071,-0.07098 0.0339,0.08481 0.0298,0.186139 -0.009,0.225178 -0.039,0.03904 -0.0668,-0.03035 -0.0617,-0.154198 z m 29.84099,0 c 0.006,-0.136863 0.0335,-0.164701 0.071,-0.07098 0.0339,0.08481 0.0298,0.186139 -0.009,0.225178 -0.039,0.03904 -0.0668,-0.03035 -0.0617,-0.154198 z m -41.1102,-0.283921 c 0,-0.16154 0.0267,-0.227625 0.0593,-0.146855 0.0326,0.08077 0.0326,0.21294 0,0.293711 -0.0326,0.08077 -0.0593,0.01469 -0.0593,-0.146856 z m 29.841,0 c 0,-0.16154 0.0267,-0.227625 0.0593,-0.146855 0.0326,0.08077 0.0326,0.21294 0,0.293711 -0.0326,0.08077 -0.0593,0.01469 -0.0593,-0.146856 z m -52.04117,-0.176226 c 0.002,-0.193849 0.0287,-0.258928 0.0585,-0.14462 0.0298,0.114309 0.0278,0.272913 -0.004,0.352453 -0.0322,0.07954 -0.0566,-0.01398 -0.0542,-0.207833 z m -11.38127,-0.646163 c 0,-0.420006 0.0213,-0.591827 0.0474,-0.381824 0.0261,0.210003 0.0261,0.553644 0,0.763648 -0.0261,0.210003 -0.0474,0.03818 -0.0474,-0.381824 z m 2.5656,0.469937 c 0,-0.161541 0.0267,-0.227626 0.0593,-0.146856 0.0326,0.08077 0.0326,0.212941 0,0.293711 -0.0326,0.08077 -0.0593,0.01469 -0.0593,-0.146855 z m 39.83151,-0.05874 c 0.002,-0.193849 0.0287,-0.258929 0.0585,-0.14462 0.0298,0.114309 0.0278,0.272912 -0.004,0.352453 -0.0322,0.07954 -0.0566,-0.01398 -0.0542,-0.207833 z m 29.84535,-0.05874 c 0,-0.226157 0.0242,-0.318676 0.0537,-0.205597 0.0296,0.113079 0.0296,0.298116 0,0.411195 -0.0296,0.113078 -0.0537,0.02056 -0.0537,-0.205598 z m 7.78628,0.236314 c -0.0412,-0.0666 0.006,-0.08629 0.11056,-0.04617 0.20353,0.0781 0.24076,0.162311 0.0718,0.162311 -0.0608,0 -0.14285,-0.05226 -0.18233,-0.116139 z m 7.22445,0.06997 c 0,-0.0254 0.082,-0.07766 0.18232,-0.116139 0.10456,-0.04012 0.15172,-0.02042 0.11056,0.04617 -0.069,0.111635 -0.29288,0.165118 -0.29288,0.06997 z M 160.0356,38.707816 c 0.001,-0.323082 0.0237,-0.441308 0.0507,-0.262725 0.027,0.178584 0.0263,0.442923 -0.002,0.587422 -0.0279,0.144498 -0.05,-0.0016 -0.0491,-0.324697 z m 29.841,0 c 0.001,-0.323082 0.0237,-0.441308 0.0507,-0.262725 0.027,0.178584 0.0263,0.442923 -0.002,0.587422 -0.0279,0.144498 -0.05,-0.0016 -0.0491,-0.324697 z m -38.77378,0 c 0.001,-0.258466 0.0254,-0.350368 0.0535,-0.204228 0.0281,0.14614 0.027,0.357611 -0.002,0.469937 -0.0294,0.112326 -0.0524,-0.0072 -0.0511,-0.265709 z m 29.84101,0 c 0.001,-0.258466 0.0254,-0.350368 0.0535,-0.204228 0.0281,0.14614 0.027,0.357611 -0.002,0.469937 -0.0294,0.112326 -0.0524,-0.0072 -0.0511,-0.265709 z m -56.98659,0 c 0.002,-0.193849 0.0287,-0.258929 0.0585,-0.14462 0.0298,0.114309 0.0278,0.272912 -0.004,0.352453 -0.0322,0.07954 -0.0566,-0.01398 -0.0542,-0.207833 z m 77.9424,-0.122027 c -0.11336,-0.295436 -0.0799,-0.371667 0.0586,-0.133502 0.0686,0.117925 0.0999,0.239158 0.0697,0.269407 -0.0302,0.03025 -0.088,-0.03091 -0.12826,-0.135905 z M 187.2856,38.296621 c 0,-0.226157 0.0242,-0.318676 0.0537,-0.205598 0.0296,0.113079 0.0296,0.298117 0,0.411195 -0.0296,0.113079 -0.0537,0.02056 -0.0537,-0.205597 z m -29.84535,-0.05874 c 0.002,-0.193849 0.0287,-0.258929 0.0585,-0.14462 0.0298,0.114309 0.0278,0.272912 -0.004,0.352453 -0.0322,0.07954 -0.0566,-0.01398 -0.0542,-0.207833 z m 38.28056,0.234968 c 0,-0.06462 0.0512,-0.196786 0.11389,-0.293711 0.0626,-0.09692 0.11389,-0.123358 0.11389,-0.05874 0,0.06462 -0.0512,0.196786 -0.11389,0.293711 -0.0626,0.09692 -0.11389,0.123358 -0.11389,0.05874 z m 2.34968,0 c 0,-0.06462 0.0512,-0.196786 0.11389,-0.293711 0.0626,-0.09692 0.11389,-0.123358 0.11389,-0.05874 0,0.06462 -0.0513,0.196786 -0.11389,0.293711 -0.0626,0.09692 -0.11389,0.123358 -0.11389,0.05874 z m 1.47947,-0.122026 c -0.11336,-0.295437 -0.0799,-0.371667 0.0586,-0.133502 0.0686,0.117925 0.0999,0.239158 0.0697,0.269406 -0.0303,0.03025 -0.088,-0.03091 -0.12826,-0.135904 z m -81.94122,-0.171685 c 0,-0.16154 0.0267,-0.227625 0.0593,-0.146855 0.0326,0.08077 0.0326,0.21294 0,0.293711 -0.0326,0.08077 -0.0593,0.01469 -0.0593,-0.146856 z m 8.81567,-0.176226 c 0.002,-0.193849 0.0287,-0.258928 0.0585,-0.14462 0.0298,0.114309 0.0278,0.272913 -0.004,0.352453 -0.0322,0.07954 -0.0566,-0.01398 -0.0542,-0.207833 z m 20.33708,-0.411195 c 0,-0.35539 0.022,-0.500776 0.0489,-0.323081 0.0269,0.177694 0.0269,0.468468 0,0.646163 -0.0269,0.177695 -0.0489,0.03231 -0.0489,-0.323082 z m 1.86309,0.234969 c 0,-0.161541 0.0267,-0.227626 0.0593,-0.146856 0.0326,0.08077 0.0326,0.212941 0,0.293711 -0.0326,0.08077 -0.0593,0.01469 -0.0593,-0.146855 z m 29.83172,0.04895 c 0.006,-0.136863 0.0335,-0.164701 0.071,-0.07098 0.0339,0.08481 0.0298,0.18614 -0.009,0.225179 -0.039,0.03904 -0.0668,-0.03035 -0.0617,-0.154198 z M 42.903408,37.151149 C 43.232962,36.697807 59.57745,13.01323 64.537821,5.8010128 65.253125,4.7609845 65.986817,3.7300602 66.168249,3.5100699 L 66.498125,3.1100876 66.42988,3.5201414 C 66.368574,3.8885 65.627755,6.2181189 62.123552,17.062039 l -1.053752,3.260885 -2.132476,2.260875 c -1.172862,1.243481 -3.852078,4.084818 -5.953815,6.314082 -6.610697,7.011815 -8.034938,8.513436 -8.217973,8.664463 -0.112874,0.09314 -0.560206,0.146855 -1.222888,0.146855 h -1.04491 z m 4.804406,0.387897 c 0.02089,-0.09359 2.447672,-2.723764 5.392846,-5.844842 2.945173,-3.121078 6.026631,-6.388404 6.847685,-7.260725 1.497249,-1.590738 1.719338,-1.787191 1.719338,-1.520875 0,0.113766 -2.957951,9.40367 -4.4214,13.886093 l -0.297266,0.910502 h -4.639595 c -3.989657,0 -4.634273,-0.02384 -4.601608,-0.170153 z m 10.317857,0.02886 c 0,-0.07771 0.471174,-1.597665 1.047053,-3.377672 0.575879,-1.780007 1.666424,-5.166055 2.423433,-7.524551 0.75701,-2.358496 1.396943,-4.311085 1.422075,-4.339085 0.02513,-0.028 0.09991,0.0033 0.166178,0.06957 0.124441,0.124441 5.867296,15.003896 5.867296,15.201875 0,0.06829 -2.10671,0.111155 -5.463017,0.111155 -4.17746,0 -5.463018,-0.03325 -5.463018,-0.141296 z m 12.45333,0.01383 c 0,-0.07011 0.956591,-2.620987 2.125758,-5.668615 1.169167,-3.04763 2.418679,-6.307729 2.776695,-7.244666 0.789978,-2.067401 0.956938,-2.411501 1.100446,-2.267993 0.104649,0.104649 4.923137,14.983091 4.923137,15.201576 0,0.06303 -2.249921,0.107168 -5.463018,0.107168 -3.84902,0 -5.463018,-0.03766 -5.463018,-0.12747 z m 11.057857,-2.780265 c -2.701755,-8.372619 -3.773833,-11.747136 -3.773833,-11.878667 0,-0.256663 0.295661,0.0013 1.606134,1.401209 0.699727,0.747495 3.757022,3.991483 6.79399,7.208863 3.036968,3.21738 5.538854,5.923255 5.559745,6.013057 0.03193,0.137261 -0.701681,0.163273 -4.604878,0.163273 h -4.642863 z m 10.852956,0.404158 C 91.097487,33.829757 87.872545,30.408478 85.223275,27.60278 82.574005,24.797082 79.935104,21.997798 79.359051,21.38215 L 78.31168,20.262788 75.631482,11.921406 C 74.157375,7.3336464 72.950135,3.4761769 72.948728,3.349252 c -0.0022,-0.2013321 0.01838,-0.2088261 0.161601,-0.058742 0.09029,0.094617 1.420399,1.9959736 2.955803,4.2252372 1.535403,2.2292637 6.257124,9.0756578 10.492713,15.2142098 4.235589,6.138553 8.265646,11.980457 8.95568,12.98201 0.690034,1.001553 1.23098,1.860657 1.202102,1.909119 -0.02888,0.04846 -0.485545,0.08766 -1.014817,0.08711 l -0.962311,-0.0011 -2.349685,-2.501573 z m 22.742476,2.317561 c 0.006,-0.136863 0.0335,-0.164701 0.071,-0.07098 0.0339,0.08481 0.0298,0.186139 -0.009,0.225178 -0.039,0.03904 -0.0668,-0.03035 -0.0617,-0.154198 z m 44.7615,0 c 0.006,-0.136863 0.0335,-0.164701 0.071,-0.07098 0.0339,0.08481 0.0298,0.186139 -0.009,0.225178 -0.039,0.03904 -0.0668,-0.03035 -0.0617,-0.154198 z m 29.84099,0 c 0.006,-0.136863 0.0335,-0.164701 0.071,-0.07098 0.0339,0.08481 0.0298,0.186139 -0.009,0.225178 -0.039,0.03904 -0.0668,-0.03035 -0.0617,-0.154198 z M 126.2933,37.288215 c 0.006,-0.136864 0.0335,-0.164702 0.071,-0.07098 0.0339,0.08481 0.0298,0.18614 -0.009,0.225179 -0.039,0.03904 -0.0668,-0.03035 -0.0617,-0.154198 z m 12.58128,-0.234071 c -0.016,-0.388852 0.041,-0.53235 0.30334,-0.763648 l 0.32308,-0.284818 -0.2561,0.29371 c -0.14085,0.161541 -0.27735,0.505183 -0.30333,0.763648 l -0.0472,0.469937 z m 62.38347,0.121344 c -0.19683,-0.432023 -0.15928,-0.52419 0.0536,-0.131436 0.0994,0.183407 0.15874,0.355451 0.13187,0.382319 -0.0269,0.02687 -0.11031,-0.08603 -0.18543,-0.250883 z m -65.09608,-0.122242 c 0.006,-0.136863 0.0335,-0.164701 0.071,-0.07098 0.0339,0.08481 0.0298,0.186139 -0.009,0.225178 -0.039,0.03904 -0.0668,-0.03035 -0.0617,-0.154198 z m 60.14626,0.127274 c 0,-0.06462 0.0512,-0.196786 0.11389,-0.29371 0.0626,-0.09692 0.11389,-0.123359 0.11389,-0.05874 0,0.06462 -0.0513,0.196786 -0.11389,0.29371 -0.0627,0.09692 -0.11389,0.123359 -0.11389,0.05874 z m 2.46525,-0.107414 c 0.0761,-0.07608 0.15553,-0.07608 0.23161,0 0.0761,0.07608 0.0364,0.115806 -0.1158,0.115806 -0.15217,0 -0.19189,-0.03972 -0.11581,-0.115806 z m -67.67261,-0.179362 c 0,-0.0608 0.0523,-0.142852 0.11614,-0.182329 0.0666,-0.04116 0.0863,0.006 0.0462,0.11055 -0.0781,0.203532 -0.16232,0.240771 -0.16232,0.07178 z m 42.41182,-0.234969 c 0,-0.0608 0.0523,-0.142851 0.11613,-0.182328 0.0666,-0.04116 0.0863,0.006 0.0462,0.11055 -0.0781,0.203532 -0.16231,0.240771 -0.16231,0.07178 z m -55.15886,-0.241902 c 0.11696,-0.129233 0.23908,-0.234969 0.27139,-0.234969 0.0323,0 -0.037,0.105736 -0.1539,0.234969 -0.11696,0.129232 -0.23908,0.234968 -0.27139,0.234968 -0.0323,0 0.037,-0.105736 0.1539,-0.234968 z m 25.38415,0.03444 c -0.0637,-0.167439 -0.0503,-0.180933 0.0658,-0.06577 0.0803,0.07969 0.11639,0.174492 0.0802,0.210665 -0.0362,0.03617 -0.10187,-0.02903 -0.14599,-0.144897 z m 2.88009,0.01451 c 0.006,-0.136863 0.0335,-0.164701 0.071,-0.07098 0.0339,0.08481 0.0298,0.18614 -0.009,0.225179 -0.039,0.03904 -0.0668,-0.03035 -0.0617,-0.154198 z m 9.79513,-0.313292 -0.46441,-0.499308 0.49931,0.464409 c 0.46435,0.431896 0.5533,0.534207 0.46441,0.534207 -0.0192,0 -0.24388,-0.224688 -0.49931,-0.499308 z m 29.841,0 -0.46441,-0.499308 0.49931,0.464409 c 0.27462,0.255425 0.49931,0.480114 0.49931,0.499308 0,0.08889 -0.10232,-5.7e-5 -0.53421,-0.464409 z m -116.705447,0.16484 c -0.06581,-0.122961 -0.998423,-2.516715 -2.072481,-5.319453 -1.074057,-2.802739 -2.397434,-6.252451 -2.940836,-7.666027 -0.543404,-1.413577 -0.988005,-2.672723 -0.988005,-2.798104 0,-0.397601 6.033608,-19.0097636 6.162315,-19.0091937 0.0677,2.996e-4 0.501928,1.1766108 0.96495,2.6140245 0.463022,1.4374139 1.802466,5.5947323 2.976544,9.2384862 1.174077,3.643752 2.159304,6.789393 2.189391,6.990313 0.05215,0.348253 -0.393397,1.548324 -5.555454,14.963472 -0.230149,0.598112 -0.463076,1.115056 -0.517614,1.148762 -0.05454,0.03371 -0.153004,-0.03932 -0.21881,-0.16228 z m 62.022057,-0.07673 c 0.15176,-0.161541 0.30236,-0.29371 0.33467,-0.29371 0.0323,0 -0.0654,0.132169 -0.21718,0.29371 -0.15176,0.161541 -0.30237,0.293711 -0.33467,0.293711 -0.0323,0 0.0654,-0.13217 0.21718,-0.293711 z m 33.36553,0.256949 c 0,-0.02022 0.17182,-0.19204 0.38182,-0.381824 l 0.38183,-0.345062 -0.34507,0.381824 c -0.32165,0.355914 -0.41858,0.435826 -0.41858,0.345062 z m -42.01178,-0.345062 -0.22381,-0.264339 0.26434,0.223806 c 0.24841,0.210323 0.31782,0.304873 0.22381,0.304873 -0.0223,0 -0.14125,-0.118953 -0.26434,-0.26434 z m 29.206,-0.02937 c 0.15176,-0.161541 0.30236,-0.293711 0.33466,-0.293711 0.0323,0 -0.0654,0.13217 -0.21718,0.293711 -0.15176,0.161541 -0.30236,0.293711 -0.33467,0.293711 -0.0323,0 0.0654,-0.13217 0.21719,-0.293711 z m 29.78225,0.05874 c 0.11696,-0.129232 0.23908,-0.234968 0.27139,-0.234968 0.0323,0 -0.0369,0.105736 -0.1539,0.234968 -0.11696,0.129233 -0.23908,0.234969 -0.27139,0.234969 -0.0323,0 0.037,-0.105736 0.1539,-0.234969 z m -38.49108,-0.195266 c -0.0887,-0.107396 -0.31984,-0.292236 -0.51369,-0.410755 -0.19385,-0.118519 -0.28559,-0.215688 -0.20387,-0.215929 0.1476,-4.7e-4 1.09357,0.81269 0.95253,0.818771 -0.0405,0.0018 -0.14628,-0.08469 -0.23497,-0.192087 z m -24.6567,0.03343 c 0,-0.0244 0.0925,-0.116915 0.2056,-0.205598 0.18633,-0.146135 0.19049,-0.14198 0.0443,0.04436 -0.15347,0.1957 -0.24995,0.257935 -0.24995,0.161241 z m 16.73034,-0.219983 -0.2238,-0.264339 0.26433,0.223806 c 0.14539,0.123093 0.26434,0.242046 0.26434,0.26434 0,0.09402 -0.0945,0.02461 -0.30487,-0.223807 z m 32.94347,-0.285852 c 0.0848,-0.03394 0.18614,-0.02976 0.22518,0.0093 0.039,0.03904 -0.0304,0.06681 -0.1542,0.06171 -0.13687,-0.0056 -0.1647,-0.03348 -0.071,-0.07098 z m 8.56901,0.0024 c 0.0808,-0.03259 0.21294,-0.03259 0.29371,0 0.0808,0.03259 0.0147,0.05926 -0.14686,0.05926 -0.16154,0 -0.22763,-0.02667 -0.14685,-0.05926 z m -70.31271,-0.123981 c 0.17858,-0.02701 0.44292,-0.02628 0.58742,0.0016 0.1445,0.02789 -0.002,0.04998 -0.3247,0.0491 -0.32308,-9.4e-4 -0.44131,-0.0237 -0.26272,-0.0507 z m 4.52153,-0.0027 c 0.40385,-0.02294 1.0647,-0.02294 1.46855,0 0.40385,0.02294 0.0734,0.04171 -0.73428,0.04171 -0.8077,0 -1.13813,-0.01877 -0.73427,-0.04171 z m 63.91877,0.0067 c 0.0848,-0.03394 0.18614,-0.02976 0.22518,0.0093 0.039,0.03904 -0.0304,0.06681 -0.1542,0.06171 -0.13687,-0.0056 -0.1647,-0.03348 -0.071,-0.07098 z m -61.6572,-0.08159 c 0,-0.0244 0.0925,-0.116914 0.20559,-0.205597 0.18634,-0.146135 0.1905,-0.14198 0.0444,0.04436 -0.15348,0.195699 -0.24995,0.257934 -0.24995,0.16124 z m 6.67457,-0.0359 c 0.0848,-0.03394 0.18614,-0.02976 0.22518,0.0093 0.039,0.03904 -0.0303,0.06681 -0.1542,0.06171 -0.13686,-0.0056 -0.1647,-0.03348 -0.071,-0.07098 z m 1.05736,0 c 0.0848,-0.03394 0.18614,-0.02976 0.22518,0.0093 0.039,0.03904 -0.0303,0.06681 -0.1542,0.06171 -0.13686,-0.0056 -0.1647,-0.03348 -0.071,-0.07098 z m 12.10088,0 c 0.0848,-0.03394 0.18614,-0.02976 0.22518,0.0093 0.039,0.03904 -0.0304,0.06681 -0.1542,0.06171 -0.13687,-0.0056 -0.1647,-0.03348 -0.071,-0.07098 z m 1.05736,0 c 0.0848,-0.03394 0.18613,-0.02976 0.22517,0.0093 0.039,0.03904 -0.0303,0.06681 -0.15419,0.06171 -0.13687,-0.0056 -0.16471,-0.03348 -0.071,-0.07098 z m 6.68925,0.0024 c 0.0808,-0.03259 0.21294,-0.03259 0.29372,0 0.0808,0.03259 0.0147,0.05926 -0.14686,0.05926 -0.16154,0 -0.22763,-0.02667 -0.14686,-0.05926 z m 1.18219,-0.0024 c 0.0848,-0.03394 0.18614,-0.02976 0.22518,0.0093 0.039,0.03904 -0.0304,0.06681 -0.1542,0.06171 -0.13686,-0.0056 -0.1647,-0.03348 -0.071,-0.07098 z m 11.51346,0 c 0.0848,-0.03394 0.18614,-0.02976 0.22517,0.0093 0.039,0.03904 -0.0303,0.06681 -0.15419,0.06171 -0.13687,-0.0056 -0.1647,-0.03348 -0.071,-0.07098 z m 1.05735,0 c 0.0848,-0.03394 0.18614,-0.02976 0.22518,0.0093 0.039,0.03904 -0.0303,0.06681 -0.15419,0.06171 -0.13687,-0.0056 -0.16471,-0.03348 -0.071,-0.07098 z m 12.32988,-0.0028 c 0.14614,-0.0281 0.35761,-0.02704 0.46994,0.0024 0.11231,0.0294 -0.007,0.0524 -0.26571,0.05109 -0.25847,-0.0013 -0.35038,-0.02536 -0.20423,-0.05347 z m 8.63372,0.0021 c 0.11308,-0.02955 0.29812,-0.02955 0.4112,0 0.11307,0.02955 0.0206,0.05373 -0.2056,0.05373 -0.22616,0 -0.31868,-0.02418 -0.2056,-0.05373 z m 7.82005,7.05e-4 c 0.0848,-0.03394 0.18614,-0.02976 0.22518,0.0093 0.039,0.03904 -0.0304,0.06681 -0.1542,0.06171 -0.13687,-0.0056 -0.1647,-0.03348 -0.071,-0.07098 z m 1.05735,0 c 0.0848,-0.03394 0.18615,-0.02976 0.22519,0.0093 0.039,0.03904 -0.0304,0.06681 -0.1542,0.06171 -0.13687,-0.0056 -0.1647,-0.03348 -0.071,-0.07098 z m -34.98827,-0.08155 c 0,-0.0244 0.0925,-0.116915 0.20559,-0.205598 0.18634,-0.146135 0.1905,-0.141979 0.0444,0.04436 -0.15348,0.195699 -0.24995,0.257934 -0.24995,0.16124 z m 29.841,0 c 0,-0.0244 0.0925,-0.116915 0.20559,-0.205598 0.18634,-0.146135 0.19049,-0.141979 0.0444,0.04436 -0.15348,0.195699 -0.24995,0.257934 -0.24995,0.16124 z m -63.08905,-0.366838 c 0.15176,-0.161541 0.30236,-0.29371 0.33467,-0.29371 0.0323,0 -0.0654,0.132169 -0.21718,0.29371 -0.15176,0.161541 -0.30236,0.293711 -0.33467,0.293711 -0.0323,0 0.0654,-0.13217 0.21718,-0.293711 z m 29.67233,0.09318 c -0.0638,-0.167439 -0.0503,-0.180933 0.0658,-0.06577 0.0803,0.07969 0.11639,0.174492 0.0802,0.210664 -0.0362,0.03617 -0.10186,-0.02903 -0.14598,-0.144896 z m 12.5521,-0.06381 -0.22381,-0.264339 0.26434,0.223806 c 0.24842,0.210323 0.31783,0.304873 0.22381,0.304873 -0.0223,0 -0.14125,-0.118953 -0.26434,-0.26434 z m 29.841,0 -0.22381,-0.264339 0.26434,0.223806 c 0.24841,0.210323 0.31782,0.304873 0.22381,0.304873 -0.0223,0 -0.14125,-0.118953 -0.26434,-0.26434 z m -82.60141,-0.675534 c 0,-0.420006 0.0213,-0.591827 0.0474,-0.381824 0.0261,0.210003 0.0261,0.553645 0,0.763648 -0.0261,0.210003 -0.0474,0.03818 -0.0474,-0.381824 z m 18.87104,0.264339 -0.40487,-0.440565 0.44057,0.40487 c 0.41007,0.376844 0.49458,0.476261 0.40487,0.476261 -0.0196,0 -0.21789,-0.198254 -0.44057,-0.440566 z m 25.55915,-0.02937 c 0.11695,-0.129232 0.23908,-0.234968 0.27139,-0.234968 0.0323,0 -0.0369,0.105736 -0.15391,0.234968 -0.11695,0.129233 -0.23907,0.234969 -0.27138,0.234969 -0.0323,0 0.0369,-0.105736 0.1539,-0.234969 z m 29.841,0 c 0.11695,-0.129232 0.23908,-0.234968 0.27139,-0.234968 0.0323,0 -0.037,0.105736 -0.15391,0.234968 -0.11695,0.129233 -0.23908,0.234969 -0.27139,0.234969 -0.0323,0 0.0369,-0.105736 0.15391,-0.234969 z m -42.53669,-0.381823 -0.34506,-0.381824 0.38182,0.345062 c 0.21,0.189784 0.38183,0.361604 0.38183,0.381823 0,0.09076 -0.0969,0.01086 -0.41859,-0.345061 z m -20.43487,0.02937 c 0.11696,-0.129233 0.23908,-0.234969 0.27139,-0.234969 0.0323,0 -0.0369,0.105736 -0.1539,0.234969 -0.11696,0.129232 -0.23908,0.234968 -0.27139,0.234968 -0.0323,0 0.0369,-0.105736 0.1539,-0.234968 z m 21.20591,0.190611 c 0,-0.0244 0.0925,-0.116915 0.2056,-0.205598 0.18633,-0.146135 0.19049,-0.141979 0.0444,0.04436 -0.15348,0.195699 -0.24995,0.257934 -0.24995,0.16124 z m 6.98292,-0.337467 -0.34506,-0.381823 0.38182,0.345061 c 0.21001,0.189784 0.38183,0.361605 0.38183,0.381824 0,0.09076 -0.0969,0.01086 -0.41859,-0.345062 z m -14.79479,0.148201 c -0.0412,-0.0666 0.006,-0.08629 0.11055,-0.04617 0.20353,0.0781 0.24077,0.162312 0.0718,0.162312 -0.0608,0 -0.14286,-0.05226 -0.18233,-0.116139 z m 27.18178,-0.08946 c -0.14613,-0.186337 -0.14198,-0.190492 0.0444,-0.04436 0.1957,0.153478 0.25793,0.249955 0.16124,0.249955 -0.0244,0 -0.11691,-0.09252 -0.2056,-0.205598 z m 6.94656,-0.08811 c 0.15175,-0.161541 0.30236,-0.29371 0.33467,-0.29371 0.0323,0 -0.0654,0.132169 -0.21719,0.29371 -0.15175,0.161541 -0.30235,0.293711 -0.33466,0.293711 -0.0323,0 0.0654,-0.13217 0.21718,-0.293711 z m 22.89444,0.08811 c -0.14613,-0.186337 -0.14198,-0.190492 0.0444,-0.04436 0.19569,0.153478 0.25794,0.249955 0.16124,0.249955 -0.0244,0 -0.11691,-0.09252 -0.2056,-0.205598 z m -56.61242,0.04376 c 0,-0.02439 0.0925,-0.116914 0.2056,-0.205597 0.18633,-0.146135 0.19049,-0.14198 0.0444,0.04436 -0.15348,0.1957 -0.24996,0.257935 -0.24996,0.16124 z m 19.85484,0 c 0,-0.02439 0.0925,-0.116914 0.2056,-0.205597 0.18633,-0.146135 0.19049,-0.14198 0.0443,0.04436 -0.15347,0.1957 -0.24995,0.257935 -0.24995,0.16124 z m 29.841,0 c 0,-0.02439 0.0925,-0.116914 0.2056,-0.205597 0.18634,-0.146135 0.19048,-0.14198 0.0444,0.04436 -0.15348,0.1957 -0.24996,0.257935 -0.24996,0.16124 z m -11.02752,-0.330805 c -0.009,-0.180446 -0.12821,-0.39501 -0.27711,-0.499308 -0.14361,-0.100588 -0.20467,-0.182888 -0.13569,-0.182888 0.23725,0 0.53387,0.44684 0.48098,0.724588 -0.0479,0.251799 -0.0535,0.248359 -0.0682,-0.04239 z m 3.86098,0.09584 c 0,-0.0244 0.0925,-0.116915 0.2056,-0.205598 0.18634,-0.146135 0.19049,-0.141979 0.0444,0.04436 -0.15348,0.195699 -0.24996,0.257934 -0.24996,0.16124 z m -2.8179,-0.201774 c -0.003,-0.349259 0.39751,-0.576259 1.01731,-0.576259 0.5642,0 0.9782,0.226297 0.9782,0.534701 0,0.05775 -0.0841,-0.01499 -0.18678,-0.161655 -0.16268,-0.232265 -0.27216,-0.262155 -0.84886,-0.231738 -0.57081,0.0301 -0.68247,0.0754 -0.8101,0.328629 -0.0923,0.183067 -0.14869,0.223119 -0.14977,0.106322 z m -52.58284,-0.158582 c 0.12543,-0.10049 0.27963,-0.182708 0.34266,-0.182708 0.14927,0 0.0826,0.05427 -0.277,0.225536 -0.27695,0.131893 -0.28069,0.129447 -0.0657,-0.04283 z m 12.05387,-0.118158 c -0.0792,-0.09544 -0.40858,-0.189256 -0.74866,-0.213236 l -0.60723,-0.04282 0.59859,-0.02173 c 0.46748,-0.01697 0.64515,0.02973 0.81122,0.213236 0.11696,0.129233 0.18449,0.234968 0.15008,0.234968 -0.0344,0 -0.12621,-0.07669 -0.204,-0.170418 z m 74.12774,0.126061 c 0,-0.0244 0.0925,-0.116914 0.2056,-0.205597 0.18634,-0.146136 0.19049,-0.14198 0.0444,0.04436 -0.15348,0.195699 -0.24996,0.257934 -0.24996,0.16124 z m -90.71283,-0.278724 c -0.14613,-0.186337 -0.14197,-0.190493 0.0444,-0.04436 0.1957,0.153478 0.25794,0.249955 0.16124,0.249955 -0.0244,0 -0.11691,-0.09252 -0.2056,-0.205597 z m 52.02918,0.07353 c 0.0797,-0.08029 0.1745,-0.116388 0.21067,-0.08022 0.0362,0.03617 -0.029,0.101865 -0.1449,0.145984 -0.16744,0.06376 -0.18093,0.05026 -0.0658,-0.06577 z m 40.09346,-0.102905 -0.99861,-0.07371 0.96231,-0.02189 c 0.53985,-0.01228 0.99419,0.02969 1.03492,0.0956 0.0399,0.06462 0.0563,0.107634 0.0363,0.0956 -0.02,-0.01204 -0.48568,-0.05506 -1.03492,-0.0956 z m -42.96986,-0.08415 c 0.17769,-0.02692 0.46847,-0.02692 0.64616,0 0.1777,0.02692 0.0323,0.04894 -0.32308,0.04894 -0.35539,0 -0.50078,-0.02202 -0.32308,-0.04894 z m 28.7249,-0.0019 c 0.27462,-0.02473 0.72399,-0.02473 0.99861,0 0.27462,0.02473 0.0499,0.04497 -0.4993,0.04497 -0.54924,0 -0.77393,-0.02024 -0.49931,-0.04497 z m 6.72597,0.04167 c 0,-0.0244 0.0925,-0.116915 0.2056,-0.205598 0.18634,-0.146135 0.19049,-0.14198 0.0444,0.04436 -0.15348,0.195699 -0.24996,0.257934 -0.24996,0.16124 z m 1.04237,-0.16124 c -0.14613,-0.186338 -0.14198,-0.190493 0.0444,-0.04436 0.19569,0.153478 0.25794,0.249955 0.16124,0.249955 -0.0244,0 -0.11691,-0.09252 -0.2056,-0.205597 z m -88.86922,-0.06496 c -0.0323,-0.08419 -0.0421,-0.837555 -0.0218,-1.674151 l 0.0369,-1.521081 0.0255,1.605618 c 0.0184,1.154621 0.0668,1.622263 0.17239,1.664875 0.11503,0.04641 0.11423,0.06127 -0.004,0.06853 -0.0828,0.0051 -0.17697,-0.0596 -0.20928,-0.143793 z m 9.43549,-0.04222 c 0.0808,-0.03259 0.21294,-0.03259 0.29371,0 0.0808,0.03259 0.0147,0.05926 -0.14686,0.05926 -0.16154,0 -0.22762,-0.02667 -0.14685,-0.05926 z m 1.7696,-0.0024 c 0.0848,-0.03394 0.18614,-0.02977 0.22518,0.0093 0.039,0.03904 -0.0303,0.06681 -0.1542,0.0617 -0.13686,-0.0056 -0.1647,-0.03348 -0.071,-0.07098 z m 11.85857,0.0024 c 0.0808,-0.03259 0.21294,-0.03259 0.29371,0 0.0808,0.03259 0.0147,0.05926 -0.14686,0.05926 -0.16154,0 -0.22762,-0.02667 -0.14685,-0.05926 z m 1.7696,-0.0024 c 0.0848,-0.03394 0.18614,-0.02977 0.22518,0.0093 0.039,0.03904 -0.0303,0.06681 -0.15419,0.0617 -0.13687,-0.0056 -0.16471,-0.03348 -0.071,-0.07098 z m 6.10919,0 c 0.0848,-0.03394 0.18614,-0.02977 0.22517,0.0093 0.039,0.03904 -0.0303,0.06681 -0.15419,0.0617 -0.13687,-0.0056 -0.1647,-0.03348 -0.071,-0.07098 z m 1.63743,0.0024 c 0.0808,-0.03259 0.21294,-0.03259 0.29371,0 0.0808,0.03259 0.0147,0.05926 -0.14685,0.05926 -0.16154,0 -0.22763,-0.02667 -0.14686,-0.05926 z m 10.46344,-0.0024 c 0.0848,-0.03394 0.18614,-0.02977 0.22518,0.0093 0.039,0.03904 -0.0303,0.06681 -0.1542,0.0617 -0.13686,-0.0056 -0.1647,-0.03348 -0.071,-0.07098 z m 1.63744,0.0024 c 0.0808,-0.03259 0.21294,-0.03259 0.29371,0 0.0808,0.03259 0.0147,0.05926 -0.14685,0.05926 -0.16155,0 -0.22763,-0.02667 -0.14686,-0.05926 z m 11.75577,-0.0024 c 0.0848,-0.03394 0.18614,-0.02977 0.22518,0.0093 0.039,0.03904 -0.0304,0.06681 -0.1542,0.0617 -0.13687,-0.0056 -0.1647,-0.03348 -0.071,-0.07098 z m 1.51995,0.0024 c 0.0808,-0.03259 0.21294,-0.03259 0.29371,0 0.0808,0.03259 0.0147,0.05926 -0.14685,0.05926 -0.16154,0 -0.22763,-0.02667 -0.14686,-0.05926 z m 7.04906,0 c 0.0808,-0.03259 0.21294,-0.03259 0.29371,0 0.0808,0.03259 0.0147,0.05926 -0.14686,0.05926 -0.16154,0 -0.22762,-0.02667 -0.14685,-0.05926 z m 1.64478,0 c 0.0808,-0.03259 0.21294,-0.03259 0.29371,0 0.0808,0.03259 0.0147,0.05926 -0.14686,0.05926 -0.16154,0 -0.22763,-0.02667 -0.14685,-0.05926 z m 6.234,-0.0024 c 0.0848,-0.03394 0.18615,-0.02977 0.22519,0.0093 0.039,0.03904 -0.0304,0.06681 -0.1542,0.0617 -0.13687,-0.0056 -0.1647,-0.03348 -0.071,-0.07098 z m 1.63744,0.0024 c 0.0808,-0.03259 0.21294,-0.03259 0.29371,0 0.0808,0.03259 0.0147,0.05926 -0.14685,0.05926 -0.16155,0 -0.22763,-0.02667 -0.14686,-0.05926 z m -77.22924,-1.566972 c 0,-0.872321 0.0185,-1.229179 0.0411,-0.793019 0.0226,0.43616 0.0226,1.149877 0,1.586037 -0.0226,0.436161 -0.0411,0.0793 -0.0411,-0.793018 z m 0.573,-1.961164 c 0.11431,-0.02979 0.27291,-0.02783 0.35246,0.0044 0.0795,0.03218 -0.014,0.05655 -0.20784,0.05416 -0.19385,-0.0024 -0.25893,-0.02872 -0.14462,-0.05851 z M 148.2242,25.41303 c 0.0808,-0.03259 0.21294,-0.03259 0.29371,0 0.0808,0.03259 0.0147,0.05926 -0.14685,0.05926 -0.16154,0 -0.22763,-0.02667 -0.14686,-0.05926 z m 1.5273,0 c 0.0808,-0.03259 0.21294,-0.03259 0.29371,0 0.0808,0.03259 0.0147,0.05926 -0.14686,0.05926 -0.16154,0 -0.22762,-0.02667 -0.14685,-0.05926 z m -24.55421,-0.117484 c 0.0808,-0.03259 0.21294,-0.03259 0.29371,0 0.0808,0.03259 0.0147,0.05926 -0.14685,0.05926 -0.16154,0 -0.22763,-0.02667 -0.14686,-0.05926 z m 1.76226,0 c 0.0808,-0.03259 0.21294,-0.03259 0.29372,0 0.0808,0.03259 0.0147,0.05926 -0.14686,0.05926 -0.16154,0 -0.22763,-0.02667 -0.14686,-0.05926 z m 20.68458,-0.0024 c 0.0848,-0.03394 0.18614,-0.02977 0.22517,0.0093 0.039,0.03904 -0.0303,0.06681 -0.15419,0.06171 -0.13687,-0.0056 -0.16471,-0.03348 -0.071,-0.07098 z m -39.27646,-0.111433 c 0.8415,-0.08737 1.79486,-0.09498 1.74445,-0.01391 -0.0301,0.04846 -0.51427,0.07965 -1.07585,0.06931 -0.56158,-0.01034 -0.86245,-0.03527 -0.6686,-0.0554 z m 8.37075,-0.01182 c 0.27462,-0.02473 0.724,-0.02473 0.99862,0 0.27462,0.02473 0.0499,0.04497 -0.49931,0.04497 -0.54924,0 -0.77392,-0.02024 -0.49931,-0.04497 z m 7.87879,0.0058 c 0.0848,-0.03394 0.18614,-0.02976 0.22518,0.0093 0.039,0.03904 -0.0303,0.06681 -0.1542,0.0617 -0.13686,-0.0056 -0.1647,-0.03348 -0.071,-0.07098 z m 8.70088,-0.242827 c -0.14614,-0.186337 -0.14198,-0.190492 0.0444,-0.04436 0.1957,0.153478 0.25793,0.249955 0.16124,0.249955 -0.0244,0 -0.11692,-0.09252 -0.2056,-0.205598 z m 2.3353,-0.0098 c 0.11308,-0.118464 0.22635,-0.199043 0.25171,-0.179066 0.0694,0.05467 -0.23572,0.394453 -0.35421,0.394453 -0.0567,0 -0.0106,-0.09692 0.1025,-0.215387 z m 3.19909,0.03632 c -0.21597,-0.26023 -0.0931,-0.290146 0.14921,-0.03632 0.11308,0.118463 0.1592,0.215387 0.1025,0.215387 -0.0567,0 -0.16998,-0.08058 -0.25171,-0.179066 z m 2.23456,0.134705 c 0,-0.0244 0.0925,-0.116914 0.20559,-0.205597 0.18634,-0.146135 0.1905,-0.14198 0.0444,0.04436 -0.15348,0.1957 -0.24995,0.257935 -0.24995,0.16124 z m -33.427,-9.765577 c -10e-6,-5.233924 0.0144,-7.3922346 0.032,-4.796247 0.0176,2.595988 0.0177,6.878288 2e-5,9.516225 -0.0176,2.637935 -0.0321,0.513945 -0.0321,-4.719978 z m 10.92188,6.109181 c 5e-5,-1.873874 0.0163,-2.624007 0.036,-1.666964 0.0198,0.957044 0.0197,2.490213 -1e-4,3.407043 -0.0198,0.916831 -0.036,0.133795 -0.0359,-1.740079 z m 10.52172,3.302128 c 0,-0.02539 0.082,-0.07766 0.18233,-0.116139 0.10455,-0.04012 0.15171,-0.02042 0.11055,0.04617 -0.069,0.111635 -0.29288,0.165118 -0.29288,0.06997 z m -13.22407,-3.302128 c 6e-5,-1.809258 0.0164,-2.532992 0.0362,-1.608301 0.0199,0.924693 0.0198,2.404994 -1.1e-4,3.289559 -0.0199,0.884566 -0.0362,0.127999 -0.0361,-1.681258 z m 25.61593,-6.226666 c 0,-5.2339229 0.0144,-7.3922338 0.0321,-4.796246 0.0176,2.595987 0.0176,6.878288 1e-5,9.516224 -0.0176,2.637935 -0.0321,0.513946 -0.0321,-4.719978 z m -8.34141,0 c 1e-5,-5.169307 0.0145,-7.266868 0.0321,-4.661247 0.0176,2.605621 0.0176,6.835054 -2e-5,9.39874 -0.0177,2.563686 -0.0321,0.431814 -0.0321,-4.737493 z m 19.09395,9.295641 c 0,-0.0244 0.0925,-0.116914 0.2056,-0.205597 0.18633,-0.146136 0.19049,-0.14198 0.0443,0.04436 -0.15347,0.195699 -0.24995,0.257934 -0.24995,0.16124 z m -7.11221,-0.689919 -0.58301,-0.616793 0.61679,0.583006 c 0.57314,0.541738 0.67067,0.650579 0.58301,0.650579 -0.0186,0 -0.29614,-0.277556 -0.61679,-0.616792 z m -22.62629,0.29371 c -0.14614,-0.186337 -0.14198,-0.190492 0.0444,-0.04436 0.19569,0.153478 0.25793,0.249955 0.16124,0.249955 -0.0244,0 -0.11692,-0.09252 -0.2056,-0.205598 z m 7.65146,0.04376 c 0,-0.0244 0.0925,-0.116914 0.2056,-0.205597 0.18634,-0.146135 0.19049,-0.14198 0.0444,0.04436 -0.15348,0.1957 -0.24996,0.257935 -0.24996,0.16124 z m 22.67446,-0.117484 c 0,-0.0244 0.0925,-0.116914 0.2056,-0.205597 0.18634,-0.146136 0.19049,-0.14198 0.0444,0.04436 -0.15348,0.195699 -0.24996,0.257934 -0.24996,0.16124 z m -22.31273,-0.494112 c 0.006,-0.136863 0.0335,-0.164701 0.071,-0.07098 0.0339,0.08481 0.0298,0.186138 -0.009,0.225178 -0.039,0.03904 -0.0668,-0.03035 -0.0617,-0.154198 z m -8.77302,-0.195807 -0.2238,-0.26434 0.26434,0.223807 c 0.24841,0.210322 0.31782,0.304872 0.2238,0.304872 -0.0223,0 -0.14124,-0.118952 -0.26434,-0.264339 z m 31.67317,-0.01499 c 0,-0.0244 0.0925,-0.116915 0.2056,-0.205598 0.18634,-0.146135 0.19049,-0.14198 0.0444,0.04436 -0.15348,0.1957 -0.24996,0.257935 -0.24996,0.161241 z m -27.22474,-0.272027 c 0.11431,-0.02979 0.27292,-0.02783 0.35246,0.0044 0.0795,0.03218 -0.014,0.05655 -0.20784,0.05416 -0.19385,-0.0024 -0.25893,-0.02873 -0.14462,-0.05851 z m 0.88624,-0.116324 c 0.0848,-0.03394 0.18614,-0.02976 0.22518,0.0093 0.039,0.03904 -0.0303,0.06681 -0.1542,0.0617 -0.13686,-0.0056 -0.1647,-0.03348 -0.071,-0.07098 z m 21.90571,-0.0012 c 0.11431,-0.02979 0.27291,-0.02783 0.35245,0.0044 0.0795,0.03218 -0.014,0.05655 -0.20783,0.05416 -0.19385,-0.0024 -0.25893,-0.02872 -0.14462,-0.05851 z M 127.9288,22.671215 c 0.0969,-0.06264 0.22909,-0.113885 0.29371,-0.113885 0.0646,0 0.0382,0.05125 -0.0587,0.113885 -0.0969,0.06264 -0.2291,0.113886 -0.29371,0.113886 -0.0646,0 -0.0382,-0.05125 0.0587,-0.113886 z m 1.98225,-0.08811 c -0.14614,-0.186337 -0.14198,-0.190492 0.0444,-0.04436 0.1957,0.153478 0.25794,0.249955 0.16124,0.249955 -0.0244,0 -0.11691,-0.09252 -0.20559,-0.205598 z m -8.80172,-0.156918 c -0.0721,-0.134766 -0.10901,-0.267159 -0.082,-0.294206 0.027,-0.02705 0.1095,0.08322 0.18322,0.24503 0.16191,0.355336 0.0831,0.393617 -0.10126,0.04918 z m 29.25896,0.198859 c 0,-0.0254 0.0821,-0.07766 0.18233,-0.116139 0.10455,-0.04012 0.15171,-0.02042 0.11055,0.04617 -0.069,0.111635 -0.29288,0.165119 -0.29288,0.06997 z m -26.32279,-0.511878 -0.40488,-0.440566 0.44057,0.404871 c 0.41007,0.376844 0.49458,0.476261 0.40487,0.476261 -0.0196,0 -0.21789,-0.198255 -0.44056,-0.440566 z m 27.14518,-0.08811 c 0.2192,-0.226157 0.42498,-0.411195 0.45729,-0.411195 0.0323,0 -0.1206,0.185038 -0.3398,0.411195 -0.2192,0.226157 -0.42498,0.411195 -0.45729,0.411195 -0.0323,0 0.1206,-0.185038 0.3398,-0.411195 z m -4.59687,-0.381824 c -0.14614,-0.186337 -0.14198,-0.190492 0.0444,-0.04436 0.1957,0.153478 0.25793,0.249955 0.16124,0.249955 -0.0244,0 -0.11692,-0.09252 -0.2056,-0.205598 z m 5.19373,-0.381824 c 0.17127,-0.359622 0.22553,-0.426272 0.22553,-0.277004 0,0.06304 -0.0822,0.217234 -0.18271,0.342663 -0.17227,0.215032 -0.17472,0.211283 -0.0428,-0.06566 z m 2.81946,-0.3035 c 0.006,-0.136864 0.0335,-0.164701 0.071,-0.07098 0.0339,0.08481 0.0298,0.186139 -0.009,0.225179 -0.039,0.03904 -0.0668,-0.03035 -0.0617,-0.154198 z m -11.161,-0.352453 c 0.006,-0.136863 0.0335,-0.164701 0.071,-0.07098 0.0339,0.08481 0.0298,0.186138 -0.009,0.225178 -0.039,0.03904 -0.0668,-0.03035 -0.0617,-0.154198 z m -20.31115,-0.225179 c 0.002,-0.193849 0.0287,-0.258928 0.0585,-0.144619 0.0298,0.114309 0.0278,0.272912 -0.004,0.352453 -0.0322,0.07954 -0.0565,-0.01398 -0.0542,-0.207834 z m 31.59891,-0.05874 c 0,-0.16154 0.0267,-0.227625 0.0593,-0.146855 0.0326,0.08077 0.0326,0.21294 0,0.293711 -0.0326,0.08077 -0.0593,0.01469 -0.0593,-0.146856 z m -34.28368,-0.881132 c 4.7e-4,-0.51693 0.0211,-0.713788 0.0459,-0.43746 0.0248,0.276327 0.0245,0.699271 -8.2e-4,0.939874 -0.0252,0.240603 -0.0455,0.01452 -0.0451,-0.502414 z m 25.47671,0.469937 c 0.002,-0.193849 0.0287,-0.258928 0.0585,-0.144619 0.0298,0.114309 0.0278,0.272912 -0.004,0.352453 -0.0322,0.07954 -0.0566,-0.01399 -0.0542,-0.207834 z m -18.83043,0.08815 c 2.80192,-0.02407 3.85742,-0.07108 3.99447,-0.177913 0.16463,-0.128332 0.16754,-0.121315 0.025,0.06039 -0.1485,0.189358 -0.46402,0.203411 -3.99446,0.177913 l -3.83323,-0.02768 z m 16.25808,-0.499341 c 0,-0.35539 0.022,-0.500777 0.0489,-0.323082 0.0269,0.177695 0.0269,0.468468 0,0.646163 -0.0269,0.177695 -0.0489,0.03231 -0.0489,-0.323081 z m 8.92323,-0.05874 c 0.001,-0.258465 0.0254,-0.350367 0.0535,-0.204227 0.0281,0.14614 0.027,0.357611 -0.002,0.469937 -0.0294,0.112325 -0.0524,-0.0072 -0.0511,-0.26571 z m -21.04076,-0.05874 c 0,-0.16154 0.0267,-0.227625 0.0593,-0.146855 0.0326,0.08077 0.0326,0.21294 0,0.293711 -0.0326,0.08077 -0.0593,0.01469 -0.0593,-0.146856 z m 14.68988,-0.411195 c 0.002,-0.193849 0.0287,-0.258928 0.0585,-0.144619 0.0298,0.114309 0.0278,0.272912 -0.004,0.352453 -0.0322,0.07954 -0.0566,-0.01398 -0.0542,-0.207834 z m 8.80697,-0.29371 c 0,-0.161541 0.0267,-0.227626 0.0593,-0.146855 0.0326,0.08077 0.0326,0.21294 0,0.29371 -0.0326,0.08077 -0.0593,0.01469 -0.0593,-0.146855 z M 143.446,18.37325 c 0.006,-0.136863 0.0335,-0.164701 0.071,-0.07098 0.0339,0.08481 0.0298,0.186138 -0.009,0.225178 -0.039,0.03904 -0.0668,-0.03035 -0.0617,-0.154198 z m -18.77739,-0.13662 c 0.69463,-0.02077 1.83129,-0.02077 2.52591,0 0.69463,0.02077 0.1263,0.03776 -1.26295,0.03776 -1.38925,0 -1.95758,-0.01699 -1.26296,-0.03776 z m -1.42063,-0.264785 c 0,-0.161541 0.0267,-0.227625 0.0593,-0.146855 0.0326,0.08077 0.0326,0.21294 0,0.293711 -0.0326,0.08077 -0.0593,0.01469 -0.0593,-0.146856 z m 7.98893,0 c 0,-0.161541 0.0267,-0.227625 0.0593,-0.146855 0.0326,0.08077 0.0326,0.21294 0,0.293711 -0.0326,0.08077 -0.0593,0.01469 -0.0593,-0.146856 z m -12.81506,-0.538469 c 0.006,-0.136863 0.0335,-0.164701 0.071,-0.07098 0.0339,0.08481 0.0298,0.186138 -0.009,0.225178 -0.039,0.03904 -0.0668,-0.03035 -0.0617,-0.154198 z m -7.52827,-0.342663 c 0.2192,-0.226157 0.42498,-0.411194 0.45729,-0.411194 0.0323,0 -0.1206,0.185037 -0.3398,0.411194 -0.2192,0.226158 -0.42498,0.411195 -0.45729,0.411195 -0.0323,0 0.1206,-0.185037 0.3398,-0.411195 z m 36.00893,-0.176226 c 0.25238,-0.258465 0.48531,-0.469937 0.51762,-0.469937 0.0323,0 -0.14776,0.211472 -0.40014,0.469937 -0.25238,0.258465 -0.48532,0.469937 -0.51762,0.469937 -0.0323,0 0.14775,-0.211472 0.40014,-0.469937 z m 4.27928,-0.08811 -0.28482,-0.323082 0.32308,0.284818 c 0.1777,0.156652 0.32308,0.302038 0.32308,0.323082 0,0.09214 -0.0951,0.01715 -0.36134,-0.284818 z m -36.12491,-0.176226 -0.34506,-0.381824 0.38183,0.345062 c 0.21,0.189784 0.38182,0.361604 0.38182,0.381823 0,0.09076 -0.0969,0.01086 -0.41859,-0.345061 z m 12.74554,-0.176227 -0.28482,-0.323082 0.32309,0.284819 c 0.17769,0.156651 0.32308,0.302038 0.32308,0.323081 0,0.09214 -0.0951,0.01715 -0.36135,-0.284818 z m -16.15211,0.03585 c 0.12543,-0.10049 0.27963,-0.182708 0.34267,-0.182708 0.14927,0 0.0826,0.05427 -0.27701,0.225536 -0.27694,0.131893 -0.28069,0.129447 -0.0657,-0.04283 z m 15.4561,-0.476419 c -0.16154,-0.09234 -0.23773,-0.169774 -0.16931,-0.172063 0.0684,-0.0023 0.22702,0.07346 0.35245,0.168327 0.29007,0.219395 0.19742,0.221285 -0.18314,0.0037 z m -13.89251,-0.02417 c 0.14538,-0.028 0.38329,-0.028 0.52868,0 0.14538,0.028 0.0264,0.05091 -0.26434,0.05091 -0.29078,0 -0.40973,-0.02291 -0.26434,-0.05091 z m 4.6282,-0.240169 c -0.1282,-0.29959 -0.1253,-0.3065 0.0399,-0.09503 0.098,0.125429 0.17813,0.270815 0.17813,0.323082 0,0.178565 -0.0797,0.0952 -0.21802,-0.228052 z m 26.53449,0.278724 c 0,-0.0244 0.0925,-0.116914 0.2056,-0.205597 0.18634,-0.146136 0.19049,-0.14198 0.0444,0.04436 -0.15348,0.195699 -0.24996,0.257934 -0.24996,0.16124 z m 4.08993,-0.0359 c 0.0848,-0.03394 0.18613,-0.02976 0.22517,0.0093 0.039,0.03904 -0.0303,0.06681 -0.15419,0.0617 -0.13687,-0.0056 -0.16471,-0.03348 -0.071,-0.07098 z m 1.17484,0 c 0.0848,-0.03394 0.18614,-0.02976 0.22518,0.0093 0.039,0.03904 -0.0303,0.06681 -0.1542,0.0617 -0.13687,-0.0056 -0.1647,-0.03348 -0.071,-0.07098 z m 3.88402,-0.242827 c -0.14614,-0.186337 -0.14198,-0.190493 0.0444,-0.04436 0.1957,0.153478 0.25793,0.249955 0.16124,0.249955 -0.0244,0 -0.11692,-0.09252 -0.2056,-0.205597 z m -28.08578,0.0079 c 0.0848,-0.03394 0.18614,-0.02976 0.22518,0.0093 0.039,0.03904 -0.0303,0.06681 -0.1542,0.0617 -0.13686,-0.0056 -0.1647,-0.03348 -0.071,-0.07098 z m 1.05736,0 c 0.0848,-0.03394 0.18614,-0.02976 0.22518,0.0093 0.039,0.03904 -0.0303,0.06681 -0.1542,0.0617 -0.13686,-0.0056 -0.1647,-0.03348 -0.071,-0.07098 z m -4.38363,-0.624652 c 0.25238,-0.258465 0.48532,-0.469937 0.51762,-0.469937 0.0323,0 -0.14775,0.211472 -0.40014,0.469937 -0.25238,0.258466 -0.48531,0.469937 -0.51762,0.469937 -0.0323,0 0.14776,-0.211471 0.40014,-0.469937 z m 8.03268,0.26434 c -0.14613,-0.186337 -0.14198,-0.190493 0.0444,-0.04436 0.11308,0.08868 0.2056,0.181201 0.2056,0.205597 0,0.09669 -0.0965,0.03446 -0.24996,-0.16124 z m 14.93549,-0.205598 c 0.2192,-0.226157 0.42498,-0.411194 0.45729,-0.411194 0.0323,0 -0.12061,0.185037 -0.33981,0.411194 -0.2192,0.226158 -0.42497,0.411195 -0.45728,0.411195 -0.0323,0 0.1206,-0.185037 0.3398,-0.411195 z m -15.69531,-0.55805 -0.22381,-0.264339 0.26434,0.223806 c 0.14539,0.123093 0.26434,0.242046 0.26434,0.26434 0,0.09402 -0.0945,0.02461 -0.30487,-0.223807 z m 23.08183,0.05874 c -0.14613,-0.186337 -0.14198,-0.190492 0.0444,-0.04436 0.1957,0.153478 0.25793,0.249955 0.16124,0.249955 -0.0244,0 -0.11692,-0.09252 -0.2056,-0.205598 z m -6.7991,0.04376 c 0,-0.0244 0.0925,-0.116914 0.2056,-0.205597 0.18634,-0.146135 0.19049,-0.14198 0.0444,0.04436 -0.15348,0.1957 -0.24996,0.257934 -0.24996,0.16124 z m -35.19204,-4.537528 c 0,-2.4231129 0.0156,-3.4143862 0.0347,-2.2028299 0.0191,1.2115563 0.0191,3.1941029 0,4.4056589 -0.0191,1.211557 -0.0347,0.220283 -0.0347,-2.202829 z m 35.66198,4.171807 c 0,-0.08039 0.71934,-0.437032 0.77309,-0.383288 0.0255,0.02549 -0.13803,0.134271 -0.36337,0.241731 -0.22535,0.107459 -0.40972,0.17116 -0.40972,0.141557 z m -33.50504,-0.727534 c 0.0848,-0.03394 0.18614,-0.02976 0.22518,0.0093 0.039,0.03904 -0.0303,0.06681 -0.1542,0.0617 -0.13686,-0.0056 -0.1647,-0.03348 -0.071,-0.07098 z m 2.46717,0 c 0.0848,-0.03394 0.18614,-0.02976 0.22518,0.0093 0.039,0.03904 -0.0303,0.06681 -0.1542,0.0617 -0.13686,-0.0056 -0.1647,-0.03348 -0.071,-0.07098 z m 9.63371,0 c 0.0848,-0.03394 0.18614,-0.02976 0.22518,0.0093 0.039,0.03904 -0.0304,0.06681 -0.1542,0.0617 -0.13687,-0.0056 -0.1647,-0.03348 -0.071,-0.07098 z m 2.58465,0 c 0.0848,-0.03394 0.18614,-0.02976 0.22518,0.0093 0.039,0.03904 -0.0303,0.06681 -0.1542,0.0617 -0.13686,-0.0056 -0.1647,-0.03348 -0.071,-0.07098 z m -13.81174,-0.122814 c 0.24231,-0.02535 0.63882,-0.02535 0.88113,0 0.24231,0.02535 0.0441,0.04608 -0.44057,0.04608 -0.48462,0 -0.68287,-0.02074 -0.44056,-0.04608 z m 12.21836,0 c 0.24231,-0.02535 0.63882,-0.02535 0.88113,0 0.24231,0.02535 0.0441,0.04608 -0.44056,0.04608 -0.48463,0 -0.68288,-0.02074 -0.44057,-0.04608 z m 22.96555,8.23e-4 c 0.20856,-0.02595 0.57864,-0.02638 0.82239,-9.4e-4 0.24375,0.02543 0.0731,0.04667 -0.3792,0.04719 -0.45232,4.69e-4 -0.65175,-0.02029 -0.44319,-0.04624 z"
       id="path11"
       inkscape:connector-curvature="0" />
    <path
       style="fill:#082251;stroke-width:0.11748425"
       d="m 109.66,44.530914 c -0.57818,-0.140758 -1.08141,-0.451318 -1.35587,-0.836753 -0.52118,-0.731935 -0.58262,-1.232487 -0.58262,-4.746552 0,-2.414791 -0.038,-3.344141 -0.14098,-3.447113 -0.0775,-0.07754 -0.41932,-0.140982 -0.75952,-0.140982 -0.75992,0 -0.86177,-0.14388 -0.86177,-1.217469 0,-0.966958 0.14515,-1.132216 0.99444,-1.132216 0.46173,0 0.64385,-0.04859 0.69652,-0.185835 0.0392,-0.102209 0.0713,-0.86232 0.0713,-1.689136 0,-1.134281 0.0398,-1.536305 0.162,-1.637751 0.21896,-0.181723 1.96253,-0.293972 2.18768,-0.140842 0.13843,0.09415 0.18883,0.492496 0.23497,1.857339 l 0.0587,1.737483 1.52213,0.03306 c 1.88565,0.04096 1.94366,0.07679 1.94366,1.200523 0,1.126827 -0.075,1.174842 -1.83613,1.174842 -0.93725,0 -1.45347,0.04703 -1.54742,0.140982 -0.2278,0.227801 -0.19613,5.755727 0.0355,6.203733 0.26152,0.505722 0.75811,0.555822 1.85605,0.187254 0.49313,-0.165537 0.97044,-0.272641 1.06069,-0.238009 0.21904,0.08406 0.83412,1.629155 0.74303,1.866532 -0.095,0.247544 -0.97233,0.61513 -2.13277,0.893587 -0.96267,0.231001 -1.72614,0.269121 -2.34968,0.117321 z m 9.63371,-0.05511 c -1.91561,-0.608388 -3.28027,-1.974366 -3.88969,-3.893424 -0.89721,-2.82535 0.36425,-5.894949 2.94716,-7.17149 4.94577,-2.44433 9.9726,3.035894 7.43547,8.106098 -0.66073,1.3204 -2.00373,2.469655 -3.3903,2.901204 -0.83287,0.25922 -2.37754,0.287902 -3.10264,0.05761 z m 2.36994,-2.360398 c 1.54164,-0.457818 2.59096,-2.316275 2.27447,-4.028331 -0.59748,-3.232083 -4.4925,-3.900801 -5.96461,-1.024036 -0.8261,1.614357 -0.24421,3.857627 1.22381,4.717942 0.88698,0.519807 1.54269,0.608718 2.46633,0.334425 z m 31.03056,2.304917 c -3.09926,-1.020512 -4.80474,-4.485115 -3.7364,-7.590302 0.88639,-2.576335 3.34732,-4.262305 5.84758,-4.006146 2.97547,0.304846 5.19661,2.819764 5.19661,5.883944 0,2.333007 -1.32572,4.462235 -3.3887,5.442569 -0.82262,0.39091 -0.99986,0.430129 -2.07432,0.458981 -0.89878,0.02413 -1.33226,-0.02029 -1.84477,-0.189046 z m 2.96295,-2.48275 c 1.53652,-0.78387 2.27723,-2.819855 1.6401,-4.508081 -0.65477,-1.734933 -2.33581,-2.577348 -4.00688,-2.007955 -0.78319,0.266858 -1.33546,0.787244 -1.76805,1.665956 -0.3249,0.659961 -0.38358,0.907463 -0.38203,1.611226 0.004,1.632349 0.97571,3.025882 2.41645,3.464014 0.53901,0.163913 1.55026,0.05551 2.10041,-0.22516 z m 26.87805,2.48275 c -2.07475,-0.683166 -3.49737,-2.349219 -3.94466,-4.619684 -0.73163,-3.713594 2.4238,-7.348877 6.05584,-6.976764 2.97548,0.304846 5.19661,2.819764 5.19661,5.883944 0,2.323449 -1.27891,4.397127 -3.3376,5.411727 -0.86975,0.428641 -1.00501,0.45996 -2.11472,0.489651 -0.90941,0.02433 -1.34158,-0.01966 -1.85547,-0.188874 z m 3.10411,-2.565784 c 1.44421,-0.786039 2.11138,-2.782143 1.48735,-4.450011 -1.012,-2.704815 -4.49718,-2.926246 -5.73282,-0.364236 -0.465,0.964142 -0.54815,1.629421 -0.3166,2.533235 0.34998,1.366086 1.10777,2.184144 2.4216,2.614165 0.49459,0.161881 1.52583,0.0014 2.14047,-0.333153 z m 8.76587,2.580637 c -0.2448,-0.289924 -3.63134,-10.912678 -3.54811,-11.129561 0.0898,-0.234005 2.06105,-0.260448 2.25212,-0.03021 0.0676,0.08145 0.52605,1.469187 1.01878,3.083863 0.84275,2.761673 1.02645,3.244205 1.17757,3.09309 0.0342,-0.0342 0.70023,-1.458112 1.48006,-3.164242 0.77984,-1.706131 1.50108,-3.194575 1.60276,-3.307654 0.22785,-0.253377 0.59353,-0.26452 0.85698,-0.02611 0.10907,0.09872 0.84827,1.605452 1.64265,3.348301 0.79439,1.742849 1.48724,3.168816 1.53969,3.168816 0.16279,0 0.27671,-0.327889 1.10214,-3.172075 0.4407,-1.518484 0.88031,-2.853398 0.97693,-2.966477 0.14076,-0.164733 0.3647,-0.20524 1.12671,-0.203799 0.52306,9.4e-4 1.02637,0.04948 1.11845,0.107755 0.1382,0.08746 -0.12654,1.05597 -1.51691,5.549331 -0.92639,2.993858 -1.76329,5.535896 -1.85978,5.648975 -0.21286,0.249444 -0.64602,0.267847 -0.83873,0.03564 -0.0776,-0.09348 -0.89271,-1.798467 -1.81139,-3.788867 -1.03544,-2.243325 -1.73325,-3.618907 -1.83582,-3.618907 -0.10258,0 -0.80039,1.375582 -1.83582,3.618907 -0.91868,1.9904 -1.73381,3.69539 -1.8114,3.788867 -0.19276,0.232259 -0.62627,0.213798 -0.83688,-0.03564 z M 136.59326,44.27891 c -0.1875,-0.109209 -0.20565,-0.390695 -0.20627,-3.197873 -7.1e-4,-3.440022 -0.0891,-4.25695 -0.5327,-4.927295 -0.81884,-1.237355 -2.88372,-1.220812 -4.17139,0.03342 l -0.58203,0.566912 v 3.539879 c 0,2.215457 -0.0455,3.6249 -0.12161,3.767123 -0.10627,0.198563 -0.25372,0.227245 -1.16818,0.227245 -0.94831,0 -1.06374,-0.02451 -1.22946,-0.261109 -0.15863,-0.226487 -0.18265,-0.923619 -0.18115,-5.257421 10e-4,-3.780588 0.0377,-5.067777 0.14971,-5.290021 0.28203,-0.559779 1.84579,-0.414076 1.84579,0.171981 0,0.07456 0.0721,0.234157 0.16021,0.354661 0.15258,0.20867 0.19445,0.196233 0.87963,-0.261317 1.03653,-0.692165 1.75082,-0.905533 3.01337,-0.900134 1.30801,0.0056 2.14136,0.300065 2.97805,1.052319 0.31955,0.287301 0.62111,0.522364 0.67014,0.522364 0.049,0 0.43777,-0.237671 0.86387,-0.528158 1.17037,-0.797884 1.96036,-1.047129 3.30064,-1.041358 2.35019,0.01011 3.70072,1.063244 4.31263,3.362955 0.16017,0.601933 0.19629,1.367459 0.20271,4.295426 0.009,4.177667 0.10609,3.897297 -1.34751,3.897297 -1.35651,0 -1.28808,0.192088 -1.28808,-3.616109 0,-1.774082 -0.0545,-3.44038 -0.12289,-3.759399 -0.14533,-0.677677 -0.69612,-1.397299 -1.24499,-1.626633 -0.50944,-0.212856 -1.51627,-0.205494 -2.16509,0.01583 -0.28613,0.09761 -0.78343,0.376509 -1.1051,0.619786 l -0.58486,0.442322 0.0382,3.715723 c 0.0375,3.642075 0.0333,3.720606 -0.20816,3.9621 -0.20571,0.205711 -0.38696,0.245786 -1.09814,0.242803 -0.46847,-0.002 -0.94428,-0.05746 -1.05736,-0.123322 z m 25.87591,0.01199 c -0.15103,-0.09539 -0.18463,-0.880575 -0.23497,-5.49059 -0.0326,-2.981786 -0.0131,-5.444737 0.0438,-5.526141 0.0625,-0.08947 0.37492,-0.146855 0.79963,-0.146855 h 0.69713 l 0.23386,0.528679 c 0.12862,0.290773 0.30079,0.528679 0.38261,0.528679 0.0818,0 0.29602,-0.153726 0.47603,-0.341611 0.18001,-0.187887 0.6525,-0.490825 1.04997,-0.673195 0.62455,-0.286554 0.86682,-0.331389 1.78409,-0.330153 1.24203,0.0017 1.84917,0.250161 1.91189,0.782488 0.0363,0.308391 -0.56357,1.65003 -0.80433,1.798833 -0.07,0.04325 -0.45552,0.01338 -0.85676,-0.06637 -1.01191,-0.201135 -1.86997,0.04649 -2.60649,0.75221 l -0.52673,0.50469 v 3.775501 c 0,3.612488 -0.01,3.780752 -0.22725,3.897119 -0.28387,0.15193 -1.8845,0.156993 -2.12243,0.0067 z m 8.52427,-0.146208 c -0.1589,-0.226861 -0.18289,-0.949239 -0.18289,-5.507374 0,-4.386619 0.0273,-5.268934 0.16669,-5.384605 0.096,-0.07969 0.43222,-0.123146 0.79302,-0.102498 0.61056,0.03494 0.63217,0.04841 0.85825,0.535149 0.12757,0.274619 0.27861,0.499308 0.33564,0.499308 0.057,0 0.36509,-0.208118 0.68456,-0.462483 0.79374,-0.631985 1.58516,-0.887173 2.74234,-0.884247 1.08854,0.0027 1.8548,0.290464 1.91591,0.71939 0.0199,0.139585 -0.15593,0.63525 -0.39073,1.101477 l -0.42689,0.847686 -0.54914,-0.09705 c -1.36357,-0.240979 -2.16128,-0.04055 -2.98695,0.750504 l -0.44056,0.422094 v 3.717444 c 0,4.402312 0.0997,4.106314 -1.38303,4.106314 -0.85197,0 -0.97278,-0.02776 -1.13622,-0.26111 z M 147.93198,25.320149 c -2.10618,-0.478266 -3.91495,-2.344907 -4.36543,-4.505093 -0.57399,-2.752486 0.7573,-5.507496 3.23244,-6.689297 0.91133,-0.435129 0.9481,-0.442089 2.33572,-0.442089 1.33384,0 1.45096,0.01962 2.17346,0.364067 1.05263,0.501839 1.87665,1.187995 2.44023,2.031966 1.44283,2.160667 1.38054,4.970727 -0.15648,7.058625 -1.30378,1.771059 -3.58918,2.652045 -5.65994,2.181821 z m 2.52182,-2.673851 c 0.6654,-0.312773 1.37772,-1.136397 1.63765,-1.893539 0.80147,-2.334564 -0.71164,-4.783688 -2.95044,-4.775566 -3.27351,0.01188 -4.43656,4.517449 -1.67391,6.484624 0.8197,0.583683 1.98439,0.655624 2.9867,0.184481 z m -25.34462,2.607114 c -2.19901,-0.454901 -3.73746,-1.891343 -4.3927,-4.101444 -0.27117,-0.914648 -0.25024,-2.605245 0.044,-3.558045 0.5624,-1.82086 2.00167,-3.271462 3.75318,-3.782728 0.90072,-0.262922 2.39072,-0.241006 3.32956,0.04897 1.47569,0.455792 2.77343,1.774643 3.22251,3.274923 0.24518,0.819079 0.27368,2.370283 0.0485,2.641567 -0.14179,0.170855 -0.57835,0.192421 -3.89519,0.192421 -2.05453,0 -3.81913,0.03209 -3.92134,0.07131 -0.61259,0.235073 0.42867,2.105217 1.46711,2.63499 1.15608,0.58979 2.29016,0.534623 3.66897,-0.178475 0.43932,-0.227211 0.86913,-0.41311 0.95513,-0.41311 0.2145,0 1.12446,1.227035 1.12446,1.516275 0,0.404248 -1.11811,1.103867 -2.34597,1.4679 -0.79755,0.236457 -2.35514,0.330904 -3.0583,0.185443 z m 3.39316,-7.035532 c 0.24923,-0.157852 0.0662,-0.864287 -0.37273,-1.438443 -1.2408,-1.623142 -3.69296,-1.300784 -4.66975,0.613882 -0.26648,0.522336 -0.2907,0.769596 -0.0836,0.853172 0.25871,0.104393 4.95746,0.07817 5.12605,-0.02861 z m -20.63985,6.779524 c -0.10733,-0.107335 -0.14098,-2.415186 -0.14098,-9.669996 0,-8.0442751 0.026,-9.5645487 0.16675,-9.7570674 0.14224,-0.1945129 0.31236,-0.2280522 1.15679,-0.2280522 0.66644,0 1.05353,0.052702 1.18431,0.1612407 0.17447,0.144792 0.19429,0.6151961 0.19429,4.6112569 0,3.695952 0.0273,4.450016 0.16143,4.450016 0.0888,0 0.39277,-0.12796 0.67553,-0.284355 0.90116,-0.498437 1.78528,-0.687193 2.96888,-0.633838 1.734,0.07816 2.85967,0.729952 3.57343,2.069097 0.66918,1.255517 0.72714,1.702339 0.72714,5.605627 0,2.592868 -0.0376,3.572666 -0.14098,3.676071 -0.19041,0.190405 -2.11229,0.190405 -2.30269,0 -0.10285,-0.102846 -0.14098,-1.018681 -0.14098,-3.38572 0,-2.636323 -0.0354,-3.363784 -0.18854,-3.879618 -0.23883,-0.804208 -0.85565,-1.446611 -1.57501,-1.640313 -1.02665,-0.27645 -2.48049,0.16578 -3.29036,1.000861 l -0.40911,0.421855 -0.0587,3.698905 c -0.0495,3.115834 -0.0865,3.716444 -0.23497,3.81016 -0.26129,0.164954 -2.15639,0.143666 -2.32619,-0.02613 z m 25.54754,-0.07387 c -0.17756,-0.196198 -0.19444,-1.041392 -0.19444,-9.736808 0,-8.713959 0.0165,-9.5356406 0.19428,-9.6831989 0.13078,-0.1085387 0.51788,-0.1612407 1.18432,-0.1612407 0.84443,0 1.01455,0.033539 1.15678,0.2280522 0.14074,0.1924746 0.16676,1.6999769 0.16676,9.6630794 0,11.005639 0.15464,9.904965 -1.3916,9.904965 -0.74369,0 -0.95922,-0.04149 -1.1161,-0.214849 z m 5.56229,-0.02012 c -0.23107,-0.231067 -0.23497,-0.391614 -0.23497,-9.669996 0,-7.9631025 0.026,-9.4706048 0.16676,-9.6630794 0.14223,-0.1945129 0.31235,-0.2280522 1.15678,-0.2280522 0.66644,0 1.05353,0.052702 1.18432,0.1612407 0.1778,0.1475635 0.19428,0.9706647 0.19428,9.7036139 0,11.050289 0.14997,9.931242 -1.33095,9.931242 -0.74461,0 -0.94209,-0.04084 -1.13622,-0.234969 z"
       id="path9"
       inkscape:connector-curvature="0" />
  </g>
</svg>
