<?xml version="1.0" encoding="UTF-8" standalone="no"?>
<!-- Created with Inkscape (http://www.inkscape.org/) -->

<svg
   xmlns:dc="http://purl.org/dc/elements/1.1/"
   xmlns:cc="http://creativecommons.org/ns#"
   xmlns:rdf="http://www.w3.org/1999/02/22-rdf-syntax-ns#"
   xmlns:svg="http://www.w3.org/2000/svg"
   xmlns="http://www.w3.org/2000/svg"
   xmlns:sodipodi="http://sodipodi.sourceforge.net/DTD/sodipodi-0.dtd"
   xmlns:inkscape="http://www.inkscape.org/namespaces/inkscape"
   version="1.1"
   id="svg2"
   width="256"
   height="50"
   viewBox="0 0 256 50"
   sodipodi:docname="hub.svg"
   inkscape:version="0.92.2 2405546, 2018-03-11">
  <metadata
     id="metadata8">
    <rdf:RDF>
      <cc:Work
         rdf:about="">
        <dc:format>image/svg+xml</dc:format>
        <dc:type
           rdf:resource="http://purl.org/dc/dcmitype/StillImage" />
        <dc:title></dc:title>
      </cc:Work>
    </rdf:RDF>
  </metadata>
  <defs
     id="defs6" />
  <sodipodi:namedview
     pagecolor="#ffffff"
     bordercolor="#666666"
     borderopacity="1"
     objecttolerance="10"
     gridtolerance="10"
     guidetolerance="10"
     inkscape:pageopacity="0"
     inkscape:pageshadow="2"
     inkscape:window-width="1364"
     inkscape:window-height="732"
     id="namedview4"
     showgrid="false"
     inkscape:zoom="1.5022222"
     inkscape:cx="88.578963"
     inkscape:cy="0.28209507"
     inkscape:window-x="0"
     inkscape:window-y="35"
     inkscape:window-maximized="0"
     inkscape:current-layer="svg2" />
  <path
     style="fill:#193743;stroke-width:0.30690295"
     d="m 65.936705,47.443448 c -1.659447,-0.912585 -1.673797,-0.99822 -1.681142,-10.03245 l -0.0068,-8.393795 1.043469,-1.04347 1.04347,-1.04347 h 33.191379 c 36.446459,0 34.457379,-0.102731 35.457539,1.831372 0.67964,1.314267 0.68553,15.881007 0.007,17.193223 -1.02245,1.977231 1.49453,1.845736 -35.133699,1.835474 -23.628143,-0.0066 -33.485713,-0.107421 -33.921146,-0.346884 z m 51.437385,-5.342766 c 0.43913,-0.224235 1.02608,-0.755169 1.30435,-1.179848 1.08383,-1.654144 0.29351,-1.917005 -1.254,-0.417091 -2.64302,2.561719 -5.99862,0.07038 -5.50613,-4.087982 0.20487,-1.729843 0.82885,-2.805713 1.914,-3.300136 1.44518,-0.65847 2.30314,-0.43455 3.56273,0.929835 0.87225,0.94481 1.27589,1.193578 1.52784,0.941622 0.51609,-0.516088 -0.61622,-2.2661 -1.89728,-2.932264 -1.27744,-0.664295 -3.09564,-0.528362 -4.25962,0.318464 -1.98338,1.442937 -2.75017,5.090623 -1.5977,7.600356 1.22535,2.668411 3.57115,3.472436 6.20581,2.127044 z m -44.288983,-2.074947 0.08963,-2.353868 1.59833,-0.0047 c 3.028881,-0.009 3.216244,-1.114506 0.217267,-1.28206 l -1.687965,-0.09431 -0.09547,-1.504822 c -0.0632,-0.996065 0.04057,-1.591092 0.306902,-1.759993 0.221301,-0.140344 1.47269,-0.257286 2.780863,-0.25987 1.90753,-0.0038 2.378498,-0.09586 2.378498,-0.465053 0,-0.381303 -0.579706,-0.460355 -3.375932,-0.460355 h -3.375925 v 5.1662 c 0,2.841412 0.09495,5.261148 0.210996,5.377197 0.560942,0.560942 0.870842,-0.206122 0.952799,-2.358372 z m 8.350197,0.572506 c 0,-1.699398 0.09217,-2.033397 0.642391,-2.327868 1.134716,-0.607281 1.957306,-0.09354 3.453863,2.157073 0.788091,1.185176 1.638948,2.154868 1.890798,2.154868 0.714778,0 0.547943,-0.641762 -0.616251,-2.370488 -0.590788,-0.87727 -1.07416,-1.735408 -1.07416,-1.906972 0,-0.171565 0.331299,-0.529009 0.73622,-0.794327 1.64299,-1.076526 1.799884,-3.851214 0.28514,-5.042713 -0.665036,-0.523116 -1.242946,-0.627104 -3.485137,-0.627104 -2.167901,0 -2.723942,0.09392 -2.87419,0.485456 -0.102457,0.266999 -0.186286,2.465407 -0.186286,4.885346 0,4.640391 0.108811,5.370802 0.800093,5.370802 0.321336,0 0.427519,-0.492782 0.427519,-1.984073 z m 0.537079,-3.855217 c -0.391872,-0.240247 -0.537079,-0.729864 -0.537079,-1.810957 0,-1.92047 0.448268,-2.294137 2.514026,-2.095645 2.374602,0.228171 3.408387,1.782288 2.166243,3.256582 -0.631231,0.749206 -3.29877,1.167714 -4.14319,0.65002 z m 9.396753,4.436083 c 0.738531,-1.552926 0.925072,-1.655505 3.020715,-1.661124 1.8854,-0.0051 2.12301,0.143185 2.94402,1.836719 0.55478,1.144379 1.51438,1.496545 1.34094,0.492113 -0.0553,-0.320125 -0.93181,-2.710313 -1.94784,-5.31153 -2.441905,-6.251671 -2.443962,-6.251473 -5.045703,0.489863 -1.067908,2.767044 -1.863979,5.156667 -1.769041,5.310277 0.315011,0.509705 0.876539,0.06403 1.456909,-1.156318 z m 1.438723,-3.430515 c 0.03017,-0.944752 1.122529,-3.299206 1.530685,-3.299206 0.354618,0 1.438258,2.498607 1.497413,3.452657 0.01605,0.258925 -0.475033,0.383629 -1.510729,0.383629 -1.263372,0 -1.531486,-0.0949 -1.517369,-0.53708 z m 9.003651,4.348266 c 0.10246,-0.267001 0.18629,-2.090004 0.18629,-4.05112 0,-2.759049 0.0827,-3.482947 0.36565,-3.20001 0.20111,0.201111 1.34049,1.989588 2.53195,3.974395 1.61001,2.682039 2.32392,3.608739 2.7801,3.608739 0.58974,0 0.61381,-0.204603 0.61381,-5.21735 0,-4.433042 -0.0692,-5.21735 -0.46035,-5.21735 -0.37963,0 -0.4755,0.663195 -0.54671,3.781928 -0.0552,2.415838 -0.20023,3.743968 -0.40163,3.676833 -0.17341,-0.0578 -1.30845,-1.759669 -2.52233,-3.781925 -1.6454,-2.741169 -2.38276,-3.701794 -2.89757,-3.774907 l -0.69053,-0.09807 v 5.187544 c 0,2.853151 0.0921,5.279617 0.2046,5.392146 0.33608,0.336084 0.639,0.234407 0.83672,-0.280852 z m 26.43911,0.158135 c 0.35877,-0.580495 -0.16311,-0.743881 -2.87565,-0.900291 l -2.66122,-0.153452 v -1.687966 -1.687967 l 1.99212,-0.15345 c 1.55664,-0.119906 2.01379,-0.267691 2.09131,-0.676062 0.0843,-0.443953 -0.21555,-0.536331 -1.99212,-0.613806 l -2.09131,-0.09119 -0.0924,-1.601454 c -0.1068,-1.85091 -0.0761,-1.86944 3.3149,-2.002883 3.25801,-0.128207 2.19523,-0.692304 -1.30434,-0.692304 h -3.14574 l -0.0848,4.898128 c -0.0466,2.693969 -0.0165,5.076303 0.067,5.294076 0.19351,0.504302 6.47369,0.56785 6.78224,0.06862 z m 11.64969,5.188455 c -0.33759,-0.185655 -0.85241,-0.630302 -1.14406,-0.988102 -0.49035,-0.601609 -0.53076,-2.179861 -0.53707,-20.97803 l -0.007,-20.3274798 0.89543,-1.0022761 0.89543,-1.0022774 21.2783,-0.075563 c 22.93315,-0.081449 22.14221,-0.1340415 23.39704,1.555805 0.63771,0.8587853 0.64339,1.0418532 0.64339,20.7461123 0,21.667032 0.0472,21.070406 -1.73859,21.99386 -0.70046,0.362227 -4.33848,0.432625 -21.95441,0.42484 -14.76161,-0.0065 -21.29951,-0.110902 -21.72862,-0.346884 z m 10.21297,-6.873405 c 0.67711,-0.474269 0.6821,-0.54021 0.6821,-9.031718 0,-7.367121 -0.0669,-8.620872 -0.48229,-9.036233 -0.61596,-0.615964 -1.48851,-0.615964 -2.10448,0 -0.41535,0.415361 -0.48227,1.669112 -0.48227,9.036233 0,8.491508 0.005,8.557449 0.68209,9.031718 0.37516,0.262764 0.75875,0.477756 0.85243,0.477756 0.0937,0 0.47727,-0.214992 0.85242,-0.477756 z m 9.58227,-0.13605 c 0.72252,-0.722524 0.79879,-2.093339 0.16321,-2.933646 -0.7209,-0.953123 -0.54817,-1.644542 0.57664,-2.308199 0.57572,-0.339679 1.12381,-0.818393 1.21798,-1.063811 0.25497,-0.664455 0.91449,-0.541711 1.725,0.321049 0.44452,0.473161 1.05883,0.767257 1.60268,0.767257 0.54643,0 1.15232,-0.291837 1.59293,-0.767257 0.39108,-0.421993 0.84378,-0.767258 1.00601,-0.767258 0.16222,0 0.6193,0.345265 1.01573,0.767258 0.44452,0.473161 1.05882,0.767257 1.60267,0.767257 0.54644,0 1.15234,-0.291837 1.59294,-0.767257 0.39109,-0.421993 0.8151,-0.767258 0.94227,-0.767258 0.12719,0 0.70308,0.414319 1.27982,0.920708 0.57674,0.50639 1.16715,0.920709 1.31201,0.920709 0.60244,0 0.59979,1.060236 -0.005,2.038954 -0.77863,1.259845 -0.60581,2.336738 0.49023,3.054896 0.96581,0.632815 2.12769,0.363576 2.78945,-0.646393 0.69865,-1.066285 0.33164,-2.197032 -0.96057,-2.959456 -1.14803,-0.67735 -1.32498,-1.332876 -0.61366,-2.273325 0.24782,-0.327656 0.45498,-1.049243 0.46036,-1.603526 0.008,-0.82627 -0.17877,-1.119019 -1.037,-1.625382 -1.39725,-0.824394 -1.53177,-1.327637 -0.72813,-2.723972 0.57728,-1.003073 0.62238,-1.292658 0.30855,-1.981436 -0.20215,-0.443672 -0.71804,-0.939936 -1.14644,-1.10281 -1.0546,-0.40096 -1.27797,-1.150715 -0.66238,-2.223324 0.28218,-0.491641 0.51304,-1.227966 0.51304,-1.636279 0,-0.736041 -0.95442,-1.969998 -1.52373,-1.969998 -0.16286,0 -0.4394,-0.267754 -0.61453,-0.595011 -0.24539,-0.458499 -0.16957,-0.847343 0.33047,-1.694855 0.82893,-1.404922 0.4484,-2.50644 -1.17055,-3.388463 -0.61904,-0.337249 -1.55914,-1.234659 -2.08915,-1.994245 -1.56388,-2.2412859 -3.09801,-2.048765 -4.50902,0.565845 -0.28758,0.532881 -0.90905,1.133641 -1.38106,1.335019 -0.47201,0.201379 -1.09989,0.568003 -1.39529,0.814722 -0.66163,0.552609 -0.70892,2.283981 -0.0768,2.808668 0.7561,0.627507 0.56553,1.757366 -0.37248,2.2083 -0.45805,0.220207 -1.045,0.782261 -1.30433,1.24901 -0.43572,0.784236 -0.42337,0.935618 0.16294,1.99487 0.78127,1.411512 0.67782,1.893933 -0.57577,2.684896 -1.14689,0.723642 -1.4259,1.958082 -0.69477,3.07392 0.6892,1.051855 0.60117,1.588954 -0.36133,2.204714 -1.75618,1.123505 -1.99386,2.005154 -0.98197,3.642435 l 0.62928,1.018191 -0.62928,0.552547 c -0.3461,0.303906 -0.90548,0.794237 -1.24308,1.089632 -1.29616,1.134136 -0.34944,3.60611 1.38106,3.60611 0.422,0 1.04347,-0.276213 1.38107,-0.613806 z m 1.55435,-8.565422 c -0.77341,-1.086166 -0.59574,-1.649932 0.77483,-2.45859 0.85823,-0.506363 1.04499,-0.799112 1.03699,-1.625383 -0.005,-0.554282 -0.21253,-1.275869 -0.46036,-1.603526 -0.71131,-0.940448 -0.53436,-1.595975 0.61365,-2.273325 1.3689,-0.807664 1.64627,-1.8574 0.84098,-3.182788 -0.65804,-1.083052 -0.47273,-2.387979 0.3391,-2.387979 1.17861,0 1.84843,-2.114095 1.06651,-3.36614 -0.54901,-0.879112 -0.10004,-1.078833 1.12172,-0.499044 0.988,0.468835 1.15718,0.471155 2.01486,0.02764 1.222,-0.631924 1.61729,-0.350427 1.00531,0.7159 -0.68321,1.190409 -0.32639,2.305998 0.98504,3.079763 1.14922,0.678051 1.39306,1.545207 0.61589,2.190205 -0.60906,0.505464 -0.59023,2.326046 0.0292,2.826753 0.26925,0.217651 0.83104,0.709549 1.2484,1.093109 l 0.75884,0.69738 -0.6655,1.076793 c -0.84662,1.369859 -0.6307,2.306435 0.77975,3.382228 1.27032,0.968926 1.34506,1.6085 0.30244,2.587993 l -0.76932,0.72274 -0.84189,-0.796939 c -1.30479,-1.235069 -2.44867,-1.240231 -3.58369,-0.01618 l -0.77173,0.832283 -0.85193,-0.806522 c -1.29274,-1.223855 -2.50556,-1.255156 -3.51796,-0.09079 -0.86383,0.99349 -1.29278,0.967477 -2.07111,-0.125597 z M 151.12587,14.677752 c 1.52103,-1.521014 1.12794,-3.691757 -0.81556,-4.503801 -2.91528,-1.2180785 -5.27811,2.577823 -2.86732,4.606362 1.27899,1.076204 2.53923,1.041108 3.68288,-0.102561 z m -53.938629,9.042572 c -2.022637,-0.879804 -2.094756,-1.230327 -2.094756,-10.181063 0,-7.69039 0.02854,-8.0856143 0.643391,-8.9136833 1.231975,-1.6591638 0.817245,-1.6243574 19.412364,-1.6292218 19.23744,-0.00507 18.85579,-0.043797 19.83244,2.0143381 0.42839,0.9027487 0.48575,2.169974 0.40735,8.998283 -0.0855,7.44269 -0.13025,7.991252 -0.70507,8.635362 -1.35576,1.519204 -1.42581,1.524621 -19.55519,1.511785 -13.73521,-0.0097 -17.151799,-0.09271 -17.940529,-0.4358 z m 20.187049,-5.470697 c 0.59584,-0.400624 1.19982,-1.157019 1.40913,-1.764692 0.42445,-1.23235 0.52021,-7.6122625 0.12369,-8.2383455 -0.63387,-1.0007587 -0.95032,0.092115 -0.95032,3.2819375 0,4.973231 -0.53666,6.164886 -2.78537,6.184886 -0.78427,0.007 -1.30467,-0.210882 -1.82386,-0.763533 -0.66566,-0.708562 -0.74078,-1.111127 -0.89748,-4.809124 -0.11695,-2.7602538 -0.28868,-4.0747438 -0.54332,-4.1589547 -0.20476,-0.067716 -0.46351,0.2402704 -0.57499,0.6844236 -0.31671,1.2618868 0.0234,7.5948031 0.45015,8.3828401 0.99236,1.83232 3.76691,2.427954 5.5924,1.200562 z m 9.943,0.40208 c 1.59912,-0.37051 2.30178,-1.263479 2.30178,-2.92519 0,-1.001536 -0.18162,-1.487073 -0.76215,-2.037595 -0.67403,-0.639166 -0.74016,-0.893454 -0.57183,-2.198983 0.35402,-2.7458292 -0.8035,-3.6804129 -4.36734,-3.5261671 l -2.1247,0.091959 -0.0847,5.0621951 c -0.0751,4.490463 -0.0252,5.105713 0.44228,5.447528 0.61435,0.449227 3.39939,0.495722 5.16666,0.08626 z m -4.0818,-1.296816 c -0.38742,-0.38742 -0.499,-2.309926 -0.182,-3.136 0.26117,-0.680607 3.69943,-0.67762 4.67266,0.004 0.98942,0.693016 0.8362,2.555604 -0.25541,3.105014 -0.9779,0.49218 -3.75237,0.509819 -4.23525,0.02692 z m -0.24492,-5.277147 c -0.0903,-0.235445 -0.12057,-0.960502 -0.067,-1.611241 0.0967,-1.1766701 0.10511,-1.1836717 1.54451,-1.2762755 0.79604,-0.051216 1.72826,0.057231 2.0716,0.2409758 0.76059,0.4070537 0.84194,1.8923847 0.14198,2.5923447 -0.6282,0.628199 -3.45481,0.669703 -3.691,0.05419 z m -20.37896,4.261545 0.15345,-2.1455 h 2.30177 2.30177 l 0.0906,2.244884 c 0.0776,1.923054 0.16559,2.230438 0.61381,2.144118 0.46855,-0.09023 0.52323,-0.645567 0.52323,-5.313912 0,-4.4293083 -0.0692,-5.2131489 -0.46035,-5.2131489 -0.35465,0 -0.49559,0.528555 -0.61381,2.3017729 l -0.15345,2.301772 h -2.3018 -2.30177 l -0.15345,-2.301772 c -0.11822,-1.7732179 -0.25917,-2.3017729 -0.61381,-2.3017729 -0.38826,0 -0.47352,0.8328579 -0.54443,5.3179949 -0.0783,4.951559 -0.0466,5.310866 0.46035,5.214529 0.44102,-0.08381 0.57359,-0.511012 0.69789,-2.248965 z"
     id="path12"
     inkscape:connector-curvature="0" />
</svg>
