<?xml version="1.0" encoding="UTF-8" standalone="no"?>
<!-- Created with Inkscape (http://www.inkscape.org/) -->

<svg
   xmlns:dc="http://purl.org/dc/elements/1.1/"
   xmlns:cc="http://creativecommons.org/ns#"
   xmlns:rdf="http://www.w3.org/1999/02/22-rdf-syntax-ns#"
   xmlns:svg="http://www.w3.org/2000/svg"
   xmlns="http://www.w3.org/2000/svg"
   xmlns:sodipodi="http://sodipodi.sourceforge.net/DTD/sodipodi-0.dtd"
   xmlns:inkscape="http://www.inkscape.org/namespaces/inkscape"
   version="1.1"
   id="svg2"
   width="256"
   height="128"
   viewBox="0 0 256 128"
   sodipodi:docname="loreal.svg"
   inkscape:version="0.92.2 2405546, 2018-03-11">
  <metadata
     id="metadata8">
    <rdf:RDF>
      <cc:Work
         rdf:about="">
        <dc:format>image/svg+xml</dc:format>
        <dc:type
           rdf:resource="http://purl.org/dc/dcmitype/StillImage" />
        <dc:title></dc:title>
      </cc:Work>
    </rdf:RDF>
  </metadata>
  <defs
     id="defs6" />
  <sodipodi:namedview
     pagecolor="#ffffff"
     bordercolor="#666666"
     borderopacity="1"
     objecttolerance="10"
     gridtolerance="10"
     guidetolerance="10"
     inkscape:pageopacity="0"
     inkscape:pageshadow="2"
     inkscape:window-width="1364"
     inkscape:window-height="732"
     id="namedview4"
     showgrid="false"
     fit-margin-top="0"
     fit-margin-left="0"
     fit-margin-right="0"
     fit-margin-bottom="0"
     inkscape:zoom="0.95540379"
     inkscape:cx="61.311301"
     inkscape:cy="21.369685"
     inkscape:window-x="0"
     inkscape:window-y="35"
     inkscape:window-maximized="0"
     inkscape:current-layer="svg2" />
  <path
     style="fill:#1e1e1e;stroke-width:0.72202575"
     d="m 57.750823,82.245453 c -4.381588,-0.92778 -8.844888,-3.36284 -12.40171,-6.76606 -4.625619,-4.42586 -6.089746,-7.73666 -6.468108,-14.62617 -0.285936,-5.20652 -0.105259,-6.33904 1.627175,-10.19942 2.412474,-5.3757 5.946549,-8.89276 11.579254,-11.52348 3.838382,-1.79269 5.155108,-2.0233 11.552411,-2.0233 8.966217,0 12.958823,1.38544 18.155107,6.29987 5.041247,4.76781 6.94479,9.31701 6.94479,16.59712 0,4.57814 -0.3453,6.2868 -1.92157,9.50859 -3.749713,7.66412 -11.230185,12.37521 -20.651235,13.00581 -2.978356,0.19935 -6.765612,0.0765 -8.416114,-0.27296 z m 10.724774,-5.5248 c 13.823244,-3.87861 18.166624,-19.54828 8.185172,-29.52974 -10.461855,-10.46186 -27.843,-5.1527 -30.903792,9.43973 -1.74308,8.31018 3.987184,17.49344 12.472441,19.98819 5.099216,1.49923 5.260134,1.50082 10.246179,0.10182 z M 1.9066442,60.901683 v -18.47096 l 2.3465819,0.22625 2.3465872,0.22626 0.3610092,15.88456 0.3610147,15.88457 13.7184878,0.36102 13.718491,0.36101 v 1.80506 1.80507 l -16.426088,0.19406 -16.4260838,0.19406 z m 93.4839078,17.57316 c -0.203227,-0.52961 -0.282223,-8.75438 -0.175539,-18.27728 l 0.193967,-17.31433 h 14.0795 c 12.86039,0 14.2961,0.12724 16.58104,1.46959 3.24219,1.90472 5.28896,5.48043 5.3734,9.38739 0.0766,3.5421 -1.60865,6.34146 -5.19987,8.63771 -1.24214,0.79423 -2.27094,1.90234 -2.28625,2.46246 -0.0153,0.56013 1.92166,3.70162 4.30434,6.98107 2.38269,3.27946 4.33216,6.31397 4.33216,6.74337 0,0.44226 -1.38841,0.78071 -3.20268,0.78071 h -3.20267 l -5.54328,-7.60643 -5.54328,-7.60644 -6.95811,0.20567 -6.9581,0.20567 -0.36101,7.22026 -0.36101,7.22026 -2.351554,0.22662 c -1.468752,0.14155 -2.490258,-0.13487 -2.721054,-0.7363 z m 26.504068,-20.02394 c 4.66192,-2.29506 4.18116,-8.74579 -0.75953,-10.19093 -1.44171,-0.4217 -6.52023,-0.66679 -11.2856,-0.54465 l -8.66431,0.22208 -0.21598,4.98255 c -0.11879,2.7404 -0.0353,5.45349 0.18562,6.02909 0.33014,0.86034 2.0386,0.99395 9.60231,0.75094 5.57782,-0.17921 9.96335,-0.67105 11.13749,-1.24908 z m 18.24915,19.99168 c -0.19642,-0.51187 -0.26985,-8.72212 -0.16316,-18.24502 l 0.19396,-17.31433 6.35137,-0.20911 c 5.22284,-0.17196 6.42864,-0.42854 6.78632,-1.44405 0.23923,-0.67922 1.09301,-1.966 1.89729,-2.85951 1.25697,-1.39642 2.17974,-1.623 6.57114,-1.6135 5.80768,0.0126 5.52153,0.54569 -1.56991,2.92484 -2.48196,0.8327 -4.51266,1.80211 -4.51266,2.15424 0,0.35213 3.81772,0.73178 8.48381,0.84366 l 8.4838,0.20343 v 1.80506 1.80507 l -13.35748,0.36101 -13.35747,0.36101 v 5.41519 5.4152 l 9.74734,0.36101 9.74735,0.36101 v 1.80506 1.80507 l -9.74735,0.36101 -9.74734,0.36102 v 5.77621 5.7762 l 13.35747,0.36102 13.35748,0.36101 v 1.80506 1.80507 l -16.08242,0.19436 c -12.60071,0.15229 -16.15973,-0.007 -16.43954,-0.7363 z m 35.77107,0.18475 c 0,-0.395 3.98017,-8.69277 8.84482,-18.43948 l 8.84482,-17.72129 3.87433,0.20833 3.87434,0.20834 8.92941,17.32862 c 4.91116,9.53074 8.9349,17.73476 8.94161,18.23115 0.008,0.58552 -1.09051,0.90253 -3.12724,0.90253 -2.98155,0 -3.2072,-0.15022 -4.48623,-2.98661 -2.91428,-6.46271 -2.77614,-6.39972 -14.03508,-6.39972 -11.25895,0 -11.12081,-0.063 -14.03509,6.39972 -1.27903,2.83639 -1.50468,2.98661 -4.48622,2.98661 -1.72671,0 -3.13947,-0.32319 -3.13947,-0.7182 z m 28.88104,-14.91262 c 0,-1.79971 -6.44518,-13.25021 -7.45818,-13.25021 -0.94262,0 -6.98234,11.56337 -6.98234,13.36808 0,0.87706 1.31535,1.07243 7.22026,1.07243 6.22584,0 7.22026,-0.16393 7.22026,-1.1903 z m 17.6535,14.71401 c -0.19349,-0.50424 -0.26453,-8.70826 -0.15784,-18.23116 l 0.19396,-17.31433 h 2.5271 2.52709 l 0.36101,15.88456 0.36101,15.88457 13.53798,0.19644 13.53799,0.19644 v 2.15014 2.15015 h -16.26824 c -12.48364,0 -16.35009,-0.21328 -16.62006,-0.91681 z M 26.107062,55.538993 c -0.470422,-0.76116 2.821281,-10.29698 4.181756,-12.11424 0.727054,-0.97117 5.269064,-1.2552 5.772992,-0.36102 0.167849,0.29784 -1.198394,3.30327 -3.036095,6.67874 -2.387592,4.3855 -3.782636,6.20052 -4.887605,6.35902 -0.850481,0.12198 -1.764453,-0.13114 -2.031048,-0.5625 z"
     id="path44"
     inkscape:connector-curvature="0" />
</svg>
