<?xml version="1.0" encoding="UTF-8" standalone="no"?>
<!-- Created with Inkscape (http://www.inkscape.org/) -->

<svg
   xmlns:dc="http://purl.org/dc/elements/1.1/"
   xmlns:cc="http://creativecommons.org/ns#"
   xmlns:rdf="http://www.w3.org/1999/02/22-rdf-syntax-ns#"
   xmlns:svg="http://www.w3.org/2000/svg"
   xmlns="http://www.w3.org/2000/svg"
   xmlns:sodipodi="http://sodipodi.sourceforge.net/DTD/sodipodi-0.dtd"
   xmlns:inkscape="http://www.inkscape.org/namespaces/inkscape"
   version="1.1"
   id="svg2"
   width="256"
   height="256"
   viewBox="0 0 256.00001 256"
   sodipodi:docname="maddyness.svg"
   inkscape:version="0.92.2 2405546, 2018-03-11">
  <metadata
     id="metadata8">
    <rdf:RDF>
      <cc:Work
         rdf:about="">
        <dc:format>image/svg+xml</dc:format>
        <dc:type
           rdf:resource="http://purl.org/dc/dcmitype/StillImage" />
        <dc:title></dc:title>
      </cc:Work>
    </rdf:RDF>
  </metadata>
  <defs
     id="defs6" />
  <sodipodi:namedview
     pagecolor="#ffffff"
     bordercolor="#666666"
     borderopacity="1"
     objecttolerance="10"
     gridtolerance="10"
     guidetolerance="10"
     inkscape:pageopacity="0"
     inkscape:pageshadow="2"
     inkscape:window-width="1364"
     inkscape:window-height="732"
     id="namedview4"
     showgrid="false"
     inkscape:zoom="1.5745342"
     inkscape:cx="135.0313"
     inkscape:cy="118.20885"
     inkscape:window-x="0"
     inkscape:window-y="35"
     inkscape:window-maximized="0"
     inkscape:current-layer="svg2" />
  <g
     id="g12"
     transform="matrix(0.27335753,0,0,0.27335753,-106.39752,-4.147277)"
     inkscape:transform-center-x="-22.192664"
     inkscape:transform-center-y="42.53593">
    <path
       style="fill:#47b9bd;stroke-width:1.33333325"
       d="m 849.65446,829.34051 c -16.09869,-9.81549 -10.56465,-32.03562 7.96936,-31.99841 5.1584,0.0107 9.6539,2.78747 15.6338,9.65788 5.56124,6.38939 10.28928,6.65639 16.16483,0.91288 2.29959,-2.24792 4.49436,-3.77384 4.87727,-3.39092 1.23473,1.23473 -5.04918,11.99291 -10.08032,17.25768 -2.68735,2.81215 -7.11218,6.26215 -9.83296,7.66667 -6.77131,3.4955 -18.91058,3.44358 -24.73198,-0.10574 z m 22.34552,-1.44525 c 5.80572,-2.62497 14.66667,-9.9696 14.66667,-12.15684 0,-0.58948 -1.53944,-1.07177 -3.42099,-1.07177 -4.79894,0 -8.40549,-2.1809 -14.6722,-8.87235 -4.93017,-5.26435 -6.00664,-5.79432 -11.76922,-5.79432 -5.23259,0 -7.02486,0.68215 -10.24015,3.89744 -7.70644,7.70643 -4.64068,19.20192 6.50751,24.40093 6.4722,3.01834 11.60281,2.90907 18.92838,-0.40309 z M 452.14619,793.6065 c -0.75221,-1.40553 -10.37463,-24.94016 -21.38313,-52.29916 -11.62544,-28.89224 -21.35769,-51.18918 -23.21752,-53.19216 -1.76112,-1.89669 -3.60783,-5.24853 -4.10377,-7.44853 -0.49596,-2.2 -1.19362,-4.98677 -1.55035,-6.19284 -0.35673,-1.20605 0.31461,-3.15605 1.49188,-4.33333 1.73189,-1.73188 5.25524,-2.1405 18.45709,-2.1405 10.99712,0 17.03012,0.54336 18.50521,1.66667 1.8871,1.43705 27.65439,64.45861 27.65439,67.63703 0,0.6371 1.56603,3.01949 3.48007,5.2942 2.03724,2.42112 3.18565,5.08933 2.76994,6.43564 -2.72349,8.82022 -18.29426,46.31454 -19.3846,46.67799 -0.74334,0.24778 -1.96698,-0.69948 -2.71921,-2.10501 z m 7.49984,-13.27319 c 2.29384,-5.68333 6.05545,-15.28328 8.35916,-21.33321 l 4.18853,-10.99988 -2.76353,-3.51326 c -1.51995,-1.9323 -2.76353,-4.04678 -2.76353,-4.69884 0,-0.65207 -5.12696,-14.22115 -11.39324,-30.15352 -6.2663,-15.93238 -12.19863,-31.06795 -13.18299,-33.63462 l -1.78972,-4.66666 -17.51061,-0.37223 c -14.34529,-0.30493 -17.64531,-0.0212 -18.25573,1.56952 -0.79743,2.07805 3.7175,13.361 6.7042,16.75399 0.99186,1.1268 3.60562,6.54872 5.80836,12.04872 19.71873,49.23566 35.03205,87.0491 35.67089,88.08277 1.61217,2.60856 2.88072,0.94552 6.92821,-9.08278 z m 105.68729,14.50416 c -9.40514,-2.0364 -16.56302,-8.70888 -18.09338,-16.86638 -1.24828,-6.65391 3.79796,-16.22439 11.10945,-21.06968 7.5738,-5.01913 32.47996,-15.22915 39.84333,-16.33336 3.65949,-0.54877 6.37115,-1.797 7.17769,-3.30403 1.78086,-3.32756 1.63819,-24.80042 -0.18745,-28.21164 -0.81603,-1.52477 -3.03059,-4.10289 -4.92125,-5.72918 l -3.43759,-2.95688 3.06495,-1.64031 c 1.99354,-1.06691 7.32608,-1.48051 15.2546,-1.18317 10.00928,0.37537 12.93536,0.98906 16.3586,3.43089 7.9636,5.68048 8.49692,8.51648 8.50516,45.22776 0.004,19.953 0.59001,35.23021 1.47204,38.40722 1.31997,4.75443 1.18189,5.50434 -1.39823,7.59359 -4.23397,3.42845 -14.25377,4.55508 -20.67885,2.32511 -4.04384,-1.4035 -6.12815,-3.25328 -8.48176,-7.52743 -3.59967,-6.53693 -5.70135,-7.05947 -8.88024,-2.20785 -4.78013,7.29538 -24.49276,12.69 -36.70707,10.04534 z m 24.83662,-4.71348 c 7.79194,-3.62809 9.74776,-5.79461 6.24789,-6.921 -9.10819,-2.93136 -11.08451,-6.21432 -11.08451,-18.41302 0,-6.82383 0.6437,-9.36639 3.39924,-13.42691 1.86958,-2.75498 3.08394,-5.32434 2.69859,-5.70969 -0.38535,-0.38536 -4.465,0.66249 -9.06589,2.32856 -21.64903,7.83949 -33.03636,16.92648 -33.02695,26.35522 0.007,6.57963 4.01725,12.90886 10.27171,16.20966 7.48792,3.95176 21.58362,3.75673 30.55992,-0.42282 z m 46.10065,1.81511 3.06273,-1.39423 -0.36065,-36.9391 c -0.40694,-41.67983 -1.18324,-46.12497 -8.88671,-50.88599 -3.46511,-2.14154 -6.65872,-2.7198 -15.02113,-2.7198 -5.84122,0 -11.00075,0.38035 -11.46562,0.84522 -0.46486,0.46486 0.35523,2.37133 1.82244,4.2366 2.53055,3.21705 2.65399,5.18713 2.40154,38.3296 -0.25754,33.81093 -0.17471,35.05443 2.56705,38.54002 1.55824,1.98099 3.17111,4.66652 3.58413,5.96785 0.41303,1.30132 2.08775,3.01124 3.72162,3.7998 3.87125,1.86842 14.67245,1.99636 18.5746,0.22003 z m -35.70891,-11.93912 c 3.28507,0 4.77164,-6.84901 4.77164,-21.98405 0,-15.15439 -0.89449,-18.42452 -4.01219,-14.66793 -0.90621,1.09192 -2.36194,1.98532 -3.23494,1.98532 -0.87301,0 -3.26859,1.75489 -5.32349,3.89974 -7.00787,7.31464 -7.59023,24.34924 -1.0094,29.52572 1.86936,1.47045 4.23868,2.35127 5.26516,1.95737 1.02646,-0.39389 2.62092,-0.71617 3.54322,-0.71617 z m 72.10497,14.75324 c -12.6624,-3.08264 -21.26782,-12.77633 -25.52521,-28.75324 -5.28252,-19.82401 1.15159,-41.24414 16.71765,-55.65557 10.23307,-9.47403 19.89472,-13.36168 32.1409,-12.93287 4.76666,0.16691 9.41666,0.21759 10.33333,0.11267 1.23303,-0.14119 1.66667,-4.47352 1.66667,-16.65085 0,-14.04732 0.34201,-16.74475 2.33333,-18.40252 2.64055,-2.19827 21.92493,-8.16058 27,-8.34782 l 3.33333,-0.12293 0.34592,64.82629 c 0.27139,50.86113 -0.0159,65.11255 -1.33333,66.15504 -3.12705,2.47435 -27.24067,9.76993 -29.46751,8.91543 -1.35485,-0.52002 -2.21174,-2.3433 -2.21174,-4.70619 0,-4.84625 -0.94016,-4.82045 -9.09607,0.24953 -9.48707,5.8975 -17.32061,7.48378 -26.23727,5.31303 z m 18.83551,-3.97703 c 7.40424,-3.36228 8.04323,-4.94606 2.70617,-6.70745 -10.24778,-3.38207 -14.15234,-13.69989 -14.18752,-37.49054 -0.0299,-20.23132 2.53994,-33.20284 8.21198,-41.45071 3.02342,-4.39647 3.03772,-5.1258 0.10053,-5.13411 -11.05456,-0.0312 -28.00675,13.30435 -35.08745,27.60186 -4.32331,8.7297 -4.49139,9.649 -4.46203,24.40474 0.0345,17.39033 1.41756,21.85181 9.57979,30.90477 9.03881,10.02522 21.74781,13.044 33.13853,7.87144 z m 33.01809,-2.30734 c 5.94719,-1.94212 11.56307,-4.11559 12.47974,-4.82992 1.2916,-1.00652 1.66666,-15.5144 1.66666,-64.46887 0,-49.66161 -0.3564,-63.16429 -1.66666,-63.14301 -0.91667,0.0149 -7.06667,1.72285 -13.66667,3.79547 l -12,3.76838 -0.3584,17.20454 c -0.28993,13.91765 -0.76545,17.5091 -2.48904,18.79872 -1.76683,1.32197 -1.87639,2.32353 -0.6416,5.86564 2.04384,5.86297 2.01439,65.96855 -0.0352,71.84803 -1.29087,3.70299 -1.1888,4.56019 0.66667,5.59856 1.2602,0.70524 2.1909,2.89716 2.1909,5.15984 0,2.16356 0.68412,3.93375 1.52027,3.93375 0.83615,0 6.38615,-1.58901 12.33333,-3.53113 z m -21.50664,-9.1895 3.65304,-3.38729 v -34.31602 c 0,-37.97698 -0.44689,-40.24272 -7.93748,-40.24272 -4.6991,0 -11.31021,7.07384 -13.37504,14.31122 -4.16745,14.60724 -3.55281,51.67777 0.9857,59.44876 2.48061,4.24741 7.24496,7.51697 11.00712,7.55369 1.10749,0.0107 3.65749,-1.50462 5.66666,-3.36764 z m 72.31971,15.53719 c -10.63863,-2.75836 -17.39727,-8.91324 -22.82955,-20.79017 -7.62814,-16.67787 -5.2473,-37.95569 6.1581,-55.0354 6.25425,-9.36583 12.24974,-14.29016 22.56542,-18.53391 12.96463,-5.33348 24.86269,-3.29614 14.94935,2.5598 -10.15895,6.00104 -14.81191,38.53174 -9.41224,65.80472 2.34988,11.86895 11.85932,17.16464 18.90225,10.52644 l 3.66667,-3.45596 v -33.83798 c 0,-29.7843 -0.27952,-34.32651 -2.33334,-37.91584 -2.2825,-3.98903 -2.26798,-4.12372 0.66667,-6.18366 2.83803,-1.99212 3,-3.00309 3,-18.72545 0,-19.18803 -2.05336,-16.65911 18.4382,-22.70853 10.53871,-3.11119 12.62271,-3.38042 13.64625,-1.76295 1.99274,3.149 1.5933,126.96488 -0.41778,129.50165 -2.06772,2.60824 -27.03692,10.93431 -29.71228,9.90768 -1.12222,-0.43064 -1.95439,-2.47099 -1.95439,-4.79183 0,-4.70892 -2.15147,-5.2022 -6.82019,-1.5637 -8.13506,6.33994 -19.9157,9.2342 -28.51314,7.00509 z m 18.8355,-4.04035 c 7.4538,-3.38478 8.04375,-4.94589 2.55374,-6.75776 -11.12164,-3.67048 -14.7719,-15.13648 -13.65851,-42.9035 0.81308,-20.2774 2.42888,-28.34659 7.03553,-35.13487 3.85896,-5.68649 3.90283,-5.97818 0.9004,-5.98668 -10.6727,-0.0301 -29.15853,14.4468 -34.91074,27.33994 -5.06855,11.36074 -7.06184,23.62674 -5.36243,32.99841 1.54335,8.51104 5.11408,17.1364 8.98418,21.70189 3.28794,3.87873 11.17197,9.58528 14.28899,10.34252 6.01512,1.46131 14.9965,0.74884 20.16884,-1.59995 z m 33.00287,-2.35538 c 5.95556,-1.96855 11.57829,-4.14202 12.49496,-4.82994 1.29228,-0.96978 1.66667,-15.44072 1.66667,-64.42081 0,-49.66161 -0.3564,-63.16429 -1.66667,-63.14301 -0.91667,0.0149 -7.06667,1.72199 -13.66667,3.79356 l -12,3.76648 -0.66666,17.59217 c -0.4922,12.98824 -1.15004,17.88995 -2.51368,18.72994 -1.48302,0.91353 -1.54871,1.99346 -0.33334,5.4799 2.06727,5.93015 2.05844,65.98359 -0.0107,71.91873 -1.29087,3.70299 -1.1888,4.56019 0.66666,5.59856 1.2602,0.70524 2.19091,2.89716 2.19091,5.15984 0,2.16356 0.67727,3.93375 1.50504,3.93375 0.82777,0 6.37777,-1.61063 12.33333,-3.57917 z m 69.30229,5.396 c -0.49,-1.36592 -10.71072,-22.53987 -22.71273,-47.05321 -12.07748,-24.6675 -21.31287,-45.07868 -20.68205,-45.7095 0.62689,-0.62689 8.59052,-0.97052 17.69696,-0.76362 l 16.55716,0.37617 12.66666,25.78027 c 6.96667,14.17914 13.71667,26.54529 15,27.48032 3.7101,2.70316 2.84736,6.19966 -5.72364,23.19655 -8.78692,17.4251 -11.34378,20.75902 -12.80236,16.69302 z m 11.526,-19.53486 7.33334,-14.16581 -2.41746,-3.72474 c -1.32958,-2.04862 -7.55534,-14.22475 -13.83501,-27.05808 -6.27965,-12.83334 -12.3348,-24.38334 -13.45587,-25.66667 -1.69372,-1.93888 -4.35676,-2.33333 -15.75296,-2.33333 -7.54306,0 -13.97784,0.45 -14.29952,1 -0.32166,0.55 5.79292,13.94617 13.58798,29.76928 7.79506,15.8231 16.56561,33.8231 19.4901,39.99999 6.82896,14.42363 8.71702,17.44114 10.53502,16.83719 0.81457,-0.2706 4.78105,-6.86663 8.81438,-14.65783 z m 173.39982,20.343 c -14.3404,-3.0058 -26.0343,-11.98681 -32.9315,-25.29164 -3.2534,-6.27576 -3.867,-9.1834 -4.2546,-20.16189 -0.4329,-12.26166 -0.251,-13.26329 4.1153,-22.66666 5.3515,-11.52511 13.3867,-19.6209 24.7708,-24.95756 6.6282,-3.10719 9.2375,-3.54722 21.0346,-3.54722 12.7619,0 13.9468,0.24458 22.6076,4.66667 10.4345,5.32775 16.189,11.87312 20.4493,23.25973 4.2515,11.36331 3.9926,11.5468 -15.6821,11.11227 l -16.8426,-0.372 0.4538,-8.74348 c 0.7698,-14.83155 -4.1402,-26.58985 -11.1034,-26.58985 -7.0544,0 -13.9198,13.90978 -14.1489,28.66666 -0.057,3.66667 -0.1499,9.96667 -0.2065,14 -0.1748,12.4492 7.6152,23.5258 18.7131,26.60799 12.1245,3.3673 25.6907,0.47161 34.4611,-7.35567 6.347,-5.66454 7.4771,-3.50745 2.9312,5.59495 -9.9585,19.93984 -32.1101,30.44286 -54.3672,25.7777 z M 1106,791.86482 c 7.8304,-2.13421 18.9438,-9.96753 22.7938,-16.06625 1.8497,-2.93019 3.1778,-5.8577 2.9513,-6.50558 -0.2265,-0.64788 -3.0273,-0.004 -6.2241,1.43119 -4.2123,1.89091 -8.76,2.60913 -16.5206,2.60913 -17.8134,0 -26.4275,-6.06282 -30.911,-21.75611 -1.872,-6.55234 -2.0005,-9.6564 -0.828,-20 1.6739,-14.76682 3.498,-21.67732 7.0354,-26.65399 1.4634,-2.05888 2.2772,-4.12699 1.8084,-4.59577 -1.5807,-1.58076 -15.1362,3.98242 -21.5911,8.86102 -12.0893,9.13715 -18.3121,22.0346 -18.4043,38.14486 -0.1209,21.14163 11.7721,37.8797 31.2235,43.94374 7.295,2.27423 21.4167,2.56377 28.6667,0.58776 z m 29.9608,-57.14576 c 4.5105,-2.8525 -6.2798,-21.86532 -15.8577,-27.94194 -6.1655,-3.91163 -16.885,-7.77307 -18.1279,-6.53015 -0.3708,0.37084 0.5274,3.39064 1.996,6.71068 1.7704,4.00245 2.7733,9.49615 2.9764,16.30408 0.2256,7.56587 0.8429,10.58201 2.3459,11.4624 2.7011,1.58208 24.1642,1.578 26.6673,-0.005 z m 41.2234,59.84812 c -3.382,-0.52805 -11.3248,-2.5388 -17.6508,-4.46833 -13.4403,-4.09955 -12.9782,-3.28394 -13.3093,-23.49243 -0.154,-9.3976 0.2623,-13.84361 1.331,-14.21454 0.8553,-0.29686 3.7076,3.55644 6.3384,8.56289 6.306,12.00033 15.471,22.28756 24.291,27.26522 10.0565,5.67552 9.6876,8.01596 -1.0003,6.34719 z m -8.8677,-11.12039 c -4.9868,-4.70425 -11.148,-12.18641 -13.6917,-16.62701 -2.5436,-4.44061 -5.0748,-8.09167 -5.6248,-8.11348 -1.7656,-0.07 -1.1308,21.93852 0.7052,24.44939 1.5885,2.17233 20.0377,8.55068 25.3198,8.75366 1.5008,0.0577 -0.9384,-3.01934 -6.7085,-8.46256 z m 88.3501,9.3391 c -15.6774,-4.16972 -18.917,-5.50103 -20.413,-8.38875 -1.7366,-3.3524 -2.9056,-32.24888 -1.3436,-33.21425 1.4046,-0.86808 6.4233,3.17933 6.4233,5.18017 0,3.23571 14.3231,22.51041 19.8722,26.74225 8.6624,6.606 17.8697,9.60123 22.992,7.4795 5.1213,-2.12131 7.8025,-6.12484 7.8025,-11.65074 0,-5.78402 -5.1086,-10.98116 -14,-14.24265 -22.4943,-8.2512 -28.0363,-10.72345 -32.1651,-14.34856 -18.9646,-16.6511 -13.6845,-41.05565 10.8702,-50.24276 10.4354,-3.90437 12.8154,-2.85056 7.4257,3.28795 -9.5905,10.92299 -2.8371,19.97633 20.7441,27.80852 22.5347,7.48464 31.761,15.0452 33.4158,27.38293 2.3283,17.35889 -15.5411,36.44965 -33.7524,36.05932 -3.5961,-0.0771 -8.6383,0.1926 -11.205,0.59927 -2.8853,0.45717 -9.2472,-0.47887 -16.6667,-2.4522 z m 12.6043,-0.45258 c -0.034,-0.55 -3.0656,-3.1 -6.7359,-5.66666 -6.8685,-4.80303 -16.8249,-16.7542 -21.3542,-25.63228 -4.9126,-9.62951 -5.9487,-6.52045 -4.3054,12.9197 0.8697,10.28792 0.9064,10.36936 5.5495,12.30939 4.6426,1.93979 22.0511,6.73687 25.2417,6.9556 0.9167,0.0628 1.6386,-0.33575 1.6043,-0.88575 z m 34.3989,-6.86464 c 8.9131,-7.04538 12.803,-15.36286 12.0505,-25.76638 -0.4779,-6.60723 -1.2256,-8.42565 -5.1398,-12.50064 -5.6873,-5.92096 -10.2775,-8.30019 -27.6071,-14.30955 -15.2379,-5.28404 -20.7279,-8.59384 -23.6602,-14.26436 -2.5613,-4.95302 -2.5097,-9.27798 0.1561,-13.08397 1.1748,-1.67727 1.7882,-3.39739 1.3631,-3.82251 -1.6958,-1.6958 -12.9343,4.06823 -17.2534,8.84902 -8.9179,9.87105 -9.7025,20.59165 -2.2949,31.3582 5.2491,7.6293 11.0917,11.38368 25.7876,16.57067 26.0134,9.18159 30.4394,14.22619 25.5908,29.1675 -1.5567,4.79693 3.4136,3.80444 11.0073,-2.19798 z m -798.74302,7.01364 c -0.50974,-0.50972 -0.92679,-24.69328 -0.92679,-53.74121 0,-45.51193 -0.28533,-53.2218 -2.06363,-55.76068 -2.59793,-3.70906 -1.33324,-11.82916 2.13114,-13.68324 2.90077,-1.55244 31.88017,-1.7128 34.27944,-0.18968 1.31997,0.83795 1.60588,14.20024 1.33333,62.31292 l -0.34695,61.24623 -16.73988,0.37122 c -9.20694,0.20418 -17.15694,-0.0459 -17.66666,-0.55556 z m 33.07321,-61.81566 v -59.33333 l -16.96467,-0.37291 c -16.76944,-0.36861 -16.97358,-0.33733 -17.74061,2.71871 -0.42677,1.7004 -0.14267,4.75726 0.63133,6.79304 0.90075,2.36916 1.40728,22.54674 1.40728,56.05906 0,28.79671 0.41803,52.77567 0.92894,53.28659 0.51092,0.5109 7.86092,0.7609 16.33333,0.55554 l 15.4044,-0.37337 z m 410.60508,60.98698 c -0.3545,-0.92381 -0.48568,-20.25073 -0.29149,-42.9487 l 0.35307,-41.26903 14.2685,-4.55216 c 7.84768,-2.50368 15.19768,-4.1956 16.33334,-3.7598 1.37134,0.52624 2.06482,2.52299 2.06482,5.94531 0,2.83412 0.37704,5.53 0.83787,5.99083 0.46083,0.46082 3.33044,-1.2046 6.37691,-3.70096 17.08651,-14.00115 40.92811,-13.47316 47.52281,1.05242 2.3018,5.0699 2.5399,9.12059 2.5665,43.65511 0.021,27.8635 -0.3996,38.49552 -1.5708,39.66666 -1.0449,1.04494 -6.546,1.6 -15.8573,1.6 -11.7709,0 -14.3985,-0.36782 -15.0667,-2.10905 -0.4451,-1.15997 -0.8093,-17.38977 -0.8093,-36.06621 0,-37.10599 -0.6719,-40.93863 -7.47611,-42.64637 -4.37024,-1.09687 -13.6387,1.92198 -15.27229,4.97437 -0.68912,1.28764 -1.25159,18.13713 -1.25159,37.49295 0,25.56446 -0.43646,35.59078 -1.6,36.75431 -2.28598,2.28599 -30.24792,2.21442 -31.12824,-0.0797 z m 30.30488,-37.32031 c 0.24356,-36.37143 -0.0633,-51.84839 -1.04886,-52.88787 -0.79828,-0.84203 -25.84542,6.78377 -26.67146,8.12033 -0.51522,0.83368 -0.94512,63.74857 -0.54732,80.10087 0.0133,0.55 6.32434,1 14.02434,1 h 14 z m 57.61405,34.22427 c 1.473,-3.83857 0.8824,-68.41998 -0.6826,-74.63494 -0.9816,-3.89828 -3.0497,-7.29268 -6.0464,-9.92376 -4.1941,-3.68252 -5.3455,-3.99891 -14.5524,-3.99891 -8.0743,0 -11.2892,0.65432 -16.70893,3.40072 -7.38353,3.74152 -7.93277,6.37458 -1.46322,7.0147 2.57961,0.25522 5.23905,1.73836 6.89735,3.84648 2.5565,3.25012 2.6988,5.30836 2.6988,39.02902 0,19.57888 0.4,35.99797 0.8889,36.48685 0.4889,0.4889 7.0247,0.8889 14.5241,0.8889 11.2034,0 13.7794,-0.37612 14.4444,-2.10906 z m 162.1426,3.9682 c 0,-0.44414 1.5,-2.59017 3.3334,-4.76897 3.8129,-4.53147 4.3759,-11.00828 1.3343,-15.3508 -2.8906,-4.12689 -9.7694,-8.03265 -20.6871,-11.746 -34.0925,-11.5956 -44.787,-27.585 -31.9689,-47.79702 3.1031,-4.8931 5.716,-6.9271 14.0443,-10.93287 l 10.2319,-4.92136 14.8561,0.74029 c 17.3359,0.86387 27.076,2.9086 28.7153,6.02819 0.6424,1.22251 1.3868,7.92273 1.6544,14.8894 0.3995,10.40459 0.1408,12.66667 -1.4486,12.66667 -1.0642,0 -3.1642,-2.34619 -4.6667,-5.21374 -3.6365,-6.94058 -13.3598,-17.64094 -19.6228,-21.59462 -3.0922,-1.952 -7.0082,-3.17278 -10.0824,-3.14306 -4.1905,0.0405 -5.6388,0.85562 -8.7086,4.90116 -6.892,9.08283 -0.7723,16.03599 20.6165,23.42447 24.3008,8.39437 34.047,18.23945 33.4803,33.81978 -0.4262,11.71688 -8.6521,23.25578 -19.9416,27.9728 -4.4761,1.87024 -11.1398,2.48379 -11.1398,1.02568 z m 15.516,-6.19248 c 11.5656,-7.72936 16.799,-22.98033 11.6264,-33.88081 -3.5634,-7.50932 -14.9169,-15.71941 -27.4551,-19.85366 -14.5627,-4.80182 -19.9645,-7.62546 -24.1862,-12.6427 -3.9849,-4.73581 -4.4802,-9.96488 -1.3651,-14.41237 1.1748,-1.67727 1.8178,-3.36787 1.4287,-3.75689 -1.35,-1.35006 -8.2597,1.0285 -13.5467,4.66326 -13.8848,9.54562 -16.5973,25.06878 -6.3606,36.39964 5.5098,6.09863 11.899,9.58854 29.0093,15.84537 15.1275,5.53175 19.9798,8.7054 22.7788,14.8982 2.0988,4.6436 2.0735,6.86699 -0.16,14.0733 -1.2686,4.09317 0.5521,3.79821 8.2305,-1.33334 z m 4.2135,-68.92586 c -0.3373,-5.82588 -1.3475,-11.47732 -2.245,-12.55875 -1.658,-1.99774 -19.5556,-5.88864 -20.9006,-4.54372 -0.4041,0.4041 2.5822,3.87171 6.6362,7.7058 4.054,3.83408 9.2505,9.90015 11.5477,13.48014 2.2973,3.57998 4.4914,6.50906 4.8759,6.50906 0.3844,0 0.423,-4.76664 0.086,-10.59253 z m -666.49867,24.02843 c -7.8188,-7.8188 -4.19729,-20.04826 8.33568,-28.14871 8.14607,-5.26505 27.23891,-12.92628 28.66359,-11.5016 0.45802,0.45803 -0.7751,3.15292 -2.74026,5.98865 -2.24572,3.24058 -4.07798,8.32643 -4.93236,13.69082 -1.75645,11.02844 -4.7915,17.10092 -10.42126,20.85068 -6.6227,4.41112 -13.95571,4.06985 -18.90539,-0.87984 z m 17.47953,-0.7918 c 5.01816,-2.59499 7.23315,-6.9985 9.82012,-19.52283 1.14894,-5.56232 2.4638,-11.09009 2.92192,-12.28395 1.31736,-3.43297 -3.80817,-2.70248 -12.76598,1.8194 -10.30024,5.19955 -16.82368,11.03263 -18.70144,16.72232 -3.7681,11.41744 7.23088,19.20911 18.72538,13.26506 z m 733.77504,-15.495 c -6.834,-10.59928 -12.6053,-16.94808 -19.3283,-21.26223 -9.299,-5.96716 -7.1227,-7.47371 7.6266,-5.27937 7.2572,1.07969 12.3913,2.56746 13.8322,4.00833 2.6382,2.63823 4.9958,24.97256 2.8613,27.107 -0.7671,0.76713 -2.6757,-0.98164 -4.9918,-4.57373 z m 0.4981,-20.73704 c -1.8204,-1.82044 -15.0433,-4.57442 -16.2362,-3.38158 -0.3442,0.34427 3.3968,5.07284 8.3134,10.50794 l 8.9393,9.882 0.4063,-7.58971 c 0.2739,-5.11828 -0.1894,-8.18525 -1.4228,-9.41865 z M 801.33112,595.66665 c -0.70311,-1.65 -11.24975,-27.9 -23.437,-58.33333 -12.18724,-30.43333 -38.67135,-96.43333 -58.85355,-146.66666 -20.18221,-50.23333 -41.1059,-102.36752 -46.49709,-115.85375 -5.39117,-13.48624 -10.81195,-25.63624 -12.04613,-27 -1.7816,-1.96865 -1.85539,-2.47958 -0.35807,-2.47958 1.03725,0 2.57381,1.10149 3.41456,2.44776 0.84076,1.34626 12.3216,29.39626 25.51299,62.33333 13.19138,32.93707 31.00121,77.28557 39.5774,98.55224 41.24796,102.28399 71.91466,179.20601 73.48865,184.33333 1.84626,6.01429 1.34093,7.69504 -0.80176,2.66666 z M 632.26665,579.73332 c -2.3262,-2.3262 -2.3262,-413.14046 0,-415.46666 1.19871,-1.1987 17.19852,-1.6 63.79335,-1.6 61.92121,0 62.20447,0.012 64.73333,2.86068 2.52298,2.84152 2.52032,2.85036 -0.39706,1.32011 -2.12818,-1.11628 -20.1215,-1.44512 -65.33334,-1.19401 L 632.66665,166 632.32908,371.07972 c -0.2302,139.84869 0.1028,205.90259 1.04692,207.66667 1.5834,2.95861 1.20181,3.29809 -1.10935,0.98693 z m 335.71618,-3.11179 c -1.33214,-3.50378 -2.00358,-319.04526 -0.6817,-320.36712 0.38437,-0.38438 0.83929,-0.44886 1.01094,-0.14331 0.44531,0.79272 1.76366,323.88921 1.32158,323.88903 -0.20148,-8e-5 -0.94436,-1.52045 -1.65082,-3.3786 z M 853.63605,505.57976 c -4.82388,-4.37161 -8.35099,-8.66683 -8.33333,-10.14811 0.0168,-1.41257 6.04685,-17.91257 13.40006,-36.66666 16.64882,-42.46223 17.3616,-44.09833 19.21191,-44.09833 2.81903,0 15.41863,13.96952 15.41863,17.09504 0,1.65616 -1.2,5.36338 -2.66667,8.23829 -1.46667,2.87491 -2.66667,5.88392 -2.66667,6.68671 0,0.80277 -1.12782,3.97668 -2.50629,7.0531 -1.37845,3.07644 -4.70024,11.29352 -7.38176,18.26019 -2.68152,6.96667 -6.35368,15.82996 -8.16037,19.6962 -1.80671,3.86625 -3.3294,8.06625 -3.38379,9.33333 -0.0544,1.26709 -1.10439,4.51469 -2.33333,7.21691 l -2.23446,4.9131 z m -206.63606,-1.37484 -8.33334,-7.66465 v -41.04792 c 0,-22.57636 0.51946,-40.84792 1.15434,-40.60347 0.63488,0.24444 4.54348,3.55811 8.68577,7.36371 l 7.53144,6.91925 -0.35244,41.34887 -0.35244,41.34888 z m 451.25711,0.0548 -7.5905,-7.67039 v -40.96134 c 0,-22.52873 0.4705,-40.96133 1.0456,-40.96133 0.575,0 4.2059,3.20006 8.0685,7.11125 l 7.0229,7.11127 -0.098,41.14041 c -0.054,22.62722 -0.2689,41.31146 -0.478,41.52054 -0.2091,0.20907 -3.7958,-3.07158 -7.9706,-7.29034 z m -230.25712,-96.0349 c 0,-0.56366 0.53862,-1.59483 1.19691,-2.2915 1.33519,-1.41301 4.21703,-8.39786 20.60167,-49.93333 30.94604,-78.44898 38.497,-97.55508 55.85661,-141.33333 10.32312,-26.03333 19.6668,-48.38333 20.76372,-49.66666 1.8442,-2.15762 6.47822,-2.33334 61.53291,-2.33334 45.5258,0 60.0752,0.39226 61.8187,1.66667 1.8363,1.34212 -9.8087,1.66667 -59.8009,1.66667 h -62.08115 l -3.22536,7.33333 c -2.87868,6.54511 -32.45777,80.82841 -59.72896,150 -5.49328,13.93333 -15.24831,38.65659 -21.67785,54.94057 -6.42955,16.28398 -12.49248,29.91516 -13.47319,30.29149 -0.98071,0.37633 -1.78311,0.22307 -1.78311,-0.34057 z m 50.16623,-70.52496 -7.83379,-7.57973 2.03314,-6.06007 c 2.27718,-6.78756 23.78846,-61.96049 27.18562,-69.72673 1.20292,-2.75 2.79176,-5 3.53075,-5 0.73899,0 4.77545,3.27341 8.9699,7.27425 7.38275,7.04195 7.56758,7.38745 5.78723,10.81908 -1.01149,1.94965 -1.83908,4.11468 -1.83908,4.81117 0,0.69651 -1.5,4.54571 -3.33333,8.55378 -1.83334,4.00808 -3.33334,7.92258 -3.33334,8.6989 0,0.77632 -1.8,5.3004 -4,10.05352 -2.19999,4.75311 -3.99999,9.2201 -3.99999,9.92664 0,0.70655 -1.5,4.24475 -3.33334,7.86266 -1.83333,3.6179 -3.33333,7.5061 -3.33333,8.64044 0,1.13432 -0.5468,3.10426 -1.21512,4.37765 -0.66832,1.27339 -2.21795,5.16524 -3.44361,8.64857 -1.22567,3.48334 -2.62887,6.32124 -3.11822,6.30647 -0.48934,-0.0148 -4.41492,-3.43775 -8.72349,-7.6066 z m -271.16622,-0.48985 -7,-6.73247 v -40.63836 c 0,-45.40885 -0.81691,-42.69011 9.85726,-32.80581 l 6.15555,5.70002 0.0524,38.96664 c 0.0623,46.3552 0.16428,42.30656 -1.06516,42.2712 -0.55,-0.0159 -4.15,-3.05837 -8,-6.76122 z m 451.33331,-0.62404 -7.6667,-7.13691 v -40.05787 c 0,-27.6644 0.4432,-40.05786 1.4325,-40.05786 0.7879,0 4.4043,2.85 8.0365,6.33333 l 6.604,6.33333 -0.3698,40.86144 -0.3698,40.86144 z m -267.88577,-2.36791 c -4.33371,-3.74144 -6.48699,-8.36132 -19.05597,-40.88473 -7.79362,-20.16667 -14.73215,-38.01667 -15.41898,-39.66667 -1.5416,-3.70351 0.14262,-3.88931 3.32994,-0.36737 1.31037,1.44794 3.36505,2.94448 4.56596,3.32564 2.71229,0.86084 6.33261,7.80944 7.38364,14.17166 0.43581,2.63814 2.28237,7.8852 4.10346,11.66014 1.82108,3.77493 3.31107,7.66478 3.31107,8.64409 0,0.97931 1.49749,4.73225 3.32775,8.33987 1.83026,3.60761 3.33026,7.32925 3.33333,8.27029 0.003,0.94105 1.50559,4.67111 3.33892,8.28901 1.83333,3.61791 3.33333,7.51907 3.33333,8.66926 0,1.15017 0.94628,3.53544 2.10284,5.30057 1.15656,1.76513 1.90656,4.39215 1.66667,5.83783 -0.39905,2.40477 -0.852,2.26949 -5.32196,-1.58959 z"
       id="path20"
       inkscape:connector-curvature="0" />
    <path
       style="fill:#e3bf1a;stroke-width:1.33333325"
       d="m 1019.0902,597.6678 c 15.9996,-0.21285 41.7996,-0.21259 57.3333,5.7e-4 15.5337,0.21315 2.4431,0.3873 -29.0902,0.38698 -31.5333,-3.1e-4 -44.2427,-0.17471 -28.2431,-0.38755 z m -378.47367,-10.00115 -6.61654,-7 7,6.61655 c 6.50452,6.14821 7.61146,7.38345 6.61654,7.38345 -0.2109,0 -3.3609,-3.15 -7,-7 z m 15.9742,-32.33333 c -6e-4,-22 0.18207,-31.18708 0.40592,-20.41575 0.22386,10.77135 0.22435,28.77135 10e-4,40 -0.22327,11.22867 -0.40642,2.41575 -0.40702,-19.58425 z m 450.66087,0.66667 c 0,-20.16667 0.1853,-28.41667 0.4118,-18.33334 0.2265,10.08334 0.2265,26.58334 0,36.66667 -0.2265,10.08333 -0.4118,1.83333 -0.4118,-18.33333 z m -221.557,-134.82895 -8.30538,-8.04029 9.78908,-24.89871 c 5.38399,-13.69429 12.41838,-31.72394 15.63195,-40.06588 3.21359,-8.34194 6.64355,-15.47441 7.62215,-15.84993 2.29921,-0.88229 16.23425,12.83861 16.23425,15.98479 0,1.31566 -3.96085,12.43616 -8.80191,24.71221 -4.84105,12.27605 -11.4997,29.22009 -14.79701,37.65343 -3.29731,8.43333 -6.68645,16.05588 -7.53143,16.939 -1.18316,1.23657 -3.44553,-0.2426 -9.8417,-6.43462 z m -238.02795,0.3022 -7.66666,-7.1934 V 373.0288 c 0,-23.89794 0.50501,-41.06406 1.20049,-40.80658 0.66028,0.24444 4.26879,3.32644 8.01891,6.84888 l 6.81838,6.40444 -0.35222,41.59556 -0.35223,41.59556 z m 450.95445,-0.85076 -7.2878,-7.3775 -0.345,-38.95583 c -0.2115,-23.87171 0.1621,-39.73025 0.9647,-40.95582 1.0777,-1.64554 2.5567,-0.75699 8.3451,5.0133 l 7.0352,7.01331 0.6667,40.00102 c 0.3666,22.00058 0.4666,40.59459 0.2222,41.32004 -0.7867,2.3347 -2.176,1.45804 -9.6011,-6.05852 z m -237.78396,-1.67996 c -0.4073,-0.65904 -3.98121,-9.5407 -7.94201,-19.73705 -3.9608,-10.19635 -11.25393,-28.91743 -16.20695,-41.6024 -4.95301,-12.68497 -8.62509,-23.44396 -8.1602,-23.90886 1.46922,-1.4692 9.38272,7.29086 13.19367,14.60507 2.01572,3.86872 8.22395,18.73404 13.79605,33.03404 5.57211,14.3 10.66692,26.33962 11.32182,26.75471 0.6678,0.42327 0.40462,3.02529 -0.59927,5.92495 -1.78865,5.1664 -4.00628,7.18965 -5.40311,4.92954 z"
       id="path18"
       inkscape:connector-curvature="0" />
    <path
       style="fill:#d53b38;stroke-width:1.33333325"
       d="m 815.46734,610.60548 c -2.63082,-2.30991 -6.66122,-6.57087 -8.95642,-9.46879 -3.67222,-4.63654 -3.92454,-5.46105 -2.1022,-6.86949 1.13898,-0.88031 10.27126,-22.60055 20.29393,-48.26721 10.02268,-25.66667 18.50805,-47.1294 18.85637,-47.69498 1.04682,-1.69968 17.7743,13.81803 17.7743,16.4888 0,1.3575 -1.13619,5.03423 -2.52487,8.17051 -6.32584,14.28677 -20.1418,49.60843 -20.1418,51.49423 0,0.5723 -1.17549,3.47354 -2.6122,6.44718 -1.43671,2.97364 -3.46757,7.73635 -4.51304,10.58378 -6.89059,18.7672 -8.43219,22.36296 -9.78035,22.81234 -0.8307,0.2769 -3.66288,-1.38646 -6.29372,-3.69637 z M 642.18381,588.18524 c -8.03032,-8.09235 -8.7571,-9.23199 -6.29757,-9.87517 2.73931,-0.71635 2.78041,-1.31039 2.78041,-40.18526 0,-22.6006 0.51455,-39.45816 1.2044,-39.45816 0.66243,0 4.56243,3.10382 8.66667,6.89738 l 7.46227,6.89736 v 42.43597 c 0,49.60015 0.69926,47.9154 -13.81618,33.28788 z m 337.60558,1.50533 c -4.42284,-4.21868 -8.60133,-8.71632 -9.28553,-9.99474 -1.10181,-2.05878 -0.84891,-2.17422 2.21287,-1.01014 4.79266,1.82218 111.95737,1.76091 115.37087,-0.066 2.4602,-1.31661 2.579,-3.18989 2.579,-40.66661 0,-21.60753 0.4705,-39.28643 1.0456,-39.28643 0.575,0 4.2079,3.20216 8.0731,7.11592 l 7.0275,7.11591 0.013,41.88409 0.013,41.88408 -59.5042,0.34712 -59.50419,0.34712 -8.04154,-7.67032 z M 859.47597,419.22427 c -1.31193,-3.41883 -0.93476,-3.90551 0.98841,-1.27541 1.13195,1.54802 2.44272,2.0599 3.53934,1.38216 1.15125,-0.71151 1.41913,-0.55458 0.79025,0.46296 -1.3694,2.21573 -4.37259,1.89401 -5.318,-0.56971 z M 639.26053,373.33332 c 0,-23.1 0.18162,-32.54999 0.40359,-21 0.22197,11.55 0.22197,30.45 0,42 -0.22197,11.55 -0.40359,2.1 -0.40359,-21 z m 451.51137,39.22223 c 0.064,-1.55327 0.3799,-1.8692 0.8056,-0.80556 0.3851,0.96249 0.3378,2.11251 -0.1052,2.55556 -0.4431,0.44305 -0.7582,-0.34445 -0.7003,-1.75 z m -224.10525,-0.17008 c 0,-0.76576 1.05,-2.21576 2.33333,-3.22223 2.15835,-1.69268 2.18664,-1.62993 0.3773,0.83675 -1.07583,1.46667 -2.12583,2.91667 -2.33334,3.22223 -0.2075,0.30554 -0.37729,-0.071 -0.37729,-0.83675 z m 12.04084,-5.05215 c 0,-0.73333 0.58161,-2.23333 1.29249,-3.33333 0.71088,-1.1 1.2925,-1.4 1.2925,-0.66667 0,0.73334 -0.58162,2.23334 -1.2925,3.33334 -0.71088,1.1 -1.29249,1.4 -1.29249,0.66666 z m -25.87612,-5.38488 c -1.28664,-3.35292 -0.90708,-4.21806 0.66471,-1.51512 0.77825,1.33834 1.13413,2.71422 0.79084,3.05751 -0.3433,0.34329 -0.9983,-0.35079 -1.45555,-1.54239 z m 33.87612,-14.61512 c 0,-0.73333 0.58161,-2.23333 1.29249,-3.33333 0.71088,-1.1 1.2925,-1.4 1.2925,-0.66667 0,0.73334 -0.58162,2.23334 -1.2925,3.33334 -0.71088,1.1 -1.29249,1.4 -1.29249,0.66666 z m -40.54279,-2.71821 c -1.28664,-3.35292 -0.90708,-4.21807 0.66471,-1.51512 0.77825,1.33833 1.13413,2.71421 0.79084,3.05751 -0.34329,0.34329 -0.99829,-0.35079 -1.45555,-1.54239 z m 47.20946,-14.61512 c 0,-0.73333 0.58161,-2.23333 1.29249,-3.33333 0.71088,-1.1 1.29249,-1.4 1.29249,-0.66667 0,0.73333 -0.58161,2.23333 -1.29249,3.33333 -0.71088,1.1 -1.29249,1.4 -1.29249,0.66667 z m -55.20946,-5.38488 c -1.28664,-3.35292 -0.90708,-4.21807 0.66471,-1.51512 0.77825,1.33833 1.13413,2.71421 0.79084,3.05751 -0.34329,0.34329 -0.99829,-0.35079 -1.45555,-1.54239 z m 64.54279,-18.61512 c 0,-0.73333 0.58161,-2.23333 1.29249,-3.33333 0.71088,-1.1 1.2925,-1.4 1.2925,-0.66667 0,0.73334 -0.58162,2.23334 -1.2925,3.33333 -0.71088,1.1 -1.29249,1.4 -1.29249,0.66667 z m -73.87612,-5.38488 c -1.28664,-3.35292 -0.90708,-4.21806 0.66471,-1.51512 0.77825,1.33834 1.13413,2.71422 0.79084,3.05751 -0.3433,0.34329 -0.9983,-0.35079 -1.45555,-1.54239 z m -2.05945,-6.72622 c 0.064,-1.55327 0.37992,-1.8692 0.80554,-0.80556 0.38516,0.96249 0.3378,2.11249 -0.1052,2.55556 -0.44305,0.44305 -0.75818,-0.34446 -0.70029,-1.75 z m 263.99998,-1.33334 c 0.064,-1.55326 0.3799,-1.8692 0.8056,-0.80556 0.3851,0.9625 0.3378,2.1125 -0.1052,2.55556 -0.4431,0.44306 -0.7582,-0.34445 -0.7003,-1.75 z M 950.33331,255.19378 c -4.21666,-4.08053 -7.65889,-8.11844 -7.64938,-8.97313 0.0193,-1.74315 20.10129,-53.93912 21.76698,-56.57573 2.84206,-4.49868 3.54907,2.06377 3.54907,32.94218 v 33.09639 l -4.57771,3.49158 c -2.51773,1.92038 -4.76773,3.4795 -5,3.46472 -0.23226,-0.0148 -3.87229,-3.36549 -8.08896,-7.44601 z m -303.99999,-1.05773 -7.66667,-7.07707 v -24.97393 c 0,-19.28961 0.37662,-24.8484 1.65463,-24.4224 0.91004,0.30335 5.94336,11.1008 11.18516,23.99434 8.67201,21.33104 9.30367,23.50214 7.01204,24.10142 -2.09044,0.54666 -2.51849,1.9262 -2.51849,8.11676 0,4.10198 -0.45,7.4311 -1,7.39805 -0.55,-0.0331 -4.45,-3.2448 -8.66667,-7.13717 z m 451.99998,-0.0856 -7.6667,-6.99152 v -38.28382 c 0,-24.7687 -0.5063,-39.22989 -1.4342,-40.96375 -2.4404,-4.55986 2.5441,-1.01799 10.909,7.75166 l 7.4544,7.81522 0.1347,38.27382 c 0.074,21.0506 -0.285,38.52493 -0.7979,38.83187 -0.513,0.30692 -4.3826,-2.58815 -8.5993,-6.43348 z m -299.36824,-0.95939 c -5.39517,-4.14657 -6.27262,-5.90832 -18.45584,-37.05565 -7.03524,-17.98615 -14.50407,-36.46857 -16.59739,-41.07207 -4.58174,-10.07585 -2.81583,-9.60681 7.23958,1.92291 5.23493,6.00245 8.12469,11.03087 11.43963,19.90581 2.43944,6.53103 8.57398,22.31585 13.63233,35.07739 5.05833,12.76153 9.01905,23.73657 8.80159,24.38897 -0.21748,0.65241 -2.94443,-0.77291 -6.0599,-3.16736 z"
       id="path16"
       inkscape:connector-curvature="0" />
    <path
       style="fill:#212320;stroke-width:1.33333325"
       d="m 853.0716,828.29835 c -11.14819,-5.19901 -14.21395,-16.6945 -6.50751,-24.40093 3.21529,-3.21529 5.00756,-3.89744 10.24015,-3.89744 5.76258,0 6.83905,0.52997 11.76922,5.79432 6.26671,6.69145 9.87326,8.87235 14.6722,8.87235 1.88155,0 3.42099,0.48229 3.42099,1.07177 0,2.18724 -8.86095,9.53187 -14.66667,12.15684 -7.32557,3.31216 -12.45618,3.42143 -18.92838,0.40309 z M 559.61002,790.54681 c -6.25446,-3.3008 -10.26515,-9.63003 -10.27171,-16.20966 -0.009,-9.42874 11.37792,-18.51573 33.02695,-26.35522 4.60089,-1.66607 8.68054,-2.71392 9.06589,-2.32856 0.38535,0.38535 -0.82901,2.95471 -2.69859,5.70969 -2.75554,4.06052 -3.39924,6.60308 -3.39924,13.42691 0,12.1987 1.97632,15.48166 11.08451,18.41302 3.49987,1.12639 1.54405,3.29291 -6.24789,6.921 -8.9763,4.17955 -23.072,4.37458 -30.55992,0.42282 z m 58.08597,1.17226 c -1.63387,-0.78856 -3.30859,-2.49848 -3.72162,-3.7998 -0.41302,-1.30133 -2.02589,-3.98686 -3.58413,-5.96785 -2.74176,-3.48559 -2.82459,-4.72909 -2.56705,-38.54002 0.25245,-33.14247 0.12906,-35.11255 -2.40154,-38.3296 -1.46721,-1.86527 -2.2873,-3.77174 -1.82244,-4.2366 0.46487,-0.46487 5.6244,-0.84522 11.46562,-0.84522 8.36241,0 11.55602,0.57826 15.02113,2.7198 7.70347,4.76102 8.47977,9.20616 8.88671,50.88599 l 0.36065,36.9391 -3.06273,1.39423 c -3.90215,1.77633 -14.70335,1.64839 -18.5746,-0.22003 z m 50.97066,-0.8733 c -6.23753,-2.84079 -14.30816,-11.3343 -17.56252,-18.48275 -1.7323,-3.80515 -2.29721,-8.76284 -2.32029,-20.36304 -0.0293,-14.75574 0.13872,-15.67504 4.46203,-24.40474 7.0807,-14.29751 24.03289,-27.6331 35.08745,-27.60186 2.93719,0.008 2.92289,0.73764 -0.10053,5.13411 -5.67204,8.24787 -8.24188,21.21939 -8.21198,41.45071 0.0352,23.79065 3.93974,34.10847 14.18752,37.49054 5.33706,1.76139 4.69807,3.34517 -2.70617,6.70745 -6.96729,3.16387 -15.98104,3.19134 -22.83551,0.0696 z m 105.33333,1.53037 c -3.11702,-0.75724 -11.00105,-6.46379 -14.28899,-10.34252 -3.8701,-4.56549 -7.44083,-13.19085 -8.98418,-21.70189 -1.69941,-9.37167 0.29388,-21.63767 5.36243,-32.99841 5.75221,-12.89314 24.23804,-27.3701 34.91074,-27.33994 3.00243,0.008 2.95856,0.30019 -0.9004,5.98668 -4.60665,6.78828 -6.22245,14.85747 -7.03553,35.13487 -1.11339,27.76702 2.53687,39.23302 13.65851,42.9035 5.49001,1.81187 4.90006,3.37298 -2.55374,6.75776 -5.17234,2.34879 -14.15372,3.06126 -20.16884,1.59995 z m 303.33332,-1.09908 c -19.4514,-6.06404 -31.3444,-22.80211 -31.2235,-43.94374 0.092,-16.11026 6.315,-29.00771 18.4043,-38.14486 6.4549,-4.8786 20.0104,-10.44178 21.5911,-8.86102 0.4688,0.46878 -0.345,2.53689 -1.8084,4.59577 -3.5374,4.97667 -5.3615,11.88717 -7.0354,26.65399 -2.2485,19.83601 2.7041,32.60337 15.0364,38.76242 8.065,4.02787 24.6788,4.22017 33.2232,0.38456 3.1968,-1.43503 5.9976,-2.07907 6.2241,-1.43119 0.2265,0.64788 -1.1016,3.57539 -2.9513,6.50558 -3.85,6.09872 -14.9634,13.93204 -22.7938,16.06625 -7.25,1.97601 -21.3717,1.68647 -28.6667,-0.58776 z m 179.2162,-0.61645 c -5.1978,-1.34432 -11.5539,-3.32303 -14.1246,-4.39715 -4.6431,-1.94003 -4.6798,-2.02147 -5.5495,-12.30939 -1.6433,-19.44015 -0.6072,-22.54921 4.3054,-12.9197 4.5293,8.87808 14.4857,20.82925 21.3542,25.63228 10.4132,7.2819 9.3837,7.96892 -5.9855,3.99396 z m -545.88285,-2.59438 c 0,-2.26268 -0.9307,-4.4546 -2.1909,-5.15984 -1.85547,-1.03837 -1.95754,-1.89557 -0.66667,-5.59856 2.04959,-5.87948 2.07904,-65.98506 0.0352,-71.84803 -1.23479,-3.54211 -1.12523,-4.54367 0.6416,-5.86564 1.72359,-1.28962 2.19911,-4.88107 2.48904,-18.79872 l 0.3584,-17.20454 12,-3.76838 c 6.6,-2.07262 12.75,-3.78058 13.66667,-3.79547 1.31026,-0.0213 1.66666,13.4814 1.66666,63.14301 0,48.95447 -0.37506,63.46235 -1.66666,64.46887 -1.84062,1.43436 -22.39695,8.36105 -24.81307,8.36105 -0.83615,0 -1.52027,-1.77019 -1.52027,-3.93375 z m 102.66667,0 c 0,-2.26268 -0.93071,-4.4546 -2.19091,-5.15984 -1.85547,-1.03837 -1.95753,-1.89557 -0.66667,-5.59856 2.069,-5.93514 2.07783,-65.98858 0.0107,-71.91873 -1.21537,-3.48644 -1.14968,-4.56637 0.33333,-5.4799 1.36364,-0.83999 2.02148,-5.7417 2.51368,-18.72994 l 0.66667,-17.59217 12,-3.76648 c 6.6,-2.07157 12.75,-3.77867 13.66667,-3.79356 1.31026,-0.0213 1.66666,13.4814 1.66666,63.14301 0,48.98009 -0.37438,63.45103 -1.66666,64.42081 -1.8918,1.41963 -22.52859,8.40911 -24.8284,8.40911 -0.82778,0 -1.50504,-1.77019 -1.50504,-3.93375 z m 348.70528,0.587 c -5.8455,-1.74102 -11.3955,-4.21492 -12.3334,-5.49754 -1.836,-2.51087 -2.4708,-24.5194 -0.7052,-24.44939 0.55,0.0219 3.0812,3.67287 5.6248,8.11348 2.5437,4.4406 8.7049,11.92276 13.6917,16.62701 10.1513,9.5763 9.6869,9.96146 -6.2779,5.20644 z m -709.32078,0.76286 c -0.63884,-1.03367 -15.95216,-38.84711 -35.67089,-88.08277 -2.20274,-5.5 -4.8165,-10.92192 -5.80836,-12.04872 -2.9867,-3.39299 -7.50163,-14.67594 -6.7042,-16.75399 0.61042,-1.59073 3.91044,-1.87445 18.25573,-1.56952 l 17.51061,0.37223 1.78972,4.66666 c 0.98436,2.56667 6.91669,17.70224 13.18299,33.63462 6.26628,15.93237 11.39324,29.50145 11.39324,30.15352 0,0.65206 1.24358,2.76654 2.76353,4.69884 l 2.76353,3.51326 -4.18853,10.99988 c -11.50204,30.20645 -13.25784,33.69984 -15.28737,30.41599 z m 53.54444,0.40172 c -0.51091,-0.51092 -0.92894,-24.48988 -0.92894,-53.28659 0,-33.51232 -0.50653,-53.6899 -1.40728,-56.05906 -0.774,-2.03578 -1.0581,-5.09264 -0.63133,-6.79304 0.76703,-3.05604 0.97117,-3.08732 17.74061,-2.71871 l 16.96467,0.37291 v 59.33333 59.33333 l -15.4044,0.37337 c -8.47241,0.20536 -15.82241,-0.0447 -16.33333,-0.55554 z m 444.38005,-0.15116 c -0.3978,-16.3523 0.0321,-79.26719 0.54732,-80.10087 0.82604,-1.33656 25.87318,-8.96236 26.67146,-8.12033 0.98549,1.03948 1.29242,16.51644 1.04886,52.88787 l -0.2433,36.33333 h -14 c -7.7,0 -14.01095,-0.45 -14.02434,-1 z m 56.91319,0.11106 c -0.4889,-0.48884 -0.8889,-16.90793 -0.8889,-36.48681 0,-33.72066 -0.1423,-35.7789 -2.6988,-39.02902 -1.6583,-2.10812 -4.31774,-3.59126 -6.89735,-3.84648 -6.46955,-0.64012 -5.92031,-3.27318 1.46322,-7.0147 5.41973,-2.7464 8.63463,-3.40072 16.70893,-3.40072 9.2069,0 10.3583,0.31639 14.5524,3.99891 2.9967,2.63108 5.0648,6.02548 6.0464,9.92376 1.565,6.21496 2.1556,70.79637 0.6826,74.63494 -0.665,1.73294 -3.241,2.10906 -14.4444,2.10906 -7.4994,0 -14.0352,-0.4 -14.5241,-0.8889 z m 198.3966,-2.11106 c 2.2335,-7.20631 2.2588,-9.4297 0.16,-14.0733 -2.799,-6.1928 -7.6513,-9.36645 -22.7788,-14.8982 -17.1103,-6.25683 -23.4995,-9.74674 -29.0093,-15.84537 -10.2367,-11.33086 -7.5242,-26.85402 6.3606,-36.39964 5.287,-3.63476 12.1967,-6.01332 13.5467,-4.66326 0.3891,0.38902 -0.2539,2.07962 -1.4287,3.75689 -3.1151,4.44749 -2.6198,9.67656 1.3651,14.41237 4.2217,5.01724 9.6235,7.84088 24.1862,12.6427 12.5382,4.13425 23.8917,12.34434 27.4551,19.85366 5.1726,10.90048 -0.061,26.15145 -11.6264,33.88081 -7.6784,5.13155 -9.4991,5.42651 -8.2305,1.33334 z m 86.7104,0 c 4.8486,-14.94131 0.4226,-19.98591 -25.5908,-29.1675 -14.6959,-5.18699 -20.5385,-8.94137 -25.7876,-16.57067 -7.4076,-10.76655 -6.623,-21.48715 2.2949,-31.3582 4.3191,-4.78079 15.5576,-10.54482 17.2534,-8.84902 0.4251,0.42512 -0.1883,2.14524 -1.3631,3.82251 -2.6658,3.80599 -2.7174,8.13095 -0.1561,13.08397 2.9323,5.67052 8.4223,8.98032 23.6602,14.26436 17.3296,6.00936 21.9198,8.38859 27.6071,14.30955 3.9142,4.07499 4.6619,5.89341 5.1398,12.50064 0.7525,10.40352 -3.1374,18.721 -12.0505,25.76638 -7.5937,6.00242 -12.564,6.99491 -11.0073,2.19798 z m -396.8263,-1.2841 c -1.0276,-1.67708 -4.26112,-8.10306 -7.18562,-14.27996 -2.92449,-6.17689 -11.69504,-24.17689 -19.4901,-39.99999 -7.79506,-15.82311 -13.90964,-29.21928 -13.58798,-29.76928 0.32168,-0.55 6.75646,-1 14.29952,-1 11.3962,0 14.05924,0.39445 15.75296,2.33333 1.12107,1.28333 7.17622,12.83333 13.45587,25.66667 6.27967,12.83333 12.50543,25.00946 13.83501,27.05808 l 2.41746,3.72474 -7.33334,14.16581 c -4.03333,7.7912 -7.99981,14.38723 -8.81438,14.65783 -0.81459,0.27061 -2.32182,-0.88015 -3.3494,-2.55723 z M 553.68891,740.04509 c -8.93349,-8.32281 -2.62681,-20.15516 15.66411,-29.38839 8.95781,-4.52188 14.08334,-5.25237 12.76598,-1.8194 -0.45812,1.19386 -1.77298,6.72163 -2.92192,12.28395 -1.14892,5.56232 -2.94844,11.77537 -3.99893,13.80679 -3.79377,7.33636 -16.00811,10.24214 -21.50924,5.11705 z m 555.60459,-5.32096 c -1.503,-0.88039 -2.1203,-3.89653 -2.3459,-11.4624 -0.2031,-6.80793 -1.206,-12.30163 -2.9764,-16.30408 -1.4686,-3.32004 -2.3668,-6.33984 -1.996,-6.71068 1.2429,-1.24292 11.9624,2.61852 18.1279,6.53015 6.3525,4.03025 12.9396,12.9224 16.0224,21.62902 1.5454,4.3646 1.5224,5.24596 -0.1647,6.31292 -2.5031,1.58307 -23.9662,1.58715 -26.6673,0.005 z m 104.1409,-13.23321 c -2.2972,-3.57999 -7.4937,-9.64606 -11.5477,-13.48014 -4.054,-3.83409 -7.0403,-7.3017 -6.6362,-7.7058 1.345,-1.34492 19.2426,2.54598 20.9006,4.54372 1.5827,1.90708 3.564,23.15128 2.1592,23.15128 -0.3845,0 -2.5786,-2.92908 -4.8759,-6.50906 z m 82.2929,-9.95252 c -4.9166,-5.4351 -8.6576,-10.16367 -8.3134,-10.50794 1.1929,-1.19284 14.4158,1.56114 16.2362,3.38158 1.2334,1.2334 1.6967,4.30037 1.4228,9.41865 l -0.4063,7.58971 z M 774.29002,522.34901 C 758.368,482.55706 737.82977,431.39999 728.64955,408.66666 c -9.18024,-22.73334 -27.23467,-67.6722 -40.12098,-99.86415 -12.88629,-32.19194 -24.64089,-60.39194 -26.1213,-62.66666 -1.48043,-2.27472 -6.67895,-13.98628 -11.55228,-26.02568 -4.87334,-12.0394 -9.45935,-22.08933 -10.19114,-22.33317 -1.1631,-0.38758 -2.00398,142.65154 -1.99833,339.93149 10e-4,35.17972 -0.24232,39.80194 -2.13343,40.52763 -1.17401,0.45051 -2.66593,-0.0183 -3.31536,-1.04184 -0.67585,-1.06515 -1.04594,-89.38385 -0.86544,-206.52762 L 632.66665,166 h 63.2586 63.2586 l 2.44312,4.18321 c 1.34372,2.30076 8.15916,18.80076 15.14541,36.66667 6.98626,17.86589 14.44106,36.38345 16.56623,41.15011 2.12517,4.76667 10.53839,26.06667 18.69604,47.33334 8.15765,21.26666 21.67565,56.36666 30.04,77.99999 8.36436,21.63334 15.87803,41.28334 16.69705,43.66667 1.97404,5.74435 4.88972,5.48269 7.4291,-0.66667 1.13561,-2.75 2.85573,-5.9 3.82249,-7 0.96676,-1.1 7.56011,-16.7 14.65188,-34.66666 7.09177,-17.96667 16.80037,-42.56667 21.57467,-54.66667 28.07776,-71.1606 55.62085,-140.31795 58.41249,-146.66666 L 967.88691,166 l 60.00239,-0.34688 c 58.3783,-0.3375 60.0401,-0.27628 61.3985,2.2618 0.955,1.78449 1.3974,66.76754 1.4002,205.6802 0,189.61812 -0.1461,203.18195 -2.2635,204.7382 -2.7554,2.02523 -110.24836,2.42804 -115.49624,0.4328 l -3.24532,-1.23387 -0.59008,-193.44806 c -0.39743,-130.28554 -1.03891,-193.89689 -1.96467,-194.82265 -0.94386,-0.94386 -1.77741,-0.83464 -2.66026,0.34862 -1.03491,1.38702 -16.64819,41.87474 -22.77399,59.0565 -0.78436,2.2 -7.23644,18.7 -14.33796,36.66667 -7.1015,17.96666 -13.85917,35.36666 -15.01704,38.66666 -1.15785,3.3 -2.85706,7.2 -3.77604,8.66667 -1.44748,2.31015 -26.27142,65.06545 -31.64538,80 -1.05552,2.93333 -8.36467,21.53333 -16.24255,41.33333 -7.87788,19.8 -14.74931,37.5 -15.26983,39.33333 -0.52053,1.83333 -2.09964,6.0214 -3.50912,9.3068 -1.40949,3.28541 -10.0801,25.14121 -19.26802,48.56844 -9.18794,23.42724 -17.30912,42.79624 -18.04708,43.04223 -0.73796,0.24598 -14.36886,-32.10982 -30.2909,-71.90178 z"
       id="path14"
       inkscape:connector-curvature="0" />
  </g>
</svg>
