<?xml version="1.0" encoding="UTF-8" standalone="no"?>
<!-- Created with Inkscape (http://www.inkscape.org/) -->

<svg
   xmlns:dc="http://purl.org/dc/elements/1.1/"
   xmlns:cc="http://creativecommons.org/ns#"
   xmlns:rdf="http://www.w3.org/1999/02/22-rdf-syntax-ns#"
   xmlns:svg="http://www.w3.org/2000/svg"
   xmlns="http://www.w3.org/2000/svg"
   xmlns:sodipodi="http://sodipodi.sourceforge.net/DTD/sodipodi-0.dtd"
   xmlns:inkscape="http://www.inkscape.org/namespaces/inkscape"
   version="1.1"
   id="svg2"
   width="256"
   height="128"
   viewBox="0 0 256.00001 128"
   sodipodi:docname="maddyness.svg"
   inkscape:version="0.92.2 2405546, 2018-03-11">
  <metadata
     id="metadata8">
    <rdf:RDF>
      <cc:Work
         rdf:about="">
        <dc:format>image/svg+xml</dc:format>
        <dc:type
           rdf:resource="http://purl.org/dc/dcmitype/StillImage" />
        <dc:title></dc:title>
      </cc:Work>
    </rdf:RDF>
  </metadata>
  <defs
     id="defs6" />
  <sodipodi:namedview
     pagecolor="#ffffff"
     bordercolor="#666666"
     borderopacity="1"
     objecttolerance="10"
     gridtolerance="10"
     guidetolerance="10"
     inkscape:pageopacity="0"
     inkscape:pageshadow="2"
     inkscape:window-width="1364"
     inkscape:window-height="732"
     id="namedview4"
     showgrid="false"
     inkscape:zoom="1.1133638"
     inkscape:cx="16.168874"
     inkscape:cy="122.1875"
     inkscape:window-x="0"
     inkscape:window-y="35"
     inkscape:window-maximized="0"
     inkscape:current-layer="svg2" />
  <g
     id="g12"
     transform="matrix(0.18545149,0,0,0.18545149,-35.229359,-26.727346)"
     inkscape:transform-center-x="-15.055971"
     inkscape:transform-center-y="28.857268">
    <path
       style="fill:#47b9bd;stroke-width:1.33333325"
       d="m 801.33112,595.66665 c -0.70311,-1.65 -11.24975,-27.9 -23.437,-58.33333 -12.18724,-30.43333 -38.67135,-96.43333 -58.85355,-146.66666 -20.18221,-50.23333 -41.1059,-102.36752 -46.49709,-115.85375 -5.39117,-13.48624 -10.81195,-25.63624 -12.04613,-27 -1.7816,-1.96865 -1.85539,-2.47958 -0.35807,-2.47958 1.03725,0 2.57381,1.10149 3.41456,2.44776 0.84076,1.34626 12.3216,29.39626 25.51299,62.33333 13.19138,32.93707 31.00121,77.28557 39.5774,98.55224 41.24796,102.28399 71.91466,179.20601 73.48865,184.33333 1.84626,6.01429 1.34093,7.69504 -0.80176,2.66666 z M 632.26665,579.73332 c -2.3262,-2.3262 -2.3262,-413.14046 0,-415.46666 1.19871,-1.1987 17.19852,-1.6 63.79335,-1.6 61.92121,0 62.20447,0.012 64.73333,2.86068 2.52298,2.84152 2.52032,2.85036 -0.39706,1.32011 -2.12818,-1.11628 -20.1215,-1.44512 -65.33334,-1.19401 L 632.66665,166 632.32908,371.07972 c -0.2302,139.84869 0.1028,205.90259 1.04692,207.66667 1.5834,2.95861 1.20181,3.29809 -1.10935,0.98693 z m 335.71618,-3.11179 c -1.33214,-3.50378 -2.00358,-319.04526 -0.6817,-320.36712 0.38437,-0.38438 0.83929,-0.44886 1.01094,-0.14331 0.44531,0.79272 1.76366,323.88921 1.32158,323.88903 -0.20148,-8e-5 -0.94436,-1.52045 -1.65082,-3.3786 z M 853.63605,505.57976 c -4.82388,-4.37161 -8.35099,-8.66683 -8.33333,-10.14811 0.0168,-1.41257 6.04685,-17.91257 13.40006,-36.66666 16.64882,-42.46223 17.3616,-44.09833 19.21191,-44.09833 2.81903,0 15.41863,13.96952 15.41863,17.09504 0,1.65616 -1.2,5.36338 -2.66667,8.23829 -1.46667,2.87491 -2.66667,5.88392 -2.66667,6.68671 0,0.80277 -1.12782,3.97668 -2.50629,7.0531 -1.37845,3.07644 -4.70024,11.29352 -7.38176,18.26019 -2.68152,6.96667 -6.35368,15.82996 -8.16037,19.6962 -1.80671,3.86625 -3.3294,8.06625 -3.38379,9.33333 -0.0544,1.26709 -1.10439,4.51469 -2.33333,7.21691 l -2.23446,4.9131 z m -206.63606,-1.37484 -8.33334,-7.66465 v -41.04792 c 0,-22.57636 0.51946,-40.84792 1.15434,-40.60347 0.63488,0.24444 4.54348,3.55811 8.68577,7.36371 l 7.53144,6.91925 -0.35244,41.34887 -0.35244,41.34888 z m 451.25711,0.0548 -7.5905,-7.67039 v -40.96134 c 0,-22.52873 0.4705,-40.96133 1.0456,-40.96133 0.575,0 4.2059,3.20006 8.0685,7.11125 l 7.0229,7.11127 -0.098,41.14041 c -0.054,22.62722 -0.2689,41.31146 -0.478,41.52054 -0.2091,0.20907 -3.7958,-3.07158 -7.9706,-7.29034 z m -230.25712,-96.0349 c 0,-0.56366 0.53862,-1.59483 1.19691,-2.2915 1.33519,-1.41301 4.21703,-8.39786 20.60167,-49.93333 30.94604,-78.44898 38.497,-97.55508 55.85661,-141.33333 10.32312,-26.03333 19.6668,-48.38333 20.76372,-49.66666 1.8442,-2.15762 6.47822,-2.33334 61.53291,-2.33334 45.5258,0 60.0752,0.39226 61.8187,1.66667 1.8363,1.34212 -9.8087,1.66667 -59.8009,1.66667 h -62.08115 l -3.22536,7.33333 c -2.87868,6.54511 -32.45777,80.82841 -59.72896,150 -5.49328,13.93333 -15.24831,38.65659 -21.67785,54.94057 -6.42955,16.28398 -12.49248,29.91516 -13.47319,30.29149 -0.98071,0.37633 -1.78311,0.22307 -1.78311,-0.34057 z m 50.16623,-70.52496 -7.83379,-7.57973 2.03314,-6.06007 c 2.27718,-6.78756 23.78846,-61.96049 27.18562,-69.72673 1.20292,-2.75 2.79176,-5 3.53075,-5 0.73899,0 4.77545,3.27341 8.9699,7.27425 7.38275,7.04195 7.56758,7.38745 5.78723,10.81908 -1.01149,1.94965 -1.83908,4.11468 -1.83908,4.81117 0,0.69651 -1.5,4.54571 -3.33333,8.55378 -1.83334,4.00808 -3.33334,7.92258 -3.33334,8.6989 0,0.77632 -1.8,5.3004 -4,10.05352 -2.19999,4.75311 -3.99999,9.2201 -3.99999,9.92664 0,0.70655 -1.5,4.24475 -3.33334,7.86266 -1.83333,3.6179 -3.33333,7.5061 -3.33333,8.64044 0,1.13432 -0.5468,3.10426 -1.21512,4.37765 -0.66832,1.27339 -2.21795,5.16524 -3.44361,8.64857 -1.22567,3.48334 -2.62887,6.32124 -3.11822,6.30647 -0.48934,-0.0148 -4.41492,-3.43775 -8.72349,-7.6066 z m -271.16622,-0.48985 -7,-6.73247 v -40.63836 c 0,-45.40885 -0.81691,-42.69011 9.85726,-32.80581 l 6.15555,5.70002 0.0524,38.96664 c 0.0623,46.3552 0.16428,42.30656 -1.06516,42.2712 -0.55,-0.0159 -4.15,-3.05837 -8,-6.76122 z m 451.33331,-0.62404 -7.6667,-7.13691 v -40.05787 c 0,-27.6644 0.4432,-40.05786 1.4325,-40.05786 0.7879,0 4.4043,2.85 8.0365,6.33333 l 6.604,6.33333 -0.3698,40.86144 -0.3698,40.86144 z m -267.88577,-2.36791 c -4.33371,-3.74144 -6.48699,-8.36132 -19.05597,-40.88473 -7.79362,-20.16667 -14.73215,-38.01667 -15.41898,-39.66667 -1.5416,-3.70351 0.14262,-3.88931 3.32994,-0.36737 1.31037,1.44794 3.36505,2.94448 4.56596,3.32564 2.71229,0.86084 6.33261,7.80944 7.38364,14.17166 0.43581,2.63814 2.28237,7.8852 4.10346,11.66014 1.82108,3.77493 3.31107,7.66478 3.31107,8.64409 0,0.97931 1.49749,4.73225 3.32775,8.33987 1.83026,3.60761 3.33026,7.32925 3.33333,8.27029 0.003,0.94105 1.50559,4.67111 3.33892,8.28901 1.83333,3.61791 3.33333,7.51907 3.33333,8.66926 0,1.15017 0.94628,3.53544 2.10284,5.30057 1.15656,1.76513 1.90656,4.39215 1.66667,5.83783 -0.39905,2.40477 -0.852,2.26949 -5.32196,-1.58959 z"
       id="path20"
       inkscape:connector-curvature="0"
       sodipodi:nodetypes="cssccscssccscsccscscscccccscssssscsccccsccsccccccccssccccccscsscscscssssscccsscsscssscsscccccsccscccccssscccccscscccscccsscc" />
    <path
       style="fill:#e3bf1a;stroke-width:1.33333325"
       d="m 1019.0902,597.6678 c 15.9996,-0.21285 41.7996,-0.21259 57.3333,5.7e-4 15.5337,0.21315 2.4431,0.3873 -29.0902,0.38698 -31.5333,-3.1e-4 -44.2427,-0.17471 -28.2431,-0.38755 z m -378.47367,-10.00115 -6.61654,-7 7,6.61655 c 6.50452,6.14821 7.61146,7.38345 6.61654,7.38345 -0.2109,0 -3.3609,-3.15 -7,-7 z m 15.9742,-32.33333 c -6e-4,-22 0.18207,-31.18708 0.40592,-20.41575 0.22386,10.77135 0.22435,28.77135 10e-4,40 -0.22327,11.22867 -0.40642,2.41575 -0.40702,-19.58425 z m 450.66087,0.66667 c 0,-20.16667 0.1853,-28.41667 0.4118,-18.33334 0.2265,10.08334 0.2265,26.58334 0,36.66667 -0.2265,10.08333 -0.4118,1.83333 -0.4118,-18.33333 z m -221.557,-134.82895 -8.30538,-8.04029 9.78908,-24.89871 c 5.38399,-13.69429 12.41838,-31.72394 15.63195,-40.06588 3.21359,-8.34194 6.64355,-15.47441 7.62215,-15.84993 2.29921,-0.88229 16.23425,12.83861 16.23425,15.98479 0,1.31566 -3.96085,12.43616 -8.80191,24.71221 -4.84105,12.27605 -11.4997,29.22009 -14.79701,37.65343 -3.29731,8.43333 -6.68645,16.05588 -7.53143,16.939 -1.18316,1.23657 -3.44553,-0.2426 -9.8417,-6.43462 z m -238.02795,0.3022 -7.66666,-7.1934 V 373.0288 c 0,-23.89794 0.50501,-41.06406 1.20049,-40.80658 0.66028,0.24444 4.26879,3.32644 8.01891,6.84888 l 6.81838,6.40444 -0.35222,41.59556 -0.35223,41.59556 z m 450.95445,-0.85076 -7.2878,-7.3775 -0.345,-38.95583 c -0.2115,-23.87171 0.1621,-39.73025 0.9647,-40.95582 1.0777,-1.64554 2.5567,-0.75699 8.3451,5.0133 l 7.0352,7.01331 0.6667,40.00102 c 0.3666,22.00058 0.4666,40.59459 0.2222,41.32004 -0.7867,2.3347 -2.176,1.45804 -9.6011,-6.05852 z m -237.78396,-1.67996 c -0.4073,-0.65904 -3.98121,-9.5407 -7.94201,-19.73705 -3.9608,-10.19635 -11.25393,-28.91743 -16.20695,-41.6024 -4.95301,-12.68497 -8.62509,-23.44396 -8.1602,-23.90886 1.46922,-1.4692 9.38272,7.29086 13.19367,14.60507 2.01572,3.86872 8.22395,18.73404 13.79605,33.03404 5.57211,14.3 10.66692,26.33962 11.32182,26.75471 0.6678,0.42327 0.40462,3.02529 -0.59927,5.92495 -1.78865,5.1664 -4.00628,7.18965 -5.40311,4.92954 z"
       id="path18"
       inkscape:connector-curvature="0" />
    <path
       style="fill:#d53b38;stroke-width:1.33333325"
       d="m 815.46734,610.60548 c -2.63082,-2.30991 -6.66122,-6.57087 -8.95642,-9.46879 -3.67222,-4.63654 -3.92454,-5.46105 -2.1022,-6.86949 1.13898,-0.88031 10.27126,-22.60055 20.29393,-48.26721 10.02268,-25.66667 18.50805,-47.1294 18.85637,-47.69498 1.04682,-1.69968 17.7743,13.81803 17.7743,16.4888 0,1.3575 -1.13619,5.03423 -2.52487,8.17051 -6.32584,14.28677 -20.1418,49.60843 -20.1418,51.49423 0,0.5723 -1.17549,3.47354 -2.6122,6.44718 -1.43671,2.97364 -3.46757,7.73635 -4.51304,10.58378 -6.89059,18.7672 -8.43219,22.36296 -9.78035,22.81234 -0.8307,0.2769 -3.66288,-1.38646 -6.29372,-3.69637 z M 642.18381,588.18524 c -8.03032,-8.09235 -8.7571,-9.23199 -6.29757,-9.87517 2.73931,-0.71635 2.78041,-1.31039 2.78041,-40.18526 0,-22.6006 0.51455,-39.45816 1.2044,-39.45816 0.66243,0 4.56243,3.10382 8.66667,6.89738 l 7.46227,6.89736 v 42.43597 c 0,49.60015 0.69926,47.9154 -13.81618,33.28788 z m 337.60558,1.50533 c -4.42284,-4.21868 -8.60133,-8.71632 -9.28553,-9.99474 -1.10181,-2.05878 -0.84891,-2.17422 2.21287,-1.01014 4.79266,1.82218 111.95737,1.76091 115.37087,-0.066 2.4602,-1.31661 2.579,-3.18989 2.579,-40.66661 0,-21.60753 0.4705,-39.28643 1.0456,-39.28643 0.575,0 4.2079,3.20216 8.0731,7.11592 l 7.0275,7.11591 0.013,41.88409 0.013,41.88408 -59.5042,0.34712 -59.50419,0.34712 -8.04154,-7.67032 z M 859.47597,419.22427 c -1.31193,-3.41883 -0.93476,-3.90551 0.98841,-1.27541 1.13195,1.54802 2.44272,2.0599 3.53934,1.38216 1.15125,-0.71151 1.41913,-0.55458 0.79025,0.46296 -1.3694,2.21573 -4.37259,1.89401 -5.318,-0.56971 z M 639.26053,373.33332 c 0,-23.1 0.18162,-32.54999 0.40359,-21 0.22197,11.55 0.22197,30.45 0,42 -0.22197,11.55 -0.40359,2.1 -0.40359,-21 z m 451.51137,39.22223 c 0.064,-1.55327 0.3799,-1.8692 0.8056,-0.80556 0.3851,0.96249 0.3378,2.11251 -0.1052,2.55556 -0.4431,0.44305 -0.7582,-0.34445 -0.7003,-1.75 z m -224.10525,-0.17008 c 0,-0.76576 1.05,-2.21576 2.33333,-3.22223 2.15835,-1.69268 2.18664,-1.62993 0.3773,0.83675 -1.07583,1.46667 -2.12583,2.91667 -2.33334,3.22223 -0.2075,0.30554 -0.37729,-0.071 -0.37729,-0.83675 z m 12.04084,-5.05215 c 0,-0.73333 0.58161,-2.23333 1.29249,-3.33333 0.71088,-1.1 1.2925,-1.4 1.2925,-0.66667 0,0.73334 -0.58162,2.23334 -1.2925,3.33334 -0.71088,1.1 -1.29249,1.4 -1.29249,0.66666 z m -25.87612,-5.38488 c -1.28664,-3.35292 -0.90708,-4.21806 0.66471,-1.51512 0.77825,1.33834 1.13413,2.71422 0.79084,3.05751 -0.3433,0.34329 -0.9983,-0.35079 -1.45555,-1.54239 z m 33.87612,-14.61512 c 0,-0.73333 0.58161,-2.23333 1.29249,-3.33333 0.71088,-1.1 1.2925,-1.4 1.2925,-0.66667 0,0.73334 -0.58162,2.23334 -1.2925,3.33334 -0.71088,1.1 -1.29249,1.4 -1.29249,0.66666 z m -40.54279,-2.71821 c -1.28664,-3.35292 -0.90708,-4.21807 0.66471,-1.51512 0.77825,1.33833 1.13413,2.71421 0.79084,3.05751 -0.34329,0.34329 -0.99829,-0.35079 -1.45555,-1.54239 z m 47.20946,-14.61512 c 0,-0.73333 0.58161,-2.23333 1.29249,-3.33333 0.71088,-1.1 1.29249,-1.4 1.29249,-0.66667 0,0.73333 -0.58161,2.23333 -1.29249,3.33333 -0.71088,1.1 -1.29249,1.4 -1.29249,0.66667 z m -55.20946,-5.38488 c -1.28664,-3.35292 -0.90708,-4.21807 0.66471,-1.51512 0.77825,1.33833 1.13413,2.71421 0.79084,3.05751 -0.34329,0.34329 -0.99829,-0.35079 -1.45555,-1.54239 z m 64.54279,-18.61512 c 0,-0.73333 0.58161,-2.23333 1.29249,-3.33333 0.71088,-1.1 1.2925,-1.4 1.2925,-0.66667 0,0.73334 -0.58162,2.23334 -1.2925,3.33333 -0.71088,1.1 -1.29249,1.4 -1.29249,0.66667 z m -73.87612,-5.38488 c -1.28664,-3.35292 -0.90708,-4.21806 0.66471,-1.51512 0.77825,1.33834 1.13413,2.71422 0.79084,3.05751 -0.3433,0.34329 -0.9983,-0.35079 -1.45555,-1.54239 z m -2.05945,-6.72622 c 0.064,-1.55327 0.37992,-1.8692 0.80554,-0.80556 0.38516,0.96249 0.3378,2.11249 -0.1052,2.55556 -0.44305,0.44305 -0.75818,-0.34446 -0.70029,-1.75 z m 263.99998,-1.33334 c 0.064,-1.55326 0.3799,-1.8692 0.8056,-0.80556 0.3851,0.9625 0.3378,2.1125 -0.1052,2.55556 -0.4431,0.44306 -0.7582,-0.34445 -0.7003,-1.75 z M 950.33331,255.19378 c -4.21666,-4.08053 -7.65889,-8.11844 -7.64938,-8.97313 0.0193,-1.74315 20.10129,-53.93912 21.76698,-56.57573 2.84206,-4.49868 3.54907,2.06377 3.54907,32.94218 v 33.09639 l -4.57771,3.49158 c -2.51773,1.92038 -4.76773,3.4795 -5,3.46472 -0.23226,-0.0148 -3.87229,-3.36549 -8.08896,-7.44601 z m -303.99999,-1.05773 -7.66667,-7.07707 v -24.97393 c 0,-19.28961 0.37662,-24.8484 1.65463,-24.4224 0.91004,0.30335 5.94336,11.1008 11.18516,23.99434 8.67201,21.33104 9.30367,23.50214 7.01204,24.10142 -2.09044,0.54666 -2.51849,1.9262 -2.51849,8.11676 0,4.10198 -0.45,7.4311 -1,7.39805 -0.55,-0.0331 -4.45,-3.2448 -8.66667,-7.13717 z m 451.99998,-0.0856 -7.6667,-6.99152 v -38.28382 c 0,-24.7687 -0.5063,-39.22989 -1.4342,-40.96375 -2.4404,-4.55986 2.5441,-1.01799 10.909,7.75166 l 7.4544,7.81522 0.1347,38.27382 c 0.074,21.0506 -0.285,38.52493 -0.7979,38.83187 -0.513,0.30692 -4.3826,-2.58815 -8.5993,-6.43348 z m -299.36824,-0.95939 c -5.39517,-4.14657 -6.27262,-5.90832 -18.45584,-37.05565 -7.03524,-17.98615 -14.50407,-36.46857 -16.59739,-41.07207 -4.58174,-10.07585 -2.81583,-9.60681 7.23958,1.92291 5.23493,6.00245 8.12469,11.03087 11.43963,19.90581 2.43944,6.53103 8.57398,22.31585 13.63233,35.07739 5.05833,12.76153 9.01905,23.73657 8.80159,24.38897 -0.21748,0.65241 -2.94443,-0.77291 -6.0599,-3.16736 z"
       id="path16"
       inkscape:connector-curvature="0" />
    <path
       style="fill:#212320;stroke-width:1.33333325"
       d="m 853.0716,828.29835 c -11.14819,-5.19901 -14.21395,-16.6945 -6.50751,-24.40093 3.21529,-3.21529 5.00756,-3.89744 10.24015,-3.89744 5.76258,0 6.83905,0.52997 11.76922,5.79432 6.26671,6.69145 9.87326,8.87235 14.6722,8.87235 1.88155,0 3.42099,0.48229 3.42099,1.07177 0,2.18724 -8.86095,9.53187 -14.66667,12.15684 -7.32557,3.31216 -12.45618,3.42143 -18.92838,0.40309 z M 559.61002,790.54681 c -6.25446,-3.3008 -10.26515,-9.63003 -10.27171,-16.20966 -0.009,-9.42874 11.37792,-18.51573 33.02695,-26.35522 4.60089,-1.66607 8.68054,-2.71392 9.06589,-2.32856 0.38535,0.38535 -0.82901,2.95471 -2.69859,5.70969 -2.75554,4.06052 -3.39924,6.60308 -3.39924,13.42691 0,12.1987 1.97632,15.48166 11.08451,18.41302 3.49987,1.12639 1.54405,3.29291 -6.24789,6.921 -8.9763,4.17955 -23.072,4.37458 -30.55992,0.42282 z m 58.08597,1.17226 c -1.63387,-0.78856 -3.30859,-2.49848 -3.72162,-3.7998 -0.41302,-1.30133 -2.02589,-3.98686 -3.58413,-5.96785 -2.74176,-3.48559 -2.82459,-4.72909 -2.56705,-38.54002 0.25245,-33.14247 0.12906,-35.11255 -2.40154,-38.3296 -1.46721,-1.86527 -2.2873,-3.77174 -1.82244,-4.2366 0.46487,-0.46487 5.6244,-0.84522 11.46562,-0.84522 8.36241,0 11.55602,0.57826 15.02113,2.7198 7.70347,4.76102 8.47977,9.20616 8.88671,50.88599 l 0.36065,36.9391 -3.06273,1.39423 c -3.90215,1.77633 -14.70335,1.64839 -18.5746,-0.22003 z m 50.97066,-0.8733 c -6.23753,-2.84079 -14.30816,-11.3343 -17.56252,-18.48275 -1.7323,-3.80515 -2.29721,-8.76284 -2.32029,-20.36304 -0.0293,-14.75574 0.13872,-15.67504 4.46203,-24.40474 7.0807,-14.29751 24.03289,-27.6331 35.08745,-27.60186 2.93719,0.008 2.92289,0.73764 -0.10053,5.13411 -5.67204,8.24787 -8.24188,21.21939 -8.21198,41.45071 0.0352,23.79065 3.93974,34.10847 14.18752,37.49054 5.33706,1.76139 4.69807,3.34517 -2.70617,6.70745 -6.96729,3.16387 -15.98104,3.19134 -22.83551,0.0696 z m 105.33333,1.53037 c -3.11702,-0.75724 -11.00105,-6.46379 -14.28899,-10.34252 -3.8701,-4.56549 -7.44083,-13.19085 -8.98418,-21.70189 -1.69941,-9.37167 0.29388,-21.63767 5.36243,-32.99841 5.75221,-12.89314 24.23804,-27.3701 34.91074,-27.33994 3.00243,0.008 2.95856,0.30019 -0.9004,5.98668 -4.60665,6.78828 -6.22245,14.85747 -7.03553,35.13487 -1.11339,27.76702 2.53687,39.23302 13.65851,42.9035 5.49001,1.81187 4.90006,3.37298 -2.55374,6.75776 -5.17234,2.34879 -14.15372,3.06126 -20.16884,1.59995 z m 303.33332,-1.09908 c -19.4514,-6.06404 -31.3444,-22.80211 -31.2235,-43.94374 0.092,-16.11026 6.315,-29.00771 18.4043,-38.14486 6.4549,-4.8786 20.0104,-10.44178 21.5911,-8.86102 0.4688,0.46878 -0.345,2.53689 -1.8084,4.59577 -3.5374,4.97667 -5.3615,11.88717 -7.0354,26.65399 -2.2485,19.83601 2.7041,32.60337 15.0364,38.76242 8.065,4.02787 24.6788,4.22017 33.2232,0.38456 3.1968,-1.43503 5.9976,-2.07907 6.2241,-1.43119 0.2265,0.64788 -1.1016,3.57539 -2.9513,6.50558 -3.85,6.09872 -14.9634,13.93204 -22.7938,16.06625 -7.25,1.97601 -21.3717,1.68647 -28.6667,-0.58776 z m 179.2162,-0.61645 c -5.1978,-1.34432 -11.5539,-3.32303 -14.1246,-4.39715 -4.6431,-1.94003 -4.6798,-2.02147 -5.5495,-12.30939 -1.6433,-19.44015 -0.6072,-22.54921 4.3054,-12.9197 4.5293,8.87808 14.4857,20.82925 21.3542,25.63228 10.4132,7.2819 9.3837,7.96892 -5.9855,3.99396 z m -545.88285,-2.59438 c 0,-2.26268 -0.9307,-4.4546 -2.1909,-5.15984 -1.85547,-1.03837 -1.95754,-1.89557 -0.66667,-5.59856 2.04959,-5.87948 2.07904,-65.98506 0.0352,-71.84803 -1.23479,-3.54211 -1.12523,-4.54367 0.6416,-5.86564 1.72359,-1.28962 2.19911,-4.88107 2.48904,-18.79872 l 0.3584,-17.20454 12,-3.76838 c 6.6,-2.07262 12.75,-3.78058 13.66667,-3.79547 1.31026,-0.0213 1.66666,13.4814 1.66666,63.14301 0,48.95447 -0.37506,63.46235 -1.66666,64.46887 -1.84062,1.43436 -22.39695,8.36105 -24.81307,8.36105 -0.83615,0 -1.52027,-1.77019 -1.52027,-3.93375 z m 102.66667,0 c 0,-2.26268 -0.93071,-4.4546 -2.19091,-5.15984 -1.85547,-1.03837 -1.95753,-1.89557 -0.66667,-5.59856 2.069,-5.93514 2.07783,-65.98858 0.0107,-71.91873 -1.21537,-3.48644 -1.14968,-4.56637 0.33333,-5.4799 1.36364,-0.83999 2.02148,-5.7417 2.51368,-18.72994 l 0.66667,-17.59217 12,-3.76648 c 6.6,-2.07157 12.75,-3.77867 13.66667,-3.79356 1.31026,-0.0213 1.66666,13.4814 1.66666,63.14301 0,48.98009 -0.37438,63.45103 -1.66666,64.42081 -1.8918,1.41963 -22.52859,8.40911 -24.8284,8.40911 -0.82778,0 -1.50504,-1.77019 -1.50504,-3.93375 z m 348.70528,0.587 c -5.8455,-1.74102 -11.3955,-4.21492 -12.3334,-5.49754 -1.836,-2.51087 -2.4708,-24.5194 -0.7052,-24.44939 0.55,0.0219 3.0812,3.67287 5.6248,8.11348 2.5437,4.4406 8.7049,11.92276 13.6917,16.62701 10.1513,9.5763 9.6869,9.96146 -6.2779,5.20644 z m -709.32078,0.76286 c -0.63884,-1.03367 -15.95216,-38.84711 -35.67089,-88.08277 -2.20274,-5.5 -4.8165,-10.92192 -5.80836,-12.04872 -2.9867,-3.39299 -7.50163,-14.67594 -6.7042,-16.75399 0.61042,-1.59073 3.91044,-1.87445 18.25573,-1.56952 l 17.51061,0.37223 1.78972,4.66666 c 0.98436,2.56667 6.91669,17.70224 13.18299,33.63462 6.26628,15.93237 11.39324,29.50145 11.39324,30.15352 0,0.65206 1.24358,2.76654 2.76353,4.69884 l 2.76353,3.51326 -4.18853,10.99988 c -11.50204,30.20645 -13.25784,33.69984 -15.28737,30.41599 z m 53.54444,0.40172 c -0.51091,-0.51092 -0.92894,-24.48988 -0.92894,-53.28659 0,-33.51232 -0.50653,-53.6899 -1.40728,-56.05906 -0.774,-2.03578 -1.0581,-5.09264 -0.63133,-6.79304 0.76703,-3.05604 0.97117,-3.08732 17.74061,-2.71871 l 16.96467,0.37291 v 59.33333 59.33333 l -15.4044,0.37337 c -8.47241,0.20536 -15.82241,-0.0447 -16.33333,-0.55554 z m 444.38005,-0.15116 c -0.3978,-16.3523 0.0321,-79.26719 0.54732,-80.10087 0.82604,-1.33656 25.87318,-8.96236 26.67146,-8.12033 0.98549,1.03948 1.29242,16.51644 1.04886,52.88787 l -0.2433,36.33333 h -14 c -7.7,0 -14.01095,-0.45 -14.02434,-1 z m 56.91319,0.11106 c -0.4889,-0.48884 -0.8889,-16.90793 -0.8889,-36.48681 0,-33.72066 -0.1423,-35.7789 -2.6988,-39.02902 -1.6583,-2.10812 -4.31774,-3.59126 -6.89735,-3.84648 -6.46955,-0.64012 -5.92031,-3.27318 1.46322,-7.0147 5.41973,-2.7464 8.63463,-3.40072 16.70893,-3.40072 9.2069,0 10.3583,0.31639 14.5524,3.99891 2.9967,2.63108 5.0648,6.02548 6.0464,9.92376 1.565,6.21496 2.1556,70.79637 0.6826,74.63494 -0.665,1.73294 -3.241,2.10906 -14.4444,2.10906 -7.4994,0 -14.0352,-0.4 -14.5241,-0.8889 z m 198.3966,-2.11106 c 2.2335,-7.20631 2.2588,-9.4297 0.16,-14.0733 -2.799,-6.1928 -7.6513,-9.36645 -22.7788,-14.8982 -17.1103,-6.25683 -23.4995,-9.74674 -29.0093,-15.84537 -10.2367,-11.33086 -7.5242,-26.85402 6.3606,-36.39964 5.287,-3.63476 12.1967,-6.01332 13.5467,-4.66326 0.3891,0.38902 -0.2539,2.07962 -1.4287,3.75689 -3.1151,4.44749 -2.6198,9.67656 1.3651,14.41237 4.2217,5.01724 9.6235,7.84088 24.1862,12.6427 12.5382,4.13425 23.8917,12.34434 27.4551,19.85366 5.1726,10.90048 -0.061,26.15145 -11.6264,33.88081 -7.6784,5.13155 -9.4991,5.42651 -8.2305,1.33334 z m 86.7104,0 c 4.8486,-14.94131 0.4226,-19.98591 -25.5908,-29.1675 -14.6959,-5.18699 -20.5385,-8.94137 -25.7876,-16.57067 -7.4076,-10.76655 -6.623,-21.48715 2.2949,-31.3582 4.3191,-4.78079 15.5576,-10.54482 17.2534,-8.84902 0.4251,0.42512 -0.1883,2.14524 -1.3631,3.82251 -2.6658,3.80599 -2.7174,8.13095 -0.1561,13.08397 2.9323,5.67052 8.4223,8.98032 23.6602,14.26436 17.3296,6.00936 21.9198,8.38859 27.6071,14.30955 3.9142,4.07499 4.6619,5.89341 5.1398,12.50064 0.7525,10.40352 -3.1374,18.721 -12.0505,25.76638 -7.5937,6.00242 -12.564,6.99491 -11.0073,2.19798 z m -396.8263,-1.2841 c -1.0276,-1.67708 -4.26112,-8.10306 -7.18562,-14.27996 -2.92449,-6.17689 -11.69504,-24.17689 -19.4901,-39.99999 -7.79506,-15.82311 -13.90964,-29.21928 -13.58798,-29.76928 0.32168,-0.55 6.75646,-1 14.29952,-1 11.3962,0 14.05924,0.39445 15.75296,2.33333 1.12107,1.28333 7.17622,12.83333 13.45587,25.66667 6.27967,12.83333 12.50543,25.00946 13.83501,27.05808 l 2.41746,3.72474 -7.33334,14.16581 c -4.03333,7.7912 -7.99981,14.38723 -8.81438,14.65783 -0.81459,0.27061 -2.32182,-0.88015 -3.3494,-2.55723 z M 553.68891,740.04509 c -8.93349,-8.32281 -2.62681,-20.15516 15.66411,-29.38839 8.95781,-4.52188 14.08334,-5.25237 12.76598,-1.8194 -0.45812,1.19386 -1.77298,6.72163 -2.92192,12.28395 -1.14892,5.56232 -2.94844,11.77537 -3.99893,13.80679 -3.79377,7.33636 -16.00811,10.24214 -21.50924,5.11705 z m 555.60459,-5.32096 c -1.503,-0.88039 -2.1203,-3.89653 -2.3459,-11.4624 -0.2031,-6.80793 -1.206,-12.30163 -2.9764,-16.30408 -1.4686,-3.32004 -2.3668,-6.33984 -1.996,-6.71068 1.2429,-1.24292 11.9624,2.61852 18.1279,6.53015 6.3525,4.03025 12.9396,12.9224 16.0224,21.62902 1.5454,4.3646 1.5224,5.24596 -0.1647,6.31292 -2.5031,1.58307 -23.9662,1.58715 -26.6673,0.005 z m 104.1409,-13.23321 c -2.2972,-3.57999 -7.4937,-9.64606 -11.5477,-13.48014 -4.054,-3.83409 -7.0403,-7.3017 -6.6362,-7.7058 1.345,-1.34492 19.2426,2.54598 20.9006,4.54372 1.5827,1.90708 3.564,23.15128 2.1592,23.15128 -0.3845,0 -2.5786,-2.92908 -4.8759,-6.50906 z m 82.2929,-9.95252 c -4.9166,-5.4351 -8.6576,-10.16367 -8.3134,-10.50794 1.1929,-1.19284 14.4158,1.56114 16.2362,3.38158 1.2334,1.2334 1.6967,4.30037 1.4228,9.41865 l -0.4063,7.58971 z M 774.29002,522.34901 C 758.368,482.55706 737.82977,431.39999 728.64955,408.66666 c -9.18024,-22.73334 -27.23467,-67.6722 -40.12098,-99.86415 -12.88629,-32.19194 -24.64089,-60.39194 -26.1213,-62.66666 -1.48043,-2.27472 -6.67895,-13.98628 -11.55228,-26.02568 -4.87334,-12.0394 -9.45935,-22.08933 -10.19114,-22.33317 -1.1631,-0.38758 -2.00398,142.65154 -1.99833,339.93149 10e-4,35.17972 -0.24232,39.80194 -2.13343,40.52763 -1.17401,0.45051 -2.66593,-0.0183 -3.31536,-1.04184 -0.67585,-1.06515 -1.04594,-89.38385 -0.86544,-206.52762 L 632.66665,166 h 63.2586 63.2586 l 2.44312,4.18321 c 1.34372,2.30076 8.15916,18.80076 15.14541,36.66667 6.98626,17.86589 14.44106,36.38345 16.56623,41.15011 2.12517,4.76667 10.53839,26.06667 18.69604,47.33334 8.15765,21.26666 21.67565,56.36666 30.04,77.99999 8.36436,21.63334 15.87803,41.28334 16.69705,43.66667 1.97404,5.74435 4.88972,5.48269 7.4291,-0.66667 1.13561,-2.75 2.85573,-5.9 3.82249,-7 0.96676,-1.1 7.56011,-16.7 14.65188,-34.66666 7.09177,-17.96667 16.80037,-42.56667 21.57467,-54.66667 28.07776,-71.1606 55.62085,-140.31795 58.41249,-146.66666 L 967.88691,166 l 60.00239,-0.34688 c 58.3783,-0.3375 60.0401,-0.27628 61.3985,2.2618 0.955,1.78449 1.3974,66.76754 1.4002,205.6802 0,189.61812 -0.1461,203.18195 -2.2635,204.7382 -2.7554,2.02523 -110.24836,2.42804 -115.49624,0.4328 l -3.24532,-1.23387 -0.59008,-193.44806 c -0.39743,-130.28554 -1.03891,-193.89689 -1.96467,-194.82265 -0.94386,-0.94386 -1.77741,-0.83464 -2.66026,0.34862 -1.03491,1.38702 -16.64819,41.87474 -22.77399,59.0565 -0.78436,2.2 -7.23644,18.7 -14.33796,36.66667 -7.1015,17.96666 -13.85917,35.36666 -15.01704,38.66666 -1.15785,3.3 -2.85706,7.2 -3.77604,8.66667 -1.44748,2.31015 -26.27142,65.06545 -31.64538,80 -1.05552,2.93333 -8.36467,21.53333 -16.24255,41.33333 -7.87788,19.8 -14.74931,37.5 -15.26983,39.33333 -0.52053,1.83333 -2.09964,6.0214 -3.50912,9.3068 -1.40949,3.28541 -10.0801,25.14121 -19.26802,48.56844 -9.18794,23.42724 -17.30912,42.79624 -18.04708,43.04223 -0.73796,0.24598 -14.36886,-32.10982 -30.2909,-71.90178 z"
       id="path14"
       inkscape:connector-curvature="0" />
  </g>
</svg>
