<?xml version="1.0" encoding="UTF-8" standalone="no"?>
<!-- Created with Inkscape (http://www.inkscape.org/) -->

<svg
   xmlns:dc="http://purl.org/dc/elements/1.1/"
   xmlns:cc="http://creativecommons.org/ns#"
   xmlns:rdf="http://www.w3.org/1999/02/22-rdf-syntax-ns#"
   xmlns:svg="http://www.w3.org/2000/svg"
   xmlns="http://www.w3.org/2000/svg"
   xmlns:sodipodi="http://sodipodi.sourceforge.net/DTD/sodipodi-0.dtd"
   xmlns:inkscape="http://www.inkscape.org/namespaces/inkscape"
   version="1.1"
   id="svg2"
   width="256"
   height="256"
   viewBox="0 0 255.99999 256"
   sodipodi:docname="recast.svg"
   inkscape:version="0.92.2 2405546, 2018-03-11">
  <metadata
     id="metadata8">
    <rdf:RDF>
      <cc:Work
         rdf:about="">
        <dc:format>image/svg+xml</dc:format>
        <dc:type
           rdf:resource="http://purl.org/dc/dcmitype/StillImage" />
        <dc:title></dc:title>
      </cc:Work>
    </rdf:RDF>
  </metadata>
  <defs
     id="defs6" />
  <sodipodi:namedview
     pagecolor="#ffffff"
     bordercolor="#666666"
     borderopacity="1"
     objecttolerance="10"
     gridtolerance="10"
     guidetolerance="10"
     inkscape:pageopacity="0"
     inkscape:pageshadow="2"
     inkscape:window-width="1364"
     inkscape:window-height="732"
     id="namedview4"
     showgrid="false"
     inkscape:zoom="1.095695"
     inkscape:cx="-46.907852"
     inkscape:cy="87.421789"
     inkscape:window-x="0"
     inkscape:window-y="35"
     inkscape:window-maximized="0"
     inkscape:current-layer="svg2" />
  <g
     id="g12"
     transform="matrix(0.57094506,0,0,0.57094506,-122.56425,79.739869)">
    <path
       style="fill:#fde8b7;stroke-width:0.37301773"
       d="m 415.72888,92.780877 c -0.96384,-1.06503 -1.5682,-2.87256 -3.01991,-9.03203 -0.74948,-3.17998 -1.48389,-5.96263 -1.63203,-6.18367 -0.14813,-0.22105 -1.83916,-1.18913 -3.75785,-2.1513 -13.62639,-6.83328 -24.49012,-18.73586 -29.8967,-32.75557 -1.58761,-4.11683 -2.89789,-9.43688 -3.55068,-14.41666 -0.73511,-5.60776 -0.64157,-5.72991 3.16394,-4.13101 6.72692,2.82636 18.77064,4.96836 35.82355,6.37131 7.66656,0.63073 38.15143,0.62744 45.69468,-0.005 17.28865,-1.44936 29.36782,-3.63214 35.50908,-6.41673 3.26177,-1.47895 3.42928,-1.29101 3.01884,3.38714 -0.64863,7.39323 -2.74164,15.02571 -5.87503,21.42426 -5.87642,11.99998 -14.72586,20.54086 -27.89153,26.91902 -2.7154,1.31549 -5.08842,2.67904 -5.27338,3.03011 -0.18495,0.35108 -0.7835,2.31691 -1.33011,4.3685 -2.62378,9.84797 -3.8928,11.75767 -6.18896,9.31352 -0.48801,-0.51946 -1.9021,-2.99537 -3.14242,-5.50201 l -2.25513,-4.55755 -8.3929,-0.0198 c -4.61609,-0.0109 -9.25122,-0.15744 -10.30027,-0.32569 l -1.90737,-0.3059 -2.52071,4.95723 c -3.30596,6.501508 -4.66648,7.80925 -6.27511,6.03173 z m 2.6214,-0.91889 c 0.42453,-0.46161 1.64951,-2.6018 2.72217,-4.75598 1.07266,-2.15418 2.28788,-4.39397 2.70049,-4.97731 0.69078,-0.9766 0.88109,-1.041 2.40215,-0.8129 4.24826,0.63706 9.60674,0.83197 13.84786,0.50369 3.57595,-0.2768 4.72197,-0.25137 5.1629,0.11457 0.31169,0.25869 1.49532,2.32553 2.63027,4.59298 2.51352,5.02159 3.30278,6.17424 4.22777,6.17424 0.99911,0 1.99115,-2.1211 3.34683,-7.15588 0.62513,-2.32164 1.39185,-5.00527 1.70382,-5.96362 l 0.56723,-1.74245 6.04132,-3.00112 c 16.54143,-8.21724 26.98093,-20.97978 31.0823,-37.99885 1.10402,-4.58121 2.06884,-12.05827 1.61815,-12.54009 -0.17111,-0.18294 -1.50557,0.17024 -3.03766,0.80395 -6.56572,2.71573 -18.94082,4.83303 -35.74455,6.11565 -8.15916,0.62279 -35.97917,0.62374 -44.01609,0.001 -16.62603,-1.2872 -29.56049,-3.50183 -36.19336,-6.19701 -3.33614,-1.3556 -3.41561,-1.3303 -3.14434,1.00098 1.54683,13.29297 5.90096,23.84398 13.75596,33.33369 5.23814,6.32825 11.72906,11.455105 19.68202,15.54584 l 3.84812,1.97934 0.62183,2.034 c 0.342,1.11869 1.06077,3.96435 1.59725,6.32369 1.61175,7.08804 2.70019,8.66237 4.57756,6.62107 z m -3.69922,-31.25537 c -3.12345,-1.6496 -4.15685,-4.33438 -3.97183,-10.31885 0.12135,-3.92521 0.19044,-4.24059 1.26294,-5.7652 1.70177,-2.41912 3.56544,-3.35612 6.37427,-3.20478 2.63144,0.14178 4.32789,1.17827 5.78743,3.53597 0.74112,1.1972 0.89175,2.01221 1.01099,5.47001 0.15494,4.49339 -0.23462,6.42499 -1.68262,8.34308 -1.94316,2.57401 -5.91782,3.45201 -8.78118,1.93977 z m 5.78628,-0.40347 c 1.37057,-0.70415 2.89977,-2.31318 3.45644,-3.63689 0.63556,-1.51132 0.72842,-8.79672 0.13223,-10.37466 -0.48604,-1.2864 -2.05571,-2.98796 -3.40816,-3.69451 -0.55401,-0.28942 -1.77931,-0.52623 -2.72291,-0.52623 -1.96242,0 -3.29843,0.59613 -4.73224,2.11155 -1.50234,1.58785 -1.79557,2.7659 -1.79557,7.2139 0,5.31695 0.61194,6.80681 3.54367,8.62764 1.26653,0.7866 4.24594,0.93713 5.52654,0.2792 z m -4.0762,-2.55811 c -1.56135,-0.63085 -2.38288,-2.18413 -2.38288,-4.50533 0,-1.77247 0.17104,-2.36246 0.95503,-3.29417 1.63943,-1.94836 4.2228,-1.9061 5.84425,0.0956 0.46293,0.5715 0.64448,1.47865 0.64448,3.22025 0,2.56547 -0.49587,3.61028 -2.10374,4.43255 -0.94533,0.48345 -1.84846,0.49905 -2.95714,0.0511 z m 3.47135,-1.2807 c 0.93654,-0.80557 1.0466,-1.14239 1.0466,-3.20294 0,-2.06055 -0.11006,-2.39737 -1.0466,-3.20295 -1.36768,-1.17643 -3.00684,-1.17043 -4.19261,0.0153 -0.77168,0.77169 -0.91559,1.27271 -0.91559,3.18762 0,1.9149 0.14391,2.41592 0.91559,3.1876 1.18577,1.18577 2.82493,1.19177 4.19261,0.0153 z m 28.27689,4.38467 c -1.66134,-0.8743 -3.14398,-2.36711 -3.99504,-4.02245 -0.66094,-1.28557 -0.73614,-1.99113 -0.59769,-5.60807 0.18103,-4.72961 0.89332,-6.52761 3.37675,-8.52376 1.77818,-1.42928 4.7198,-1.7871 6.65698,-0.80975 1.63517,0.82498 3.60178,2.67812 4.34074,4.09028 0.88113,1.68386 1.07567,7.06245 0.3462,9.57172 -0.6719,2.31127 -2.58914,4.57326 -4.58202,5.40594 -1.62183,0.67764 -4.15084,0.63026 -5.54592,-0.10391 z m 6.64249,-1.35275 c 0.71867,-0.54815 1.70027,-1.62971 2.18132,-2.40345 0.78712,-1.26601 0.87465,-1.8422 0.87465,-5.75763 0,-4.24496 -0.0276,-4.3901 -1.13456,-5.96511 -1.45775,-2.07412 -3.58033,-3.28508 -5.77208,-3.29307 -2.29872,-0.008 -4.0673,1.0306 -5.40228,3.17362 -1.03759,1.66563 -1.12794,2.09634 -1.25065,5.96181 -0.1141,3.59417 -0.03,4.36689 0.61243,5.62559 1.39993,2.74299 3.46674,3.94796 6.47612,3.77563 1.58847,-0.091 2.4306,-0.36651 3.41505,-1.11739 z m -5.19215,-1.73385 c -1.57317,-0.67031 -2.38288,-2.20716 -2.38288,-4.5227 0,-1.77247 0.17104,-2.36246 0.95503,-3.29417 1.19805,-1.4238 3.00081,-1.82163 4.57227,-1.00899 1.74403,0.90187 2.30607,1.97473 2.30607,4.40196 0,1.82008 -0.1571,2.32349 -1.0258,3.28711 -1.10602,1.22689 -3.04445,1.7249 -4.42469,1.13679 z m 3.78886,-1.31341 c 0.74868,-0.74867 0.91559,-1.28714 0.91559,-2.95363 0,-2.58026 -0.21512,-3.11731 -1.51874,-3.79144 -1.53898,-0.79583 -2.86699,-0.67012 -3.90697,0.36986 -0.77168,0.77168 -0.91559,1.2727 -0.91559,3.18761 0,1.9149 0.14391,2.41592 0.91559,3.1876 1.2457,1.24569 3.26443,1.24569 4.51012,0 z M 349.32237,174.7122 c -17.46411,-2.80545 -27.3728,-19.97972 -21.59127,-37.42319 2.62663,-7.92483 10.04973,-14.84057 18.28193,-17.03239 2.73158,-0.72729 7.85142,-1.06403 11.31635,-0.74431 5.13053,0.47342 12.70423,3.24379 12.70423,4.64706 0,0.27883 -1.2579,2.4444 -2.79532,4.81238 -2.57276,3.96261 -3.52037,4.87917 -4.09059,3.95654 -0.11858,-0.19188 -1.1316,-0.69158 -2.25115,-1.11046 -6.49821,-2.43129 -12.84106,-1.41398 -17.32305,2.7784 -3.51117,3.28429 -4.98348,7.04798 -4.94863,12.65032 0.0471,7.56528 3.58221,13.18074 9.78041,15.53587 4.17281,1.58555 9.33475,1.28678 13.51728,-0.78237 1.82929,-0.90498 2.22338,-0.98567 2.66363,-0.54542 1.2779,1.2779 5.51078,8.42116 5.30614,8.95444 -0.30635,0.79833 -4.29755,2.58463 -7.8786,3.52614 -3.30271,0.86834 -9.68887,1.25931 -12.69136,0.77699 z m 13.34568,-1.66688 c 3.88396,-1.15604 6.62032,-2.3857 6.61744,-2.97374 -10e-4,-0.23385 -1.16775,-2.22651 -2.59246,-4.42812 l -2.59038,-4.00292 -2.2931,1.08446 c -6.64747,3.14376 -14.08605,2.02239 -18.95497,-2.85746 -3.4776,-3.48542 -4.87521,-7.14681 -4.89138,-12.81427 -0.0205,-7.17287 3.21238,-12.75589 9.05055,-15.63 2.13914,-1.0531 3.01715,-1.26106 5.97829,-1.41594 3.71439,-0.19429 6.35495,0.32689 9.48532,1.87214 0.87048,0.42969 1.64767,0.71014 1.72708,0.62321 0.97708,-1.06958 5.08257,-8.01439 4.94686,-8.36805 -0.27959,-0.7286 -3.82164,-2.32121 -7.13757,-3.20926 -3.99695,-1.07045 -11.47713,-1.15784 -15.29373,-0.17869 -9.33558,2.39504 -16.6023,9.57093 -19.11068,18.87178 -1.0323,3.8277 -0.91831,12.01022 0.21826,15.66675 2.44849,7.87723 8.11502,14.19421 15.34875,17.1106 3.65144,1.47214 6.53852,1.91187 11.56355,1.76123 3.64501,-0.10927 5.37546,-0.35192 7.92817,-1.11172 z m 99.68745,1.48324 c -3.60917,-0.70551 -6.64609,-1.90706 -9.57208,-3.7872 -3.38462,-2.17481 -5.53514,-4.17777 -5.53514,-5.15531 0,-0.89837 6.93302,-8.06274 7.80238,-8.06274 0.28334,0 1.10144,0.6037 1.81805,1.34155 2.11251,2.17518 4.14807,3.46747 6.70663,4.25773 5.07263,1.56677 8.68561,0.41318 9.53661,-3.04497 0.74428,-3.02426 -1.36245,-5.44984 -6.75222,-7.7743 -12.24166,-5.27945 -14.79302,-7.38457 -16.36145,-13.49987 -1.83219,-7.14365 1.53765,-14.39327 8.20005,-17.64106 5.70818,-2.78261 13.28421,-2.39203 19.73726,1.01753 2.35162,1.24249 6.98748,5.26859 6.98748,6.06837 0,0.45949 -6.70033,6.93331 -7.44633,7.19461 -0.17923,0.0628 -1.12222,-0.49373 -2.09553,-1.23669 -5.01389,-3.82718 -10.10341,-4.78594 -12.36036,-2.32843 -1.83689,2.00012 -1.25125,5.10701 1.27822,6.78092 0.79352,0.52513 2.94692,1.55797 4.78533,2.29521 6.20594,2.48872 10.49848,4.96526 12.66825,7.30884 2.87641,3.10689 3.69798,5.42265 3.68239,10.37962 -0.01,3.11306 -0.17785,4.33763 -0.819,5.96828 -1.71237,4.35489 -5.43356,7.78555 -10.11221,9.32268 -3.08963,1.01509 -8.6154,1.28583 -12.14833,0.59523 z m 10.45938,-0.79033 c 5.13798,-1.31935 8.5715,-3.98526 10.69923,-8.30733 1.16721,-2.37095 1.22245,-2.67766 1.22245,-6.78853 0,-4.11343 -0.0546,-4.41644 -1.22599,-6.79579 -0.75525,-1.53408 -1.87751,-3.06385 -2.92263,-3.9838 -1.86565,-1.64221 -7.68271,-4.76587 -11.61384,-6.23643 -5.44915,-2.03842 -7.55954,-3.94013 -7.53794,-6.79248 0.0246,-3.25025 1.79157,-4.91321 5.20904,-4.90256 3.01671,0.009 5.37911,1.07417 10.26903,4.62839 0.34624,0.25166 1.35562,-0.46947 3.59243,-2.56651 1.71095,-1.60409 3.25409,-3.1625 3.42915,-3.46314 0.75648,-1.29907 -5.30346,-5.80563 -9.86655,-7.33741 -5.30979,-1.78243 -11.49435,-1.57157 -15.85765,0.54068 -2.65182,1.28372 -5.21345,3.86441 -6.56896,6.61783 -1.15855,2.35335 -1.22372,2.70461 -1.22372,6.59675 0,3.48565 0.12877,4.39024 0.84642,5.94641 1.96778,4.2669 4.12941,5.8933 12.95349,9.74611 7.69684,3.36063 9.51534,4.97596 9.51232,8.4497 -0.006,6.69491 -9.5033,7.27214 -16.53435,1.00492 l -2.17458,-1.93831 -3.51394,3.49936 c -1.93268,1.92464 -3.51397,3.72907 -3.51397,4.00984 0,1.34873 6.51464,5.90541 10.19293,7.12947 1.29493,0.43092 3.09825,0.92939 4.00737,1.10773 2.73463,0.53643 8.22079,0.45124 10.62026,-0.1649 z m -250.79472,-0.24976 c -0.33959,-0.33959 -0.44762,-6.72798 -0.44762,-26.47113 v -26.02351 l 0.81269,-0.43494 c 1.22063,-0.65327 17.28424,-0.20423 20.38358,0.5698 6.48106,1.61857 11.48698,5.69369 13.50556,10.99434 1.71166,4.49473 1.63632,10.49507 -0.18165,14.46603 -0.98841,2.15898 -3.72028,5.28932 -5.66484,6.49113 -0.68861,0.42559 -1.25202,0.89542 -1.25202,1.04406 0,0.14865 2.52492,4.35869 5.61094,9.35564 3.08602,4.99694 5.55981,9.35183 5.49731,9.67752 -0.0969,0.5049 -0.96508,0.60791 -5.89071,0.69895 -3.17739,0.0587 -6.12965,0.0198 -6.56059,-0.0864 -0.54866,-0.13525 -2.67308,-3.32122 -7.08733,-10.62882 -3.46711,-5.73962 -6.42972,-10.44275 -6.58359,-10.45139 -0.15387,-0.009 -0.27976,4.66636 -0.27976,10.38888 0,9.14352 -0.0715,10.43203 -0.59004,10.63101 -1.14566,0.43963 -10.80056,0.25016 -11.27193,-0.22121 z m 11.26253,-0.88845 c 0.12453,-0.32451 0.22642,-5.27633 0.22642,-11.00402 0,-5.72769 0.14322,-10.41399 0.31827,-10.41399 0.17505,0 3.14026,4.65806 6.58936,10.35124 3.4491,5.69319 6.5212,10.645 6.82688,11.00403 0.48603,0.57085 1.29765,0.65278 6.46626,0.65278 3.50378,0 5.91047,-0.14498 5.91047,-0.35604 0,-0.19583 -2.42959,-4.2833 -5.3991,-9.08327 -2.96951,-4.79997 -5.49979,-8.9896 -5.62284,-9.31028 -0.15581,-0.40602 0.38891,-1.03565 1.79397,-2.07363 1.10973,-0.81981 2.47431,-2.0332 3.03238,-2.69643 5.13398,-6.1014 4.52916,-16.9051 -1.27111,-22.70537 -2.26149,-2.26149 -4.95841,-3.81309 -8.57306,-4.93229 -2.602,-0.80564 -3.4367,-0.86665 -11.93657,-0.87244 l -9.13893,-0.006 -0.0966,25.55171 c -0.0531,14.05344 -0.0164,25.76154 0.0815,26.01799 0.13071,0.34216 1.56061,0.46627 5.37217,0.46627 4.39218,0 5.229,-0.0911 5.42046,-0.59004 z m 0.50618,-24.61056 c -0.15387,-0.15892 -0.27976,-4.03777 -0.27976,-8.61968 v -8.33072 h 2.56423 c 4.44295,0 7.24416,1.46854 8.81533,4.62146 2.14378,4.302 0.56941,9.14925 -3.63634,11.19579 -1.98626,0.96653 -6.90214,1.71289 -7.46346,1.13315 z m 7.66733,-1.95658 c 2.50403,-1.41469 3.61646,-3.40952 3.61646,-6.48507 0,-2.72296 -0.62581,-4.26822 -2.33706,-5.77072 -1.66926,-1.46563 -3.36311,-2.03086 -6.33371,-2.11356 l -2.33325,-0.065 -0.10142,7.44983 c -0.0558,4.09741 -0.01,7.68841 0.10203,7.98 0.35964,0.9372 5.09572,0.29893 7.38695,-0.99553 z m 39.05876,27.16766 c -0.47656,-0.89046 -0.36137,-52.00165 0.11828,-52.48178 0.48452,-0.48501 25.09135,-0.60372 25.98517,-0.12537 0.68921,0.36886 0.74776,0.77445 0.7425,5.14329 -0.003,2.60856 -0.13652,4.94875 -0.29639,5.20041 -0.2084,0.32804 -2.23943,0.48642 -7.17488,0.55953 l -6.8842,0.10196 -0.10473,4.56947 -0.10474,4.56947 h 6.27818 c 4.38567,0 6.41311,0.13493 6.7258,0.44762 0.62019,0.62019 0.62019,9.6751 0,10.29529 -0.31263,0.31262 -2.33758,0.44762 -6.71432,0.44762 h -6.2667 v 5.40876 5.40875 h 6.82623 c 4.81193,0 6.95831,0.13209 7.27384,0.44762 0.30079,0.30079 0.44763,1.98943 0.44763,5.14765 0,3.15822 -0.14684,4.84686 -0.44763,5.14764 -0.33073,0.33074 -3.78528,0.44762 -13.229,0.44762 -12.33889,0 -12.79502,-0.0255 -13.17504,-0.73555 z m 26.02352,-4.95297 0.1044,-4.75597 h -6.8663 c -5.39603,0 -6.95814,-0.11067 -7.29521,-0.5168 -0.29172,-0.35151 -0.39581,-2.29026 -0.32544,-6.06154 l 0.10348,-5.54474 6.52781,-0.18651 6.52781,-0.18651 0.1044,-4.75597 0.10439,-4.75598 h -6.30677 c -4.93045,0 -6.40072,-0.1132 -6.73727,-0.51872 -0.28765,-0.3466 -0.39564,-2.04851 -0.32544,-5.12899 l 0.10507,-4.61028 7.08733,-0.20739 c 3.89804,-0.11406 7.13432,-0.23996 7.19174,-0.27976 0.0574,-0.0398 0.0574,-2.21256 0,-4.82835 l -0.1044,-4.75597 h -12.6826 -12.68261 l -0.0966,25.55171 c -0.0531,14.05344 -0.0156,25.76378 0.0834,26.02296 0.14117,0.3695 2.90018,0.45004 12.77918,0.37302 l 12.59915,-0.0982 z m 80.03854,5.11787 c -0.20897,-0.54458 20.46625,-52.59715 21.38835,-53.84791 0.39383,-0.53423 0.50335,-0.53894 0.97876,-0.042 0.29439,0.30773 5.34512,12.45455 11.22381,26.99291 8.38954,20.74775 10.59624,26.54462 10.25937,26.95053 -0.32904,0.39649 -1.66698,0.51714 -5.73448,0.51714 -6.15591,0 -5.83743,0.17173 -7.43667,-4.00994 l -1.03426,-2.70437 h -7.58129 -7.58133 l -1.01729,2.70437 c -1.57134,4.17728 -1.25013,4.00994 -7.69685,4.00994 -4.63657,0 -5.58516,-0.0938 -5.76812,-0.57065 z m 12.64351,-3.14091 c 0.58303,-1.52845 1.24114,-2.99721 1.46249,-3.2639 0.56822,-0.68466 15.3336,-0.70195 15.89977,-0.0186 0.21251,0.25645 0.88551,1.7252 1.49558,3.2639 l 1.1092,2.79763 5.14161,0.1042 c 2.82784,0.0573 5.2757,-0.0299 5.4396,-0.19382 0.34732,-0.34733 -20.65403,-52.41012 -21.21717,-52.59783 -0.20807,-0.0694 -0.46277,0.0908 -0.56602,0.35595 -0.10325,0.26512 -4.82398,12.00975 -10.49045,26.09916 -5.66648,14.08942 -10.30272,25.802 -10.30272,26.02796 0,0.28515 1.67769,0.37925 5.48404,0.30761 l 5.48399,-0.10323 z m 5.55211,-12.66341 c -0.41189,-0.26092 -0.12951,-1.31013 1.4541,-5.40305 1.08085,-2.79359 2.16122,-5.07925 2.40078,-5.07925 0.23958,0 1.31604,2.29182 2.39208,5.09294 1.5293,3.98097 1.84969,5.16065 1.46749,5.40305 -0.64841,0.4112 -7.06167,0.39982 -7.71445,-0.0137 z m 7.41197,-0.59544 c 0,-0.72753 -3.51211,-8.75457 -3.72499,-8.51361 -0.21822,0.24698 -1.54922,3.59331 -3.20012,8.04545 -0.21993,0.59319 0.0851,0.65278 3.34153,0.65278 1.97099,0 3.58358,-0.0831 3.58358,-0.18462 z m 100.06518,16.66488 c -0.35787,-0.22727 -0.48503,-5.03668 -0.55952,-21.16304 l -0.0964,-20.86894 -4.37613,-0.10503 c -3.97577,-0.0954 -4.41369,-0.17518 -4.78649,-0.87176 -0.47146,-0.88093 -0.34426,-9.41312 0.14768,-9.90394 0.48906,-0.48797 29.20028,-0.5997 30.10193,-0.11714 0.7103,0.38014 0.74917,0.70907 0.6517,5.51455 l -0.10366,5.1103 -4.47621,0.18651 -4.47621,0.18651 -0.0964,20.6681 c -0.0677,14.50831 -0.2203,20.81732 -0.51197,21.16876 -0.31217,0.37616 -1.72591,0.49923 -5.68531,0.49494 -2.89842,-0.003 -5.47825,-0.13806 -5.73295,-0.29982 z m 11.18427,-21.42275 0.0963,-20.98225 4.26699,-0.10613 c 2.3615,-0.0587 4.48539,-0.28736 4.75597,-0.51194 0.55084,-0.45714 0.70456,-8.34978 0.17879,-9.17803 -0.23399,-0.36861 -3.48831,-0.4495 -15.00826,-0.37302 l -14.70947,0.0977 -0.10526,4.63329 c -0.0785,3.45608 0.0164,4.7104 0.37302,4.93677 0.26305,0.16692 2.36668,0.30605 4.67473,0.30919 l 4.19645,0.006 v 20.48546 c 0,11.26701 0.10187,20.75099 0.22642,21.0755 0.19196,0.5002 1.04341,0.59004 5.59217,0.59004 h 5.36571 z m 30.20381,21.4123 c -0.35303,-0.22397 -0.45173,-1.33289 -0.37302,-4.19074 l 0.10698,-3.88617 h 2.61112 2.61113 l 0.1072,3.67512 c 0.0697,2.38941 -0.0441,3.85751 -0.32542,4.19645 -0.47455,0.5718 -3.92474,0.72133 -4.73799,0.20534 z m 4.31693,-4.06697 -0.10676,-3.63693 -1.61289,-0.11605 c -2.33031,-0.16766 -2.67681,0.2839 -2.67681,3.48838 0,3.79446 0.068,3.90152 2.47803,3.90152 h 2.02519 z m 27.36458,3.88916 c -0.30979,-0.37331 1.89378,-7.02079 9.03039,-27.24203 5.19215,-14.71153 9.63639,-26.94438 9.87613,-27.18412 0.27999,-0.27999 0.5646,-0.30717 0.79576,-0.076 0.19796,0.19795 4.65034,12.42099 9.89418,27.16232 7.44159,20.91946 9.44037,26.9156 9.10641,27.31803 -0.56255,0.6778 -5.38376,0.71869 -5.81564,0.0493 -0.16548,-0.25645 -1.14058,-2.81628 -2.16687,-5.68852 l -1.86602,-5.22225 -9.36778,-0.0996 c -7.21323,-0.0767 -9.4532,0.009 -9.73908,0.37302 -0.20423,0.25991 -1.16001,2.73472 -2.124,5.49957 -0.96395,2.76485 -1.95282,5.15425 -2.19749,5.30979 -0.77434,0.49231 -4.98016,0.33761 -5.42599,-0.19958 z m 7.23009,-5.84751 1.87584,-5.40875 10.11657,-0.0992 10.11654,-0.0992 1.10548,3.08333 c 0.60805,1.69582 1.40247,4.00654 1.76538,5.13492 0.36291,1.12838 0.82605,2.26142 1.02919,2.51787 0.41521,0.52418 4.59334,0.65525 4.90328,0.15382 0.16961,-0.27448 -18.22911,-52.58256 -18.63973,-52.99317 -0.0881,-0.0881 -0.26689,-0.0536 -0.39723,0.0767 -0.45799,0.45799 -18.73116,52.64434 -18.54118,52.95174 0.10575,0.17109 1.22674,0.26148 2.49112,0.20086 l 2.29888,-0.11021 z m 3.90591,-10.69932 c 0,-0.83208 7.40597,-22.21299 7.84934,-22.6609 0.18953,-0.19148 0.43542,-0.25734 0.54639,-0.14636 0.47299,0.47299 8.02429,22.74861 7.82237,23.07531 -0.1316,0.21295 -3.48659,0.35979 -8.22023,0.35979 -7.24736,0 -7.99787,-0.0589 -7.99787,-0.62784 z m 15.58248,-0.58446 c -0.0902,-0.25645 -1.728,-4.99844 -3.63953,-10.53775 -1.91149,-5.53932 -3.59354,-10.20637 -3.73786,-10.37123 -0.22087,-0.25222 -7.48267,20.26904 -7.46502,21.09549 0.004,0.15387 3.38107,0.27976 7.50623,0.27976 5.83904,0 7.46394,-0.10327 7.33618,-0.46627 z m 37.08763,17.17746 c -0.3396,-0.33959 -0.44762,-6.72798 -0.44762,-26.47113 0,-25.34692 0.0186,-26.03356 0.72152,-26.40966 0.39682,-0.21238 1.49894,-0.38614 2.44913,-0.38614 0.95018,0 2.0523,0.17376 2.44912,0.38614 0.70276,0.3761 0.72153,1.06274 0.72153,26.40966 0,19.74315 -0.10803,26.13154 -0.44762,26.47113 -0.5843,0.58428 -4.86177,0.58428 -5.44606,0 z m 4.96113,-26.40965 v -25.92473 h -2.2381 -2.23811 l -0.0966,25.55171 c -0.0531,14.05344 -0.0131,25.76997 0.0887,26.03673 0.12973,0.33954 0.83004,0.45143 2.33468,0.37302 l 2.14936,-0.112 z M 417.89494,23.279797 c -21.70619,-1.17376 -40.49204,-5.0029 -42.95025,-8.7546 -0.74191,-1.1323 -0.47808,-5.8472801 0.63894,-11.4184601 2.92871,-14.6070799 13.03657,-29.0098809 26.45806,-37.7003809 9.18257,-5.945776 18.52425,-8.959196 29.84142,-9.626182 11.72855,-0.691232 21.20501,1.244145 31.36888,6.406468 5.96791,3.031153 10.58619,6.431702 15.63136,11.509727 10.58916,10.658138 16.39913,22.9186579 17.37613,36.668098 0.23199,3.26481 0.18566,3.72484 -0.44547,4.42327 -3.53856,3.91587 -21.33319,7.38106 -43.78794,8.52694 -8.35585,0.4264 -25.93292,0.40844 -34.13113,-0.0349 z"
       id="path16"
       inkscape:connector-curvature="0"
       sodipodi:nodetypes="cscssscscccscccccccccscccscccccssccccccscsssscccccsccscccsccccssscccsccscccsscsscccccssccccccssccsccccsccscccscssccssccscccscccsscsscsccccccccccscccssccsscccccccsccscccccccccssssccccccccscsccccsccccsccccccsscccccsccccssscsssccsscccccscccscsscccsscccccccccccccccsscscccssscscccscccccccscccccccccccccccccccssccccscccccccccccsscccccsccccsccsscscccccccccccccccccccccccccscscccccccccccccssccccscccccccccccccccccsccccccccscccssccccsccscscscccccccccccccsssssscscc" />
    <path
       style="fill:#fbb81e;stroke-width:0.37301773"
       d="m 415.46402,91.115427 c -0.39372,-0.87193 -1.15481,-3.51569 -1.6913,-5.87503 -0.53648,-2.35934 -1.25525,-5.205 -1.59725,-6.32369 l -0.62183,-2.034 -3.84812,-1.97934 c -7.95296,-4.090735 -14.44388,-9.21759 -19.68202,-15.54584 -7.855,-9.48971 -12.20913,-20.04072 -13.75595,-33.33369 -0.27128,-2.33128 -0.19181,-2.35658 3.14433,-1.00098 6.63287,2.69518 19.56733,4.90981 36.19336,6.19701 8.03692,0.62222 35.85693,0.62127 44.01609,-0.001 16.80373,-1.28262 29.17883,-3.39992 35.74455,-6.11565 1.53209,-0.63371 2.86655,-0.98689 3.03766,-0.80395 0.45069,0.48182 -0.51413,7.95888 -1.61815,12.54009 -2.4105,10.00264 -6.9149,18.34111 -13.79595,25.5388 -4.95982,5.18807 -10.08653,8.88341 -17.28635,12.46005 l -6.04132,3.00112 -0.56723,1.74245 c -0.31197,0.95835 -1.07869,3.64198 -1.70382,5.96362 -1.35568,5.03475 -2.34772,7.15585 -3.34683,7.15585 -0.92499,0 -1.71425,-1.15265 -4.22777,-6.17424 -1.13495,-2.26745 -2.31858,-4.33429 -2.63027,-4.59298 -0.44093,-0.36594 -1.58695,-0.39137 -5.1629,-0.11457 -4.24112,0.32828 -9.5996,0.13337 -13.84786,-0.50369 -1.52106,-0.2281 -1.71137,-0.1637 -2.40215,0.8129 -0.41261,0.58334 -1.62783,2.82313 -2.70049,4.97731 -3.01047,6.04582 -4.27942,6.9531 -5.60843,4.00994 z m 5.59483,-30.49076 c 3.1889,-1.62685 4.26121,-4.35032 4.05601,-10.30142 -0.11924,-3.4578 -0.26987,-4.27281 -1.01099,-5.47001 -1.45954,-2.3577 -3.15599,-3.39419 -5.78743,-3.53597 -2.80883,-0.15134 -4.6725,0.78566 -6.37427,3.20478 -1.0725,1.52461 -1.14159,1.83999 -1.26294,5.7652 -0.14146,4.5757 0.23789,6.47088 1.67683,8.377 1.95106,2.5845 5.7861,3.44841 8.70279,1.96042 z m -5.41897,-4.27619 c -0.77168,-0.77168 -0.91559,-1.2727 -0.91559,-3.1876 0,-1.91491 0.14391,-2.41593 0.91559,-3.18761 1.18577,-1.18577 2.82493,-1.19177 4.19261,-0.0153 0.93654,0.80558 1.0466,1.1424 1.0466,3.20295 0,2.06055 -0.11006,2.39737 -1.0466,3.20294 -1.36768,1.17643 -3.00684,1.17044 -4.19261,-0.0153 z m 38.01542,4.50392 c 1.99288,-0.83268 3.91012,-3.09467 4.58202,-5.40594 0.72947,-2.50927 0.53493,-7.88786 -0.3462,-9.57172 -0.73896,-1.41216 -2.70557,-3.2653 -4.34074,-4.09028 -1.93718,-0.97735 -4.8788,-0.61953 -6.65698,0.80975 -2.48343,1.99615 -3.19572,3.79415 -3.37675,8.52376 -0.13845,3.61694 -0.0633,4.3225 0.59769,5.60807 1.96744,3.82676 6.04125,5.58863 9.54096,4.12636 z m -4.81684,-4.50392 c -0.77168,-0.77168 -0.91559,-1.2727 -0.91559,-3.1876 0,-1.91491 0.14391,-2.41593 0.91559,-3.18761 1.03998,-1.03998 2.36799,-1.16569 3.90697,-0.36986 1.30362,0.67413 1.51874,1.21118 1.51874,3.79144 0,1.66649 -0.16691,2.20496 -0.91559,2.95363 -1.24569,1.24569 -3.26442,1.24569 -4.51012,0 z M 347.65254,173.75988 c -5.47866,-1.21325 -9.89162,-3.73409 -13.72771,-7.84173 -2.855,-3.05711 -4.79289,-6.43657 -6.09725,-10.63294 -1.13657,-3.65653 -1.25056,-11.83905 -0.21826,-15.66675 2.50838,-9.30085 9.7751,-16.47674 19.11068,-18.87178 3.8166,-0.97915 11.29678,-0.89176 15.29373,0.17869 3.31593,0.88805 6.85798,2.48066 7.13757,3.20926 0.13571,0.35366 -3.96978,7.29847 -4.94686,8.36805 -0.0794,0.0869 -0.8566,-0.19352 -1.72708,-0.62321 -3.13037,-1.54525 -5.77093,-2.06643 -9.48532,-1.87214 -2.96114,0.15488 -3.83915,0.36284 -5.97829,1.41594 -5.83817,2.87411 -9.07102,8.45713 -9.05055,15.63 0.0162,5.66746 1.41378,9.32885 4.89138,12.81427 4.86892,4.87985 12.3075,6.00122 18.95497,2.85746 l 2.2931,-1.08446 2.59038,4.00292 c 1.42471,2.20161 2.59132,4.19427 2.59246,4.42812 0.003,0.58804 -2.73348,1.8177 -6.61744,2.97374 -4.09564,1.21905 -11.20885,1.55755 -15.01551,0.71456 z m 114.54208,0.14325 c -0.90912,-0.17834 -2.71244,-0.67681 -4.00737,-1.10773 -3.67829,-1.22406 -10.19293,-5.78074 -10.19293,-7.12947 0,-0.28077 1.58129,-2.0852 3.51397,-4.00984 l 3.51394,-3.49936 2.17458,1.93831 c 7.03105,6.26722 16.52853,5.68999 16.53435,-1.00492 0.004,-3.47374 -1.81548,-5.08907 -9.51232,-8.4497 -8.82408,-3.85281 -10.98571,-5.47921 -12.95349,-9.74611 -0.71765,-1.55617 -0.84642,-2.46076 -0.84642,-5.94641 0,-3.89214 0.0652,-4.2434 1.22372,-6.59675 1.35551,-2.75342 3.91714,-5.33411 6.56896,-6.61783 4.3633,-2.11225 10.54786,-2.32311 15.85765,-0.54068 4.56309,1.53178 10.62303,6.03834 9.86655,7.33741 -0.17506,0.30064 -1.7182,1.85905 -3.42915,3.46314 -2.23681,2.09704 -3.24619,2.81817 -3.59243,2.56651 -4.88992,-3.55422 -7.25232,-4.61898 -10.26903,-4.62839 -3.41747,-0.0107 -5.18438,1.65231 -5.20904,4.90256 -0.0216,2.85235 2.08879,4.75406 7.53794,6.79248 3.93113,1.47056 9.74819,4.59422 11.61384,6.23643 1.04512,0.91995 2.16738,2.44972 2.92263,3.9838 1.17135,2.37935 1.22599,2.68236 1.22599,6.79579 0,4.11087 -0.0552,4.41758 -1.22245,6.78853 -2.89395,5.87843 -8.52331,8.93153 -16.2945,8.83734 -1.8546,-0.0225 -4.11587,-0.18678 -5.02499,-0.36511 z m -239.70456,-1.17934 c -0.098,-0.25645 -0.13466,-11.96455 -0.0815,-26.01799 l 0.0966,-25.55171 9.13893,0.006 c 8.49987,0.006 9.33457,0.0668 11.93657,0.87245 3.61465,1.11919 6.31157,2.67079 8.57306,4.93228 5.80027,5.80027 6.40509,16.60398 1.27111,22.70537 -0.55807,0.66323 -1.92265,1.87663 -3.03238,2.69644 -1.40506,1.03798 -1.94978,1.6676 -1.79397,2.07363 0.12305,0.32068 2.65333,4.5103 5.62284,9.31028 2.96951,4.79996 5.3991,8.88743 5.3991,9.08326 0,0.21106 -2.40669,0.35604 -5.91047,0.35604 -5.16861,0 -5.98023,-0.0819 -6.46626,-0.65278 -0.30568,-0.35903 -3.37778,-5.31084 -6.82688,-11.00403 -3.4491,-5.69318 -6.41431,-10.35124 -6.58936,-10.35124 -0.17505,0 -0.31827,4.6863 -0.31827,10.41399 0,5.72769 -0.10189,10.67951 -0.22642,11.00402 -0.19146,0.49895 -1.02828,0.59004 -5.42046,0.59004 -3.81156,0 -5.24146,-0.12411 -5.37217,-0.46627 z m 18.76227,-25.86748 c 4.20575,-2.04654 5.78012,-6.89379 3.63634,-11.19579 -1.57117,-3.15292 -4.37238,-4.62146 -8.81533,-4.62146 h -2.56423 v 8.33072 c 0,4.58191 0.12589,8.46076 0.27976,8.61968 0.56132,0.57974 5.4772,-0.16662 7.46346,-1.13315 z m 39.80342,25.87245 c -0.099,-0.25918 -0.13656,-11.96952 -0.0834,-26.02296 l 0.0966,-25.55171 h 12.68261 12.6826 l 0.1044,4.75597 c 0.0574,2.61579 0.0574,4.78855 0,4.82835 -0.0574,0.0398 -3.2937,0.1657 -7.19174,0.27976 l -7.08733,0.20739 -0.10507,4.61028 c -0.0702,3.08048 0.0378,4.78239 0.32544,5.12899 0.33655,0.40552 1.80682,0.51872 6.73727,0.51872 h 6.30677 l -0.10439,4.75598 -0.1044,4.75597 -6.52781,0.18651 -6.52781,0.18651 -0.10348,5.54474 c -0.0704,3.77128 0.0337,5.71003 0.32544,6.06154 0.33707,0.40613 1.89918,0.5168 7.29521,0.5168 h 6.8663 l -0.1044,4.75597 -0.1044,4.75598 -12.59915,0.0982 c -9.879,0.077 -12.63801,-0.003 -12.77918,-0.37302 z m 106.13667,0.0704 c 0,-0.22596 4.63624,-11.93854 10.30272,-26.02796 5.66647,-14.08942 10.3872,-25.83404 10.49045,-26.09916 0.10325,-0.26512 0.35795,-0.4253 0.56602,-0.35595 0.56314,0.18771 21.56449,52.2505 21.21717,52.59782 -0.1639,0.16391 -2.61176,0.25113 -5.4396,0.19383 l -5.14161,-0.1042 -1.1092,-2.79763 c -0.61007,-1.5387 -1.28307,-3.00746 -1.49558,-3.26391 -0.56617,-0.68333 -15.33155,-0.66604 -15.89977,0.0186 -0.22135,0.26668 -0.87946,1.73544 -1.46249,3.2639 l -1.06008,2.77902 -5.48399,0.10322 c -3.80635,0.0716 -5.48404,-0.0225 -5.48404,-0.3076 z m 25.29467,-15.22436 c 0.3822,-0.2424 0.0618,-1.42208 -1.46749,-5.40305 -1.07604,-2.80112 -2.1525,-5.09294 -2.39208,-5.09294 -0.23956,0 -1.31993,2.28566 -2.40078,5.07925 -1.58361,4.09292 -1.86599,5.14213 -1.4541,5.40305 0.65278,0.41351 7.06604,0.42489 7.71445,0.0137 z m 99.8927,15.02521 c -0.12455,-0.32451 -0.22642,-9.80849 -0.22642,-21.0755 v -20.48546 l -4.19645,-0.006 c -2.30805,-0.003 -4.41168,-0.14228 -4.67473,-0.30919 -0.35672,-0.22638 -0.4515,-1.48069 -0.37302,-4.93678 l 0.10526,-4.63329 14.70947,-0.0977 c 11.51995,-0.0765 14.77427,0.004 15.00826,0.37302 0.52577,0.82825 0.37205,8.72089 -0.17879,9.17803 -0.27058,0.22458 -2.39447,0.45321 -4.75597,0.51194 l -4.26699,0.10613 -0.0963,20.98225 -0.0964,20.98225 H 517.972 c -4.54876,0 -5.40021,-0.0898 -5.59217,-0.59004 z m 41.40497,0 c -0.12455,-0.32451 -0.22642,-1.81468 -0.22642,-3.31148 0,-3.20448 0.3465,-3.65604 2.67681,-3.48838 l 1.61289,0.11605 0.10676,3.63693 0.10676,3.63692 h -2.02519 c -1.50263,0 -2.08364,-0.15226 -2.25161,-0.59004 z m 32.09885,0.31288 c -0.18998,-0.3074 18.08319,-52.49375 18.54118,-52.95174 0.13034,-0.13034 0.30909,-0.16486 0.39723,-0.0767 0.41062,0.41061 18.80934,52.71869 18.63973,52.99317 -0.30994,0.50143 -4.48807,0.37036 -4.90328,-0.15382 -0.20314,-0.25645 -0.66628,-1.38949 -1.02919,-2.51787 -0.36291,-1.12838 -1.15733,-3.4391 -1.76538,-5.13492 l -1.10548,-3.08333 -10.11654,0.0992 -10.11657,0.0992 -1.87584,5.40875 -1.87586,5.40876 -2.29888,0.11021 c -1.26438,0.0606 -2.38537,-0.0298 -2.49112,-0.20086 z m 26.78987,-15.74938 c 0.20192,-0.3267 -7.34938,-22.60232 -7.82237,-23.07531 -0.11097,-0.11098 -0.35686,-0.0451 -0.54639,0.14636 -0.44337,0.44791 -7.84934,21.82882 -7.84934,22.6609 0,0.56893 0.75051,0.62784 7.99787,0.62784 4.73364,0 8.08863,-0.14684 8.22023,-0.35979 z m 36.9291,15.57901 c -0.10191,-0.26676 -0.14186,-11.98329 -0.0887,-26.03673 l 0.0966,-25.55171 h 2.23811 2.2381 v 25.92473 25.92473 l -2.14936,0.112 c -1.50464,0.0784 -2.20495,-0.0335 -2.33468,-0.37302 z"
       id="path14"
       inkscape:connector-curvature="0"
       sodipodi:nodetypes="ccccssssscccccccccscccccscccccscscccsscsccccccssccccsscsccccccsccccccccccscccccsccccscsccccccccsscsccccccccsscccsscssscscccsscsccccccccsccccscccccccscccscccssccccccccccccccscccccsccccccccccccscccsccccsccscccsccccccccccccssccccccccccc" />
  </g>
</svg>
