<?xml version="1.0" encoding="UTF-8" standalone="no"?>
<!-- Created with Inkscape (http://www.inkscape.org/) -->

<svg
   xmlns:dc="http://purl.org/dc/elements/1.1/"
   xmlns:cc="http://creativecommons.org/ns#"
   xmlns:rdf="http://www.w3.org/1999/02/22-rdf-syntax-ns#"
   xmlns:svg="http://www.w3.org/2000/svg"
   xmlns="http://www.w3.org/2000/svg"
   xmlns:sodipodi="http://sodipodi.sourceforge.net/DTD/sodipodi-0.dtd"
   xmlns:inkscape="http://www.inkscape.org/namespaces/inkscape"
   version="1.1"
   id="svg2"
   width="256"
   height="256"
   viewBox="0 0 255.99999 256"
   sodipodi:docname="recast_gray.svg"
   inkscape:version="0.92.2 2405546, 2018-03-11">
  <metadata
     id="metadata8">
    <rdf:RDF>
      <cc:Work
         rdf:about="">
        <dc:format>image/svg+xml</dc:format>
        <dc:type
           rdf:resource="http://purl.org/dc/dcmitype/StillImage" />
        <dc:title></dc:title>
      </cc:Work>
    </rdf:RDF>
  </metadata>
  <defs
     id="defs6">
    <filter
       style="color-interpolation-filters:sRGB;"
       inkscape:label="Greyscale"
       id="filter816">
      <feColorMatrix
         values="0.21 0.72 0.072 0 0 0.21 0.72 0.072 0 0 0.21 0.72 0.072 0 0 0 0 0 1 0 "
         id="feColorMatrix814" />
    </filter>
  </defs>
  <sodipodi:namedview
     pagecolor="#ffffff"
     bordercolor="#666666"
     borderopacity="1"
     objecttolerance="10"
     gridtolerance="10"
     guidetolerance="10"
     inkscape:pageopacity="0"
     inkscape:pageshadow="2"
     inkscape:window-width="1364"
     inkscape:window-height="732"
     id="namedview4"
     showgrid="false"
     inkscape:zoom="2.19139"
     inkscape:cx="111.46143"
     inkscape:cy="106.25274"
     inkscape:window-x="0"
     inkscape:window-y="35"
     inkscape:window-maximized="0"
     inkscape:current-layer="svg2" />
  <g
     id="g12"
     transform="matrix(0.57094506,0,0,0.57094506,-122.56425,79.739869)"
     style="filter:url(#filter816)">
    <path
       style="fill:#fde8b7;stroke-width:0.37301773"
       d="m 417.89494,23.279797 c -21.70619,-1.17376 -40.49204,-5.0029 -42.95025,-8.7546 -0.74191,-1.1323 -0.47808,-5.8472801 0.63894,-11.4184601 2.92871,-14.6070799 13.03657,-29.0098809 26.45806,-37.7003809 9.18257,-5.945776 18.52425,-8.959196 29.84142,-9.626182 11.72855,-0.691232 21.20501,1.244145 31.36888,6.406468 5.96791,3.031153 10.58619,6.431702 15.63136,11.509727 10.58916,10.658138 16.39913,22.9186579 17.37613,36.668098 0.23199,3.26481 0.18566,3.72484 -0.44547,4.42327 -3.53856,3.91587 -21.33319,7.38106 -43.78794,8.52694 -8.35585,0.4264 -25.93292,0.40844 -34.13113,-0.0349 z"
       id="path16"
       inkscape:connector-curvature="0"
       sodipodi:nodetypes="ccsssssscscc" />
    <path
       style="fill:#fbb81e;stroke-width:0.37301773"
       d="m 415.46402,91.115427 c -0.39372,-0.87193 -1.15481,-3.51569 -1.6913,-5.87503 -0.53648,-2.35934 -1.25525,-5.205 -1.59725,-6.32369 l -0.62183,-2.034 -3.84812,-1.97934 c -7.95296,-4.090735 -14.44388,-9.21759 -19.68202,-15.54584 -7.855,-9.48971 -12.20913,-20.04072 -13.75595,-33.33369 -0.27128,-2.33128 -0.19181,-2.35658 3.14433,-1.00098 6.63287,2.69518 19.56733,4.90981 36.19336,6.19701 8.03692,0.62222 35.85693,0.62127 44.01609,-0.001 16.80373,-1.28262 29.17883,-3.39992 35.74455,-6.11565 1.53209,-0.63371 2.86655,-0.98689 3.03766,-0.80395 0.45069,0.48182 -0.51413,7.95888 -1.61815,12.54009 -2.4105,10.00264 -6.9149,18.34111 -13.79595,25.5388 -4.95982,5.18807 -10.08653,8.88341 -17.28635,12.46005 l -6.04132,3.00112 -0.56723,1.74245 c -0.31197,0.95835 -1.07869,3.64198 -1.70382,5.96362 -1.35568,5.03475 -2.34772,7.15585 -3.34683,7.15585 -0.92499,0 -1.71425,-1.15265 -4.22777,-6.17424 -1.13495,-2.26745 -2.31858,-4.33429 -2.63027,-4.59298 -0.44093,-0.36594 -1.58695,-0.39137 -5.1629,-0.11457 -4.24112,0.32828 -9.5996,0.13337 -13.84786,-0.50369 -1.52106,-0.2281 -1.71137,-0.1637 -2.40215,0.8129 -0.41261,0.58334 -1.62783,2.82313 -2.70049,4.97731 -3.01047,6.04582 -4.27942,6.9531 -5.60843,4.00994 z m 5.59483,-30.49076 c 3.1889,-1.62685 4.26121,-4.35032 4.05601,-10.30142 -0.11924,-3.4578 -0.26987,-4.27281 -1.01099,-5.47001 -1.45954,-2.3577 -3.15599,-3.39419 -5.78743,-3.53597 -2.80883,-0.15134 -4.6725,0.78566 -6.37427,3.20478 -1.0725,1.52461 -1.14159,1.83999 -1.26294,5.7652 -0.14146,4.5757 0.23789,6.47088 1.67683,8.377 1.95106,2.5845 5.7861,3.44841 8.70279,1.96042 z m -5.41897,-4.27619 c -0.77168,-0.77168 -0.91559,-1.2727 -0.91559,-3.1876 0,-1.91491 0.14391,-2.41593 0.91559,-3.18761 1.18577,-1.18577 2.82493,-1.19177 4.19261,-0.0153 0.93654,0.80558 1.0466,1.1424 1.0466,3.20295 0,2.06055 -0.11006,2.39737 -1.0466,3.20294 -1.36768,1.17643 -3.00684,1.17044 -4.19261,-0.0153 z m 38.01542,4.50392 c 1.99288,-0.83268 3.91012,-3.09467 4.58202,-5.40594 0.72947,-2.50927 0.53493,-7.88786 -0.3462,-9.57172 -0.73896,-1.41216 -2.70557,-3.2653 -4.34074,-4.09028 -1.93718,-0.97735 -4.8788,-0.61953 -6.65698,0.80975 -2.48343,1.99615 -3.19572,3.79415 -3.37675,8.52376 -0.13845,3.61694 -0.0633,4.3225 0.59769,5.60807 1.96744,3.82676 6.04125,5.58863 9.54096,4.12636 z m -4.81684,-4.50392 c -0.77168,-0.77168 -0.91559,-1.2727 -0.91559,-3.1876 0,-1.91491 0.14391,-2.41593 0.91559,-3.18761 1.03998,-1.03998 2.36799,-1.16569 3.90697,-0.36986 1.30362,0.67413 1.51874,1.21118 1.51874,3.79144 0,1.66649 -0.16691,2.20496 -0.91559,2.95363 -1.24569,1.24569 -3.26442,1.24569 -4.51012,0 z M 347.65254,173.75988 c -5.47866,-1.21325 -9.89162,-3.73409 -13.72771,-7.84173 -2.855,-3.05711 -4.79289,-6.43657 -6.09725,-10.63294 -1.13657,-3.65653 -1.25056,-11.83905 -0.21826,-15.66675 2.50838,-9.30085 9.7751,-16.47674 19.11068,-18.87178 3.8166,-0.97915 11.29678,-0.89176 15.29373,0.17869 3.31593,0.88805 6.85798,2.48066 7.13757,3.20926 0.13571,0.35366 -3.96978,7.29847 -4.94686,8.36805 -0.0794,0.0869 -0.8566,-0.19352 -1.72708,-0.62321 -3.13037,-1.54525 -5.77093,-2.06643 -9.48532,-1.87214 -2.96114,0.15488 -3.83915,0.36284 -5.97829,1.41594 -5.83817,2.87411 -9.07102,8.45713 -9.05055,15.63 0.0162,5.66746 1.41378,9.32885 4.89138,12.81427 4.86892,4.87985 12.3075,6.00122 18.95497,2.85746 l 2.2931,-1.08446 2.59038,4.00292 c 1.42471,2.20161 2.59132,4.19427 2.59246,4.42812 0.003,0.58804 -2.73348,1.8177 -6.61744,2.97374 -4.09564,1.21905 -11.20885,1.55755 -15.01551,0.71456 z m 114.54208,0.14325 c -0.90912,-0.17834 -2.71244,-0.67681 -4.00737,-1.10773 -3.67829,-1.22406 -10.19293,-5.78074 -10.19293,-7.12947 0,-0.28077 1.58129,-2.0852 3.51397,-4.00984 l 3.51394,-3.49936 2.17458,1.93831 c 7.03105,6.26722 16.52853,5.68999 16.53435,-1.00492 0.004,-3.47374 -1.81548,-5.08907 -9.51232,-8.4497 -8.82408,-3.85281 -10.98571,-5.47921 -12.95349,-9.74611 -0.71765,-1.55617 -0.84642,-2.46076 -0.84642,-5.94641 0,-3.89214 0.0652,-4.2434 1.22372,-6.59675 1.35551,-2.75342 3.91714,-5.33411 6.56896,-6.61783 4.3633,-2.11225 10.54786,-2.32311 15.85765,-0.54068 4.56309,1.53178 10.62303,6.03834 9.86655,7.33741 -0.17506,0.30064 -1.7182,1.85905 -3.42915,3.46314 -2.23681,2.09704 -3.24619,2.81817 -3.59243,2.56651 -4.88992,-3.55422 -7.25232,-4.61898 -10.26903,-4.62839 -3.41747,-0.0107 -5.18438,1.65231 -5.20904,4.90256 -0.0216,2.85235 2.08879,4.75406 7.53794,6.79248 3.93113,1.47056 9.74819,4.59422 11.61384,6.23643 1.04512,0.91995 2.16738,2.44972 2.92263,3.9838 1.17135,2.37935 1.22599,2.68236 1.22599,6.79579 0,4.11087 -0.0552,4.41758 -1.22245,6.78853 -2.89395,5.87843 -8.52331,8.93153 -16.2945,8.83734 -1.8546,-0.0225 -4.11587,-0.18678 -5.02499,-0.36511 z m -239.70456,-1.17934 c -0.098,-0.25645 -0.13466,-11.96455 -0.0815,-26.01799 l 0.0966,-25.55171 9.13893,0.006 c 8.49987,0.006 9.33457,0.0668 11.93657,0.87245 3.61465,1.11919 6.31157,2.67079 8.57306,4.93228 5.80027,5.80027 6.40509,16.60398 1.27111,22.70537 -0.55807,0.66323 -1.92265,1.87663 -3.03238,2.69644 -1.40506,1.03798 -1.94978,1.6676 -1.79397,2.07363 0.12305,0.32068 2.65333,4.5103 5.62284,9.31028 2.96951,4.79996 5.3991,8.88743 5.3991,9.08326 0,0.21106 -2.40669,0.35604 -5.91047,0.35604 -5.16861,0 -5.98023,-0.0819 -6.46626,-0.65278 -0.30568,-0.35903 -3.37778,-5.31084 -6.82688,-11.00403 -3.4491,-5.69318 -6.41431,-10.35124 -6.58936,-10.35124 -0.17505,0 -0.31827,4.6863 -0.31827,10.41399 0,5.72769 -0.10189,10.67951 -0.22642,11.00402 -0.19146,0.49895 -1.02828,0.59004 -5.42046,0.59004 -3.81156,0 -5.24146,-0.12411 -5.37217,-0.46627 z m 18.76227,-25.86748 c 4.20575,-2.04654 5.78012,-6.89379 3.63634,-11.19579 -1.57117,-3.15292 -4.37238,-4.62146 -8.81533,-4.62146 h -2.56423 v 8.33072 c 0,4.58191 0.12589,8.46076 0.27976,8.61968 0.56132,0.57974 5.4772,-0.16662 7.46346,-1.13315 z m 39.80342,25.87245 c -0.099,-0.25918 -0.13656,-11.96952 -0.0834,-26.02296 l 0.0966,-25.55171 h 12.68261 12.6826 l 0.1044,4.75597 c 0.0574,2.61579 0.0574,4.78855 0,4.82835 -0.0574,0.0398 -3.2937,0.1657 -7.19174,0.27976 l -7.08733,0.20739 -0.10507,4.61028 c -0.0702,3.08048 0.0378,4.78239 0.32544,5.12899 0.33655,0.40552 1.80682,0.51872 6.73727,0.51872 h 6.30677 l -0.10439,4.75598 -0.1044,4.75597 -6.52781,0.18651 -6.52781,0.18651 -0.10348,5.54474 c -0.0704,3.77128 0.0337,5.71003 0.32544,6.06154 0.33707,0.40613 1.89918,0.5168 7.29521,0.5168 h 6.8663 l -0.1044,4.75597 -0.1044,4.75598 -12.59915,0.0982 c -9.879,0.077 -12.63801,-0.003 -12.77918,-0.37302 z m 106.13667,0.0704 c 0,-0.22596 4.63624,-11.93854 10.30272,-26.02796 5.66647,-14.08942 10.3872,-25.83404 10.49045,-26.09916 0.10325,-0.26512 0.35795,-0.4253 0.56602,-0.35595 0.56314,0.18771 21.56449,52.2505 21.21717,52.59782 -0.1639,0.16391 -2.61176,0.25113 -5.4396,0.19383 l -5.14161,-0.1042 -1.1092,-2.79763 c -0.61007,-1.5387 -1.28307,-3.00746 -1.49558,-3.26391 -0.56617,-0.68333 -15.33155,-0.66604 -15.89977,0.0186 -0.22135,0.26668 -0.87946,1.73544 -1.46249,3.2639 l -1.06008,2.77902 -5.48399,0.10322 c -3.80635,0.0716 -5.48404,-0.0225 -5.48404,-0.3076 z m 25.29467,-15.22436 c 0.3822,-0.2424 0.0618,-1.42208 -1.46749,-5.40305 -1.07604,-2.80112 -2.1525,-5.09294 -2.39208,-5.09294 -0.23956,0 -1.31993,2.28566 -2.40078,5.07925 -1.58361,4.09292 -1.86599,5.14213 -1.4541,5.40305 0.65278,0.41351 7.06604,0.42489 7.71445,0.0137 z m 99.8927,15.02521 c -0.12455,-0.32451 -0.22642,-9.80849 -0.22642,-21.0755 v -20.48546 l -4.19645,-0.006 c -2.30805,-0.003 -4.41168,-0.14228 -4.67473,-0.30919 -0.35672,-0.22638 -0.4515,-1.48069 -0.37302,-4.93678 l 0.10526,-4.63329 14.70947,-0.0977 c 11.51995,-0.0765 14.77427,0.004 15.00826,0.37302 0.52577,0.82825 0.37205,8.72089 -0.17879,9.17803 -0.27058,0.22458 -2.39447,0.45321 -4.75597,0.51194 l -4.26699,0.10613 -0.0963,20.98225 -0.0964,20.98225 H 517.972 c -4.54876,0 -5.40021,-0.0898 -5.59217,-0.59004 z m 41.40497,0 c -0.12455,-0.32451 -0.22642,-1.81468 -0.22642,-3.31148 0,-3.20448 0.3465,-3.65604 2.67681,-3.48838 l 1.61289,0.11605 0.10676,3.63693 0.10676,3.63692 h -2.02519 c -1.50263,0 -2.08364,-0.15226 -2.25161,-0.59004 z m 32.09885,0.31288 c -0.18998,-0.3074 18.08319,-52.49375 18.54118,-52.95174 0.13034,-0.13034 0.30909,-0.16486 0.39723,-0.0767 0.41062,0.41061 18.80934,52.71869 18.63973,52.99317 -0.30994,0.50143 -4.48807,0.37036 -4.90328,-0.15382 -0.20314,-0.25645 -0.66628,-1.38949 -1.02919,-2.51787 -0.36291,-1.12838 -1.15733,-3.4391 -1.76538,-5.13492 l -1.10548,-3.08333 -10.11654,0.0992 -10.11657,0.0992 -1.87584,5.40875 -1.87586,5.40876 -2.29888,0.11021 c -1.26438,0.0606 -2.38537,-0.0298 -2.49112,-0.20086 z m 26.78987,-15.74938 c 0.20192,-0.3267 -7.34938,-22.60232 -7.82237,-23.07531 -0.11097,-0.11098 -0.35686,-0.0451 -0.54639,0.14636 -0.44337,0.44791 -7.84934,21.82882 -7.84934,22.6609 0,0.56893 0.75051,0.62784 7.99787,0.62784 4.73364,0 8.08863,-0.14684 8.22023,-0.35979 z m 36.9291,15.57901 c -0.10191,-0.26676 -0.14186,-11.98329 -0.0887,-26.03673 l 0.0966,-25.55171 h 2.23811 2.2381 v 25.92473 25.92473 l -2.14936,0.112 c -1.50464,0.0784 -2.20495,-0.0335 -2.33468,-0.37302 z"
       id="path14"
       inkscape:connector-curvature="0"
       sodipodi:nodetypes="ccccssssscccccccccscccccscccccscscccsscsccccccssccccsscsccccccsccccccccccscccccsccccscsccccccccsscsccccccccsscccsscssscscccsscsccccccccsccccscccccccscccscccssccccccccccccccscccccsccccccccccccscccsccccsccscccsccccccccccccssccccccccccc" />
  </g>
</svg>
