<?xml version="1.0" encoding="UTF-8" standalone="no"?>
<!-- Created with Inkscape (http://www.inkscape.org/) -->

<svg
   xmlns:dc="http://purl.org/dc/elements/1.1/"
   xmlns:cc="http://creativecommons.org/ns#"
   xmlns:rdf="http://www.w3.org/1999/02/22-rdf-syntax-ns#"
   xmlns:svg="http://www.w3.org/2000/svg"
   xmlns="http://www.w3.org/2000/svg"
   xmlns:sodipodi="http://sodipodi.sourceforge.net/DTD/sodipodi-0.dtd"
   xmlns:inkscape="http://www.inkscape.org/namespaces/inkscape"
   version="1.1"
   id="svg2"
   width="256"
   height="256"
   viewBox="0 0 256 256"
   sodipodi:docname="snips.svg"
   inkscape:version="0.92.2 2405546, 2018-03-11">
  <metadata
     id="metadata8">
    <rdf:RDF>
      <cc:Work
         rdf:about="">
        <dc:format>image/svg+xml</dc:format>
        <dc:type
           rdf:resource="http://purl.org/dc/dcmitype/StillImage" />
        <dc:title></dc:title>
      </cc:Work>
    </rdf:RDF>
  </metadata>
  <defs
     id="defs6" />
  <sodipodi:namedview
     pagecolor="#ffffff"
     bordercolor="#666666"
     borderopacity="1"
     objecttolerance="10"
     gridtolerance="10"
     guidetolerance="10"
     inkscape:pageopacity="0"
     inkscape:pageshadow="2"
     inkscape:window-width="1364"
     inkscape:window-height="732"
     id="namedview4"
     showgrid="false"
     inkscape:zoom="0.845"
     inkscape:cx="200"
     inkscape:cy="110"
     inkscape:window-x="0"
     inkscape:window-y="35"
     inkscape:window-maximized="0"
     inkscape:current-layer="svg2" />
  <path
     style="fill:#242cf9;stroke-width:0.92755914"
     d="m 146.30758,194.05889 c -1.50816,-0.8784 -1.62323,-3.92609 -1.62323,-42.98971 0,-34.33793 0.23145,-42.23636 1.26274,-43.09226 0.95997,-0.7967 2.72045,-0.49928 7.3427,1.24053 5.91985,2.22822 6.13704,2.24408 8.24477,0.60178 4.7288,-3.68458 8.63359,-5.04966 14.32555,-5.00811 11.89775,0.0868 19.68562,4.77868 24.64141,14.84532 2.65754,5.39823 3.0748,7.26934 3.39417,15.22071 0.29711,7.39747 -0.008,10.29318 -1.66157,15.735 -4.57709,15.06912 -19.9997,23.0646 -34.47968,17.87516 -7.08155,-2.53795 -7.30157,-2.18684 -7.30157,11.65079 0,11.38491 -0.11138,12.11275 -2.06152,13.47872 -2.31864,1.62404 -9.59728,1.89032 -12.08377,0.44207 z m 35.14487,-40.8152 c 3.74456,-3.44899 5.85687,-8.92489 5.87409,-15.22782 0.021,-7.69391 -1.38076,-12.01139 -5.11079,-15.74143 -8.14321,-8.1432 -20.09691,-3.24452 -22.70183,9.30332 -1.94808,9.38383 0.94225,19.09492 6.7736,22.75841 4.14164,2.60193 11.74889,2.0539 15.16493,-1.09248 z M 16.098683,168.0906 C 10.197914,165.82112 1.5539145,157.19503 2.0090771,154.03019 c 0.3295443,-2.29138 6.465309,-6.23501 9.7392629,-6.25969 1.203675,-0.0101 2.830871,1.1181 4.015254,2.78142 5.340949,7.50066 17.613658,7.26793 17.613658,-0.33402 0,-3.06658 -2.181833,-4.70267 -10.587242,-7.93912 -4.037429,-1.55457 -8.876664,-3.84291 -10.753854,-5.08516 -10.3626309,-6.85767 -8.6374775,-24.08927 3.011907,-30.08423 8.525721,-4.38752 20.723321,-2.42644 27.086906,4.3549 l 2.728572,2.90771 -1.858326,2.48903 c -1.022087,1.36896 -2.907455,3.27231 -4.18972,4.22966 -2.303687,1.71997 -2.384524,1.71238 -6.805641,-0.63836 -5.624092,-2.99036 -8.210725,-3.00241 -10.533827,-0.0492 -3.488825,4.43533 -1.149801,7.11065 9.219244,10.54481 12.651619,4.19012 17.543427,9.31562 17.502558,18.33868 -0.06958,15.36567 -16.307019,24.87763 -32.099146,18.80385 z m 206.220507,0.58672 c -7.75029,-2.76447 -16.11263,-10.96643 -15.32906,-15.03508 0.35192,-1.82746 6.76282,-5.84752 9.36377,-5.87174 0.90138,-0.008 3.43858,1.86305 5.63826,4.15876 3.62238,3.78052 4.40786,4.17401 8.33241,4.17401 3.09628,0 4.86253,-0.5295 6.18815,-1.85511 4.25823,-4.25825 1.4359,-8.1383 -8.73213,-12.0046 -8.99683,-3.42097 -13.965,-6.61514 -15.7958,-10.1555 -6.78772,-13.126 2.89363,-27.44412 18.44983,-27.28612 6.34936,0.0645 10.70831,1.60759 15.17143,5.37081 3.95511,3.33488 3.69677,6.2856 -0.87316,9.97226 l -3.3743,2.72214 -4.50256,-2.39689 c -5.40956,-2.87974 -8.07175,-3.0165 -10.54647,-0.54179 -4.08617,4.08617 -1.4273,7.2518 9.31982,11.09615 12.72807,4.55294 17.59874,9.63129 17.55903,18.30777 -0.0664,14.54196 -16.1237,24.60455 -30.86922,19.34493 z M 55.824183,167.97603 c -0.818115,-0.81813 -1.11307,-8.77627 -1.11307,-30.03211 0,-24.46106 0.212606,-29.09546 1.379197,-30.06364 1.116049,-0.92625 2.561724,-0.67124 7.576962,1.33649 l 6.197764,2.48114 2.612796,-1.93172 c 8.74421,-6.46488 23.244493,-6.77769 30.221318,-0.65194 6.32387,5.55241 6.6947,7.43211 6.71758,34.04957 0.0147,17.2196 -0.28395,24.00345 -1.09269,24.81221 -0.62244,0.62243 -3.60718,1.11307 -6.77118,1.11307 -3.164014,0 -6.148762,-0.49064 -6.771192,-1.11307 -0.797746,-0.79774 -1.11307,-6.84996 -1.11307,-21.36366 0,-15.09817 -0.32497,-21.02833 -1.27724,-23.30744 -2.424046,-5.80156 -10.53146,-6.73573 -16.303818,-1.87862 -4.536517,3.81724 -5.607922,9.28717 -5.607922,28.63067 0,11.83456 -0.329255,17.13524 -1.113071,17.91905 -0.62243,0.62243 -3.607175,1.11307 -6.771181,1.11307 -3.164008,0 -6.148753,-0.49064 -6.771183,-1.11307 z m 63.451537,-0.35412 c -0.30967,-0.80697 -0.56303,-14.49775 -0.56303,-30.42396 0,-21.28516 0.29489,-29.25162 1.11308,-30.06981 0.62243,-0.62241 3.60717,-1.11307 6.77118,-1.11307 3.16401,0 6.14875,0.49066 6.77118,1.11307 0.81818,0.81819 1.11307,8.78465 1.11307,30.06981 0,15.92621 -0.25335,29.61699 -0.56301,30.42396 -0.44212,1.15212 -2.01429,1.46719 -7.32124,1.46719 -5.30694,0 -6.87912,-0.31507 -7.32123,-1.46719 z m 0.29319,-72.666188 c -5.21957,-5.219577 -2.88156,-14.753314 4.07183,-16.603786 7.89519,-2.101103 14.68207,4.577022 12.55968,12.35841 -1.94069,7.115256 -11.35781,9.519064 -16.63151,4.245376 z"
     id="path12"
     inkscape:connector-curvature="0" />
</svg>
