<?xml version="1.0" encoding="UTF-8" standalone="no"?>
<!-- Created with Inkscape (http://www.inkscape.org/) -->

<svg
   xmlns:dc="http://purl.org/dc/elements/1.1/"
   xmlns:cc="http://creativecommons.org/ns#"
   xmlns:rdf="http://www.w3.org/1999/02/22-rdf-syntax-ns#"
   xmlns:svg="http://www.w3.org/2000/svg"
   xmlns="http://www.w3.org/2000/svg"
   xmlns:sodipodi="http://sodipodi.sourceforge.net/DTD/sodipodi-0.dtd"
   xmlns:inkscape="http://www.inkscape.org/namespaces/inkscape"
   version="1.1"
   id="svg2"
   width="256"
   height="128"
   viewBox="0 0 256 128"
   sodipodi:docname="tencent.svg"
   inkscape:version="0.92.2 2405546, 2018-03-11">
  <metadata
     id="metadata8">
    <rdf:RDF>
      <cc:Work
         rdf:about="">
        <dc:format>image/svg+xml</dc:format>
        <dc:type
           rdf:resource="http://purl.org/dc/dcmitype/StillImage" />
        <dc:title></dc:title>
      </cc:Work>
    </rdf:RDF>
  </metadata>
  <defs
     id="defs6" />
  <sodipodi:namedview
     pagecolor="#ffffff"
     bordercolor="#666666"
     borderopacity="1"
     objecttolerance="10"
     gridtolerance="10"
     guidetolerance="10"
     inkscape:pageopacity="0"
     inkscape:pageshadow="2"
     inkscape:window-width="1364"
     inkscape:window-height="732"
     id="namedview4"
     showgrid="false"
     inkscape:zoom="1.8672038"
     inkscape:cx="156.25841"
     inkscape:cy="58.620085"
     inkscape:window-x="0"
     inkscape:window-y="35"
     inkscape:window-maximized="0"
     inkscape:current-layer="svg2" />
  <g
     id="g865"
     transform="matrix(1.2493416,0,0,1.2493416,-34.659062,-128.6413)">
    <g
       transform="translate(-1.1360947,51.502959)"
       id="g835">
      <path
         sodipodi:nodetypes="cccscsccsssccsssssccccc"
         inkscape:connector-curvature="0"
         id="path849"
         d="M 37.404988,116.75 35.5,114.5 l 2.25,1.90499 c 1.2375,1.04774 2.25,2.06024 2.25,2.25 0,0.80025 -0.804794,0.20946 -2.595012,-1.90499 z M 46.5,117 c 2.00906,-2.21999 3.389681,-2.77693 1.631121,-0.65799 -0.612573,0.7381 -0.817673,1.6381 -0.455778,2 C 48.037238,118.7039 47.513589,119 46.511679,119 44.753367,119 44.75296,118.93046 46.5,117 Z M 65.157895,99 c 0,-1.375 0.226973,-1.9375 0.504386,-1.25 0.277412,0.6875 0.277412,1.8125 0,2.5 -0.277413,0.6875 -0.504386,0.125 -0.504386,-1.25 z M 68,98 C 67.098708,97.41754 66.975367,97.024514 67.690983,97.015313 68.346024,97.006891 69.160081,97.45 69.5,98 c 0.767305,1.241525 0.421123,1.241525 -1.5,0 z M 43.8125,88.316886 c 0.721875,-0.288871 1.584375,-0.253344 1.916667,0.07895 0.332291,0.332292 -0.258334,0.568641 -1.3125,0.52522 -1.164943,-0.04798 -1.4019,-0.284941 -0.604167,-0.604167 z"
         style="fill:#a0a0a0" />
      <path
         inkscape:connector-curvature="0"
         id="path847"
         d="m 69,113 c 0.588702,-1.1 1.295368,-2 1.570368,-2 0.275,0 0.01833,0.9 -0.570368,2 -0.588702,1.1 -1.295368,2 -1.570368,2 -0.275,0 -0.01833,-0.9 0.570368,-2 z M 50.192343,104.32017 50.5,99.5 56.719172,99.203083 c 5.872576,-0.28037 6.253375,-0.160645 6.83288,2.148287 0.337539,1.34486 0.463912,3.44602 0.280828,4.66923 -0.298585,1.99489 -1.034249,2.27017 -7.140537,2.67188 l -6.807657,0.44786 z"
         style="fill:#fbcc0c" />
      <path
         inkscape:connector-curvature="0"
         id="path845"
         d="m 59.934435,93.327551 c -1.415672,-3.7235 -0.601244,-5.177676 2.561236,-4.57313 1.612093,0.308172 3.016493,1.462474 3.578816,2.941495 C 67.501689,95.44974 67.233309,96 63.975249,96 61.616933,96 60.726632,95.411187 59.934435,93.327551 Z M 59.76011,86.0431 C 54.471001,84.157783 52.801939,83 55.373171,83 57.153316,83 65,86.684449 65,87.520324 c 0,0.263822 -0.1125,0.419522 -0.25,0.346 -0.1375,-0.07352 -2.38295,-0.893973 -4.98989,-1.823224 z"
         style="fill:#3da8de" />
      <path
         inkscape:connector-curvature="0"
         id="path843"
         d="m 46.864654,121.09149 -2.356913,-1.90852 3.996129,-0.66862 c 2.197872,-0.36775 5.30078,-1.08391 6.895353,-1.59149 4.083058,-1.29969 4.310005,-1.22427 4.852297,1.61255 0.354223,1.853 -0.07255,2.83362 -1.585624,3.6434 -1.529935,0.81879 -2.169776,0.80955 -2.45143,-0.0354 -0.209623,-0.62887 -1.581133,-1.09855 -3.047799,-1.04372 L 50.5,121.19936 53,122 c 2.404531,0.77007 2.38012,0.80445 -0.639216,0.90032 -1.730195,0.0549 -4.197104,-0.75695 -5.49613,-1.80883 z m 3.776077,-7.78409 C 50.288329,112.955 50,111.84167 50,110.83333 c 0,-1.84704 2.562433,-2.32538 11.5,-2.14671 7.005269,0.14003 6.894817,0.0861 5.250315,2.56338 -1.282565,1.93206 -2.48104,2.28166 -8.481241,2.47407 -3.843186,0.12323 -7.275941,-0.0643 -7.628343,-0.41667 z M 66,101.03814 c 0,-3.838475 0.13539,-4.036049 2.059932,-3.006065 2.56291,1.371627 2.338604,6.280425 -0.309932,6.782695 -1.436555,0.27244 -1.75,-0.404 -1.75,-3.77663 z m -17,0.0209 c 0,-0.51754 0.444846,-1.215913 0.988546,-1.551938 0.56686,-0.350339 0.734507,0.05106 0.393011,0.940988 C 49.716766,102.18048 49,102.49745 49,101.05902 Z"
         style="fill:#f4ae1a" />
      <path
         inkscape:connector-curvature="0"
         id="path841"
         d="M 37.145672,115.51313 C 32.882211,110.65732 31.47737,104.91322 32.947067,98.345926 34.502084,91.397374 38.058841,87.561768 42.182449,88.38649 43.869602,88.72392 46.09375,89 47.125,89 c 2.590053,0 2.345931,2.208955 -0.544182,4.924075 -4.260654,4.002677 -6.844796,11.589285 -6.388485,18.755525 0.221349,3.47622 0.315243,6.3204 0.208652,6.3204 -0.10659,0 -1.571481,-1.56909 -3.255313,-3.48687 z"
         style="fill:#e20d89" />
      <path
         inkscape:connector-curvature="0"
         id="path839"
         d="m 53,122 -2.5,-0.80064 2.75,-0.0997 C 54.7625,121.04486 56,121.45 56,122 c 0,0.55 -0.1125,0.95514 -0.25,0.90032 C 55.6125,122.8455 54.375,122.44035 53,122 Z m -12.369714,-4.25 c -0.331637,-1.2375 -0.609121,-3.20081 -0.616631,-4.36292 -0.01336,-2.06766 0.08602,-2.08011 4.639174,-0.58115 l 4.652828,1.53177 -3.168605,2.83115 c -3.827112,3.41953 -4.720834,3.51384 -5.506766,0.58115 z"
         style="fill:#bd4743" />
      <path
         inkscape:connector-curvature="0"
         id="path837"
         d="m 52.634626,88.006368 -5.865373,-2.668149 3.116277,-1.290804 c 2.010432,-0.832748 3.559533,-0.954889 4.365374,-0.344193 0.687003,0.520637 3.142704,1.487803 5.457114,2.149258 4.833993,1.38155 7.186409,3.742817 2.91539,2.92636 -1.532821,-0.293017 -2.983132,0.0024 -3.398625,0.69227 -0.533557,0.8859 -2.272299,0.499444 -6.590157,-1.464742 z"
         style="fill:#0f6db8" />
    </g>
    <text
       id="text853"
       y="159.60573"
       x="77.619225"
       style="font-style:normal;font-weight:normal;font-size:19.58802986px;line-height:1.25;font-family:sans-serif;letter-spacing:0px;word-spacing:0px;fill:#a0a0a0;fill-opacity:1;stroke:none;stroke-width:0.4897007"
       xml:space="preserve"
       transform="scale(0.97097553,1.0298921)"><tspan
         style="letter-spacing:0px;stroke-width:0.4897007"
         y="159.60573"
         x="77.619225"
         id="tspan851"
         sodipodi:role="line">Tencent WeStart</tspan></text>
  </g>
</svg>
