<?xml version="1.0" encoding="UTF-8" standalone="no"?>
<!-- Created with Inkscape (http://www.inkscape.org/) -->

<svg
   xmlns:dc="http://purl.org/dc/elements/1.1/"
   xmlns:cc="http://creativecommons.org/ns#"
   xmlns:rdf="http://www.w3.org/1999/02/22-rdf-syntax-ns#"
   xmlns:svg="http://www.w3.org/2000/svg"
   xmlns="http://www.w3.org/2000/svg"
   xmlns:sodipodi="http://sodipodi.sourceforge.net/DTD/sodipodi-0.dtd"
   xmlns:inkscape="http://www.inkscape.org/namespaces/inkscape"
   version="1.1"
   id="svg2"
   width="256"
   height="50"
   viewBox="0 0 256 50"
   sodipodi:docname="vertica.svg"
   inkscape:version="0.92.2 2405546, 2018-03-11">
  <metadata
     id="metadata8">
    <rdf:RDF>
      <cc:Work
         rdf:about="">
        <dc:format>image/svg+xml</dc:format>
        <dc:type
           rdf:resource="http://purl.org/dc/dcmitype/StillImage" />
        <dc:title></dc:title>
      </cc:Work>
    </rdf:RDF>
  </metadata>
  <defs
     id="defs6" />
  <sodipodi:namedview
     pagecolor="#ffffff"
     bordercolor="#666666"
     borderopacity="1"
     objecttolerance="10"
     gridtolerance="10"
     guidetolerance="10"
     inkscape:pageopacity="0"
     inkscape:pageshadow="2"
     inkscape:window-width="1364"
     inkscape:window-height="732"
     id="namedview4"
     showgrid="false"
     inkscape:zoom="1.4401484"
     inkscape:cx="331.15903"
     inkscape:cy="42.535533"
     inkscape:window-x="0"
     inkscape:window-y="35"
     inkscape:window-maximized="0"
     inkscape:current-layer="svg2"
     fit-margin-top="0"
     fit-margin-left="0"
     fit-margin-right="0"
     fit-margin-bottom="0" />
  <path
     style="fill:#0d0d0d;stroke-width:0.38561189"
     d="M 12.949311,26.802595 C 5.6959441,13.965435 -0.13024744,3.2869354 0.00221476,3.0726054 c 0.1359286,-0.21993 1.89926204,-0.38968 4.04794534,-0.38968 3.717788,0 3.824364,0.0248 4.542759,1.06043 0.404607,0.58323 4.5153919,7.7845396 9.1350759,16.0028896 4.619685,8.21836 8.533107,14.94246 8.696486,14.94246 0.163384,0 4.324056,-7.11554 9.245945,-15.81233 6.6868,-11.8153096 9.158546,-15.8632396 9.778312,-16.0137496 0.456186,-0.11084 7.770443,-0.15316 16.253904,-0.0942 l 15.424477,0.10732 v 3.6633 3.6633196 l -13.742414,0.10126 c -12.079671,0.089 -13.805964,0.17638 -14.267641,0.7223 -0.288873,0.34159 -5.383936,9.21814 -11.32236,19.72566 -5.938423,10.50753 -10.990708,19.16911 -11.227292,19.24797 -0.236588,0.0788 -6.364733,-10.35976 -13.618101,-23.19691 z m 175.030449,21.77318 c -5.08822,-0.64638 -9.60852,-2.89031 -13.42794,-6.66579 -10.52446,-10.40338 -8.61402,-27.68383 3.961,-35.8283396 7.2034,-4.66544 17.59639,-4.65902 24.73963,0.0153 1.2559,0.82182 2.77575,2.02024 3.37746,2.66315 l 1.09401,1.16896 -1.80259,3.1251496 c -1.8393,3.1888 -2.55327,3.70722 -3.26755,2.37257 -0.69726,-1.30286 -4.68143,-3.8574 -7.25675,-4.65285 -7.49524,-2.3150396 -15.29055,1.18414 -18.70756,8.39748 -1.1293,2.38397 -1.23131,2.91879 -1.23131,6.45543 0,3.53664 0.10201,4.07147 1.23131,6.45544 2.65205,5.59851 8.16775,9.14324 14.24896,9.15727 4.12151,0.0101 9.16062,-2.38111 11.77624,-5.5868 0.51915,-0.63626 5.35738,-8.49245 10.75164,-17.45821 6.17678,-10.2663996 10.00438,-16.2622496 10.33893,-16.1956996 0.60204,0.1198 27.81128,45.1282896 27.81128,46.0044096 0,0.46363 -0.74207,0.56752 -4.05372,0.56752 h -4.05371 l -1.28124,-2.02446 c -0.70468,-1.11346 -5.07071,-8.31476 -9.70227,-16.0029 -4.63158,-7.68814 -8.6079,-13.97321 -8.83629,-13.96683 -0.22839,0.006 -3.36519,4.98939 -6.97065,11.07336 -5.82542,9.82996 -6.89893,11.40761 -9.6403,14.16772 -2.16753,2.18235 -3.83853,3.47341 -5.61923,4.34155 -4.23333,2.06386 -9.21935,2.95778 -13.47935,2.4166 z M 45.18982,48.317885 c -0.143711,-0.14372 -0.261296,-5.93746 -0.261296,-12.87501 0,-10.19304 0.101107,-12.69762 0.52685,-13.05095 0.37807,-0.31377 4.924438,-0.40878 16.099298,-0.33642 l 15.572447,0.10088 v 3.66331 3.66332 l -12.146775,0.1928 -12.146775,0.19281 v 5.39857 5.39856 l 12.146775,0.1928 12.146775,0.19281 v 3.66332 3.66331 l -15.838003,0.10063 c -8.7109,0.0554 -15.955584,-0.017 -16.099296,-0.16068 z m 35.485519,0.009 c -0.148785,-0.14878 -0.270518,-10.28481 -0.270518,-22.52452 0,-18.8807396 0.08402,-22.3237296 0.554309,-22.7140296 0.412701,-0.34252 3.93453,-0.4258 13.785622,-0.32599 11.042518,0.11185 13.505918,0.23769 14.891238,0.76058 5.40618,2.04057 8.68573,6.8519096 8.64918,12.6890396 -0.0279,4.46119 -2.18466,8.05953 -6.79845,11.34272 l -1.08379,0.77122 5.24557,9.60358 c 2.88508,5.28196 5.24558,9.83701 5.24558,10.12231 0,0.70973 -6.66729,0.74359 -7.23095,0.0367 -0.2114,-0.2651 -2.50952,-4.38633 -5.10693,-9.15828 -2.59741,-4.77195 -4.99207,-8.98365 -5.32146,-9.35935 -0.53943,-0.61524 -1.31038,-0.67269 -7.761898,-0.57842 l -7.162979,0.10467 -0.192805,9.64029 -0.192806,9.6403 -3.489203,0.10983 c -1.919053,0.0604 -3.61093,-0.0113 -3.75971,-0.16067 z m 25.553801,-27.11532 c 2.10314,-0.40576 4.01916,-2.31325 4.40856,-4.38893 0.43101,-2.29747 -0.85574,-4.7268 -3.00793,-5.67881 -1.58174,-0.69967 -2.46127,-0.75481 -10.522948,-0.65979 l -8.796959,0.10378 -0.108193,4.95918 c -0.07263,3.32733 0.03808,5.13548 0.33642,5.49496 0.353482,0.42592 2.036351,0.53236 8.206092,0.519 4.268788,-0.009 8.537038,-0.16642 9.485008,-0.34932 z m 25.26279,26.8915 c -0.10239,-0.27311 -0.22965,-8.82579 -0.28269,-19.00594 l -0.0965,-18.50937 -5.03772,-0.10706 -5.03771,-0.10706 -0.80547,-1.6578996 c -0.443,-0.91183 -1.52759,-2.49226 -2.41021,-3.51204 -0.91602,-1.05836 -1.46006,-1.99883 -1.26762,-2.19127 0.18596,-0.18595 8.71351,-0.29222 19.0163,-0.23698 l 18.67915,0.10012 v 3.66331 3.6633196 l -7.51944,0.19281 -7.51943,0.1928 -0.19281,18.89498 -0.1928,18.89498 -3.57343,0.11097 c -2.64326,0.0821 -3.62191,-0.0183 -3.75967,-0.38561 z m 26.29235,0.21038 c -0.14139,-0.14138 -0.25707,-10.36081 -0.25707,-22.70985 0,-20.1182496 0.0634,-22.4770996 0.60995,-22.6868196 1.11165,-0.42658 6.15811,-0.25278 6.63955,0.22867 0.34903,0.34902 0.46274,5.83716 0.46274,22.3339496 0,12.02917 -0.1053,22.1457 -0.23407,22.48118 -0.18868,0.49172 -0.88634,0.60995 -3.59903,0.60995 -1.85075,0 -3.48067,-0.11563 -3.62207,-0.25708 z"
     id="path12"
     inkscape:connector-curvature="0" />
</svg>
