<?xml version="1.0" encoding="UTF-8" standalone="no"?>
<!-- Created with Inkscape (http://www.inkscape.org/) -->

<svg
   xmlns:dc="http://purl.org/dc/elements/1.1/"
   xmlns:cc="http://creativecommons.org/ns#"
   xmlns:rdf="http://www.w3.org/1999/02/22-rdf-syntax-ns#"
   xmlns:svg="http://www.w3.org/2000/svg"
   xmlns="http://www.w3.org/2000/svg"
   xmlns:sodipodi="http://sodipodi.sourceforge.net/DTD/sodipodi-0.dtd"
   xmlns:inkscape="http://www.inkscape.org/namespaces/inkscape"
   version="1.1"
   id="svg2"
   width="256"
   height="128"
   viewBox="0 0 256 128"
   sodipodi:docname="vertica_gray.svg"
   inkscape:version="0.92.2 2405546, 2018-03-11">
  <metadata
     id="metadata8">
    <rdf:RDF>
      <cc:Work
         rdf:about="">
        <dc:format>image/svg+xml</dc:format>
        <dc:type
           rdf:resource="http://purl.org/dc/dcmitype/StillImage" />
        <dc:title></dc:title>
      </cc:Work>
    </rdf:RDF>
  </metadata>
  <defs
     id="defs6">
    <filter
       style="color-interpolation-filters:sRGB;"
       inkscape:label="Greyscale"
       id="filter846">
      <feColorMatrix
         values="0.21 0.72 0.072 0.52356 0 0.21 0.72 0.072 0.52356 0 0.21 0.72 0.072 0.52356 0 0 0 0 1 0 "
         id="feColorMatrix844" />
    </filter>
  </defs>
  <sodipodi:namedview
     pagecolor="#ffffff"
     bordercolor="#666666"
     borderopacity="1"
     objecttolerance="10"
     gridtolerance="10"
     guidetolerance="10"
     inkscape:pageopacity="0"
     inkscape:pageshadow="2"
     inkscape:window-width="1364"
     inkscape:window-height="732"
     id="namedview4"
     showgrid="false"
     inkscape:zoom="1.4401484"
     inkscape:cx="-31.303614"
     inkscape:cy="42.535533"
     inkscape:window-x="0"
     inkscape:window-y="35"
     inkscape:window-maximized="0"
     inkscape:current-layer="svg2"
     fit-margin-top="0"
     fit-margin-left="0"
     fit-margin-right="0"
     fit-margin-bottom="0" />
  <path
     style="fill:#0d0d0d;stroke-width:0.38358799;filter:url(#filter846)"
     d="M 16.666334,65.345098 C 9.4510374,52.57531 3.6554239,41.952857 3.7871913,41.739652 c 0.1352152,-0.218775 1.8892936,-0.387635 4.0266991,-0.387635 3.6982766,0 3.8042916,0.02466 4.5189156,1.054865 0.402484,0.580168 4.491694,7.743682 9.087132,15.918897 4.595438,8.17523 8.48832,14.864035 8.650842,14.864035 0.162527,0 4.30136,-7.078189 9.197417,-15.729339 6.651703,-11.753297 9.110477,-15.779981 9.72699,-15.929701 0.453792,-0.110258 7.729659,-0.152356 16.168595,-0.09371 l 15.343521,0.106756 v 3.644074 3.644092 l -13.670286,0.10073 C 54.820746,49.021253 53.103514,49.108171 52.64426,49.651225 52.356903,49.991023 47.288582,58.820983 41.381325,69.273352 35.47407,79.725735 30.448302,88.341852 30.21296,88.420297 29.977614,88.498657 23.881633,78.11491 16.666334,65.345145 Z M 190.77813,87.003991 c -5.06151,-0.642979 -9.55809,-2.875129 -13.35746,-6.630798 -10.46922,-10.348779 -8.56881,-27.538531 3.94021,-35.640294 7.16558,-4.640953 17.50404,-4.634568 24.60978,0.01521 1.24931,0.817506 2.76119,2.009636 3.35974,2.649172 l 1.08826,1.162824 -1.79312,3.108747 c -1.82965,3.172064 -2.53988,3.687763 -3.25041,2.360118 -0.69359,-1.296022 -4.65686,-3.837153 -7.21866,-4.62843 -7.4559,-2.302888 -15.21029,1.177926 -18.60937,8.353407 -1.12338,2.371463 -1.22485,2.903473 -1.22485,6.421544 0,3.518084 0.10145,4.050106 1.22485,6.421559 2.63813,5.569125 8.12488,9.09525 14.17418,9.109213 4.09988,0.0096 9.11253,-2.368613 11.71442,-5.557485 0.51644,-0.632917 5.32926,-8.447876 10.69521,-17.366574 6.14436,-10.212517 9.95188,-16.176897 10.28467,-16.110698 0.59888,0.119167 27.66531,44.891432 27.66531,45.762958 0,0.461196 -0.73817,0.564533 -4.03245,0.564533 h -4.03242 l -1.27451,-2.013834 c -0.70099,-1.107607 -5.04411,-8.271113 -9.65136,-15.918903 -4.60727,-7.64779 -8.56272,-13.899871 -8.78991,-13.893524 -0.22719,0.006 -3.34752,4.963206 -6.93406,11.015241 -5.79485,9.778372 -6.86273,11.347741 -9.58971,14.093364 -2.15615,2.170893 -3.81838,3.455178 -5.58973,4.31876 -4.21112,2.053026 -9.17096,2.942258 -13.40861,2.403916 z M 48.737628,86.747459 c -0.142957,-0.142963 -0.259925,-5.906293 -0.259925,-12.807428 0,-10.139542 0.100581,-12.63098 0.524085,-12.982459 0.376086,-0.312119 4.898593,-0.406634 16.014801,-0.334653 l 15.490714,0.100392 v 3.644087 3.644086 L 68.42428,68.20327 56.341258,68.395067 v 5.370238 5.370225 l 12.083022,0.191797 12.083023,0.191786 v 3.644098 3.644087 l -15.754876,0.100149 c -8.665182,0.05513 -15.871841,-0.01685 -16.014799,-0.15984 z m 35.299272,0.0084 c -0.148004,-0.14795 -0.269099,-10.230785 -0.269099,-22.406248 0,-18.781648 0.08359,-22.206568 0.5514,-22.59482 0.410536,-0.340721 3.91388,-0.423564 13.713261,-0.324277 10.984578,0.111257 13.435038,0.236441 14.813098,0.756587 5.37779,2.02986 8.64014,6.815948 8.60377,12.622441 -0.0278,4.437774 -2.17319,8.017223 -6.76276,11.283192 l -1.0781,0.767165 5.21803,9.553183 c 2.86995,5.254238 5.21806,9.785377 5.21806,10.069173 0,0.706005 -6.6323,0.739696 -7.193,0.03647 -0.2103,-0.263706 -2.49635,-4.363308 -5.08013,-9.110211 -2.58377,-4.746903 -4.96588,-8.936493 -5.29353,-9.310228 -0.5366,-0.612009 -1.30349,-0.669161 -7.721162,-0.575381 l -7.125384,0.104118 -0.191793,9.589692 -0.191794,9.589703 -3.47089,0.109296 c -1.90898,0.06007 -3.591978,-0.01083 -3.739977,-0.159826 z m 25.41968,-26.972908 c 2.0921,-0.403636 3.99807,-2.301114 4.38542,-4.3659 0.42875,-2.285411 -0.85124,-4.70199 -2.99214,-5.649003 -1.57343,-0.695999 -2.44835,-0.75085 -10.46772,-0.656327 l -8.750786,0.103231 -0.107623,4.93315 c -0.07225,3.309867 0.03788,5.108527 0.334654,5.466121 0.351627,0.423684 2.025663,0.529562 8.163025,0.516273 4.24638,-0.0084 8.49223,-0.165544 9.43523,-0.347483 z m 25.13021,26.750352 c -0.10187,-0.271673 -0.22846,-8.77947 -0.28122,-18.906191 l -0.0961,-18.412217 -5.01128,-0.106503 -5.01126,-0.106491 -0.80125,-1.649198 c -0.44068,-0.907044 -1.51958,-2.47918 -2.39756,-3.493608 -0.91122,-1.052804 -1.4524,-1.988339 -1.26096,-2.17977 0.18498,-0.184972 8.66778,-0.290685 18.91647,-0.235735 l 18.58114,0.0996 v 3.644082 3.644092 l -7.47999,0.191799 -7.47996,0.191787 -0.19179,18.795809 -0.19179,18.795813 -3.55468,0.11038 c -2.62939,0.08173 -3.60291,-0.01818 -3.73994,-0.383595 z m 26.15435,0.209276 c -0.14065,-0.14064 -0.25573,-10.306433 -0.25573,-22.590651 0,-20.012661 0.0631,-22.359131 0.60675,-22.567751 1.10581,-0.424341 6.12578,-0.251454 6.60471,0.22747 0.3472,0.347188 0.46031,5.806524 0.46031,22.216733 0,11.966032 -0.10472,22.029463 -0.23284,22.363177 -0.1877,0.489146 -0.88169,0.606759 -3.58015,0.606759 -1.84103,0 -3.4624,-0.115073 -3.60305,-0.255737 z"
     id="path12"
     inkscape:connector-curvature="0" />
</svg>
