<?xml version="1.0" encoding="UTF-8" standalone="no"?>
<!-- Created with Inkscape (http://www.inkscape.org/) -->

<svg
   xmlns:dc="http://purl.org/dc/elements/1.1/"
   xmlns:cc="http://creativecommons.org/ns#"
   xmlns:rdf="http://www.w3.org/1999/02/22-rdf-syntax-ns#"
   xmlns:svg="http://www.w3.org/2000/svg"
   xmlns="http://www.w3.org/2000/svg"
   xmlns:sodipodi="http://sodipodi.sourceforge.net/DTD/sodipodi-0.dtd"
   xmlns:inkscape="http://www.inkscape.org/namespaces/inkscape"
   version="1.1"
   id="svg2"
   width="256"
   height="256"
   viewBox="0 0 256 256"
   sodipodi:docname="wayra.svg"
   inkscape:version="0.92.2 2405546, 2018-03-11">
  <metadata
     id="metadata8">
    <rdf:RDF>
      <cc:Work
         rdf:about="">
        <dc:format>image/svg+xml</dc:format>
        <dc:type
           rdf:resource="http://purl.org/dc/dcmitype/StillImage" />
        <dc:title></dc:title>
      </cc:Work>
    </rdf:RDF>
  </metadata>
  <defs
     id="defs6" />
  <sodipodi:namedview
     pagecolor="#ffffff"
     bordercolor="#666666"
     borderopacity="1"
     objecttolerance="10"
     gridtolerance="10"
     guidetolerance="10"
     inkscape:pageopacity="0"
     inkscape:pageshadow="2"
     inkscape:window-width="1364"
     inkscape:window-height="732"
     id="namedview4"
     showgrid="false"
     inkscape:zoom="0.9341858"
     inkscape:cx="52.451821"
     inkscape:cy="23.079293"
     inkscape:window-x="0"
     inkscape:window-y="35"
     inkscape:window-maximized="0"
     inkscape:current-layer="svg2" />
  <g
     id="g26"
     transform="matrix(0.89343259,0,0,0.93563774,10.298373,29.762221)">
    <path
       style="fill:#b9ae21;stroke-width:0.26414201"
       d="m 141.5526,149.5925 c 0.40152,-0.0607 0.99583,-0.0591 1.32071,0.004 0.32488,0.0627 -0.004,0.11237 -0.73002,0.11039 -0.72639,-0.002 -0.9922,-0.0533 -0.59069,-0.11399 z M 20.770039,149.33561 c -1.654694,-0.27651 -4.865741,-1.52736 -6.299085,-2.45377 -3.03716,-1.96301 -4.8555093,-4.07243 -5.7209635,-6.63673 C 8.5345114,139.60666 6.2851251,127.96235 3.7513537,114.36887 1.2175826,100.77538 -0.9317848,89.305014 -1.0250182,88.879162 l -0.169515,-0.774277 0.35826321,0.660355 0.35826293,0.660355 8.01684516,0.06996 c 5.6548809,0.04935 8.1225699,-0.01778 8.3756899,-0.227857 0.271155,-0.225038 0.388217,-0.209861 0.479041,0.06211 0.06611,0.197959 1.501615,7.848351 3.190015,17.000872 2.155101,11.68241 3.210218,16.83772 3.540998,17.30131 0.52676,0.73825 1.789932,0.99615 2.642979,0.53961 0.646474,-0.34598 0.782652,-0.85424 2.02002,-7.53938 l 0.977817,-5.28284 h 8.669595 c 8.53446,0 8.66768,0.008 8.546716,0.52829 -0.06759,0.29055 -1.245049,6.59034 -2.61659,13.99952 -1.371542,7.40919 -2.673176,13.97772 -2.892519,14.59675 -1.333566,3.76355 -5.975138,7.40108 -11.002751,8.62268 -1.624214,0.39466 -6.900874,0.5396 -8.69981,0.23899 z m 59.382425,0.002 c 0.190676,-0.0763 0.418501,-0.0669 0.506273,0.0208 0.08777,0.0878 -0.06824,0.1502 -0.346686,0.13873 -0.307713,-0.0127 -0.370301,-0.0753 -0.159587,-0.15958 z m 6.075266,0 c 0.190676,-0.0763 0.418501,-0.0669 0.506273,0.0208 0.08777,0.0878 -0.06824,0.1502 -0.346686,0.13873 -0.307713,-0.0127 -0.370301,-0.0753 -0.159587,-0.15958 z m 52.28361,0.005 c 0.1816,-0.0733 0.47876,-0.0733 0.66035,0 0.1816,0.0733 0.033,0.13323 -0.33017,0.13323 -0.3632,0 -0.51178,-0.0599 -0.33018,-0.13323 z m 6.62006,-0.005 c 0.19067,-0.0763 0.4185,-0.0669 0.50627,0.0208 0.0878,0.0878 -0.0682,0.1502 -0.34669,0.13873 -0.30771,-0.0127 -0.3703,-0.0753 -0.15958,-0.15958 z m -7.92426,-0.26414 c 0.19067,-0.0763 0.4185,-0.0669 0.50627,0.0208 0.0878,0.0878 -0.0682,0.1502 -0.34669,0.13873 -0.30771,-0.0127 -0.3703,-0.0753 -0.15958,-0.15958 z m 102.53662,-0.18751 c 0,-0.0571 0.18447,-0.1746 0.40994,-0.26112 0.23506,-0.0902 0.34109,-0.0459 0.24855,0.10381 -0.15512,0.25099 -0.65849,0.37124 -0.65849,0.15731 z m -27.7686,-1.15087 c -0.32856,-0.41894 -0.31922,-0.42828 0.0997,-0.0997 0.43999,0.34507 0.57992,0.56198 0.36252,0.56198 -0.0548,0 -0.26286,-0.20801 -0.46225,-0.46225 z m 9.56482,0.38751 c 0.0605,-0.0411 0.34778,-0.24912 0.63834,-0.46225 0.48866,-0.35844 0.5011,-0.35284 0.16576,0.0747 -0.19938,0.25424 -0.48664,0.46225 -0.63834,0.46225 -0.1517,0 -0.2263,-0.0336 -0.16576,-0.0747 z m 27.57936,-0.45516 c -0.26376,-0.29145 -0.43076,-0.57697 -0.37112,-0.63449 0.0596,-0.0575 0.322,0.18094 0.58302,0.52991 0.57646,0.77069 0.44821,0.83399 -0.2119,0.10458 z m 22.39252,0.34685 c 0.25701,-0.067 0.6136,-0.0626 0.79242,0.01 0.17885,0.0724 -0.0314,0.12715 -0.46726,0.12177 -0.43584,-0.005 -0.58215,-0.0646 -0.32516,-0.13155 z m -138.62909,-0.49188 c -0.49237,-0.39446 -0.48913,-0.39934 0.0816,-0.12277 0.32687,0.1584 0.59432,0.34325 0.59432,0.41078 0,0.20213 -0.13699,0.14376 -0.67591,-0.28801 z m 125.19377,-0.18353 -0.50319,-0.59432 0.66035,0.52547 c 0.3632,0.28901 0.70989,0.55645 0.77043,0.59432 0.0605,0.0379 -0.0103,0.0688 -0.15717,0.0688 -0.14699,0 -0.49368,-0.26744 -0.77042,-0.59432 z m 12.15053,0 -0.50319,-0.59432 0.59432,0.50319 c 0.5585,0.47287 0.71456,0.68545 0.50319,0.68545 -0.0501,0 -0.31758,-0.26744 -0.59432,-0.59432 z m 2.53444,0.49459 c 0,-0.0548 0.20802,-0.26286 0.46225,-0.46225 0.41896,-0.32856 0.42828,-0.31921 0.0997,0.0997 -0.34507,0.44 -0.56199,0.57992 -0.56199,0.36252 z m -45.9944,-0.62666 c -0.32856,-0.41895 -0.31921,-0.42829 0.0997,-0.0997 0.43999,0.34507 0.57992,0.56198 0.36252,0.56198 -0.0549,0 -0.26286,-0.20801 -0.46225,-0.46225 z m 37.22819,0.0177 c 0.19069,-0.0763 0.41851,-0.0669 0.50628,0.0208 0.0878,0.0878 -0.0682,0.1502 -0.34668,0.13873 -0.30773,-0.0127 -0.3703,-0.0753 -0.1596,-0.15958 z m 3.81413,-0.74406 c 0.003,-0.58111 0.057,-0.78774 0.12021,-0.45917 0.0632,0.32857 0.0608,0.80402 -0.005,1.05657 -0.0661,0.25254 -0.11781,-0.0163 -0.11487,-0.5974 z m -31.13548,-2.77349 c 0,-1.6707 0.0429,-2.35417 0.0953,-1.51882 0.0524,0.83535 0.0524,2.20229 0,3.03763 -0.0524,0.83535 -0.0953,0.15189 -0.0953,-1.51881 z m -106.31867,2.17917 c -0.32856,-0.41895 -0.31922,-0.42829 0.0997,-0.0997 0.25423,0.19939 0.46225,0.4074 0.46225,0.46225 0,0.2174 -0.21691,0.0775 -0.56198,-0.36252 z m 100.88641,0.28181 c 0.19068,-0.0763 0.4185,-0.0669 0.50628,0.0208 0.0878,0.0878 -0.0682,0.1502 -0.34669,0.13873 -0.30771,-0.0127 -0.3703,-0.0753 -0.15959,-0.15958 z m 31.16876,0 c 0.19068,-0.0763 0.41851,-0.0669 0.50628,0.0208 0.0878,0.0878 -0.0682,0.1502 -0.34669,0.13873 -0.30772,-0.0127 -0.3703,-0.0753 -0.15959,-0.15958 z m 0.84195,-0.18343 c 0,-0.0548 0.20801,-0.26286 0.46225,-0.46225 0.41896,-0.32856 0.42828,-0.31922 0.0997,0.0997 -0.34507,0.43999 -0.56199,0.57992 -0.56199,0.36252 z m -6.05442,-0.58264 c 0.0127,-0.30771 0.0753,-0.3703 0.15959,-0.15959 0.0763,0.19068 0.0669,0.4185 -0.0209,0.50628 -0.0878,0.0878 -0.15021,-0.0682 -0.13875,-0.34669 z m -102.2438,-0.77042 c 0.49283,-0.50847 0.95549,-0.92449 1.02813,-0.92449 0.0726,0 -0.27116,0.41602 -0.76399,0.92449 -0.49283,0.50848 -0.95549,0.9245 -1.02813,0.9245 -0.0726,0 0.27116,-0.41602 0.76399,-0.9245 z m 106.18509,0.54388 c 0,-0.20934 0.10777,-0.44724 0.23949,-0.52865 0.13173,-0.0814 0.17732,0.0899 0.10128,0.38062 -0.16129,0.61677 -0.34077,0.69474 -0.34077,0.14803 z m 8.71668,0.20144 c 0,-0.14697 0.26745,-0.49366 0.59432,-0.77041 l 0.59432,-0.50319 -0.52546,0.66036 c -0.28902,0.36319 -0.55646,0.70988 -0.59432,0.77041 -0.0379,0.0605 -0.0689,-0.0102 -0.0689,-0.15717 z m -199.840044,-0.94342 -0.775809,-0.85846 0.858462,0.77581 c 0.472154,0.42669 0.858461,0.813 0.858461,0.85846 0,0.20406 -0.217951,0.0244 -0.941114,-0.77581 z m 58.768224,0.13207 -0.64037,-0.72639 0.7264,0.64036 c 0.39951,0.3522 0.72639,0.67908 0.72639,0.72639 0,0.20716 -0.21391,0.0386 -0.81242,-0.64036 z m 88.79256,0.30817 c 0.0127,-0.30772 0.0753,-0.3703 0.15958,-0.15959 0.0763,0.19068 0.0669,0.4185 -0.0208,0.50627 -0.0878,0.0878 -0.1502,-0.0682 -0.13873,-0.34668 z m 15.32023,-0.0257 c -0.0137,-0.37838 -0.22473,-0.61522 -0.61517,-0.69042 l -0.59432,-0.11447 0.60261,-0.036 c 0.62574,-0.0374 0.99983,0.49053 0.76387,1.07791 -0.0749,0.18639 -0.14552,0.0797 -0.15699,-0.23705 z m 31.14791,-0.15409 c 0,-0.23203 -0.26745,-0.47338 -0.59432,-0.53634 l -0.59432,-0.11447 0.60261,-0.036 c 0.58059,-0.0346 1.08946,0.60521 0.75072,0.94394 -0.0906,0.0906 -0.16469,-0.0251 -0.16469,-0.25716 z m 8.94712,-0.12843 c -0.32854,-0.41895 -0.31921,-0.42829 0.0997,-0.0997 0.43998,0.34507 0.57993,0.56198 0.36251,0.56198 -0.0548,0 -0.26285,-0.20801 -0.46225,-0.46225 z m -30.44749,-0.5503 c -0.0748,-0.12106 0.0318,-0.22012 0.23694,-0.22012 0.20513,0 0.31175,0.0991 0.23693,0.22012 -0.0748,0.12107 -0.18144,0.22012 -0.23693,0.22012 -0.0555,0 -0.16212,-0.0991 -0.23694,-0.22012 z m 28.9674,0.0371 c 0.25701,-0.067 0.6136,-0.0626 0.79242,0.01 0.17885,0.0724 -0.0314,0.12715 -0.46726,0.12177 -0.43584,-0.005 -0.58215,-0.0646 -0.32516,-0.13155 z m -57.52194,-0.34523 c 0.0898,-0.14528 0.21566,-0.26414 0.27973,-0.26414 0.0641,0 0.11648,0.11886 0.11648,0.26414 0,0.14528 -0.12588,0.26414 -0.27973,0.26414 -0.15385,0 -0.20627,-0.11886 -0.11648,-0.26414 z m 3.07547,0.029 c -0.22037,-0.13963 -0.25646,-0.29007 -0.0937,-0.39065 0.14557,-0.09 0.33282,0.014 0.41613,0.23112 0.17502,0.45612 0.15854,0.46428 -0.32241,0.15953 z m 2.97723,-0.0655 c -0.11392,-0.18433 -0.077,-0.23875 0.0913,-0.13473 0.15532,0.096 0.3426,0.0252 0.41617,-0.15729 0.0958,-0.2375 0.13971,-0.2424 0.15463,-0.0172 0.0301,0.45456 -0.43731,0.67292 -0.66206,0.30927 z m 6.49404,0.20092 c 0,-0.0549 0.20801,-0.26286 0.46225,-0.46225 0.41895,-0.32856 0.42829,-0.31921 0.0997,0.0997 -0.34507,0.44 -0.56198,0.57992 -0.56198,0.36252 z m 31.16876,0 c 0,-0.0549 0.20801,-0.26286 0.46225,-0.46225 0.41895,-0.32856 0.42828,-0.31921 0.0997,0.0997 -0.34508,0.44 -0.56199,0.57992 -0.56199,0.36252 z m -130.2557,-0.8908 c -0.32856,-0.41895 -0.31922,-0.42829 0.0997,-0.0997 0.25423,0.19939 0.46224,0.4074 0.46224,0.46225 0,0.2174 -0.21691,0.0775 -0.56197,-0.36252 z m 132.84759,-0.51062 c 0.19069,-0.0763 0.41851,-0.0669 0.50628,0.0208 0.0878,0.0878 -0.0682,0.1502 -0.34668,0.13874 -0.30773,-0.0127 -0.3703,-0.0753 -0.1596,-0.15959 z m -29.19917,-0.26675 c 0.257,-0.067 0.61359,-0.0626 0.79242,0.01 0.17884,0.0724 -0.0314,0.12715 -0.46727,0.12177 -0.43583,-0.005 -0.58215,-0.0646 -0.32515,-0.13156 z m 31.03166,0.008 c 0.1816,-0.0733 0.47876,-0.0733 0.66035,0 0.1816,0.0733 0.033,0.13323 -0.33017,0.13323 -0.3632,0 -0.51178,-0.06 -0.33018,-0.13323 z m -52.70109,-2.20234 c 0,-0.50847 0.0544,-0.71649 0.1208,-0.46225 0.0664,0.25424 0.0664,0.67026 0,0.9245 -0.0664,0.25423 -0.1208,0.0462 -0.1208,-0.46225 z m 28.48691,0.3742 c 0.0127,-0.30771 0.0753,-0.3703 0.15959,-0.15958 0.0763,0.19067 0.0669,0.4185 -0.0208,0.50627 -0.0878,0.0878 -0.15021,-0.0682 -0.13874,-0.34669 z m -13.17646,-0.50627 c 0.005,-0.43584 0.0646,-0.58215 0.13156,-0.32515 0.067,0.257 0.0626,0.61359 -0.01,0.79242 -0.0724,0.17884 -0.12715,-0.0314 -0.12177,-0.46727 z m 6.48602,0.48542 c 0.1816,-0.0733 0.47876,-0.0733 0.66036,0 0.1816,0.0733 0.033,0.13323 -0.33018,0.13323 -0.36319,0 -0.51177,-0.06 -0.33018,-0.13323 z m 31.16876,0 c 0.1816,-0.0733 0.47876,-0.0733 0.66036,0 0.18159,0.0733 0.033,0.13323 -0.33018,0.13323 -0.3632,0 -0.51178,-0.06 -0.33018,-0.13323 z m -34.93278,-0.88163 c 0.26295,-0.29056 0.53752,-0.52829 0.61016,-0.52829 0.0726,0 -0.0831,0.23773 -0.34602,0.52829 -0.26295,0.29055 -0.53752,0.52828 -0.61016,0.52828 -0.0726,0 0.0831,-0.23773 0.34602,-0.52828 z m 24.55434,0.24656 c -0.0958,-0.15494 -0.10277,-0.35305 -0.0156,-0.44023 0.0872,-0.0872 0.15852,-0.007 0.15852,0.1779 0,0.19553 0.17168,0.27055 0.40994,0.17912 0.23506,-0.0902 0.34109,-0.0459 0.24855,0.10381 -0.21139,0.34203 -0.58321,0.33247 -0.80142,-0.0206 z m -39.71599,-0.8529 c -0.33412,-0.55636 -0.32849,-0.56199 0.12635,-0.12634 0.26182,0.25077 0.41919,0.51281 0.3497,0.5823 -0.0695,0.0695 -0.28371,-0.13569 -0.47605,-0.45596 z m 43.31929,0 c -0.33412,-0.55636 -0.32849,-0.56199 0.12635,-0.12634 0.26182,0.25077 0.41919,0.51281 0.3497,0.5823 -0.0695,0.0695 -0.28371,-0.13569 -0.47605,-0.45596 z m -8.7769,-0.12005 c -0.32856,-0.41895 -0.31921,-0.42829 0.0997,-0.0997 0.44,0.34506 0.57992,0.56197 0.36252,0.56197 -0.0548,0 -0.26286,-0.20801 -0.46225,-0.46224 z m 6.10896,0.36251 c 0,-0.0548 0.20802,-0.26286 0.46225,-0.46224 0.41895,-0.32856 0.42829,-0.31922 0.0997,0.0997 -0.34507,0.43999 -0.56198,0.57991 -0.56198,0.36251 z m 13.2071,-0.16441 c -0.23807,-0.15385 -0.27064,-0.25767 -0.0816,-0.2601 0.17302,-0.002 0.38805,0.11482 0.47784,0.2601 0.20267,0.32794 0.11123,0.32794 -0.39622,0 z m -55.39876,-0.71133 c 0.25701,-0.067 0.6136,-0.0626 0.79243,0.01 0.17883,0.0724 -0.0314,0.12715 -0.46727,0.12177 -0.43584,-0.005 -0.58216,-0.0646 -0.32516,-0.13156 z m 5.94125,-0.004 c 0.32857,-0.0632 0.80403,-0.0608 1.05657,0.005 0.25254,0.0661 -0.0163,0.11781 -0.5974,0.11487 -0.58111,-0.003 -0.78774,-0.057 -0.45917,-0.1202 z m 5.94012,0.005 c 0.25423,-0.0664 0.67026,-0.0664 0.9245,0 0.25423,0.0664 0.0462,0.1208 -0.46225,0.1208 -0.50848,0 -0.71649,-0.0544 -0.46225,-0.1208 z m 8.05044,-0.009 c 0.46891,-0.0584 1.30096,-0.0593 1.84899,-0.002 0.54803,0.0572 0.16438,0.10492 -0.85257,0.10609 -1.01694,0.001 -1.46534,-0.0456 -0.99642,-0.10396 z m 8.59553,0.008 c 0.257,-0.067 0.6136,-0.0626 0.79243,0.01 0.17883,0.0724 -0.0314,0.12715 -0.46728,0.12177 -0.43583,-0.005 -0.58215,-0.0646 -0.32515,-0.13155 z m 6.07527,0 c 0.257,-0.067 0.61359,-0.0626 0.79242,0.01 0.17884,0.0724 -0.0314,0.12715 -0.46727,0.12177 -0.43584,-0.005 -0.58215,-0.0646 -0.32515,-0.13155 z m 4.75455,0 c 0.25701,-0.067 0.6136,-0.0626 0.79243,0.01 0.17883,0.0724 -0.0314,0.12715 -0.46728,0.12177 -0.43583,-0.005 -0.58215,-0.0646 -0.32515,-0.13155 z m 4.08918,0.008 c 0.1816,-0.0733 0.47876,-0.0733 0.66035,0 0.1816,0.0733 0.033,0.13323 -0.33017,0.13323 -0.3632,0 -0.51178,-0.06 -0.33018,-0.13323 z m 7.65423,-0.0157 c 0.4689,-0.0584 1.30095,-0.0593 1.84899,-0.002 0.54804,0.0572 0.16438,0.10492 -0.85257,0.10609 -1.01695,10e-4 -1.46533,-0.0456 -0.99642,-0.10396 z M 66.751602,137.74156 c 0.01268,-0.30772 0.07526,-0.3703 0.159584,-0.15959 0.0763,0.19068 0.06692,0.4185 -0.02084,0.50627 -0.08777,0.0878 -0.150201,-0.0682 -0.138732,-0.34668 z m 33.017751,-0.26415 c 0.01268,-0.30771 0.07527,-0.3703 0.159584,-0.15958 0.0763,0.19067 0.06692,0.4185 -0.02084,0.50627 -0.08777,0.0878 -0.150201,-0.0682 -0.138732,-0.34669 z m 25.621777,0 c 0.0127,-0.30771 0.0753,-0.3703 0.15958,-0.15958 0.0763,0.19067 0.0669,0.4185 -0.0208,0.50627 -0.0878,0.0878 -0.1502,-0.0682 -0.13873,-0.34669 z m -0.26414,-1.32071 c 0.0127,-0.30771 0.0753,-0.3703 0.15958,-0.15958 0.0763,0.19067 0.0669,0.4185 -0.0208,0.50627 -0.0878,0.0878 -0.1502,-0.0682 -0.13873,-0.34669 z m 33.81017,-1.05656 c 0.0127,-0.30772 0.0753,-0.3703 0.15959,-0.15959 0.0763,0.19068 0.0669,0.4185 -0.0208,0.50627 -0.0878,0.0878 -0.15021,-0.0682 -0.13874,-0.34668 z m -58.37538,-1.849 c 0.0127,-0.30771 0.0753,-0.3703 0.15958,-0.15959 0.0763,0.19068 0.0669,0.41851 -0.0208,0.50628 -0.0878,0.0878 -0.1502,-0.0682 -0.13873,-0.34669 z m 24.03692,0 c 0.0127,-0.30771 0.0753,-0.3703 0.15959,-0.15959 0.0763,0.19068 0.0669,0.41851 -0.0208,0.50628 -0.0878,0.0878 -0.1502,-0.0682 -0.13873,-0.34669 z m 34.86675,-1.05657 c 0.0127,-0.30771 0.0753,-0.3703 0.15958,-0.15958 0.0763,0.19067 0.0669,0.4185 -0.0208,0.50627 -0.0878,0.0878 -0.1502,-0.0682 -0.13873,-0.34669 z m -35.13089,-0.26414 c 0.0127,-0.30771 0.0753,-0.3703 0.15958,-0.15959 0.0763,0.19068 0.0669,0.41851 -0.0208,0.50628 -0.0878,0.0878 -0.1502,-0.0682 -0.13873,-0.34669 z m 35.39503,-1.05657 c 0.0127,-0.30771 0.0753,-0.3703 0.15958,-0.15958 0.0763,0.19067 0.0669,0.4185 -0.0208,0.50627 -0.0878,0.0878 -0.1502,-0.0682 -0.13873,-0.34669 z m -35.92331,-1.84899 c 0.0127,-0.30771 0.0753,-0.3703 0.15958,-0.15959 0.0763,0.19068 0.0669,0.4185 -0.0208,0.50628 -0.0878,0.0878 -0.1502,-0.0682 -0.13873,-0.34669 z m 36.45159,-1.05657 c 0.0127,-0.30771 0.0753,-0.3703 0.15959,-0.15959 0.0763,0.19068 0.0669,0.41851 -0.0208,0.50628 -0.0878,0.0878 -0.15021,-0.0682 -0.13874,-0.34669 z m 0.26414,-1.32071 c 0.0127,-0.30771 0.0753,-0.3703 0.15959,-0.15959 0.0763,0.19068 0.0669,0.41851 -0.0208,0.50628 -0.0878,0.0878 -0.1502,-0.0682 -0.13873,-0.34669 z m -37.50816,-1.84899 c 0.0127,-0.30771 0.0753,-0.3703 0.15958,-0.15959 0.0763,0.19068 0.0669,0.4185 -0.0208,0.50627 -0.0878,0.0878 -0.1502,-0.0682 -0.13873,-0.34668 z m -39.972333,-0.28498 c 0.181598,-0.0733 0.478757,-0.0733 0.660355,0 0.181598,0.0733 0.03302,0.13323 -0.330177,0.13323 -0.363196,0 -0.511776,-0.06 -0.330178,-0.13323 z m 58.639523,0 c 0.1816,-0.0733 0.47876,-0.0733 0.66036,0 0.1816,0.0733 0.033,0.13323 -0.33018,0.13323 -0.3632,0 -0.51177,-0.06 -0.33018,-0.13323 z m 19.36926,-0.77157 c 0.0127,-0.30772 0.0753,-0.37031 0.15958,-0.15959 0.0763,0.19067 0.0669,0.4185 -0.0208,0.50627 -0.0878,0.0878 -0.1502,-0.0682 -0.13873,-0.34668 z m -97.20426,-1.58486 c 0.01268,-0.30771 0.07526,-0.3703 0.159584,-0.15958 0.0763,0.19067 0.06692,0.4185 -0.02084,0.50627 -0.08777,0.0878 -0.150201,-0.0682 -0.138732,-0.34669 z m 38.82888,-0.26414 c 0.0127,-0.30771 0.0753,-0.3703 0.15958,-0.15959 0.0763,0.19068 0.0669,0.41851 -0.0208,0.50628 -0.0878,0.0878 -0.1502,-0.0682 -0.13873,-0.34669 z m 19.81065,0 c 0.0127,-0.30771 0.0753,-0.3703 0.15958,-0.15959 0.0763,0.19068 0.0669,0.41851 -0.0208,0.50628 -0.0878,0.0878 -0.1502,-0.0682 -0.13873,-0.34669 z m 21.65964,-0.26414 c 0.0127,-0.30771 0.0753,-0.3703 0.15958,-0.15959 0.0763,0.19068 0.0669,0.4185 -0.0208,0.50628 -0.0878,0.0878 -0.1502,-0.0682 -0.13873,-0.34669 z m -4.49041,-0.26414 c 0.0127,-0.30772 0.0753,-0.3703 0.15958,-0.15959 0.0763,0.19068 0.0669,0.4185 -0.0208,0.50627 -0.0878,0.0878 -0.1502,-0.0682 -0.13873,-0.34668 z m -17.43338,-0.79243 c 0.0127,-0.30771 0.0753,-0.3703 0.15959,-0.15959 0.0763,0.19068 0.0669,0.41851 -0.0208,0.50628 -0.0878,0.0878 -0.1502,-0.0682 -0.13874,-0.34669 z m 22.18793,-0.26414 c 0.0127,-0.30771 0.0753,-0.3703 0.15959,-0.15959 0.0763,0.19068 0.0669,0.4185 -0.0208,0.50628 -0.0878,0.0878 -0.15021,-0.0682 -0.13874,-0.34669 z m -58.639523,-0.26414 c 0.01268,-0.30772 0.07526,-0.3703 0.159584,-0.15959 0.0763,0.19068 0.06692,0.4185 -0.02084,0.50627 -0.08777,0.0878 -0.150202,-0.0682 -0.138733,-0.34668 z m 53.620823,0 c 0.0127,-0.30772 0.0753,-0.3703 0.15959,-0.15959 0.0763,0.19068 0.0669,0.4185 -0.0208,0.50627 -0.0878,0.0878 -0.1502,-0.0682 -0.13874,-0.34668 z m 22.45207,-0.52829 c 0.0127,-0.30771 0.0753,-0.3703 0.15959,-0.15958 0.0763,0.19067 0.0669,0.4185 -0.0208,0.50627 -0.0878,0.0878 -0.1502,-0.0682 -0.13873,-0.34669 z m -58.37538,-1.84899 c 0.0127,-0.30771 0.0753,-0.3703 0.15959,-0.15959 0.0763,0.19068 0.0669,0.4185 -0.0208,0.50628 -0.0878,0.0878 -0.1502,-0.0682 -0.13873,-0.34669 z m 18.2258,0 c 0.0127,-0.30771 0.0753,-0.3703 0.15958,-0.15959 0.0763,0.19068 0.0669,0.4185 -0.0208,0.50628 -0.0878,0.0878 -0.1502,-0.0682 -0.13873,-0.34669 z m 23.2445,-0.26414 c 0.0127,-0.30772 0.0753,-0.3703 0.15958,-0.15959 0.0763,0.19068 0.0669,0.4185 -0.0208,0.50627 -0.0878,0.0878 -0.1502,-0.0682 -0.13873,-0.34668 z m -6.07527,-0.26414 c 0.0127,-0.30772 0.0753,-0.37031 0.15958,-0.15959 0.0763,0.19067 0.0669,0.4185 -0.0208,0.50627 -0.0878,0.0878 -0.1502,-0.0682 -0.13873,-0.34668 z m 23.50864,-0.52829 c 0.0127,-0.30771 0.0753,-0.3703 0.15958,-0.15959 0.0763,0.19068 0.0669,0.4185 -0.0208,0.50628 -0.0878,0.0878 -0.1502,-0.0682 -0.13873,-0.34669 z M 121.429,116.34607 c 0.0127,-0.30771 0.0753,-0.3703 0.15958,-0.15959 0.0763,0.19068 0.0669,0.4185 -0.0208,0.50628 -0.0878,0.0878 -0.1502,-0.0682 -0.13873,-0.34669 z m 23.77278,-0.26414 c 0.0127,-0.30772 0.0753,-0.3703 0.15958,-0.15959 0.0763,0.19068 0.0669,0.4185 -0.0208,0.50627 -0.0878,0.0878 -0.1502,-0.0682 -0.13873,-0.34668 z m -6.60355,-0.26415 c 0.0127,-0.30771 0.0753,-0.3703 0.15958,-0.15958 0.0763,0.19067 0.0669,0.4185 -0.0208,0.50627 -0.0878,0.0878 -0.1502,-0.0682 -0.13873,-0.34669 z m 24.03692,-0.52828 c 0.0127,-0.30771 0.0753,-0.3703 0.15958,-0.15959 0.0763,0.19068 0.0669,0.4185 -0.0208,0.50628 -0.0878,0.0878 -0.1502,-0.0682 -0.13873,-0.34669 z m -82.94059,-0.52828 c 0.01268,-0.30772 0.07527,-0.3703 0.159585,-0.15959 0.0763,0.19068 0.06692,0.4185 -0.02084,0.50627 -0.08777,0.0878 -0.150202,-0.0682 -0.138733,-0.34668 z m 41.20615,-1.32071 c 0.0127,-0.30772 0.0753,-0.3703 0.15959,-0.15959 0.0763,0.19068 0.0669,0.4185 -0.0208,0.50627 -0.0878,0.0878 -0.1502,-0.0682 -0.13874,-0.34668 z m 24.82935,-0.26415 c 0.0127,-0.30771 0.0753,-0.3703 0.15959,-0.15958 0.0763,0.19067 0.0669,0.4185 -0.0208,0.50627 -0.0878,0.0878 -0.15021,-0.0682 -0.13874,-0.34669 z m -7.66012,-0.26414 c 0.0127,-0.30771 0.0753,-0.3703 0.15959,-0.15958 0.0763,0.19067 0.0669,0.41849 -0.0208,0.50627 -0.0878,0.0878 -0.1502,-0.0682 -0.13874,-0.34669 z m 25.10861,-0.70438 -0.036,-0.72639 h -8.30735 c -7.62368,0 -8.33154,0.038 -8.60129,0.46225 -0.24397,0.38368 -0.2673,0.33681 -0.13725,-0.27574 0.0862,-0.40589 2.18479,-11.63853 4.66357,-24.961419 3.44392,-18.510213 4.6597,-24.546901 5.15479,-25.594912 1.26992,-2.688179 4.44787,-5.493422 7.73764,-6.830172 5.50379,-2.23639 12.79804,-1.790161 17.58362,1.075684 3.25248,1.947748 5.75144,5.122498 6.44078,8.182537 0.33229,1.475045 4.7853,25.381554 4.78518,25.689813 -4e-5,0.107857 -3.86834,0.196104 -8.59622,0.196104 -8.37785,0 -8.59936,-0.01342 -8.72276,-0.528284 -0.0696,-0.290556 -0.53684,-2.667834 -1.03822,-5.28284 -0.98299,-5.126851 -1.25109,-5.679053 -2.75731,-5.679053 -1.7395,0 -1.65362,-0.368065 -8.01225,34.338462 -0.11876,0.6482 -0.12165,0.64698 -0.15696,-0.066 z m -42.54198,-0.088 c 0.0127,-0.30772 0.0753,-0.3703 0.15959,-0.15959 0.0763,0.19068 0.0669,0.4185 -0.0208,0.50627 -0.0878,0.0878 -0.1502,-0.0682 -0.13873,-0.34668 z M 104.5237,111.972 c -0.0114,-0.23869 -0.20866,-0.50614 -0.43846,-0.59432 -0.2298,-0.0882 -3.90609,-0.16033 -8.169537,-0.16033 -6.949541,0 -7.798277,0.0466 -8.201646,0.44993 -0.42381,0.42381 -0.440985,0.41998 -0.29585,-0.066 0.08474,-0.28378 2.183375,-11.45144 4.66362,-24.817025 3.64758,-19.656099 4.642838,-24.578753 5.206902,-25.753846 1.018429,-2.121654 3.948931,-4.917449 6.421901,-6.126702 2.68149,-1.311219 4.6321,-1.797542 7.93637,-1.978688 5.88957,-0.322878 11.17197,1.65384 14.59568,5.461829 2.19326,2.439431 2.31842,2.87354 5.0648,17.567585 1.3848,7.409183 2.58005,13.768402 2.6561,14.131597 0.13514,0.645349 0.13225,0.646694 -0.12731,0.05925 l -0.2656,-0.601114 -8.5143,0.02097 -8.51431,0.02097 -0.949,-5.098923 c -0.52196,-2.804407 -1.09461,-5.364962 -1.27257,-5.690122 -0.65166,-1.190665 -2.79983,-1.062901 -3.38177,0.201132 -0.16565,0.359817 -1.67215,8.023773 -3.34778,17.031015 -1.67563,9.007242 -3.05589,16.181512 -3.06724,15.942822 z m 33.01796,-1.9653 c 0.0127,-0.30771 0.0753,-0.3703 0.15958,-0.15959 0.0763,0.19068 0.0669,0.4185 -0.0208,0.50628 -0.0878,0.0878 -0.1502,-0.0682 -0.13873,-0.34669 z m -17.43337,-0.79243 c 0.0127,-0.30771 0.0753,-0.3703 0.15958,-0.15958 0.0763,0.19067 0.0669,0.4185 -0.0208,0.50627 -0.0878,0.0878 -0.1502,-0.0682 -0.13873,-0.34669 z m 17.16923,-0.52828 c 0.0127,-0.30771 0.0753,-0.3703 0.15958,-0.15959 0.0763,0.19068 0.0669,0.4185 -0.0208,0.50628 -0.0878,0.0878 -0.1502,-0.0682 -0.13873,-0.34669 z m -76.337042,-2.11314 c 0.01268,-0.30771 0.07527,-0.3703 0.159584,-0.15958 0.0763,0.19067 0.06692,0.4185 -0.02084,0.50627 -0.08777,0.0878 -0.150202,-0.0682 -0.138732,-0.34669 z M 119.58,106.30867 c 0.0127,-0.30771 0.0753,-0.3703 0.15959,-0.15958 0.0763,0.19067 0.0669,0.41849 -0.0208,0.50627 -0.0878,0.0878 -0.1502,-0.0682 -0.13874,-0.34669 z m 17.16923,-0.52828 c 0.0127,-0.30771 0.0753,-0.3703 0.15959,-0.15959 0.0763,0.19068 0.0669,0.4185 -0.0208,0.50628 -0.0878,0.0878 -0.1502,-0.0682 -0.13874,-0.34669 z m -17.43337,-0.79243 c 0.0127,-0.30771 0.0753,-0.3703 0.15959,-0.15958 0.0763,0.19067 0.0669,0.41849 -0.0208,0.50627 -0.0878,0.0878 -0.1502,-0.0682 -0.13873,-0.34669 z m 17.16923,-0.52828 c 0.0127,-0.30771 0.0753,-0.3703 0.15959,-0.15959 0.0763,0.19068 0.0669,0.4185 -0.0208,0.50628 -0.0878,0.0878 -0.15021,-0.0682 -0.13874,-0.34669 z m -76.337038,-2.11314 c 0.01268,-0.30771 0.07527,-0.3703 0.159584,-0.15958 0.0763,0.19067 0.06692,0.41849 -0.02084,0.50627 -0.08777,0.0878 -0.150202,-0.0682 -0.138733,-0.34669 z m 58.639528,-0.26414 c 0.0127,-0.30771 0.0753,-0.3703 0.15958,-0.15959 0.0763,0.19068 0.0669,0.4185 -0.0208,0.50628 -0.0878,0.0878 -0.1502,-0.0682 -0.13873,-0.34669 z m 17.16923,-0.52828 c 0.0127,-0.30772 0.0753,-0.3703 0.15958,-0.15959 0.0763,0.19068 0.0669,0.4185 -0.0208,0.50627 -0.0878,0.0878 -0.1502,-0.0682 -0.13873,-0.34668 z m -17.43337,-0.79243 c 0.0127,-0.30771 0.0753,-0.3703 0.15958,-0.15959 0.0763,0.19068 0.0669,0.4185 -0.0208,0.50628 -0.0878,0.0878 -0.1502,-0.0682 -0.13873,-0.34669 z m 16.90508,-2.113136 c 0.0127,-0.307712 0.0753,-0.3703 0.15959,-0.159586 0.0763,0.190676 0.0669,0.418498 -0.0208,0.506273 -0.0878,0.08777 -0.1502,-0.06824 -0.13874,-0.346687 z m -17.43337,-0.792426 c 0.0127,-0.307712 0.0753,-0.3703 0.15959,-0.159586 0.0763,0.190676 0.0669,0.418498 -0.0209,0.506273 -0.0878,0.08777 -0.1502,-0.06824 -0.13873,-0.346687 z m 17.16923,-0.528284 c 0.0127,-0.307712 0.0753,-0.3703 0.15959,-0.159586 0.0763,0.190676 0.0669,0.418498 -0.0208,0.506273 -0.0878,0.08777 -0.15021,-0.06824 -0.13874,-0.346687 z m -17.43337,-0.792426 c 0.0127,-0.307712 0.0753,-0.3703 0.15958,-0.159586 0.0763,0.190676 0.0669,0.418498 -0.0208,0.506273 -0.0878,0.08777 -0.1502,-0.06824 -0.13873,-0.346687 z m 16.90509,-2.113136 c 0.0127,-0.307712 0.0753,-0.3703 0.15958,-0.159586 0.0763,0.190676 0.0669,0.418498 -0.0208,0.506273 -0.0878,0.08777 -0.1502,-0.06824 -0.13873,-0.346687 z m -17.43337,-0.792426 c 0.0127,-0.307712 0.0753,-0.3703 0.15958,-0.159586 0.0763,0.190676 0.0669,0.418498 -0.0208,0.506273 -0.0878,0.08777 -0.1502,-0.06824 -0.13873,-0.346687 z m 17.16923,-0.528284 c 0.0127,-0.307712 0.0753,-0.3703 0.15958,-0.159586 0.0763,0.190676 0.0669,0.418498 -0.0208,0.506273 -0.0878,0.08777 -0.1502,-0.06824 -0.13873,-0.346687 z M 58.034916,90.988436 c 0.01268,-0.307712 0.07526,-0.3703 0.159584,-0.159586 0.0763,0.190676 0.06692,0.418498 -0.02084,0.506273 -0.08777,0.08777 -0.150202,-0.06824 -0.138733,-0.346687 z m -41.99858,-2.905562 c 0.01267,-0.307712 0.07527,-0.370301 0.159586,-0.159587 0.0763,0.190677 0.06692,0.418499 -0.02085,0.506274 -0.08777,0.08777 -0.150202,-0.06824 -0.138733,-0.346687 z M -1.6611786,85.705596 c 0.012674,-0.307712 0.075265,-0.370301 0.1595859,-0.159587 0.076303,0.190677 0.066919,0.418499 -0.020854,0.506273 -0.087772,0.08777 -0.150202,-0.06824 -0.1387319,-0.346686 z M 15.508052,85.177312 c 0.01267,-0.307712 0.07526,-0.370301 0.159586,-0.159587 0.0763,0.190677 0.06692,0.418499 -0.02085,0.506273 -0.08777,0.08777 -0.150202,-0.06824 -0.138733,-0.346686 z M -1.9253206,84.384886 c 0.012674,-0.307712 0.075265,-0.370301 0.1595859,-0.159587 0.076303,0.190677 0.066919,0.418499 -0.020854,0.506273 -0.087772,0.08777 -0.1502019,-0.06824 -0.1387319,-0.346686 z m -0.528284,-2.905562 c 0.012674,-0.307712 0.075265,-0.370301 0.1595858,-0.159587 0.076303,0.190676 0.066919,0.418499 -0.020854,0.506273 -0.087772,0.08777 -0.1502019,-0.06824 -0.1387318,-0.346686 z M 14.715626,80.95104 c 0.01267,-0.307712 0.07526,-0.370301 0.159586,-0.159587 0.0763,0.190676 0.06692,0.418499 -0.02085,0.506273 -0.08777,0.08777 -0.150202,-0.06824 -0.138733,-0.346686 z M -2.7177466,80.158614 c 0.012674,-0.307712 0.075265,-0.370301 0.1595858,-0.159587 0.076303,0.190676 0.066919,0.418499 -0.020854,0.506273 -0.087772,0.08777 -0.1502019,-0.06824 -0.1387318,-0.346686 z M 14.187342,78.045477 c 0.01267,-0.30771 0.07526,-0.370301 0.159586,-0.159586 0.0763,0.190678 0.06692,0.4185 -0.02085,0.506272 -0.08777,0.08777 -0.150202,-0.06824 -0.138733,-0.346686 z M -3.2460307,77.253051 c 0.012674,-0.30771 0.075265,-0.370301 0.1595859,-0.159586 0.076303,0.190678 0.066919,0.4185 -0.020854,0.506272 -0.087772,0.08777 -0.150202,-0.06824 -0.1387319,-0.346686 z M 13.9232,76.724767 c 0.01267,-0.30771 0.07526,-0.370301 0.159586,-0.159586 0.0763,0.190678 0.06692,0.4185 -0.02085,0.506272 -0.08777,0.08777 -0.150202,-0.06824 -0.138733,-0.346686 z M -3.5101727,75.932341 c 0.012674,-0.30771 0.075265,-0.370301 0.1595859,-0.159586 0.076303,0.190678 0.066919,0.4185 -0.020854,0.506272 -0.087772,0.08777 -0.150202,-0.06824 -0.1387319,-0.346686 z M 13.394916,73.819205 c 0.01267,-0.30771 0.07526,-0.370301 0.159586,-0.159586 0.0763,0.190678 0.06692,0.4185 -0.02085,0.506272 -0.08777,0.08777 -0.150202,-0.06824 -0.138733,-0.346686 z M -4.0384567,73.026779 c 0.012674,-0.307711 0.075265,-0.370301 0.1595859,-0.159586 0.076303,0.190678 0.066919,0.4185 -0.020854,0.506272 -0.087772,0.08777 -0.150202,-0.06824 -0.1387319,-0.346686 z M 13.130774,72.498495 c 0.01267,-0.307711 0.07526,-0.370301 0.159586,-0.159586 0.0763,0.190677 0.06692,0.4185 -0.02085,0.506272 -0.08777,0.08777 -0.150202,-0.06824 -0.138733,-0.346686 z M 12.60249,69.592933 c 0.01267,-0.307711 0.07526,-0.370301 0.159586,-0.159586 0.0763,0.190677 0.06692,0.4185 -0.02085,0.506272 -0.08777,0.08777 -0.150202,-0.06824 -0.138733,-0.346686 z M -4.8308827,68.800507 c 0.012674,-0.307711 0.075265,-0.370301 0.1595859,-0.159586 0.076303,0.190677 0.066919,0.4185 -0.020854,0.506272 -0.087772,0.08777 -0.150202,-0.06824 -0.1387319,-0.346686 z M 12.338348,68.272223 c 0.01267,-0.307711 0.07526,-0.370301 0.159586,-0.159586 0.0763,0.190677 0.06692,0.4185 -0.02085,0.506272 -0.08777,0.08777 -0.150202,-0.06824 -0.138733,-0.346686 z M -5.3591666,65.894945 c 0.012675,-0.307711 0.075265,-0.370301 0.1595858,-0.159586 0.076303,0.190677 0.066919,0.4185 -0.020853,0.506272 -0.087772,0.08777 -0.1502018,-0.06824 -0.1387328,-0.346686 z M 11.810064,65.366661 c 0.01267,-0.307711 0.07526,-0.370301 0.159586,-0.159586 0.0763,0.190677 0.06692,0.4185 -0.02085,0.506272 -0.08777,0.08777 -0.150202,-0.06824 -0.138733,-0.346686 z M -5.6233086,64.574235 c 0.012675,-0.307711 0.075265,-0.370301 0.1595858,-0.159586 0.076303,0.190677 0.066919,0.4185 -0.020853,0.506272 -0.087772,0.08777 -0.1502018,-0.06824 -0.1387328,-0.346686 z M 11.28178,62.461099 c 0.01267,-0.307711 0.07526,-0.370301 0.159586,-0.159586 0.0763,0.190677 0.06692,0.4185 -0.02085,0.506272 -0.08777,0.08777 -0.150202,-0.06824 -0.138733,-0.346686 z M -6.1515926,61.668673 c 0.012675,-0.307711 0.075265,-0.370301 0.1595857,-0.159586 0.076303,0.190677 0.066919,0.4185 -0.020853,0.506272 -0.087772,0.08777 -0.1502018,-0.06824 -0.1387327,-0.346686 z M 11.017638,61.140389 c 0.01267,-0.307711 0.07526,-0.370301 0.159586,-0.159586 0.0763,0.190677 0.06692,0.4185 -0.02085,0.506272 -0.08777,0.08777 -0.150202,-0.06824 -0.138733,-0.346686 z M -6.4157346,60.347962 c 0.012675,-0.30771 0.075265,-0.3703 0.1595857,-0.159585 0.076303,0.190677 0.066919,0.4185 -0.020853,0.506272 -0.087772,0.08777 -0.1502018,-0.06824 -0.1387327,-0.346687 z M 10.489354,58.234826 c 0.01267,-0.30771 0.07526,-0.3703 0.159586,-0.159585 0.0763,0.190677 0.06692,0.4185 -0.02085,0.506272 -0.08777,0.08777 -0.150202,-0.06824 -0.138733,-0.346687 z M -6.9440187,57.4424 c 0.012675,-0.30771 0.075265,-0.3703 0.1595858,-0.159585 0.076303,0.190677 0.066919,0.4185 -0.020853,0.506272 -0.087772,0.08777 -0.1502018,-0.06824 -0.1387328,-0.346687 z M 10.225212,56.914116 c 0.01267,-0.30771 0.07526,-0.3703 0.159586,-0.159585 0.0763,0.190677 0.06692,0.418499 -0.02085,0.506272 -0.08777,0.08777 -0.150202,-0.06824 -0.138733,-0.346687 z M -3.052143,54.229067 c 2.36991798,-0.04382 6.1735629,-0.04373 8.4525442,1.92e-4 2.2789813,0.04393 0.3399574,0.07978 -4.308942,0.07968 -4.6488993,-1.05e-4 -6.5135204,-0.03605 -4.1436022,-0.07987 z"
       id="path34"
       inkscape:connector-curvature="0" />
    <path
       style="fill:#ee6121;stroke-width:0.26414201"
       d="m 79.144892,149.12562 c -4.892621,-0.97611 -9.442446,-4.17935 -11.18894,-7.87742 -0.494967,-1.04806 -1.744858,-7.25796 -5.30012,-26.3329 -2.558823,-13.72878 -4.708086,-25.139717 -4.776139,-25.357634 -0.108581,-0.347685 0.943494,-0.387269 8.589932,-0.323199 8.131842,0.06814 8.713667,0.104225 8.713667,0.540435 0,0.957353 6.091694,33.219198 6.377149,33.773628 0.700708,1.36096 2.637276,1.37732 3.485684,0.0294 0.209914,-0.33349 0.836187,-3.08995 1.391717,-6.12547 0.555527,-3.03551 1.171174,-5.68023 1.368097,-5.87715 0.285033,-0.28504 1.938797,-0.35805 8.109764,-0.35805 4.263447,0 7.939737,0.0722 8.169537,0.16033 0.2298,0.0882 0.4184,0.35563 0.41912,0.59432 7.9e-4,0.23869 -1.13606,6.55548 -2.52618,14.0373 -2.903058,15.6247 -2.987808,15.89803 -5.777795,18.63362 -2.086825,2.04615 -5.614507,3.86814 -8.657318,4.47139 -2.424202,0.4806 -6.021737,0.48546 -8.398175,0.0114 z M 31.864003,111.29396 c 7.657709,-0.18627 14.203066,-0.1912 14.091139,-0.0106 -0.06754,0.10895 -3.949137,0.17254 -8.625782,0.1413 -4.676645,-0.0312 -7.136055,-0.09 -5.465357,-0.13069 z M 175.33482,90.08595 c 0,-0.363195 0.0599,-0.511775 0.13323,-0.330177 0.0733,0.181597 0.0733,0.478757 0,0.660355 -0.0733,0.181597 -0.13323,0.03302 -0.13323,-0.330178 z m 17.03782,-0.116901 c -0.13362,-0.348216 -1.29308,-0.413982 -8.41914,-0.477543 l -8.26417,-0.07371 8.22209,-0.06213 c 7.09566,-0.05362 8.26787,-0.007 8.55622,0.340463 0.18377,0.221428 0.27244,0.46428 0.19705,0.539674 -0.0754,0.07539 -0.20682,-0.04464 -0.29205,-0.266746 z M 55.215475,78.397666 l -0.503188,-0.594319 0.594319,0.503187 c 0.558513,0.472872 0.714568,0.685452 0.503188,0.685452 -0.05012,0 -0.317567,-0.267444 -0.594319,-0.59432 z M 67.753622,58.719087 c -0.328558,-0.418944 -0.319215,-0.428287 0.09973,-0.09973 0.254236,0.199386 0.462248,0.407397 0.462248,0.462248 0,0.217398 -0.216911,0.07747 -0.561978,-0.36252 z M 40.71276,57.860625 c 0.262951,-0.290556 0.537524,-0.528284 0.610163,-0.528284 0.07264,0 -0.08307,0.237728 -0.346021,0.528284 -0.26295,0.290556 -0.537523,0.528284 -0.610162,0.528284 -0.07264,0 0.08307,-0.237728 0.34602,-0.528284 z m 25.191868,-0.990532 c -0.328558,-0.418944 -0.319215,-0.428287 0.09973,-0.09973 0.439994,0.345067 0.579918,0.561977 0.362519,0.561977 -0.05485,0 -0.262861,-0.208012 -0.462249,-0.462248 z"
       id="path32"
       inkscape:connector-curvature="0" />
    <path
       style="fill:#d91d4b;stroke-width:0.26414201"
       d="m 186.42913,147.85165 c -0.29202,-0.35186 -10.87187,-56.442578 -10.87187,-57.638901 v -0.655083 h 8.32613 8.32614 l 0.24772,0.59432 c 0.13625,0.326875 0.66532,2.852733 1.1757,5.613017 1.40181,7.581377 7.69559,41.314417 8.75943,46.948267 0.51405,2.72233 0.86035,5.06989 0.76955,5.21681 -0.268,0.43362 -16.37046,0.35816 -16.7328,-0.0784 z M 28.958441,111.05497 c 0,-0.0893 2.023925,-11.03898 4.497609,-24.332639 3.603222,-19.363809 4.636641,-24.46604 5.196746,-25.657535 1.059667,-2.254192 3.672335,-4.722717 6.418307,-6.064203 2.959574,-1.445836 4.834153,-1.920994 8.188403,-2.075554 2.217688,-0.102188 3.236883,-0.01788 5.085845,0.420702 5.519876,1.309342 9.808676,4.512009 11.300762,8.438858 0.395523,1.040931 5.273037,26.234522 5.273037,27.236566 0,0.428958 -16.883751,0.371695 -17.047696,-0.05782 -0.06932,-0.181598 -0.535429,-2.520245 -1.035806,-5.196994 -0.991346,-5.303171 -1.245422,-5.845062 -2.76077,-5.888147 -0.576163,-0.01638 -1.055599,0.182304 -1.473855,0.610786 -0.551127,0.564602 -0.947538,2.393524 -3.572753,16.483585 -1.624064,8.716685 -3.007534,15.937675 -3.07438,16.046625 -0.144644,0.23577 -16.995449,0.27123 -16.995449,0.0358 z"
       id="path30"
       inkscape:connector-curvature="0" />
    <path
       style="fill:#413e4d;stroke-width:0.26414201"
       d="m 239.01011,151.21985 c -1.05866,-0.74151 -0.61629,-2.23023 0.6627,-2.23023 0.3387,0 0.69172,-0.1978 0.78449,-0.43955 0.0928,-0.24175 -0.40128,-2.16311 -1.09788,-4.26968 -1.33653,-4.04179 -1.46969,-4.81762 -0.93704,-5.45943 0.42307,-0.50977 1.95192,-0.51415 2.37299,-0.007 0.17812,0.21462 0.63908,1.49241 1.02435,2.83952 0.38528,1.34712 0.8187,2.42903 0.96316,2.40426 0.14446,-0.0248 0.51038,-1.0358 0.81316,-2.24673 0.74982,-2.99886 0.98596,-3.38729 2.05927,-3.38729 1.21455,0 1.8572,0.75309 1.60859,1.88502 -0.40182,1.82945 -3.24891,9.51432 -3.72135,10.04465 -1.07327,1.20479 -3.41117,1.65161 -4.53244,0.86624 z m -101.22516,-2.0958 c -3.615,-0.81093 -6.42471,-2.30045 -8.79022,-4.65998 -2.72662,-2.71972 -2.50545,-1.86583 -7.6843,-29.66766 -2.54248,-13.64888 -4.56393,-24.911239 -4.49211,-25.027451 0.0718,-0.11621 3.87073,-0.211293 8.44201,-0.211293 h 8.31142 l 0.21703,0.59432 c 0.11937,0.326875 1.55622,7.845017 3.19301,16.706984 1.6368,8.86196 3.14714,16.38552 3.35633,16.71901 0.85459,1.36243 2.47669,1.36243 3.35817,0 0.21576,-0.33349 0.81902,-2.9242 1.34057,-5.75712 0.52156,-2.83292 1.06195,-5.41821 1.20087,-5.74509 l 0.25258,-0.59432 h 8.32613 8.32614 v 0.676 c 0,0.3718 -1.13365,6.74777 -2.51922,14.16882 -2.86386,15.33872 -2.89596,15.44208 -5.64912,18.18917 -2.0147,2.01026 -3.80006,3.09275 -6.75568,4.09609 -1.7544,0.59556 -2.67367,0.73264 -5.41491,0.8075 -2.23653,0.0611 -3.85571,-0.0341 -5.0187,-0.29498 z m 74.40597,-1.38628 c -0.57844,-0.57844 -2.55935,-6.61322 -2.55935,-7.79698 0,-1.11174 0.40049,-1.51685 1.49953,-1.51685 1.09887,0 1.50428,0.59836 2.05811,3.03763 0.42669,1.87931 0.78955,2.74063 1.04638,2.4838 0.0783,-0.0783 0.33349,-1.08518 0.56715,-2.23756 0.5778,-2.84967 0.88596,-3.28387 2.33063,-3.28387 0.63261,0 1.28027,0.15671 1.43923,0.34825 0.15897,0.19155 0.526,1.34041 0.81562,2.55304 0.50988,2.13476 0.87669,2.92893 1.14113,2.4706 0.0702,-0.12162 0.33468,-1.17203 0.58781,-2.33426 0.61946,-2.8442 0.74313,-3.03763 1.94212,-3.03763 1.98509,0 2.0726,0.88995 0.54541,5.54659 -0.62555,1.90741 -1.30731,3.49741 -1.61411,3.76441 -0.65772,0.57241 -2.2684,0.6022 -3.04769,0.0564 -0.31871,-0.22324 -0.70317,-0.90671 -0.85436,-1.51882 -0.61002,-2.46978 -0.83266,-3.10304 -1.04484,-2.9719 -0.12222,0.0755 -0.43054,0.98741 -0.68515,2.02638 -0.25462,1.03897 -0.6837,2.1098 -0.95353,2.37963 -0.64869,0.64869 -2.57787,0.6674 -3.21409,0.0312 z m 15.67013,-0.003 c -1.57273,-0.78879 -2.05597,-2.56983 -1.04573,-3.85414 0.60224,-0.76563 2.66518,-1.49432 4.23044,-1.49432 0.5954,0 1.22383,-0.20711 1.60294,-0.52829 l 0.62358,-0.52828 -0.62358,-0.52828 c -0.8154,-0.69079 -1.28277,-0.66662 -2.80986,0.14534 -1.39462,0.74152 -2.1719,0.75722 -2.6135,0.0528 -0.34932,-0.55726 -0.0582,-1.11006 1.00156,-1.90177 0.91782,-0.68568 4.7434,-0.90466 6.34087,-0.36298 1.77201,0.60088 1.99022,1.16272 2.02743,5.22026 0.0287,3.13104 -0.0233,3.59068 -0.44099,3.8961 -0.7102,0.5193 -1.86954,0.41852 -2.45857,-0.21374 l -0.52173,-0.56001 -1.15681,0.56001 c -1.40546,0.68037 -2.92274,0.71591 -4.15605,0.0973 z m 4.58319,-1.93379 c 0.75115,-0.59086 0.92295,-1.49516 0.32744,-1.72367 -0.6013,-0.23075 -2.46852,0.39089 -2.6581,0.88494 -0.11525,0.30032 0.0213,0.61638 0.39831,0.92163 0.74101,0.60003 1.08278,0.58537 1.93235,-0.0829 z m 16.82781,1.70048 c -0.49118,-0.62444 -0.54706,-1.05209 -0.54357,-4.16024 0.005,-4.22147 0.20698,-4.78497 1.71728,-4.78497 0.87973,0 1.10032,0.115 1.39335,0.72639 0.44172,0.9216 0.61152,0.91134 1.34544,-0.0813 0.78176,-1.05739 2.05118,-1.01862 2.66363,0.0813 0.36031,0.6471 0.36121,0.80298 0.008,1.428 -0.23186,0.41057 -0.82725,0.8501 -1.43527,1.05954 -1.79081,0.61688 -1.99858,0.95979 -1.99858,3.29848 0,1.72001 -0.0898,2.16198 -0.52828,2.60048 -0.76008,0.76007 -1.95245,0.68382 -2.62225,-0.1677 z m 9.854,0.31642 c -1.7885,-0.7784 -2.25157,-2.79228 -0.94293,-4.10092 0.52002,-0.52002 1.21112,-0.83387 2.31124,-1.04962 0.86317,-0.16928 1.98543,-0.39091 2.4939,-0.49251 0.7579,-0.15144 0.9245,-0.30259 0.9245,-0.83873 0,-1.11584 -1.14112,-1.29962 -2.78237,-0.44811 -0.74831,0.38824 -1.57278,0.70589 -1.83214,0.70589 -0.7042,0 -1.14889,-0.68452 -0.95266,-1.46644 0.54945,-2.18914 7.95601,-2.31776 9.11177,-0.15823 0.16416,0.30675 0.28546,2.05195 0.28546,4.10736 0,3.26316 -0.0444,3.59777 -0.51093,3.84743 -0.81626,0.43685 -1.82147,0.31831 -2.42586,-0.28608 l -0.5595,-0.55951 -1.12031,0.55951 c -1.27454,0.63654 -2.79404,0.70489 -4.00017,0.17996 z m 4.53458,-2.11779 c 0.72172,-0.72172 0.84003,-1.40781 0.27981,-1.62278 -0.45837,-0.17589 -2.45766,0.34417 -2.67499,0.69582 -0.25466,0.41204 0.12018,1.266 0.61262,1.39562 0.89359,0.23522 1.14469,0.1692 1.78256,-0.46866 z m 6.76965,1.62186 c -0.72053,-0.76697 -0.72875,-1.49838 -0.0269,-2.39067 1.06312,-1.35153 3.41467,-0.532 3.41467,1.19003 0,1.58379 -2.27157,2.38882 -3.3878,1.20064 z M -0.60789149,89.182627 C -0.77908193,88.976356 -2.2712156,81.577078 -3.9237446,72.739786 -5.5762735,63.902496 -7.0427907,56.166815 -7.1826717,55.549383 l -0.2543291,-1.122604 h 8.5648276 c 6.6099192,0 8.5930087,0.07536 8.6882934,0.330178 0.067906,0.181597 1.5417308,7.935221 3.2751658,17.230274 2.263825,12.139121 3.073337,16.994518 2.873534,17.235265 -0.431706,0.520175 -16.1392777,0.482387 -16.57271149,-0.03987 z"
       id="path28"
       inkscape:connector-curvature="0" />
  </g>
</svg>
