<?xml version='1.0' encoding='UTF-8' standalone='no'?>
<!DOCTYPE svg PUBLIC '-//W3C//DTD SVG 1.1//EN' 'http://www.w3.org/Graphics/SVG/1.1/DTD/svg11.dtd'>
<!-- Animated using aniGen version 0.8.1 Quality of Life - http://anigen.org -->
<svg xmlns:dc="http://purl.org/dc/elements/1.1/" xmlns:cc="http://creativecommons.org/ns#" xmlns:rdf="http://www.w3.org/1999/02/22-rdf-syntax-ns#" xmlns:svg="http://www.w3.org/2000/svg" xmlns="http://www.w3.org/2000/svg" xmlns:sodipodi="http://sodipodi.sourceforge.net/DTD/sodipodi-0.dtd" xmlns:inkscape="http://www.inkscape.org/namespaces/inkscape" version="1.1" id="Capa_1" x="0px" y="0px" viewBox="0 0 496 536.13115" xml:space="preserve" width="511.9938px" height="553.41901px" sodipodi:docname="bridge_gap2.svg" inkscape:version="0.92.2 2405546, 2018-03-11" preserveAspectRatio="xMidYMid" xmlns:xlink="http://www.w3.org/1999/xlink" xmlns:anigen="http://www.anigen.org/namespace" anigen:version="0.8.1"><metadata id="metadata73"><rdf:rdf id="rdf:rdf592"><cc:work rdf:about="" id="cc:work6218"><dc:format id="dc:format6987">image/svg+xml</dc:format><dc:type rdf:resource="http://purl.org/dc/dcmitype/StillImage" id="dc:type4280"></dc:type><dc:title id="dc:title2177"></dc:title></cc:work></rdf:rdf></metadata><defs id="defs71">
	

		
	</defs><sodipodi:namedview pagecolor="#ffffff" bordercolor="#666666" borderopacity="1" objecttolerance="10" gridtolerance="10" guidetolerance="10" inkscape:pageopacity="0" inkscape:pageshadow="2" inkscape:window-width="1364" inkscape:window-height="732" id="namedview69" showgrid="false" inkscape:snap-global="false" fit-margin-top="0" fit-margin-left="0" fit-margin-right="0" fit-margin-bottom="0" inkscape:zoom="0.4609375" inkscape:cx="1018.0439" inkscape:cy="-145.19576999999998" inkscape:window-x="0" inkscape:window-y="35" inkscape:window-maximized="0" inkscape:current-layer="Capa_1"></sodipodi:namedview>






<g id="g38" transform="translate(685.15783,-296.34237)">
</g>
<g id="g40" transform="translate(685.15783,-296.34237)">
</g>
<g id="g42" transform="translate(685.15783,-296.34237)">
</g>
<g id="g44" transform="translate(685.15783,-296.34237)">
</g>
<g id="g46" transform="translate(685.15783,-296.34237)">
</g>
<g id="g48" transform="translate(685.15783,-296.34237)">
</g>
<g id="g50" transform="translate(685.15783,-296.34237)">
</g>
<g id="g52" transform="translate(685.15783,-296.34237)">
</g>
<g id="g54" transform="translate(685.15783,-296.34237)">
</g>
<g id="g56" transform="translate(685.15783,-296.34237)">
</g>
<g id="g58" transform="translate(685.15783,-296.34237)">
</g>
<g id="g60" transform="translate(685.15783,-296.34237)">
</g>
<g id="g62" transform="translate(685.15783,-296.34237)">
</g>
<g id="g64" transform="translate(685.15783,-296.34237)">
</g>
<g id="g66" transform="translate(685.15783,-296.34237)">
</g>
<path style="fill:#18063d" inkscape:connector-curvature="0" id="path4596" d="M 199.39283 311.08318 L 177.16083 295.97918000000004 L 133.85683 339.27518000000003 L 151.40083 365.09118 C 150.40083 367.27518000000003 149.48083000000003 369.48318 148.64883 371.68318 L 118.01683 377.51518 L 118.01683 438.74717999999996 L 148.64883 444.57917999999995 C 149.48083 446.77917999999994 150.40083 448.98717999999997 151.40083 451.17117999999994 L 133.85683 476.9871799999999 L 177.16083 520.2831799999999 L 202.97683 502.7471799999999 C 205.16883 503.7551799999999 207.36883 504.6751799999999 209.56083 505.5071799999999 L 215.40083 536.1311799999999 L 276.63283 536.1311799999999 L 282.47283 505.50717999999983 C 284.66483 504.67517999999984 286.86483 503.7551799999998 289.05683 502.74717999999984 L 314.87282999999996 520.2831799999999 L 358.17683 476.9871799999999 L 340.63283 451.17117999999994 C 341.63283 448.9871799999999 342.55283000000003 446.77917999999994 343.38483 444.57917999999995 L 374.01683 438.74717999999996 L 374.01683 377.51518 L 343.38483 371.68318 C 342.55283000000003 369.48318 341.63283 367.27518 340.63283 365.09118 L 358.17683 339.27518000000003 C 329.96519 311.96046 325.91841 288.47502000000003 292.64083 311.08318 L 284.04087 284.81168 L 213.50981 285.20575 Z M 312.92083 316.65118 L 337.50483 341.22718000000003 L 322.12883000000005 363.84318 L 324.29683000000006 368.05918 C 326.51283000000006 372.39518000000004 328.35283000000004 376.78718000000003 329.7528300000001 381.12318000000005 L 331.2088300000001 385.63518000000005 L 358.0168300000001 390.74718000000007 L 358.0168300000001 425.5151800000001 L 331.2008300000001 430.6271800000001 L 329.7448300000001 435.1391800000001 C 328.3448300000001 439.47518000000014 326.51283000000006 443.86718000000013 324.2888300000001 448.20318000000015 L 322.12083000000007 452.41918000000015 L 337.49683000000005 475.03518000000014 L 312.91283000000004 499.61118000000016 L 290.29683000000006 484.24318000000017 L 286.07283000000007 486.4111800000002 C 281.7048300000001 488.6431800000002 277.3128300000001 490.4831800000002 273.0168300000001 491.8671800000002 L 268.5048300000001 493.3311800000002 L 263.4008300000001 520.1311800000002 L 228.6328300000001 520.1311800000002 L 223.5208300000001 493.3231800000002 L 219.0088300000001 491.8591800000002 C 214.7128300000001 490.4751800000002 210.32083000000011 488.6431800000002 205.9528300000001 486.4031800000002 L 201.7288300000001 484.2351800000002 L 179.1128300000001 499.6031800000002 L 154.52883000000008 475.02718000000016 L 169.9048300000001 452.4111800000002 L 167.73683000000008 448.19518000000016 C 165.52083000000007 443.85918000000015 163.68083000000007 439.46718000000016 162.2808300000001 435.13118000000014 L 160.8248300000001 430.61918000000014 L 134.0168300000001 425.51518000000016 L 134.0168300000001 390.7471800000002 L 160.83283000000011 385.63518000000016 L 162.2888300000001 381.12318000000016 C 163.6888300000001 376.78718000000015 165.5208300000001 372.39518000000015 167.7448300000001 368.05918000000014 L 169.9128300000001 363.84318000000013 L 154.5368300000001 341.22718000000015 L 179.1208300000001 316.6511800000001 L 201.7448300000001 332.0191800000001 L 205.96883000000008 329.8511800000001 C 208.6968300000001 328.4431800000001 211.4648300000001 327.2431800000001 214.22483000000008 326.1631800000001 L 223.0095100000001 297.3834900000001 L 271.6857000000001 296.1507300000001 L 277.82483000000013 326.1631800000001 C 280.56883000000016 327.2431800000001 283.32883000000015 328.4431800000001 286.08883000000014 329.8511800000001 L 290.30483000000015 332.0191800000001 Z" sodipodi:nodetypes="ccccccccccccccccccccccccccccccccccccccccccccccccccccccccccccccccccccccccccccc"><animateTransform attributeName="transform" attributeType="auto" type="rotate" values="0 245.70491694915268 410.95848186440674;360 245.70491694915268 410.95848186440674" calcMode="spline" keyTimes="0;1" keySplines="0 0 1 1" dur="5s" begin="0s" repeatCount="indefinite" additive="sum" accumulate="none" fill="freeze" id="animateTransform3405"></animateTransform></path><path style="fill:#18063d" inkscape:connector-curvature="0" id="path4598" d="m 64,92.462195 -45.704,-17.136 c -1.376,-0.52 -2.296,-1.848 -2.296,-3.32 0,-1.472 0.92,-2.8 2.304,-3.32 L 64,51.550195 Z M 96,240.0062 v 80 H 16 v -80 z M 384,96.006195 h -32.4 c -0.408,-5.44 -1.24,-10.776 -2.472,-16 H 384 Z m 48,-48 h 24 c 13.232,0 24,10.768 24,24 0,13.232 -10.768,24 -24,24 h -24 z m -32,0 h 16 v 48 h -16 z m -16,0 v 16 h -39.96 c -2.32,-5.568 -5.2,-10.896 -8.48,-16 z m -239.568,48 H 80 v -16 h 66.968 c -1.28,5.208 -2.104,10.552 -2.536,16 z m 7.568,-31.208 v -0.792 H 80 v -16 h 80.944 c -3.472,5.304 -6.472,10.912 -8.944,16.792 z M 216.208,286.0382 c 9.024,6.272 19.976,9.968 31.792,9.968 11.816,0 22.768,-3.696 31.808,-9.968 7.25746,-4.56291 10.96239,-9.83632 14.816,-15.08 4.504,-6.76 7.52,-14.56 8.728,-22.944 H 320 v -16 h -16 v -16 h 16 v -16 h -16 v -8.464 c 13.168,-8.44 23.92,-19.744 32,-32.68 v 1.136 h 96 v 64 h -48 v 112 h 112 v -112 h -48 v -80 H 343.808 c 4.24,-10.096 6.808,-20.888 7.68,-32 H 456 c 22.056,0 40,-17.944005 40,-40.000005 0,-22.056 -17.944,-40 -40,-40 H 322.88 c -0.936,-0.968 -1.784,-1.992 -2.76,-2.936 C 299.568,9.2861955 272.504,-1.0098045 243.944,0.07819549 216.72,1.1261955 191.832,13.294195 173.696,32.006195 H 70.552 l -57.864,21.696 c -7.592,2.84 -12.688,10.2 -12.688,18.304 0,8.104 5.096,15.464 12.68,18.304 L 70.552,112.0062 h 73.92 c 0.864,11.144 3.512,21.904 7.744,32 H 48 v 80 H 0 v 112 h 112 v -112 H 64 v -64 h 96 v -1.072 c 8.064,12.888 18.8,24.16 32,32.616 v 8.456 h -16 v 16 h 16 v 16 h -16 v 16 h 16.64 c 1.208,8.384 4.232,16.184 8.736,22.952 M 288,216.0062 v 16 h -80 v -16 z m -64,-96 h -16 c -8.824,0 -16,-7.176 -16,-16 0,-8.824005 7.176,-16.000005 16,-16.000005 8.824,0 16,7.176 16,16.000005 z m 16,80 v -64 h 16 v 64 z m 47.192,48 c -3.72,18.232 -19.88,32 -39.192,32 -19.312,0 -35.472,-13.768 -39.192,-32 z m 4.8,-67.872 -3.992,2.312 v 17.56 h -16 v -64 h 16 c 17.648,0 32,-14.352 32,-32 0,-17.648005 -14.352,-32.000005 -32,-32.000005 -17.648,0 -32,14.352 -32,32.000005 v 16 h -16 v -16 c 0,-17.648005 -14.352,-32.000005 -32,-32.000005 -17.648,0 -32,14.352 -32,32.000005 0,17.648 14.352,32 32,32 h 16 v 64 h -16 v -17.56 l -3.992,-2.312 c -27.864,-16.144 -44.72,-46.104 -43.984,-78.192 1.048,-45.608005 38.96,-84.128005 84.52,-85.864005 1.168,-0.056 2.32,-0.072 3.48,-0.072 22.896,0 44.448,8.664 61,24.592 17.392,16.744 26.976,39.264 26.976,63.408005 0,31.232 -16.864,60.4 -44.008,76.128 z M 272,120.0062 v -16 c 0,-8.824005 7.176,-16.000005 16,-16.000005 8.824,0 16,7.176 16,16.000005 0,8.824 -7.176,16 -16,16 z m 208,120 v 80 h -80 v -80 z" sodipodi:nodetypes="ccsccccccccccccccsssccccccccccccccccccccccccscccccccccccccccccccccccsssccccccsccccccccccccccccccccccccccccccsssscccccccscccccccssssccsssscccccccscsccsssscccccc"></path><g id="g4604" transform="translate(-2.10472,39.932875)">
	<g id="g4602">
		<path id="path4600" d="m 248.003,312.006 c -30.88,0 -56,25.128 -56,56 0,30.872 25.12,56 56,56 30.88,0 56,-25.128 56,-56 0,-30.872 -25.12,-56 -56,-56 z m 0,96 c -22.056,0 -40,-17.944 -40,-40 0,-22.056 17.944,-40 40,-40 22.056,0 40,17.944 40,40 0,22.056 -17.944,40 -40,40 z" inkscape:connector-curvature="0" style="fill:#18063d"></path>
	</g>
</g><g id="g4610" transform="translate(-0.003,-2.1015245)">
	<g id="g4608">
		<rect id="rect4606" height="16" width="48" y="256.00601" x="32.002998" style="fill:#18063d"></rect>
	</g>
</g><g id="g4616" transform="translate(-0.003,-2.1015245)">
	<g id="g4614">
		<rect id="rect4612" height="16" width="48" y="288.00601" x="32.002998" style="fill:#18063d"></rect>
	</g>
</g><g id="g4622" transform="translate(-0.003,-2.1015245)">
	<g id="g4620">
		<rect id="rect4618" height="16" width="48" y="256.00601" x="416.00299" style="fill:#18063d"></rect>
	</g>
</g><g id="g4628" transform="translate(-0.003,-2.1015245)">
	<g id="g4626">
		<rect id="rect4624" height="16" width="48" y="288.00601" x="416.00299" style="fill:#18063d"></rect>
	</g>
</g></svg>