<?xml version="1.0" encoding="iso-8859-1"?>
<!-- Generator: Adobe Illustrator 19.0.0, SVG Export Plug-In . SVG Version: 6.00 Build 0)  -->
<svg xmlns="http://www.w3.org/2000/svg" xmlns:xlink="http://www.w3.org/1999/xlink" version="1.1" id="Capa_1" x="0px" y="0px" viewBox="0 0 496.006 496.006" style="enable-background:new 0 0 496.006 496.006;" xml:space="preserve" width="512px" height="512px">
<g>
	<g>
		<path d="M248.003,312.006c-30.88,0-56,25.128-56,56s25.12,56,56,56s56-25.128,56-56S278.883,312.006,248.003,312.006z     M248.003,408.006c-22.056,0-40-17.944-40-40c0-22.056,17.944-40,40-40c22.056,0,40,17.944,40,40    C288.003,390.062,270.059,408.006,248.003,408.006z" fill="#18063d"/>
	</g>
</g>
<g>
	<g>
		<rect x="32.003" y="256.006" width="48" height="16" fill="#18063d"/>
	</g>
</g>
<g>
	<g>
		<rect x="32.003" y="288.006" width="48" height="16" fill="#18063d"/>
	</g>
</g>
<g>
	<g>
		<rect x="416.003" y="256.006" width="48" height="16" fill="#18063d"/>
	</g>
</g>
<g>
	<g>
		<rect x="416.003" y="288.006" width="48" height="16" fill="#18063d"/>
	</g>
</g>
<g>
	<g>
		<path d="M448.003,144.006H343.811c4.24-10.096,6.808-20.888,7.68-32h104.512c22.056,0,40-17.944,40-40c0-22.056-17.944-40-40-40    h-133.12c-0.936-0.968-1.784-1.992-2.76-2.936C299.571,9.286,272.507-1.01,243.947,0.078    c-27.224,1.048-52.112,13.216-70.248,31.928H70.555L12.691,53.702c-7.592,2.84-12.688,10.2-12.688,18.304    S5.099,87.47,12.683,90.31l57.872,21.696h73.92c0.864,11.144,3.512,21.904,7.744,32H48.003v80h-48v112h112v-112h-48v-64h96v-1.072    c8.064,12.888,18.8,24.16,32,32.616v8.456h-16v16h16v16h-16v16h16.64c1.208,8.384,4.232,16.184,8.736,22.952l-22.232-15.104    l-43.304,43.296l17.544,25.816c-1,2.184-1.92,4.392-2.752,6.592l-30.632,5.832v61.232l30.632,5.832    c0.832,2.2,1.752,4.408,2.752,6.592l-17.544,25.816l43.304,43.296l25.816-17.536c2.192,1.008,4.392,1.928,6.584,2.76l5.84,30.624    h61.232l5.84-30.624c2.192-0.832,4.392-1.752,6.584-2.76l25.816,17.536l43.304-43.296l-17.544-25.816    c1-2.184,1.92-4.392,2.752-6.592l30.632-5.832V337.39l-30.632-5.832c-0.832-2.2-1.752-4.408-2.752-6.592l17.544-25.816    l-43.304-43.296l-22.232,15.104c4.504-6.76,7.52-14.56,8.728-22.944h16.648v-16h-16v-16h16v-16h-16v-8.464    c13.168-8.44,23.92-19.744,32-32.68v1.136h96v64h-48v112h112v-112h-48V144.006z M64.003,92.462L18.299,75.326    c-1.376-0.52-2.296-1.848-2.296-3.32s0.92-2.8,2.304-3.32L64.003,51.55V92.462z M96.003,240.006v80h-80v-80H96.003z     M384.003,96.006h-32.4c-0.408-5.44-1.24-10.776-2.472-16h34.872V96.006z M432.003,48.006h24c13.232,0,24,10.768,24,24    s-10.768,24-24,24h-24V48.006z M400.003,48.006h16v48h-16V48.006z M384.003,48.006v16h-39.96c-2.32-5.568-5.2-10.896-8.48-16    H384.003z M144.435,96.006H80.003v-16h66.968C145.691,85.214,144.867,90.558,144.435,96.006z M152.003,64.798v-0.792h-72v-16    h80.944C157.475,53.31,154.475,58.918,152.003,64.798z M314.907,276.526l24.584,24.576l-15.376,22.616l2.168,4.216    c2.216,4.336,4.056,8.728,5.456,13.064l1.456,4.512l26.808,5.112v34.768l-26.816,5.112l-1.456,4.512    c-1.4,4.336-3.232,8.728-5.456,13.064l-2.168,4.216l15.376,22.616l-24.584,24.576l-22.616-15.368l-4.224,2.168    c-4.368,2.232-8.76,4.072-13.056,5.456l-4.512,1.464l-5.104,26.8h-34.768l-5.112-26.808l-4.512-1.464    c-4.296-1.384-8.688-3.216-13.056-5.456l-4.224-2.168l-22.616,15.368l-24.584-24.576l15.376-22.616l-2.168-4.216    c-2.216-4.336-4.056-8.728-5.456-13.064l-1.456-4.512l-26.808-5.104v-34.768l26.816-5.112l1.456-4.512    c1.4-4.336,3.232-8.728,5.456-13.064l2.168-4.216l-15.376-22.616l24.584-24.576l22.624,15.368l4.224-2.168    c2.728-1.408,5.496-2.608,8.256-3.688c9.024,6.272,19.976,9.968,31.792,9.968s22.768-3.696,31.808-9.968    c2.744,1.08,5.504,2.28,8.264,3.688l4.216,2.168L314.907,276.526z M288.003,216.006v16h-80v-16H288.003z M224.003,120.006h-16    c-8.824,0-16-7.176-16-16s7.176-16,16-16c8.824,0,16,7.176,16,16V120.006z M240.003,200.006v-64h16v64H240.003z M287.195,248.006    c-3.72,18.232-19.88,32-39.192,32s-35.472-13.768-39.192-32H287.195z M291.995,180.134l-3.992,2.312v17.56h-16v-64h16    c17.648,0,32-14.352,32-32s-14.352-32-32-32s-32,14.352-32,32v16h-16v-16c0-17.648-14.352-32-32-32s-32,14.352-32,32    s14.352,32,32,32h16v64h-16v-17.56l-3.992-2.312c-27.864-16.144-44.72-46.104-43.984-78.192    c1.048-45.608,38.96-84.128,84.52-85.864c1.168-0.056,2.32-0.072,3.48-0.072c22.896,0,44.448,8.664,61,24.592    c17.392,16.744,26.976,39.264,26.976,63.408C336.003,135.238,319.139,164.406,291.995,180.134z M272.003,120.006v-16    c0-8.824,7.176-16,16-16c8.824,0,16,7.176,16,16s-7.176,16-16,16H272.003z M480.003,240.006v80h-80v-80H480.003z" fill="#18063d"/>
	</g>
</g>
<g>
</g>
<g>
</g>
<g>
</g>
<g>
</g>
<g>
</g>
<g>
</g>
<g>
</g>
<g>
</g>
<g>
</g>
<g>
</g>
<g>
</g>
<g>
</g>
<g>
</g>
<g>
</g>
<g>
</g>
</svg>
