<?xml version="1.0" encoding="UTF-8" standalone="no"?>
<!-- Generator: Adobe Illustrator 19.0.0, SVG Export Plug-In . SVG Version: 6.00 Build 0)  -->

<svg
   xmlns:dc="http://purl.org/dc/elements/1.1/"
   xmlns:cc="http://creativecommons.org/ns#"
   xmlns:rdf="http://www.w3.org/1999/02/22-rdf-syntax-ns#"
   xmlns:svg="http://www.w3.org/2000/svg"
   xmlns="http://www.w3.org/2000/svg"
   xmlns:sodipodi="http://sodipodi.sourceforge.net/DTD/sodipodi-0.dtd"
   xmlns:inkscape="http://www.inkscape.org/namespaces/inkscape"
   version="1.1"
   id="Capa_1"
   x="0px"
   y="0px"
   viewBox="0 0 512 512"
   style="enable-background:new 0 0 512 512;"
   xml:space="preserve"
   width="512px"
   height="512px"
   sodipodi:docname="exclusive_prices.svg"
   inkscape:version="0.92.2 2405546, 2018-03-11"><metadata
   id="metadata55"><rdf:RDF><cc:Work
       rdf:about=""><dc:format>image/svg+xml</dc:format><dc:type
         rdf:resource="http://purl.org/dc/dcmitype/StillImage" /><dc:title></dc:title></cc:Work></rdf:RDF></metadata><defs
   id="defs53" /><sodipodi:namedview
   pagecolor="#ffffff"
   bordercolor="#666666"
   borderopacity="1"
   objecttolerance="10"
   gridtolerance="10"
   guidetolerance="10"
   inkscape:pageopacity="0"
   inkscape:pageshadow="2"
   inkscape:window-width="1364"
   inkscape:window-height="732"
   id="namedview51"
   showgrid="false"
   inkscape:zoom="1.84375"
   inkscape:cx="243.62803"
   inkscape:cy="332.46655"
   inkscape:window-x="0"
   inkscape:window-y="35"
   inkscape:window-maximized="0"
   inkscape:current-layer="Capa_1" />
<g
   id="g6">
	<g
   id="g4">
		<path
   d="M441.638,53.706h-62.754v-1.035h14.006c10.753,0,19.501-8.749,19.501-19.501V19.501C412.392,8.749,403.643,0,392.89,0    H272.927c-4.143,0-7.5,3.358-7.5,7.5c0,4.142,3.357,7.5,7.5,7.5H392.89c2.439,0,4.5,2.061,4.5,4.5V33.17    c0,2.439-2.061,4.5-4.5,4.5c-6.887,0-272.06,0-273.778,0c-2.439,0-4.5-2.061-4.5-4.5V19.501c0-2.439,2.061-4.5,4.5-4.5h118.812    c4.142,0,7.5-3.358,7.5-7.5c0-4.142-3.358-7.5-7.5-7.5H119.112c-10.753,0-19.501,8.749-19.501,19.501V33.17    c0,10.753,8.749,19.501,19.501,19.501h14.006v1.035H70.364c-14.4,0-26.116,11.716-26.116,26.116v116.483    c0,58.913,47.929,106.841,106.841,106.841h31.829c8.774,6.511,18.442,11.881,28.784,15.892l-15.847,73.682h-57.979    c-10.753,0-19.501,8.749-19.501,19.501v80.277c0,10.753,8.749,19.501,19.501,19.501h236.248c10.753,0,19.501-8.749,19.501-19.501    v-22.637c0-4.142-3.357-7.5-7.5-7.5s-7.5,3.358-7.5,7.5v22.637c0,2.439-2.061,4.5-4.5,4.5H137.877c-2.439,0-4.5-2.061-4.5-4.5    v-80.277c0-2.439,2.061-4.5,4.5-4.5c9.999,0,226.29,0,236.248,0c2.439,0,4.5,2.061,4.5,4.5v22.637c0,4.142,3.357,7.5,7.5,7.5    s7.5-3.358,7.5-7.5v-22.637c0-10.753-8.749-19.501-19.501-19.501h-57.979l-15.847-73.681c10.342-4.01,20.01-9.38,28.784-15.892    h31.828c58.913,0,106.841-47.929,106.841-106.841V79.822C467.753,65.422,456.037,53.706,441.638,53.706z M133.119,93.011v111.41    c-0.001,21.513,5.562,41.749,15.317,59.355c-36.013-1.401-64.883-31.12-64.883-67.47V93.011H133.119z M151.09,288.145    c-50.641,0-91.841-41.199-91.841-91.841V79.822c0-6.128,4.986-11.115,11.115-11.115h62.754v9.303H76.052    c-4.142,0-7.5,3.358-7.5,7.5v110.795c0,45.512,37.026,82.538,82.538,82.538h7.122c2.462,3.23,5.08,6.334,7.845,9.303H151.09z     M300.802,392.721h-89.602l14.861-69.1c9.291,2.329,19.543,3.683,29.94,3.683c10.316,0,20.593-1.34,29.941-3.683L300.802,392.721z     M256.001,312.302c-59.416,0-107.882-48.335-107.882-107.882c0-30.937,0-120.246,0-151.749h215.764c0,32.496,0,120.978,0,151.749    C363.884,264.04,315.344,312.302,256.001,312.302z M378.884,204.42V93.011h49.565v103.294c0,36.349-28.869,66.069-64.882,67.47    C373.321,246.169,378.884,225.934,378.884,204.42z M360.911,288.145h-14.968c2.765-2.968,5.382-6.071,7.846-9.303h7.122    c45.512,0,82.538-37.026,82.538-82.538V85.51c0-4.142-3.357-7.5-7.5-7.5h-57.065v-9.303h62.754    c6.128,0,11.114,4.986,11.114,11.115v116.483h0.001C452.752,246.946,411.552,288.145,360.911,288.145z"
   fill="#18063d"
   id="path2" />
	</g>
</g>
<g
   id="g12">
	<g
   id="g10">
		<path
   d="M330.599,444.86H181.403c-4.142,0-7.5,3.358-7.5,7.5c0,4.142,3.358,7.5,7.5,7.5h149.195c4.143,0,7.5-3.358,7.5-7.5    C338.099,448.218,334.742,444.86,330.599,444.86z"
   fill="#18063d"
   id="path8" />
	</g>
</g>

<g
   id="g20">
</g>
<g
   id="g22">
</g>
<g
   id="g24">
</g>
<g
   id="g26">
</g>
<g
   id="g28">
</g>
<g
   id="g30">
</g>
<g
   id="g32">
</g>
<g
   id="g34">
</g>
<g
   id="g36">
</g>
<g
   id="g38">
</g>
<g
   id="g40">
</g>
<g
   id="g42">
</g>
<g
   id="g44">
</g>
<g
   id="g46">
</g>
<g
   id="g48">
</g>
<path
   sodipodi:type="star"
   style="opacity:1;vector-effect:none;fill:#ffffff;fill-opacity:1;stroke:#18063d;stroke-width:15.47141743;stroke-linecap:round;stroke-linejoin:round;stroke-miterlimit:4;stroke-dasharray:none;stroke-dashoffset:0;stroke-opacity:1"
   id="path862"
   sodipodi:sides="5"
   sodipodi:cx="257.84827"
   sodipodi:cy="150.02802"
   sodipodi:r1="59.981037"
   sodipodi:r2="29.990519"
   sodipodi:arg1="0.90487607"
   sodipodi:arg2="1.5331946"
   inkscape:flatsided="false"
   inkscape:rounded="0"
   inkscape:randomized="0"
   d="m 294.90353,197.19402 -35.92783,-17.19669 -34.53426,19.84744 5.2527,-39.48348 -29.5477,-26.71083 39.17419,-7.20545 16.27278,-36.355634 18.95827,35.030264 39.60483,4.24182 -27.45733,28.85533 z"
   inkscape:transform-center-x="0.33543684"
   inkscape:transform-center-y="1.4773594" /></svg>