<?xml version='1.0' encoding='UTF-8' standalone='no'?>
<!DOCTYPE svg PUBLIC '-//W3C//DTD SVG 1.1//EN' 'http://www.w3.org/Graphics/SVG/1.1/DTD/svg11.dtd'>
<!-- Animated using aniGen version 0.8.1 Quality of Life - http://anigen.org -->
<svg xmlns:dc="http://purl.org/dc/elements/1.1/" xmlns:cc="http://creativecommons.org/ns#" xmlns:rdf="http://www.w3.org/1999/02/22-rdf-syntax-ns#" xmlns:svg="http://www.w3.org/2000/svg" xmlns="http://www.w3.org/2000/svg" xmlns:sodipodi="http://sodipodi.sourceforge.net/DTD/sodipodi-0.dtd" xmlns:inkscape="http://www.inkscape.org/namespaces/inkscape" version="1.1" id="Capa_1" x="0px" y="0px" viewBox="0 0 512 512" style="enable-background:new 0 0 512 512;" xml:space="preserve" width="NaNpx" height="NaNpx" sodipodi:docname="exclusive_prices.svg" inkscape:version="0.92.2 2405546, 2018-03-11" preserveAspectRatio="xMidYMid" xmlns:xlink="http://www.w3.org/1999/xlink" xmlns:anigen="http://www.anigen.org/namespace" anigen:version="0.8.1"><metadata id="metadata55"><rdf:rdf id="rdf:rdf1279"><cc:work rdf:about="" id="cc:work8811"><dc:format id="dc:format8259">image/svg+xml</dc:format><dc:type rdf:resource="http://purl.org/dc/dcmitype/StillImage" id="dc:type6584"></dc:type><dc:title id="dc:title1451"></dc:title></cc:work></rdf:rdf></metadata><defs id="defs53"></defs><sodipodi:namedview pagecolor="#ffffff" bordercolor="#666666" borderopacity="1" objecttolerance="10" gridtolerance="10" guidetolerance="10" inkscape:pageopacity="0" inkscape:pageshadow="2" inkscape:window-width="1364" inkscape:window-height="732" id="namedview51" showgrid="false" inkscape:zoom="0.4999999999999999" inkscape:cx="362.3907418644068" inkscape:cy="-283.2537889830509" inkscape:window-x="0" inkscape:window-y="35" inkscape:window-maximized="0" inkscape:current-layer="Capa_1"></sodipodi:namedview>
<g id="g6">
	<g id="g4">
		<path d="M441.638,53.706h-62.754v-1.035h14.006c10.753,0,19.501-8.749,19.501-19.501V19.501C412.392,8.749,403.643,0,392.89,0    H272.927c-4.143,0-7.5,3.358-7.5,7.5c0,4.142,3.357,7.5,7.5,7.5H392.89c2.439,0,4.5,2.061,4.5,4.5V33.17    c0,2.439-2.061,4.5-4.5,4.5c-6.887,0-272.06,0-273.778,0c-2.439,0-4.5-2.061-4.5-4.5V19.501c0-2.439,2.061-4.5,4.5-4.5h118.812    c4.142,0,7.5-3.358,7.5-7.5c0-4.142-3.358-7.5-7.5-7.5H119.112c-10.753,0-19.501,8.749-19.501,19.501V33.17    c0,10.753,8.749,19.501,19.501,19.501h14.006v1.035H70.364c-14.4,0-26.116,11.716-26.116,26.116v116.483    c0,58.913,47.929,106.841,106.841,106.841h31.829c8.774,6.511,18.442,11.881,28.784,15.892l-15.847,73.682h-57.979    c-10.753,0-19.501,8.749-19.501,19.501v80.277c0,10.753,8.749,19.501,19.501,19.501h236.248c10.753,0,19.501-8.749,19.501-19.501    v-22.637c0-4.142-3.357-7.5-7.5-7.5s-7.5,3.358-7.5,7.5v22.637c0,2.439-2.061,4.5-4.5,4.5H137.877c-2.439,0-4.5-2.061-4.5-4.5    v-80.277c0-2.439,2.061-4.5,4.5-4.5c9.999,0,226.29,0,236.248,0c2.439,0,4.5,2.061,4.5,4.5v22.637c0,4.142,3.357,7.5,7.5,7.5    s7.5-3.358,7.5-7.5v-22.637c0-10.753-8.749-19.501-19.501-19.501h-57.979l-15.847-73.681c10.342-4.01,20.01-9.38,28.784-15.892    h31.828c58.913,0,106.841-47.929,106.841-106.841V79.822C467.753,65.422,456.037,53.706,441.638,53.706z M133.119,93.011v111.41    c-0.001,21.513,5.562,41.749,15.317,59.355c-36.013-1.401-64.883-31.12-64.883-67.47V93.011H133.119z M151.09,288.145    c-50.641,0-91.841-41.199-91.841-91.841V79.822c0-6.128,4.986-11.115,11.115-11.115h62.754v9.303H76.052    c-4.142,0-7.5,3.358-7.5,7.5v110.795c0,45.512,37.026,82.538,82.538,82.538h7.122c2.462,3.23,5.08,6.334,7.845,9.303H151.09z     M300.802,392.721h-89.602l14.861-69.1c9.291,2.329,19.543,3.683,29.94,3.683c10.316,0,20.593-1.34,29.941-3.683L300.802,392.721z     M256.001,312.302c-59.416,0-107.882-48.335-107.882-107.882c0-30.937,0-120.246,0-151.749h215.764c0,32.496,0,120.978,0,151.749    C363.884,264.04,315.344,312.302,256.001,312.302z M378.884,204.42V93.011h49.565v103.294c0,36.349-28.869,66.069-64.882,67.47    C373.321,246.169,378.884,225.934,378.884,204.42z M360.911,288.145h-14.968c2.765-2.968,5.382-6.071,7.846-9.303h7.122    c45.512,0,82.538-37.026,82.538-82.538V85.51c0-4.142-3.357-7.5-7.5-7.5h-57.065v-9.303h62.754    c6.128,0,11.114,4.986,11.114,11.115v116.483h0.001C452.752,246.946,411.552,288.145,360.911,288.145z" fill="#18063d" id="path2"></path>
	</g>
</g>
<g id="g12">
	<g id="g10">
		<path d="M330.599,444.86H181.403c-4.142,0-7.5,3.358-7.5,7.5c0,4.142,3.358,7.5,7.5,7.5h149.195c4.143,0,7.5-3.358,7.5-7.5    C338.099,448.218,334.742,444.86,330.599,444.86z" fill="#18063d" id="path8"></path>
	</g>
</g>

<g id="g20">
</g>
<g id="g22">
</g>
<g id="g24">
</g>
<g id="g26">
</g>
<g id="g28">
</g>
<g id="g30">
</g>
<g id="g32">
</g>
<g id="g34">
</g>
<g id="g36">
</g>
<g id="g38">
</g>
<g id="g40">
</g>
<g id="g42">
</g>
<g id="g44">
</g>
<g id="g46">
</g>
<g id="g48">
</g>
<path sodipodi:type="star" style="opacity:1;vector-effect:none;fill:#ffffff;fill-opacity:1;stroke:#18063d;stroke-width:15.47141743;stroke-linecap:round;stroke-linejoin:round;stroke-miterlimit:4;stroke-dasharray:none;stroke-dashoffset:0;stroke-opacity:1" id="path862" sodipodi:sides="5" sodipodi:cx="257.84827" sodipodi:cy="150.02802" sodipodi:r1="59.981037" sodipodi:r2="29.990519" sodipodi:arg1="0.90487607" sodipodi:arg2="1.5331946" inkscape:flatsided="false" inkscape:rounded="0" inkscape:randomized="0" d="M 294.90353 197.19402 L 258.97569999999996 179.99733 L 224.44143999999994 199.84477 L 229.69413999999995 160.36129 L 200.14643999999996 133.65046 L 239.32062999999997 126.44501000000001 L 255.59340999999998 90.08937600000002 L 274.55168 125.11964000000002 L 314.15650999999997 129.36146000000002 L 286.69917999999996 158.21679000000003 Z" inkscape:transform-center-x="0.33543684" inkscape:transform-center-y="1.4773594"><animateTransform attributeName="transform" attributeType="auto" type="scale" values="1 1;1.1 1.1" calcMode="spline" keyTimes="0;1" keySplines="0 0 1 1" dur="2s" begin="0s" repeatCount="indefinite" additive="sum" accumulate="none" fill="freeze" id="animateTransform1293"></animateTransform></path></svg>