<?xml version="1.0" encoding="UTF-8" standalone="no"?>
<!-- Generator: Adobe Illustrator 19.0.0, SVG Export Plug-In . SVG Version: 6.00 Build 0)  -->

<svg
   xmlns:dc="http://purl.org/dc/elements/1.1/"
   xmlns:cc="http://creativecommons.org/ns#"
   xmlns:rdf="http://www.w3.org/1999/02/22-rdf-syntax-ns#"
   xmlns:svg="http://www.w3.org/2000/svg"
   xmlns="http://www.w3.org/2000/svg"
   xmlns:sodipodi="http://sodipodi.sourceforge.net/DTD/sodipodi-0.dtd"
   xmlns:inkscape="http://www.inkscape.org/namespaces/inkscape"
   version="1.1"
   id="Layer_1"
   x="0px"
   y="0px"
   viewBox="0 0 512 512"
   style="enable-background:new 0 0 512 512;"
   xml:space="preserve"
   width="512px"
   height="512px"
   sodipodi:docname="forget_boundaries1.svg"
   inkscape:version="0.92.2 2405546, 2018-03-11"><metadata
   id="metadata43"><rdf:RDF><cc:Work
       rdf:about=""><dc:format>image/svg+xml</dc:format><dc:type
         rdf:resource="http://purl.org/dc/dcmitype/StillImage" /><dc:title></dc:title></cc:Work></rdf:RDF></metadata><defs
   id="defs41">
	

		
	</defs><sodipodi:namedview
   pagecolor="#ffffff"
   bordercolor="#666666"
   borderopacity="1"
   objecttolerance="10"
   gridtolerance="10"
   guidetolerance="10"
   inkscape:pageopacity="0"
   inkscape:pageshadow="2"
   inkscape:window-width="1364"
   inkscape:window-height="732"
   id="namedview39"
   showgrid="false"
   inkscape:zoom="0.4609375"
   inkscape:cx="251.99424"
   inkscape:cy="342.64994"
   inkscape:window-x="0"
   inkscape:window-y="35"
   inkscape:window-maximized="0"
   inkscape:current-layer="Layer_1"><inkscape:grid
     type="xygrid"
     id="grid882" /></sodipodi:namedview>
<path
   d="m 454.889,430.401 -8.412,-3.373 C 488.78,379.97 512,319.526 512,256 c 0,-51.971 -15.712,-101.977 -44.339,-144.014 -0.347,-0.683 -0.777,-1.298 -1.277,-1.835 -12.541,-18.075 -27.47,-34.653 -44.602,-49.226 -3.401,-2.893 -8.502,-2.481 -11.395,0.92 -2.893,3.401 -2.481,8.504 0.919,11.396 13.744,11.691 25.977,24.759 36.589,38.902 -17.112,6.688 -37.652,12.352 -60.582,16.827 -6.33,-18.86 -14.11,-36.444 -23.256,-52.309 -12.327,-21.385 -26.506,-38.605 -41.959,-51.27 24.051,6.876 46.962,17.53 67.987,31.733 3.7,2.497 8.724,1.526 11.224,-2.174 2.499,-3.699 1.526,-8.724 -2.174,-11.224 C 356.796,15.12 307.3,0 256,0 187.619,0 123.333,26.628 74.982,74.982 26.628,123.333 0,187.621 0,256 0,319.608 23.252,380.06 65.624,427.135 l -8.306,3.253 c -3.059,1.105 -29.07,11.48 -29.07,44.553 v 28.967 c 0,4.466 3.618,8.092 8.084,8.092 h 46.504 7.239 8.623 41.362 15.266 c 0.39,0 0.771,-0.037 1.146,-0.091 0.376,0.054 0.756,0.091 1.146,0.091 h 32.894 c 4.466,0 8.084,-3.618 8.084,-8.084 0,-4.466 -3.619,-8.084 -8.084,-8.084 h -24.81 v -28.155 c 0,-29.704 23.332,-38.248 24.274,-38.58 0.125,-0.042 0.249,-0.087 0.373,-0.136 l 39.368,-15.418 c 0.085,0.092 0.165,0.188 0.255,0.276 l 20.922,20.378 c 1.511,1.47 3.536,2.293 5.641,2.293 0.042,0 0.085,0 0.127,-0.001 2.151,-0.033 4.202,-0.924 5.693,-2.474 l 20.089,-20.844 39.315,15.766 c 0.143,0.058 0.237,0.094 0.383,0.142 0.993,0.349 24.328,8.896 24.328,38.598 v 28.155 h -59.13 -62.511 -9.051 c -4.466,0 -8.084,3.619 -8.084,8.084 0,4.466 3.619,8.084 8.084,8.084 h 9.051 62.511 67.215 10e-4 0.001 10.314 7.238 8.625 41.36 53.745 c 4.466,0 8.084,-3.676 8.084,-8.141 v -28.918 c 0.002,-32.946 -25.813,-43.369 -29.034,-44.54 z m -24.461,-9.809 -7.969,-3.196 v -4.6 c 8.807,-5.165 15.576,-13.438 18.792,-23.306 11.761,-0.929 21.051,-10.776 21.051,-22.771 0,-7.134 -3.288,-13.51 -8.423,-17.708 v -14.368 c 0,-27.702 -20.788,-50.625 -47.58,-54.027 0.305,-5.481 0.516,-11.003 0.618,-16.532 h 88.765 c -1.943,58.517 -24.929,113.79 -65.254,156.508 z m -29.186,-18.199 h -7.373 c -14.285,0 -25.906,-11.621 -25.906,-25.904 v -21.39 0 c 10.531,-1.143 29.184,-4.824 43.555,-16.826 3.219,5.521 8.2,11.492 15.63,14.979 v 23.236 c -0.001,14.284 -11.622,25.905 -25.906,25.905 z m 5.05,15.854 v 4.482 l -9.008,9.346 -8.464,-8.243 v -5.586 c 1.657,0.199 3.34,0.314 5.05,0.314 h 7.373 c 1.71,10e-4 3.391,-0.114 5.049,-0.313 z m -46.387,-78.791 c -0.009,0 -0.018,0 -0.027,0 -0.278,0 -0.554,0.015 -0.825,0.042 -0.087,0.009 -0.172,0.027 -0.259,0.039 -0.182,0.024 -0.364,0.046 -0.542,0.083 -0.122,0.024 -0.239,0.061 -0.359,0.092 -0.139,0.035 -0.279,0.065 -0.414,0.107 -0.088,0.027 -0.171,0.064 -0.258,0.094 v -5.269 c 0,-21.126 17.187,-38.312 38.313,-38.312 h 3.866 c 21.125,0 38.309,17.186 38.309,38.312 v 5.203 c -0.152,-0.049 -0.306,-0.087 -0.462,-0.126 -0.074,-0.021 -0.148,-0.045 -0.223,-0.064 -11.27,-2.563 -14.956,-17.604 -14.983,-17.718 -0.701,-3.098 -3.152,-5.498 -6.265,-6.134 -3.113,-0.638 -6.308,0.608 -8.17,3.182 -14.639,20.237 -47.273,20.469 -47.701,20.469 z m 83.41,32.711 v -10.894 c 1.702,1.215 2.818,3.202 2.818,5.448 0,2.246 -1.116,4.231 -2.818,5.446 z m 14.068,-246.419 c 23.417,36.176 36.826,78.29 38.297,122.167 h -88.767 c -0.656,-36.389 -5.741,-71.486 -14.808,-103.449 24.855,-4.937 47.016,-11.246 65.278,-18.718 z m -66.64,122.169 h -82.741 c -0.009,-0.001 -0.017,0 -0.025,0 -11.029,-12.192 -26.533,-20.247 -43.893,-21.587 v -69.52 c 39.671,-0.395 77.954,-3.694 112.062,-9.427 8.925,30.912 13.934,65.046 14.597,100.534 z m -71.313,84.418 c 0,4.755 -3.212,8.764 -7.579,9.997 v -19.997 c 4.367,1.235 7.579,5.245 7.579,10 z M 264.084,16.617 c 32.171,3.436 62.439,27.306 85.965,68.118 8.256,14.321 15.345,30.143 21.189,47.115 -32.594,5.337 -69.173,8.409 -107.155,8.79 V 16.617 Z m -5.127,225.663 c 27.537,0 49.939,22.404 49.939,49.942 v 9.879 c -0.054,-0.043 -0.111,-0.081 -0.166,-0.124 -0.117,-0.092 -0.236,-0.182 -0.359,-0.267 -0.095,-0.066 -0.193,-0.127 -0.291,-0.189 -0.121,-0.077 -0.241,-0.153 -0.367,-0.223 -0.115,-0.065 -0.234,-0.122 -0.352,-0.181 -0.113,-0.056 -0.225,-0.113 -0.341,-0.165 -0.142,-0.063 -0.289,-0.115 -0.434,-0.17 -0.101,-0.038 -0.201,-0.077 -0.303,-0.111 -0.163,-0.054 -0.331,-0.097 -0.498,-0.14 -0.074,-0.021 -0.147,-0.046 -0.223,-0.064 -15.357,-3.492 -20.222,-23.515 -20.263,-23.689 -0.701,-3.098 -3.152,-5.498 -6.265,-6.134 -3.112,-0.64 -6.308,0.608 -8.17,3.182 -18.931,26.172 -60.75,26.44 -61.302,26.44 -0.001,0 -0.002,0 -0.002,0 -0.011,0 -0.019,0 -0.029,0 -0.278,0 -0.554,0.014 -0.825,0.041 -0.085,0.01 -0.167,0.027 -0.252,0.039 -0.183,0.025 -0.369,0.047 -0.549,0.083 -0.115,0.024 -0.227,0.06 -0.342,0.088 -0.144,0.036 -0.291,0.068 -0.431,0.111 -0.131,0.041 -0.257,0.094 -0.385,0.141 -0.117,0.043 -0.239,0.081 -0.355,0.129 -0.148,0.063 -0.289,0.137 -0.43,0.206 -0.092,0.045 -0.185,0.084 -0.275,0.133 -0.146,0.078 -0.282,0.168 -0.422,0.254 -0.08,0.051 -0.164,0.096 -0.244,0.149 -0.13,0.088 -0.253,0.186 -0.379,0.282 -0.081,0.061 -0.165,0.117 -0.244,0.182 -0.074,0.061 -0.143,0.13 -0.216,0.194 v -10.077 c 0,-27.538 22.402,-49.941 49.939,-49.941 z m -137.7,5.636 c 0.663,-35.494 5.674,-69.635 14.601,-100.55 34.156,5.741 72.48,9.047 112.058,9.445 v 69.602 c -16.947,1.587 -32.054,9.589 -42.859,21.557 -0.294,-0.032 -0.593,-0.053 -0.896,-0.053 h -82.904 z m 80.19,74.336 v 20.166 c -4.533,-1.121 -7.906,-5.209 -7.906,-10.083 -0.001,-4.873 3.373,-8.961 7.906,-10.083 z M 247.916,16.617 V 140.64 c -37.892,-0.384 -74.5,-3.468 -107.146,-8.815 5.843,-16.962 12.929,-32.774 21.181,-47.09 23.526,-40.812 53.794,-64.682 85.965,-68.118 z m -58.103,8.845 c -15.418,12.66 -29.567,29.853 -41.871,51.198 -9.143,15.861 -16.92,33.437 -23.249,52.292 C 101.792,124.483 81.285,118.832 64.205,112.17 95.167,70.985 139.067,40.054 189.813,25.462 Z M 54.69,125.786 c 18.216,7.444 40.381,13.729 65.212,18.661 -9.073,31.967 -14.158,67.072 -14.816,103.469 H 16.32 c 1.495,-44.906 15.39,-86.723 38.37,-122.13 z m 52.093,292.462 c 1.657,0.199 3.34,0.313 5.05,0.313 h 7.374 c 1.708,0 3.391,-0.114 5.047,-0.314 v 4.481 l -9.006,9.346 -8.465,-8.243 z m 12.424,-15.855 h -7.374 c -14.285,0 -25.906,-11.621 -25.906,-25.905 v -21.38 c 10.529,-1.139 29.175,-4.826 43.555,-16.835 3.22,5.522 8.2,11.494 15.629,14.981 v 23.235 c -10e-4,14.283 -11.621,25.904 -25.904,25.904 z m 20.801,-80.455 c -0.701,-3.098 -3.152,-5.498 -6.265,-6.134 -3.113,-0.638 -6.309,0.608 -8.169,3.182 -14.65,20.249 -47.31,20.471 -47.704,20.471 -0.01,0 -0.018,0 -0.027,0 -0.278,0 -0.554,0.014 -0.825,0.041 -0.085,0.01 -0.167,0.027 -0.252,0.039 -0.183,0.024 -0.369,0.047 -0.549,0.083 -0.115,0.024 -0.227,0.06 -0.342,0.088 -0.144,0.036 -0.29,0.068 -0.431,0.111 -0.087,0.027 -0.169,0.064 -0.255,0.094 v -5.269 c 0,-21.126 17.186,-38.313 38.312,-38.313 h 3.867 c 21.125,0 38.309,17.187 38.309,38.313 v 5.204 h -0.002 c -0.155,-0.051 -0.316,-0.089 -0.474,-0.13 -0.071,-0.018 -0.14,-0.043 -0.212,-0.06 -11.268,-2.563 -14.954,-17.607 -14.981,-17.72 z M 16.319,264.084 h 88.765 c 0.101,5.568 0.316,11.129 0.623,16.645 -26.361,3.791 -46.689,26.519 -46.689,53.914 v 14.305 c -5.185,4.196 -8.51,10.6 -8.51,17.771 0,12.084 9.433,21.983 21.32,22.785 3.216,9.862 9.982,18.128 18.786,23.292 v 4.553 l -8.831,3.458 C 41.322,378.056 18.263,322.727 16.319,264.084 Z m 53.438,97.009 v 11.252 c -1.85,-1.192 -3.081,-3.266 -3.081,-5.624 0,-2.36 1.231,-4.434 3.081,-5.628 z m 79.775,106.585 v 28.154 H 140.058 98.697 90.074 82.836 44.417 v -20.891 c 0,-22.539 17.62,-29.071 18.305,-29.314 0.125,-0.042 0.25,-0.087 0.373,-0.136 l 30.491,-11.941 16.202,15.78 c 1.51,1.471 3.534,2.293 5.64,2.293 0.042,0 0.085,0 0.128,-10e-4 2.151,-0.033 4.201,-0.924 5.692,-2.474 l 15.304,-15.882 18.917,7.585 c -3.587,7.341 -5.937,16.232 -5.937,26.827 z m 77.998,-70.642 -42.908,16.803 c -5.464,1.88 -13.026,6.217 -19.734,13.369 l -24.467,-9.812 v -4.598 c 8.809,-5.166 15.577,-13.439 18.793,-23.308 11.762,-0.929 21.053,-10.776 21.053,-22.771 0,-7.134 -3.289,-13.51 -8.424,-17.708 v -14.368 c 0,-28.519 -22.03,-51.974 -49.963,-54.279 -0.308,-5.393 -0.521,-10.833 -0.624,-16.281 h 73.06 c -4.036,8.543 -6.304,18.078 -6.304,28.137 v 18.864 c -6.457,4.851 -10.642,12.57 -10.642,21.251 0,14.51 11.697,26.334 26.157,26.556 3.794,12.814 12.533,23.52 24.001,29.899 v 8.246 z M 161.279,372.168 V 361.27 c 1.703,1.216 2.82,3.203 2.82,5.45 0,2.247 -1.117,4.233 -2.82,5.448 z m 108.322,30.51 c 0,0.011 0,0.022 0,0.03 v 0.49 l -13.246,13.745 -12.657,-12.328 v -10.172 c 2.715,0.453 5.499,0.7 8.342,0.7 h 9.222 c 2.841,0 5.624,-0.247 8.339,-0.698 z m -8.339,-23.702 h -9.222 c -18.982,0 -34.425,-15.442 -34.425,-34.424 V 316.01 c 12.902,-1.188 38.414,-5.673 57.049,-22.402 3.933,7.443 10.526,16.084 21.02,20.566 v 30.377 c -0.001,18.983 -15.442,34.425 -34.422,34.425 z m 86.072,48.287 c -6.707,-7.17 -14.278,-11.522 -19.754,-13.412 l -41.812,-16.769 v -8.292 c 11.471,-6.38 20.208,-17.089 24.001,-29.907 14.307,-0.396 25.827,-12.149 25.827,-26.547 0,-8.631 -4.14,-16.311 -10.534,-21.167 v -18.948 c 0,-10.058 -2.267,-19.594 -6.304,-28.137 h 71.983 c -0.105,5.47 -0.319,10.932 -0.631,16.351 -27.506,2.729 -49.06,25.998 -49.06,54.208 v 14.307 c -5.184,4.195 -8.508,10.599 -8.508,17.77 0,12.085 9.433,21.984 21.32,22.785 3.216,9.862 9.983,18.128 18.787,23.292 v 4.553 z m 4.461,-66.17 v 11.252 c -1.851,-1.192 -3.081,-3.266 -3.081,-5.624 0,-2.36 1.231,-4.435 3.081,-5.628 z m 115.962,134.739 h -45.661 -41.36 -8.625 -7.238 -2.232 v -28.155 c 0,-10.552 -2.329,-19.413 -5.893,-26.736 l 18.876,-7.392 16.2,15.78 c 1.51,1.471 3.534,2.294 5.641,2.294 0.042,0 0.085,0 0.127,-10e-4 2.151,-0.033 4.201,-0.924 5.693,-2.474 l 15.305,-15.882 30.426,12.2 c 0.142,0.058 0.221,0.088 0.368,0.138 0.75,0.266 18.374,6.799 18.374,29.338 v 20.89 z"
   id="path2"
   inkscape:connector-curvature="0"
   style="fill:#18063d" />
<g
   id="g8">
</g>
<g
   id="g10">
</g>
<g
   id="g12">
</g>
<g
   id="g14">
</g>
<g
   id="g16">
</g>
<g
   id="g18">
</g>
<g
   id="g20">
</g>
<g
   id="g22">
</g>
<g
   id="g24">
</g>
<g
   id="g26">
</g>
<g
   id="g28">
</g>
<g
   id="g30">
</g>
<g
   id="g32">
</g>
<g
   id="g34">
</g>
<g
   id="g36">
</g>
</svg>