<svg xmlns="http://www.w3.org/2000/svg" width="200" height="283"><path d="M93.638 150.965l7.78-.065 7.779-.065.07-2.091.07-2.092-.84-.303c-1.657-.6-1.721-2.736-.123-4.082 1.661-1.397 3.886-.297 3.886 1.922 0 1.002-.097 1.187-.99 1.905l-.988.795.07 2.095.07 2.096h16.662l.133 2.163.06 2.394v1.64l.845.112.846.112.12 1.536c.066.845.064 2.902-.004 4.572l-.124 3.036H127.277v80.858l-2.887.114c-1.587.062-3.525.113-4.305.113h-1.42l-.112-1.586c-.062-.872-.112-7.188-.112-14.035 0-13.638-.028-14.114-1.049-17.955-1.207-4.547-3.148-7.875-6.458-11.078-3.09-2.99-6.513-4.878-12.216-6.74-2.235-.73-3.71-1.308-4.035-1.58-1.065-.897-1.017-.258-1.04-13.852-.01-6.842-.07-12.674-.13-12.959-.098-.457-.209-.536-.933-.668l-.822-.15v-8.972h.848c.613 0 .877-.076.953-.274.058-.151.105-1.087.092-3.765zm22.637 25.297c2.242-.336 4.072-.884 4.072-1.218 0-.43-1.075-2.682-1.28-2.679-.106.001-.817.196-1.58.433-2.312.719-4.831 1.008-7.796.895-2.63-.1-4.04-.344-5.844-1.006-.546-.2-1.103-.322-1.238-.27-.241.092-1.064 1.715-1.255 2.476-.089.355.013.425 1.086.757 1.056.326 3.024.715 4.739.936 1.185.153 7.39-.068 9.096-.324zm-9.381-8.816c2.047-.855 3.185-3.327 2.463-5.35-.8-2.24-3.502-3.387-5.69-2.416-1.713.76-2.79 2.854-2.39 4.643.551 2.466 3.4 4.05 5.617 3.123zm10.705.037c1.375-.412 2.606-1.884 2.85-3.409.27-1.693-.94-3.79-2.561-4.44-2.795-1.117-5.74.88-5.752 3.903-.004.93.082 1.283.469 1.943 1.054 1.8 3.03 2.592 4.994 2.003z" fill="#fff" stroke="#fff" stroke-width=".245"/><path d="M130.7 237.727l-.045-9.657-.454-.217c-.92-.441-.933-.506-.913-4.582.017-3.344.054-3.826.321-4.121.167-.184.47-.358.675-.387.362-.052.373-.134.419-3.101l.047-3.048 4.024-.114c2.214-.062 4.909-.114 5.99-.114h1.964l-.059-1.93c-.05-1.666-.103-1.958-.383-2.123-1.796-1.063-2.188-1.64-2.188-3.216 0-1.009.065-1.241.52-1.86.655-.89 1.56-1.336 2.69-1.325 1.866.018 3.374 1.559 3.374 3.445 0 .893-.777 2.217-1.559 2.656-.786.442-.783.425-.497 2.658.14 1.092.278 1.576.477 1.68.154.079 1.722.194 3.485.255 1.763.06 4.121.158 5.241.217l2.036.107v5.456l.68.108c1.215.194 1.226.232 1.226 4.118 0 2.049-.073 3.6-.179 3.798-.108.201-.443.376-.842.44-.365.058-.754.162-.864.23-.185.114-.524 10.964-.537 17.184l-.004 2.01-2.122.115c-3.75.202-20.983.975-21.743.975h-.735zm17.3-5.754c1.757-.423 2.84-.85 2.84-1.12 0-.268-.704-2.403-.845-2.562-.06-.067-.901.15-1.87.482-2.427.83-4.99.99-7.148.443-.803-.203-1.783-.526-2.177-.717-.394-.19-.803-.347-.908-.347-.16 0-.384.57-1.009 2.56-.153.488 2.116 1.295 4.688 1.67 1.16.168 5.065-.08 6.43-.409zm-7.575-7.618c.734-.523 1.12-1.317 1.123-2.31.003-.935-.353-1.537-1.292-2.181-.493-.338-.756-.394-1.589-.335-.852.06-1.087.155-1.606.659-1.06 1.027-1.151 2.54-.225 3.717.793 1.009 2.503 1.223 3.59.45zm9.18.032c.79-.586 1.236-1.407 1.235-2.281-.001-1.545-1.107-2.615-2.703-2.616-2.952-.001-3.68 4.032-.935 5.185.616.259 1.866.11 2.402-.288zM80.583 247.72c-9.98-.09-12.988-.176-16.98-.48-2.668-.205-5.143-.372-5.5-.373l-.649-.001-.044-26.986-.044-26.985-.882-.052-.883-.051-.117-3.229c-.09-2.52-.068-3.259.103-3.367.121-.077.57-.141 1-.142l.78-.003v-1.987c0-3.007-.613-2.759 7.064-2.865l6.276-.086.05-1.49.05-1.488-.673-.445c-2.019-1.336-1.421-4.275.98-4.823 1.333-.304 2.953.632 3.342 1.932.297.991-.167 2.106-1.171 2.814l-.758.534v2.834l.65.107c.357.06 2.091.109 3.854.11 1.763.001 4.446.054 5.963.117 3.53.146 3.393.037 3.393 2.743v1.993l.564.003c1.03.004 1.077.11 1.143 2.578l.06 2.247-.667.055-.666.055.066 4.954.066 4.955-3.358 2.046c-3.793 2.31-4.656 3.085-6.485 5.815-1.199 1.789-1.883 3.179-2.767 5.62l-.565 1.56-3.917.087-3.918.086-.584.821c-.773 1.09-1.042 2.113-.937 3.575.1 1.392.622 2.466 1.448 2.976.496.307.88.338 4.148.338h3.6l-.112 2.643a511.603 511.603 0 0 0-.227 7.821l-.115 5.18 3.338-.088c2.587-.067 3.372-.141 3.49-.328.17-.268.219-9.67.053-10.102-.082-.213-.37-.274-1.3-.274h-1.194v-.588c0-.6-.218-.798-.88-.798-.306 0-.333-.14-.333-1.722v-1.722l.563-.054c.496-.048.57-.122.618-.617.049-.506.11-.564.606-.565a9.008 9.008 0 0 0 1.186-.107c.628-.104.636-.116.846-1.254 1.14-6.202 5.038-11.335 10.256-13.508 1.276-.53 4.32-1.243 5.314-1.243.521 0 .537-.023.56-.823.048-1.699-.042-2.378-.337-2.555-.159-.096-.582-.457-.94-.803-.554-.534-.652-.74-.652-1.37 0-.639.095-.83.7-1.406.645-.614.778-.666 1.69-.665 1.103.001 1.766.332 2.305 1.15.694 1.052.304 2.247-.955 2.924l-.622.335v3.16l1.516.211c6.987.969 12.355 5.947 14.183 13.154.228.898.414 1.815.414 2.038 0 .43.445.764 1.018.764.264 0 .36.133.4.563.049.495.123.57.618.617l.563.054V227.25l-.595.112c-.517.097-.604.186-.65.67-.044.453-.138.566-.504.609l-.449.052-.114 3.137c-.062 1.726-.113 6.05-.113 9.607v6.47l-10.526-.036c-5.789-.02-15.983-.086-22.654-.147zm19.665-17.228c1.935-.094 5.948-.786 6.606-1.138.433-.232.42-.326-.263-1.805l-.589-1.273-1.447.423c-2.432.71-4.15.934-7.195.934s-4.42-.198-6.647-.955c-.697-.237-1.296-.431-1.33-.431-.111 0-1.263 2.493-1.263 2.732 0 .751 6.428 1.882 9.443 1.661.381-.028 1.59-.094 2.685-.148zm-6.394-9.451c.423-.216.9-.674 1.218-1.17.472-.735.517-.928.463-1.96-.068-1.305-.485-2.076-1.496-2.769-.504-.345-.823-.417-1.85-.417-1.072 0-1.333.065-1.93.479-2.77 1.92-1.464 6.184 1.896 6.19.672 0 1.233-.116 1.699-.353zm9.823-.149c1.222-.626 1.942-1.765 1.942-3.072 0-2.222-2.108-3.903-4.199-3.347-1.58.421-2.618 1.76-2.627 3.394-.014 2.43 2.73 4.13 4.884 3.025zm-28.74-18.56c2.249-.237 4.693-.826 4.693-1.131 0-.297-.811-2.156-.941-2.156-.052 0-.855.204-1.785.454-1.327.356-2.235.473-4.204.54-2.806.095-4.436-.094-6.236-.722l-1.183-.413-.517 1.153c-.284.634-.482 1.21-.44 1.281.125.207 1.78.638 3.446.897 1.866.29 4.939.332 7.167.097zm-6.11-8.07c1.324-1.072 1.78-2.225 1.43-3.614-.6-2.388-3.503-3.4-5.466-1.904-1.167.888-1.592 2.752-.947 4.15.632 1.367 1.728 2.02 3.262 1.944.893-.045 1.186-.143 1.721-.576zm9.377.183c1.318-.55 2.12-1.753 2.12-3.179 0-1.055-.225-1.683-.835-2.336-2.753-2.947-7.4.381-5.534 3.964.795 1.525 2.671 2.21 4.25 1.55z" fill="#fff" stroke="#fff" stroke-width=".173"/><path d="M17.939 282.203c-2.67-.424-4.862-2.07-5.831-4.38-.454-1.081-.553-1.635-.546-3.037.006-1.131.028-1.326.22-1.958.802-2.64 2.862-4.528 5.633-5.16.562-.13 1.002-.17 1.873-.172 1.234-.004 2.016.12 3.022.478 1.13.402 2.709 1.358 2.709 1.639 0 .144-1.54 2.144-1.699 2.205-.057.022-.237-.065-.4-.193a6.416 6.416 0 0 0-1.763-.976c-.842-.314-2.152-.394-2.968-.182-1.52.395-2.772 1.648-3.181 3.184-.188.706-.152 1.917.078 2.642a4.484 4.484 0 0 0 2.985 2.947c1.057.326 2.494.17 3.65-.396l.432-.211.021-1.906.021-1.905 1.392.021 1.392.021.021 2.731.02 2.73-.189.176c-.513.476-2.34 1.252-3.66 1.555-.766.176-2.543.257-3.232.147zm20.273-.084c-2.664-.345-4.534-2.167-4.878-4.753-.376-2.828 1.092-5.307 3.619-6.108a7.446 7.446 0 0 1 2.683-.333c1.016.062 1.674.229 2.535.642 1.985.953 3.041 2.853 2.921 5.256-.068 1.36-.383 2.28-1.108 3.24-1.19 1.57-3.41 2.361-5.772 2.056zm2.163-2.783c.479-.232 1.081-.85 1.29-1.323.083-.187.186-.592.23-.9.204-1.442-.383-2.75-1.477-3.287-.396-.194-.53-.218-1.23-.218-.822 0-1.098.087-1.706.536-.331.245-.741.9-.888 1.418-.198.694-.134 1.83.135 2.412.228.493.657 1.007 1.04 1.243.702.434 1.852.486 2.606.12zm12.857 2.795c-.883-.14-1.609-.483-2.191-1.034-.224-.211-.446-.385-.494-.385-.055 0-.096.239-.11.648l-.023.648-1.525.021c-1.168.016-1.54 0-1.589-.078-.035-.055-.064-3.423-.064-7.484 0-5.795.02-7.413.097-7.518.088-.12.257-.133 1.59-.114l1.49.022.021 2.767c.012 1.522.041 2.767.066 2.767s.246-.178.49-.397c1.348-1.203 3.458-1.428 5.293-.563 1.788.842 2.811 2.72 2.811 5.16 0 3.268-1.843 5.406-4.8 5.567-.364.021-.842.007-1.062-.027zm1.072-2.847c.563-.261.982-.693 1.282-1.32.234-.487.244-.553.244-1.49 0-.923-.015-1.01-.229-1.448-.277-.567-.791-1.097-1.286-1.326-.3-.139-.514-.17-1.154-.17-.723 0-.818.018-1.204.232-.887.491-1.403 1.353-1.482 2.476-.11 1.566.658 2.833 1.937 3.195.542.153 1.383.087 1.892-.15zm8.838 2.835c-1.88-.386-3.038-2.055-2.728-3.931.172-1.039.73-1.794 1.663-2.253.818-.401 1.386-.487 3.555-.537l1.952-.046-.034-.416c-.047-.557-.318-.954-.855-1.248-.373-.205-.518-.236-1.217-.263-.932-.036-1.661.12-2.737.581-.393.169-.707.262-.745.222-.117-.123-.867-1.845-.867-1.99 0-.274 1.953-1.012 3.221-1.217 2.74-.444 4.916.223 5.842 1.792.496.84.521 1.113.497 5.387l-.022 3.808h-2.983l-.024-.471c-.013-.26-.056-.503-.095-.543-.042-.042-.197.044-.385.214-.369.333-.895.612-1.498.795-.52.158-2.005.226-2.54.116zm3.011-2.385c.518-.186.94-.506 1.192-.901.191-.302.222-.428.222-.928v-.58l-1.708.026c-1.615.024-1.723.035-1.993.203-.518.322-.67.938-.386 1.563.157.347.372.525.849.704.367.137 1.328.092 1.824-.087zm62.294 2.388c-1.612-.252-2.915-1.171-3.637-2.565-1.254-2.417-.798-5.807.996-7.418.896-.805 1.806-1.156 3.149-1.216 1.45-.064 2.435.26 3.32 1.09.221.208.43.378.464.378.033 0 .07-1.245.081-2.767l.02-2.767h3.062v15.151h-3.061l-.023-.687c-.013-.378-.045-.687-.072-.687-.026 0-.248.19-.491.423a3.981 3.981 0 0 1-1.691.962c-.53.143-1.546.192-2.117.103zm2.719-2.74c1.105-.52 1.725-1.722 1.608-3.117-.1-1.174-.685-2.074-1.624-2.495-.434-.194-.552-.213-1.2-.189-.555.021-.805.069-1.089.209-.52.256-.989.753-1.272 1.349-.229.48-.243.565-.242 1.413 0 .753.03.976.18 1.346.312.78.979 1.398 1.738 1.614.512.145 1.453.08 1.9-.13zm17.179 2.741c-1.367-.288-2.327-1.34-2.51-2.75-.042-.32-.077-1.723-.078-3.116l-.001-2.531h-.648c-.356 0-.693-.03-.748-.065-.076-.048-.095-.32-.079-1.079l.022-1.014.707-.04.706-.039.044-1.491c.024-.82.05-1.501.059-1.513.008-.012.713-.012 1.565 0l1.55.021.04 1.492.04 1.491 1.452.04 1.452.04.022.97c.015.648-.008 1.006-.068 1.079-.072.086-.392.11-1.495.11h-1.403v2.515c0 2.678.01 2.75.393 3.097.234.212.973.2 1.605-.028.257-.092.49-.141.518-.109.1.115.633 2.14.584 2.218-.078.127-.58.36-1.177.545-.626.195-1.98.279-2.55.159zm15.862-.004c-2.664-.344-4.534-2.167-4.878-4.753-.376-2.827 1.093-5.306 3.619-6.108a7.446 7.446 0 0 1 2.683-.333c1.016.062 1.675.23 2.535.643 1.985.953 3.041 2.853 2.922 5.255-.068 1.36-.384 2.28-1.11 3.24-1.188 1.57-3.41 2.362-5.771 2.056zm2.164-2.782c.478-.233 1.08-.851 1.29-1.324.082-.186.185-.591.23-.9.204-1.442-.384-2.749-1.478-3.286-.396-.194-.53-.218-1.23-.218-.822 0-1.098.086-1.706.536-.331.245-.74.899-.888 1.417-.197.695-.133 1.83.136 2.413.227.493.656 1.006 1.04 1.243.7.433 1.852.486 2.606.119zm-138.478 2.588c-.027-.069-.048-3.436-.048-7.483 0-5.773.02-7.387.098-7.492.088-.12.257-.133 1.59-.114l1.491.022v15.151l-1.541.021c-1.354.018-1.548.007-1.59-.105zm45.61 0c-.027-.069-.049-3.436-.049-7.483 0-5.773.021-7.387.099-7.492.087-.12.256-.133 1.59-.114l1.49.022v15.151l-1.54.021c-1.355.018-1.548.007-1.59-.105zm9.648.047c-.046-.073 5.932-13.968 6.105-14.193.06-.076.467-.095 1.733-.079l1.656.021 3.002 7.026c1.651 3.865 3.003 7.089 3.004 7.165.002.13-.116.137-1.7.118l-1.704-.021-.542-1.355-.543-1.354H87.523l-.407 1.001c-.224.55-.484 1.16-.578 1.354l-.17.354-1.584.021c-1.005.012-1.602-.008-1.633-.058zm9.851-5.439c.003-.205-2.077-5.241-2.153-5.216-.083.028-2.163 5.041-2.165 5.216 0 .076.483.098 2.158.098 1.674 0 2.16-.022 2.16-.098zm7.257 5.417c-.02-.054-.028-3.278-.017-7.163l.02-7.066 1.565-.021c1.199-.016 1.579.001 1.628.079.072.114.09 13.956.018 14.145-.042.107-.258.124-1.612.124-1.18 0-1.573-.024-1.602-.098zm11.226 0c-.02-.054-.028-3.278-.017-7.164l.02-7.065 5.412-.02c4.277-.017 5.425 0 5.474.078.035.054.063.617.064 1.25 0 .945-.021 1.175-.122 1.276-.109.109-.567.124-3.847.124h-3.723v3.061h3.407c3.033 0 3.411.012 3.454.124.026.069.047.631.047 1.25 0 .92-.022 1.15-.123 1.25-.108.109-.531.124-3.456.124h-3.332l.021 1.55.021 1.55 3.908.021 3.907.02-.022 1.315-.021 1.314-5.517.02c-4.372.017-5.525 0-5.555-.078zm27.65.047c-.03-.03-.053-2.485-.053-5.455 0-5.26.004-5.403.151-5.482.227-.121 2.767-.107 2.935.016.124.09.132.492.113 5.515l-.02 5.416-1.536.022c-.844.012-1.56-.001-1.59-.033zm14.916 0c-.03-.03-.054-2.485-.054-5.455 0-5.26.004-5.403.152-5.482.227-.121 2.766-.107 2.935.016.123.09.132.492.113 5.515l-.02 5.416-1.536.022c-.845.012-1.56-.001-1.59-.033zm19.154 0c-.03-.03-.054-2.485-.054-5.455 0-5.26.004-5.403.152-5.482.087-.047.708-.081 1.458-.081s1.37.034 1.457.081c.134.072.152.17.152.824 0 .409.02.743.044.743.025 0 .266-.224.536-.498.807-.819 1.865-1.224 3.204-1.227 1.903-.004 3.191.888 3.807 2.637l.218.62v7.849h-3.14l-.04-3.375-.039-3.376-.235-.426c-.392-.709-1.14-1.078-2.041-1.006-.964.076-1.646.558-2.07 1.462l-.207.441-.04 3.14-.039 3.14-1.535.022c-.845.012-1.56-.001-1.59-.033zm-33.327-12.522c-.902-.447-1.198-1.76-.602-2.667.509-.773 1.803-.917 2.528-.28.75.657.777 1.984.055 2.66-.507.476-1.353.598-1.981.287zm14.915 0c-.902-.447-1.198-1.76-.601-2.667.508-.773 1.803-.917 2.528-.28.749.657.776 1.984.054 2.66-.507.476-1.352.598-1.98.287zM85.27 255.979c-31.444-.367-57.43-1.849-67.316-3.84-4.032-.811-6.125-2.11-6.77-4.197-.224-.727-.238-2.125-.027-2.83.077-.258 12.435-30.48 27.462-67.157 15.027-36.678 27.337-66.76 27.356-66.848.02-.091-3.381-9.03-7.99-20.999-6.334-16.452-8.041-20.96-8.107-21.41-.236-1.616.689-3.377 2.146-4.086 1.18-.574 7.06-2.054 12.364-3.113a195.343 195.343 0 0 1 11.775-1.934c1.532-.198 2.045-.364 1.977-.64-.066-.274-.482-1.377-.54-1.436-.03-.028-.234-.006-.456.051-.342.088-.412.087-.471-.01-.102-.164-.339-1.546-.288-1.679.025-.065.206-.137.422-.17.207-.03.395-.081.416-.114.022-.033.022-.425 0-.872l-.039-.813-.393-.04-.392-.039.016-.588c.009-.324.064-.748.123-.942.103-.34.118-.353.377-.324.668.075.616.116.903-.697.294-.833.302-.8-.272-1.115-.134-.074-.244-.162-.244-.196 0-.129.765-1.393.89-1.471.13-.082.169-.067.646.243.152.098.199.063.687-.523.289-.346.524-.651.524-.678 0-.027-.129-.191-.287-.366l-.287-.319.519-.491c.285-.27.613-.554.729-.63l.21-.137.29.34c.16.188.323.327.363.31.272-.115 1.368-.81 1.368-.868 0-.04-.074-.216-.164-.392-.212-.416-.166-.46.81-.81.83-.296.834-.295.998.213.052.162.124.312.16.334.037.023.29-.009.564-.07.273-.06.632-.133.797-.161l.3-.052-.02-.388c-.012-.214.015-.425.06-.47.048-.048.424-.071.937-.058l.857.023.04.426.038.426.785.132c.432.072.81.118.842.1.031-.017.097-.18.146-.362.048-.181.125-.353.17-.38.093-.059 1.332.345 1.604.523.17.112.176.137.075.334-.263.517-.266.51.5.947.391.223.74.405.777.405.036 0 .159-.141.273-.314.114-.173.24-.314.28-.314.188 0 1.417 1.056 1.417 1.218 0 .048-.106.189-.235.313-.13.124-.234.28-.232.348.002.067.245.386.541.708l.539.585.328-.227c.242-.168.36-.208.45-.151.165.104.882 1.293.884 1.466 0 .087-.13.202-.357.312-.286.14-.351.207-.32.333.068.27.483 1.362.54 1.42.03.03.218.013.418-.038.252-.063.395-.067.462-.01.14.116.399 1.642.295 1.745-.044.045-.24.1-.436.121-.195.022-.367.08-.382.129-.014.048-.008.441.015.873l.042.785.37.042c.203.024.395.07.427.101.071.072-.085 1.344-.202 1.65-.078.2-.11.216-.34.161-.526-.123-.622-.093-.736.234-.058.166-.087.334-.063.373.025.04.856.049 1.942.02 1.906-.048 7.399.061 10.361.207 12.259.605 24.731 2.4 35.185 5.064 4.238 1.08 4.977 1.36 5.74 2.18.537.575.84 1.1 1.008 1.746.135.518.155 1.403.042 1.89-.04.179-3.578 9.575-7.86 20.882-4.283 11.307-7.802 20.65-7.82 20.762-.024.144 8.064 20.1 27.186 67.08 14.97 36.782 27.268 67.052 27.327 67.268.165.602.222 1.907.108 2.485-.465 2.361-2.61 3.789-6.99 4.65-8.976 1.767-30.236 3.115-57.7 3.66-11.386.226-28.515.29-40.467.15zm28.614-17.552c.021-5.275.066-9.617.1-9.65.033-.034.271-.077.53-.095l.469-.034.002-.481c0-.265.033-.533.073-.596.05-.078.253-.126.627-.147l.554-.031v-3.672h-.546c-.653 0-.71-.062-.71-.78v-.476h-.53c-.291 0-.57-.027-.62-.059-.049-.031-.131-.34-.182-.685-.608-4.103-2.415-7.79-5.157-10.518-2.691-2.679-6.152-4.287-10.114-4.702l-.863-.09-.022-1.02c-.012-.56.006-1.264.04-1.562l.06-.543.5-.255c.58-.296.962-.64 1.244-1.117.531-.9-.172-2.42-1.379-2.986-.38-.178-.545-.208-1.15-.205-.634.001-.755.029-1.182.249-.87.449-1.515 1.412-1.418 2.12.105.765.693 1.5 1.55 1.938l.5.256.022 1.475c.015 1.02-.006 1.508-.069 1.583-.053.064-.242.108-.468.108-.684 0-2.178.233-3.235.506-3.921 1.01-7.241 3.433-9.575 6.991-1.418 2.16-2.41 4.744-2.877 7.488-.087.51-.197.923-.257.96-.057.037-.59.067-1.184.068h-1.08V223c0 .31-.039.573-.093.628-.055.055-.318.094-.628.094h-.534v3.69h.476c.718 0 .78.057.78.71v.546h1.133c.925 0 1.155.023 1.256.123.11.11.123.688.123 5.176 0 4.205-.019 5.07-.11 5.16-.085.087-.773.128-3.316.196-1.764.048-3.238.058-3.275.022-.113-.11-.004-8.384.138-10.481.07-1.037.136-2.609.146-3.494l.019-1.609-3.65-.039-3.65-.04-.419-.23c-.655-.364-1.155-1.123-1.387-2.103-.148-.629-.148-1.827 0-2.533.152-.726.642-1.702 1.124-2.238l.387-.431h7.75l.476-1.414c1.189-3.528 2.576-5.972 4.801-8.459.416-.465.9-.962 1.077-1.105.177-.142 1.717-1.1 3.422-2.128 1.706-1.028 3.164-1.924 3.242-1.992.133-.117.138-.35.096-4.288-.024-2.29-.062-4.47-.084-4.844-.051-.869 0-.93.756-.93h.545l-.02-2.453-.021-2.454-.805-.022c-.568-.016-.804-.05-.802-.118 0-.052-.012-.932-.03-1.955-.029-1.61-.053-1.9-.18-2.158-.283-.58.057-.548-7.093-.657-3.52-.053-6.46-.128-6.536-.167-.122-.063-.137-.213-.136-1.421 0-.744.027-1.389.06-1.434.03-.045.251-.176.49-.29 1.603-.775 2.07-2.801.94-4.085-1.135-1.289-3.03-1.42-4.261-.294-.229.21-.52.569-.648.8-.212.381-.232.485-.232 1.164 0 .641.029.808.205 1.185.261.556.655.95 1.25 1.25l.468.237v1.442c0 1.244-.017 1.45-.124 1.49-.068.027-2.843.049-6.166.049-5.913 0-6.048 0-6.353.159-.368.188-.746.678-.869 1.128-.06.222-.07.75-.028 1.696.033.755.064 1.497.068 1.648l.01.275-.982.04-.981.038.021 2.16c.012 1.187.043 2.716.068 3.399l.047 1.24.834-.008c.46-.004.885-.007.946-.004.096.004.104 3.745.06 26.966-.032 17.343-.023 26.979.026 27.01.042.025 3.017.237 6.612.47l6.536.423 12.6.09c24.725.176 29.798.21 30.262.201l.471-.008.04-9.59zm-18.134-7.845a42.382 42.382 0 0 1-3.611-.355c-1.687-.255-3.94-.88-4.026-1.118-.05-.141 1.17-2.755 1.3-2.782.063-.012.414.101.78.252.923.383 2.173.725 3.516.962.958.17 1.454.208 3.14.24 3.12.06 5.506-.264 7.919-1.072.631-.212 1.174-.36 1.205-.33.126.12 1.24 2.69 1.198 2.76-.143.231-3 .907-4.788 1.131-1.927.243-5.15.394-6.633.312zm-4.396-9.24a3.505 3.505 0 0 1-2.525-2.816c-.297-1.793 1.004-3.54 2.867-3.848 1.672-.277 3.354.847 3.786 2.53.42 1.637-.5 3.405-2.087 4.01-.536.204-1.548.266-2.041.125zm9.97-.245a3.464 3.464 0 0 1-2.439-2.618c-.386-1.858.929-3.723 2.832-4.018 2.23-.345 4.236 1.675 3.851 3.88-.348 2-2.332 3.288-4.245 2.756zM69.214 202.36c-2.167-.189-4.867-.824-4.867-1.144 0-.154.95-2.223 1.02-2.223.031 0 .318.108.637.24 1.613.665 3.46.974 5.8.968 2.375-.007 3.974-.24 5.901-.862.475-.154.906-.263.958-.243.052.02.302.502.555 1.07.395.888.445 1.05.35 1.145-.164.164-2.1.637-3.34.816-2.112.305-5.069.403-7.014.233zm-2.78-7.544c-1.056-.135-2.042-.848-2.522-1.821-.679-1.376-.44-2.87.626-3.938.623-.622 1.293-.92 2.17-.961 1.474-.071 2.642.616 3.268 1.922 1.165 2.43-.839 5.144-3.542 4.798zm9.786-.26c-1.73-.375-2.927-2.128-2.632-3.852.484-2.825 4.023-3.844 5.91-1.701 1.705 1.937.672 5.02-1.862 5.557-.638.135-.779.135-1.416-.001zm49.24 53.118l1.963-.05v-14.208c0-7.815-.014-26.008-.032-40.428l-.031-26.22.895-.078.895-.08.02-4.548c.013-2.78-.008-4.577-.054-4.622-.04-.041-.456-.096-.923-.122l-.848-.049-.04-3.14-.039-3.14-1.256-.022c-.69-.012-4.435.011-8.321.049-3.886.038-7.11.053-7.165.032-.077-.03-.094-.512-.078-2.198.017-1.827.039-2.17.138-2.223.065-.034.284-.137.487-.23.85-.386 1.328-1.107 1.38-2.08.045-.866-.16-1.407-.761-2.008-.589-.589-1.144-.804-1.97-.765-.74.036-1.21.26-1.73.829-1.01 1.105-1.232 2.713-.484 3.5.257.27.532.422 1.155.64l.471.166.021 2.076c.018 1.799.005 2.09-.1 2.166-.09.065-2.16.078-7.812.047l-7.691-.042v3.46c0 1.902-.022 3.515-.048 3.583-.04.104-.2.124-.955.124h-.907l.051 4.526c.028 2.49.064 4.539.08 4.554.014.016.389.092.831.171.472.085.834.19.875.255.091.144.154 19.938.075 23.7-.035 1.658-.027 1.794.13 2.212.245.658.592 1.11 1.124 1.465.578.387.994.546 2.708 1.036 4.802 1.373 8.277 3 11.372 5.324 1.233.927 2.82 2.425 3.793 3.584.912 1.084 2.078 2.85 2.746 4.16 1.553 3.044 2.46 6.328 2.907 10.52.132 1.244.14 2.23.115 14.694-.016 7.347-.004 13.397.024 13.444.052.083 1.76.067 6.99-.064zm-17.859-71.14c-1.993-.163-4.183-.575-5.518-1.038-.494-.171-.73-.293-.747-.386-.027-.142 1.03-2.537 1.196-2.713.077-.08.245-.04.875.212 3.094 1.237 7.014 1.57 11.135.945 1.259-.19 2.745-.553 3.719-.905.408-.148.784-.269.836-.269.053 0 .366.606.698 1.346.459 1.022.582 1.37.517 1.45-.1.119-1.039.417-2.068.657-.952.222-2.395.451-3.748.596-1.356.146-5.61.21-6.895.105zm-3.118-8.977c-1.47-.356-2.738-1.603-3.12-3.07-.582-2.236.945-4.624 3.24-5.065 2.411-.463 4.728 1.29 4.934 3.737.232 2.741-2.409 5.04-5.054 4.398zm10.873-.004c-.757-.192-1.388-.564-1.986-1.17-.877-.888-1.215-1.7-1.215-2.915 0-1.112.414-2.1 1.216-2.902 1.64-1.64 4.204-1.627 5.854.03 2.175 2.182 1.313 5.82-1.62 6.843-.61.212-1.655.265-2.25.114zm27.717 79.41c6.707-.298 12.225-.57 12.26-.607.036-.037.135-4.354.22-9.593.086-5.24.185-9.557.222-9.593.036-.036.34-.1.673-.14.704-.088 1.05-.262 1.274-.644.154-.262.16-.392.159-3.686-.001-3.293-.007-3.425-.16-3.689-.186-.316-.6-.504-1.33-.604l-.472-.064-.005-2.748-.005-2.747-.308-.023c-.17-.012-2.614-.103-5.431-.2-3.44-.12-5.15-.206-5.21-.265-.088-.088-.543-3.678-.486-3.836.017-.047.226-.166.463-.265 1.226-.508 2.033-2.153 1.766-3.6-.427-2.317-3.14-3.579-5.159-2.399-.47.276-1.105.981-1.348 1.501-.193.412-.212.535-.212 1.394 0 .874.016.974.222 1.393.355.723.912 1.27 1.665 1.635l.65.314.047.88c.026.484.056 1.357.066 1.94l.02 1.06-5.881.02c-4.185.014-5.91.046-5.986.108-.085.07-.105.672-.105 3.099v3.011l-.216.048c-.12.027-.287.067-.373.09-.284.077-.59.344-.748.654-.148.29-.155.472-.155 3.938 0 3.539.005 3.64.164 3.9.22.36.442.538.817.648.173.051.358.147.412.212.078.095.099 2.154.099 9.709 0 5.273.023 9.612.052 9.64.029.03.073.052.098.05.025 0 5.534-.244 12.242-.541zm-.46-14.582c-1.509-.085-3.042-.353-4.167-.73-.734-.246-1.44-.573-1.522-.705-.08-.13.828-2.83.952-2.83.06 0 .25.089.421.198.784.495 2.224.98 3.492 1.179.676.105 1.17.126 2.276.094 2.056-.059 3.518-.383 5.166-1.145.473-.218.701-.29.726-.224.311.832.869 2.646.831 2.704-.21.328-2.246.957-3.98 1.23-.748.117-3.144.297-3.567.267-.108-.007-.39-.025-.628-.038zm-4.338-7.642c-2.09-.527-2.74-3.153-1.136-4.594 1.01-.91 2.515-.89 3.538.045 1.713 1.565.708 4.431-1.608 4.589-.274.018-.632 0-.794-.04zm9.205-.04a2.712 2.712 0 0 1-1.81-1.673c-.233-.619-.187-1.466.113-2.08.271-.555.863-1.092 1.446-1.311.362-.137.567-.163 1.076-.136 1.043.056 1.828.584 2.29 1.54.303.627.308 1.504.013 2.141-.567 1.223-1.883 1.862-3.127 1.52zm-118.44 20.629c.066-.393 52.19-131.546 52.34-131.699.145-.147.184-.146 2.253.021 5.286.428 8.615.563 15.176.614 7.871.062 13-.11 19.571-.656 1.345-.111 1.57-.114 1.667-.018.104.104 52.475 131.724 52.475 131.882 0 .104.148.094 2.473-.167 3.332-.375 6.208-.8 6.348-.937.037-.037-11.974-29.65-26.866-66.24-22.489-55.251-26.947-66.265-27.013-66.733a3.918 3.918 0 0 1-.004-1.091c.056-.394 1.96-5.51 7.416-19.92 5.711-15.086 7.319-19.409 7.244-19.479-.168-.158-5.06-1.238-8.456-1.865a181.147 181.147 0 0 0-22.57-2.753c-6.432-.383-14.37-.383-20.802 0a179.13 179.13 0 0 0-24.705 3.177c-2.4.482-4.994 1.055-6.018 1.331-.291.079-.335.117-.303.263.02.095 3.367 8.809 7.436 19.365 4.069 10.557 7.448 19.37 7.51 19.587.166.578.15 1.629-.034 2.198-.083.259-12.274 30.06-27.09 66.225-14.815 36.165-26.938 65.809-26.938 65.874 0 .14.24.19 2.63.534 1.791.259 5.376.68 5.899.694.295.007.328-.011.36-.208zM96.455 79.145c-8.718-.17-17.484-.923-22.255-1.913-2.803-.581-4.121-1.134-4.121-1.73 0-1.318 7.996-2.718 18.997-3.326 7.252-.401 15.832-.401 23.158-.001 10.335.565 17.992 1.821 18.94 3.108.13.177.138.233.053.393-.136.255-.271.356-.83.62-3.833 1.808-19.57 3.13-33.942 2.85zm26.596-23.556l-.023-.53-.928-.152c-1.037-.171-1.025-.175-1.115.362-.085.498-.167.511-1.136.18-.476-.163-.906-.346-.956-.406-.07-.084-.05-.207.088-.54.099-.238.166-.442.15-.454-.17-.123-1.596-.913-1.649-.913-.039 0-.182.16-.32.353-.136.195-.3.354-.363.354-.236 0-1.582-1.13-1.582-1.327 0-.074.124-.254.275-.4.15-.147.275-.3.275-.34 0-.076-1.063-1.356-1.194-1.437-.042-.025-.228.064-.415.198-.405.29-.515.302-.665.068-.488-.759-.867-1.443-.867-1.565 0-.092.108-.194.295-.278.576-.26.583-.28.34-.872a15.2 15.2 0 0 1-.32-.838c-.056-.172-.136-.336-.177-.362-.041-.027-.236 0-.433.058-.197.06-.403.108-.46.108-.122 0-.228-.352-.395-1.323-.143-.832-.126-.872.379-.874.54-.002.536.007.536-1.066v-.969l-.255-.042a8.068 8.068 0 0 0-.49-.062c-.185-.016-.243-.064-.265-.217-.043-.298.232-1.793.348-1.889.072-.06.189-.06.401 0 .588.163.586.164.913-.781.164-.476.277-.898.251-.94-.025-.041-.199-.143-.386-.225-.187-.083-.364-.19-.394-.239-.059-.094.566-1.338.854-1.698l.175-.22.36.249c.437.3.55.308.721.047.072-.11.325-.429.561-.707.474-.559.475-.595.039-1.01-.134-.127-.243-.275-.243-.329 0-.1 1.466-1.364 1.584-1.364.036 0 .192.177.347.392.155.216.295.393.31.393.026 0 .805-.47 1.389-.837l.293-.184-.194-.44c-.107-.242-.177-.47-.155-.505.071-.115 1.693-.713 1.866-.688.129.018.2.126.3.456.1.33.165.43.277.422.225-.016 1.711-.29 1.753-.323.02-.016.027-.252.015-.524l-.022-.495.299-.05c.164-.027.621-.05 1.015-.05.856 0 .923.047.85.604-.038.278-.023.405.054.464.059.044.425.128.813.185 1.143.168 1.073.188 1.201-.331.137-.555.176-.56 1.245-.179.986.353 1.03.397.819.813-.248.485-.219.581.248.818.227.115.596.318.821.452l.41.244.284-.397c.157-.218.321-.397.365-.397.151 0 1.633 1.22 1.633 1.344 0 .04-.145.23-.323.422l-.322.35.224.269c.124.147.384.464.578.703.194.24.408.438.475.44.067.002.273-.107.458-.243l.336-.247.183.189c.182.187.982 1.537.982 1.657 0 .035-.195.158-.432.275-.238.116-.432.245-.432.287 0 .041.11.36.244.71.134.349.28.731.323.85.092.247.14.256.63.108.196-.059.397-.083.445-.053.093.057.4 1.5.4 1.88 0 .212-.022.225-.492.291l-.49.07v.903c0 .497.03.947.068 1.001.038.054.217.098.397.098.581 0 .613.068.472 1.007-.067.446-.156.9-.197 1.01-.071.187-.1.196-.408.14-.702-.127-.661-.157-.964.708-.151.432-.283.838-.293.901-.01.068.152.207.395.339.23.125.412.278.412.348 0 .256-.903 1.749-1.058 1.749-.053 0-.245-.108-.427-.24-.183-.132-.363-.23-.401-.216-.11.038-1.175 1.395-1.175 1.496 0 .05.146.242.326.425l.327.332-.268.253c-.512.482-1.28 1.09-1.377 1.09-.054 0-.212-.16-.351-.353-.14-.195-.285-.354-.323-.354-.038 0-.359.175-.713.388-.354.213-.706.411-.781.44-.178.068-.174.207.02.585.086.17.156.358.156.418 0 .209-1.821.91-1.993.767-.052-.043-.14-.257-.196-.475-.115-.45-.106-.447-.911-.286-.303.06-.685.134-.851.162l-.302.052.025.447c.014.245-.003.49-.037.544-.044.07-.35.098-1.074.098h-1.012zM95.924 37.37c-.07-.044-.093-.264-.078-.759l.02-.696-.863-.131a28.123 28.123 0 0 1-1.29-.223c-.234-.05-.455-.062-.491-.026-.036.036-.138.328-.227.65-.089.32-.19.613-.226.65-.035.035-.536-.094-1.113-.288-1.288-.434-1.634-.579-1.683-.707-.021-.055.069-.335.2-.624.13-.288.237-.576.237-.64 0-.064-.15-.183-.333-.264-.184-.082-.7-.366-1.146-.632-.447-.266-.844-.464-.883-.44-.04.025-.216.257-.392.516-.176.259-.371.49-.434.515-.197.076-2.307-1.63-2.307-1.866 0-.064.195-.308.432-.543.237-.234.43-.463.43-.507 0-.045-.286-.4-.631-.788-.346-.389-.707-.82-.803-.96-.095-.14-.214-.27-.264-.29-.05-.019-.338.14-.64.353-.302.212-.571.387-.598.387-.162 0-1.581-2.456-1.498-2.591.028-.045.293-.204.59-.353.295-.15.556-.302.58-.34.023-.038-.075-.348-.22-.69-.143-.34-.345-.88-.447-1.198-.103-.318-.234-.596-.291-.618-.058-.022-.369.036-.691.13-.322.093-.617.15-.655.127-.146-.09-.596-2.406-.542-2.79.026-.183.07-.2.695-.273l.667-.079v-1.361c0-.75-.02-1.375-.046-1.39-.026-.017-.339-.054-.694-.084-.397-.033-.662-.091-.685-.15-.083-.218.32-2.616.474-2.822.077-.102.164-.096.707.044.403.104.646.133.696.083.042-.042.21-.477.372-.966.163-.49.353-1.021.423-1.182.07-.16.127-.312.127-.337 0-.025-.268-.173-.596-.329-.328-.156-.613-.327-.633-.38-.086-.224 1.242-2.548 1.456-2.548.07 0 .338.142.597.314.26.173.512.314.56.314.05 0 .339-.309.643-.687.303-.377.683-.84.844-1.026l.292-.34-.482-.487c-.266-.267-.483-.526-.483-.575 0-.179 2.03-1.909 2.24-1.909.06 0 .271.23.471.51.2.281.41.51.467.51.056 0 .415-.197.798-.438.382-.241.86-.523 1.062-.626.202-.104.388-.22.412-.26.024-.038-.083-.344-.237-.678-.233-.505-.263-.625-.176-.708.127-.12 1.764-.775 2.283-.913.254-.067.398-.073.453-.018.044.044.15.323.234.62.085.296.183.566.217.6.034.035.503-.026 1.042-.134.538-.108 1.12-.223 1.293-.255l.314-.058-.026-.713-.025-.714.25-.05c.483-.097 2.652-.059 2.72.048.035.054.064.397.064.763v.665l.746.096c.41.052.993.148 1.295.213.302.064.578.089.613.054.035-.035.13-.32.211-.634.08-.313.18-.604.221-.644.086-.086.85.127 1.927.537.984.374.977.364.684 1.01-.133.293-.241.593-.241.666 0 .082.127.192.321.28.177.08.694.366 1.15.637.455.271.85.479.878.462.028-.017.208-.264.4-.547.193-.284.403-.516.469-.516.206.001 2.277 1.661 2.277 1.825 0 .04-.195.288-.432.55-.237.263-.432.511-.432.553 0 .042.203.306.452.586.248.28.62.717.827.97.208.254.421.461.476.461.054 0 .324-.159.6-.353.276-.194.531-.353.567-.353.18 0 1.602 2.447 1.51 2.597-.031.05-.317.209-.635.354s-.578.292-.578.327c0 .036.137.401.306.813.168.411.37.953.448 1.203.08.25.186.47.238.49.052.02.366-.04.698-.133.364-.102.633-.141.676-.098.093.093.436 1.716.505 2.39.062.6.111.56-.79.65-.258.026-.498.075-.532.11-.034.033-.052.66-.04 1.39l.022 1.328.681.079c.375.043.702.1.727.125.124.127-.352 2.803-.517 2.904-.046.029-.336-.014-.645-.094a6.402 6.402 0 0 0-.656-.147c-.053 0-.188.3-.3.669-.112.368-.308.92-.434 1.227-.127.307-.23.59-.23.63 0 .04.266.193.59.342.326.148.612.321.636.386.077.2-1.19 2.436-1.432 2.53-.066.025-.343-.112-.643-.32-.29-.2-.548-.363-.574-.363-.026 0-.225.239-.442.53-.216.292-.592.752-.835 1.024-.242.271-.44.52-.44.552 0 .032.212.268.47.524.26.257.472.499.472.538 0 .165-2.059 1.934-2.25 1.935-.051 0-.273-.248-.494-.551-.455-.626-.345-.622-1.25-.041-.286.183-.74.449-1.01.59-.27.143-.491.285-.491.317 0 .032.124.33.275.663.152.332.259.632.238.666-.053.085-1.444.653-2.143.875-.416.132-.592.158-.656.094-.048-.048-.153-.326-.234-.619-.081-.293-.178-.562-.214-.598-.036-.037-.522.021-1.08.128-.558.108-1.15.217-1.316.243l-.303.049.028.718.027.72-.314.056c-.43.078-2.489.078-2.611 0z" fill="#edbb1e"/></svg>