<?xml version="1.0" encoding="UTF-8" standalone="no"?>
<!-- Created with Inkscape (http://www.inkscape.org/) -->

<svg
   xmlns:dc="http://purl.org/dc/elements/1.1/"
   xmlns:cc="http://creativecommons.org/ns#"
   xmlns:rdf="http://www.w3.org/1999/02/22-rdf-syntax-ns#"
   xmlns:svg="http://www.w3.org/2000/svg"
   xmlns="http://www.w3.org/2000/svg"
   xmlns:sodipodi="http://sodipodi.sourceforge.net/DTD/sodipodi-0.dtd"
   xmlns:inkscape="http://www.inkscape.org/namespaces/inkscape"
   version="1.1"
   id="svg2"
   width="200"
   height="283"
   viewBox="0 0 200 283"
   sodipodi:docname="GSWAI_yellow.svg"
   inkscape:version="0.92.2 2405546, 2018-03-11"
   inkscape:export-filename="/home/arch/Documents/Jekyll/jekyll-bulma/assets/images/GSWAI_yellow4.png"
   inkscape:export-xdpi="96.089996"
   inkscape:export-ydpi="96.089996">
  <metadata
     id="metadata8">
    <rdf:RDF>
      <cc:Work
         rdf:about="">
        <dc:format>image/svg+xml</dc:format>
        <dc:type
           rdf:resource="http://purl.org/dc/dcmitype/StillImage" />
        <dc:title></dc:title>
      </cc:Work>
    </rdf:RDF>
  </metadata>
  <defs
     id="defs6" />
  <sodipodi:namedview
     pagecolor="#ffffff"
     bordercolor="#666666"
     borderopacity="1"
     objecttolerance="10"
     gridtolerance="10"
     guidetolerance="10"
     inkscape:pageopacity="0"
     inkscape:pageshadow="2"
     inkscape:window-width="1364"
     inkscape:window-height="732"
     id="namedview4"
     showgrid="false"
     inkscape:zoom="8.3721443"
     inkscape:cx="99.540994"
     inkscape:cy="55.085346"
     inkscape:window-x="0"
     inkscape:window-y="35"
     inkscape:window-maximized="0"
     inkscape:current-layer="svg2"
     fit-margin-top="0"
     fit-margin-left="0"
     fit-margin-right="0"
     fit-margin-bottom="0"
     inkscape:pagecheckerboard="true" />
  <path
     id="path15"
     style="fill:#ffffff;fill-opacity:1;stroke:#ffffff;stroke-width:0.24502794"
     d="m 93.637621,150.96474 7.779629,-0.0648 7.77965,-0.0646 0.07,-2.09159 0.07,-2.09161 -0.83915,-0.30344 c -1.65748,-0.59935 -1.72208,-2.73608 -0.12335,-4.08132 1.66101,-1.39766 3.88528,-0.29745 3.88528,1.92181 0,1.00193 -0.0962,1.18725 -0.98895,1.90467 l -0.98894,0.79474 0.0701,2.09588 0.0701,2.09589 h 8.33095 8.33094 l 0.1333,2.16263 0.0598,2.39372 v 1.64001 l 0.84549,0.11208 0.84548,0.11208 0.12017,1.53594 c 0.066,0.84478 0.0643,2.90212 -0.004,4.57186 l -0.12408,3.0359 h -0.84165 -0.84157 v 40.42923 40.42922 l -2.88647,0.11369 c -1.58757,0.0626 -3.52509,0.11369 -4.30559,0.11369 h -1.4191 l -0.11255,-1.58595 c -0.062,-0.8723 -0.11258,-7.18816 -0.11258,-14.03528 0,-13.63854 -0.0277,-14.11372 -1.04806,-17.9549 -1.20789,-4.54729 -3.14835,-7.87568 -6.45853,-11.07795 -3.09012,-2.98944 -6.51327,-4.87816 -12.216378,-6.74043 -2.234596,-0.72966 -3.710133,-1.30779 -4.034543,-1.58077 -1.064811,-0.89599 -1.016899,-0.25741 -1.039299,-13.85154 -0.01115,-6.84203 -0.07039,-12.67334 -0.131405,-12.95844 -0.09775,-0.45692 -0.208289,-0.53617 -0.932435,-0.66848 l -0.821533,-0.15008 v -4.48581 -4.48607 h 0.847771 c 0.613223,0 0.876862,-0.0759 0.952935,-0.27404 0.05783,-0.15069 0.105158,-1.08634 0.09179,-3.76431 z m 22.637349,25.29748 c 2.24162,-0.33653 4.07162,-0.88387 4.07162,-1.21777 0,-0.43127 -1.07473,-2.68224 -1.27933,-2.67947 -0.10637,9.9e-4 -0.81712,0.19634 -1.57948,0.4333 -2.31234,0.71856 -4.83198,1.00757 -7.79673,0.89434 -2.62962,-0.10038 -4.04034,-0.34313 -5.84414,-1.00543 -0.54607,-0.20038 -1.10304,-0.32223 -1.23771,-0.27055 -0.24148,0.0927 -1.06386,1.71576 -1.25481,2.47655 -0.0889,0.35441 0.0125,0.42507 1.08535,0.75648 1.05645,0.32628 3.02436,0.71521 4.73903,0.9366 1.1852,0.15292 7.39103,-0.068 9.0962,-0.32405 z m -9.38124,-8.81612 c 2.04724,-0.85538 3.18537,-3.32698 2.46349,-5.3498 -0.79932,-2.23984 -3.50245,-3.38759 -5.69063,-2.41622 -1.71251,0.76019 -2.7903,2.85412 -2.38993,4.64312 0.55171,2.46531 3.40039,4.04909 5.61707,3.1229 z m 10.70522,0.0372 c 1.37514,-0.412 2.60607,-1.88457 2.84989,-3.40934 0.27064,-1.6925 -0.93971,-3.79052 -2.561,-4.43923 -2.7945,-1.11815 -5.73958,0.87989 -5.7514,3.90194 -0.004,0.93024 0.0814,1.28324 0.46823,1.94329 1.05473,1.79977 3.02964,2.59196 4.99428,2.00334 z"
     inkscape:connector-curvature="0"
     sodipodi:nodetypes="cccccscssccccccccccccccccccsccsssscccccccscccsscsssccccscsccccssccc" />
  <path
     style="fill:#ffffff;fill-opacity:1;stroke:#ffffff;stroke-width:0.17326093"
     d="m 130.70039,237.72735 -0.0449,-9.65698 -0.45427,-0.21767 c -0.92044,-0.44114 -0.93325,-0.50533 -0.9131,-4.58125 0.0166,-3.34417 0.054,-3.82621 0.3213,-4.12145 0.16643,-0.18381 0.46987,-0.35821 0.67434,-0.38736 0.36196,-0.0515 0.37297,-0.13318 0.41894,-3.10079 l 0.0471,-3.04782 4.02444,-0.11369 c 2.21343,-0.0626 4.90845,-0.11396 5.98894,-0.11409 l 1.96452,-5.2e-4 -0.0587,-1.93055 c -0.0505,-1.66489 -0.10321,-1.95697 -0.38273,-2.12247 -1.79583,-1.06315 -2.18821,-1.63967 -2.18821,-3.21539 0,-1.00897 0.0651,-1.24153 0.52052,-1.86086 0.65474,-0.89029 1.55915,-1.33563 2.68933,-1.32419 1.86579,0.0181 3.37407,1.55865 3.37407,3.44458 0,0.89303 -0.77683,2.21679 -1.55878,2.65625 -0.78647,0.44202 -0.78325,0.42479 -0.49685,2.65811 0.14008,1.09217 0.27737,1.57599 0.47648,1.67911 0.15385,0.0796 1.72212,0.19453 3.48503,0.25522 1.76293,0.0607 4.12145,0.15856 5.24115,0.21742 l 2.03581,0.10711 v 2.72776 2.72778 l 0.68076,0.10872 c 1.21406,0.19413 1.22512,0.2313 1.22512,4.11748 0,2.0488 -0.073,3.60069 -0.17874,3.79821 -0.10764,0.2012 -0.44258,0.37612 -0.84239,0.44007 -0.36504,0.0583 -0.75359,0.1616 -0.86345,0.22958 -0.18505,0.11436 -0.52409,10.96481 -0.53692,17.18398 l -0.004,2.01053 -2.12245,0.11437 c -3.74995,0.20204 -20.98233,0.97532 -21.74279,0.97556 l -0.73489,2.4e-4 z m 17.29968,-5.75412 c 1.75662,-0.42333 2.84046,-0.85088 2.84046,-1.12049 0,-0.26761 -0.70491,-2.40251 -0.84592,-2.56195 -0.0591,-0.0668 -0.90082,0.15029 -1.87048,0.48212 -2.42632,0.83075 -4.98908,0.98971 -7.14693,0.44337 -0.8031,-0.2033 -1.78282,-0.52593 -2.17715,-0.71683 -0.39434,-0.19088 -0.80296,-0.34707 -0.90805,-0.34707 -0.15974,0 -0.3841,0.56929 -1.00892,2.56037 -0.15293,0.4873 2.11554,1.29471 4.68798,1.66851 1.15988,0.16845 5.06492,-0.0794 6.42901,-0.40803 z m -7.57472,-7.61868 c 0.73326,-0.52213 1.11943,-1.31664 1.12287,-2.31028 0.003,-0.93408 -0.35371,-1.53622 -1.29255,-2.18042 -0.49287,-0.33819 -0.75549,-0.39364 -1.58866,-0.33534 -0.85227,0.0598 -1.08702,0.15594 -1.60601,0.659 -1.05971,1.02708 -1.15146,2.54047 -0.22541,3.71776 0.79344,1.00871 2.50354,1.22273 3.58976,0.44928 z m 9.17882,0.0325 c 0.79163,-0.58624 1.23641,-1.40731 1.2357,-2.28113 -9.8e-4,-1.54465 -1.10684,-2.61478 -2.7026,-2.61598 -2.95244,-10e-4 -3.68001,4.03184 -0.93514,5.18506 0.61634,0.25896 1.86579,0.10926 2.40204,-0.28795 z"
     id="path13"
     inkscape:connector-curvature="0" />
  <path
     style="fill:#ffffff;fill-opacity:1;stroke:#ffffff;stroke-width:0.17326093"
     d="m 80.583215,247.72075 c -9.979371,-0.0915 -12.987821,-0.17695 -16.979569,-0.48168 -2.668217,-0.2037 -5.143439,-0.37122 -5.500491,-0.37241 l -0.649186,-0.001 -0.04385,-26.9854 -0.04385,-26.9854 -0.882676,-0.0515 -0.882678,-0.0515 -0.116635,-3.2284 c -0.09105,-2.52007 -0.06842,-3.259 0.103022,-3.36782 0.120801,-0.0766 0.570476,-0.1406 0.999298,-0.14201 l 0.779675,-0.003 v -1.98699 c 0,-3.00687 -0.612751,-2.75844 7.064994,-2.86441 l 6.276096,-0.0867 0.04966,-1.4888 0.04966,-1.4888 -0.672315,-0.44492 c -2.019048,-1.33616 -1.421637,-4.27453 0.980561,-4.82284 1.332354,-0.30416 2.951748,0.63213 3.34111,1.93172 0.296971,0.99116 -0.167094,2.10606 -1.171245,2.81386 l -0.758198,0.53445 v 1.41668 1.41669 l 0.649727,0.10751 c 0.357351,0.0591 2.092128,0.10845 3.855057,0.10993 1.76293,9.9e-4 4.446046,0.0539 5.96248,0.11678 3.529221,0.14645 3.393609,0.0368 3.393609,2.74332 v 1.99248 l 0.563098,0.003 c 1.02988,0.004 1.076964,0.11114 1.1433,2.57836 l 0.06042,2.24732 -0.666833,0.055 -0.666833,0.055 0.06621,4.95419 0.06621,4.95417 -3.358168,2.0463 c -3.792602,2.31099 -4.655575,3.0848 -6.485003,5.81492 -1.198688,1.78886 -1.882896,3.17871 -2.766972,5.62067 l -0.564541,1.55934 -3.917695,0.0867 -3.917693,0.0867 -0.5835,0.82107 c -0.773767,1.08879 -1.042164,2.1122 -0.937523,3.57469 0.09961,1.39245 0.621801,2.46582 1.447957,2.97639 0.496296,0.30674 0.879637,0.33797 4.147851,0.33797 h 3.601015 l -0.11247,2.64223 c -0.06187,1.45324 -0.164246,4.97304 -0.227506,7.82176 l -0.114996,5.17955 3.338074,-0.0875 c 2.587336,-0.0679 3.372358,-0.14181 3.490508,-0.32823 0.16972,-0.268 0.218631,-9.66965 0.05259,-10.10239 -0.08183,-0.21323 -0.370254,-0.27406 -1.299457,-0.27406 H 77.5512 v -0.58788 c 0,-0.60073 -0.217853,-0.79822 -0.880474,-0.79822 -0.305331,0 -0.332353,-0.13978 -0.332353,-1.72162 v -1.72162 l 0.563096,-0.0543 c 0.495134,-0.0477 0.569653,-0.12215 0.617395,-0.61739 0.04874,-0.50563 0.110615,-0.56329 0.606411,-0.56501 0.303669,-9.6e-4 0.837378,-0.049 1.186024,-0.1067 0.627598,-0.10388 0.636007,-0.11638 0.845311,-1.25425 1.140593,-6.20137 5.038813,-11.33511 10.256493,-13.50726 1.276056,-0.53122 4.319493,-1.24313 5.314393,-1.24313 0.520527,0 0.536549,-0.0237 0.559158,-0.82298 0.04802,-1.69931 -0.0414,-2.37882 -0.336265,-2.55562 -0.158934,-0.0953 -0.58237,-0.45645 -0.940937,-0.80259 -0.553819,-0.53461 -0.651943,-0.74075 -0.651943,-1.3696 0,-0.63953 0.09528,-0.8309 0.700341,-1.40646 0.645065,-0.61364 0.778387,-0.66613 1.689297,-0.66508 1.104139,9.8e-4 1.766855,0.33161 2.306103,1.14954 0.6936,1.05204 0.303335,2.24698 -0.955209,2.92474 l -0.621833,0.33488 v 1.58033 1.58032 l 1.516033,0.21016 c 6.986889,0.96859 12.354689,5.94684 14.182819,13.15359 0.22793,0.89849 0.41441,1.81581 0.41441,2.03848 0,0.43011 0.4442,0.76355 1.01721,0.76355 0.26476,0 0.35978,0.13359 0.40122,0.5631 0.0477,0.49513 0.12226,0.56964 0.61739,0.6174 l 0.56309,0.0543 v 1.70234 1.70233 l -0.59586,0.11195 c -0.5161,0.0968 -0.60309,0.18645 -0.64974,0.66901 -0.0439,0.45375 -0.1373,0.56693 -0.50329,0.60945 l -0.44945,0.0523 -0.11364,3.13754 c -0.0625,1.72569 -0.11367,6.04889 -0.11367,9.6071 v 6.46953 l -10.5256,-0.0361 c -5.789081,-0.0208 -15.983326,-0.0863 -22.653871,-0.14725 z m 19.665115,-17.22871 c 1.9343,-0.0945 5.94723,-0.78608 6.60525,-1.13827 0.43366,-0.23204 0.41998,-0.3259 -0.26307,-1.80428 l -0.58825,-1.27321 -1.44757,0.42296 c -2.43181,0.71051 -4.14972,0.93336 -7.195166,0.93336 -3.04429,0 -4.419822,-0.19776 -6.646096,-0.95483 -0.697385,-0.2372 -1.296339,-0.43125 -1.331017,-0.43125 -0.110695,0 -1.262343,2.49318 -1.262343,2.73281 0,0.7508 6.427877,1.88135 9.442718,1.66082 0.381177,-0.0278 1.589668,-0.0945 2.685544,-0.14827 z m -6.394807,-9.45144 c 0.423405,-0.216 0.899619,-0.67311 1.218378,-1.1695 0.471754,-0.73466 0.517381,-0.92771 0.463239,-1.96006 -0.06846,-1.30527 -0.484917,-2.07613 -1.495882,-2.76886 -0.504326,-0.34556 -0.823111,-0.41751 -1.849679,-0.41751 -1.072403,0 -1.333889,0.0649 -1.931314,0.47884 -2.769938,1.91958 -1.462873,6.18459 1.89702,6.19006 0.671519,10e-4 1.232941,-0.11557 1.698238,-0.35297 z m 9.823607,-0.14827 c 1.22225,-0.62683 1.94229,-1.76574 1.94229,-3.07226 0,-2.22196 -2.10891,-3.90278 -4.19901,-3.3467 -1.580723,0.4206 -2.617982,1.76038 -2.62733,3.3936 -0.01394,2.43038 2.72996,4.13002 4.88405,3.02536 z M 74.937248,202.33199 c 2.248648,-0.23684 4.693033,-0.82599 4.693033,-1.13117 0,-0.2969 -0.811639,-2.15627 -0.941234,-2.15627 -0.05171,0 -0.855154,0.20453 -1.785458,0.4545 -1.326099,0.35634 -2.234124,0.47298 -4.203744,0.53993 -2.805754,0.0953 -4.435757,-0.0935 -6.235415,-0.72215 l -1.18296,-0.41332 -0.517208,1.1534 c -0.284467,0.63438 -0.482582,1.21085 -0.440257,1.28108 0.124995,0.20738 1.77987,0.63822 3.445858,0.89712 1.866397,0.29007 4.938924,0.33159 7.167385,0.0968 z m -6.110113,-8.06994 c 1.323929,-1.07156 1.780466,-2.22477 1.430678,-3.61392 -0.60136,-2.38823 -3.504168,-3.39935 -5.466918,-1.9043 -1.166523,0.88856 -1.591522,2.75218 -0.946409,4.14998 0.631109,1.36741 1.727428,2.02095 3.261252,1.94416 0.893381,-0.0446 1.186113,-0.14261 1.721397,-0.57592 z m 9.376945,0.18281 c 1.318114,-0.55074 2.119247,-1.75245 2.119247,-3.17887 0,-1.05459 -0.22442,-1.68309 -0.834013,-2.33574 -2.753249,-2.94769 -7.40111,0.38118 -5.533961,3.96353 0.795027,1.52536 2.67111,2.21027 4.248727,1.55108 z"
     id="path9"
     inkscape:connector-curvature="0" />
  <path
     style="fill:#edbb1e;stroke-width:0.07850172"
     d="m 17.938845,282.20348 c -2.670185,-0.42442 -4.861537,-2.0708 -5.831057,-4.38093 -0.453544,-1.08066 -0.552996,-1.63424 -0.545612,-3.03682 0.006,-1.1308 0.02787,-1.326 0.219805,-1.9577 0.802484,-2.64097 2.861805,-4.52773 5.632572,-5.16066 0.562219,-0.12847 1.002909,-0.16887 1.873417,-0.17171 1.233972,-0.004 2.016364,0.11961 3.022317,0.47814 1.129319,0.4026 2.708306,1.35822 2.708306,1.63915 0,0.14443 -1.540301,2.14412 -1.698334,2.20477 -0.05726,0.022 -0.237296,-0.065 -0.400039,-0.19311 -0.517106,-0.40724 -1.090854,-0.72464 -1.76283,-0.97521 -0.842297,-0.31403 -2.152024,-0.39464 -2.968443,-0.1826 -1.52021,0.39474 -2.772435,1.64818 -3.181258,3.18439 -0.187724,0.70538 -0.151627,1.91657 0.07866,2.64182 0.451436,1.4215 1.547688,2.50399 2.984831,2.94735 1.056904,0.32605 2.494147,0.16989 3.65033,-0.39634 l 0.431758,-0.21151 0.02109,-1.90549 0.02108,-1.90547 1.392009,0.0214 1.392008,0.0214 0.02052,2.73073 0.02052,2.73075 -0.189052,0.17513 c -0.513131,0.47554 -2.34097,1.25221 -3.659577,1.55501 -0.766839,0.17614 -2.543677,0.25718 -3.233164,0.14745 z m 20.272796,-0.0848 c -2.663489,-0.34469 -4.533571,-2.16698 -4.877704,-4.75309 -0.376294,-2.82754 1.092352,-5.30627 3.618783,-6.10769 0.861015,-0.2731 1.784664,-0.3878 2.682846,-0.33307 1.015983,0.0621 1.674733,0.22871 2.535654,0.64224 1.984938,0.95338 3.040984,2.85341 2.921023,5.2555 -0.06791,1.35986 -0.383064,2.2807 -1.10874,3.23957 -1.188686,1.57073 -3.410038,2.36218 -5.771862,2.05654 z m 2.163826,-2.78242 c 0.478345,-0.23271 1.080674,-0.85079 1.289734,-1.32339 0.08258,-0.18665 0.185921,-0.5917 0.229643,-0.90007 0.204552,-1.44226 -0.382843,-2.74908 -1.477304,-3.28651 -0.395968,-0.19433 -0.529862,-0.21822 -1.229386,-0.21822 -0.822181,0 -1.098166,0.0868 -1.706234,0.53633 -0.331156,0.2448 -0.741082,0.89893 -0.888272,1.41736 -0.197151,0.69452 -0.13334,1.82962 0.135603,2.41257 0.227482,0.493 0.656962,1.00624 1.040222,1.24313 0.701044,0.43329 1.851808,0.48573 2.605986,0.1188 z m 12.856814,2.79452 c -0.883266,-0.1406 -1.609114,-0.48305 -2.191447,-1.03377 -0.223632,-0.2115 -0.445915,-0.38454 -0.493972,-0.38454 -0.05525,0 -0.09577,0.23806 -0.110172,0.64762 l -0.02283,0.64767 -1.525068,0.0214 c -1.16759,0.0161 -1.539934,-10e-4 -1.588456,-0.0786 -0.03486,-0.055 -0.06393,-3.42256 -0.0646,-7.48365 0,-5.79529 0.0198,-7.41273 0.09718,-7.51833 0.08796,-0.12041 0.256702,-0.1321 1.589661,-0.11316 l 1.491264,0.0214 0.02052,2.76718 c 0.01115,1.52197 0.041,2.7672 0.06592,2.7672 0.02493,0 0.245268,-0.17858 0.489629,-0.39676 1.347925,-1.20355 3.457608,-1.42829 5.293274,-0.56385 1.788121,0.84204 2.811047,2.71988 2.811047,5.16042 0,3.2681 -1.843538,5.40635 -4.799986,5.56732 -0.364054,0.0208 -0.84203,0.007 -1.062129,-0.0274 z m 1.071745,-2.84703 c 0.562687,-0.26098 0.982083,-0.69237 1.282107,-1.31886 0.233492,-0.4875 0.24436,-0.55397 0.243478,-1.4915 0,-0.92235 -0.01474,-1.00927 -0.22854,-1.44741 -0.277136,-0.56744 -0.791028,-1.09738 -1.285907,-1.32604 -0.300539,-0.13879 -0.51377,-0.1703 -1.153704,-0.1703 -0.723198,0 -0.818062,0.0181 -1.204856,0.23254 -0.886846,0.49125 -1.402554,1.35302 -1.481547,2.47578 -0.110212,1.56616 0.657941,2.83323 1.936758,3.19481 0.54181,0.15311 1.383668,0.0868 1.892211,-0.14907 z m 8.837674,2.83501 c -1.879673,-0.38615 -3.037378,-2.05458 -2.727517,-3.93081 0.171518,-1.03869 0.729377,-1.79435 1.663083,-2.2529 0.817596,-0.40151 1.385409,-0.48736 3.555147,-0.53751 l 1.951749,-0.0453 -0.03453,-0.41604 c -0.04626,-0.55765 -0.317638,-0.9539 -0.855105,-1.2484 -0.372834,-0.20432 -0.517842,-0.23561 -1.216507,-0.26254 -0.93233,-0.036 -1.66139,0.1188 -2.73706,0.5809 -0.392752,0.16867 -0.706664,0.26193 -0.745349,0.22139 -0.116595,-0.12216 -0.866242,-1.8444 -0.866242,-1.98994 0,-0.27339 1.95295,-1.01115 3.22073,-1.21677 2.739584,-0.44432 4.916072,0.22333 5.842343,1.79212 0.495787,0.83969 0.521005,1.11342 0.49662,5.38729 l -0.02184,3.80734 h -1.491538 -1.491532 l -0.02404,-0.47101 c -0.0133,-0.25906 -0.05577,-0.50304 -0.0947,-0.54212 -0.04218,-0.0425 -0.197798,0.0437 -0.385369,0.21311 -0.368957,0.33334 -0.894772,0.61275 -1.497788,0.79589 -0.520097,0.15798 -2.004861,0.22526 -2.540782,0.11517 z m 3.011793,-2.38453 c 0.517841,-0.18645 0.940008,-0.50598 1.191313,-0.90153 0.191677,-0.30176 0.221716,-0.4274 0.221716,-0.92791 v -0.57886 l -1.707411,0.025 c -1.614634,0.0238 -1.722941,0.0347 -1.99343,0.20308 -0.517792,0.322 -0.669911,0.9376 -0.386104,1.56263 0.157783,0.34754 0.372661,0.52569 0.849463,0.70427 0.367386,0.13756 1.328419,0.0919 1.824453,-0.0867 z m 62.293937,2.38746 c -1.61207,-0.25218 -2.91571,-1.17108 -3.63787,-2.56423 -1.25311,-2.41743 -0.79768,-5.80697 0.99684,-7.41881 0.89553,-0.80438 1.80546,-1.15557 3.14848,-1.21516 1.44993,-0.0644 2.43542,0.2591 3.32002,1.08958 0.22156,0.20802 0.43023,0.37821 0.46369,0.37821 0.0335,0 0.0701,-1.24523 0.0815,-2.76718 l 0.0205,-2.7672 h 1.53078 1.53078 v 7.57542 7.57544 h -1.53078 -1.53078 l -0.0226,-0.68693 c -0.0128,-0.37775 -0.0447,-0.68685 -0.0715,-0.68685 -0.0268,0 -0.24812,0.19029 -0.49183,0.42262 -0.48148,0.45927 -1.07448,0.79689 -1.69065,0.9626 -0.53072,0.14281 -1.54558,0.19189 -2.11675,0.10267 z m 2.71834,-2.73958 c 1.10513,-0.51946 1.72546,-1.72221 1.6078,-3.11736 -0.0989,-1.17339 -0.68477,-2.07337 -1.62397,-2.49485 -0.43335,-0.19431 -0.55187,-0.21314 -1.20042,-0.18867 -0.55465,0.0208 -0.804,0.0687 -1.08811,0.2085 -0.51937,0.25578 -0.98904,0.75373 -1.27256,1.34923 -0.22828,0.4795 -0.24283,0.56465 -0.24154,1.41303 0,0.75318 0.0308,0.97622 0.17925,1.34608 0.31266,0.77928 0.97944,1.39806 1.7388,1.61362 0.51153,0.14523 1.45272,0.0812 1.90074,-0.12955 z m 17.17902,2.74113 c -1.36643,-0.28781 -2.32692,-1.34008 -2.50986,-2.7496 -0.0418,-0.32147 -0.0769,-1.72373 -0.0784,-3.11615 l -0.001,-2.53168 h -0.64763 c -0.35621,0 -0.69289,-0.0298 -0.74822,-0.0651 -0.0753,-0.0477 -0.095,-0.3194 -0.0785,-1.07824 l 0.022,-1.01436 0.70651,-0.0394 0.70651,-0.0394 0.0437,-1.49152 c 0.0239,-0.82034 0.0505,-1.50113 0.0589,-1.51279 0.008,-0.0121 0.71291,-0.0121 1.56565,0 l 1.55039,0.0214 0.0392,1.49153 0.0394,1.49154 1.45229,0.0394 1.45228,0.0394 0.022,0.97023 c 0.0148,0.6483 -0.008,1.00646 -0.0685,1.0794 -0.0712,0.0859 -0.39136,0.10925 -1.49402,0.10925 h -1.40338 v 2.51594 c 0,2.67767 0.009,2.75004 0.39273,3.09712 0.23412,0.21185 0.97294,0.19896 1.60544,-0.0279 0.25707,-0.0921 0.4901,-0.14139 0.51784,-0.10926 0.0995,0.11531 0.63269,2.13986 0.58432,2.21813 -0.0785,0.12686 -0.58083,0.35953 -1.17704,0.54499 -0.62621,0.19472 -1.97991,0.27885 -2.5513,0.15856 z m 15.86212,-0.004 c -2.66352,-0.34472 -4.53357,-2.16696 -4.87771,-4.75308 -0.37629,-2.82756 1.09236,-5.30628 3.6188,-6.1077 0.861,-0.27311 1.78465,-0.38781 2.68283,-0.33309 1.01599,0.062 1.67472,0.22875 2.53565,0.64226 1.98494,0.95338 3.04098,2.85341 2.92104,5.25549 -0.068,1.35986 -0.38308,2.2807 -1.10875,3.23962 -1.18869,1.57067 -3.41004,2.36214 -5.77186,2.0565 z m 2.16381,-2.78242 c 0.47834,-0.23274 1.08068,-0.85078 1.28975,-1.3234 0.0827,-0.18665 0.1859,-0.59169 0.22964,-0.90006 0.20453,-1.44228 -0.38287,-2.74905 -1.47733,-3.28652 -0.39594,-0.19432 -0.52986,-0.2182 -1.22937,-0.2182 -0.82218,0 -1.09815,0.0868 -1.70622,0.53631 -0.33115,0.24482 -0.74112,0.89891 -0.88827,1.41735 -0.19719,0.69454 -0.13332,1.82966 0.13561,2.41261 0.22746,0.49297 0.65695,1.00624 1.04019,1.2431 0.70107,0.43327 1.85184,0.48575 2.606,0.1188 z m -138.477786,2.58862 c -0.02654,-0.0693 -0.04826,-3.43679 -0.04826,-7.48356 0,-5.77287 0.02108,-7.3867 0.0984,-7.49229 0.08796,-0.12014 0.256673,-0.1321 1.589657,-0.11315 l 1.491264,0.0214 v 7.5754 7.57543 l -1.541381,0.0214 c -1.354082,0.0181 -1.547245,0.007 -1.58966,-0.10469 z m 45.609495,0 c -0.02654,-0.0693 -0.04827,-3.43679 -0.04827,-7.48356 0,-5.77287 0.02109,-7.3867 0.0984,-7.49229 0.08794,-0.12014 0.256678,-0.1321 1.589662,-0.11315 l 1.491263,0.0214 v 7.5754 7.57543 l -1.541383,0.0214 c -1.354082,0.0181 -1.547243,0.007 -1.589659,-0.10469 z m 9.648205,0.0465 c -0.04514,-0.0731 5.932546,-13.96842 6.105813,-14.19313 0.05871,-0.0763 0.466695,-0.0948 1.732509,-0.0786 l 1.655652,0.0212 3.002492,7.02594 c 1.651385,3.86421 3.00331,7.0884 3.004307,7.16477 0.002,0.12928 -0.11595,0.13736 -1.701173,0.11772 l -1.702978,-0.0212 -0.542741,-1.35418 -0.542716,-1.35421 h -3.319348 -3.319396 l -0.406981,1.00088 c -0.22383,0.55051 -0.483793,1.15988 -0.577677,1.35416 l -0.17071,0.35327 -1.584016,0.0214 c -1.004946,0.0121 -1.601952,-0.008 -1.633033,-0.0579 z m 9.851523,-5.43869 c 0.0024,-0.20514 -2.077009,-5.24142 -2.153401,-5.21595 -0.08274,0.0274 -2.163088,5.04081 -2.164489,5.21595 0,0.0762 0.482909,0.0982 2.158037,0.0982 1.674124,0 2.159045,-0.0222 2.159853,-0.0982 z m 7.257263,5.41664 c -0.0205,-0.0539 -0.0283,-3.27744 -0.0172,-7.16328 l 0.0203,-7.06516 1.56434,-0.0214 c 1.19904,-0.0161 1.57914,0.001 1.62771,0.0786 0.0727,0.1145 0.0905,13.95672 0.018,14.14523 -0.0413,0.10751 -0.25792,0.12404 -1.61177,0.12404 -1.17897,0 -1.57328,-0.0242 -1.60151,-0.0982 z m 11.22594,0 c -0.0205,-0.0543 -0.0285,-3.27798 -0.0174,-7.16383 l 0.0203,-7.06516 5.41163,-0.0208 c 4.27737,-0.0161 5.4248,0 5.4743,0.0786 0.0345,0.0543 0.0632,0.6172 0.0639,1.25096 0,0.94398 -0.0211,1.17458 -0.12214,1.27565 -0.10868,0.10872 -0.56649,0.12324 -3.84659,0.12324 h -3.72321 v 1.5308 1.53078 h 3.4064 c 3.03381,0 3.41164,0.0121 3.45409,0.12417 0.0263,0.0685 0.0476,0.63097 0.0476,1.25044 0,0.91918 -0.0226,1.14891 -0.12339,1.24957 -0.10825,0.10832 -0.53095,0.12323 -3.45573,0.12323 h -3.33238 l 0.0213,1.55039 0.0213,1.55043 3.90735,0.0208 3.90736,0.0206 -0.0216,1.3142 -0.0215,1.31415 -5.51701,0.0208 c -4.372,0.0161 -5.52483,0 -5.55464,-0.0786 z m 27.65019,0.0469 c -0.0297,-0.0297 -0.0539,-2.4843 -0.0539,-5.45471 0,-5.25924 0.004,-5.4029 0.15181,-5.48204 0.22699,-0.12135 2.76634,-0.10684 2.93476,0.0161 0.12377,0.0908 0.1321,0.49215 0.11315,5.51474 l -0.0203,5.41661 -1.53572,0.0214 c -0.84466,0.0121 -1.55999,-10e-4 -1.58966,-0.0326 z m 14.91532,0 c -0.0297,-0.0297 -0.0539,-2.4843 -0.0539,-5.45471 0,-5.25924 0.004,-5.4029 0.15187,-5.48204 0.22697,-0.12135 2.76633,-0.10684 2.93476,0.0161 0.12377,0.0908 0.1321,0.49215 0.11316,5.51474 l -0.0203,5.41661 -1.5357,0.0214 c -0.84465,0.0121 -1.56,-10e-4 -1.58966,-0.0326 z m 19.15442,0 c -0.0297,-0.0297 -0.054,-2.4843 -0.054,-5.45471 0,-5.25924 0.004,-5.4029 0.15187,-5.48204 0.0871,-0.0466 0.70757,-0.0812 1.45744,-0.0812 0.74986,0 1.37021,0.0345 1.45742,0.0812 0.13371,0.0715 0.15187,0.17008 0.15187,0.82427 0,0.40865 0.0202,0.74301 0.0444,0.74301 0.0245,0 0.26548,-0.22432 0.53564,-0.49853 0.80668,-0.81865 1.8652,-1.22413 3.20379,-1.22714 1.90327,-0.004 3.19154,0.88805 3.80692,2.63697 l 0.21799,0.61947 v 3.92509 3.92509 h -1.57003 -1.57002 l -0.0392,-3.37556 -0.0392,-3.37561 -0.2355,-0.42603 c -0.3918,-0.70879 -1.14027,-1.07785 -2.04107,-1.00634 -0.96355,0.0766 -1.64596,0.55862 -2.06965,1.46221 l -0.20688,0.4412 -0.0392,3.14008 -0.0394,3.14005 -1.53571,0.0214 c -0.84467,0.0121 -1.56002,-0.001 -1.58967,-0.0327 z M 139.87774,269.4747 c -0.90187,-0.44642 -1.19789,-1.75907 -0.60136,-2.66655 0.50852,-0.77357 1.80301,-0.91735 2.52799,-0.28079 0.74907,0.65768 0.77614,1.98441 0.0543,2.66129 -0.50659,0.475 -1.35241,0.59718 -1.98093,0.28605 z m 14.91533,0 c -0.90186,-0.44642 -1.19789,-1.75907 -0.60135,-2.66655 0.5085,-0.77357 1.803,-0.91735 2.52798,-0.28079 0.74907,0.65768 0.77613,1.98441 0.0543,2.66129 -0.5066,0.475 -1.3524,0.59718 -1.98093,0.28605 z M 85.268658,255.97922 c -31.44327,-0.36682 -57.429324,-1.84897 -67.315214,-3.83947 -4.031973,-0.81184 -6.125687,-2.10998 -6.770235,-4.19762 -0.224465,-0.72707 -0.23813,-2.1249 -0.02766,-2.82934 0.0774,-0.25906 12.435502,-30.48023 27.462473,-67.15821 15.026945,-36.67798 27.337192,-66.75919 27.356079,-66.84716 0.01959,-0.0919 -3.381117,-9.03004 -7.989831,-20.999186 -6.334747,-16.452472 -8.041691,-20.960053 -8.107438,-21.410227 -0.235994,-1.616018 0.689173,-3.377134 2.146362,-4.08579 1.179931,-0.573824 7.059388,-2.054338 12.364019,-3.113411 3.476863,-0.694142 8.271774,-1.48163 11.775256,-1.933846 1.53125,-0.197658 2.044284,-0.363829 1.976943,-0.64036 -0.0666,-0.273574 -0.482542,-1.376417 -0.541269,-1.435144 -0.02891,-0.02889 -0.233593,-0.0067 -0.454795,0.05053 -0.342781,0.08789 -0.412402,0.08655 -0.471575,-0.0094 -0.101973,-0.165028 -0.338365,-1.54627 -0.287364,-1.679207 0.02493,-0.06491 0.205713,-0.137694 0.421137,-0.169436 0.207587,-0.03064 0.395109,-0.08238 0.416695,-0.115171 0.0216,-0.03266 0.0216,-0.425218 0,-0.872246 l -0.03924,-0.812753 -0.392508,-0.03924 -0.39251,-0.03924 0.01595,-0.588768 c 0.0089,-0.323822 0.06421,-0.747722 0.12322,-0.942021 0.103116,-0.339505 0.117751,-0.352083 0.376563,-0.323082 0.668489,0.07499 0.61631,0.11517 0.903233,-0.697435 0.294015,-0.832696 0.301866,-0.800577 -0.272081,-1.115005 -0.134267,-0.07351 -0.24392,-0.161857 -0.243699,-0.19626 0,-0.128744 0.765147,-1.392423 0.889766,-1.471027 0.129806,-0.08184 0.168792,-0.06719 0.646514,0.243001 0.151822,0.09864 0.198424,0.06316 0.68689,-0.523066 0.288172,-0.345861 0.523999,-0.650694 0.523999,-0.677397 0,-0.02674 -0.129335,-0.191704 -0.287391,-0.366651 l -0.287395,-0.318097 0.519021,-0.491713 c 0.28545,-0.270456 0.61354,-0.553652 0.729033,-0.62934 l 0.210018,-0.137613 0.290455,0.34062 c 0.159741,0.187324 0.323084,0.326779 0.362998,0.309886 0.272008,-0.115171 1.367819,-0.811154 1.367819,-0.868712 0,-0.03911 -0.07368,-0.215465 -0.163742,-0.391997 -0.211807,-0.415138 -0.166488,-0.460468 0.80913,-0.809165 0.829887,-0.296608 0.834893,-0.295546 0.998643,0.212898 0.05195,0.161293 0.124147,0.311633 0.160448,0.334076 0.03627,0.02244 0.289821,-0.0094 0.563397,-0.06975 0.273581,-0.06074 0.632407,-0.133716 0.797383,-0.162045 L 86.4181,44.41316 86.39758,44.024604 c -0.01115,-0.213718 0.01576,-0.424855 0.06003,-0.469203 0.04823,-0.04825 0.424769,-0.07163 0.937433,-0.05819 l 0.856823,0.02244 0.03925,0.426319 0.03925,0.42632 0.785015,0.1317 c 0.431761,0.07244 0.810555,0.11759 0.841759,0.100254 0.0312,-0.0172 0.09669,-0.180121 0.145501,-0.361787 0.04882,-0.181679 0.125156,-0.35297 0.16962,-0.380667 0.0941,-0.05859 1.333055,0.345337 1.60428,0.523038 0.170346,0.111677 0.176063,0.136902 0.07565,0.334291 -0.262762,0.516615 -0.266027,0.51042 0.500494,0.947127 0.390696,0.222574 0.739879,0.404697 0.776015,0.404697 0.0361,0 0.159176,-0.141296 0.273457,-0.314011 0.114297,-0.172703 0.239922,-0.313998 0.279173,-0.313998 0.188405,0 1.417935,1.05617 1.417935,1.218013 0,0.04798 -0.105965,0.188654 -0.235505,0.312762 -0.129523,0.12404 -0.233959,0.280844 -0.232094,0.348321 0.0024,0.06746 0.245683,0.38603 0.541759,0.707876 l 0.53835,0.58518 0.32821,-0.227452 c 0.242176,-0.167838 0.360054,-0.207361 0.4497,-0.150824 0.164972,0.104016 0.882547,1.293231 0.884536,1.465852 0,0.08735 -0.130759,0.202712 -0.357303,0.312762 -0.286163,0.139038 -0.350904,0.206434 -0.319457,0.332611 0.06733,0.270469 0.482448,1.362293 0.539605,1.419448 0.02979,0.02983 0.218086,0.01344 0.418337,-0.03749 0.251894,-0.06343 0.394249,-0.06666 0.461962,-0.01075 0.140531,0.116649 0.398446,1.642478 0.295067,1.745836 -0.04448,0.04448 -0.240883,0.09904 -0.436352,0.12095 -0.195456,0.02204 -0.367236,0.07983 -0.381683,0.128475 -0.01454,0.04865 -0.0079,0.441707 0.01494,0.873456 l 0.04131,0.785028 0.369592,0.04247 c 0.203266,0.02338 0.395722,0.06867 0.427686,0.100657 0.07148,0.07149 -0.08458,1.343532 -0.20227,1.648956 -0.07754,0.201354 -0.109258,0.216472 -0.340282,0.162274 -0.525718,-0.123369 -0.621216,-0.09313 -0.735388,0.233177 -0.05842,0.166883 -0.08673,0.334935 -0.06288,0.373411 0.02477,0.04005 0.855405,0.04905 1.94194,0.02096 1.905775,-0.04919 7.398635,0.06021 10.361265,0.20634 12.25851,0.604908 24.73103,2.399877 35.18439,5.063504 4.23855,1.080038 4.97704,1.360439 5.74097,2.17979 0.53652,0.57541 0.83924,1.100169 1.00759,1.746549 0.13501,0.518241 0.15456,1.402515 0.0419,1.890653 -0.041,0.177957 -3.57843,9.574526 -7.86081,20.88145 -4.28237,11.306931 -7.80137,20.649911 -7.82,20.762151 -0.0238,0.14342 8.06447,20.10037 27.18635,67.07971 14.97113,36.7816 27.26855,67.05229 27.32768,67.26816 0.16467,0.60162 0.22118,1.9071 0.10751,2.48488 -0.46451,2.36112 -2.61039,3.7887 -6.99053,4.65049 -8.97584,1.76603 -30.23565,3.11439 -57.69875,3.65944 -11.38659,0.22598 -28.515897,0.28955 -40.46764,0.15009 z m 28.613892,-17.55218 c 0.0217,-5.27464 0.0664,-9.61751 0.0997,-9.65083 0.0333,-0.0331 0.27175,-0.0758 0.52989,-0.0943 l 0.46937,-0.0339 0.002,-0.48117 c 0,-0.26467 0.0339,-0.53294 0.0739,-0.59614 0.049,-0.0775 0.25304,-0.12525 0.62681,-0.14624 l 0.55413,-0.0315 v -1.83594 -1.83596 h -0.54678 c -0.65272,0 -0.70926,-0.0622 -0.70926,-0.77986 v -0.47613 h -0.5299 c -0.29143,0 -0.57038,-0.027 -0.61987,-0.0587 -0.0495,-0.0317 -0.13178,-0.34025 -0.18289,-0.68565 -0.60728,-4.10291 -2.41459,-7.78933 -5.15653,-10.51793 -2.69151,-2.6784 -6.15189,-4.28704 -10.113909,-4.7017 l -0.863526,-0.0903 -0.0216,-1.01946 c -0.01169,-0.56071 0.006,-1.26383 0.03921,-1.5625 l 0.0608,-0.543 0.499885,-0.2552 c 0.57937,-0.29575 0.962309,-0.6395 1.244178,-1.11689 0.530798,-0.89887 -0.171761,-2.42005 -1.379175,-2.98612 -0.379386,-0.17775 -0.545368,-0.20737 -1.149907,-0.20454 -0.633842,10e-4 -0.755453,0.0289 -1.182233,0.24874 -0.870731,0.44899 -1.515181,1.4121 -1.418231,2.11952 0.104944,0.76553 0.693072,1.50114 1.550065,1.93876 l 0.500892,0.25577 0.0214,1.47482 c 0.01474,1.02123 -0.006,1.50809 -0.06854,1.58309 -0.05367,0.0646 -0.242454,0.10832 -0.468758,0.10832 -0.684142,0 -2.177687,0.2334 -3.234613,0.50553 -3.921113,1.00953 -7.241073,3.4336 -9.575245,6.99139 -1.417595,2.16071 -2.410248,4.74437 -2.877066,7.48835 -0.0866,0.50892 -0.197151,0.92273 -0.256626,0.96039 -0.05745,0.0366 -0.590211,0.0667 -1.183879,0.0676 h -1.079374 v 0.53379 c 0,0.31053 -0.03939,0.57323 -0.09422,0.62801 -0.05476,0.055 -0.317491,0.0942 -0.628014,0.0942 h -0.533812 v 1.84482 1.84478 h 0.476188 c 0.717653,0 0.77984,0.0566 0.77984,0.70928 v 0.54676 h 1.132652 c 0.925022,0 1.155277,0.0226 1.256029,0.12324 0.10958,0.10966 0.123342,0.68727 0.123342,5.17547 0,4.20493 -0.01838,5.07044 -0.108935,5.16111 -0.08637,0.0864 -0.773563,0.12687 -3.316697,0.19554 -1.764254,0.0477 -3.238147,0.0574 -3.275289,0.0214 -0.11294,-0.10913 -0.0043,-8.38388 0.137804,-10.48102 0.07015,-1.03639 0.136026,-2.60838 0.146409,-3.49332 l 0.01879,-1.60907 -3.650331,-0.0393 -3.650331,-0.0394 -0.417897,-0.23151 c -0.655245,-0.36294 -1.15584,-1.12169 -1.387052,-2.10238 -0.148167,-0.62852 -0.148491,-1.82662 0,-2.53318 0.151702,-0.72513 0.641899,-1.70149 1.123238,-2.23731 l 0.387873,-0.43175 h 3.874745 3.874771 l 0.476064,-1.41303 c 1.188907,-3.5288 2.575641,-5.97211 4.801408,-8.45953 0.415767,-0.46468 0.900368,-0.96168 1.076873,-1.10449 0.176508,-0.14282 1.716294,-1.10056 3.421742,-2.12836 1.70545,-1.02777 3.164184,-1.92414 3.241631,-1.99194 0.133152,-0.11679 0.13841,-0.3496 0.09664,-4.28823 -0.02428,-2.29072 -0.06219,-4.47052 -0.08418,-4.844 -0.05116,-0.86874 0,-0.93022 0.756217,-0.93022 h 0.545047 l -0.02084,-2.45318 -0.02084,-2.45319 -0.804667,-0.0224 c -0.568474,-0.0161 -0.803906,-0.0503 -0.802163,-0.11772 0,-0.0525 -0.01236,-0.93213 -0.03043,-1.95484 -0.02848,-1.61103 -0.05244,-1.89947 -0.179093,-2.15881 -0.282903,-0.57916 0.05646,-0.54774 -7.093636,-0.65618 -3.51884,-0.0533 -6.459711,-0.12861 -6.53527,-0.16726 -0.122858,-0.0628 -0.137239,-0.21292 -0.136168,-1.42161 0,-0.74326 0.02715,-1.38836 0.05886,-1.43359 0.03172,-0.0453 0.252212,-0.17614 0.489973,-0.29078 1.60394,-0.77403 2.070336,-2.80052 0.940083,-4.08456 -1.133956,-1.28826 -3.028987,-1.41868 -4.260384,-0.29327 -0.228638,0.20898 -0.520199,0.56855 -0.647886,0.79908 -0.211537,0.38188 -0.232193,0.48551 -0.232193,1.16493 0,0.64064 0.02899,0.80758 0.205673,1.18431 0.260674,0.55588 0.655046,0.95064 1.249624,1.25074 l 0.467992,0.23627 v 1.44273 c 0,1.24319 -0.01718,1.44937 -0.124148,1.49042 -0.0683,0.0262 -2.842792,0.0477 -6.165522,0.0477 -5.913413,0 -6.047945,10e-4 -6.353268,0.15918 -0.368321,0.18785 -0.746232,0.67861 -0.869113,1.12861 -0.06047,0.22138 -0.06918,0.74948 -0.02806,1.69532 0.03287,0.75557 0.06367,1.49741 0.06844,1.64853 l 0.0087,0.27475 -0.98127,0.0392 -0.981273,0.0394 0.0216,2.15881 c 0.01169,1.18735 0.04244,2.71701 0.06799,3.3993 l 0.0465,1.24052 0.834766,-0.008 c 0.459114,-0.004 0.884763,-0.007 0.945871,-0.004 0.09571,0.004 0.104111,3.74458 0.06058,26.96634 -0.03254,17.34222 -0.02353,26.97849 0.02537,27.00865 0.04177,0.0258 3.017212,0.23761 6.6121,0.47064 l 6.536125,0.42363 12.599525,0.0895 c 24.724849,0.17574 29.797659,0.2095 30.262439,0.20139 l 0.471,-0.008 0.0392,-9.5903 z M 95.748661,230.5818 c -1.212971,-0.0671 -2.626027,-0.20618 -3.611077,-0.35477 -1.68678,-0.25459 -3.940494,-0.88049 -4.025692,-1.11798 -0.05066,-0.1414 1.170462,-2.75549 1.299278,-2.78159 0.06357,-0.0121 0.415004,0.10052 0.780919,0.25195 0.923109,0.38215 2.173248,0.72411 3.51553,0.96171 0.958383,0.16968 1.454609,0.20748 3.140067,0.23955 3.119808,0.0594 5.505864,-0.26363 7.919304,-1.0721 0.6312,-0.21143 1.17363,-0.35947 1.20539,-0.32898 0.12527,0.12014 1.2405,2.68975 1.19757,2.75924 -0.14304,0.23143 -3.00053,0.90672 -4.78789,1.13148 -1.9269,0.24236 -5.150772,0.39372 -6.633399,0.31149 z m -4.396095,-9.23899 c -1.33529,-0.38261 -2.300001,-1.45877 -2.525009,-2.8167 -0.297054,-1.79261 1.004798,-3.53945 2.86789,-3.84817 1.671768,-0.27701 3.35374,0.84693 3.785254,2.52944 0.419885,1.63716 -0.500299,3.40532 -2.08709,4.01041 -0.535775,0.20433 -1.548054,0.26628 -2.041045,0.12498 z m 9.969714,-0.24611 c -1.22357,-0.34048 -2.177976,-1.36527 -2.438189,-2.61801 -0.385928,-1.85807 0.928702,-3.72299 2.832029,-4.01738 2.23075,-0.345 4.23544,1.67484 3.85134,3.88048 -0.3482,1.99948 -2.3324,3.28714 -4.24518,2.75491 z M 69.215058,202.36038 c -2.167064,-0.18928 -4.867103,-0.82425 -4.867103,-1.14455 0,-0.15392 0.949354,-2.22279 1.019933,-2.22279 0.03161,0 0.318471,0.10764 0.637433,0.23944 1.612326,0.66562 3.459889,0.97418 5.800293,0.96856 2.374188,-0.007 3.973587,-0.23942 5.900459,-0.86235 0.474838,-0.15353 0.906035,-0.26273 0.958213,-0.24268 0.0522,0.0208 0.301961,0.50184 0.555055,1.07071 0.394694,0.88716 0.444492,1.04997 0.350094,1.14435 -0.164064,0.16402 -2.100265,0.63715 -3.339807,0.816 -2.112777,0.30484 -5.069613,0.40319 -7.01457,0.23331 z m -2.780528,-7.54464 c -1.055113,-0.13514 -2.041782,-0.84753 -2.521894,-1.821 -0.678329,-1.37531 -0.440443,-2.87038 0.626468,-3.9373 0.622935,-0.62294 1.29302,-0.91995 2.170254,-0.96188 1.473942,-0.0706 2.641829,0.61646 3.267683,1.92199 1.164966,2.43009 -0.838962,5.14434 -3.542511,4.79819 z m 9.786905,-0.25934 c -1.729784,-0.37579 -2.927355,-2.12844 -2.632089,-3.85211 0.484011,-2.82572 4.023091,-3.84459 5.909633,-1.70137 1.704885,1.93683 0.671656,5.02008 -1.862231,5.55702 -0.637632,0.13514 -0.77869,0.13473 -1.415313,-0.001 z m 49.240125,53.11779 1.96255,-0.0493 v -14.20881 c 0,-7.81487 -0.0141,-26.00762 -0.0317,-40.42837 l -0.0317,-26.2196 0.89514,-0.0786 0.89516,-0.0786 0.0203,-4.54853 c 0.0124,-2.7801 -0.008,-4.57738 -0.0539,-4.62272 -0.0408,-0.0409 -0.45617,-0.096 -0.92304,-0.12216 l -0.84887,-0.0482 -0.0392,-3.14007 -0.0392,-3.14006 -1.25603,-0.022 c -0.69081,-0.0121 -4.43536,0.0108 -8.32119,0.0485 -3.88583,0.0388 -7.10985,0.0534 -7.16448,0.0327 -0.0775,-0.0296 -0.0948,-0.51241 -0.0785,-2.19867 0.0176,-1.8265 0.039,-2.17061 0.13857,-2.22289 0.0648,-0.0339 0.28354,-0.13716 0.48615,-0.22921 0.85014,-0.38627 1.32818,-1.10721 1.37982,-2.081 0.0459,-0.86569 -0.15888,-1.40632 -0.76066,-2.0081 -0.58835,-0.58835 -1.14346,-0.80381 -1.96883,-0.76421 -0.74173,0.0358 -1.2112,0.2603 -1.73032,0.82829 -1.00987,1.10499 -1.23236,2.71297 -0.48428,3.50031 0.25675,0.27023 0.53118,0.42252 1.15484,0.64081 l 0.47101,0.16482 0.0211,2.07685 c 0.018,1.79848 0.005,2.08873 -0.10026,2.16557 -0.0891,0.0652 -2.15919,0.0778 -7.8123,0.047 l -7.691005,-0.0417 v 3.45939 c 0,1.90266 -0.02135,3.51526 -0.04767,3.58356 -0.03963,0.10348 -0.200019,0.12417 -0.954875,0.12417 h -0.907221 l 0.05119,4.52601 c 0.02815,2.48931 0.06365,4.53849 0.07893,4.55374 0.01514,0.0161 0.389812,0.0923 0.832338,0.17131 0.471577,0.0843 0.83364,0.18947 0.874756,0.25449 0.09098,0.14382 0.153378,19.9385 0.07472,23.70057 -0.03462,1.65708 -0.02665,1.79383 0.129214,2.21124 0.245832,0.65815 0.593254,1.11104 1.124465,1.46577 0.578311,0.38618 0.994174,0.54516 2.708475,1.03533 4.802173,1.37311 8.277053,3.00016 11.371463,5.3245 1.23388,0.92677 2.81956,2.42445 3.79373,3.58323 0.91194,1.08474 2.07761,2.85105 2.74572,4.16056 1.55308,3.04408 2.46051,6.32774 2.90692,10.51925 0.13259,1.245 0.14027,2.23056 0.11462,14.69418 -0.0153,7.34778 -0.004,13.39769 0.0248,13.44419 0.0514,0.0831 1.75935,0.0675 6.98943,-0.0638 z m -17.85914,-71.14016 c -1.99292,-0.16321 -4.18328,-0.5752 -5.51798,-1.03813 -0.49405,-0.17129 -0.7299,-0.29309 -0.74739,-0.38584 -0.0267,-0.14161 1.02923,-2.53743 1.19556,-2.71266 0.0771,-0.0812 0.24534,-0.0406 0.87522,0.2114 3.09385,1.23769 7.0141,1.5705 11.1352,0.94531 1.25874,-0.19088 2.74496,-0.55275 3.71896,-0.90532 0.40804,-0.14766 0.78446,-0.26856 0.83646,-0.26856 0.0521,0 0.36597,0.60546 0.6977,1.34548 0.45839,1.0226 0.58231,1.37051 0.51648,1.44983 -0.0989,0.11921 -1.03816,0.41792 -2.06756,0.65766 -0.95228,0.22175 -2.39502,0.45122 -3.74807,0.59612 -1.35616,0.14523 -5.61037,0.20983 -6.89458,0.10482 z m -3.1187,-8.97671 c -1.47004,-0.35618 -2.73789,-1.60373 -3.11976,-3.06976 -0.58243,-2.2361 0.94499,-4.62445 3.23955,-5.06549 2.41157,-0.46354 4.72816,1.29065 4.93494,3.73683 0.23172,2.74133 -2.40932,5.03945 -5.05473,4.39842 z m 10.87322,-0.004 c -0.75702,-0.19251 -1.38837,-0.56435 -1.98599,-1.16993 -0.87701,-0.88872 -1.21543,-1.70054 -1.21543,-2.91553 0,-1.11161 0.41429,-2.0998 1.21677,-2.90228 1.63936,-1.63938 4.2034,-1.62614 5.85365,0.0302 2.17468,2.18266 1.31294,5.82073 -1.62083,6.8429 -0.61001,0.21254 -1.65379,0.26578 -2.24817,0.11477 z m 27.71688,79.40887 c 6.70761,-0.29708 12.22479,-0.56998 12.26038,-0.60641 0.0356,-0.0366 0.13466,-4.35346 0.22011,-9.59326 0.0855,-5.2398 0.18512,-9.5564 0.22141,-9.59243 0.0364,-0.0362 0.3394,-0.0992 0.67356,-0.1408 0.70408,-0.0872 1.04967,-0.26156 1.2737,-0.64288 0.15411,-0.26236 0.15974,-0.39279 0.1589,-3.6868 -9.8e-4,-3.29261 -0.007,-3.42462 -0.1608,-3.68854 -0.18481,-0.31633 -0.59858,-0.50429 -1.32985,-0.60408 l -0.471,-0.0642 -0.005,-2.74757 -0.005,-2.74756 -0.30863,-0.023 c -0.16973,-0.0121 -2.61356,-0.10268 -5.43069,-0.19999 -3.44044,-0.11893 -5.15083,-0.20577 -5.20964,-0.26455 -0.0883,-0.088 -0.54288,-3.67791 -0.48599,-3.83657 0.0168,-0.0469 0.22522,-0.16584 0.46318,-0.26441 1.2255,-0.50793 2.03231,-2.1531 1.76566,-3.60029 -0.42694,-2.31706 -3.14081,-3.57883 -5.15884,-2.39853 -0.47108,0.27554 -1.10493,0.9809 -1.3485,1.50065 -0.193,0.41179 -0.21162,0.53454 -0.21162,1.39359 0,0.8745 0.016,0.97438 0.22148,1.39323 0.35513,0.72345 0.91236,1.27048 1.66545,1.63499 l 0.64927,0.31425 0.0474,0.88005 c 0.0262,0.48408 0.056,1.35698 0.0664,1.93986 l 0.0189,1.05977 -5.88019,0.0206 c -4.18523,0.0141 -5.91062,0.0454 -5.98576,0.10765 -0.0851,0.0707 -0.10556,0.67246 -0.10556,3.09882 v 3.01123 l -0.21588,0.0481 c -0.11872,0.0265 -0.28653,0.0669 -0.37288,0.0903 -0.28367,0.0763 -0.58968,0.34373 -0.74754,0.6532 -0.14802,0.29014 -0.15521,0.47271 -0.15491,3.93804 0,3.5391 0.005,3.64087 0.16318,3.90102 0.2196,0.36024 0.44279,0.53693 0.81778,0.64739 0.17273,0.0509 0.35816,0.14645 0.41213,0.21238 0.0772,0.0945 0.0981,2.15383 0.0981,9.70826 0,5.27357 0.0236,9.6119 0.0524,9.64066 0.0288,0.0289 0.0729,0.0515 0.0982,0.0503 0.0253,0 5.53383,-0.24499 12.24144,-0.54207 z m -0.45965,-14.58145 c -1.50911,-0.0847 -3.04192,-0.35288 -4.16668,-0.72969 -0.73431,-0.24604 -1.44111,-0.57346 -1.52263,-0.70534 -0.0801,-0.12968 0.82836,-2.82939 0.95215,-2.82939 0.0598,0 0.24929,0.0887 0.42115,0.19735 0.7839,0.49485 2.22367,0.98103 3.49175,1.17909 0.67649,0.10563 1.16956,0.12606 2.27654,0.0943 2.05508,-0.059 3.51788,-0.38323 5.16524,-1.14469 0.47342,-0.21884 0.7018,-0.28945 0.72612,-0.22447 0.3115,0.83224 0.86889,2.64562 0.83122,2.70428 -0.21077,0.32816 -2.24564,0.9566 -3.98026,1.2293 -0.7478,0.11759 -3.14347,0.29708 -3.56659,0.26732 -0.10791,-0.007 -0.39055,-0.0246 -0.62801,-0.038 z m -4.33844,-7.6422 c -2.08935,-0.52625 -2.73898,-3.15272 -1.1362,-4.59374 1.01126,-0.90923 2.51576,-0.89008 3.53891,0.045 1.71247,1.56513 0.70766,4.43146 -1.60878,4.58921 -0.27408,0.0181 -0.63135,0 -0.79393,-0.0404 z m 9.20555,-0.0394 c -0.82923,-0.22858 -1.49858,-0.84714 -1.8102,-1.6729 -0.23354,-0.61881 -0.18753,-1.46641 0.11289,-2.08044 0.27122,-0.55436 0.86353,-1.09142 1.446,-1.31116 0.36235,-0.13675 0.56716,-0.16241 1.07559,-0.13534 1.04308,0.0555 1.82853,0.58346 2.29017,1.53916 0.30312,0.62757 0.30838,1.50445 0.0134,2.1416 -0.56729,1.22294 -1.88299,1.86208 -3.12725,1.5191 z M 29.040728,245.32784 C 29.1069,244.93495 81.230849,113.78162 81.3814,113.6292 c 0.145016,-0.14686 0.183476,-0.14645 2.252902,0.021 5.286159,0.42804 8.614876,0.56275 15.17593,0.6141 7.871118,0.0615 12.999778,-0.11034 19.571148,-0.6559 1.34494,-0.11168 1.57014,-0.11396 1.66677,-0.0181 0.10387,0.10388 52.47518,131.72413 52.47518,131.8813 0,0.10441 0.14752,0.0943 2.47281,-0.16706 3.33136,-0.37452 6.20796,-0.79906 6.34745,-0.93676 0.0372,-0.0368 -11.97339,-29.64949 -26.86589,-66.23917 -22.48833,-55.2521 -26.94629,-66.26528 -27.01273,-66.73372 -0.0522,-0.36782 -0.0536,-0.74343 -0.004,-1.09088 0.0561,-0.3938 1.96053,-5.50907 7.41576,-19.919364 5.71144,-15.087021 7.31895,-19.409496 7.24445,-19.479687 -0.16788,-0.158161 -5.06107,-1.237486 -8.45621,-1.865321 -7.61959,-1.408993 -14.89482,-2.296358 -22.56923,-2.752794 -6.43246,-0.382576 -14.370524,-0.382576 -20.802956,0 -8.430838,0.501416 -16.636154,1.556511 -24.704586,3.176681 -2.401096,0.482145 -4.994206,1.055915 -6.01777,1.331532 -0.291756,0.07862 -0.335914,0.116917 -0.303705,0.263347 0.02052,0.09434 3.366841,8.80854 7.435831,19.365067 4.068965,10.556509 7.448709,19.370299 7.510529,19.586179 0.16568,0.57869 0.149581,1.62936 -0.03368,2.19805 -0.08351,0.25905 -12.273939,30.06052 -27.089862,66.22551 -14.815923,36.165 -26.938059,65.80838 -26.938059,65.87421 0,0.14018 0.239113,0.18887 2.629808,0.53369 1.791064,0.25849 5.37619,0.67994 5.89835,0.69339 0.295705,0.007 0.327965,-0.0107 0.361082,-0.20752 z M 96.455183,79.145438 c -8.717965,-0.170095 -17.48447,-0.92361 -22.255265,-1.913164 -2.802734,-0.581336 -4.12134,-1.134773 -4.12134,-1.729831 0,-1.318307 7.996602,-2.718646 18.997438,-3.326792 7.251623,-0.400894 15.832034,-0.401149 23.158004,-7.26e-4 10.33487,0.564874 17.99225,1.821551 18.94014,3.108318 0.12991,0.176344 0.13748,0.232962 0.0525,0.392494 -0.136,0.25531 -0.27076,0.355967 -0.82935,0.619543 -3.83372,1.808972 -19.5705,3.130384 -33.942073,2.850131 z m 26.596037,-23.55611 -0.0233,-0.529893 -0.92785,-0.152786 c -1.03722,-0.170767 -1.02468,-0.174852 -1.11547,0.362539 -0.0841,0.498097 -0.16653,0.511092 -1.13587,0.179288 -0.47575,-0.162852 -0.90582,-0.345244 -0.95566,-0.405315 -0.07,-0.0844 -0.0499,-0.207617 0.0883,-0.54106 0.0984,-0.237505 0.16602,-0.44121 0.15023,-0.452687 -0.17033,-0.123503 -1.59668,-0.913262 -1.6495,-0.913262 -0.0387,0 -0.18236,0.158955 -0.31928,0.353253 -0.13693,0.194285 -0.30069,0.353253 -0.36385,0.353253 -0.23594,0 -1.58196,-1.128982 -1.58196,-1.326895 0,-0.07364 0.12363,-0.253671 0.27475,-0.400141 0.15113,-0.14647 0.27477,-0.299202 0.27477,-0.339411 0,-0.0766 -1.06288,-1.356003 -1.19363,-1.436811 -0.0415,-0.02567 -0.22839,0.0633 -0.41537,0.197551 -0.40479,0.290708 -0.51424,0.301822 -0.66483,0.0676 -0.48765,-0.758594 -0.86625,-1.442241 -0.86625,-1.564211 0,-0.09246 0.10767,-0.194406 0.29438,-0.278748 0.57569,-0.260109 0.58327,-0.279581 0.3393,-0.871279 -0.11884,-0.288169 -0.26217,-0.665262 -0.31849,-0.837964 -0.0563,-0.172716 -0.13623,-0.335971 -0.17752,-0.362808 -0.0413,-0.02688 -0.2361,-2.42e-4 -0.43287,0.05886 -0.19676,0.05927 -0.40349,0.107645 -0.45935,0.107645 -0.12322,0 -0.22859,-0.352137 -0.39597,-1.323387 -0.14332,-0.831648 -0.12611,-0.87136 0.37869,-0.873456 0.54108,-0.0027 0.53631,0.0067 0.53631,-1.06582 v -0.969328 l -0.25515,-0.04166 c -0.14031,-0.02298 -0.3611,-0.05107 -0.49063,-0.06249 -0.18417,-0.01613 -0.24169,-0.06343 -0.26382,-0.216983 -0.043,-0.298369 0.23208,-1.792537 0.3477,-1.88849 0.0721,-0.0598 0.18883,-0.06021 0.40141,-9.94e-4 0.58765,0.163174 0.58545,0.165055 0.91211,-0.78089 0.16412,-0.475223 0.27746,-0.897928 0.2519,-0.939319 -0.0256,-0.04139 -0.19947,-0.142895 -0.3864,-0.225598 -0.18693,-0.08265 -0.36434,-0.189944 -0.39428,-0.238364 -0.0585,-0.09474 0.56647,-1.337967 0.85396,-1.698519 l 0.17477,-0.219185 0.36075,0.248201 c 0.43692,0.300631 0.54995,0.308026 0.72083,0.04722 0.0724,-0.110534 0.32489,-0.428717 0.56103,-0.70706 0.4739,-0.558645 0.47527,-0.594729 0.0386,-1.010305 -0.13325,-0.126809 -0.24225,-0.2746 -0.24225,-0.328407 0,-0.100939 1.46592,-1.364321 1.58305,-1.364321 0.0361,0 0.19265,0.176609 0.34772,0.392503 0.15509,0.21588 0.2943,0.392517 0.30934,0.392517 0.0267,0 0.80575,-0.469049 1.38942,-0.836593 l 0.29324,-0.184628 -0.1945,-0.439849 c -0.107,-0.241919 -0.17655,-0.468921 -0.15461,-0.504439 0.0713,-0.115237 1.69288,-0.713617 1.86613,-0.688583 0.12841,0.01838 0.19913,0.126284 0.29929,0.456057 0.10035,0.33033 0.16548,0.429412 0.27723,0.421757 0.22515,-0.01555 1.7113,-0.288719 1.75334,-0.322446 0.0203,-0.01636 0.0272,-0.252507 0.0149,-0.524591 l -0.0224,-0.494705 0.29898,-0.04941 c 0.16443,-0.02713 0.62142,-0.04982 1.0155,-0.05032 0.85569,-9.79e-4 0.92308,0.04682 0.8492,0.60375 -0.0369,0.278572 -0.0219,0.405527 0.0552,0.464099 0.0584,0.04436 0.42404,0.127521 0.81262,0.184849 1.14279,0.168549 1.07304,0.18778 1.20096,-0.33116 0.13663,-0.554447 0.17621,-0.56012 1.24456,-0.178285 0.98613,0.352449 1.03108,0.397048 0.81904,0.812696 -0.24737,0.484882 -0.2182,0.580874 0.24839,0.817637 0.22668,0.115036 0.59615,0.318751 0.82108,0.452749 l 0.40892,0.243617 0.28534,-0.39714 c 0.15693,-0.218425 0.32106,-0.397137 0.36478,-0.397137 0.15097,0 1.63283,1.219756 1.63283,1.344048 0,0.03991 -0.14521,0.23004 -0.32274,0.422608 l -0.32271,0.350124 0.22459,0.268162 c 0.12354,0.147501 0.38357,0.464076 0.57787,0.703515 0.1943,0.239445 0.40812,0.437321 0.47516,0.439737 0.0671,0.002 0.27304,-0.106758 0.45776,-0.242603 l 0.33583,-0.246973 0.18275,0.188102 c 0.18204,0.187395 0.98205,1.537678 0.98205,1.657565 0,0.03467 -0.1943,0.158323 -0.43177,0.274784 -0.23745,0.116514 -0.43174,0.24554 -0.43174,0.286838 0,0.04126 0.10969,0.360711 0.24373,0.709784 0.13407,0.349087 0.27966,0.731852 0.32354,0.850584 0.0914,0.247287 0.13944,0.255552 0.62907,0.108182 0.19679,-0.05926 0.3974,-0.08319 0.44581,-0.05322 0.0927,0.05725 0.39889,1.50031 0.39889,1.879809 0,0.212266 -0.021,0.224764 -0.49064,0.291609 l -0.49064,0.06988 v 0.902766 c 0,0.496524 0.0308,0.946926 0.0685,1.000897 0.0376,0.05389 0.21639,0.0981 0.39715,0.0981 0.58078,0 0.61236,0.06746 0.4716,1.006944 -0.0668,0.445886 -0.15564,0.900683 -0.19745,1.010653 -0.0706,0.185805 -0.0996,0.195696 -0.4079,0.13983 -0.70177,-0.127131 -0.66103,-0.157072 -0.96382,0.70789 -0.15116,0.431762 -0.28273,0.837064 -0.29243,0.90067 -0.0103,0.06813 0.15146,0.207119 0.3945,0.338618 0.23097,0.124981 0.41213,0.277847 0.41213,0.34781 0,0.256762 -0.90307,1.749223 -1.05841,1.749223 -0.0526,0 -0.24473,-0.108048 -0.42707,-0.240138 -0.1823,-0.132104 -0.36261,-0.229226 -0.40062,-0.215881 -0.11012,0.0387 -1.17546,1.394935 -1.17546,1.496492 0,0.05053 0.1469,0.241563 0.32649,0.424546 l 0.32652,0.332678 -0.26764,0.252045 c -0.51191,0.482131 -1.28005,1.090318 -1.37705,1.090318 -0.0537,0 -0.21176,-0.158954 -0.35129,-0.353253 -0.1395,-0.194298 -0.28475,-0.353252 -0.32269,-0.353252 -0.038,0 -0.35873,0.174368 -0.71284,0.387454 -0.3541,0.213113 -0.70564,0.411174 -0.7812,0.440162 -0.17802,0.06827 -0.17338,0.207105 0.0196,0.585408 0.0864,0.169262 0.15702,0.357325 0.15702,0.417921 0,0.208651 -1.82178,0.909001 -1.9936,0.766415 -0.052,-0.04314 -0.14017,-0.256614 -0.196,-0.474377 -0.11535,-0.450025 -0.10576,-0.447028 -0.91124,-0.285884 -0.30222,0.06047 -0.6851,0.133314 -0.85083,0.161804 l -0.30132,0.05187 0.0249,0.446518 c 0.0137,0.245594 -0.003,0.490691 -0.0369,0.544662 -0.0442,0.07028 -0.34958,0.0981 -1.07412,0.0981 h -1.01231 z M 95.924235,37.370444 c -0.07043,-0.04476 -0.09316,-0.264774 -0.0785,-0.759272 l 0.02052,-0.696315 -0.86352,-0.13092 c -0.474935,-0.07199 -1.055111,-0.172326 -1.289267,-0.222891 -0.234155,-0.0506 -0.455334,-0.06238 -0.491519,-0.02617 -0.03622,0.03614 -0.13835,0.328567 -0.226994,0.649727 -0.08866,0.32117 -0.190264,0.613542 -0.225815,0.649724 -0.03553,0.03614 -0.536631,-0.09318 -1.113569,-0.287373 -1.287993,-0.433658 -1.633449,-0.578814 -1.68266,-0.706999 -0.02109,-0.05466 0.06889,-0.33536 0.199676,-0.623812 0.130773,-0.288442 0.237787,-0.576558 0.237787,-0.640249 0,-0.06369 -0.150127,-0.182628 -0.333631,-0.264321 -0.183496,-0.08168 -0.699059,-0.365967 -1.145686,-0.631741 -0.4466,-0.265778 -0.844213,-0.463359 -0.883512,-0.439057 -0.03932,0.02436 -0.215437,0.256121 -0.391356,0.515174 -0.175902,0.259043 -0.37114,0.490676 -0.43387,0.514749 -0.197798,0.07596 -2.307066,-1.630028 -2.307066,-1.865931 0,-0.06387 0.194284,-0.308067 0.431759,-0.542581 0.237469,-0.234517 0.430657,-0.462931 0.429305,-0.507581 0,-0.04466 -0.285154,-0.399119 -0.630685,-0.787702 -0.345555,-0.388583 -0.706542,-0.820768 -0.802212,-0.960408 -0.09567,-0.139643 -0.214703,-0.269709 -0.264503,-0.289018 -0.04979,-0.01919 -0.337828,0.139118 -0.640036,0.352036 -0.302232,0.212917 -0.571369,0.387128 -0.598109,0.387128 -0.161742,0 -1.580901,-2.45538 -1.49732,-2.590615 0.02799,-0.04525 0.292907,-0.20422 0.588736,-0.353193 0.295804,-0.148975 0.557019,-0.301901 0.580471,-0.339855 0.02353,-0.03791 -0.07508,-0.348163 -0.21897,-0.689355 -0.143904,-0.341191 -0.345431,-0.880535 -0.447854,-1.198544 -0.102417,-0.318014 -0.233346,-0.596294 -0.290946,-0.618388 -0.05757,-0.02209 -0.368492,0.03645 -0.690912,0.130128 -0.322422,0.09367 -0.617343,0.151097 -0.655393,0.127562 -0.146046,-0.09031 -0.595287,-2.406585 -0.541169,-2.790404 0.02574,-0.182527 0.06951,-0.199737 0.69474,-0.273292 l 0.667264,-0.07852 v -1.361532 c 0,-0.748846 -0.02084,-1.374599 -0.04678,-1.390562 -0.02583,-0.01596 -0.338171,-0.05327 -0.69408,-0.08298 -0.397023,-0.03306 -0.661523,-0.0914 -0.68434,-0.150894 -0.08339,-0.217315 0.319577,-2.615409 0.47403,-2.820919 0.07672,-0.102068 0.163579,-0.09676 0.706882,0.04347 0.402862,0.10399 0.646218,0.133071 0.696065,0.08328 0.04213,-0.0422 0.209526,-0.476983 0.372001,-0.966311 0.162449,-0.48933 0.352621,-1.02102 0.422584,-1.181546 0.06998,-0.160509 0.127265,-0.312404 0.127265,-0.337506 0,-0.02514 -0.268155,-0.172974 -0.595875,-0.328618 -0.327742,-0.155599 -0.612679,-0.32674 -0.633236,-0.380261 -0.08601,-0.224198 1.24165,-2.5477391 1.455568,-2.5473238 0.06973,1.599e-4 0.338736,0.1413398 0.59779,0.3137628 0.259055,0.172427 0.511317,0.313615 0.560601,0.313752 0.04927,1.6e-4 0.338051,-0.30885 0.641753,-0.6866403 0.303707,-0.3777893 0.68363,-0.8397003 0.844263,-1.0264756 L 85.566016,8.5352816 85.083526,8.0484873 C 84.81836,7.7807512 84.601255,7.521808 84.601255,7.4730587 c 0,-0.1788707 2.030445,-1.9089343 2.240364,-1.9089343 0.0587,0 0.270586,0.2296237 0.470864,0.5102611 0.200262,0.2806415 0.410197,0.5102639 0.466496,0.5102639 0.05632,0 0.415324,-0.1973531 0.797772,-0.4385691 0.382452,-0.2412201 0.860651,-0.5231463 1.062671,-0.6265257 0.202043,-0.103358 0.387086,-0.2198887 0.411201,-0.2589244 0.02404,-0.038999 -0.08247,-0.3444181 -0.236879,-0.6786388 -0.233125,-0.5045389 -0.262932,-0.6246039 -0.175701,-0.707555 0.127225,-0.1209628 1.763518,-0.7753056 2.283029,-0.9129876 0.254245,-0.067342 0.397952,-0.073188 0.452855,-0.018384 0.04424,0.044254 0.149763,0.3228528 0.234498,0.6191478 0.08473,0.2963031 0.182163,0.5668345 0.216544,0.6011936 0.03436,0.034363 0.503074,-0.026031 1.041594,-0.1341329 0.538547,-0.1081287 1.120464,-0.2228572 1.29317,-0.2549518 l 0.314005,-0.058311 -0.02557,-0.7134951 -0.02561,-0.7135057 0.251304,-0.050301 c 0.48205,-0.09645 2.650781,-0.05823 2.719444,0.047829 0.03497,0.05397 0.06347,0.3975431 0.06347,0.763521 v 0.6653908 l 0.745767,0.095362 c 0.410171,0.052479 0.993047,0.1482274 1.295287,0.2127996 0.30222,0.06456 0.57828,0.089126 0.61349,0.054454 0.0351,-0.034659 0.13003,-0.3197726 0.21077,-0.6336644 0.0807,-0.3138918 0.18014,-0.6040453 0.22087,-0.6447851 0.0858,-0.085753 0.8498,0.1271447 1.92731,0.5371885 0.98326,0.3741636 0.97654,0.3642525 0.68367,1.0101865 -0.1327,0.29268 -0.24129,0.5925591 -0.24129,0.6663718 0,0.081211 0.12703,0.1914951 0.32137,0.2791431 0.17675,0.079706 0.69408,0.3666203 1.14958,0.6375845 0.45551,0.270975 0.85079,0.4787055 0.87841,0.4616422 0.0276,-0.016973 0.20771,-0.2632906 0.40021,-0.5471668 0.19249,-0.2838681 0.40328,-0.5157576 0.46839,-0.5153034 0.2066,9.918e-4 2.27717,1.6608242 2.27717,1.8249632 0,0.039994 -0.19431,0.2875127 -0.43176,0.5499204 -0.23748,0.2624091 -0.43177,0.5113322 -0.43177,0.5531498 0,0.041795 0.20312,0.3054751 0.45138,0.5858841 0.24827,0.280413 0.62079,0.7170711 0.82783,0.9703511 0.20706,0.2532804 0.42094,0.4605134 0.47531,0.4605134 0.0544,0 0.32462,-0.158954 0.60054,-0.3532515 0.27591,-0.1942836 0.53089,-0.3532635 0.56661,-0.3532635 0.18038,0 1.60217,2.447368 1.5092,2.597823 -0.0304,0.04921 -0.31566,0.208175 -0.63381,0.353164 -0.31818,0.144995 -0.57848,0.292482 -0.57848,0.327763 0,0.03525 0.13756,0.400884 0.30567,0.81246 0.16808,0.411587 0.37012,0.952902 0.44892,1.202933 0.0788,0.250032 0.18566,0.470854 0.2374,0.490706 0.0518,0.02 0.36602,-0.0402 0.6984,-0.133461 0.36368,-0.102054 0.63277,-0.141077 0.67582,-0.09804 0.0932,0.09316 0.43618,1.715809 0.50534,2.391003 0.0615,0.599917 0.11105,0.559172 -0.79019,0.649461 -0.25847,0.02594 -0.49781,0.07496 -0.53186,0.108975 -0.034,0.03408 -0.0522,0.659787 -0.0403,1.390543 l 0.0215,1.328641 0.68157,0.07852 c 0.37485,0.04317 0.70213,0.09962 0.72728,0.125424 0.12363,0.126916 -0.35267,2.802097 -0.51699,2.903642 -0.0462,0.02852 -0.33638,-0.01373 -0.64491,-0.09387 -0.30852,-0.08011 -0.60397,-0.14633 -0.65655,-0.147077 -0.0526,-7.33e-4 -0.18756,0.300176 -0.29997,0.668698 -0.11242,0.368523 -0.30785,0.920927 -0.43428,1.22757 -0.12648,0.306654 -0.22993,0.590025 -0.22993,0.629712 0,0.03971 0.26586,0.193334 0.59083,0.34142 0.32495,0.148086 0.61104,0.321913 0.63574,0.386288 0.0767,0.19998 -1.18949,2.436177 -1.43222,2.529319 -0.0664,0.02545 -0.34333,-0.111583 -0.64341,-0.318495 -0.28974,-0.199777 -0.54797,-0.363234 -0.57385,-0.363234 -0.0258,0 -0.22446,0.238444 -0.44135,0.529887 -0.21686,0.291432 -0.59264,0.752006 -0.83506,1.023486 -0.2424,0.271481 -0.44075,0.519868 -0.44075,0.551972 0,0.03208 0.21196,0.268099 0.47102,0.52446 0.25906,0.256351 0.47101,0.49853 0.47101,0.538156 0,0.164307 -2.05836,1.933296 -2.25065,1.934204 -0.0505,2.4e-4 -0.2722,-0.247584 -0.49269,-0.550721 -0.45497,-0.625512 -0.34499,-0.621881 -1.25117,-0.04131 -0.28565,0.182992 -0.74013,0.449074 -1.00998,0.591291 -0.26984,0.142227 -0.49063,0.284571 -0.49063,0.316337 0,0.0318 0.12401,0.329894 0.27557,0.662488 0.15158,0.332599 0.25839,0.632557 0.23736,0.66657 -0.0522,0.08445 -1.4434,0.652657 -2.14204,0.874825 -0.41614,0.132332 -0.59271,0.15768 -0.65621,0.09415 -0.0478,-0.04783 -0.15329,-0.326387 -0.23447,-0.619127 -0.0812,-0.292731 -0.17736,-0.562021 -0.21377,-0.598421 -0.0363,-0.03646 -0.5225,0.0216 -1.08024,0.128757 -0.55775,0.107228 -1.150013,0.216591 -1.316192,0.243053 l -0.302136,0.04811 0.02733,0.718735 0.02733,0.718733 -0.314008,0.05674 c -0.430599,0.07781 -2.488796,0.07808 -2.611234,4.97e-4 z"
     id="path868"
     inkscape:connector-curvature="0" />
</svg>
