<?xml version="1.0" encoding="UTF-8" standalone="no"?>
<!-- Created with Inkscape (http://www.inkscape.org/) -->

<svg
   xmlns:dc="http://purl.org/dc/elements/1.1/"
   xmlns:cc="http://creativecommons.org/ns#"
   xmlns:rdf="http://www.w3.org/1999/02/22-rdf-syntax-ns#"
   xmlns:svg="http://www.w3.org/2000/svg"
   xmlns="http://www.w3.org/2000/svg"
   xmlns:sodipodi="http://sodipodi.sourceforge.net/DTD/sodipodi-0.dtd"
   xmlns:inkscape="http://www.inkscape.org/namespaces/inkscape"
   version="1.1"
   id="svg2"
   width="731.6192"
   height="1141.6604"
   viewBox="0 0 731.6192 1141.6604"
   sodipodi:docname="GSWAI_yellow.svg"
   inkscape:version="0.92.2 2405546, 2018-03-11">
  <metadata
     id="metadata8">
    <rdf:RDF>
      <cc:Work
         rdf:about="">
        <dc:format>image/svg+xml</dc:format>
        <dc:type
           rdf:resource="http://purl.org/dc/dcmitype/StillImage" />
        <dc:title></dc:title>
      </cc:Work>
    </rdf:RDF>
  </metadata>
  <defs
     id="defs6" />
  <sodipodi:namedview
     pagecolor="#ffffff"
     bordercolor="#666666"
     borderopacity="1"
     objecttolerance="10"
     gridtolerance="10"
     guidetolerance="10"
     inkscape:pageopacity="0"
     inkscape:pageshadow="2"
     inkscape:window-width="1364"
     inkscape:window-height="732"
     id="namedview4"
     showgrid="false"
     inkscape:zoom="0.50059158"
     inkscape:cx="506.02644"
     inkscape:cy="557.29767"
     inkscape:window-x="0"
     inkscape:window-y="35"
     inkscape:window-maximized="0"
     inkscape:current-layer="svg2"
     fit-margin-top="0"
     fit-margin-left="0"
     fit-margin-right="0"
     fit-margin-bottom="0"
     inkscape:pagecheckerboard="true" />
  <path
     style="fill:#edbb1e;stroke-width:0.31999999"
     d="m 28.261038,1141.4581 c -10.8846,-1.73 -19.8172999,-8.4412 -23.7693999,-17.8582 -1.8488,-4.4051 -2.2542,-6.6617 -2.2241,-12.3791 0.024,-4.6095 0.1136,-5.4052 0.896,-7.9803 3.2712,-10.7655 11.6656999,-18.4566 22.9602999,-21.0366 2.2918,-0.5234 4.0882,-0.6882 7.6367,-0.7004 5.0301,-0.017 8.2194,0.4872 12.32,1.949 4.6035,1.6411 11.04,5.5366 11.04,6.6817 0,0.5891 -6.2788,8.7402 -6.923,8.9874 -0.2335,0.09 -0.9673,-0.2646 -1.6307,-0.7872 -2.1079,-1.6601 -4.4467,-2.954 -7.1859,-3.9753 -3.4335,-1.2802 -8.7724,-1.6087 -12.1004,-0.7445 -6.1969,1.6091 -11.3014,6.7186 -12.9679,12.9807 -0.7652,2.8754 -0.6181,7.8126 0.3207,10.769 1.8402,5.7945 6.3089,10.2071 12.1672,12.0144 4.3083,1.3291 10.167,0.693 14.88,-1.6157 l 1.76,-0.8622 0.086,-7.7674 0.086,-7.7673 5.6743,0.087 5.6743,0.087 0.084,11.1314 0.084,11.1315 -0.7706,0.7141 c -2.0917,1.9385 -9.5426,5.1044 -14.9177,6.3387 -3.1259,0.7177 -10.3689,1.0484 -13.1795,0.6016 z m 82.638902,-0.3451 c -10.8573,-1.4051 -18.480402,-8.8333 -19.883202,-19.3752 -1.5339,-11.5261 4.4528,-21.6302 14.751402,-24.8971 3.5098,-1.1133 7.2749,-1.5808 10.9362,-1.3577 4.1415,0.2523 6.8268,0.9324 10.3362,2.618 8.0913,3.8863 12.3961,11.6315 11.9071,21.4232 -0.2768,5.5433 -1.5615,9.2969 -4.5196,13.2057 -4.8455,6.4027 -13.9005,9.629 -23.5281,8.3831 z m 8.8205,-11.3421 c 1.9499,-0.9487 4.4052,-3.4681 5.2574,-5.3946 0.3366,-0.7609 0.7579,-2.412 0.9361,-3.669 0.8338,-5.8792 -1.5606,-11.2061 -6.022,-13.397 -1.6141,-0.7926 -2.1599,-0.8895 -5.0114,-0.8895 -3.3515,0 -4.4765,0.3536 -6.9552,2.1862 -1.3499,0.998 -3.0209,3.6644 -3.6209,5.7777 -0.8037,2.8311 -0.5436,7.4582 0.5528,9.8345 0.9273,2.0096 2.678,4.1018 4.2403,5.0674 2.8577,1.7662 7.5486,1.98 10.6229,0.4843 z m 52.4088,11.3914 c -3.6005,-0.5732 -6.5593,-1.969 -8.9331,-4.214 -0.9116,-0.8621 -1.8177,-1.5675 -2.0136,-1.5675 -0.2252,0 -0.3903,0.9704 -0.4491,2.64 l -0.093,2.64 -6.2167,0.087 c -4.7595,0.067 -6.2773,-0.01 -6.4751,-0.32 -0.1421,-0.2239 -0.2606,-13.9516 -0.2633,-30.5059 0,-23.6236 0.081,-30.2169 0.3962,-30.6474 0.3585,-0.4903 1.0464,-0.5392 6.48,-0.4611 l 6.0789,0.087 0.084,11.28 c 0.046,6.204 0.1672,11.28 0.2687,11.28 0.1016,0 0.9998,-0.7278 1.9959,-1.6173 5.4946,-4.9061 14.0944,-5.8222 21.5772,-2.2985 7.289,3.4325 11.4588,11.0872 11.4588,21.0358 0,13.3218 -7.5149,22.038 -19.5664,22.6942 -1.484,0.081 -3.4324,0.03 -4.3296,-0.1127 z m 4.3688,-11.6055 c 2.2937,-1.0638 4.0033,-2.8223 5.2263,-5.376 0.9518,-1.9873 0.9961,-2.2583 0.9925,-6.08 0,-3.7597 -0.06,-4.1141 -0.9316,-5.9001 -1.1297,-2.3131 -3.2245,-4.4733 -5.2418,-5.4055 -1.2251,-0.566 -2.0943,-0.6944 -4.7029,-0.6944 -2.948,0 -3.3347,0.075 -4.9114,0.948 -3.6151,2.0024 -5.7173,5.5153 -6.0393,10.092 -0.4492,6.3842 2.682,11.5493 7.8949,13.0231 2.2086,0.6245 5.6403,0.3543 7.7133,-0.6071 z m 36.0254,11.5566 c -7.6622,-1.5741 -12.3814,-8.3753 -11.1183,-16.0235 0.6992,-4.2339 2.9732,-7.3143 6.7793,-9.1835 3.3328,-1.6367 5.6474,-1.9866 14.492,-2.1911 l 7.956,-0.1839 -0.1407,-1.696 c -0.1885,-2.2732 -1.2948,-3.8884 -3.4857,-5.0889 -1.5198,-0.8328 -2.1109,-0.9604 -4.9589,-1.0702 -3.8005,-0.1465 -6.7724,0.4843 -11.1572,2.3679 -1.601,0.6878 -2.8806,1.0678 -3.0383,0.9024 -0.4752,-0.4983 -3.5311,-7.5183 -3.5311,-8.1116 0,-1.1144 7.9609,-4.1219 13.1288,-4.96 11.1675,-1.8111 20.0396,0.9104 23.8154,7.3053 2.021,3.4229 2.1238,4.5387 2.0244,21.9605 l -0.089,15.52 h -6.08 -6.08 l -0.098,-1.92 c -0.054,-1.056 -0.2273,-2.0505 -0.386,-2.2099 -0.1719,-0.1729 -0.8063,0.178 -1.5709,0.8688 -1.504,1.3588 -3.6474,2.4977 -6.1055,3.2443 -2.1201,0.6439 -8.1725,0.9182 -10.3571,0.4694 z m 12.2771,-9.7202 c 2.1109,-0.7602 3.8318,-2.0626 4.8562,-3.675 0.7814,-1.2301 0.9038,-1.7422 0.9038,-3.7824 v -2.3597 l -6.96,0.1023 c -6.5818,0.097 -7.0233,0.1418 -8.1259,0.8275 -2.1107,1.3125 -2.7308,3.822 -1.5739,6.3699 0.6432,1.4166 1.5191,2.1428 3.4627,2.8708 1.4976,0.561 5.4151,0.3748 7.4371,-0.3534 z m 253.9315,9.7321 c -6.5713,-1.028 -11.8854,-4.7737 -14.8292,-10.4527 -5.1081,-9.8543 -3.2516,-23.6712 4.0635,-30.2416 3.6505,-3.279 7.3597,-4.7106 12.8343,-4.9535 5.9104,-0.2622 9.9276,1.0562 13.5335,4.4416 0.9032,0.8479 1.7538,1.5417 1.8902,1.5417 0.1365,0 0.2859,-5.076 0.3322,-11.28 l 0.084,-11.28 h 6.23996 6.24 v 30.88 30.88 h -6.24 -6.23996 l -0.092,-2.8 c -0.051,-1.54 -0.1819,-2.8 -0.2911,-2.8 -0.1093,0 -1.0114,0.7753 -2.0048,1.7228 -1.9627,1.8721 -4.38,3.2484 -6.8917,3.9238 -2.1634,0.5817 -6.3003,0.782 -8.6286,0.4179 z m 11.0809,-11.1675 c 4.5049,-2.1175 7.0336,-7.0204 6.554,-12.7074 -0.4034,-4.7832 -2.7914,-8.4518 -6.6199,-10.1699 -1.7665,-0.7928 -2.2496,-0.8688 -4.8933,-0.7695 -2.261,0.085 -3.2774,0.2797 -4.4355,0.85 -2.1172,1.0426 -4.0317,3.0724 -5.1874,5.4998 -0.9306,1.9547 -0.9899,2.3017 -0.9846,5.76 0,3.0702 0.1258,3.9795 0.7307,5.4871 1.2745,3.1766 3.9925,5.699 7.0879,6.5777 2.0852,0.592 5.9218,0.3307 7.7481,-0.5278 z m 70.02766,11.1738 c -5.57005,-1.1733 -9.48538,-5.4626 -10.23104,-11.2083 -0.17008,-1.3104 -0.31363,-7.0265 -0.31907,-12.7025 l -0.01,-10.32 h -2.64 c -1.452,0 -2.82448,-0.122 -3.04998,-0.265 -0.30666,-0.1946 -0.3873,-1.302 -0.32,-4.3952 l 0.09,-4.1349 2.88,-0.16 2.88,-0.16 0.17792,-6.08 c 0.0979,-3.344 0.20586,-6.119 0.24,-6.1667 0.0341,-0.048 2.90608,-0.048 6.38208,0 l 6.32,0.087 0.16,6.08 0.16,6.08 5.92,0.16 5.92,0.16 0.0901,3.955 c 0.0602,2.6427 -0.0324,4.1027 -0.2792,4.4 -0.29017,0.3496 -1.59536,0.445 -6.09011,0.445 h -5.7207 v 10.2559 c 0,10.9151 0.0374,11.2101 1.6009,12.6249 0.9544,0.8636 3.96611,0.8109 6.54438,-0.1144 1.0479,-0.3761 1.99779,-0.5764 2.11085,-0.4451 0.40521,0.4705 2.57907,8.7228 2.38189,9.0419 -0.31972,0.5173 -2.36765,1.4655 -4.79802,2.2214 -2.55261,0.7939 -8.07075,1.1368 -10.4,0.6462 z m 64.65942,-0.019 c -10.8574,-1.4051 -18.48041,-8.8333 -19.88326,-19.3752 -1.53386,-11.5261 4.45286,-21.6302 14.75146,-24.8971 3.5098,-1.1133 7.2749,-1.5808 10.9362,-1.3577 4.1415,0.2523 6.8267,0.9324 10.3362,2.618 8.0913,3.8863 12.396,11.6315 11.9071,21.4232 -0.2769,5.5433 -1.5615,9.2969 -4.5196,13.2057 -4.8455,6.4027 -13.9005,9.629 -23.5281,8.3831 z m 8.8204,-11.3421 c 1.9499,-0.9487 4.4053,-3.4681 5.2575,-5.3946 0.3365,-0.7609 0.7578,-2.412 0.9361,-3.669 0.8338,-5.8792 -1.5607,-11.2061 -6.0221,-13.397 -1.614,-0.7926 -2.1599,-0.8895 -5.0113,-0.8895 -3.3515,0 -4.4765,0.3536 -6.9552,2.1862 -1.3499,0.998 -3.021,3.6644 -3.6209,5.7777 -0.8038,2.8311 -0.5437,7.4582 0.5528,9.8345 0.9272,2.0096 2.678,4.1018 4.2402,5.0674 2.8578,1.7662 7.5487,1.98 10.6229,0.4843 z m -564.483082,10.5504 c -0.1082,-0.2821 -0.1968,-14.0095 -0.1968,-30.5055 0,-23.5322 0.086,-30.1108 0.4011,-30.5412 0.3585,-0.4903 1.0463,-0.5392 6.48,-0.4611 l 6.0789,0.087 v 30.88 30.88 l -6.2832,0.087 c -5.5197,0.076 -6.3071,0.024 -6.48,-0.4262 z m 185.920002,0 c -0.1082,-0.2821 -0.1968,-14.0095 -0.1968,-30.5055 0,-23.5322 0.086,-30.1108 0.4011,-30.5412 0.3585,-0.4903 1.0463,-0.5392 6.48,-0.4611 l 6.0789,0.087 v 30.88 30.88 l -6.2832,0.087 c -5.5197,0.076 -6.3071,0.024 -6.48,-0.4262 z m 39.3294,0.1894 c -0.1841,-0.2978 24.1831,-56.9401 24.8894,-57.8561 0.2394,-0.3106 1.9024,-0.3859 7.0623,-0.32 l 6.749,0.086 12.2392,28.64 c 6.7316,15.752 12.2425,28.8948 12.2466,29.2062 0.01,0.5272 -0.4726,0.5603 -6.9346,0.48 l -6.9419,-0.086 -2.2124,-5.52 -2.2123,-5.52 h -13.5308 -13.531 l -1.659,4.08 c -0.9124,2.244 -1.9721,4.728 -2.3548,5.52 l -0.6959,1.44 -6.457,0.087 c -4.0965,0.055 -6.5301,-0.032 -6.6568,-0.2367 z m 40.1582,-22.1699 c 0.01,-0.836 -8.4666,-21.3659 -8.778,-21.2621 -0.3373,0.1124 -8.8175,20.548 -8.8232,21.2621 0,0.3104 1.9685,0.4 8.7969,0.4 6.8243,0 8.801,-0.09 8.8043,-0.4 z m 29.5831,22.08 c -0.084,-0.22 -0.1154,-13.36 -0.07,-29.2 l 0.083,-28.8 6.3768,-0.087 c 4.8877,-0.067 6.4371,0.01 6.6351,0.32 0.2964,0.467 0.3687,56.8924 0.074,57.6607 -0.1682,0.4382 -1.0514,0.5062 -6.5701,0.5062 -4.8059,0 -6.4133,-0.099 -6.5283,-0.4 z m 45.7608,0 c -0.084,-0.2212 -0.1162,-13.3622 -0.071,-29.2022 l 0.083,-28.8 22.0597,-0.082 c 17.436,-0.065 22.1133,0 22.3151,0.32 0.1405,0.2212 0.2576,2.516 0.2603,5.0994 0,3.8481 -0.086,4.788 -0.498,5.2 -0.443,0.443 -2.3092,0.5028 -15.68,0.5028 h -15.1771 v 6.24 6.24 h 13.8857 c 12.3668,0 13.907,0.055 14.08,0.5062 0.1069,0.2784 0.1943,2.5721 0.1943,5.0972 0,3.7469 -0.092,4.6834 -0.5029,5.0938 -0.4413,0.4413 -2.1644,0.5028 -14.0868,0.5028 h -13.5839 l 0.087,6.32 0.087,6.32 15.9277,0.083 15.9278,0.083 -0.088,5.357 -0.088,5.357 -22.4892,0.082 c -17.8218,0.065 -22.5211,0 -22.6426,-0.32 z m 112.71166,0.191 c -0.12096,-0.1209 -0.2199,-10.1268 -0.2199,-22.2352 0,-21.4385 0.0163,-22.0241 0.61898,-22.3467 0.92524,-0.4952 11.27654,-0.4357 11.96304,0.069 0.50473,0.3709 0.53827,2.0063 0.46115,22.48 l -0.0832,22.08 -6.2601,0.087 c -3.44307,0.048 -6.35907,-0.013 -6.48,-0.1334 z m 60.8,0 c -0.12096,-0.1209 -0.2199,-10.1268 -0.2199,-22.2352 0,-21.4385 0.0163,-22.0241 0.61898,-22.3467 0.92524,-0.4952 11.27654,-0.4357 11.96304,0.069 0.50473,0.3709 0.53827,2.0063 0.46115,22.48 l -0.0832,22.08 -6.2601,0.087 c -3.44307,0.048 -6.35907,-0.013 -6.48,-0.1334 z m 78.08002,0 c -0.121,-0.1209 -0.2199,-10.1268 -0.2199,-22.2352 0,-21.4385 0.016,-22.0241 0.619,-22.3467 0.3554,-0.1903 2.8843,-0.3313 5.941,-0.3313 3.0567,0 5.5855,0.141 5.941,0.3313 0.545,0.2917 0.619,0.6931 0.619,3.36 0,1.6658 0.082,3.0287 0.1811,3.0287 0.1,0 1.0822,-0.9144 2.1835,-2.0321 3.2883,-3.3372 7.6032,-4.99 13.0597,-5.0023 7.7584,-0.018 13.00987,3.62 15.51837,10.7492 l 0.8886,2.5252 v 16 16 h -6.4 -6.39997 l -0.16,-13.76 -0.16,-13.76 -0.96,-1.7367 c -1.5971,-2.8894 -4.6481,-4.3937 -8.3201,-4.1022 -3.9278,0.3118 -6.7095,2.2771 -8.4366,5.9605 l -0.8433,1.7984 -0.16,12.8 -0.16,12.8 -6.2601,0.087 c -3.4431,0.048 -6.3591,-0.013 -6.48,-0.1334 z m -135.85454,-51.044 c -3.67636,-1.8197 -4.88304,-7.1706 -2.45133,-10.8698 2.07283,-3.1533 7.34963,-3.7394 10.30493,-1.1446 3.05344,2.6809 3.16377,8.0891 0.22137,10.8483 -2.06509,1.9364 -5.51286,2.4343 -8.07497,1.1661 z m 60.8,0 c -3.67636,-1.8197 -4.88304,-7.1706 -2.45133,-10.8698 2.07283,-3.1533 7.34963,-3.7394 10.30493,-1.1446 3.05344,2.6809 3.16377,8.0891 0.22137,10.8483 -2.06509,1.9364 -5.51286,2.4343 -8.07497,1.1661 z m -283.40544,-55.0113 c -128.1736,-1.4952 -234.101702,-7.537 -274.400002,-15.651 -16.4357,-3.3093 -24.9703999,-8.6009 -27.59779986,-17.111 -0.915,-2.96366 -0.9707,-8.66166 -0.1128,-11.53326 0.3155,-1.056 50.69139986,-124.24796 111.94650186,-273.76001 61.255,-149.51202 111.4358,-272.13339 111.5128,-272.49198 0.08,-0.37446 -13.7826,-36.80956 -32.5693,-85.59999 -25.8226,-67.06297 -32.7807,-85.43744 -33.0487,-87.27251 -0.962,-6.58749 2.8093,-13.76636 8.7493,-16.65513 4.8098,-2.33907 28.7765,-8.37415 50.4,-12.69127 14.1729,-2.82963 33.7186,-6.03961 48,-7.88307 6.2419,-0.80569 8.3332,-1.48307 8.0587,-2.6103 -0.2715,-1.1152 -1.967,-5.61075 -2.2064,-5.85014 -0.1179,-0.11796 -0.9522,-0.0253 -1.8539,0.20572 -1.3973,0.35815 -1.6811,0.35258 -1.9223,-0.0376 -0.4157,-0.67273 -1.3793,-6.30316 -1.1714,-6.84502 0.1016,-0.26474 0.8386,-0.56128 1.7167,-0.69072 0.8462,-0.12474 1.6106,-0.33594 1.6986,-0.46932 0.088,-0.13337 0.088,-1.73338 0,-3.55558 l -0.16,-3.31308 -1.6,-0.16 -1.6,-0.16 0.065,-2.4 c 0.036,-1.32 0.2618,-3.048 0.5023,-3.84 0.4203,-1.38398 0.48,-1.43522 1.535,-1.31698 2.725,0.30537 2.5123,0.46953 3.6819,-2.84302 1.1985,-3.39434 1.2305,-3.26343 -1.1091,-4.54512 -0.5473,-0.29981 -0.9943,-0.65981 -0.9934,-0.8 0,-0.52495 3.119,-5.67601 3.627,-5.99643 0.5291,-0.33376 0.688,-0.27403 2.6354,0.99056 0.6189,0.40196 0.8088,0.2574 2.8,-2.13219 1.1747,-1.40986 2.136,-2.65246 2.136,-2.76132 0,-0.10886 -0.5272,-0.78143 -1.1715,-1.4946 l -1.1715,-1.29666 2.1157,-2.0044 c 1.1636,-1.10243 2.501,-2.25684 2.9718,-2.56536 l 0.8561,-0.56095 1.184,1.38847 c 0.6512,0.76365 1.317,1.3321 1.4797,1.26323 1.1088,-0.46961 5.5757,-3.30655 5.5757,-3.54117 0,-0.15925 -0.3004,-0.87832 -0.6675,-1.59791 -0.8634,-1.69226 -0.6786,-1.87702 3.2983,-3.29843 3.3829,-1.20908 3.4033,-1.20473 4.0708,0.86782 0.2118,0.65755 0.5061,1.27036 0.6541,1.36181 0.1479,0.0914 1.1814,-0.0365 2.2966,-0.28428 1.1152,-0.2478 2.5779,-0.54505 3.2504,-0.66057 l 1.2227,-0.21003 -0.084,-1.5839 c -0.046,-0.87114 0.064,-1.73181 0.2447,-1.91259 0.1966,-0.19668 1.7315,-0.29201 3.8213,-0.23734 l 3.4927,0.0914 0.16,1.73783 0.16,1.73782 3.2,0.53693 c 1.76,0.29532 3.3041,0.47921 3.4313,0.40867 0.1272,-0.0705 0.3941,-0.73419 0.5931,-1.47476 0.199,-0.74057 0.5102,-1.43886 0.6914,-1.55177 0.3836,-0.23889 5.434,1.40772 6.5396,2.13212 0.6944,0.45502 0.7177,0.55802 0.3084,1.36269 -1.0711,2.10586 -1.0844,2.08061 2.0402,3.86078 1.5926,0.90733 3.016,1.64969 3.1633,1.64969 0.1472,0 0.6488,-0.576 1.1147,-1.28 0.4659,-0.704 0.978,-1.28 1.138,-1.28 0.768,0 5.78,4.30534 5.78,4.96507 0,0.19536 -0.432,0.76907 -0.96,1.27493 -0.528,0.50585 -0.9537,1.1448 -0.9461,1.41987 0.01,0.27507 1.0015,1.57356 2.2084,2.88554 l 2.1945,2.3854 1.3379,-0.92716 c 0.9872,-0.68413 1.4677,-0.8453 1.8331,-0.61483 0.6725,0.42421 3.5976,5.27169 3.6057,5.97534 0,0.35612 -0.533,0.82626 -1.4565,1.27493 -1.1665,0.56673 -1.4304,0.84149 -1.3022,1.35584 0.2747,1.1025 1.9666,5.55318 2.1996,5.78613 0.1216,0.1216 0.889,0.0529 1.7053,-0.15264 1.0268,-0.25855 1.6071,-0.27171 1.8831,-0.0427 0.5729,0.47546 1.6242,6.69531 1.2028,7.11664 -0.1814,0.18149 -0.9819,0.40346 -1.7787,0.49327 -0.7968,0.0898 -1.497,0.32554 -1.5559,0.52383 -0.059,0.1983 -0.032,1.80054 0.061,3.56054 l 0.1681,3.2 1.5066,0.17321 c 0.8286,0.0953 1.6131,0.2798 1.7434,0.41007 0.2913,0.29131 -0.3447,5.47675 -0.8245,6.72177 -0.3162,0.82083 -0.4454,0.8824 -1.3871,0.66141 -2.143,-0.50291 -2.5323,-0.37946 -2.9977,0.9505 -0.238,0.68032 -0.3535,1.36531 -0.2565,1.52217 0.1009,0.16323 3.4869,0.19968 7.916,0.0852 7.7686,-0.20074 30.1594,0.24518 42.2361,0.84112 49.9699,2.46582 100.81218,9.78272 143.4237,20.64061 17.27779,4.40259 20.28816,5.5456 23.40218,8.88553 2.18697,2.34563 3.42099,4.4847 4.10729,7.11955 0.55024,2.11255 0.62999,5.71715 0.1705,7.70701 -0.16743,0.72502 -14.58695,39.02902 -32.04336,85.11999 -17.45642,46.09098 -31.80106,84.17613 -31.87703,84.63363 -0.097,0.58435 32.87357,81.93606 110.8209,273.43998 61.0275,149.93455 111.15607,273.32821 111.39707,274.20821 0.6713,2.4524 0.9016,7.774 0.4383,10.12916 -1.8936,9.6248 -10.6409,15.444 -28.4959,18.957 -36.58857,7.199 -123.25089,12.6954 -235.19995,14.9172 -46.4156,0.9212 -116.2406,1.1802 -164.96,0.6119 z m 116.6401,-71.54866 c 0.088,-21.5013 0.271,-39.2043 0.4067,-39.34 0.1357,-0.1357 1.1077,-0.309 2.16,-0.3851 l 1.9133,-0.1384 0.01,-1.9615 c 0,-1.0789 0.1382,-2.1724 0.3012,-2.4301 0.1998,-0.316 1.0315,-0.51 2.5551,-0.5961 l 2.2588,-0.1276 v -7.4839 -7.484 h -2.2288 c -2.6607,0 -2.8912,-0.2535 -2.8912,-3.17896 v -1.941 h -2.16 c -1.188,0 -2.3251,-0.1107 -2.5268,-0.24 -0.2017,-0.1292 -0.5372,-1.387 -0.7456,-2.795 -2.4755,-16.7249 -9.8427,-31.75201 -21.0198,-42.87471 -10.9715,-10.9181 -25.0772,-17.4755 -41.2278,-19.1657 l -3.52,-0.3683 -0.088,-4.1557 c -0.048,-2.2856 0.024,-5.1517 0.16,-6.3692 l 0.248,-2.2135 2.0377,-1.0403 c 2.3617,-1.2056 3.9227,-2.6068 5.0717,-4.5528 2.1637,-3.6641 -0.7002,-9.865 -5.622,-12.1725 -1.5465,-0.725 -2.2231,-0.8453 -4.6874,-0.8334 -2.5838,0.012 -3.0795,0.1168 -4.8192,1.0139 -3.5494,1.8303 -6.1764,5.7563 -5.7812,8.6399 0.4278,3.1206 2.8252,6.1193 6.3186,7.9031 l 2.0418,1.0426 0.087,6.0118 c 0.06,4.163 -0.026,6.1476 -0.2792,6.4533 -0.2188,0.2637 -0.9883,0.4415 -1.9108,0.4415 -2.7888,0 -8.877,0.9515 -13.1854,2.0607 -15.9838,4.1152 -29.5171,13.9966 -39.032,28.4993 -5.7786,8.80781 -9.825,19.33971 -11.7279,30.52511 -0.353,2.0746 -0.8037,3.7614 -1.0461,3.915 -0.2342,0.1485 -2.4059,0.2722 -4.8259,0.2749 h -4.3999 v 2.17596 c 0,1.2658 -0.1606,2.3367 -0.384,2.56 -0.2233,0.2234 -1.2942,0.384 -2.56,0.384 h -2.176 v 7.5201 7.52 h 1.9411 c 2.9254,0 3.1789,0.2306 3.1789,2.8913 v 2.2287 h 4.6172 c 3.7707,0 4.7093,0.092 5.12,0.5029 0.4467,0.4467 0.5028,2.8017 0.5028,21.0971 0,17.1408 -0.075,20.6688 -0.4441,21.0385 -0.3521,0.3521 -3.1533,0.5173 -13.52,0.7974 -7.1917,0.1944 -13.1998,0.2337 -13.3512,0.087 -0.4604,-0.4447 -0.017,-34.1756 0.5617,-42.7243 0.2859,-4.2246 0.5545,-10.6326 0.5968,-14.24 l 0.077,-6.5591 -14.88,-0.16 -14.88,-0.16 -1.7035,-0.9437 c -2.671,-1.4795 -4.7116,-4.57246 -5.6541,-8.57006 -0.604,-2.562 -0.6053,-7.4459 0,-10.3261 0.6184,-2.9559 2.6166,-6.9358 4.5787,-9.12 l 1.5811,-1.76 h 15.7948 15.7949 l 1.9406,-5.76 c 4.8464,-14.38461 10.4992,-24.34431 19.5722,-34.48391 1.6948,-1.8942 3.6702,-3.9202 4.3897,-4.5024 0.7195,-0.5821 6.9962,-4.4862 13.9482,-8.6758 6.952,-4.1896 12.8983,-7.8436 13.214,-8.1199 0.5428,-0.4753 0.5642,-1.4251 0.3939,-17.4803 -0.099,-9.3378 -0.2535,-18.2234 -0.3431,-19.7458 -0.2085,-3.5413 0,-3.7919 3.0826,-3.7919 h 2.2218 l -0.085,-10 -0.085,-10 -3.2801,-0.091 c -2.3173,-0.064 -3.277,-0.2053 -3.2699,-0.48 0,-0.2139 -0.05,-3.7997 -0.124,-7.9686 -0.1161,-6.5671 -0.2137,-7.74284 -0.73,-8.80004 -1.1532,-2.3608 0.2302,-2.2328 -28.9161,-2.6748 -14.344,-0.2175 -26.332,-0.5242 -26.64,-0.6817 -0.5008,-0.256 -0.5595,-0.868 -0.5551,-5.795 0,-3.0298 0.1107,-5.6595 0.24,-5.8438 0.1293,-0.1843 1.0281,-0.7178 1.9973,-1.1854 6.5382,-3.1552 8.4394,-11.41588 3.8321,-16.65006 -4.6224,-5.25133 -12.3472,-5.78307 -17.3668,-1.19549 -0.932,0.85188 -2.1205,2.3177 -2.641,3.25741 -0.8623,1.55664 -0.9465,1.97901 -0.9465,4.74861 0,2.61149 0.1182,3.29197 0.8384,4.82773 1.0626,2.2659 2.6702,3.875 5.0939,5.0984 l 1.9077,0.9631 v 5.8811 c 0,5.0677 -0.07,5.9081 -0.5061,6.0754 -0.2784,0.1069 -11.5882,0.1943 -25.1328,0.1943 -24.1051,0 -24.6535,0.014 -25.8981,0.6487 -1.5014,0.7659 -3.0419,2.7663 -3.5428,4.60064 -0.2465,0.9024 -0.2821,3.0551 -0.1144,6.9107 0.134,3.08 0.2596,6.104 0.279,6.72 l 0.035,1.12 -4,0.16 -4,0.16 0.088,8.8 c 0.048,4.84 0.173,11.0755 0.2772,13.8567 l 0.1895,5.0568 3.4028,-0.035 c 1.8715,-0.02 3.6066,-0.027 3.8557,-0.017 0.3902,0.016 0.4244,15.2642 0.2469,109.92401 -0.1326,70.69296 -0.096,109.97366 0.1034,110.09666 0.1703,0.1053 12.2992,0.9685 26.9532,1.9184 l 26.6435,1.72696 51.36,0.3651 c 100.787,0.7163 121.4655,0.8539 123.3601,0.821 l 1.92,-0.034 0.16,-39.09336 z m -73.92,-31.9799 c -4.9445,-0.2742 -10.7046,-0.8401 -14.72,-1.4462 -6.8759,-1.0378 -16.0628,-3.5891 -16.4101,-4.5572 -0.2065,-0.5757 4.7712,-11.2324 5.2963,-11.3388 0.2592,-0.053 1.6917,0.4097 3.1833,1.0271 3.7629,1.5577 8.8589,2.9517 14.3305,3.9202 3.9067,0.6915 5.9295,0.8458 12.8,0.9765 12.7174,0.242 22.4438,-1.0747 32.2818,-4.3702 2.573,-0.8619 4.7841,-1.4654 4.9136,-1.3411 0.5106,0.4899 5.0567,10.9644 4.8817,11.2476 -0.583,0.9434 -12.2312,3.6961 -19.5171,4.6124 -7.8547,0.9879 -20.9963,1.6049 -27.04,1.2697 z m -17.92,-37.66136 c -5.4431,-1.5596 -9.3756,-5.9463 -10.2928,-11.4818 -1.2109,-7.3073 4.0959,-14.428 11.6905,-15.6865 6.8147,-1.12921 13.671,3.4524 15.43,10.3109 1.7116,6.6736 -2.0394,13.8813 -8.5077,16.3478 -2.184,0.8327 -6.3104,1.0855 -8.32,0.5096 z m 40.64,-1.0032 c -4.9877,-1.3879 -8.8782,-5.5653 -9.9389,-10.6719 -1.5732,-7.5742 3.7857,-15.1762 11.5443,-16.37621 9.0933,-1.4064 17.2651,6.82721 15.6994,15.81821 -1.4194,8.1505 -9.5077,13.3994 -17.3048,11.2299 z m -130.8801,-76.37571 c -8.8337,-0.7716 -19.84,-3.3598 -19.84,-4.6656 0,-0.6272 3.8699,-9.0608 4.1576,-9.0608 0.1289,0 1.2982,0.4392 2.5984,0.976 6.5724,2.7134 14.1037,3.9711 23.644,3.9482 9.678,-0.023 16.1977,-0.976 24.0523,-3.5152 1.9356,-0.6258 3.6933,-1.071 3.906,-0.9893 0.2128,0.082 1.2309,2.0457 2.2626,4.3646 1.6089,3.6164 1.8119,4.28 1.4271,4.6648 -0.6688,0.6689 -8.5614,2.5972 -13.6142,3.3262 -8.6124,1.2427 -20.6655,1.6436 -28.5938,0.9511 z m -11.3344,-30.7545 c -4.301,-0.5507 -8.323,-3.4548 -10.2801,-7.423 -2.7651,-5.6063 -1.7954,-11.7007 2.5537,-16.0498 2.5393,-2.5394 5.2708,-3.75 8.8467,-3.921 6.0083,-0.2872 10.769,2.5129 13.3202,7.8347 4.7488,9.9059 -3.4199,20.9701 -14.4405,19.5591 z m 39.8948,-1.0572 c -7.0512,-1.5318 -11.9329,-8.6762 -10.7293,-15.7025 1.973,-11.5186 16.3995,-15.6719 24.0897,-6.9354 6.9497,7.8953 2.7379,20.4636 -7.5911,22.6523 -2.5992,0.5508 -3.1742,0.5493 -5.7693,-0.014 z m 200.7197,216.52643 8,-0.2012 v -57.91996 c 0,-31.856 -0.058,-106.01597 -0.129,-164.79997 l -0.1289,-106.88007 3.6489,-0.32 3.649,-0.32 0.083,-18.54137 c 0.05,-11.33267 -0.035,-18.65895 -0.2198,-18.84378 -0.1663,-0.1663 -1.8595,-0.39069 -3.7626,-0.49862 l -3.4603,-0.19623 -0.16,-12.79999 -0.16,-12.8 -5.12,-0.0895 c -2.816,-0.0492 -18.08,0.0396 -33.92,0.19725 -15.84,0.15767 -28.9822,0.21767 -29.2049,0.13331 -0.3161,-0.11971 -0.3864,-2.0888 -0.32,-8.96252 0.072,-7.44544 0.1592,-8.84816 0.5649,-9.06122 0.264,-0.13862 1.1558,-0.5591 1.9817,-0.9344 3.4655,-1.57459 5.4141,-4.51344 5.6246,-8.48294 0.1872,-3.5288 -0.6476,-5.73254 -3.1007,-8.1856 -2.3983,-2.3983 -4.6611,-3.27667 -8.0256,-3.11526 -3.0236,0.14505 -4.9373,1.06112 -7.0534,3.37644 -4.1166,4.50432 -5.0235,11.05901 -1.9741,14.26845 1.0466,1.10157 2.1653,1.7223 4.7075,2.6121 l 1.92,0.67203 0.086,8.46592 c 0.074,7.33126 0.019,8.5144 -0.4087,8.82761 -0.3634,0.26586 -8.8016,0.31677 -31.8456,0.19213 l -31.3512,-0.16952 v 14.10167 c 0,7.75593 -0.087,14.32947 -0.1943,14.60787 -0.1616,0.42115 -0.8153,0.50617 -3.8924,0.50617 h -3.6981 l 0.2086,18.44957 c 0.1148,10.14726 0.2595,18.50045 0.3217,18.56262 0.062,0.0622 1.589,0.37661 3.3929,0.69869 1.9223,0.34323 3.3982,0.77264 3.5658,1.03738 0.3709,0.58592 0.6253,81.27621 0.3046,96.61181 -0.1412,6.7547 -0.1086,7.3122 0.5268,9.0137 1.0021,2.6829 2.4183,4.529 4.5837,5.975 2.3574,1.5742 4.0526,2.2222 11.0407,4.2204 19.5753,5.5973 33.7401,12.2297 46.354,21.7044 5.0297,3.7779 11.4935,9.883 15.4645,14.6065 3.7174,4.4218 8.469,11.6219 11.1925,16.96 6.3309,12.4087 10.0299,25.79401 11.8496,42.88001 0.5405,5.0751 0.5718,9.0926 0.4672,59.89846 -0.062,29.9522 -0.016,54.61366 0.1009,54.80326 0.2096,0.3391 7.1717,0.2754 28.4913,-0.2606 z m -72.8,-289.98887 c -8.1238,-0.665 -17.0525,-2.34484 -22.4932,-4.23182 -2.0139,-0.69849 -2.9753,-1.19478 -3.0466,-1.5728 -0.1088,-0.57693 4.1955,-10.34342 4.8735,-11.05769 0.3143,-0.33114 1.0001,-0.16554 3.5677,0.86163 12.6116,5.04531 28.5919,6.40198 45.3909,3.8535 5.1311,-0.7784 11.1894,-2.25321 15.1598,-3.69043 1.6633,-0.60208 3.1977,-1.09472 3.4097,-1.09472 0.2121,0 1.4918,2.46806 2.844,5.48461 1.8686,4.16851 2.3737,5.58669 2.1054,5.91008 -0.4031,0.48566 -4.2319,1.70349 -8.4281,2.68073 -3.8818,0.904 -9.7629,1.8394 -15.2784,2.43001 -5.5282,0.592 -22.8698,0.8554 -28.1047,0.4269 z m -12.7129,-36.59214 c -5.9924,-1.452 -11.1606,-6.53747 -12.7172,-12.5135 -2.3742,-9.11513 3.8521,-18.85081 13.2055,-20.64864 9.8304,-1.8895 19.2736,5.26112 20.1165,15.23264 0.9446,11.17459 -9.8212,20.54253 -20.6048,17.9295 z m 44.323,-0.0157 c -3.0859,-0.78441 -5.6595,-2.30051 -8.0956,-4.76912 -3.575,-3.62268 -4.9545,-6.9319 -4.9545,-11.8846 0,-4.53143 1.6888,-8.55955 4.96,-11.83079 6.6826,-6.68259 17.1345,-6.6287 23.8615,0.12298 8.8647,8.89725 5.352,23.72733 -6.6071,27.89401 -2.4866,0.86634 -6.7414,1.0834 -9.1643,0.46752 z M 538.3543,997.80314 c 27.34252,-1.211 49.83241,-2.3234 49.97753,-2.472 0.14509,-0.1487 0.54887,-17.7461 0.89728,-39.1054 0.34842,-21.3592 0.75453,-38.9551 0.9025,-39.102 0.14793,-0.1469 1.38349,-0.405 2.74563,-0.5736 2.87008,-0.3552 4.27885,-1.0663 5.19203,-2.6207 0.62829,-1.0694 0.6512,-1.601 0.64771,-15.02866 -0.004,-13.4218 -0.0269,-13.9599 -0.65542,-15.0357 -0.75334,-1.2895 -2.44006,-2.0556 -5.42096,-2.4624 l -1.92,-0.2619 -0.0221,-11.2 -0.0218,-11.20001 -1.25808,-0.094 c -0.69194,-0.052 -10.65376,-0.4185 -22.13741,-0.8154 -14.02438,-0.4846 -20.99657,-0.8387 -21.23632,-1.0785 -0.35933,-0.3593 -2.21289,-14.9924 -1.98099,-15.6391 0.0684,-0.1908 0.91802,-0.6758 1.88806,-1.0779 4.99556,-2.0705 8.28442,-8.7767 7.19744,-14.676 -1.74035,-9.4451 -12.80304,-14.5885 -21.02921,-9.7772 -1.92029,1.1232 -4.50407,3.9984 -5.49693,6.1171 -0.78672,1.6787 -0.86269,2.179 -0.86269,5.6808 0,3.5648 0.0647,3.9719 0.90288,5.6793 1.44765,2.949 3.71904,5.1788 6.78893,6.6647 l 2.64662,1.281 0.19348,3.5875 c 0.10643,1.9732 0.22828,5.5315 0.27078,7.9075 l 0.0773,4.32 -23.96969,0.082 c -17.06043,0.058 -24.09373,0.185 -24.40003,0.4392 -0.3467,0.2878 -0.4303,2.7412 -0.4303,12.63191 v 12.2747 l -0.88,0.1958 c -0.484,0.1077 -1.168,0.2734 -1.52,0.3681 -1.1563,0.3112 -2.4037,1.4011 -3.0472,2.6625 -0.6034,1.1828 -0.6327,1.927 -0.6316,16.05296 0,14.4265 0.019,14.8413 0.6652,15.9019 0.8952,1.4685 1.805,2.1887 3.3336,2.6389 0.704,0.2074 1.46,0.5969 1.68,0.8657 0.3152,0.385 0.4,8.7798 0.4,39.5742 0,21.497 0.096,39.1815 0.2134,39.2988 0.1173,0.1174 0.2973,0.20976 0.4,0.20536 0.1026,0 22.55779,-0.99866 49.90032,-2.20966 z m -1.8737,-59.4391 c -6.15168,-0.3441 -12.39994,-1.4383 -16.9848,-2.9744 -2.99331,-1.0029 -5.8745,-2.3375 -6.20678,-2.8752 -0.32676,-0.5286 3.37664,-11.5336 3.88128,-11.5336 0.24368,0 1.01622,0.3618 1.71676,0.8041 3.1954,2.0172 9.06445,3.999 14.23354,4.8064 2.75763,0.4307 4.76752,0.5139 9.28,0.3843 8.37715,-0.2407 14.34003,-1.5621 21.05526,-4.6662 1.92983,-0.892 2.86077,-1.1798 2.95991,-0.9149 1.26979,3.3925 3.54189,10.7844 3.38835,11.0235 -0.85917,1.3377 -9.15398,3.8995 -16.2249,5.0111 -3.04828,0.4792 -12.81392,1.2111 -14.53862,1.0897 -0.44,-0.031 -1.592,-0.1007 -2.56,-0.1548 z m -17.68496,-31.1518 c -8.51696,-2.1451 -11.16509,-12.85146 -4.63158,-18.72566 4.12224,-3.7063 10.2551,-3.6282 14.42582,0.1836 6.98067,6.38 2.88467,18.06426 -6.55795,18.70726 -1.11722,0.076 -2.57357,0 -3.23629,-0.1652 z m 37.52496,-0.1607 c -3.38022,-0.9317 -6.10867,-3.4532 -7.37898,-6.8193 -0.952,-2.52246 -0.76454,-5.97746 0.4601,-8.48056 1.1056,-2.2598 3.52006,-4.449 5.89437,-5.3447 1.47712,-0.5571 2.31197,-0.6622 4.38451,-0.5518 4.25194,0.2266 7.45373,2.3784 9.33552,6.2742 1.23565,2.5581 1.25702,6.1326 0.0522,8.72976 -2.31248,4.9852 -7.67574,7.5905 -12.74774,6.1924 z m -482.804462,84.0893 c 0.2697,-1.6014 212.744902,-536.22754 213.358602,-536.84892 0.5911,-0.59849 0.7479,-0.59702 9.1836,0.0861 21.5482,1.74487 35.1172,2.29395 61.8623,2.5033 32.0854,0.25113 52.9916,-0.44947 79.7788,-2.67363 5.4824,-0.45524 6.4004,-0.4648 6.7943,-0.0709 0.4233,0.42336 213.90688,536.95285 213.90688,537.59345 0,0.4254 0.6013,0.3848 10.08,-0.6807 13.5798,-1.5266 25.3058,-3.2571 25.8744,-3.8185 0.1517,-0.1498 -48.8077,-120.86156 -109.51458,-270.01371 -91.6702,-225.22679 -109.8424,-270.12026 -110.1132,-272.0297 -0.2127,-1.49942 -0.2183,-3.03055 -0.016,-4.44681 0.229,-1.60531 7.9918,-22.45696 30.22923,-81.1982 23.28176,-61.49993 29.83453,-79.1198 29.53079,-79.40592 -0.68432,-0.6446 -20.63063,-5.04451 -34.47037,-7.60371 -31.06005,-5.74355 -60.71645,-9.3608 -91.99995,-11.22137 -26.2209,-1.55949 -58.5792,-1.55949 -84.8,0 -34.367,2.04396 -67.8147,6.34489 -100.7044,12.94924 -9.7877,1.96541 -20.3581,4.30429 -24.5305,5.42781 -1.1893,0.32023 -1.3693,0.47635 -1.238,1.07344 0.084,0.38429 13.7244,35.90672 30.311,78.93872 16.5865,43.03199 30.3635,78.95999 30.6155,79.83999 0.6754,2.35891 0.6097,6.64192 -0.1373,8.96 -0.3404,1.056 -50.0328,122.53711 -110.4276,269.95801 C 86.694838,865.87978 37.280838,986.71644 37.280838,986.98474 c 0,0.5714 0.9747,0.7692 10.72,2.1756 7.301,1.0536 21.9152,2.7716 24.0437,2.8264 1.2054,0.031 1.3369,-0.044 1.4719,-0.8459 z M 348.32064,313.72444 c -35.5374,-0.69299 -71.2727,-3.76492 -90.7201,-7.79865 -11.4249,-2.36973 -16.8,-4.62579 -16.8,-7.05139 0,-5.37386 32.5969,-11.08218 77.4401,-13.56115 29.5601,-1.63415 64.5368,-1.63523 94.4,-0.003 42.1285,2.30262 73.3426,7.42528 77.2065,12.67059 0.5296,0.71894 0.5604,0.9496 0.2138,1.6 -0.5544,1.0407 -1.1037,1.45097 -3.3807,2.52537 -15.6276,7.37399 -79.7761,12.76061 -138.3596,11.61821 z m 108.4146,-96.0236 -0.095,-2.16 -3.7823,-0.62279 c -4.228,-0.69617 -4.1769,-0.71277 -4.547,1.47782 -0.343,2.03041 -0.6788,2.0834 -4.6302,0.73083 -1.9393,-0.66384 -3.6924,-1.40735 -3.8956,-1.65225 -0.2854,-0.34384 -0.2033,-0.84629 0.36,-2.20552 0.4013,-0.96814 0.6768,-1.79852 0.6123,-1.8453 -0.6942,-0.50361 -6.5086,-3.72279 -6.7239,-3.72279 -0.1576,0 -0.7433,0.648 -1.3015,1.44 -0.5582,0.792 -1.2257,1.44 -1.4832,1.44 -0.9618,0 -6.4486,-4.60214 -6.4486,-5.40889 0,-0.30006 0.504,-1.03406 1.12,-1.63111 0.616,-0.59705 1.12,-1.21965 1.12,-1.38355 0,-0.31219 -4.3326,-5.52758 -4.8656,-5.85698 -0.169,-0.10447 -0.931,0.2579 -1.6932,0.80529 -1.6501,1.18502 -2.0962,1.23032 -2.7101,0.27524 -1.9878,-3.09229 -3.5311,-5.87908 -3.5311,-6.37625 0,-0.3768 0.4389,-0.79242 1.2,-1.13628 2.3467,-1.06028 2.3776,-1.13969 1.3831,-3.55163 -0.4844,-1.17471 -1.0687,-2.71184 -1.2983,-3.41584 -0.2296,-0.704 -0.5553,-1.36952 -0.7236,-1.47893 -0.1684,-0.1094 -0.9624,-0.001 -1.7645,0.24 -0.8021,0.24141 -1.6448,0.43893 -1.8725,0.43893 -0.5023,0 -0.9318,-1.43544 -1.6141,-5.39456 -0.5842,-3.3901 -0.5141,-3.55195 1.5437,-3.56054 2.2056,-0.009 2.1862,0.0294 2.1862,-4.34464 v -3.95126 l -1.04,-0.17 c -0.572,-0.0935 -1.472,-0.20803 -2,-0.2545 -0.7507,-0.0661 -0.9852,-0.25895 -1.0754,-0.8845 -0.1753,-1.21623 0.946,-7.30703 1.4173,-7.69817 0.2939,-0.24393 0.7697,-0.2453 1.6363,-0.005 2.3955,0.6652 2.3865,0.67286 3.7181,-3.18315 0.669,-1.93723 1.131,-3.66028 1.0268,-3.829 -0.1043,-0.16873 -0.8131,-0.58256 -1.5751,-0.91962 -0.762,-0.33707 -1.4852,-0.77431 -1.6072,-0.97165 -0.2387,-0.38632 2.3091,-5.45403 3.481,-6.92373 l 0.7125,-0.89348 1.4705,1.01174 c 1.7811,1.22547 2.2418,1.25564 2.9384,0.19247 0.2952,-0.4506 1.3243,-1.7476 2.2869,-2.88223 1.9318,-2.27721 1.9374,-2.42431 0.1574,-4.11836 -0.5431,-0.51693 -0.9875,-1.11933 -0.9875,-1.33867 0,-0.41149 5.9756,-5.56146 6.4531,-5.56146 0.1474,0 0.7852,0.72 1.4174,1.6 0.6322,0.88 1.1997,1.6 1.261,1.6 0.109,0 3.2845,-1.91198 5.6638,-3.41021 l 1.1953,-0.75269 -0.7929,-1.79297 c -0.4361,-0.98614 -0.7197,-1.91147 -0.6302,-2.05629 0.2903,-0.46976 6.9008,-2.90893 7.607,-2.80688 0.5235,0.0756 0.8117,0.51479 1.22,1.85904 0.4091,1.34656 0.6745,1.75042 1.1301,1.71924 0.9178,-0.0628 6.9758,-1.17693 7.1472,-1.31442 0.083,-0.067 0.1111,-1.02929 0.061,-2.13841 l -0.091,-2.0166 1.2188,-0.20138 c 0.6703,-0.11077 2.5331,-0.20297 4.1395,-0.20491 3.4881,-0.004 3.7628,0.19107 3.4616,2.4611 -0.1506,1.13554 -0.089,1.65306 0.2251,1.89184 0.2379,0.18079 1.7285,0.51986 3.3125,0.75348 4.6584,0.68707 4.3741,0.76547 4.8955,-1.34994 0.557,-2.26012 0.7183,-2.28322 5.0733,-0.72668 4.0198,1.43673 4.203,1.61852 3.3387,3.31283 -1.0084,1.97655 -0.8895,2.36787 1.0125,3.333 0.924,0.46886 2.4301,1.29935 3.347,1.84555 l 1.6669,0.99307 1.1631,-1.61889 c 0.6397,-0.89039 1.3088,-1.61888 1.487,-1.61888 0.6155,0 6.656,4.97217 6.656,5.47881 0,0.16252 -0.592,0.93773 -1.3156,1.7227 l -1.3155,1.42721 0.9155,1.09313 c 0.5036,0.60123 1.5636,1.89173 2.3556,2.86778 0.79199,0.97605 1.66361,1.78268 1.93695,1.79251 0.27331,0.01 1.11299,-0.43519 1.86595,-0.98892 l 1.36899,-1.00677 0.74493,0.76677 c 0.74208,0.76389 4.00317,6.26814 4.00317,6.75682 0,0.1413 -0.792,0.64534 -1.76,1.12009 -0.968,0.47475 -1.76,1.00094 -1.76,1.16929 0,0.16836 0.4471,1.47036 0.9936,2.89334 0.54646,1.42298 1.13994,2.98323 1.31882,3.46723 0.37254,1.00805 0.56844,1.04174 2.56428,0.44108 0.80215,-0.24141 1.61991,-0.33913 1.81728,-0.21716 0.3778,0.2335 1.62602,6.1158 1.62602,7.66277 0,0.86521 -0.0858,0.91622 -2,1.18866 l -2,0.28465 v 3.68 c 0,2.024 0.12563,3.86 0.27917,4.08 0.15357,0.22 0.88205,0.4 1.61885,0.4 2.36752,0 2.49622,0.27481 1.92246,4.10466 -0.27229,1.81757 -0.63453,3.67145 -0.80496,4.11975 -0.28797,0.75739 -0.40566,0.79774 -1.66272,0.56998 -2.86067,-0.51831 -2.69459,-0.64029 -3.92886,2.88561 -0.61613,1.76 -1.15255,3.41216 -1.19207,3.67146 -0.0424,0.27804 0.61738,0.84433 1.60813,1.38031 0.9415,0.50933 1.68,1.13258 1.68,1.41779 0,1.04665 -3.68122,7.13044 -4.3145,7.13044 -0.2142,0 -0.99756,-0.4405 -1.7408,-0.9789 -0.74323,-0.53839 -1.47814,-0.93439 -1.63312,-0.88 -0.44892,0.15755 -4.79157,5.68627 -4.79157,6.10025 0,0.20593 0.5989,0.98469 1.3309,1.73056 l 1.33098,1.35613 -1.09098,1.02744 c -2.0867,1.96531 -5.2179,4.44451 -5.6133,4.44451 -0.2188,0 -0.8632,-0.648 -1.432,-1.44 -0.5687,-0.792 -1.1607,-1.44 -1.3154,-1.44 -0.1547,0 -1.4623,0.71074 -2.9058,1.57942 -1.4434,0.86869 -2.8764,1.67609 -3.1844,1.79424 -0.7257,0.27837 -0.7068,0.8442 0.08,2.38634 0.352,0.68997 0.64,1.45657 0.64,1.70355 0,0.85053 -7.4262,3.70544 -8.1266,3.12419 -0.2119,-0.17586 -0.5714,-1.04604 -0.7989,-1.93374 -0.4702,-1.83442 -0.4312,-1.82221 -3.7145,-1.16533 -1.232,0.24648 -2.7927,0.54327 -3.4683,0.65954 l -1.2283,0.21141 0.1014,1.82019 c 0.056,1.00111 -0.012,2.00019 -0.1506,2.22019 -0.1803,0.2863 -1.425,0.4 -4.3785,0.4 h -4.1265 z m -110.5789,-74.26642 c -0.2871,-0.18224 -0.3798,-1.07931 -0.32,-3.09506 l 0.084,-2.83844 -3.52,-0.53371 c -1.936,-0.29355 -4.301,-0.7024 -5.2555,-0.90856 -0.9545,-0.20617 -1.8561,-0.25416 -2.0036,-0.10666 -0.1476,0.1475 -0.5639,1.33934 -0.9253,2.64852 -0.3614,1.30918 -0.7756,2.50101 -0.9205,2.6485 -0.1449,0.14749 -2.1875,-0.37967 -4.5393,-1.17145 -5.2503,-1.76773 -6.6585,-2.35942 -6.8591,-2.88196 -0.086,-0.22276 0.2808,-1.36705 0.814,-2.54286 0.5331,-1.17581 0.9693,-2.35027 0.9693,-2.6099 0,-0.25963 -0.612,-0.74448 -1.36,-1.07744 -0.748,-0.33297 -2.8496,-1.49181 -4.6702,-2.57522 -1.8205,-1.08339 -3.4413,-1.88878 -3.6015,-1.78973 -0.1603,0.0991 -0.8782,1.04405 -1.5953,2.10001 -0.717,1.05596 -1.5129,2.00019 -1.7686,2.09829 -0.8063,0.30944 -9.4044,-6.64453 -9.4044,-7.60615 0,-0.26049 0.792,-1.25578 1.76,-2.21176 0.968,-0.95597 1.7555,-1.88705 1.75,-2.06907 0,-0.18201 -1.1624,-1.62693 -2.5709,-3.21093 -1.4086,-1.584 -2.8801,-3.34574 -3.2701,-3.91498 -0.39,-0.56925 -0.8752,-1.0994 -1.0782,-1.17811 -0.203,-0.0787 -1.3771,0.56703 -2.609,1.43499 -1.232,0.86795 -2.3291,1.5781 -2.4381,1.5781 -0.6593,0 -6.4443,-10.00901 -6.1036,-10.56026 0.1141,-0.18462 1.194,-0.8325 2.3999,-1.43974 1.2058,-0.60723 2.2706,-1.23064 2.3662,-1.38536 0.096,-0.15471 -0.3061,-1.419234 -0.8926,-2.810034 -0.5866,-1.39081 -1.4081,-3.58938 -1.8256,-4.88571 -0.4175,-1.29633 -0.9512,-2.43067 -1.186,-2.52075 -0.2347,-0.0901 -1.5021,0.14866 -2.8164,0.53053 -1.3143,0.38188 -2.5165,0.61588 -2.6716,0.52001 -0.5954,-0.36799 -2.4266,-9.81003 -2.206,-11.37464 0.1049,-0.74401 0.2833,-0.81421 2.832,-1.11404 l 2.72,-0.32 v -5.55013 c 0,-3.05257 -0.085,-5.60335 -0.1907,-5.6684 -0.1053,-0.065 -1.3785,-0.21727 -2.8293,-0.33827 -1.6184,-0.13496 -2.6966,-0.37272 -2.7896,-0.61514 -0.3399,-0.88584 1.3027,-10.6613 1.9323,-11.49901 0.3127,-0.41615 0.6668,-0.39436 2.8815,0.17728 1.6422,0.42385 2.6342,0.54251 2.8374,0.33937 0.1717,-0.17179 0.8541,-1.94436 1.5164,-3.93903 0.6622,-1.99467 1.4374,-4.16205 1.7226,-4.81639 0.2853,-0.65435 0.5187,-1.27345 0.5187,-1.37578 0,-0.10233 -1.0931,-0.70512 -2.429,-1.33955 -1.3359,-0.63443 -2.4974,-1.33201 -2.5812,-1.55018 -0.3507,-0.9139 5.0614,-10.38547 5.9334,-10.38375 0.2842,6.4e-4 1.3808,0.5761 2.4368,1.27898 1.056,0.70288 2.0843,1.27842 2.2852,1.27898 0.2008,6.4e-4 1.378,-1.25898 2.616,-2.79898 1.238,-1.54 2.7867,-3.42292 3.4415,-4.18427 l 1.1907,-1.38427 -1.9668,-1.98434 c -1.0809,-1.09138 -1.9659,-2.14693 -1.9659,-2.34565 0,-0.72912 8.2768,-7.78147 9.1325,-7.78147 0.2393,0 1.103,0.936 1.9194,2.08 0.8163,1.144 1.6721,2.08 1.9016,2.08 0.2296,0 1.693,-0.80449 3.252,-1.78776 1.559,-0.98327 3.5083,-2.13253 4.3318,-2.55392 0.8236,-0.42138 1.5779,-0.89634 1.6762,-1.05547 0.098,-0.15913 -0.3362,-1.40399 -0.9656,-2.7663596 -0.9503,-2.0567 -1.0718,-2.54613 -0.7162,-2.88423 0.5186,-0.49303 7.1887,-3.16043 9.3064,-3.72167 1.0364,-0.27466 1.6222,-0.29828 1.846,-0.0745 0.1804,0.18033 0.6105,1.31607 0.9559,2.52387 0.3454,1.2078 0.7426,2.31059 0.8827,2.45065 0.14,0.14006 2.0507,-0.10598 4.2459,-0.54676 2.1953,-0.44078 4.5674,-0.90846 5.2714,-1.0393 l 1.28,-0.23788 -0.1043,-2.90848 -0.1044,-2.90848998 1.0244,-0.20487 c 1.965,-0.393011 10.8055,-0.23741 11.0854,0.19513 0.1424,0.22 0.2589,1.62056998 0.2589,3.11238998 v 2.71238 l 3.04,0.38883 c 1.672,0.21385 4.048,0.60421 5.28,0.86747 1.232,0.26325 2.3573,0.36315 2.5008,0.22199 0.1434,-0.14116 0.5301,-1.30353 0.8592,-2.58306 0.3291,-1.27952 0.7343,-2.46227 0.9003,-2.62833 0.3498,-0.34974 3.4641,0.51827 7.8564,2.18972 4.0081,1.52524 3.9807,1.48486 2.7869,4.11789 -0.541,1.1930796 -0.9836,2.4154596 -0.9836,2.7163796 0,0.33089 0.5178,0.78063 1.31,1.13788 0.7205,0.32491 2.8293,1.49446 4.6861,2.59901 1.8568,1.10456 3.4681,1.95136 3.5807,1.8818 0.1125,-0.0696 0.8467,-1.07326 1.6314,-2.23042 0.7847,-1.15716 1.6439,-2.10242 1.9093,-2.10057 0.8422,0.006 9.2825,6.77007 9.2825,7.43917 0,0.16324 -0.792,1.172 -1.76,2.24167 -0.968,1.06968 -1.76,2.08435 -1.76,2.25484 0,0.17049 0.828,1.2452 1.84,2.38825 1.012,1.14305 2.5305,2.92302 3.3745,3.95549 0.844,1.03247 1.7159,1.87722 1.9375,1.87722 0.2217,0 1.3233,-0.648 2.448,-1.44 1.1247,-0.792 2.1641,-1.44 2.3097,-1.44 0.7353,0 6.531,9.97631 6.152,10.58962 -0.1241,0.20077 -1.2867,0.8486 -2.5836,1.43962 -1.297,0.59103 -2.3581,1.19226 -2.3581,1.33606 0,0.1438 0.5607,1.63415 1.246,3.31189 0.6852,1.67774 1.5088,3.88434 1.83,4.90356 0.3213,1.01922 0.7568,1.91935 0.9677,2.0003 0.211,0.081 1.492,-0.16385 2.8469,-0.54401 1.4825,-0.416 2.5794,-0.57508 2.7549,-0.39956 0.38,0.38006 1.778,6.99421 2.0599,9.74655 0.2506,2.44548 0.4527,2.27937 -3.2211,2.64743 -1.0536,0.10556 -2.0292,0.30546 -2.168,0.44422 -0.1387,0.13877 -0.2127,2.6895 -0.1643,5.66831 l 0.088,5.41601 2.7783,0.32 c 1.528,0.176 2.8621,0.40607 2.9646,0.51127 0.504,0.51734 -1.4376,11.4223 -2.1074,11.83625 -0.1882,0.11632 -1.3712,-0.0558 -2.6289,-0.38253 -1.2576,-0.32672 -2.462,-0.5965 -2.6763,-0.59951 -0.2144,-0.003 -0.7646,1.22361 -1.2228,2.72584 -0.4582,1.50223 -1.2549,3.75403 -1.7703,5.00401 -0.5155,1.25002 -0.9372,2.40512 -0.9372,2.56692 0,0.16181 1.0837,0.7881 2.4084,1.391754 1.3246,0.60365 2.4908,1.31223 2.5915,1.57462 0.3128,0.81519 -4.8488,9.93072 -5.8382,10.31039 -0.2707,0.10387 -1.3996,-0.45493 -2.6228,-1.29831 -1.1811,-0.81437 -2.2337,-1.48067 -2.3392,-1.48067 -0.1055,0 -0.915,0.972 -1.7991,2.16 -0.884,1.188 -2.4158,3.06545 -3.404,4.1721 -0.9881,1.10665 -1.7966,2.11916 -1.7966,2.25002 0,0.13085 0.864,1.0929 1.92,2.13788 1.056,1.04499 1.92,2.03217 1.92,2.19374 0,0.66981 -8.3906,7.88075 -9.1744,7.88448 -0.2058,9.6e-4 -1.1096,-1.00925 -2.0084,-2.24495 -1.8546,-2.5498 -1.4063,-2.535 -5.1002,-0.16845 -1.1644,0.74595 -3.017,1.83059 -4.117,2.41032 -1.1,0.57971 -2,1.15999 -2,1.2895 0,0.1295 0.5055,1.34474 1.1233,2.70052 0.6179,1.35579 1.0533,2.57853 0.9676,2.71719 -0.2129,0.34435 -5.8838,2.66043 -8.7317,3.56608 -1.6963,0.53945 -2.4161,0.64275 -2.6749,0.3839 -0.1948,-0.19477 -0.6249,-1.33046 -0.9558,-2.52375 -0.3308,-1.19329 -0.723,-2.29101 -0.8714,-2.43938 -0.1483,-0.14838 -2.1299,0.0878 -4.4034,0.52485 -2.2736,0.43705 -4.6879,0.88287 -5.3653,0.99072 l -1.2316,0.19608 0.1116,2.92982 0.1116,2.92982 -1.28,0.23131 c -1.7553,0.31721 -10.1452,0.31861 -10.6443,0.002 z"
     id="path868"
     inkscape:connector-curvature="0" />
  <path
     style="fill:#ffffff;fill-opacity:1;stroke:#ffffff;stroke-width:0.70627117"
     d="m 283.62106,1000.8947 c -40.67935,-0.3736 -52.94283,-0.7215 -69.21457,-1.96351 -10.87657,-0.83021 -20.96643,-1.51333 -22.42189,-1.51805 l -2.64631,-0.009 -0.17878,-110.00173 -0.17878,-110.00174 -3.59809,-0.20967 -3.59809,-0.20966 -0.47539,-13.16012 c -0.37109,-10.27262 -0.27897,-13.28481 0.41987,-13.72838 0.49239,-0.31253 2.32546,-0.57302 4.07348,-0.57887 l 3.17822,-0.0106 v -8.09962 c 0,-12.25706 -2.49777,-11.24437 28.79935,-11.67637 l 25.58353,-0.35313 0.20244,-6.0689 0.20245,-6.06889 -2.74058,-1.81363 c -8.23034,-5.44658 -5.79509,-17.42437 3.99709,-19.65963 5.43114,-1.23978 12.03235,2.57685 13.61953,7.87441 1.21054,4.04042 -0.68113,8.58509 -4.7744,11.47029 l -3.09068,2.17852 v 5.77493 5.77494 l 2.64851,0.43777 c 1.45669,0.24078 8.52823,0.44233 15.71454,0.4479 7.1863,0.006 18.12361,0.21988 24.30512,0.47624 14.38632,0.59664 13.83352,0.14977 13.83352,11.18266 v 8.12211 l 2.29538,0.0108 c 4.19815,0.0198 4.39008,0.45261 4.66048,10.51032 l 0.2463,9.16087 -2.71824,0.22336 -2.71824,0.22336 0.26988,20.19493 0.2699,20.19494 -13.68905,8.34136 c -15.45995,9.42048 -18.97772,12.57477 -26.4351,23.70368 -4.88627,7.29196 -7.67534,12.95751 -11.27914,22.9117 l -2.30126,6.35644 -15.96987,0.35313 -15.96987,0.35314 -2.37854,3.3469 c -3.15414,4.43828 -4.24823,8.60995 -3.82166,14.57174 0.40611,5.67603 2.53466,10.05143 5.90236,12.13278 2.02307,1.25033 3.58571,1.37764 16.90807,1.37764 h 14.67898 l -0.45855,10.77064 c -0.25221,5.92385 -0.66954,20.27174 -0.9274,31.8842 l -0.46883,21.11356 13.60714,-0.35677 c 10.54688,-0.27653 13.74689,-0.57744 14.22851,-1.33797 0.69178,-1.09242 0.89121,-39.41685 0.21429,-41.18089 -0.33355,-0.86921 -1.50928,-1.11717 -5.29704,-1.11717 h -4.86833 v -2.39639 c 0,-2.44871 -0.88804,-3.25378 -3.58912,-3.25378 -1.24463,0 -1.35478,-0.57059 -1.35478,-7.01796 v -7.01797 l 2.29538,-0.22131 c 2.01833,-0.19461 2.32209,-0.49838 2.5167,-2.5167 0.19874,-2.06119 0.45094,-2.29617 2.47195,-2.30316 1.23785,-0.004 3.41344,-0.20006 4.83464,-0.43508 2.5583,-0.42305 2.59258,-0.47391 3.44577,-5.11269 4.64945,-25.27894 20.53994,-46.20585 41.809,-55.06018 5.20165,-2.16545 17.60774,-5.06749 21.6633,-5.06749 2.12184,0 2.18716,-0.0962 2.2793,-3.35479 0.19584,-6.92684 -0.16863,-9.69682 -1.37071,-10.4175 -0.64792,-0.38845 -2.37394,-1.86071 -3.83559,-3.27169 -2.25756,-2.17932 -2.65754,-3.01959 -2.65754,-5.58296 0,-2.60694 0.38846,-3.38706 2.85483,-5.73327 2.62951,-2.5014 3.17298,-2.71535 6.88614,-2.71107 4.50088,0.005 7.20234,1.35181 9.40047,4.68591 2.82736,4.28851 1.23652,9.15951 -3.89377,11.92236 l -2.53479,1.36508 v 6.44193 6.44194 l 6.17987,0.85672 c 28.481,3.94832 50.36197,24.24138 57.81408,53.61849 0.9291,3.66261 1.68927,7.40191 1.68927,8.30956 0,1.75332 1.81068,3.11251 4.14645,3.11251 1.07928,0 1.46664,0.54362 1.63554,2.29538 0.1946,2.01832 0.49837,2.32209 2.51669,2.5167 l 2.29539,0.22131 v 6.93936 6.93937 l -2.42899,0.45567 c -2.10376,0.39467 -2.45838,0.75983 -2.64852,2.72712 -0.17876,1.84963 -0.55976,2.31097 -2.05163,2.48429 l -1.83211,0.21286 -0.46327,12.78981 c -0.2548,7.0344 -0.46328,24.6572 -0.46328,39.16177 v 26.37199 l -42.90597,-0.1468 c -23.59829,-0.081 -65.15352,-0.351 -92.34496,-0.6007 z m 80.16178,-70.23018 c 7.88485,-0.38546 24.24295,-3.20437 26.92527,-4.6399 1.76773,-0.94606 1.71196,-1.32858 -1.07237,-7.35488 l -2.39794,-5.19004 -5.90075,1.72404 c -9.91294,2.8963 -16.91571,3.80471 -29.32998,3.80471 -12.40957,0 -18.01671,-0.80556 -27.09178,-3.89219 -2.84277,-0.96689 -5.28433,-1.75798 -5.42568,-1.75798 -0.45122,0 -5.14575,10.16307 -5.14575,11.13988 0,3.06052 26.20224,7.66906 38.49178,6.77008 1.55379,-0.11367 6.48003,-0.38534 10.9472,-0.60372 z M 337.7154,892.1372 c 1.72594,-0.88052 3.66715,-2.74386 4.96653,-4.76733 1.92303,-2.99465 2.10902,-3.78162 1.88832,-7.98986 -0.27905,-5.32068 -1.97669,-8.46299 -6.09773,-11.28677 -2.05581,-1.40866 -3.35528,-1.70199 -7.53993,-1.70199 -4.37148,0 -5.43738,0.26428 -7.8727,1.95195 -11.29122,7.82483 -5.96318,25.21043 7.73291,25.23281 2.73735,0.004 5.02588,-0.47118 6.9226,-1.43881 z m 40.04443,-0.60459 c 4.98232,-2.55508 7.91742,-7.19774 7.91742,-12.52356 0,-9.05735 -8.59667,-15.90899 -17.11661,-13.64215 -6.44358,1.7144 -10.67181,7.17579 -10.7099,13.83342 -0.0567,9.9071 11.12823,16.83538 19.90909,12.33229 z M 260.60615,815.87444 c 9.16627,-0.96539 19.13042,-3.36707 19.13042,-4.61104 0,-1.21023 -3.30852,-8.78969 -3.83679,-8.78969 -0.21075,0 -3.48591,0.83375 -7.27815,1.85278 -5.40563,1.45258 -9.10706,1.92798 -17.1359,2.20091 -11.43721,0.38878 -18.08167,-0.38076 -25.4177,-2.94381 l -4.82215,-1.68476 -2.10832,4.70163 c -1.15958,2.58591 -1.96717,4.93583 -1.79464,5.22206 0.50954,0.84536 7.25536,2.60163 14.04651,3.65702 7.60807,1.18233 20.13275,1.35162 29.21672,0.3949 z m -24.90692,-32.89587 c 5.39679,-4.36799 7.2578,-9.06892 5.83194,-14.73155 -2.45136,-9.73522 -14.2842,-13.85695 -22.28505,-7.76254 -4.75514,3.62209 -6.48759,11.21879 -3.85788,16.9166 2.57262,5.57413 7.04159,8.23828 13.29398,7.92514 3.64173,-0.18238 4.83501,-0.58161 7.01701,-2.34765 z m 38.22365,0.74524 c 5.37309,-2.24501 8.63878,-7.14356 8.63878,-12.95819 0,-4.29884 -0.91481,-6.86087 -3.39972,-9.52126 -11.2232,-12.01581 -30.16947,1.55388 -22.55833,16.15672 3.2408,6.21785 10.88836,9.00974 17.31927,6.32273 z"
     id="path9"
     inkscape:connector-curvature="0" />
  <path
     style="fill:#ffffff;fill-opacity:1;stroke:#ffffff;stroke-width:0.70627117"
     d="m 487.91592,960.15817 -0.18249,-39.36519 -1.85176,-0.88743 c -3.75208,-1.79814 -3.80423,-2.05982 -3.7221,-18.67464 0.0674,-13.63203 0.22056,-15.59694 1.30973,-16.80046 0.67838,-0.7496 1.91533,-1.46013 2.74877,-1.57894 1.47552,-0.21034 1.52042,-0.54267 1.70776,-12.63998 l 0.19241,-12.42396 16.40497,-0.46386 c 9.02273,-0.25513 20.00858,-0.4646 24.413,-0.4655 l 8.00804,-0.002 -0.23906,-7.8697 c -0.20616,-6.78676 -0.42085,-7.97732 -1.56019,-8.65182 -7.32042,-4.33376 -8.9198,-6.68396 -8.9198,-13.10718 0,-4.11292 0.26516,-5.06087 2.12177,-7.58546 2.66892,-3.62918 6.35558,-5.44447 10.96258,-5.39792 7.60563,0.0769 13.75396,6.35364 13.75396,14.04133 0,3.64021 -3.16665,9.03634 -6.35417,10.82783 -3.20593,1.80183 -3.19281,1.73161 -2.0253,10.83536 0.57095,4.45203 1.1306,6.42428 1.94225,6.84467 0.6271,0.32481 7.01989,0.79295 14.2062,1.04031 7.18631,0.24736 16.80043,0.64621 21.3647,0.88632 l 8.29869,0.43657 v 11.11932 11.11932 l 2.77497,0.44374 c 4.94895,0.79137 4.99401,0.9428 4.99401,16.78419 0,8.35166 -0.29768,14.67762 -0.72856,15.48273 -0.4389,0.82009 -1.80418,1.53333 -3.43396,1.79394 -1.48797,0.23794 -3.07181,0.65906 -3.51963,0.93583 -0.75438,0.46623 -2.13639,44.69636 -2.18873,70.04788 l -0.017,8.19548 -8.65182,0.46631 c -15.2861,0.82387 -85.53124,3.97562 -88.6311,3.97669 l -2.99569,0.001 z m 70.51947,-23.45582 c 7.16056,-1.72566 11.57863,-3.46846 11.57863,-4.56743 0,-1.09092 -2.87342,-9.79355 -3.44822,-10.44349 -0.24089,-0.27238 -3.67203,0.61204 -7.62476,1.96538 -9.89044,3.3863 -20.33715,4.03433 -29.13334,1.80717 -3.27369,-0.82888 -7.26735,-2.14373 -8.87481,-2.92189 -1.60745,-0.77815 -3.27312,-1.41483 -3.70148,-1.41483 -0.65125,0 -1.56573,2.32066 -4.11275,10.43685 -0.6234,1.9865 8.62367,5.27769 19.10985,6.80152 4.72807,0.68708 20.64635,-0.32321 26.20688,-1.66328 z m -30.87722,-31.05639 c 2.98906,-2.1284 4.56318,-5.36712 4.57721,-9.41754 0.0132,-3.80762 -1.44184,-6.26214 -5.26884,-8.88811 -2.0091,-1.37858 -3.07966,-1.60455 -6.47593,-1.36691 -3.47415,0.24309 -4.43109,0.63575 -6.54665,2.68623 -4.31973,4.18685 -4.69376,10.35591 -0.91885,15.15494 3.23434,4.11179 10.2053,4.98424 14.63306,1.83139 z m 37.41606,0.13263 c 3.22696,-2.38972 5.04004,-5.73671 5.03714,-9.29869 -0.005,-6.29655 -4.5118,-10.65879 -11.01668,-10.66355 -12.03525,-0.009 -15.001,16.43511 -3.81201,21.13605 2.51243,1.05557 7.60559,0.445 9.79155,-1.17381 z"
     id="path13"
     inkscape:connector-curvature="0" />
  <path
     id="path15"
     style="fill:#ffffff;fill-opacity:1;stroke:#ffffff;stroke-width:0.99881822"
     d="m 336.8353,612.46274 v -5.97888 l 31.71248,-0.26374 31.71248,-0.26373 0.28548,-8.52608 0.28548,-8.52607 -3.42061,-1.23691 c -6.75652,-2.44319 -7.01981,-11.15328 -0.5029,-16.63689 6.77087,-5.69732 15.83778,-1.21248 15.83778,7.83395 0,4.08427 -0.3922,4.83963 -4.0313,7.76409 l -4.0313,3.23964 0.28573,8.54354 0.28573,8.54354 h 33.95982 33.95982 l 0.29955,5.74321 0.29956,5.7432 h -68.4689 -68.4689 z m 101.5649,382.00823 c -0.25239,-3.55573 -0.45889,-29.3014 -0.45889,-57.21262 0,-55.59534 -0.11307,-57.53237 -4.27226,-73.19029 -4.92381,-18.53642 -12.83381,-32.10404 -26.32716,-45.15762 -12.5964,-12.18588 -26.55036,-19.88499 -49.7982,-27.4762 -9.10897,-2.97439 -15.12377,-5.33105 -16.44617,-6.44377 -4.34054,-3.65233 -4.14523,-1.0493 -4.23655,-56.46359 -0.046,-27.89051 -0.287,-51.66093 -0.53565,-52.82313 -0.39849,-1.86262 -0.84906,-2.18563 -3.80093,-2.72492 l -3.34884,-0.61182 v -18.28665 -18.28664 h 3.4558 c 2.4997,0 3.57439,-0.30908 3.88449,-1.11717 0.23578,-0.61445 0.4287,-4.42831 0.4287,-8.47526 v -7.35808 h 68.5083 68.5083 v 6.68525 6.68525 l 3.4465,0.45719 3.44649,0.4572 0.4898,6.26109 c 0.26938,3.4436 0.2622,11.83 -0.016,18.63645 l -0.50578,12.37536 h -3.43052 -3.43052 v 164.80341 164.80339 l -11.76627,0.4641 c -6.47145,0.2552 -14.36941,0.464 -17.55102,0.464 h -5.78475 z m -9.28728,-284.86589 c 9.13762,-1.37182 16.59737,-3.60292 16.59737,-4.96404 0,-1.758 -4.381,-10.9337 -5.21503,-10.92249 -0.43355,0.006 -3.33085,0.80069 -6.43844,1.76636 -9.42594,2.92907 -19.69686,4.10721 -31.7822,3.64563 -10.71923,-0.4094 -16.46983,-1.39873 -23.82273,-4.09844 -2.22593,-0.81728 -4.49633,-1.31359 -5.04535,-1.10291 -0.98435,0.37773 -4.33664,6.99399 -5.11501,10.09527 -0.36259,1.44466 0.0507,1.73274 4.42424,3.08358 4.30644,1.33012 12.32834,2.91557 19.31792,3.81801 4.8313,0.62377 30.12842,-0.27746 37.07923,-1.32097 z m -38.24116,-35.9375 c 8.34529,-3.48689 12.98466,-13.56189 10.04205,-21.80763 -3.25832,-9.1304 -14.27719,-13.809 -23.19699,-9.84941 -6.98074,3.09881 -11.37418,11.63436 -9.74216,18.92701 2.24898,10.04947 13.86118,16.50547 22.8971,12.73003 z m 43.63817,0.15138 c 5.60556,-1.67946 10.62323,-7.68213 11.61713,-13.89763 1.10323,-6.89923 -3.83056,-15.45152 -10.43947,-18.09588 -11.39135,-4.55792 -23.39654,3.58678 -23.44473,15.90564 -0.0148,3.79206 0.33186,5.23093 1.9087,7.92161 4.29944,7.33643 12.34987,10.56567 20.35837,8.16626 z" />
</svg>
