<?xml version="1.0" encoding="UTF-8" standalone="no"?>
<!-- Created with Inkscape (http://www.inkscape.org/) -->

<svg
   xmlns:dc="http://purl.org/dc/elements/1.1/"
   xmlns:cc="http://creativecommons.org/ns#"
   xmlns:rdf="http://www.w3.org/1999/02/22-rdf-syntax-ns#"
   xmlns:svg="http://www.w3.org/2000/svg"
   xmlns="http://www.w3.org/2000/svg"
   xmlns:sodipodi="http://sodipodi.sourceforge.net/DTD/sodipodi-0.dtd"
   xmlns:inkscape="http://www.inkscape.org/namespaces/inkscape"
   version="1.1"
   id="svg2"
   width="160"
   height="160"
   viewBox="0 0 160 160"
   sodipodi:docname="logo_small.svg"
   inkscape:version="0.92.2 2405546, 2018-03-11">
  <metadata
     id="metadata8">
    <rdf:RDF>
      <cc:Work
         rdf:about="">
        <dc:format>image/svg+xml</dc:format>
        <dc:type
           rdf:resource="http://purl.org/dc/dcmitype/StillImage" />
        <dc:title></dc:title>
      </cc:Work>
    </rdf:RDF>
  </metadata>
  <defs
     id="defs6" />
  <sodipodi:namedview
     pagecolor="#ffffff"
     bordercolor="#666666"
     borderopacity="1"
     objecttolerance="10"
     gridtolerance="10"
     guidetolerance="10"
     inkscape:pageopacity="0"
     inkscape:pageshadow="2"
     inkscape:window-width="1364"
     inkscape:window-height="732"
     id="namedview4"
     showgrid="false"
     inkscape:zoom="4.0047326"
     inkscape:cx="88.775635"
     inkscape:cy="51.491536"
     inkscape:window-x="0"
     inkscape:window-y="35"
     inkscape:window-maximized="0"
     inkscape:current-layer="svg2"
     fit-margin-top="0"
     fit-margin-left="0"
     fit-margin-right="0"
     fit-margin-bottom="0"
     inkscape:pagecheckerboard="true" />
  <path
     style="fill:#edbb1e;stroke-width:0.04364167"
     d="m 31.854247,157.9726 c -1.484444,-0.23593 -2.702688,-1.15121 -3.241676,-2.43549 -0.25214,-0.60077 -0.307429,-0.90853 -0.303324,-1.68828 0.0033,-0.62863 0.01549,-0.73715 0.122197,-1.08835 0.446127,-1.4682 1.590971,-2.51711 3.131331,-2.86897 0.312556,-0.0714 0.55755,-0.0938 1.041495,-0.0955 0.686006,-0.002 1.120964,0.0664 1.680204,0.2658 0.627827,0.22383 1.505638,0.7551 1.505638,0.91126 0,0.0804 -0.856304,1.19199 -0.94416,1.22571 -0.03185,0.0116 -0.131921,-0.0362 -0.222395,-0.10735 -0.287476,-0.2264 -0.606442,-0.40286 -0.980015,-0.54216 -0.468262,-0.17459 -1.196382,-0.21939 -1.650255,-0.10157 -0.845135,0.21945 -1.541288,0.91627 -1.768566,1.7703 -0.104357,0.39215 -0.0843,1.06549 0.04374,1.46868 0.250967,0.79025 0.860409,1.39205 1.659366,1.63853 0.587567,0.18126 1.386578,0.0945 2.029338,-0.22035 l 0.240029,-0.1176 0.01173,-1.05932 0.01173,-1.05931 0.773862,0.0116 0.773863,0.0116 0.01146,1.5181 0.01146,1.51813 -0.105095,0.0974 c -0.285266,0.26437 -1.301422,0.69615 -2.034479,0.86448 -0.426311,0.0979 -1.414113,0.14303 -1.797424,0.0821 z m 11.270313,-0.0471 c -1.480722,-0.19163 -2.520362,-1.20469 -2.711676,-2.6424 -0.209194,-1.57193 0.607274,-2.94993 2.011799,-3.39547 0.478668,-0.15178 0.992153,-0.21558 1.491482,-0.18516 0.564819,0.0344 0.93104,0.12717 1.409653,0.35704 1.103494,0.53002 1.690583,1.58631 1.623893,2.92171 -0.03776,0.75598 -0.212958,1.26791 -0.616383,1.80098 -0.66083,0.87322 -1.895754,1.31322 -3.208768,1.1433 z m 1.202941,-1.54683 c 0.265928,-0.12932 0.600783,-0.47299 0.717005,-0.73572 0.0459,-0.10372 0.103357,-0.32895 0.127669,-0.50039 0.113712,-0.8018 -0.212836,-1.52828 -0.821283,-1.82708 -0.220131,-0.10801 -0.294568,-0.12122 -0.683456,-0.12122 -0.457078,0 -0.610506,0.0482 -0.948552,0.29814 -0.184099,0.1361 -0.411991,0.49976 -0.493819,0.78796 -0.109608,0.38611 -0.07414,1.01716 0.07539,1.34125 0.126466,0.27406 0.365226,0.55939 0.578293,0.69108 0.389734,0.24088 1.029479,0.27003 1.448753,0.0661 z m 7.147525,1.55355 c -0.491038,-0.0781 -0.894559,-0.26853 -1.218298,-0.5747 -0.124332,-0.1176 -0.2479,-0.21378 -0.274616,-0.21378 -0.03072,0 -0.05323,0.13229 -0.06124,0.36004 l -0.01272,0.36005 -0.847835,0.0116 c -0.649102,0.01 -0.8561,-0.001 -0.883076,-0.0436 -0.01937,-0.0306 -0.03554,-1.90272 -0.0359,-4.1604 0,-3.2218 0.01106,-4.121 0.05404,-4.17971 0.04889,-0.0669 0.142714,-0.0735 0.883744,-0.0629 l 0.829042,0.0116 0.0114,1.53838 c 0.0063,0.8461 0.02281,1.53836 0.03665,1.53836 0.01387,0 0.136355,-0.0993 0.272201,-0.22057 0.749355,-0.66909 1.922198,-0.79402 2.942704,-0.31347 0.994076,0.46813 1.562753,1.51209 1.562753,2.86887 0,1.81684 -1.024883,3.00556 -2.66847,3.09504 -0.202388,0.0116 -0.468112,0.003 -0.590472,-0.0149 z m 0.595818,-1.58275 c 0.312816,-0.14518 0.54597,-0.38491 0.712763,-0.7332 0.129799,-0.27102 0.135843,-0.30797 0.135365,-0.82918 0,-0.51275 -0.0083,-0.56108 -0.127058,-0.80466 -0.154061,-0.31545 -0.439757,-0.61006 -0.714876,-0.7372 -0.167081,-0.0771 -0.285622,-0.0946 -0.641384,-0.0946 -0.402048,0 -0.454787,0.01 -0.669818,0.12932 -0.493028,0.27309 -0.779727,0.75219 -0.823641,1.37636 -0.06126,0.87067 0.365772,1.57509 1.076708,1.77609 0.30121,0.0852 0.769226,0.0482 1.051943,-0.0827 z m 4.913152,1.57608 c -1.044973,-0.21467 -1.688578,-1.14223 -1.516317,-2.18529 0.09536,-0.57742 0.405487,-0.99752 0.924564,-1.25244 0.454527,-0.22321 0.770193,-0.27094 1.976421,-0.29882 l 1.085041,-0.0251 -0.01919,-0.23129 c -0.0257,-0.31002 -0.176586,-0.53031 -0.475381,-0.69403 -0.20727,-0.11363 -0.287885,-0.13097 -0.676295,-0.146 -0.518314,-0.02 -0.923622,0.0661 -1.521622,0.32294 -0.218346,0.0938 -0.392857,0.14567 -0.414364,0.12304 -0.06481,-0.0679 -0.481572,-1.02534 -0.481572,-1.10626 0,-0.15194 1.085709,-0.56215 1.790508,-0.67644 1.523026,-0.247 2.733006,0.1242 3.24795,0.99629 0.275624,0.46683 0.289644,0.61899 0.276088,2.99499 l -0.01206,2.11662 h -0.829192 -0.829192 l -0.01338,-0.26186 c -0.0074,-0.14402 -0.031,-0.27965 -0.05264,-0.30139 -0.02344,-0.0236 -0.109963,0.0243 -0.21424,0.11842 -0.205117,0.18533 -0.497433,0.34065 -0.83267,0.44247 -0.289138,0.0879 -1.114566,0.12519 -1.412503,0.0641 z m 1.674353,-1.32564 c 0.287885,-0.10372 0.522582,-0.2813 0.66229,-0.50121 0.106561,-0.16775 0.123259,-0.23759 0.123259,-0.51584 v -0.32181 l -0.949207,0.0132 c -0.897627,0.0132 -0.957838,0.0193 -1.108211,0.11281 -0.287858,0.17899 -0.372428,0.52124 -0.214649,0.86872 0.08772,0.1932 0.207174,0.29223 0.472244,0.39153 0.204243,0.0765 0.738512,0.0512 1.014273,-0.0482 z m 34.631237,1.32726 c -0.896195,-0.14022 -1.620934,-0.65103 -2.022409,-1.42554 -0.696644,-1.34392 -0.443455,-3.22828 0.55418,-4.12435 0.497857,-0.44719 1.003718,-0.64244 1.750345,-0.67557 0.806063,-0.0358 1.353928,0.14402 1.845703,0.60576 0.123176,0.11561 0.239184,0.21024 0.257786,0.21024 0.01861,0 0.03899,-0.69226 0.0453,-1.53836 l 0.0114,-1.53836 h 0.851009 0.85101 v 4.21142 4.21142 H 96.5829 95.73189 l -0.01255,-0.38186 c -0.0069,-0.21004 -0.02481,-0.38187 -0.0397,-0.38187 -0.01486,0 -0.137941,0.1057 -0.273415,0.23496 -0.267674,0.25532 -0.597345,0.443 -0.939891,0.53513 -0.295045,0.0793 -0.859236,0.10669 -1.176771,0.057 z m 1.511217,-1.52302 c 0.614379,-0.28878 0.959243,-0.95745 0.893835,-1.73304 -0.05501,-0.65233 -0.380691,-1.15266 -0.902823,-1.38697 -0.240917,-0.10818 -0.306801,-0.11842 -0.667349,-0.10488 -0.308356,0.0116 -0.446973,0.0382 -0.604915,0.11594 -0.288745,0.14221 -0.549844,0.41901 -0.707459,0.75006 -0.126909,0.26658 -0.135002,0.3139 -0.134275,0.78555 0,0.41871 0.01716,0.54273 0.09966,0.74834 0.173817,0.43323 0.544498,0.77722 0.966651,0.89706 0.28438,0.0808 0.807616,0.0451 1.056688,-0.072 z m 9.550387,1.52388 c -0.75965,-0.16004 -1.29362,-0.74499 -1.39531,-1.52859 -0.0232,-0.17872 -0.0428,-0.95827 -0.0435,-1.73237 l -0.001,-1.40744 h -0.36004 c -0.19803,0 -0.38521,-0.0167 -0.41596,-0.0362 -0.0418,-0.0266 -0.0528,-0.17757 -0.0436,-0.59942 l 0.0122,-0.56392 0.39277,-0.0218 0.39278,-0.0218 0.0243,-0.82918 c 0.0134,-0.45606 0.0281,-0.83452 0.0327,-0.84103 0.005,-0.007 0.39633,-0.007 0.87039,0 l 0.86192,0.0116 0.0218,0.82919 0.0218,0.8292 0.80737,0.0218 0.80737,0.0218 0.0122,0.53939 c 0.008,0.36042 -0.005,0.55953 -0.0381,0.60006 -0.0396,0.0477 -0.21757,0.0606 -0.83056,0.0606 h -0.78011 v 1.3987 c 0,1.4886 0.005,1.52883 0.21833,1.72179 0.13016,0.11776 0.5409,0.11065 0.89253,-0.0149 0.14291,-0.0512 0.27245,-0.0786 0.28787,-0.0606 0.0553,0.0641 0.35174,1.18961 0.32485,1.23313 -0.0436,0.0705 -0.3229,0.19986 -0.65436,0.30295 -0.34812,0.10835 -1.10069,0.15509 -1.41835,0.0882 z m 8.81827,-0.003 c -1.48074,-0.19162 -2.52036,-1.20468 -2.71169,-2.64239 -0.20918,-1.57193 0.60729,-2.94993 2.01181,-3.39547 0.47867,-0.15178 0.99215,-0.2156 1.49148,-0.18516 0.56482,0.0343 0.93103,0.12717 1.40966,0.35704 1.10349,0.53002 1.69057,1.58631 1.62389,2.92169 -0.0378,0.756 -0.21296,1.26792 -0.61638,1.801 -0.66083,0.8732 -1.89576,1.3132 -3.20877,1.14329 z m 1.20293,-1.54684 c 0.26592,-0.12932 0.60079,-0.47297 0.71702,-0.73572 0.0459,-0.10372 0.10335,-0.32895 0.12766,-0.50037 0.11372,-0.80181 -0.21285,-1.52828 -0.82129,-1.82709 -0.22012,-0.10802 -0.29457,-0.12139 -0.68344,-0.12139 -0.45708,0 -0.61051,0.0482 -0.94855,0.29816 -0.1841,0.13609 -0.41201,0.49974 -0.49383,0.78796 -0.10961,0.38611 -0.0742,1.01715 0.0754,1.34123 0.12645,0.27406 0.36523,0.55941 0.57828,0.69109 0.38975,0.24089 1.0295,0.27004 1.44876,0.0661 z m -76.984338,1.43887 c -0.01475,-0.0385 -0.02684,-1.91061 -0.02684,-4.16035 0,-3.20932 0.01173,-4.10651 0.0547,-4.16521 0.04889,-0.0669 0.142695,-0.0735 0.883744,-0.0629 l 0.829042,0.0116 v 4.21142 4.21142 l -0.856904,0.0116 c -0.752778,0.01 -0.860164,0.003 -0.883744,-0.0581 z m 25.355814,0 c -0.0147,-0.0385 -0.02684,-1.91061 -0.02684,-4.16035 0,-3.20932 0.01173,-4.10651 0.0547,-4.16521 0.04889,-0.0669 0.142698,-0.0735 0.883744,-0.0629 l 0.829042,0.0116 v 4.21142 4.21142 l -0.856904,0.0116 c -0.752779,0.01 -0.860165,0.003 -0.883744,-0.0581 z m 5.363752,0.0258 c -0.02511,-0.0406 3.298096,-7.76551 3.394422,-7.89044 0.03265,-0.0423 0.259449,-0.0527 0.963158,-0.0436 l 0.920429,0.0116 1.669186,3.90593 c 0.918057,2.14826 1.669636,3.94069 1.670194,3.98315 0.0014,0.0718 -0.06444,0.0765 -0.945742,0.0654 l -0.946737,-0.0116 -0.301729,-0.75281 -0.301713,-0.75282 H 72.383751 70.53839 l -0.226254,0.55643 c -0.124431,0.30604 -0.268955,0.64481 -0.321147,0.75283 l -0.0949,0.19637 -0.880608,0.0116 c -0.558682,0.008 -0.890577,-0.005 -0.907856,-0.0324 z m 5.476784,-3.02355 c 0.0014,-0.11396 -1.154677,-2.91388 -1.197146,-2.89972 -0.046,0.0149 -1.202532,2.80234 -1.20331,2.89972 0,0.0423 0.268465,0.0545 1.199724,0.0545 0.930699,0 1.200283,-0.0116 1.200732,-0.0545 z m 4.034551,3.01129 c -0.0114,-0.0301 -0.01569,-1.82204 -0.0096,-3.98231 l 0.0114,-3.92774 0.869669,-0.0116 c 0.666586,-0.01 0.877894,0.001 0.904896,0.0436 0.04043,0.0637 0.05029,7.759 0.01008,7.86377 -0.02294,0.0598 -0.143392,0.069 -0.896032,0.069 -0.655429,0 -0.874647,-0.0132 -0.890331,-0.0545 z m 6.240868,0 c -0.0114,-0.0302 -0.01585,-1.82234 -0.0097,-3.98261 l 0.0114,-3.92776 3.008507,-0.0116 c 2.377927,-0.008 3.015817,0 3.04334,0.0436 0.01916,0.0302 0.03513,0.34314 0.03549,0.69546 0,0.52481 -0.01173,0.65299 -0.06791,0.70918 -0.06042,0.0605 -0.31493,0.0685 -2.138442,0.0685 H 85.6726 v 0.851 0.85102 h 1.893734 c 1.686589,0 1.89664,0.008 1.920235,0.069 0.01453,0.038 0.02649,0.35079 0.02649,0.69516 0,0.511 -0.01255,0.63872 -0.06859,0.69469 -0.06019,0.0601 -0.295182,0.0685 -1.921161,0.0685 h -1.852576 l 0.01189,0.86191 0.01189,0.86194 2.172224,0.0116 2.172236,0.0116 -0.01206,0.7306 -0.01206,0.73058 -3.067081,0.0116 c -2.430541,0.008 -3.071433,0 -3.088003,-0.0436 z m 15.371639,0.0261 c -0.0165,-0.0165 -0.03,-1.3811 -0.03,-3.03245 0,-2.92379 0.002,-3.00366 0.0844,-3.04764 0.12619,-0.0675 1.5379,-0.0595 1.63153,0.01 0.0688,0.0505 0.0734,0.27362 0.0629,3.06584 l -0.0114,3.01127 -0.85376,0.0116 c -0.46956,0.007 -0.86725,-0.002 -0.88374,-0.0182 z m 8.29192,0 c -0.0165,-0.0165 -0.03,-1.3811 -0.03,-3.03245 0,-2.92379 0.002,-3.00366 0.0844,-3.04764 0.12618,-0.0675 1.5379,-0.0595 1.63152,0.01 0.0688,0.0505 0.0734,0.27362 0.0629,3.06584 l -0.0114,3.01127 -0.85375,0.0116 c -0.46957,0.007 -0.86725,-0.002 -0.88374,-0.0182 z m 10.64857,0 c -0.0165,-0.0165 -0.03,-1.3811 -0.03,-3.03245 0,-2.92379 0.002,-3.00366 0.0844,-3.04764 0.0485,-0.0259 0.39336,-0.0452 0.81024,-0.0452 0.41687,0 0.76175,0.0192 0.81023,0.0452 0.0743,0.0398 0.0844,0.0945 0.0844,0.45824 0,0.22717 0.0112,0.41304 0.0247,0.41304 0.0137,0 0.14759,-0.12469 0.29779,-0.27713 0.44846,-0.45513 1.03692,-0.68054 1.78108,-0.68221 1.0581,-0.002 1.77429,0.49369 2.1164,1.46597 l 0.1212,0.34439 v 2.18209 2.18207 h -0.87284 -0.87283 l -0.0218,-1.87659 -0.0218,-1.87659 -0.13092,-0.23684 c -0.21781,-0.39407 -0.63391,-0.59922 -1.13469,-0.55946 -0.53568,0.0424 -0.91505,0.31054 -1.15059,0.81288 l -0.11502,0.24528 -0.0218,1.74565 -0.0218,1.74567 -0.85375,0.0116 c -0.46957,0.007 -0.86726,-0.002 -0.88375,-0.0182 z M 99.64408,150.895 c -0.50138,-0.24817 -0.66595,-0.97792 -0.33431,-1.48242 0.28269,-0.43006 1.00234,-0.50998 1.40538,-0.15608 0.41643,0.36563 0.43148,1.1032 0.0302,1.4795 -0.28163,0.26409 -0.75184,0.33199 -1.10126,0.15905 z m 8.29192,0 c -0.50139,-0.24817 -0.66595,-0.97792 -0.33432,-1.48242 0.2827,-0.43006 1.00235,-0.50998 1.40539,-0.15608 0.41643,0.36563 0.43148,1.1032 0.0302,1.4795 -0.28163,0.26409 -0.75184,0.33199 -1.10126,0.15905 z m -38.650903,-7.50245 c -17.480345,-0.20393 -31.926844,-1.02791 -37.422735,-2.13449 -2.241505,-0.45132 -3.405469,-1.173 -3.763795,-2.33361 -0.124788,-0.40418 -0.132384,-1.18127 -0.01538,-1.5729 0.04303,-0.14402 6.913305,-16.94497 15.26729,-37.33546 8.353971,-20.390484 15.197641,-37.113602 15.208142,-37.162522 0.0109,-0.05103 -1.879675,-5.020088 -4.441809,-11.674138 -3.521692,-9.146063 -4.47064,-11.651979 -4.50719,-11.902245 -0.131203,-0.898404 0.383134,-1.87746 1.193232,-2.271431 0.655963,-0.319003 3.924547,-1.142069 6.873563,-1.730838 1.932904,-0.385905 4.598552,-0.823684 6.546252,-1.075095 0.851272,-0.10988 1.136485,-0.202262 1.099048,-0.355993 -0.03703,-0.152095 -0.26826,-0.765196 -0.300909,-0.797845 -0.01602,-0.01602 -0.129865,-0.0035 -0.252836,0.02806 -0.190565,0.04884 -0.229268,0.04808 -0.262163,-0.0051 -0.0567,-0.09175 -0.18811,-0.859627 -0.159759,-0.933526 0.01387,-0.0361 0.114373,-0.07655 0.234125,-0.09421 0.115397,-0.01701 0.219654,-0.04582 0.231655,-0.064 0.01206,-0.01818 0.01206,-0.236398 0,-0.48491 l -0.02182,-0.451839 -0.218207,-0.02182 -0.218209,-0.02182 0.0089,-0.327313 c 0.005,-0.180021 0.03571,-0.415687 0.06851,-0.523699 0.05733,-0.188748 0.06547,-0.195736 0.209343,-0.17961 0.371635,0.04165 0.342628,0.06403 0.502138,-0.387732 0.163458,-0.462921 0.167815,-0.445067 -0.151253,-0.619865 -0.07464,-0.04089 -0.135596,-0.08998 -0.135481,-0.109105 0,-0.0716 0.425369,-0.774094 0.49465,-0.817794 0.07216,-0.04552 0.09383,-0.03738 0.359417,0.135101 0.08441,0.05482 0.11031,0.0351 0.381865,-0.29079 0.160205,-0.192277 0.291307,-0.361743 0.291307,-0.376589 0,-0.01486 -0.07189,-0.106577 -0.159775,-0.203833 l -0.159775,-0.17684 0.288538,-0.27336 c 0.158686,-0.150345 0.341088,-0.307788 0.405295,-0.349865 l 0.116752,-0.0765 0.161476,0.189358 c 0.08881,0.10415 0.179613,0.181673 0.201802,0.17228 0.15122,-0.06405 0.760414,-0.450948 0.760414,-0.482945 0,-0.02172 -0.04098,-0.11979 -0.09103,-0.217923 -0.117759,-0.230791 -0.09256,-0.255989 0.449822,-0.449842 0.461361,-0.164895 0.464143,-0.164301 0.555177,0.118354 0.02889,0.08968 0.06902,0.173252 0.0892,0.185725 0.02017,0.01239 0.161113,-0.005 0.31321,-0.03878 0.152095,-0.03379 0.351575,-0.07434 0.443291,-0.09009 l 0.166752,-0.02864 -0.0114,-0.216014 c -0.0063,-0.118799 0.0088,-0.236185 0.03338,-0.260838 0.0268,-0.02682 0.236142,-0.03982 0.521149,-0.03237 l 0.476335,0.01239 0.02182,0.237005 0.02182,0.237004 0.436416,0.07323 c 0.240029,0.04028 0.450614,0.06535 0.467961,0.05574 0.01734,-0.0096 0.05374,-0.100137 0.08089,-0.201128 0.02714,-0.100996 0.06958,-0.196233 0.09429,-0.211633 0.05231,-0.03259 0.741089,0.191987 0.891872,0.29078 0.0947,0.06205 0.09787,0.07611 0.04207,0.185844 -0.146084,0.287198 -0.147884,0.283755 0.278242,0.526534 0.2172,0.123738 0.411324,0.224985 0.431412,0.224985 0.02007,0 0.08848,-0.07855 0.152029,-0.174567 0.06354,-0.09601 0.133383,-0.174567 0.155201,-0.174567 0.104744,0 0.788278,0.587164 0.788278,0.677138 0,0.02664 -0.05891,0.104893 -0.130922,0.173875 -0.07201,0.06899 -0.130063,0.156125 -0.129022,0.193643 0.0014,0.03751 0.136587,0.214602 0.301182,0.393531 l 0.299287,0.325321 0.182463,-0.126446 c 0.134638,-0.0933 0.200165,-0.115281 0.249997,-0.08385 0.09171,0.05785 0.490643,0.718954 0.491748,0.814918 0,0.04857 -0.07269,0.112689 -0.198639,0.173875 -0.159082,0.07729 -0.195078,0.11477 -0.177594,0.18491 0.03746,0.150361 0.268205,0.757344 0.299982,0.789114 0.01658,0.01658 0.121244,0.0073 0.23257,-0.02081 0.140038,-0.03526 0.219176,-0.03706 0.256816,-0.0058 0.07814,0.06484 0.221509,0.913108 0.164037,0.970569 -0.02474,0.02476 -0.133912,0.05503 -0.242578,0.06727 -0.108675,0.01222 -0.204162,0.0444 -0.212196,0.07143 -0.0081,0.02704 -0.0043,0.245558 0.0083,0.485587 l 0.02292,0.436416 0.205472,0.02362 c 0.113002,0.01305 0.219994,0.03815 0.237764,0.05592 0.03974,0.03974 -0.04701,0.746921 -0.112441,0.916717 -0.04312,0.111945 -0.06075,0.120335 -0.189174,0.09021 -0.292263,-0.06859 -0.345355,-0.05175 -0.408827,0.129634 -0.03245,0.09279 -0.04821,0.186201 -0.03498,0.207592 0.01371,0.02226 0.475544,0.02724 1.079585,0.01156 1.059484,-0.02738 4.113146,0.03345 5.76017,0.11472 6.814907,0.33629 13.748788,1.334171 19.560158,2.814972 2.35635,0.600426 2.7669,0.75631 3.1916,1.21181 0.29825,0.319898 0.46655,0.611624 0.56015,0.970967 0.0751,0.288109 0.0859,0.779705 0.0233,1.051083 -0.0228,0.09888 -1.98937,5.322786 -4.37008,11.608684 -2.38071,6.285898 -4.33704,11.479955 -4.3474,11.542352 -0.0132,0.07961 4.4833,11.174466 15.11378,37.291802 8.32294,20.44811 15.15949,37.27657 15.19235,37.39658 0.0915,0.33446 0.12296,1.06022 0.0598,1.38142 -0.25825,1.31263 -1.45121,2.10625 -3.88627,2.58536 -4.98996,0.98179 -16.80899,1.7314 -32.076625,2.0344 -6.33017,0.12569 -15.85292,0.16104 -22.497283,0.0834 z m 15.907404,-9.75783 c 0.01206,-2.93234 0.03696,-5.34669 0.05546,-5.36519 0.01852,-0.0185 0.151072,-0.0421 0.294582,-0.0525 l 0.260936,-0.0188 0.0014,-0.26751 c 0,-0.14716 0.01884,-0.29628 0.04107,-0.33141 0.02725,-0.0431 0.140683,-0.0695 0.348465,-0.0813 l 0.308056,-0.0173 v -1.02067 -1.02067 h -0.303965 c -0.362867,0 -0.394301,-0.0345 -0.394301,-0.43354 v -0.26472 h -0.294582 c -0.162022,0 -0.317099,-0.0149 -0.344606,-0.0327 -0.02752,-0.0177 -0.07326,-0.18916 -0.101689,-0.38119 -0.337609,-2.28095 -1.342349,-4.33035 -2.866684,-5.84726 -1.496297,-1.48901 -3.420036,-2.38332 -5.622658,-2.61383 l -0.480058,-0.0502 -0.01206,-0.56675 c -0.0066,-0.31172 0.0033,-0.7026 0.02182,-0.86864 l 0.03383,-0.30188 0.277902,-0.14187 c 0.322089,-0.1645 0.534978,-0.35552 0.69168,-0.62092 0.295086,-0.4997 -0.09549,-1.34538 -0.76673,-1.66008 -0.210912,-0.0989 -0.303187,-0.11528 -0.639268,-0.11363 -0.35238,0.002 -0.419985,0.0165 -0.657245,0.13824 -0.484068,0.24962 -0.842338,0.78505 -0.788442,1.17831 0.05835,0.4256 0.385303,0.83455 0.861733,1.07783 l 0.278461,0.14221 0.01189,0.81988 c 0.0083,0.56775 -0.0035,0.83842 -0.03807,0.88012 -0.02984,0.036 -0.134786,0.0603 -0.260595,0.0603 -0.380338,0 -1.210648,0.12982 -1.798228,0.28104 -2.179873,0.56125 -4.025548,1.90886 -5.323192,3.88675 -0.788087,1.20121 -1.339936,2.63755 -1.599455,4.16301 -0.04814,0.28294 -0.109616,0.51299 -0.142665,0.53393 -0.03194,0.0203 -0.328117,0.0372 -0.658157,0.0375 h -0.600028 v 0.29676 c 0,0.17264 -0.0219,0.31869 -0.05237,0.34915 -0.03046,0.0304 -0.176502,0.0524 -0.349132,0.0524 h -0.296764 v 1.02561 1.02558 h 0.264728 c 0.398966,0 0.433539,0.0314 0.433539,0.39431 v 0.30395 h 0.629694 c 0.514249,0 0.642256,0.0132 0.698266,0.0685 0.06093,0.0609 0.06858,0.3821 0.06858,2.87723 0,2.33767 -0.01024,2.81881 -0.06056,2.86923 -0.04803,0.0481 -0.430049,0.0705 -1.843862,0.10868 -0.980805,0.0266 -1.800191,0.0319 -1.820839,0.0116 -0.06279,-0.0606 -0.0023,-4.66089 0.0766,-5.82675 0.03899,-0.57616 0.07563,-1.45008 0.08139,-1.94206 l 0.01057,-0.89454 -2.029338,-0.0218 -2.029339,-0.0218 -0.232323,-0.12866 c -0.364271,-0.20178 -0.642568,-0.62359 -0.771107,-1.16878 -0.08238,-0.3494 -0.08255,-1.01547 0,-1.40827 0.08433,-0.40314 0.356852,-0.94592 0.624444,-1.2438 l 0.21563,-0.24003 h 2.154099 2.154112 l 0.26466,-0.78555 c 0.660954,-1.96178 1.431884,-3.32008 2.669261,-4.70292 0.231138,-0.25832 0.500543,-0.53463 0.598669,-0.61404 0.09812,-0.0794 0.954143,-0.61182 1.902259,-1.18321 0.948115,-0.57136 1.759073,-1.0697 1.802127,-1.10739 0.07402,-0.0649 0.07695,-0.19436 0.05373,-2.38396 -0.01354,-1.2735 -0.03457,-2.48532 -0.04679,-2.69295 -0.02844,-0.48296 0,-0.51713 0.420406,-0.51713 h 0.30301 l -0.01156,-1.3638 -0.01156,-1.36381 -0.44734,-0.0132 c -0.316035,-0.008 -0.446919,-0.0281 -0.445951,-0.0654 0,-0.0292 -0.0068,-0.51821 -0.01691,-1.08677 -0.01586,-0.89561 -0.02915,-1.05596 -0.09956,-1.20015 -0.157282,-0.32196 0.0314,-0.3045 -3.943583,-0.36479 -1.95624,-0.0297 -3.591166,-0.0715 -3.633171,-0.093 -0.06829,-0.0349 -0.0763,-0.11842 -0.07571,-0.79032 0,-0.41322 0.01503,-0.77184 0.03274,-0.79698 0.01764,-0.0251 0.140204,-0.0979 0.272392,-0.16169 0.89168,-0.43031 1.150968,-1.5569 0.522623,-2.270732 -0.630404,-0.716181 -1.683914,-0.788703 -2.368489,-0.163012 -0.127107,0.116107 -0.289194,0.316099 -0.36018,0.444246 -0.117594,0.212298 -0.129089,0.269908 -0.129089,0.647628 0,0.35615 0.01619,0.44895 0.11434,0.6584 0.144911,0.30902 0.364162,0.52847 0.694708,0.69533 l 0.260172,0.1313 v 0.80206 c 0,0.69115 -0.0096,0.80575 -0.06902,0.82858 -0.03797,0.0149 -1.5804,0.0264 -3.427616,0.0264 -3.287459,0 -3.362251,0.002 -3.531989,0.0885 -0.204761,0.10438 -0.414854,0.37727 -0.483168,0.62744 -0.03361,0.12304 -0.03847,0.41665 -0.01553,0.94248 0.01828,0.42005 0.03541,0.83245 0.03805,0.91647 l 0.0048,0.15277 -0.545522,0.0218 -0.545521,0.0218 0.01206,1.20014 c 0.0066,0.66008 0.02359,1.51047 0.03781,1.88978 l 0.02585,0.68964 0.464076,-0.005 c 0.255236,-0.003 0.491868,-0.003 0.525841,-0.002 0.05321,0.002 0.05787,2.08174 0.03368,14.99147 -0.01809,9.64112 -0.01305,14.99822 0.01404,15.015 0.02322,0.0149 1.677367,0.13213 3.675882,0.26163 l 3.633648,0.23552 7.004489,0.0497 c 13.745355,0.0978 16.565492,0.11644 16.823878,0.11198 l 0.261851,-0.005 0.02182,-5.33157 z m -10.081227,-4.36068 c -0.674332,-0.0373 -1.459895,-0.11462 -2.007516,-0.19723 -0.937737,-0.14154 -2.190649,-0.48948 -2.238013,-0.62151 -0.02816,-0.0785 0.650697,-1.53189 0.72231,-1.54639 0.03534,-0.007 0.230715,0.0558 0.434139,0.14006 0.513185,0.21244 1.208178,0.40256 1.954397,0.53463 0.532797,0.0943 0.808666,0.11528 1.745666,0.13312 1.734404,0.033 3.060891,-0.14666 4.4026,-0.59601 0.350906,-0.11759 0.652457,-0.19986 0.670118,-0.1829 0.06963,0.0669 0.689634,1.49532 0.665768,1.53394 -0.07951,0.12866 -1.668095,0.50408 -2.661748,0.62904 -1.071225,0.13477 -2.863479,0.21889 -3.687721,0.17317 z m -2.443934,-5.13626 c -0.742331,-0.21271 -1.278646,-0.81097 -1.403734,-1.56589 -0.165143,-0.99658 0.558599,-1.9677 1.594353,-2.13933 0.929391,-0.15393 1.864455,0.47083 2.104348,1.4062 0.233428,0.91014 -0.278134,1.89314 -1.160283,2.22952 -0.297853,0.11363 -0.860613,0.14798 -1.134684,0.0695 z m 5.542493,-0.13675 c -0.680223,-0.18929 -1.210811,-0.75901 -1.35547,-1.45544 -0.214552,-1.03297 0.516296,-2.06973 1.574415,-2.23338 1.240147,-0.19182 2.354618,0.93108 2.141088,2.15728 -0.193579,1.11157 -1.296663,1.8274 -2.360033,1.53154 z M 60.360375,113.58489 c -1.204742,-0.1052 -2.705785,-0.45822 -2.705785,-0.63629 0,-0.0855 0.527779,-1.23573 0.567016,-1.23573 0.01757,0 0.177048,0.06 0.35437,0.13312 0.896346,0.37004 1.923467,0.54158 3.224574,0.53846 1.319888,-0.003 2.209046,-0.13312 3.280259,-0.47941 0.263976,-0.0854 0.503692,-0.146 0.532701,-0.13494 0.02902,0.0116 0.16787,0.27899 0.308574,0.59525 0.219421,0.4932 0.247107,0.58371 0.194628,0.63618 -0.09122,0.0912 -1.167606,0.3542 -1.856708,0.45363 -1.17456,0.16949 -2.818366,0.22415 -3.899629,0.12965 z m -1.545788,-4.19431 c -0.586571,-0.0751 -1.135092,-0.47117 -1.402003,-1.01234 -0.377104,-0.76459 -0.244856,-1.59576 0.348275,-2.18888 0.34631,-0.34632 0.718832,-0.51143 1.206514,-0.53475 0.819414,-0.0392 1.46868,0.3427 1.816613,1.0685 0.647642,1.35097 -0.466407,2.8599 -1.969399,2.66747 z m 5.440862,-0.14418 c -0.961645,-0.20891 -1.627411,-1.18326 -1.463264,-2.14151 0.269078,-1.57092 2.236568,-2.13733 3.285359,-0.94585 0.947801,1.07675 0.373394,2.79083 -1.035276,3.08932 -0.354481,0.0751 -0.432899,0.075 -0.786819,-0.002 z m 27.374199,29.52992 1.091043,-0.0274 v -7.89913 c 0,-4.34453 -0.0079,-14.45849 -0.01759,-22.47546 l -0.01757,-14.576328 0.497638,-0.0436 0.49765,-0.0436 0.0114,-2.528676 c 0.0068,-1.545547 -0.0048,-2.544713 -0.02998,-2.569916 -0.02268,-0.02263 -0.2536,-0.05335 -0.513145,-0.06805 l -0.471917,-0.02676 -0.02182,-1.74567 -0.02182,-1.745655 -0.698266,-0.01156 c -0.384046,-0.0066 -2.465754,0.005 -4.626018,0.02692 -2.160262,0.02147 -3.952599,0.02973 -3.98297,0.01817 -0.04311,-0.01652 -0.0527,-0.284867 -0.04364,-1.222313 0.0097,-1.015401 0.02172,-1.206706 0.07705,-1.235774 0.03601,-0.01883 0.157628,-0.0763 0.270265,-0.127503 0.472626,-0.214757 0.738376,-0.61555 0.767084,-1.15691 0.02553,-0.481258 -0.08833,-0.781799 -0.422873,-1.116363 -0.327082,-0.327065 -0.635683,-0.446872 -1.094534,-0.424856 -0.412359,0.01982 -0.673351,0.14468 -0.961944,0.460481 -0.561424,0.614295 -0.685107,1.508237 -0.269228,1.945943 0.142731,0.150296 0.295304,0.234874 0.64201,0.356233 l 0.261849,0.09166 0.01173,1.154581 c 0.01008,0.999843 0.0026,1.161204 -0.05574,1.203914 -0.04957,0.03633 -1.200365,0.04327 -4.343111,0.02626 l -4.275684,-0.02312 v 1.923184 c 0,1.057765 -0.01189,1.954267 -0.02649,1.992237 -0.02203,0.05748 -0.111185,0.06904 -0.530847,0.06904 h -0.504348 l 0.02844,2.516157 c 0.01569,1.383888 0.03539,2.523093 0.04387,2.531582 0.0084,0.0083 0.216707,0.05137 0.462724,0.0953 0.262164,0.04674 0.463448,0.105372 0.486304,0.141542 0.05059,0.07994 0.08527,11.08447 0.04154,13.17595 -0.01926,0.92119 -0.01487,0.99723 0.07184,1.22928 0.13667,0.3659 0.329809,0.61767 0.625126,0.81488 0.321503,0.21468 0.552695,0.30306 1.505733,0.57557 2.669684,0.76337 4.601483,1.6679 6.321769,2.96005 0.685952,0.51524 1.567487,1.34786 2.109053,1.99204 0.506979,0.60305 1.155004,1.58501 1.526436,2.31301 0.86341,1.69231 1.36788,3.5178 1.61605,5.84799 0.07371,0.69214 0.07799,1.24005 0.06372,8.16896 -0.0084,4.08489 -0.0021,7.44823 0.01371,7.47408 0.02859,0.0463 0.978079,0.0375 3.88565,-0.0355 z m -9.92848,-39.54875 c -1.107927,-0.0907 -2.325624,-0.31978 -3.067628,-0.57713 -0.274657,-0.0953 -0.405772,-0.16302 -0.415497,-0.2145 -0.01486,-0.0786 0.572184,-1.410641 0.66465,-1.508052 0.04286,-0.04509 0.136389,-0.02263 0.486563,0.117594 1.719974,0.688088 3.89937,0.873099 6.190421,0.525537 0.699781,-0.106197 1.526013,-0.307295 2.067497,-0.50329 0.226842,-0.08209 0.436104,-0.149305 0.465017,-0.149305 0.02892,0 0.203452,0.336596 0.387864,0.747992 0.254841,0.568494 0.323726,0.761914 0.287136,0.806014 -0.05498,0.0662 -0.577148,0.23233 -1.149426,0.36561 -0.529401,0.12321 -1.331467,0.25085 -2.083673,0.33139 -0.753937,0.0808 -3.118987,0.11661 -3.832924,0.0581 z m -1.733789,-4.990445 c -0.817245,-0.19801 -1.522085,-0.891581 -1.734374,-1.706594 -0.323794,-1.243123 0.525349,-2.570874 1.800969,-2.816054 1.340671,-0.257698 2.628538,0.717503 2.743492,2.077427 0.128825,1.523994 -1.339417,2.801586 -2.810087,2.445221 z m 6.044781,-0.0017 C 85.591305,94.12845 85.240316,93.92172 84.908079,93.585058 84.42052,93.091 84.232385,92.639685 84.232385,91.964232 c 0,-0.617994 0.230318,-1.167348 0.676446,-1.613494 0.911374,-0.911367 2.336806,-0.904017 3.254236,0.01685 1.20897,1.213411 0.729907,3.235939 -0.901077,3.804187 -0.339124,0.118089 -0.919394,0.147818 -1.24983,0.06375 z m 15.40872,44.145985 c 3.72898,-0.16516 6.79616,-0.31686 6.81595,-0.33713 0.0198,-0.0203 0.0748,-2.42021 0.12237,-5.33322 0.0475,-2.91296 0.10291,-5.3127 0.12308,-5.33273 0.0202,-0.02 0.18868,-0.0552 0.37444,-0.0783 0.39143,-0.0484 0.58356,-0.14551 0.7081,-0.35741 0.0857,-0.14583 0.0888,-0.21835 0.0883,-2.04961 -5.5e-4,-1.83048 -0.004,-1.90386 -0.0894,-2.05057 -0.10275,-0.17586 -0.33278,-0.28034 -0.73931,-0.33584 l -0.26186,-0.0357 -0.003,-1.52746 -0.003,-1.52746 -0.17157,-0.0132 c -0.0944,-0.007 -1.45296,-0.0571 -3.01911,-0.11115 -1.91264,-0.0661 -2.86351,-0.11446 -2.89621,-0.14716 -0.049,-0.0491 -0.3018,-2.04466 -0.27017,-2.13287 0.009,-0.0259 0.12521,-0.0922 0.25749,-0.14699 0.6813,-0.28237 1.12984,-1.19698 0.98159,-2.00152 -0.23735,-1.28813 -1.74608,-1.98958 -2.86797,-1.33341 -0.26188,0.15326 -0.61426,0.5453 -0.74967,0.83425 -0.10729,0.22893 -0.11766,0.29717 -0.11766,0.77475 0,0.48616 0.009,0.54169 0.12314,0.77453 0.19743,0.4022 0.50721,0.70629 0.92588,0.90894 l 0.36095,0.1747 0.0264,0.48927 c 0.0145,0.2691 0.0311,0.75439 0.0369,1.07843 l 0.0106,0.58916 -3.26899,0.0116 c -2.32671,0.008 -3.285912,0.0253 -3.327686,0.06 -0.04729,0.0393 -0.05868,0.37384 -0.05868,1.72275 v 1.67402 l -0.120022,0.0268 c -0.06601,0.0149 -0.159296,0.0373 -0.207298,0.0502 -0.157694,0.0424 -0.327817,0.19108 -0.415578,0.36312 -0.08228,0.16136 -0.08628,0.2628 -0.08613,2.1893 0,1.96748 0.0026,2.02405 0.09072,2.16869 0.122086,0.20028 0.246165,0.29851 0.454636,0.3599 0.09601,0.0282 0.199116,0.0814 0.229119,0.11809 0.04299,0.0525 0.05455,1.19739 0.05455,5.39714 0,2.93176 0.01305,5.34357 0.0291,5.35957 0.01602,0.0165 0.04055,0.0286 0.05455,0.0281 0.01404,0 3.076439,-0.13626 6.805419,-0.30137 z m -0.25553,-8.10632 c -0.83897,-0.0469 -1.69111,-0.19616 -2.31639,-0.40565 -0.40823,-0.13675 -0.80117,-0.31879 -0.84648,-0.39212 -0.0446,-0.072 0.4605,-1.57296 0.52933,-1.57296 0.0332,0 0.13858,0.0494 0.23413,0.10967 0.43579,0.2751 1.23621,0.54539 1.94117,0.6555 0.37609,0.0588 0.6502,0.07 1.26561,0.0523 1.14248,-0.0329 1.9557,-0.21304 2.87152,-0.63637 0.26319,-0.12156 0.39015,-0.16087 0.40367,-0.1247 0.17318,0.46268 0.48305,1.47078 0.46211,1.5034 -0.11718,0.18243 -1.24842,0.53181 -2.21276,0.68341 -0.41572,0.0654 -1.74756,0.16518 -1.98278,0.14865 -0.06,-0.005 -0.21711,-0.0132 -0.34913,-0.0211 z m -2.41188,-4.2485 c -1.16155,-0.29254 -1.5227,-1.75267 -0.63166,-2.55379 0.5622,-0.50547 1.3986,-0.49482 1.9674,0.0251 0.95202,0.8701 0.39341,2.4636 -0.89437,2.55129 -0.15236,0.01 -0.35099,0 -0.44137,-0.0225 z m 5.11766,-0.022 c -0.46099,-0.12701 -0.8331,-0.47094 -1.00635,-0.93002 -0.12983,-0.34401 -0.10426,-0.81521 0.0627,-1.15658 0.15078,-0.30818 0.48007,-0.60674 0.80388,-0.72891 0.20145,-0.076 0.31531,-0.0903 0.59796,-0.0753 0.57988,0.0309 1.01654,0.32435 1.27318,0.85567 0.16852,0.34887 0.17143,0.83637 0.007,1.19057 -0.31538,0.67988 -1.04682,1.03519 -1.73854,0.84451 z M 38.026148,137.4728 c 0.03678,-0.21839 29.014199,-73.130831 29.097895,-73.215574 0.08061,-0.08159 0.102002,-0.08142 1.252461,0.01156 2.938749,0.237962 4.789293,0.312846 8.436796,0.341402 4.375813,0.03419 7.227006,-0.06128 10.88025,-0.36464 0.747692,-0.0621 0.872888,-0.06342 0.92661,-0.0099 0.05772,0.05781 29.17267,73.229762 29.17267,73.317112 0,0.058 0.082,0.0525 1.37471,-0.0928 1.85202,-0.20818 3.45121,-0.4442 3.52876,-0.52076 0.0207,-0.0205 -6.65641,-16.48313 -14.93563,-36.82453 C 95.258671,69.398148 92.780343,63.275567 92.743412,63.01516 c -0.029,-0.204484 -0.02978,-0.413295 -0.0021,-0.606449 0.03123,-0.218936 1.089924,-3.062687 4.122668,-11.073833 3.17517,-8.387375 4.06884,-10.790377 4.02742,-10.829398 -0.0933,-0.08791 -2.81361,-0.687972 -4.70108,-1.036995 -4.235976,-0.783308 -8.280522,-1.27663 -12.546974,-1.530374 -3.576012,-0.212683 -7.989045,-0.212683 -11.565044,0 -4.686979,0.278756 -9.248584,0.865317 -13.734089,1.76602 -1.334849,0.268044 -2.776443,0.58702 -3.345475,0.740247 -0.162204,0.04367 -0.186746,0.06496 -0.16884,0.146397 0.0114,0.05241 1.871737,4.896967 4.133822,10.765681 2.262071,5.868713 4.140982,10.768576 4.175348,10.888598 0.09211,0.321698 0.08316,0.905818 -0.01873,1.221966 -0.04643,0.144019 -6.823485,16.711639 -15.060142,36.81693 -8.236657,20.1053 -14.975749,36.58504 -14.975749,36.62162 0,0.078 0.13293,0.10488 1.461996,0.29671 0.995712,0.14369 2.9888,0.378 3.279085,0.38547 0.164393,0.005 0.182327,-0.007 0.200738,-0.11545 z M 75.50405,45.086102 c -4.8466,-0.0945 -9.720188,-0.513461 -12.372429,-1.063583 -1.558131,-0.323185 -2.291188,-0.630865 -2.291188,-0.96167 0,-0.732887 4.445574,-1.51139 10.561299,-1.849472 4.031413,-0.222866 8.801544,-0.223013 12.874293,-4.09e-4 5.745496,0.314031 10.002482,1.012661 10.529442,1.728018 0.07222,0.09806 0.07644,0.129502 0.02915,0.218207 -0.07561,0.141938 -0.150527,0.197885 -0.461062,0.344411 -2.131295,1.005666 -10.879882,1.740295 -18.869513,1.584495 z m 14.785607,-13.095721 -0.01288,-0.294582 -0.515832,-0.08494 c -0.576615,-0.09495 -0.569646,-0.09721 -0.620121,0.201546 -0.04677,0.276908 -0.09257,0.284134 -0.631468,0.09967 -0.264481,-0.09054 -0.50357,-0.191935 -0.531282,-0.225334 -0.03893,-0.04689 -0.02773,-0.115413 0.0491,-0.30079 0.05473,-0.132029 0.09231,-0.245282 0.0835,-0.251662 -0.09467,-0.06869 -0.887644,-0.507715 -0.917007,-0.507715 -0.02149,0 -0.101375,0.08838 -0.177499,0.196388 -0.07612,0.108014 -0.167161,0.196388 -0.202279,0.196388 -0.13117,0 -0.879462,-0.627641 -0.879462,-0.737666 0,-0.04093 0.06874,-0.14103 0.15274,-0.222452 0.08402,-0.08142 0.152739,-0.166335 0.152739,-0.188688 0,-0.04258 -0.590881,-0.753853 -0.663571,-0.798776 -0.02304,-0.0142 -0.126975,0.03518 -0.23092,0.109831 -0.225041,0.161609 -0.285879,0.167792 -0.369604,0.03754 -0.271096,-0.421727 -0.481572,-0.80179 -0.481572,-0.869593 0,-0.05138 0.05985,-0.108064 0.163657,-0.15497 0.320043,-0.144597 0.324257,-0.155431 0.188627,-0.484371 -0.06606,-0.160205 -0.145754,-0.369842 -0.177063,-0.465853 -0.03131,-0.09601 -0.07573,-0.186775 -0.09868,-0.201698 -0.02297,-0.01486 -0.131252,-1.35e-4 -0.240642,0.03274 -0.109385,0.03293 -0.224318,0.05985 -0.255373,0.05985 -0.06851,0 -0.127074,-0.195765 -0.220132,-0.735712 -0.07967,-0.462342 -0.07011,-0.484416 0.210531,-0.485587 0.3008,-0.0012 0.298154,0.004 0.298154,-0.592523 v -0.538873 l -0.141839,-0.02319 c -0.078,-0.01272 -0.200751,-0.02838 -0.272759,-0.0347 -0.102383,-0.0091 -0.134357,-0.03531 -0.146662,-0.120633 -0.02391,-0.16587 0.129023,-0.996535 0.193291,-1.049878 0.04008,-0.03326 0.104976,-0.03346 0.223159,-6.82e-4 0.326699,0.09072 0.325472,0.09176 0.507076,-0.434119 0.09123,-0.264199 0.154243,-0.49919 0.140039,-0.5222 -0.0142,-0.02301 -0.110888,-0.07944 -0.214813,-0.125422 -0.103918,-0.04596 -0.202552,-0.105603 -0.21919,-0.132507 -0.03255,-0.05269 0.314915,-0.743823 0.47474,-0.944261 l 0.09716,-0.121854 0.200548,0.137974 c 0.242907,0.16713 0.305737,0.171246 0.400739,0.02624 0.04027,-0.06146 0.180608,-0.238339 0.311889,-0.39308 0.263459,-0.310566 0.264222,-0.330628 0.02147,-0.561663 -0.07407,-0.07049 -0.134671,-0.152657 -0.134671,-0.182568 0,-0.05612 0.814955,-0.758474 0.880076,-0.758474 0.0201,0 0.10709,0.09819 0.193306,0.218209 0.08621,0.120022 0.163607,0.218209 0.171974,0.218209 0.01487,0 0.447941,-0.260757 0.772432,-0.465086 L 87.9843,19.410225 87.87617,19.1657 c -0.05947,-0.134489 -0.09815,-0.260688 -0.08595,-0.280438 0.03959,-0.06406 0.941134,-0.396721 1.037445,-0.382803 0.0714,0.01024 0.110707,0.07021 0.166384,0.253536 0.05579,0.183645 0.09199,0.238724 0.154127,0.234471 0.125174,-0.0086 0.95136,-0.160502 0.974737,-0.179261 0.0114,-0.0091 0.01519,-0.140369 0.0083,-0.291637 l -0.01239,-0.275024 0.16622,-0.02747 c 0.09142,-0.01503 0.345464,-0.02768 0.564545,-0.02794 0.475707,-5.47e-4 0.513172,0.02606 0.472094,0.335644 -0.02055,0.15487 -0.01206,0.225446 0.0307,0.25801 0.03244,0.02466 0.235732,0.0709 0.451759,0.102763 0.635313,0.09371 0.59654,0.104397 0.66765,-0.184105 0.07596,-0.308236 0.09796,-0.311386 0.691898,-0.09911 0.54822,0.195941 0.573206,0.220735 0.455331,0.451804 -0.137528,0.269562 -0.121309,0.322932 0.13809,0.454556 0.126017,0.06395 0.331418,0.177206 0.456465,0.251696 l 0.227332,0.135431 0.158619,-0.220785 c 0.08724,-0.121425 0.178495,-0.220784 0.202798,-0.220784 0.08393,0 0.907747,0.678106 0.907747,0.747202 0,0.02217 -0.08073,0.127883 -0.179423,0.234943 l -0.179408,0.194642 0.124861,0.14909 c 0.06867,0.082 0.213244,0.257995 0.321257,0.391109 0.108014,0.133119 0.226882,0.243122 0.264162,0.244463 0.0373,0.0014 0.15178,-0.05936 0.25448,-0.13487 l 0.1867,-0.137297 0.10159,0.104579 c 0.10121,0.104183 0.54595,0.854851 0.54595,0.921497 0,0.01927 -0.10801,0.08801 -0.24002,0.152756 -0.13202,0.06474 -0.24003,0.136504 -0.24003,0.159461 0,0.02296 0.061,0.200529 0.13551,0.394595 0.0745,0.194067 0.15547,0.406854 0.17986,0.472861 0.0508,0.137479 0.0775,0.142071 0.34972,0.06015 0.1094,-0.03292 0.22092,-0.04624 0.24784,-0.02961 0.0515,0.03184 0.22176,0.834074 0.22176,1.045049 0,0.11799 -0.0117,0.12496 -0.27276,0.162104 l -0.27277,0.03883 v 0.501879 c 0,0.276035 0.0171,0.526428 0.0381,0.556431 0.0209,0.03001 0.12031,0.05455 0.22078,0.05455 0.32289,0 0.34044,0.03748 0.26219,0.559795 -0.0371,0.24788 -0.0865,0.500713 -0.10978,0.561853 -0.0393,0.103291 -0.0553,0.108791 -0.22676,0.07774 -0.39014,-0.07069 -0.36749,-0.08732 -0.53582,0.393539 -0.084,0.24003 -0.15718,0.465352 -0.16258,0.500714 -0.006,0.03792 0.0842,0.115149 0.21931,0.188247 0.12841,0.06947 0.22912,0.154458 0.22912,0.193359 0,0.142748 -0.50204,0.972452 -0.58841,0.972452 -0.0292,0 -0.13604,-0.06007 -0.23741,-0.133499 -0.10136,-0.07343 -0.20159,-0.127437 -0.22273,-0.120021 -0.0612,0.02149 -0.653473,0.775493 -0.653473,0.831953 0,0.02808 0.08167,0.134291 0.181509,0.236013 l 0.181519,0.184949 -0.148793,0.140122 c -0.284584,0.268029 -0.711618,0.606143 -0.765542,0.606143 -0.02985,0 -0.117726,-0.08838 -0.195297,-0.196387 -0.07756,-0.108015 -0.158289,-0.196388 -0.179394,-0.196388 -0.02109,0 -0.19943,0.09693 -0.396294,0.215402 -0.196852,0.118469 -0.392285,0.228584 -0.434291,0.244699 -0.09896,0.03797 -0.09639,0.115133 0.0109,0.325449 0.04801,0.09409 0.08729,0.198647 0.08729,0.232331 0,0.115992 -1.012787,0.505349 -1.108307,0.426077 -0.0289,-0.02398 -0.07792,-0.142664 -0.108956,-0.263723 -0.06413,-0.250179 -0.05881,-0.248514 -0.506584,-0.158933 -0.168021,0.03361 -0.380869,0.07409 -0.473008,0.08995 l -0.167515,0.02884 0.01387,0.248238 c 0.0076,0.136537 -0.0016,0.272787 -0.02055,0.30279 -0.02459,0.03904 -0.194341,0.05455 -0.597141,0.05455 H 90.30247 Z M 75.208882,21.861909 c -0.03916,-0.02486 -0.05179,-0.147191 -0.04364,-0.422105 l 0.0114,-0.387108 -0.480058,-0.07279 c -0.264033,-0.04003 -0.586571,-0.09579 -0.716747,-0.123902 -0.130178,-0.02811 -0.253135,-0.03467 -0.273251,-0.01453 -0.02013,0.02012 -0.0769,0.182659 -0.126199,0.361205 -0.04928,0.178546 -0.105784,0.341088 -0.125537,0.361203 -0.01977,0.02012 -0.298331,-0.05178 -0.61907,-0.159759 -0.716037,-0.241084 -0.908088,-0.321779 -0.935445,-0.393042 -0.01173,-0.03037 0.0383,-0.186439 0.11102,-0.346797 0.0727,-0.160354 0.132194,-0.32053 0.132194,-0.355939 0,-0.03541 -0.08347,-0.10154 -0.185476,-0.146942 -0.102019,-0.04542 -0.388631,-0.203454 -0.636923,-0.351209 -0.248281,-0.147752 -0.469326,-0.257593 -0.491175,-0.244084 -0.02187,0.01354 -0.119774,0.142384 -0.217566,0.2864 -0.09779,0.144019 -0.206331,0.272785 -0.241203,0.286165 -0.109963,0.0422 -1.282574,-0.906183 -1.282574,-1.037329 0,-0.03553 0.108014,-0.171263 0.240029,-0.30164 0.132012,-0.130377 0.239416,-0.257356 0.238666,-0.28218 0,-0.02482 -0.158537,-0.221882 -0.350621,-0.437907 -0.192105,-0.216027 -0.392789,-0.456293 -0.445977,-0.533926 -0.05318,-0.07764 -0.119361,-0.149932 -0.147041,-0.160668 -0.02768,-0.01074 -0.18781,0.07733 -0.355817,0.195705 -0.16802,0.11837 -0.317643,0.215221 -0.332507,0.215221 -0.08991,0 -0.878876,-1.365031 -0.832411,-1.440212 0.01553,-0.02517 0.162831,-0.11353 0.327298,-0.196351 0.164449,-0.08281 0.309666,-0.167835 0.322704,-0.188936 0.01305,-0.02111 -0.04175,-0.193554 -0.121739,-0.383233 -0.08,-0.189678 -0.192038,-0.48952 -0.248977,-0.666313 -0.05695,-0.176794 -0.129733,-0.331495 -0.161741,-0.343782 -0.03201,-0.01222 -0.204855,0.02028 -0.3841,0.07236 -0.179246,0.05207 -0.343201,0.084 -0.364353,0.07092 -0.08119,-0.05019 -0.33094,-1.337893 -0.300855,-1.551274 0.01437,-0.101474 0.03863,-0.111037 0.386227,-0.151931 l 0.370955,-0.04363 v -0.756928 c 0,-0.416309 -0.01156,-0.764186 -0.02601,-0.773057 -0.01437,-0.0089 -0.188,-0.02963 -0.385861,-0.04613 -0.220718,-0.0184 -0.367762,-0.05084 -0.380447,-0.08389 -0.04636,-0.120814 0.177664,-1.45399 0.263529,-1.568238 0.04264,-0.05675 0.09094,-0.05378 0.392979,0.02418 0.223963,0.05781 0.359253,0.07399 0.386966,0.04628 0.02342,-0.02344 0.116487,-0.265172 0.206806,-0.537206 0.09031,-0.272034 0.196033,-0.567622 0.234929,-0.656861 0.03891,-0.08924 0.07074,-0.173672 0.07074,-0.187628 0,-0.01387 -0.149073,-0.09617 -0.331267,-0.182688 -0.182191,-0.08653 -0.340595,-0.181661 -0.352024,-0.211414 -0.04783,-0.1246297 0.690274,-1.4163741 0.809197,-1.4161396 0.03876,8.76e-5 0.188315,0.078566 0.332333,0.1744284 0.144019,0.095859 0.284256,0.1743507 0.311656,0.1744266 0.02738,8.76e-5 0.187932,-0.1716999 0.356769,-0.381725 0.16884,-0.2100252 0.380052,-0.4668186 0.469354,-0.5706511 L 69.450403,5.8315349 69.182171,5.5609094 c -0.147422,-0.1488418 -0.26811,-0.2927982 -0.26811,-0.3198992 0,-0.099443 1.128793,-1.0612395 1.245493,-1.0612395 0.03263,0 0.150427,0.1276518 0.261768,0.2836715 0.111334,0.1560262 0.228042,0.2836715 0.25934,0.2836715 0.03131,0 0.230893,-0.1097155 0.44351,-0.2438152 0.212616,-0.1340931 0.478462,-0.2908361 0.59077,-0.348305 0.112325,-0.057476 0.215195,-0.1222512 0.228601,-0.1439366 0.01338,-0.021702 -0.04585,-0.1914761 -0.131682,-0.3772773 -0.1296,-0.2804922 -0.146166,-0.3472414 -0.09768,-0.3933523 0.07072,-0.067236 0.980397,-0.4310203 1.269208,-0.5075618 0.141344,-0.037458 0.221237,-0.040679 0.251758,-0.01024 0.02461,0.024592 0.08326,0.1794871 0.130361,0.3442057 0.0471,0.1647137 0.101275,0.3151196 0.120384,0.3342203 0.01909,0.019109 0.279675,-0.014534 0.579056,-0.07457 0.299395,-0.060118 0.622903,-0.1239027 0.718915,-0.1417399 l 0.174567,-0.032437 -0.0142,-0.3966588 -0.0142,-0.3966604 0.139708,-0.027945 c 0.267987,-0.053594 1.473657,-0.032371 1.51183,0.026607 0.01942,0.030009 0.03531,0.2210149 0.03531,0.4244683 v 0.3699162 l 0.414595,0.053033 c 0.228028,0.029167 0.552068,0.082398 0.720088,0.1183038 0.16802,0.035906 0.321489,0.049531 0.341059,0.030274 0.01956,-0.019258 0.07229,-0.1777761 0.117181,-0.3522771 0.04489,-0.1745027 0.100153,-0.3358058 0.122779,-0.3584525 0.0477,-0.047698 0.472435,0.070688 1.071457,0.2986333 0.546627,0.2080136 0.542889,0.2025055 0.380078,0.5615987 -0.07378,0.1627153 -0.134142,0.3294224 -0.134142,0.3704612 0,0.045122 0.07062,0.1064619 0.178658,0.155184 0.09825,0.044312 0.38586,0.2038152 0.639091,0.3544539 0.253229,0.1506421 0.472979,0.2661266 0.488336,0.2566398 0.01536,-0.00941 0.115479,-0.1463644 0.222491,-0.3041843 0.107024,-0.15781 0.224196,-0.2867286 0.260391,-0.2864759 0.114852,8.176e-4 1.26595,0.9233032 1.26595,1.0145555 0,0.022264 -0.108015,0.1598414 -0.24003,0.3057186 -0.132012,0.1458855 -0.24003,0.2842644 -0.24003,0.3075156 0,0.023255 0.11292,0.1698204 0.25094,0.3257112 0.138024,0.1558941 0.345111,0.3986407 0.460216,0.5394508 0.1151,0.1408151 0.234014,0.2560155 0.264235,0.2560155 0.03024,0 0.180474,-0.088377 0.333861,-0.1963879 0.153383,-0.1080144 0.29514,-0.196388 0.314997,-0.196388 0.100285,0 0.890699,1.3605714 0.83901,1.4442148 -0.01693,0.027384 -0.17548,0.1157274 -0.352351,0.1963361 -0.176886,0.0806 -0.321599,0.1626 -0.321599,0.182211 0,0.01962 0.07647,0.222866 0.16993,0.451677 0.09345,0.22881 0.20577,0.529748 0.249576,0.668749 0.04382,0.138998 0.103208,0.261762 0.131979,0.272801 0.02877,0.01107 0.203478,-0.02235 0.38826,-0.07419 0.202184,-0.05673 0.35178,-0.07843 0.375713,-0.05449 0.05183,0.05183 0.242486,0.953873 0.28093,1.329237 0.03417,0.333515 0.06174,0.31086 -0.439293,0.361057 -0.143689,0.01437 -0.276743,0.04165 -0.295674,0.06058 -0.01891,0.01893 -0.029,0.366795 -0.02241,0.773046 l 0.01206,0.738636 0.378906,0.04364 c 0.208388,0.024 0.390333,0.05538 0.404312,0.06973 0.06874,0.07056 -0.196061,1.557775 -0.287407,1.61423 -0.02567,0.01586 -0.187006,-0.0076 -0.35853,-0.05217 -0.171512,-0.04456 -0.335768,-0.08136 -0.364995,-0.08177 -0.02923,-4.08e-4 -0.104282,0.166877 -0.166766,0.371751 -0.0625,0.204875 -0.171144,0.511976 -0.241434,0.682447 -0.07031,0.17048 -0.127817,0.328012 -0.127817,0.350078 0,0.02207 0.147801,0.107485 0.328458,0.189807 0.18065,0.08233 0.339695,0.178962 0.35343,0.214748 0.04266,0.111168 -0.661281,1.354353 -0.796216,1.406134 -0.03691,0.0142 -0.190877,-0.06205 -0.357698,-0.177065 -0.16108,-0.11107 -0.304632,-0.201934 -0.319021,-0.201934 -0.01437,0 -0.124794,0.132557 -0.245361,0.294581 -0.120566,0.162021 -0.329467,0.418066 -0.464238,0.568992 -0.134754,0.150923 -0.245021,0.289012 -0.245021,0.306859 0,0.01785 0.117825,0.149056 0.26185,0.291564 0.144019,0.142516 0.261849,0.277148 0.261849,0.299183 0,0.09135 -1.144311,1.074778 -1.251206,1.075287 -0.02806,1.3e-4 -0.151335,-0.137644 -0.273905,-0.306167 -0.252932,-0.347743 -0.191792,-0.345723 -0.695567,-0.02297 -0.158801,0.101738 -0.41146,0.249657 -0.561478,0.32872 -0.150014,0.07906 -0.272761,0.158207 -0.272761,0.175862 0,0.01766 0.06894,0.183397 0.153202,0.368298 0.08427,0.184902 0.143656,0.351661 0.131963,0.37057 -0.02904,0.04696 -0.802435,0.362831 -1.190831,0.486344 -0.231342,0.07356 -0.329509,0.08767 -0.364804,0.05236 -0.02657,-0.02656 -0.08522,-0.181447 -0.130344,-0.344189 -0.04512,-0.162748 -0.0986,-0.312449 -0.118849,-0.332683 -0.02023,-0.02023 -0.290476,0.01189 -0.600537,0.07158 -0.310073,0.05961 -0.639336,0.120401 -0.731719,0.135117 l -0.167966,0.02674 0.01519,0.399569 0.01519,0.39957 -0.174567,0.03155 c -0.239387,0.04326 -1.383604,0.04345 -1.451671,2.72e-4 z"
     id="path868"
     inkscape:connector-curvature="0" />
</svg>
