<?xml version="1.0" encoding="UTF-8" standalone="no"?>
<!-- Created with Inkscape (http://www.inkscape.org/) -->

<svg
   xmlns:dc="http://purl.org/dc/elements/1.1/"
   xmlns:cc="http://creativecommons.org/ns#"
   xmlns:rdf="http://www.w3.org/1999/02/22-rdf-syntax-ns#"
   xmlns:svg="http://www.w3.org/2000/svg"
   xmlns="http://www.w3.org/2000/svg"
   xmlns:sodipodi="http://sodipodi.sourceforge.net/DTD/sodipodi-0.dtd"
   xmlns:inkscape="http://www.inkscape.org/namespaces/inkscape"
   width="512mm"
   height="512mm"
   viewBox="0 0 512 512"
   version="1.1"
   id="svg250"
   inkscape:version="0.92.2 2405546, 2018-03-11"
   sodipodi:docname="gswai.svg">
  <defs
     id="defs244" />
  <sodipodi:namedview
     id="base"
     pagecolor="#ffffff"
     bordercolor="#666666"
     borderopacity="1.0"
     inkscape:pageopacity="0.0"
     inkscape:pageshadow="2"
     inkscape:zoom="0.24748737"
     inkscape:cx="2128.541"
     inkscape:cy="985.71234"
     inkscape:document-units="mm"
     inkscape:current-layer="layer1"
     showgrid="false"
     fit-margin-top="0"
     fit-margin-left="0"
     fit-margin-right="0"
     fit-margin-bottom="0"
     inkscape:window-width="1364"
     inkscape:window-height="732"
     inkscape:window-x="0"
     inkscape:window-y="35"
     inkscape:window-maximized="0" />
  <metadata
     id="metadata247">
    <rdf:RDF>
      <cc:Work
         rdf:about="">
        <dc:format>image/svg+xml</dc:format>
        <dc:type
           rdf:resource="http://purl.org/dc/dcmitype/StillImage" />
        <dc:title></dc:title>
      </cc:Work>
    </rdf:RDF>
  </metadata>
  <g
     inkscape:label="Layer 1"
     inkscape:groupmode="layer"
     id="layer1"
     transform="translate(3.8283746,383.52877)">
    <g
       transform="matrix(12.226872,0,0,12.226867,1006.4829,-3373.0637)"
       id="g1075">
      <path
         style="fill:#18063d;fill-opacity:1;stroke:none;stroke-width:0.734649"
         id="path1071"
         sodipodi:type="arc"
         sodipodi:cx="-61.6875"
         sodipodi:cy="265.4375"
         sodipodi:rx="20.937498"
         sodipodi:ry="20.937498"
         sodipodi:start="0.0013303947"
         sodipodi:end="6.2763436"
         sodipodi:open="true"
         d="m -40.75002,265.46536 a 20.937498,20.937498 0 0 1 -20.922559,20.90963 20.937498,20.937498 0 0 1 -20.95234,-20.87979 20.937498,20.937498 0 0 1 20.836947,-20.99496 20.937498,20.937498 0 0 1 21.03748,20.79401" />
      <path
         style="fill:#edbb1e;stroke-width:0.00990642"
         d="m -72.421379,281.37485 c -0.33696,-0.0536 -0.61349,-0.26132 -0.73584,-0.55284 -0.0572,-0.13637 -0.0698,-0.20623 -0.0688,-0.38323 7.5e-4,-0.1427 0.003,-0.16733 0.0277,-0.24705 0.10126,-0.33327 0.36114,-0.57137 0.71079,-0.65124 0.071,-0.0162 0.12656,-0.0213 0.23641,-0.0217 0.15573,-3.8e-4 0.25446,0.0151 0.3814,0.0603 0.14252,0.0508 0.34177,0.1714 0.34177,0.20685 0,0.0182 -0.19437,0.27058 -0.21432,0.27823 -0.007,0.003 -0.03,-0.008 -0.0505,-0.0244 -0.0653,-0.0514 -0.13766,-0.0915 -0.22245,-0.12306 -0.10629,-0.0396 -0.27157,-0.0498 -0.3746,-0.023 -0.19184,0.0498 -0.34987,0.20798 -0.40146,0.40185 -0.0237,0.089 -0.0191,0.24185 0.01,0.33338 0.057,0.17938 0.19531,0.31598 0.37667,0.37193 0.13337,0.0412 0.31475,0.0215 0.46065,-0.05 l 0.0545,-0.0267 0.003,-0.24046 0.003,-0.24046 0.17566,0.003 0.17566,0.003 0.003,0.3446 0.003,0.3446 -0.0239,0.0221 c -0.0648,0.06 -0.29541,0.15802 -0.46181,0.19623 -0.0968,0.0222 -0.321,0.0325 -0.40801,0.0186 z m 2.5583,-0.0107 c -0.33612,-0.0435 -0.57211,-0.27345 -0.61553,-0.59981 -0.0475,-0.35681 0.13784,-0.66961 0.45666,-0.77075 0.10866,-0.0344 0.22521,-0.0489 0.33856,-0.042 0.12821,0.008 0.21134,0.0289 0.31998,0.0811 0.25049,0.12031 0.38376,0.36008 0.36862,0.66321 -0.009,0.17161 -0.0483,0.28781 -0.13992,0.40881 -0.15,0.19822 -0.43032,0.29809 -0.72837,0.25952 z m 0.27306,-0.35112 c 0.0604,-0.0294 0.13638,-0.10736 0.16276,-0.167 0.0104,-0.0236 0.0235,-0.0747 0.029,-0.11359 0.0258,-0.182 -0.0483,-0.34691 -0.18643,-0.41473 -0.05,-0.0245 -0.0669,-0.0275 -0.15514,-0.0275 -0.10375,0 -0.13858,0.0109 -0.21532,0.0677 -0.0418,0.0309 -0.0935,0.11344 -0.11209,0.17886 -0.0249,0.0876 -0.0168,0.23089 0.0171,0.30445 0.0287,0.0622 0.0829,0.12699 0.13127,0.15688 0.0885,0.0547 0.23368,0.0613 0.32886,0.015 z m 1.62245,0.35265 c -0.11146,-0.0177 -0.20306,-0.061 -0.27655,-0.13045 -0.0282,-0.0267 -0.0563,-0.0485 -0.0623,-0.0485 -0.007,0 -0.0121,0.03 -0.0139,0.0817 l -0.003,0.0817 -0.19245,0.003 c -0.14734,0.002 -0.19433,-1.3e-4 -0.20045,-0.01 -0.004,-0.007 -0.008,-0.4319 -0.008,-0.94439 0,-0.73133 0.003,-0.93544 0.0123,-0.94876 0.0111,-0.0152 0.0324,-0.0167 0.20061,-0.0143 l 0.18818,0.003 0.003,0.3492 c 10e-4,0.19207 0.005,0.34921 0.008,0.34921 0.003,0 0.031,-0.0226 0.0618,-0.0501 0.1701,-0.15188 0.43633,-0.18024 0.66798,-0.0712 0.22565,0.10626 0.35474,0.34323 0.35474,0.65121 0,0.41242 -0.23264,0.68225 -0.60573,0.70256 -0.0459,0.003 -0.10626,7.5e-4 -0.13404,-0.003 z m 0.13525,-0.35928 c 0.071,-0.0329 0.12393,-0.0874 0.16179,-0.16643 0.0295,-0.0615 0.0308,-0.0699 0.0307,-0.18821 0,-0.1164 -0.002,-0.12737 -0.0288,-0.18266 -0.035,-0.0716 -0.0998,-0.13848 -0.16227,-0.16734 -0.0379,-0.0175 -0.0648,-0.0215 -0.14559,-0.0215 -0.0913,0 -0.10324,0.002 -0.15205,0.0294 -0.11191,0.062 -0.17699,0.17074 -0.18696,0.31242 -0.0139,0.19764 0.083,0.35754 0.24441,0.40317 0.0684,0.0193 0.17461,0.0109 0.23878,-0.0188 z m 1.11526,0.35777 c -0.23721,-0.0487 -0.3833,-0.25928 -0.3442,-0.49605 0.0216,-0.13107 0.092,-0.22643 0.20987,-0.2843 0.10318,-0.0507 0.17483,-0.0615 0.44864,-0.0678 l 0.24629,-0.006 -0.004,-0.0525 c -0.006,-0.0704 -0.0401,-0.12038 -0.1079,-0.15754 -0.0471,-0.0258 -0.0653,-0.0297 -0.15352,-0.0331 -0.11765,-0.005 -0.20965,0.015 -0.3454,0.0733 -0.0496,0.0213 -0.0892,0.0331 -0.0941,0.0279 -0.0147,-0.0154 -0.10931,-0.23275 -0.10931,-0.25112 0,-0.0345 0.24645,-0.1276 0.40644,-0.15355 0.34572,-0.0561 0.62037,0.0282 0.73726,0.22616 0.0626,0.10596 0.0658,0.14051 0.0627,0.67984 l -0.003,0.48046 h -0.18822 -0.18822 l -0.003,-0.0594 c -0.001,-0.0327 -0.007,-0.0635 -0.012,-0.0684 -0.005,-0.005 -0.0249,0.006 -0.0486,0.0269 -0.0466,0.0421 -0.11292,0.0773 -0.18901,0.10044 -0.0656,0.0199 -0.253,0.0284 -0.32063,0.0145 z m 0.38007,-0.30092 c 0.0653,-0.0235 0.11862,-0.0639 0.15033,-0.11376 0.0242,-0.0381 0.028,-0.0539 0.028,-0.1171 v -0.073 l -0.21546,0.003 c -0.20376,0.003 -0.21743,0.004 -0.25156,0.0256 -0.0653,0.0406 -0.0845,0.11832 -0.0487,0.19719 0.0199,0.0439 0.047,0.0663 0.1072,0.0889 0.0464,0.0173 0.16763,0.0116 0.23023,-0.0109 z m 7.86109,0.30129 c -0.20343,-0.0318 -0.36794,-0.14779 -0.45907,-0.3236 -0.15814,-0.30506 -0.10066,-0.7328 0.12579,-0.9362 0.11301,-0.10151 0.22784,-0.14583 0.39732,-0.15335 0.18297,-0.008 0.30734,0.0327 0.41896,0.1375 0.028,0.0263 0.0543,0.0477 0.0585,0.0477 0.004,0 0.009,-0.15714 0.0103,-0.3492 l 0.003,-0.34921 h 0.19318 0.19317 v 0.95598 0.95597 h -0.19317 -0.19318 l -0.003,-0.0867 c -0.001,-0.0477 -0.006,-0.0867 -0.009,-0.0867 -0.003,0 -0.0313,0.024 -0.0621,0.0533 -0.0608,0.058 -0.13559,0.10056 -0.21334,0.12147 -0.067,0.018 -0.19505,0.0242 -0.26712,0.013 z m 0.34304,-0.34572 c 0.13946,-0.0656 0.21774,-0.21733 0.20289,-0.3934 -0.0125,-0.14807 -0.0864,-0.26164 -0.20493,-0.31483 -0.0547,-0.0245 -0.0696,-0.0269 -0.15149,-0.0238 -0.07,0.003 -0.10145,0.009 -0.13731,0.0263 -0.0655,0.0323 -0.12481,0.0951 -0.16059,0.17026 -0.0288,0.0605 -0.0306,0.0713 -0.0305,0.17832 0,0.0951 0.004,0.12319 0.0226,0.16987 0.0395,0.0983 0.1236,0.17642 0.21943,0.20363 0.0645,0.0183 0.18332,0.0103 0.23986,-0.0164 z m 2.16788,0.34591 c -0.17243,-0.0363 -0.29364,-0.16911 -0.31672,-0.34698 -0.005,-0.0406 -0.01,-0.21753 -0.01,-0.39324 l -1.3e-4,-0.31948 h -0.0817 c -0.045,0 -0.0874,-0.004 -0.0944,-0.008 -0.01,-0.006 -0.012,-0.0403 -0.01,-0.13607 l 0.003,-0.128 0.0892,-0.005 0.0892,-0.005 0.005,-0.18822 c 0.003,-0.10352 0.006,-0.18943 0.008,-0.1909 0.001,-0.001 0.09,-0.001 0.19757,0 l 0.19565,0.003 0.005,0.18822 0.005,0.18823 0.18327,0.005 0.18327,0.005 0.003,0.12244 c 0.002,0.0818 -10e-4,0.12701 -0.009,0.13621 -0.009,0.0108 -0.0494,0.0138 -0.18854,0.0138 h -0.17709 v 0.3175 c 0,0.3379 10e-4,0.34704 0.0496,0.39084 0.0296,0.0267 0.12277,0.0251 0.20259,-0.003 0.0324,-0.0116 0.0618,-0.0178 0.0653,-0.0138 0.0126,0.0146 0.0798,0.27003 0.0737,0.27991 -0.01,0.016 -0.0733,0.0454 -0.14853,0.0688 -0.079,0.0246 -0.24986,0.0352 -0.32196,0.02 z m 2.0017,-3.7e-4 c -0.33612,-0.0435 -0.57211,-0.27346 -0.61553,-0.59981 -0.0475,-0.35682 0.13784,-0.66962 0.45667,-0.77076 0.10865,-0.0344 0.22521,-0.0489 0.33855,-0.042 0.12821,0.008 0.21134,0.0289 0.31998,0.0811 0.25049,0.12031 0.38376,0.36008 0.36862,0.66321 -0.009,0.1716 -0.0483,0.28781 -0.13992,0.40882 -0.15,0.19821 -0.43032,0.29809 -0.72837,0.25952 z m 0.27306,-0.35113 c 0.0604,-0.0294 0.13638,-0.10736 0.16276,-0.167 0.0105,-0.0236 0.0234,-0.0747 0.029,-0.11358 0.0258,-0.18201 -0.0483,-0.34692 -0.18643,-0.41474 -0.05,-0.0245 -0.0669,-0.0275 -0.15514,-0.0275 -0.10375,0 -0.13858,0.0109 -0.21531,0.0677 -0.0418,0.0309 -0.0935,0.11344 -0.1121,0.17886 -0.0249,0.0876 -0.0168,0.23089 0.0171,0.30446 0.0287,0.0622 0.0829,0.12698 0.13127,0.15687 0.0885,0.0547 0.23369,0.0613 0.32886,0.015 z m -17.47502,0.32666 c -0.003,-0.009 -0.006,-0.4337 -0.006,-0.94438 0,-0.7285 0.003,-0.93215 0.0124,-0.94548 0.0111,-0.0152 0.0324,-0.0167 0.20061,-0.0143 l 0.18819,0.003 v 0.95597 0.95597 l -0.19452,0.003 c -0.17087,0.002 -0.19525,7.5e-4 -0.2006,-0.0132 z m 5.75563,0 c -0.003,-0.009 -0.006,-0.4337 -0.006,-0.94438 0,-0.7285 0.003,-0.93215 0.0124,-0.94548 0.0111,-0.0152 0.0324,-0.0167 0.20061,-0.0143 l 0.18819,0.003 v 0.95597 0.95597 l -0.19452,0.003 c -0.17087,0.002 -0.19525,7.5e-4 -0.2006,-0.0132 z m 1.21754,0.006 c -0.006,-0.009 0.74865,-1.76272 0.77052,-1.79108 0.007,-0.01 0.0589,-0.012 0.21863,-0.01 l 0.20894,0.003 0.37889,0.88663 c 0.20839,0.48763 0.379,0.89451 0.37913,0.90415 2.5e-4,0.0163 -0.0146,0.0173 -0.21468,0.0149 l -0.21491,-0.003 -0.0685,-0.17089 -0.0685,-0.17089 h -0.41888 -0.41889 l -0.0514,0.12631 c -0.0282,0.0695 -0.061,0.14637 -0.0729,0.17088 l -0.0215,0.0446 -0.19989,0.003 c -0.12681,0.002 -0.20215,-10e-4 -0.20608,-0.007 z m 1.24321,-0.68632 c 3e-4,-0.0259 -0.26211,-0.66144 -0.27175,-0.65823 -0.0104,0.003 -0.27297,0.63612 -0.27315,0.65823 0,0.01 0.0609,0.0124 0.27234,0.0124 0.21126,0 0.27245,-0.003 0.27256,-0.0124 z m 0.91582,0.68354 c -0.003,-0.007 -0.004,-0.41359 -0.002,-0.90396 l 0.003,-0.89158 0.19741,-0.003 c 0.15131,-0.002 0.19928,1.3e-4 0.2054,0.01 0.009,0.0145 0.0114,1.76125 0.002,1.78504 -0.005,0.0136 -0.0325,0.0156 -0.20339,0.0156 -0.14878,0 -0.19854,-0.003 -0.2021,-0.0124 z m 1.41664,0 c -0.003,-0.007 -0.004,-0.41366 -0.002,-0.90403 l 0.003,-0.89158 0.68291,-0.003 c 0.53978,-0.002 0.68458,0 0.69082,0.01 0.004,0.007 0.008,0.0779 0.008,0.15786 0,0.11913 -0.003,0.14822 -0.0154,0.16098 -0.0137,0.0137 -0.0715,0.0155 -0.48541,0.0155 h -0.46985 v 0.19318 0.19317 h 0.42987 c 0.38285,0 0.43053,10e-4 0.43588,0.0157 0.003,0.009 0.006,0.0796 0.006,0.1578 0,0.11599 -0.003,0.14498 -0.0156,0.15769 -0.0137,0.0137 -0.067,0.0155 -0.43609,0.0155 h -0.42052 l 0.003,0.19565 0.003,0.19565 0.49308,0.003 0.49308,0.003 -0.003,0.16584 -0.003,0.16584 -0.69621,0.003 c -0.55172,0.002 -0.6972,0 -0.70096,-0.01 z m 3.48928,0.006 c -0.004,-0.004 -0.007,-0.31351 -0.007,-0.68836 0,-0.66368 3.7e-4,-0.68181 0.0192,-0.69179 0.0286,-0.0153 0.34909,-0.0135 0.37034,0.002 0.0156,0.0115 0.0167,0.0621 0.0143,0.69592 l -0.003,0.68354 -0.19379,0.003 c -0.1066,0.002 -0.19687,-1.2e-4 -0.20061,-0.004 z m 1.88222,0 c -0.004,-0.004 -0.007,-0.31351 -0.007,-0.68836 0,-0.66368 3.7e-4,-0.68181 0.0192,-0.69179 0.0287,-0.0153 0.34909,-0.0135 0.37034,0.002 0.0156,0.0115 0.0167,0.0621 0.0143,0.69592 l -0.003,0.68354 -0.19379,0.003 c -0.10659,0.002 -0.19686,-1.2e-4 -0.20061,-0.004 z m 2.41716,0 c -0.004,-0.004 -0.007,-0.31351 -0.007,-0.68836 0,-0.66368 3.8e-4,-0.68181 0.0192,-0.69179 0.011,-0.006 0.0893,-0.0103 0.18392,-0.0103 0.0946,0 0.17291,0.004 0.18392,0.0103 0.0169,0.009 0.0192,0.0215 0.0192,0.10402 0,0.0516 0.003,0.0938 0.006,0.0938 0.003,0 0.0335,-0.0283 0.0676,-0.0629 0.10179,-0.10331 0.23537,-0.15448 0.40429,-0.15486 0.24018,-3.8e-4 0.40275,0.11207 0.48041,0.33277 l 0.0275,0.0782 v 0.49532 0.49533 h -0.19813 -0.19812 l -0.005,-0.42598 -0.005,-0.42598 -0.0297,-0.0538 c -0.0494,-0.0894 -0.1439,-0.13602 -0.25757,-0.127 -0.1216,0.01 -0.20771,0.0705 -0.26118,0.18453 l -0.0261,0.0557 -0.005,0.39626 -0.005,0.39626 -0.1938,0.003 c -0.10659,10e-4 -0.19686,-1.3e-4 -0.2006,-0.004 z m -4.20572,-1.58035 c -0.11381,-0.0563 -0.15117,-0.22198 -0.0759,-0.3365 0.0642,-0.0976 0.22753,-0.11576 0.31902,-0.0354 0.0945,0.083 0.0979,0.25042 0.007,0.33583 -0.0639,0.0599 -0.17067,0.0754 -0.24998,0.0361 z m 1.88222,0 c -0.11381,-0.0563 -0.15117,-0.22198 -0.0759,-0.3365 0.0642,-0.0976 0.22752,-0.11576 0.31901,-0.0354 0.0945,0.083 0.0979,0.25042 0.007,0.33583 -0.0639,0.0599 -0.17066,0.0754 -0.24998,0.0361 z m -8.77354,-1.70304 c -3.96795,-0.0463 -7.24722,-0.23333 -8.49476,-0.48452 -0.50881,-0.10245 -0.77302,-0.26626 -0.85436,-0.52971 -0.0283,-0.0918 -0.03,-0.26815 -0.003,-0.35705 0.01,-0.0327 1.56929,-3.84641 3.46559,-8.47494 1.89631,-4.62852 3.44979,-8.42458 3.45217,-8.43568 0.003,-0.0116 -0.42668,-1.13954 -1.00827,-2.64997 -0.7994,-2.07619 -1.01481,-2.64502 -1.02311,-2.70183 -0.0298,-0.20393 0.087,-0.42617 0.27086,-0.5156 0.1489,-0.0724 0.89085,-0.25924 1.56026,-0.39289 0.43876,-0.0876 1.04385,-0.18698 1.48596,-0.24404 0.19324,-0.0249 0.25798,-0.0459 0.24948,-0.0808 -0.008,-0.0345 -0.0609,-0.1737 -0.0683,-0.18111 -0.004,-0.004 -0.0295,-7.5e-4 -0.0574,0.006 -0.0433,0.0111 -0.052,0.0109 -0.0595,-0.001 -0.0129,-0.0208 -0.0427,-0.19513 -0.0362,-0.2119 0.003,-0.008 0.0259,-0.0174 0.0532,-0.0214 0.0262,-0.004 0.0499,-0.0104 0.0526,-0.0145 0.003,-0.004 0.003,-0.0537 0,-0.11007 l -0.005,-0.10256 -0.0495,-0.005 -0.0495,-0.005 0.002,-0.0743 c 0.001,-0.0409 0.008,-0.0944 0.0155,-0.11888 0.013,-0.0428 0.0149,-0.0444 0.0475,-0.0408 0.0844,0.009 0.0778,0.0145 0.11398,-0.088 0.0371,-0.10508 0.0381,-0.10103 -0.0343,-0.14071 -0.017,-0.009 -0.0308,-0.0204 -0.0308,-0.0247 0,-0.0163 0.0966,-0.17572 0.11228,-0.18564 0.0164,-0.0103 0.0213,-0.008 0.0816,0.0307 0.0192,0.0124 0.025,0.008 0.0867,-0.066 0.0364,-0.0437 0.0661,-0.0821 0.0661,-0.0855 0,-0.003 -0.0163,-0.0242 -0.0362,-0.0463 l -0.0362,-0.0401 0.0655,-0.062 c 0.036,-0.0341 0.0774,-0.0699 0.092,-0.0794 l 0.0265,-0.0174 0.0367,0.043 c 0.0202,0.0236 0.0408,0.0412 0.0458,0.0391 0.0343,-0.0145 0.17261,-0.10237 0.17261,-0.10963 0,-0.005 -0.009,-0.0272 -0.0207,-0.0495 -0.0267,-0.0524 -0.021,-0.0581 0.10211,-0.10211 0.10472,-0.0374 0.10536,-0.0373 0.12602,0.0269 0.007,0.0203 0.0157,0.0393 0.0203,0.0422 0.005,0.003 0.0366,-10e-4 0.0711,-0.009 0.0345,-0.008 0.0798,-0.0169 0.10063,-0.0205 l 0.0378,-0.007 -0.003,-0.049 c -0.002,-0.027 0.002,-0.0536 0.008,-0.0592 0.006,-0.006 0.0536,-0.009 0.11829,-0.007 l 0.10813,0.003 0.005,0.0538 0.005,0.0538 0.0991,0.0166 c 0.0545,0.009 0.10228,0.0148 0.10622,0.0127 0.004,-0.002 0.0122,-0.0227 0.0183,-0.0457 0.006,-0.0229 0.0158,-0.0445 0.0214,-0.048 0.0119,-0.007 0.16823,0.0436 0.20245,0.066 0.0215,0.0141 0.0222,0.0173 0.01,0.0422 -0.0331,0.0652 -0.0336,0.0644 0.0632,0.11952 0.0493,0.0281 0.0934,0.0511 0.0979,0.0511 0.005,0 0.0201,-0.0178 0.0345,-0.0396 0.0144,-0.0218 0.0303,-0.0396 0.0352,-0.0396 0.0238,0 0.17894,0.13328 0.17894,0.1537 0,0.006 -0.0134,0.0238 -0.0297,0.0395 -0.0164,0.0157 -0.0295,0.0354 -0.0293,0.044 3e-4,0.009 0.031,0.0487 0.0684,0.0893 l 0.0679,0.0738 0.0414,-0.0287 c 0.0306,-0.0212 0.0454,-0.0262 0.0567,-0.019 0.0208,0.0131 0.11137,0.1632 0.11162,0.18498 0,0.011 -0.0165,0.0256 -0.0451,0.0395 -0.0361,0.0176 -0.0443,0.0261 -0.0403,0.042 0.008,0.0341 0.0609,0.17192 0.0681,0.17913 0.004,0.004 0.0275,0.002 0.0528,-0.005 0.0318,-0.008 0.0497,-0.008 0.0583,-0.002 0.0177,0.0147 0.0503,0.20727 0.0372,0.22031 -0.006,0.006 -0.0304,0.0125 -0.0551,0.0153 -0.0247,0.003 -0.0463,0.0101 -0.0482,0.0162 -0.002,0.006 -10e-4,0.0557 0.002,0.11022 l 0.005,0.0991 0.0466,0.005 c 0.0257,0.003 0.0499,0.009 0.054,0.0127 0.009,0.009 -0.0107,0.16955 -0.0255,0.20809 -0.01,0.0254 -0.0138,0.0273 -0.0429,0.0205 -0.0663,-0.0156 -0.0784,-0.0118 -0.0928,0.0294 -0.007,0.0211 -0.0109,0.0423 -0.008,0.0471 0.003,0.005 0.10795,0.006 0.24506,0.003 0.2405,-0.006 0.93366,0.008 1.30753,0.026 1.54694,0.0763 3.12089,0.30285 4.44004,0.63898 0.53488,0.1363 0.62807,0.17168 0.72448,0.27508 0.0677,0.0726 0.10591,0.13883 0.12715,0.2204 0.017,0.0654 0.0195,0.17699 0.005,0.23859 -0.005,0.0225 -0.45158,1.20824 -0.99199,2.63511 -0.5404,1.42686 -0.98448,2.60588 -0.98683,2.62004 -0.003,0.0181 1.01768,2.53654 3.43075,8.46504 1.88926,4.6416 3.44111,8.46157 3.44857,8.48881 0.0208,0.0759 0.0279,0.24067 0.0136,0.31358 -0.0586,0.29796 -0.32941,0.47811 -0.88216,0.58686 -1.13269,0.22286 -3.81554,0.39302 -7.28121,0.4618 -1.43692,0.0285 -3.59853,0.0365 -5.10676,0.0189 z m 3.61089,-2.21498 c 0.003,-0.66562 0.008,-1.21367 0.0126,-1.21787 0.004,-0.004 0.0343,-0.01 0.0669,-0.0119 l 0.0592,-0.004 2.5e-4,-0.0607 c 0,-0.0334 0.004,-0.0673 0.009,-0.0752 0.006,-0.01 0.0319,-0.0158 0.0791,-0.0185 l 0.0699,-0.004 v -0.23168 -0.23169 h -0.069 c -0.0824,0 -0.0895,-0.008 -0.0895,-0.0984 v -0.0601 h -0.0669 c -0.0368,0 -0.072,-0.003 -0.0782,-0.007 -0.006,-0.004 -0.0166,-0.0429 -0.0231,-0.0865 -0.0766,-0.51776 -0.3047,-0.98296 -0.65072,-1.32729 -0.33965,-0.338 -0.77633,-0.541 -1.27631,-0.59333 l -0.10897,-0.0114 -0.003,-0.12865 c -0.002,-0.0708 7.5e-4,-0.15949 0.005,-0.19718 l 0.008,-0.0685 0.0631,-0.0322 c 0.0731,-0.0373 0.12143,-0.0807 0.157,-0.14094 0.067,-0.11343 -0.0217,-0.3054 -0.17404,-0.37683 -0.0479,-0.0224 -0.0688,-0.0262 -0.14511,-0.0258 -0.08,1.3e-4 -0.0953,0.004 -0.14919,0.0314 -0.10988,0.0567 -0.19121,0.1782 -0.17897,0.26747 0.0133,0.0966 0.0875,0.18943 0.19561,0.24465 l 0.0632,0.0323 0.003,0.18611 c 0.002,0.12887 -7.5e-4,0.19031 -0.009,0.19977 -0.007,0.008 -0.0306,0.0137 -0.0592,0.0137 -0.0863,0 -0.27481,0.0295 -0.40819,0.0638 -0.49482,0.12739 -0.91378,0.4333 -1.20834,0.88227 -0.17889,0.27267 -0.30415,0.59871 -0.36306,0.94498 -0.0109,0.0642 -0.0249,0.11644 -0.0324,0.1212 -0.007,0.005 -0.0745,0.008 -0.1494,0.009 h -0.13621 v 0.0674 c 0,0.0392 -0.005,0.0723 -0.0119,0.0793 -0.007,0.007 -0.0401,0.0119 -0.0793,0.0119 h -0.0674 v 0.2328 0.2328 h 0.0601 c 0.0906,0 0.0984,0.007 0.0984,0.0895 v 0.069 h 0.14293 c 0.11673,0 0.14579,0.003 0.1585,0.0155 0.0138,0.0139 0.0156,0.0867 0.0156,0.65311 0,0.53064 -0.002,0.63986 -0.0137,0.6513 -0.0109,0.0109 -0.0976,0.016 -0.41854,0.0247 -0.22264,0.006 -0.40863,0.007 -0.41332,0.003 -0.0143,-0.0138 -3.8e-4,-1.05799 0.0174,-1.32264 0.009,-0.13078 0.0171,-0.32916 0.0185,-0.44083 l 0.002,-0.20306 -0.46065,-0.005 -0.46065,-0.005 -0.0527,-0.0292 c -0.0827,-0.0458 -0.14586,-0.14155 -0.17504,-0.26531 -0.0187,-0.0793 -0.0187,-0.2305 0,-0.31967 0.0191,-0.0915 0.081,-0.21472 0.14175,-0.28233 l 0.0489,-0.0545 h 0.48896 0.48897 l 0.0601,-0.17831 c 0.15003,-0.44532 0.32503,-0.75364 0.60591,-1.06754 0.0525,-0.0586 0.11362,-0.12136 0.13589,-0.13938 0.0223,-0.018 0.21659,-0.13888 0.43181,-0.26859 0.21521,-0.12969 0.39929,-0.24281 0.40907,-0.25137 0.0168,-0.0148 0.0174,-0.0441 0.0122,-0.54114 -0.003,-0.28908 -0.008,-0.56415 -0.0106,-0.61128 -0.006,-0.10963 0,-0.11739 0.0954,-0.11739 h 0.0688 l -0.003,-0.30958 -0.003,-0.30958 -0.10154,-0.003 c -0.0717,-0.002 -0.10145,-0.006 -0.10123,-0.0149 0,-0.007 -0.002,-0.11763 -0.004,-0.24669 -0.004,-0.2033 -0.007,-0.2397 -0.0226,-0.27242 -0.0357,-0.0731 0.007,-0.0691 -0.89517,-0.0828 -0.44406,-0.007 -0.81518,-0.0162 -0.82471,-0.0211 -0.0155,-0.008 -0.0173,-0.0269 -0.0172,-0.1794 0,-0.0938 0.003,-0.1752 0.007,-0.18091 0.004,-0.006 0.0318,-0.0222 0.0618,-0.0367 0.20241,-0.0977 0.26126,-0.35341 0.11863,-0.51544 -0.1431,-0.16257 -0.38224,-0.17903 -0.53763,-0.037 -0.0288,0.0264 -0.0657,0.0718 -0.0818,0.10084 -0.0267,0.0482 -0.0293,0.0613 -0.0293,0.147 0,0.0808 0.004,0.10191 0.0259,0.14946 0.0329,0.0701 0.0827,0.11996 0.1577,0.15783 l 0.0591,0.0298 v 0.18206 c 0,0.15689 -0.002,0.1829 -0.0156,0.18809 -0.009,0.003 -0.35875,0.006 -0.77805,0.006 -0.74624,0 -0.76322,1.3e-4 -0.80174,0.0201 -0.0465,0.0237 -0.0942,0.0856 -0.10968,0.14242 -0.008,0.0279 -0.009,0.0946 -0.004,0.21394 0.004,0.0953 0.008,0.18896 0.009,0.20803 l 0.001,0.0347 -0.12383,0.005 -0.12383,0.005 0.003,0.27243 c 0.001,0.14984 0.005,0.34287 0.009,0.42897 l 0.006,0.15655 0.10534,-10e-4 c 0.0579,-3.8e-4 0.11165,-7.5e-4 0.11936,-3.8e-4 0.0121,3.8e-4 0.0131,0.47255 0.008,3.40299 -0.004,2.18847 -0.003,3.40451 0.003,3.40831 0.005,0.003 0.38076,0.03 0.83441,0.0594 l 0.82481,0.0534 1.58999,0.0113 c 3.12011,0.0222 3.76027,0.0264 3.81892,0.0254 l 0.0594,-0.001 0.005,-1.21024 z m -2.28838,-0.99001 c -0.15307,-0.008 -0.33139,-0.026 -0.4557,-0.0448 -0.21286,-0.0321 -0.49726,-0.11111 -0.50801,-0.14108 -0.006,-0.0178 0.1477,-0.34772 0.16396,-0.35101 0.008,-0.001 0.0524,0.0127 0.0986,0.0318 0.11649,0.0482 0.27425,0.0914 0.44363,0.12136 0.12094,0.0214 0.18356,0.0262 0.39626,0.0302 0.3937,0.007 0.6948,-0.0333 0.99937,-0.13529 0.0796,-0.0267 0.1481,-0.0454 0.15211,-0.0415 0.0158,0.0152 0.15654,0.33943 0.15112,0.3482 -0.018,0.0292 -0.37865,0.11443 -0.6042,0.14279 -0.24316,0.0306 -0.64999,0.0497 -0.83709,0.0393 z m -0.55476,-1.16591 c -0.16851,-0.0483 -0.29025,-0.18408 -0.31864,-0.35545 -0.0375,-0.22621 0.1268,-0.44665 0.36191,-0.48561 0.21096,-0.0349 0.42322,0.10688 0.47767,0.3192 0.053,0.2066 -0.0631,0.42973 -0.26337,0.50609 -0.0676,0.0258 -0.19536,0.0336 -0.25757,0.0158 z m 1.25811,-0.031 c -0.1544,-0.043 -0.27484,-0.17229 -0.30768,-0.33038 -0.0487,-0.23447 0.11719,-0.46982 0.35738,-0.50697 0.28151,-0.0435 0.53449,0.21136 0.48602,0.48969 -0.0439,0.25233 -0.29434,0.41482 -0.53572,0.34766 z m -4.05173,-2.36441 c -0.27347,-0.0239 -0.61419,-0.10401 -0.61419,-0.14443 0,-0.0194 0.1198,-0.2805 0.12871,-0.2805 0.004,0 0.0402,0.0136 0.0804,0.0302 0.20346,0.084 0.43661,0.12294 0.73195,0.12222 0.29961,-7.4e-4 0.50145,-0.0302 0.74461,-0.10882 0.0599,-0.0194 0.11433,-0.0331 0.12092,-0.0306 0.007,0.003 0.0381,0.0633 0.0701,0.13511 0.0498,0.11196 0.0561,0.1325 0.0442,0.14441 -0.0207,0.0207 -0.26504,0.0804 -0.42147,0.10298 -0.26662,0.0385 -0.63975,0.0509 -0.88519,0.0294 z m -0.35088,-0.95208 c -0.13315,-0.017 -0.25766,-0.10696 -0.31825,-0.2298 -0.0856,-0.17356 -0.0556,-0.36222 0.0791,-0.49687 0.0786,-0.0786 0.16317,-0.11608 0.27387,-0.12138 0.186,-0.009 0.33338,0.0778 0.41236,0.24254 0.14702,0.30667 -0.10587,0.64919 -0.44704,0.60551 z m 1.23504,-0.0327 c -0.21828,-0.0474 -0.36941,-0.2686 -0.33215,-0.48611 0.0611,-0.35659 0.50769,-0.48517 0.74576,-0.21471 0.21515,0.24442 0.0848,0.63351 -0.235,0.70126 -0.0805,0.017 -0.0983,0.017 -0.17861,-1.2e-4 z m 6.2138,6.70312 0.24766,-0.006 v -1.79307 c 0,-0.98618 -0.002,-3.28199 -0.004,-5.1018 l -0.004,-3.30875 0.11296,-0.01 0.11296,-0.01 0.003,-0.574 c 0.001,-0.35083 -10e-4,-0.57764 -0.007,-0.58336 -0.005,-0.005 -0.0576,-0.0121 -0.11648,-0.0154 l -0.10712,-0.006 -0.005,-0.39625 -0.005,-0.39626 -0.1585,-0.003 c -0.0872,-0.002 -0.55972,0.002 -1.05009,0.006 -0.49036,0.005 -0.89722,0.007 -0.90411,0.004 -0.01,-0.004 -0.012,-0.0647 -0.01,-0.27746 0.002,-0.23049 0.005,-0.27391 0.0175,-0.28051 0.008,-0.004 0.0358,-0.0173 0.0614,-0.0289 0.10728,-0.0487 0.16761,-0.13972 0.17412,-0.26261 0.006,-0.10924 -0.02,-0.17747 -0.096,-0.25341 -0.0743,-0.0743 -0.14429,-0.10143 -0.24845,-0.0964 -0.0936,0.005 -0.15285,0.0328 -0.21836,0.10453 -0.12744,0.13944 -0.15551,0.34236 -0.0611,0.44171 0.0324,0.0341 0.067,0.0533 0.14574,0.0809 l 0.0594,0.0208 0.003,0.26209 c 0.002,0.22696 7.5e-4,0.26359 -0.0127,0.27328 -0.0112,0.008 -0.27248,0.01 -0.98587,0.006 l -0.97055,-0.005 v 0.43655 c 0,0.24011 -0.003,0.4436 -0.006,0.45222 -0.005,0.0131 -0.0252,0.0157 -0.1205,0.0157 h -0.11449 l 0.006,0.57115 c 0.004,0.31414 0.008,0.57273 0.01,0.57465 0.002,0.002 0.0492,0.0117 0.10504,0.0216 0.0595,0.0106 0.1052,0.0239 0.11039,0.0321 0.0115,0.0182 0.0194,2.51612 0.009,2.99087 -0.004,0.20911 -0.003,0.22637 0.0163,0.27904 0.031,0.0831 0.0749,0.14021 0.1419,0.18497 0.073,0.0487 0.12546,0.0688 0.34179,0.13065 0.606,0.17328 1.04451,0.3786 1.43501,0.67192 0.15571,0.11695 0.35581,0.30595 0.47874,0.45218 0.11508,0.13689 0.26218,0.35979 0.34649,0.52504 0.19599,0.38414 0.31051,0.79852 0.36684,1.32746 0.0167,0.15711 0.0177,0.28148 0.0144,1.85431 -0.002,0.92724 -3.8e-4,1.69071 0.003,1.69657 0.006,0.0105 0.22202,0.008 0.88202,-0.008 z m -2.25371,-8.97743 c -0.2515,-0.0206 -0.52791,-0.0726 -0.69634,-0.13101 -0.0624,-0.0216 -0.0921,-0.037 -0.0943,-0.0487 -0.003,-0.0179 0.12988,-0.32021 0.15087,-0.34232 0.01,-0.0103 0.031,-0.005 0.11045,0.0267 0.39043,0.15619 0.88514,0.19819 1.40519,0.1193 0.15885,-0.0241 0.3464,-0.0698 0.46931,-0.11425 0.0515,-0.0187 0.099,-0.0339 0.10556,-0.0339 0.007,0 0.0462,0.0764 0.0881,0.16979 0.0579,0.12905 0.0735,0.17295 0.0652,0.18296 -0.0125,0.0151 -0.13101,0.0527 -0.26092,0.083 -0.12017,0.028 -0.30223,0.0569 -0.47298,0.0752 -0.17114,0.0183 -0.70799,0.0265 -0.87005,0.0132 z m -0.39356,-1.13281 c -0.18551,-0.0449 -0.34551,-0.20238 -0.3937,-0.38738 -0.0735,-0.28218 0.11926,-0.58358 0.40881,-0.63923 0.30433,-0.0585 0.59666,0.16287 0.62276,0.47156 0.0293,0.34594 -0.30404,0.63595 -0.63787,0.55505 z m 1.37213,-3.7e-4 c -0.0955,-0.0243 -0.17521,-0.0712 -0.25062,-0.14764 -0.11068,-0.11215 -0.15338,-0.21459 -0.15338,-0.36792 0,-0.14028 0.0523,-0.26498 0.15355,-0.36625 0.20687,-0.20688 0.53044,-0.20521 0.73869,0.004 0.27443,0.27544 0.16569,0.73454 -0.20454,0.86353 -0.077,0.0268 -0.2087,0.0335 -0.2837,0.0145 z m 3.49769,10.0209 c 0.84646,-0.0375 1.54269,-0.0719 1.54718,-0.0765 0.005,-0.005 0.017,-0.54938 0.0278,-1.21061 0.0108,-0.66123 0.0234,-1.20596 0.0279,-1.2105 0.005,-0.005 0.0428,-0.0125 0.085,-0.0177 0.0889,-0.011 0.13247,-0.033 0.16074,-0.0811 0.0194,-0.0331 0.0202,-0.0496 0.02,-0.46525 -1.3e-4,-0.41551 -7.5e-4,-0.43217 -0.0203,-0.46547 -0.0233,-0.0399 -0.0755,-0.0636 -0.16782,-0.0762 l -0.0594,-0.008 -7.5e-4,-0.34673 -7.5e-4,-0.34672 -0.0389,-0.003 c -0.0214,-10e-4 -0.32981,-0.0129 -0.68532,-0.0252 -0.43416,-0.015 -0.65,-0.026 -0.65742,-0.0334 -0.0112,-0.0111 -0.0685,-0.46413 -0.0613,-0.48416 0.002,-0.006 0.0284,-0.0209 0.0584,-0.0334 0.15465,-0.0641 0.25647,-0.27171 0.22282,-0.45434 -0.0539,-0.2924 -0.39635,-0.45162 -0.65102,-0.30268 -0.0594,0.0348 -0.13943,0.12379 -0.17017,0.18938 -0.0243,0.052 -0.0267,0.0675 -0.0267,0.17586 0,0.11036 0.002,0.12296 0.0279,0.17582 0.0448,0.0913 0.11513,0.16032 0.21017,0.20632 l 0.0819,0.0397 0.006,0.11106 c 0.003,0.0611 0.007,0.17124 0.008,0.24479 l 0.002,0.13374 -0.74204,0.003 c -0.52815,0.002 -0.74589,0.006 -0.75537,0.0136 -0.0108,0.009 -0.0133,0.0849 -0.0133,0.39106 v 0.38 l -0.0272,0.006 c -0.015,0.003 -0.0361,0.008 -0.0471,0.0114 -0.0358,0.01 -0.0744,0.0434 -0.0943,0.0824 -0.0187,0.0366 -0.0196,0.0597 -0.0196,0.49695 0,0.44661 7.5e-4,0.45945 0.0206,0.49229 0.0277,0.0455 0.0559,0.0678 0.1032,0.0817 0.0218,0.006 0.0452,0.0185 0.052,0.0268 0.01,0.0119 0.0124,0.2718 0.0124,1.22512 0,0.66549 0.003,1.21295 0.007,1.21659 0.004,0.004 0.009,0.006 0.0124,0.006 0.003,0 0.69834,-0.0309 1.54479,-0.0684 z m -0.058,-1.84009 c -0.19044,-0.0107 -0.38387,-0.0445 -0.52581,-0.0921 -0.0927,-0.031 -0.18186,-0.0724 -0.19215,-0.089 -0.0101,-0.0164 0.10454,-0.35705 0.12016,-0.35705 0.008,0 0.0315,0.0112 0.0531,0.0249 0.0989,0.0625 0.28062,0.1238 0.44064,0.14879 0.0854,0.0133 0.14759,0.0159 0.28728,0.0119 0.25934,-0.007 0.44394,-0.0484 0.65182,-0.14445 0.0597,-0.0276 0.0886,-0.0365 0.0916,-0.0283 0.0393,0.10502 0.10965,0.33386 0.1049,0.34126 -0.0266,0.0414 -0.28339,0.12072 -0.50228,0.15513 -0.0944,0.0148 -0.39669,0.0375 -0.45008,0.0337 -0.0136,-7.5e-4 -0.0493,-0.003 -0.0793,-0.005 z m -0.54749,-0.9644 c -0.26366,-0.0664 -0.34564,-0.39785 -0.14338,-0.5797 0.12762,-0.11474 0.31748,-0.11232 0.44659,0.006 0.2161,0.19751 0.0893,0.55923 -0.20301,0.57913 -0.0346,0.002 -0.0797,0 -0.1002,-0.005 z m 1.16169,-0.005 c -0.10465,-0.0288 -0.18911,-0.1069 -0.22844,-0.21111 -0.0295,-0.0781 -0.0237,-0.18505 0.0142,-0.26254 0.0342,-0.07 0.10897,-0.13773 0.18248,-0.16545 0.0457,-0.0173 0.0716,-0.0205 0.13573,-0.0171 0.13163,0.007 0.23075,0.0736 0.289,0.19423 0.0383,0.0792 0.0389,0.18985 0.002,0.27026 -0.0716,0.15433 -0.23762,0.23498 -0.39464,0.1917 z m -14.94645,2.60321 c 0.008,-0.0496 6.58606,-16.60029 6.60506,-16.61953 0.0183,-0.0185 0.0231,-0.0185 0.2843,0.003 0.66708,0.054 1.08715,0.071 1.91511,0.0775 0.99328,0.008 1.64049,-0.0139 2.46975,-0.0828 0.16973,-0.0141 0.19814,-0.0144 0.21034,-0.002 0.0131,0.0131 6.62204,16.62275 6.62204,16.64259 0,0.0132 0.0186,0.0119 0.31205,-0.0211 0.42039,-0.0473 0.7834,-0.10083 0.80101,-0.11821 0.005,-0.005 -1.51097,-3.74158 -3.39031,-8.35896 -2.83788,-6.97247 -3.40045,-8.36226 -3.40884,-8.42138 -0.007,-0.0464 -0.007,-0.0938 -3.7e-4,-0.13766 0.007,-0.0497 0.24741,-0.69521 0.93582,-2.5137 0.72075,-1.90388 0.92361,-2.44935 0.91421,-2.45821 -0.0212,-0.02 -0.63868,-0.15616 -1.06712,-0.23539 -0.96155,-0.1778 -1.87964,-0.28979 -2.8481,-0.34739 -0.81173,-0.0483 -1.81347,-0.0483 -2.6252,0 -1.06392,0.0633 -2.09938,0.19643 -3.11756,0.40088 -0.30301,0.0608 -0.63024,0.13325 -0.7594,0.16803 -0.0368,0.01 -0.0424,0.0148 -0.0383,0.0332 0.003,0.0119 0.42487,1.11158 0.93835,2.44375 0.51348,1.33216 0.93998,2.44441 0.94778,2.47165 0.0209,0.073 0.0189,0.20561 -0.004,0.27738 -0.0105,0.0327 -1.54889,3.79345 -3.41857,8.35724 -1.86967,4.56379 -3.39941,8.3046 -3.39941,8.31291 0,0.0177 0.0302,0.0238 0.33187,0.0673 0.22602,0.0326 0.67844,0.0858 0.74433,0.0875 0.0373,7.4e-4 0.0414,-10e-4 0.0456,-0.0262 z m 8.50728,-20.97116 c -1.10016,-0.0215 -2.20643,-0.11656 -2.80847,-0.24143 -0.35369,-0.0734 -0.52009,-0.1432 -0.52009,-0.21829 0,-0.16636 1.00912,-0.34308 2.39735,-0.41982 0.91511,-0.0506 1.99791,-0.0506 2.92239,-9e-5 1.3042,0.0713 2.27051,0.22986 2.39013,0.39225 0.0164,0.0222 0.0173,0.0294 0.007,0.0495 -0.0172,0.0322 -0.0342,0.0449 -0.10466,0.0782 -0.48379,0.22828 -2.46967,0.39503 -4.28327,0.35966 z m 3.35625,-2.97263 -0.003,-0.0669 -0.11709,-0.0193 c -0.13089,-0.0216 -0.12931,-0.0221 -0.14077,0.0457 -0.0106,0.0629 -0.021,0.0645 -0.14333,0.0226 -0.06,-0.0206 -0.11431,-0.0436 -0.1206,-0.0511 -0.009,-0.0106 -0.006,-0.0262 0.0111,-0.0683 0.0124,-0.03 0.0209,-0.0557 0.0189,-0.0571 -0.0215,-0.0156 -0.20149,-0.11524 -0.20816,-0.11524 -0.005,0 -0.023,0.0201 -0.0403,0.0446 -0.0173,0.0245 -0.0379,0.0446 -0.0459,0.0446 -0.0298,0 -0.19964,-0.14247 -0.19964,-0.16744 0,-0.009 0.0156,-0.032 0.0347,-0.0505 0.0191,-0.0185 0.0347,-0.0378 0.0347,-0.0428 0,-0.01 -0.13412,-0.17112 -0.15062,-0.18132 -0.005,-0.003 -0.0288,0.008 -0.0524,0.0249 -0.0511,0.0367 -0.0649,0.0381 -0.0839,0.009 -0.0615,-0.0957 -0.10932,-0.182 -0.10932,-0.19739 0,-0.0117 0.0136,-0.0245 0.0371,-0.0352 0.0727,-0.0328 0.0736,-0.0353 0.0428,-0.10995 -0.015,-0.0364 -0.0331,-0.0839 -0.0402,-0.10575 -0.007,-0.0218 -0.0172,-0.0424 -0.0224,-0.0458 -0.005,-0.003 -0.0298,-3e-5 -0.0546,0.007 -0.0248,0.007 -0.0509,0.0136 -0.058,0.0136 -0.0155,0 -0.0288,-0.0444 -0.05,-0.167 -0.0181,-0.10495 -0.0159,-0.10996 0.0478,-0.11022 0.0683,-3.4e-4 0.0677,7.5e-4 0.0677,-0.1345 v -0.12233 l -0.0322,-0.005 c -0.0177,-0.003 -0.0456,-0.006 -0.0619,-0.008 -0.0233,-0.002 -0.0305,-0.008 -0.0333,-0.0274 -0.005,-0.0376 0.0293,-0.22621 0.0439,-0.23832 0.009,-0.008 0.0238,-0.008 0.0506,-1.2e-4 0.0742,0.0206 0.0739,0.0208 0.1151,-0.0985 0.0207,-0.06 0.035,-0.11332 0.0318,-0.11854 -0.003,-0.005 -0.0252,-0.0181 -0.0488,-0.0285 -0.0236,-0.0104 -0.046,-0.024 -0.0498,-0.0301 -0.007,-0.0119 0.0715,-0.16885 0.10777,-0.21435 l 0.0221,-0.0277 0.0455,0.0313 c 0.0551,0.0379 0.0694,0.0389 0.091,0.006 0.009,-0.014 0.041,-0.0541 0.0708,-0.0892 0.0598,-0.0705 0.06,-0.075 0.005,-0.12749 -0.0168,-0.016 -0.0306,-0.0346 -0.0306,-0.0414 0,-0.0127 0.18498,-0.17217 0.19977,-0.17217 0.005,0 0.0243,0.0223 0.0439,0.0495 0.0196,0.0272 0.0371,0.0495 0.039,0.0495 0.003,0 0.10168,-0.0592 0.17533,-0.10557 l 0.037,-0.0233 -0.0245,-0.0555 c -0.0135,-0.0305 -0.0223,-0.0592 -0.0195,-0.0637 0.009,-0.0145 0.21363,-0.09 0.2355,-0.0869 0.0162,0.002 0.0251,0.016 0.0378,0.0575 0.0127,0.0417 0.0209,0.0542 0.035,0.0532 0.0284,-0.002 0.21595,-0.0364 0.22126,-0.0407 0.003,-0.002 0.003,-0.0319 0.002,-0.0662 l -0.003,-0.0624 0.0377,-0.006 c 0.0207,-0.003 0.0784,-0.006 0.12815,-0.006 0.10798,-1.2e-4 0.11648,0.006 0.10716,0.0762 -0.005,0.0352 -0.003,0.0512 0.007,0.0586 0.007,0.006 0.0535,0.0161 0.10255,0.0233 0.14421,0.0213 0.13541,0.0237 0.15155,-0.0418 0.0172,-0.07 0.0222,-0.0707 0.15706,-0.0225 0.12444,0.0445 0.13012,0.0501 0.10335,0.10255 -0.0312,0.0612 -0.0275,0.0733 0.0314,0.10318 0.0286,0.0145 0.0752,0.0402 0.10362,0.0571 l 0.0516,0.0308 0.036,-0.0501 c 0.0198,-0.0276 0.0405,-0.0501 0.046,-0.0501 0.0191,0 0.20605,0.15393 0.20605,0.16961 0,0.005 -0.0183,0.029 -0.0407,0.0533 l -0.0407,0.0442 0.0283,0.0338 c 0.0156,0.0186 0.0484,0.0586 0.0729,0.0888 0.0245,0.0302 0.0515,0.0552 0.06,0.0555 0.008,2.5e-4 0.0344,-0.0135 0.0578,-0.0306 l 0.0424,-0.0312 0.0231,0.0237 c 0.023,0.0237 0.12393,0.19405 0.12393,0.20918 0,0.004 -0.0245,0.02 -0.0545,0.0347 -0.03,0.0147 -0.0545,0.031 -0.0545,0.0362 0,0.005 0.0139,0.0455 0.0307,0.0896 0.0169,0.0441 0.0353,0.0924 0.0408,0.10735 0.0115,0.0312 0.0176,0.0322 0.0794,0.0137 0.0248,-0.007 0.0502,-0.0105 0.0563,-0.007 0.0117,0.007 0.0503,0.18933 0.0503,0.23722 0,0.0268 -0.003,0.0283 -0.0619,0.0368 l -0.0619,0.009 v 0.11393 c 0,0.0626 0.004,0.11949 0.009,0.1263 0.005,0.007 0.0273,0.0124 0.0501,0.0124 0.0733,0 0.0773,0.009 0.0595,0.12707 -0.008,0.0563 -0.0196,0.11366 -0.0249,0.12753 -0.009,0.0234 -0.0126,0.0247 -0.0515,0.0176 -0.0886,-0.016 -0.0834,-0.0198 -0.12163,0.0893 -0.0191,0.0545 -0.0357,0.10564 -0.0369,0.11366 -10e-4,0.009 0.0191,0.0261 0.0498,0.0427 0.0291,0.0158 0.052,0.0351 0.052,0.0439 0,0.0324 -0.11396,0.22074 -0.13356,0.22074 -0.007,0 -0.0309,-0.0136 -0.0539,-0.0303 -0.023,-0.0167 -0.0458,-0.0289 -0.0506,-0.0273 -0.0139,0.005 -0.14834,0.17603 -0.14834,0.18885 0,0.006 0.0185,0.0305 0.0412,0.0536 l 0.0412,0.042 -0.0338,0.0318 c -0.0646,0.0608 -0.16153,0.13759 -0.17377,0.13759 -0.007,0 -0.0267,-0.0201 -0.0443,-0.0446 -0.0176,-0.0245 -0.036,-0.0446 -0.0407,-0.0446 -0.005,0 -0.0453,0.022 -0.0899,0.0489 -0.0447,0.0269 -0.089,0.0519 -0.0986,0.0555 -0.0225,0.009 -0.0219,0.0261 0.003,0.0739 0.0109,0.0213 0.0198,0.0451 0.0198,0.0527 0,0.0263 -0.2299,0.11471 -0.25158,0.0967 -0.007,-0.005 -0.0177,-0.0324 -0.0247,-0.0599 -0.0146,-0.0568 -0.0133,-0.0564 -0.11499,-0.0361 -0.0381,0.008 -0.0865,0.0168 -0.10737,0.0204 l -0.038,0.007 0.003,0.0564 c 0.002,0.031 -3.8e-4,0.0619 -0.005,0.0687 -0.006,0.009 -0.0441,0.0124 -0.13555,0.0124 h -0.12797 z m -3.42325,-2.29911 c -0.009,-0.006 -0.0118,-0.0334 -0.01,-0.0958 l 0.003,-0.0879 -0.10898,-0.0165 c -0.0599,-0.009 -0.13314,-0.0218 -0.16269,-0.0281 -0.0296,-0.006 -0.0575,-0.008 -0.062,-0.003 -0.005,0.005 -0.0175,0.0415 -0.0286,0.082 -0.0112,0.0405 -0.024,0.0774 -0.0285,0.082 -0.005,0.005 -0.0677,-0.0118 -0.14053,-0.0362 -0.16253,-0.0547 -0.20613,-0.073 -0.21234,-0.0892 -0.003,-0.007 0.009,-0.0423 0.0252,-0.0787 0.0165,-0.0364 0.03,-0.0728 0.03,-0.0808 0,-0.008 -0.0189,-0.023 -0.0421,-0.0334 -0.0231,-0.0103 -0.0882,-0.0462 -0.14458,-0.0797 -0.0564,-0.0335 -0.10653,-0.0585 -0.11149,-0.0554 -0.005,0.003 -0.0272,0.0323 -0.0494,0.065 -0.0222,0.0327 -0.0468,0.0619 -0.0548,0.065 -0.025,0.01 -0.29113,-0.2057 -0.29113,-0.23547 0,-0.008 0.0245,-0.0389 0.0545,-0.0685 0.03,-0.0296 0.0543,-0.0584 0.0542,-0.0641 0,-0.006 -0.036,-0.0504 -0.0796,-0.0994 -0.0436,-0.049 -0.0892,-0.10357 -0.10124,-0.1212 -0.0121,-0.0176 -0.0271,-0.034 -0.0334,-0.0365 -0.006,-0.002 -0.0426,0.0176 -0.0808,0.0444 -0.0381,0.0268 -0.0721,0.0489 -0.0755,0.0489 -0.0204,0 -0.1995,-0.30986 -0.18895,-0.32693 0.003,-0.006 0.037,-0.0258 0.0743,-0.0446 0.0373,-0.0188 0.0703,-0.0381 0.0733,-0.0429 0.003,-0.005 -0.009,-0.0439 -0.0276,-0.087 -0.0182,-0.043 -0.0436,-0.11111 -0.0565,-0.15124 -0.0129,-0.0401 -0.0294,-0.0752 -0.0367,-0.078 -0.007,-0.003 -0.0465,0.005 -0.0872,0.0164 -0.0407,0.0118 -0.0779,0.0191 -0.0827,0.0161 -0.0184,-0.0114 -0.0751,-0.3037 -0.0683,-0.35214 0.003,-0.023 0.009,-0.0252 0.0877,-0.0345 l 0.0842,-0.01 v -0.17181 c 0,-0.0945 -0.003,-0.17347 -0.006,-0.17548 -0.003,-0.002 -0.0427,-0.007 -0.0876,-0.0105 -0.0501,-0.004 -0.0835,-0.0115 -0.0864,-0.019 -0.0105,-0.0274 0.0403,-0.33005 0.0598,-0.35599 0.01,-0.0129 0.0206,-0.0122 0.0892,0.006 0.0508,0.0131 0.0815,0.0168 0.0878,0.0105 0.005,-0.005 0.0264,-0.0602 0.0469,-0.12194 0.0205,-0.0618 0.0445,-0.12885 0.0533,-0.1491 0.009,-0.0203 0.0161,-0.0394 0.0161,-0.0426 0,-0.003 -0.0339,-0.0218 -0.0752,-0.0415 -0.0414,-0.0196 -0.0773,-0.0412 -0.0799,-0.048 -0.0109,-0.0283 0.15669,-0.32151 0.18368,-0.32146 0.009,2e-5 0.0427,0.0178 0.0754,0.0396 0.0327,0.0217 0.0645,0.0396 0.0708,0.0396 0.006,2e-5 0.0427,-0.039 0.081,-0.0867 0.0383,-0.0477 0.0863,-0.10596 0.10654,-0.12953 l 0.0368,-0.0429 -0.0609,-0.0614 c -0.0334,-0.0338 -0.0609,-0.0665 -0.0609,-0.0726 0,-0.0226 0.25623,-0.2409 0.28272,-0.2409 0.007,0 0.0342,0.029 0.0594,0.0644 0.0253,0.0354 0.0518,0.0644 0.0589,0.0644 0.007,0 0.0524,-0.0249 0.10067,-0.0553 0.0483,-0.0305 0.10861,-0.066 0.1341,-0.0791 0.0255,-0.013 0.0489,-0.0277 0.0519,-0.0327 0.003,-0.005 -0.0104,-0.0435 -0.0299,-0.0856 -0.0294,-0.0637 -0.0332,-0.0788 -0.0222,-0.0893 0.0161,-0.0153 0.22255,-0.0978 0.2881,-0.11521 0.0321,-0.008 0.0502,-0.009 0.0571,-0.002 0.006,0.006 0.0189,0.0408 0.0296,0.0781 0.0107,0.0374 0.023,0.0715 0.0273,0.0759 0.004,0.004 0.0635,-0.003 0.13145,-0.0169 0.068,-0.0136 0.14139,-0.0281 0.16319,-0.0322 l 0.0396,-0.007 -0.003,-0.09 -0.003,-0.09 0.0317,-0.006 c 0.0608,-0.0122 0.33451,-0.007 0.34317,0.006 0.004,0.007 0.008,0.0502 0.008,0.0963 v 0.084 l 0.0941,0.012 c 0.0518,0.007 0.12532,0.0187 0.16346,0.0269 0.0381,0.008 0.073,0.0112 0.0774,0.007 0.004,-0.004 0.0164,-0.0403 0.0266,-0.08 0.0102,-0.0396 0.0227,-0.0762 0.0279,-0.0814 0.0108,-0.0108 0.10724,0.016 0.24322,0.0678 0.12408,0.0472 0.12323,0.046 0.0863,0.12748 -0.0167,0.0369 -0.0305,0.0748 -0.0305,0.0841 0,0.0103 0.016,0.0242 0.0406,0.0352 0.0223,0.0101 0.0876,0.0463 0.14507,0.0805 0.0575,0.0342 0.10736,0.0604 0.11085,0.0582 0.003,-0.002 0.0262,-0.0332 0.0505,-0.0691 0.0243,-0.0358 0.0509,-0.0651 0.0591,-0.065 0.0261,1.2e-4 0.28736,0.20958 0.28736,0.2303 0,0.005 -0.0245,0.0363 -0.0545,0.0694 -0.03,0.0331 -0.0545,0.0645 -0.0545,0.0698 0,0.005 0.0256,0.0386 0.057,0.0739 0.0314,0.0354 0.0783,0.0905 0.10447,0.12245 0.0261,0.0319 0.0531,0.0581 0.06,0.0581 0.007,0 0.041,-0.0201 0.0758,-0.0446 0.0348,-0.0245 0.067,-0.0446 0.0715,-0.0446 0.0228,0 0.20219,0.30884 0.19045,0.32783 -0.004,0.006 -0.0398,0.0263 -0.08,0.0446 -0.0402,0.0183 -0.073,0.0369 -0.073,0.0414 0,0.004 0.0174,0.0506 0.0386,0.10253 0.0212,0.0519 0.0467,0.12024 0.0566,0.1518 0.01,0.0316 0.0234,0.0594 0.03,0.0619 0.006,0.003 0.0462,-0.005 0.0881,-0.0168 0.0459,-0.0129 0.0798,-0.0178 0.0853,-0.0124 0.0118,0.0118 0.055,0.21653 0.0638,0.30173 0.008,0.0757 0.014,0.0706 -0.0997,0.082 -0.0326,0.003 -0.0628,0.009 -0.0671,0.0137 -0.004,0.004 -0.007,0.0833 -0.005,0.17548 l 0.003,0.16767 0.086,0.01 c 0.0473,0.005 0.0886,0.0126 0.0918,0.0158 0.0156,0.016 -0.0445,0.35361 -0.0652,0.36643 -0.006,0.004 -0.0425,-0.002 -0.0814,-0.0118 -0.0389,-0.0101 -0.0762,-0.0185 -0.0829,-0.0186 -0.007,-9e-5 -0.0237,0.0379 -0.0378,0.0844 -0.0142,0.0465 -0.0388,0.11622 -0.0548,0.15491 -0.016,0.0387 -0.029,0.0745 -0.029,0.0795 0,0.005 0.0336,0.0244 0.0746,0.0431 0.041,0.0187 0.0771,0.0406 0.0802,0.0487 0.01,0.0252 -0.15011,0.30743 -0.18073,0.31919 -0.008,0.003 -0.0433,-0.0141 -0.0812,-0.0402 -0.0366,-0.0252 -0.0692,-0.0458 -0.0724,-0.0458 -0.003,0 -0.0283,0.0301 -0.0557,0.0669 -0.0274,0.0368 -0.0748,0.0949 -0.10538,0.12915 -0.0306,0.0343 -0.0556,0.0656 -0.0556,0.0697 0,0.004 0.0267,0.0338 0.0594,0.0662 0.0327,0.0324 0.0594,0.0629 0.0594,0.0679 0,0.0208 -0.25975,0.24397 -0.28402,0.24409 -0.006,3e-5 -0.0343,-0.0312 -0.0622,-0.0695 -0.0574,-0.0789 -0.0435,-0.0785 -0.15789,-0.005 -0.0361,0.0231 -0.0934,0.0567 -0.12745,0.0746 -0.034,0.0179 -0.0619,0.0359 -0.0619,0.0399 0,0.004 0.0156,0.0416 0.0348,0.0836 0.0191,0.042 0.0326,0.0798 0.03,0.0841 -0.007,0.0107 -0.18215,0.0824 -0.27032,0.1104 -0.0525,0.0167 -0.0748,0.0199 -0.0828,0.0119 -0.006,-0.006 -0.0193,-0.0412 -0.0296,-0.0781 -0.0103,-0.0369 -0.0224,-0.0709 -0.027,-0.0755 -0.005,-0.005 -0.0659,0.003 -0.13632,0.0163 -0.0704,0.0135 -0.14512,0.0273 -0.16609,0.0307 l -0.0381,0.006 0.003,0.0907 0.003,0.0907 -0.0396,0.007 c -0.0543,0.01 -0.31407,0.01 -0.32952,7e-5 z"
         id="path1073"
         inkscape:connector-curvature="0" />
    </g>
  </g>
</svg>
