<?xml version="1.0" encoding="UTF-8" standalone="no"?>
<!-- Created with Inkscape (http://www.inkscape.org/) -->

<svg
   xmlns:dc="http://purl.org/dc/elements/1.1/"
   xmlns:cc="http://creativecommons.org/ns#"
   xmlns:rdf="http://www.w3.org/1999/02/22-rdf-syntax-ns#"
   xmlns:svg="http://www.w3.org/2000/svg"
   xmlns="http://www.w3.org/2000/svg"
   xmlns:sodipodi="http://sodipodi.sourceforge.net/DTD/sodipodi-0.dtd"
   xmlns:inkscape="http://www.inkscape.org/namespaces/inkscape"
   version="1.1"
   id="svg2"
   width="420"
   height="420"
   viewBox="0 0 420 420"
   sodipodi:docname="attend.svg"
   inkscape:version="0.92.2 2405546, 2018-03-11">
  <metadata
     id="metadata8">
    <rdf:RDF>
      <cc:Work
         rdf:about="">
        <dc:format>image/svg+xml</dc:format>
        <dc:type
           rdf:resource="http://purl.org/dc/dcmitype/StillImage" />
        <dc:title />
      </cc:Work>
    </rdf:RDF>
  </metadata>
  <defs
     id="defs6" />
  <sodipodi:namedview
     pagecolor="#ffffff"
     bordercolor="#666666"
     borderopacity="1"
     objecttolerance="10"
     gridtolerance="10"
     guidetolerance="10"
     inkscape:pageopacity="0"
     inkscape:pageshadow="2"
     inkscape:window-width="1364"
     inkscape:window-height="732"
     id="namedview4"
     showgrid="false"
     inkscape:zoom="0.50059158"
     inkscape:cx="-186.0576"
     inkscape:cy="21.329997"
     inkscape:window-x="0"
     inkscape:window-y="35"
     inkscape:window-maximized="0"
     inkscape:current-layer="svg2"
     fit-margin-top="0"
     fit-margin-left="0"
     fit-margin-right="0"
     fit-margin-bottom="0"
     inkscape:pagecheckerboard="true" />
  <path
     style="fill:#13123d;stroke-width:0.11339774;fill-opacity:1"
     d="m 92.014806,413.92926 c -3.857153,-0.61304 -7.022617,-2.99128 -8.423113,-6.32833 -0.655156,-1.56102 -0.798818,-2.36071 -0.788152,-4.38679 0.0085,-1.63343 0.04025,-1.9154 0.317514,-2.82795 1.159209,-3.81495 4.133952,-6.54042 8.136396,-7.45469 0.812139,-0.18552 1.448727,-0.24372 2.706201,-0.24814 1.782506,-0.006 2.912693,0.17253 4.365812,0.69065 1.631335,0.58159 3.912226,1.96203 3.912226,2.3678 0,0.20891 -2.22501,3.09725 -2.453291,3.18486 -0.08276,0.0301 -0.342781,-0.094 -0.577868,-0.27893 -0.746972,-0.58828 -1.575768,-1.04678 -2.546453,-1.40874 -1.216724,-0.45365 -3.108658,-0.57006 -4.287993,-0.26392 -2.195984,0.57022 -4.004855,2.38082 -4.59541,4.59992 -0.27116,1.01896 -0.219044,2.76855 0.113652,3.81619 0.652108,2.05337 2.235671,3.61707 4.311667,4.25753 1.526723,0.47098 3.602859,0.24554 5.272995,-0.57255 l 0.623687,-0.30557 0.03048,-2.75252 0.03048,-2.75249 2.010784,0.0301 2.0108,0.0301 0.0298,3.94461 0.0298,3.94468 -0.27308,0.25308 c -0.74123,0.68693 -3.381592,1.80886 -5.286354,2.24624 -1.10772,0.25439 -3.674407,0.37165 -4.670395,0.21333 z m 29.284584,-0.12238 c -3.84749,-0.49793 -6.54887,-3.13024 -7.04598,-6.86596 -0.54356,-4.08448 1.57793,-7.66505 5.22743,-8.82274 1.24376,-0.39437 2.57799,-0.56016 3.87544,-0.48111 1.46761,0.0894 2.4192,0.33044 3.66282,0.92772 2.86729,1.3772 4.39278,4.12184 4.21949,7.59172 -0.0981,1.96433 -0.55335,3.29452 -1.6016,4.67964 -1.71709,2.26896 -4.92589,3.41225 -8.3376,2.97073 z m 3.12569,-4.01925 c 0.69099,-0.33603 1.56107,-1.22901 1.86306,-1.91169 0.11926,-0.2695 0.26856,-0.85474 0.33173,-1.3002 0.29547,-2.08338 -0.55303,-3.97105 -2.13401,-4.74745 -0.57198,-0.28066 -0.7654,-0.31498 -1.77588,-0.31498 -1.18766,0 -1.58632,0.12524 -2.4647,0.77469 -0.47836,0.35363 -1.07051,1.29856 -1.28313,2.04742 -0.2848,1.00326 -0.19264,2.64296 0.1959,3.48507 0.3286,0.71212 0.94899,1.45351 1.50262,1.79569 1.01268,0.6259 2.67498,0.70164 3.76441,0.17176 z m 18.57201,4.03672 c -1.27591,-0.20294 -2.32441,-0.69775 -3.16561,-1.4933 -0.32306,-0.30557 -0.64414,-0.55548 -0.71355,-0.55548 -0.0798,0 -0.13832,0.34374 -0.15913,0.93552 l -0.0331,0.93554 -2.203,0.0301 c -1.68661,0.026 -2.22447,-0.002 -2.29457,-0.11331 -0.0503,-0.0795 -0.0923,-4.94399 -0.0933,-10.8103 0,-8.37147 0.0287,-10.70794 0.14042,-10.86048 0.12703,-0.17384 0.37082,-0.19099 2.2963,-0.16344 l 2.15417,0.0301 0.0296,3.99731 c 0.0164,2.19848 0.0593,3.99724 0.0952,3.99724 0.0361,0 0.35431,-0.25802 0.70728,-0.57313 1.94712,-1.73855 4.99461,-2.06317 7.64627,-0.81452 2.58299,1.21639 4.06063,3.929 4.06063,7.45443 0,4.72084 -2.66303,7.80959 -6.9337,8.0421 -0.52588,0.0301 -1.21634,0.008 -1.53427,-0.0388 z m 1.54816,-4.1126 c 0.81281,-0.37723 1.41864,-1.00014 1.85203,-1.90513 0.33727,-0.70421 0.35297,-0.80022 0.35173,-2.15453 0,-1.33232 -0.0216,-1.4579 -0.33015,-2.09081 -0.4003,-0.81966 -1.14265,-1.58517 -1.85752,-1.91553 -0.43414,-0.20034 -0.74215,-0.24581 -1.66656,-0.24581 -1.04467,0 -1.18171,0.026 -1.74044,0.33603 -1.28108,0.70959 -2.02603,1.95448 -2.14013,3.57631 -0.15918,2.26233 0.95041,4.09268 2.79769,4.61496 0.78266,0.22138 1.99875,0.12524 2.73335,-0.21489 z m 12.76625,4.09526 c -2.71524,-0.55779 -4.38758,-2.96795 -3.93998,-5.67822 0.24779,-1.50035 1.05362,-2.59194 2.40238,-3.25432 1.18103,-0.57998 2.00125,-0.70401 5.13549,-0.77644 l 2.81935,-0.0652 -0.0499,-0.60097 c -0.0668,-0.80556 -0.45884,-1.37796 -1.23523,-1.80337 -0.53856,-0.29525 -0.74803,-0.34031 -1.75727,-0.37936 -1.34678,-0.0519 -2.39992,0.17176 -3.95375,0.83913 -0.56735,0.24372 -1.0208,0.3785 -1.07668,0.3197 -0.1684,-0.17643 -1.25131,-2.66423 -1.25131,-2.87449 0,-0.3948 2.82109,-1.46068 4.65243,-1.75765 3.9574,-0.64179 7.10138,0.32273 8.4394,2.58875 0.71618,1.21299 0.75261,1.60836 0.71738,7.78212 l -0.0314,5.49979 h -2.15455 -2.15456 l -0.0348,-0.68041 c -0.0192,-0.37422 -0.0806,-0.72664 -0.13678,-0.78312 -0.0609,-0.0614 -0.28573,0.0631 -0.55668,0.30769 -0.53297,0.48156 -1.29252,0.88515 -2.16359,1.14971 -0.75129,0.2284 -2.89607,0.32529 -3.67022,0.16655 z m 4.3506,-3.44451 c 0.74804,-0.26951 1.35787,-0.73093 1.72089,-1.30234 0.27688,-0.43588 0.32027,-0.61735 0.32027,-1.34035 v -0.83619 l -2.4664,0.0343 c -2.33238,0.0343 -2.48883,0.0502 -2.87956,0.29311 -0.74796,0.46509 -0.96771,1.35439 -0.55774,2.25727 0.22793,0.50202 0.53832,0.75933 1.22707,1.01735 0.5307,0.19877 1.91894,0.13304 2.63547,-0.12525 z m 89.9852,3.44871 c -2.32867,-0.36434 -4.21182,-1.69162 -5.255,-3.70409 -1.81015,-3.49202 -1.15226,-8.38831 1.43997,-10.71664 1.29363,-1.16197 2.60804,-1.66929 4.54806,-1.75538 2.09446,-0.093 3.51803,0.37422 4.79585,1.57399 0.32006,0.3004 0.62149,0.54628 0.66983,0.54628 0.0483,0 0.1013,-1.79875 0.1177,-3.99725 l 0.0297,-3.99724 h 2.21125 2.21126 v 10.94287 10.94288 h -2.21126 -2.21125 l -0.0326,-0.99221 c -0.0179,-0.54577 -0.0645,-0.99224 -0.10315,-0.99224 -0.0387,0 -0.35843,0.27464 -0.71045,0.61051 -0.69551,0.66342 -1.55212,1.15108 -2.44219,1.39048 -0.76664,0.20605 -2.23263,0.27722 -3.05771,0.1481 z m 3.92671,-3.95738 c 1.59639,-0.75035 2.49248,-2.48782 2.32252,-4.50309 -0.14293,-1.69501 -0.98917,-2.99506 -2.34587,-3.60389 -0.626,-0.28109 -0.79719,-0.3077 -1.73403,-0.27251 -0.80123,0.0301 -1.16141,0.0992 -1.5718,0.30125 -0.75027,0.36952 -1.42871,1.08875 -1.83826,1.94894 -0.32975,0.69268 -0.35078,0.81563 -0.34889,2.04117 0,1.08796 0.0445,1.41022 0.25895,1.94446 0.45165,1.12571 1.41483,2.01952 2.51173,2.33092 0.73894,0.20995 2.0985,0.11718 2.74568,-0.1871 z m 24.81555,3.95962 c -1.97386,-0.41584 -3.36131,-1.93576 -3.62554,-3.97186 -0.0603,-0.46438 -0.11123,-2.48995 -0.11308,-4.50135 l -0.002,-3.65707 h -0.93551 c -0.51456,0 -1.00094,-0.0434 -1.08083,-0.094 -0.10857,-0.0691 -0.1372,-0.4614 -0.1133,-1.55752 l 0.0317,-1.46528 1.02057,-0.0567 1.02059,-0.0566 0.0631,-2.15453 c 0.0348,-1.18502 0.073,-2.1684 0.0849,-2.18532 0.013,-0.0182 1.02981,-0.0182 2.2616,0 l 2.2396,0.0301 0.0566,2.15455 0.0567,2.15459 2.09785,0.0566 2.09785,0.0566 0.0317,1.40154 c 0.0208,0.93652 -0.013,1.45388 -0.099,1.55919 -0.10292,0.12395 -0.56532,0.15747 -2.15811,0.15747 h -2.02702 v 3.63435 c 0,3.86795 0.013,3.97249 0.5673,4.47387 0.33821,0.30599 1.40546,0.28751 2.31913,-0.0388 0.37134,-0.13303 0.70793,-0.20422 0.74799,-0.15746 0.1437,0.16657 0.91396,3.09107 0.8441,3.20415 -0.11331,0.18319 -0.83902,0.51931 -1.70028,0.78718 -0.90455,0.28153 -2.86001,0.40298 -3.68541,0.22917 z m 22.91324,-0.008 c -3.84753,-0.49791 -6.54885,-3.13023 -7.046,-6.86595 -0.54354,-4.08448 1.57796,-7.66504 5.22744,-8.82272 1.24377,-0.39439 2.57799,-0.56022 3.87544,-0.48113 1.46762,0.0891 2.41917,0.33045 3.66283,0.92774 2.8673,1.37719 4.39275,4.12184 4.21949,7.59166 -0.0982,1.96437 -0.55335,3.29454 -1.60159,4.67969 -1.71709,2.2689 -4.92591,3.4122 -8.33761,2.97071 z m 3.12567,-4.01929 c 0.69097,-0.33603 1.56108,-1.22896 1.8631,-1.91168 0.11925,-0.2695 0.26854,-0.85474 0.3317,-1.30016 0.29549,-2.0834 -0.55307,-3.97105 -2.13403,-4.74747 -0.57195,-0.28068 -0.7654,-0.31542 -1.77583,-0.31542 -1.18767,0 -1.58634,0.12524 -2.4647,0.77473 -0.47835,0.35362 -1.07055,1.29852 -1.28316,2.04742 -0.28481,1.00327 -0.19279,2.64294 0.19592,3.48503 0.32857,0.71212 0.94901,1.45357 1.5026,1.79572 1.01272,0.62592 2.67503,0.70167 3.76442,0.17175 z m -200.03472,3.73873 c -0.0383,-0.10003 -0.0697,-4.9645 -0.0697,-10.81017 0,-8.33904 0.0305,-10.67029 0.14213,-10.82281 0.12703,-0.17384 0.37077,-0.19099 2.2963,-0.16344 l 2.15417,0.0301 v 10.94288 10.94288 l -2.22656,0.0301 c -1.95601,0.026 -2.23504,0.008 -2.29631,-0.15096 z m 65.88409,0 c -0.0382,-0.10003 -0.0697,-4.9645 -0.0697,-10.81017 0,-8.33904 0.0305,-10.67029 0.14212,-10.82281 0.12704,-0.17384 0.37079,-0.19099 2.29632,-0.16344 l 2.15415,0.0301 v 10.94288 10.94288 l -2.22656,0.0301 c -1.956,0.026 -2.23503,0.008 -2.2963,-0.15096 z m 13.93708,0.067 c -0.0653,-0.10546 8.56971,-20.17776 8.82,-20.50238 0.0848,-0.10996 0.67415,-0.13693 2.50266,-0.1133 l 2.39162,0.0301 4.33718,10.1491 c 2.38547,5.582 4.33836,10.23942 4.33981,10.34975 0.003,0.18656 -0.16744,0.19877 -2.45741,0.16992 l -2.45998,-0.0301 -0.784,-1.95608 -0.78397,-1.95612 h -4.79489 -4.79495 l -0.58789,1.44581 c -0.32332,0.79521 -0.69885,1.67546 -0.83447,1.95614 l -0.24658,0.51025 -2.28816,0.0301 c -1.45167,0.0208 -2.31405,-0.013 -2.35896,-0.0842 z m 14.23077,-7.85633 c 0.003,-0.29612 -3.00029,-7.57138 -3.11064,-7.53458 -0.11953,0.0387 -3.12463,7.28154 -3.12665,7.53458 0,0.10996 0.69757,0.14161 3.11734,0.14161 2.4183,0 3.11879,-0.0301 3.11995,-0.14161 z M 210.929,413.56 c -0.0297,-0.0782 -0.0407,-4.73435 -0.0249,-10.34756 l 0.0297,-10.20577 2.25974,-0.0301 c 1.73204,-0.026 2.2811,0.002 2.35127,0.11331 0.10499,0.16551 0.13067,20.16084 0.0262,20.43307 -0.0597,0.15539 -0.3726,0.1793 -2.32824,0.1793 -1.70306,0 -2.27267,-0.0343 -2.31342,-0.14161 z m 16.21616,0 c -0.0297,-0.0785 -0.0412,-4.73513 -0.0252,-10.34834 l 0.0297,-10.20582 7.81725,-0.0301 c 6.17876,-0.0208 7.83624,0 7.90776,0.1133 0.0497,0.0785 0.0913,0.89161 0.0922,1.80708 0,1.36365 -0.0305,1.69671 -0.17645,1.84272 -0.157,0.1572 -0.81832,0.17799 -5.5565,0.17799 h -5.37841 v 2.21122 2.21128 h 4.92066 c 4.38239,0 4.92819,0.0208 4.9895,0.17928 0.0377,0.0988 0.0689,0.91149 0.0689,1.80629 0,1.32778 -0.0327,1.65965 -0.17822,1.80507 -0.1564,0.15616 -0.76699,0.17799 -4.99191,0.17799 h -4.8137 l 0.0309,2.23958 0.0309,2.23965 5.64426,0.0301 5.6443,0.0301 -0.0314,1.89836 -0.0314,1.89834 -7.96945,0.0301 c -6.31547,0.0208 -7.98075,0 -8.02381,-0.1133 z m 39.94139,0.0679 c -0.0429,-0.0429 -0.078,-3.58863 -0.078,-7.87947 0,-7.59712 0.006,-7.80466 0.21929,-7.91893 0.3279,-0.17539 3.99606,-0.1546 4.23934,0.026 0.17877,0.13121 0.19072,0.71097 0.16344,7.96623 l -0.0297,7.82443 -2.2184,0.0301 c -1.22009,0.0182 -2.25345,-0.006 -2.29629,-0.0473 z m 21.54558,0 c -0.0429,-0.0429 -0.078,-3.58863 -0.078,-7.87947 0,-7.59712 0.005,-7.80466 0.21931,-7.91893 0.32786,-0.17539 3.99604,-0.1546 4.23931,0.026 0.17876,0.13121 0.19071,0.71097 0.16344,7.96623 l -0.0297,7.82443 -2.21837,0.0301 c -1.22012,0.0182 -2.25344,-0.006 -2.2963,-0.0473 z m 27.66906,0 c -0.0429,-0.0429 -0.078,-3.58863 -0.078,-7.87947 0,-7.59712 0.006,-7.80466 0.21929,-7.91893 0.12602,-0.0673 1.02211,-0.11745 2.10532,-0.11745 1.08319,0 1.97932,0.0498 2.10528,0.11745 0.19306,0.10338 0.21931,0.24555 0.21931,1.19068 0,0.59027 0.0291,1.07324 0.0642,1.07324 0.0355,0 0.38349,-0.32399 0.77377,-0.72009 1.16527,-1.1826 2.69432,-1.76831 4.62792,-1.77265 2.74935,-0.005 4.61029,1.28281 5.49922,3.80915 l 0.31492,0.89487 v 5.6699 5.66984 h -2.26797 -2.26794 l -0.0566,-4.87609 -0.0566,-4.87609 -0.34019,-0.61541 c -0.56595,-1.02394 -1.64713,-1.55701 -2.94836,-1.45369 -1.39189,0.11019 -2.37764,0.8069 -2.98966,2.11217 l -0.29887,0.63734 -0.0566,4.53586 -0.0566,4.53591 -2.21837,0.0301 c -1.22012,0.0182 -2.25347,-0.006 -2.29631,-0.0473 z m -48.1425,-18.08916 c -1.30277,-0.64484 -1.73039,-2.54102 -0.86866,-3.85189 0.73454,-1.11747 2.60446,-1.32512 3.65171,-0.40556 1.08205,0.95005 1.12115,2.86653 0.0785,3.84431 -0.73178,0.6862 -1.95356,0.86264 -2.86149,0.41327 z m 21.54559,0 c -1.30281,-0.64484 -1.7304,-2.54102 -0.8687,-3.85189 0.73456,-1.11747 2.60449,-1.32512 3.65174,-0.40556 1.08204,0.95005 1.12115,2.86653 0.0785,3.84431 -0.73178,0.6862 -1.95357,0.86264 -2.86149,0.41327 z M 189.27446,376.04472 c -45.42062,-0.52988 -82.95814,-2.6709 -97.238568,-5.54622 -5.824287,-1.17269 -8.84871,-3.0479 -9.779778,-6.0636 -0.324246,-1.05023 -0.343984,-3.0694 -0.03997,-4.08701 0.111806,-0.37422 17.963406,-44.0295 39.670256,-97.01178 21.70681,-52.98226 39.48928,-96.43532 39.51656,-96.56243 0.0283,-0.13252 -4.88411,-13.04411 -11.54152,-30.33388 -9.1507,-23.76496 -11.61643,-30.27629 -11.7114,-30.92656 -0.34091,-2.33441 0.99553,-4.87839 3.10047,-5.90207 1.70445,-0.82888 10.19748,-2.96751 17.86015,-4.497359 5.02242,-1.002745 11.94879,-2.140268 17.00967,-2.793518 2.21193,-0.285514 2.95303,-0.525556 2.85575,-0.925 -0.0962,-0.39522 -0.69705,-1.988285 -0.78188,-2.073126 -0.0417,-0.04154 -0.33744,-0.0081 -0.65697,0.07304 -0.49515,0.126805 -0.59572,0.124982 -0.68119,-0.01304 -0.14734,-0.238265 -0.48879,-2.233612 -0.41512,-2.425631 0.036,-0.09381 0.29718,-0.198782 0.60835,-0.244773 0.29984,-0.04419 0.57074,-0.119006 0.60193,-0.166301 0.0314,-0.04731 0.0314,-0.614251 0,-1.259979 l -0.0567,-1.174053 -0.56698,-0.05665 -0.56699,-0.05665 0.0231,-0.850486 c 0.013,-0.467784 0.0928,-1.08012 0.17801,-1.360765 0.14897,-0.490445 0.17012,-0.508607 0.54395,-0.4667 0.96566,0.108345 0.89028,0.166301 1.30475,-1.007498 0.42473,-1.202841 0.43605,-1.156434 -0.39301,-1.610626 -0.19394,-0.106268 -0.35233,-0.233858 -0.35203,-0.283518 0,-0.186043 1.10527,-2.011374 1.28528,-2.124933 0.18751,-0.118221 0.24382,-0.09715 0.93391,0.351051 0.21933,0.142383 0.28663,0.09115 0.99223,-0.755583 0.41628,-0.499618 0.75692,-0.939941 0.75692,-0.978525 0,-0.03877 -0.18679,-0.276919 -0.41514,-0.52963 l -0.41516,-0.4595 0.74973,-0.710295 c 0.41232,-0.390663 0.88628,-0.799752 1.05311,-0.9091 l 0.30337,-0.19877 0.41957,0.492027 c 0.23077,0.270618 0.4667,0.472053 0.52436,0.44765 0.39292,-0.166555 1.97585,-1.171734 1.97585,-1.254867 0,-0.05642 -0.1065,-0.311257 -0.23654,-0.566264 -0.30598,-0.599678 -0.2405,-0.665158 1.16882,-1.168849 1.19879,-0.42845 1.20601,-0.426916 1.44256,0.307541 0.0751,0.233073 0.17934,0.450165 0.23178,0.482576 0.0524,0.03219 0.41863,-0.01304 0.81384,-0.100844 0.39519,-0.08781 0.91352,-0.193058 1.15183,-0.234112 l 0.43328,-0.07431 -0.0297,-0.561279 c -0.0164,-0.308683 0.0228,-0.613709 0.0868,-0.677758 0.0697,-0.06958 0.61359,-0.103382 1.35414,-0.08423 l 1.23771,0.03219 0.0566,0.61582 0.0567,0.615843 1.13398,0.190197 c 0.62369,0.104652 1.17087,0.169936 1.21594,0.144725 0.0451,-0.02596 0.13964,-0.2602 0.21018,-0.522603 0.0705,-0.262438 0.18081,-0.509887 0.24501,-0.549902 0.13592,-0.08469 1.92562,0.498834 2.31741,0.75556 0.24607,0.161097 0.25432,0.197731 0.10927,0.482888 -0.37959,0.746249 -0.38426,0.737307 0.72297,1.36815 0.56437,0.32149 1.06878,0.584586 1.12098,0.584586 0.0522,0 0.2299,-0.204239 0.39502,-0.453604 0.16511,-0.249446 0.34659,-0.453569 0.40328,-0.453569 0.27217,0 2.04826,1.525658 2.04826,1.759435 0,0.06911 -0.15307,0.272569 -0.34018,0.451804 -0.18712,0.179293 -0.33796,0.405662 -0.33526,0.503161 0.003,0.09738 0.35491,0.557609 0.7826,1.022532 l 0.77765,0.845305 0.47411,-0.328541 c 0.34984,-0.242419 0.52011,-0.299533 0.64959,-0.217738 0.2383,0.150182 1.27488,1.868102 1.27775,2.117467 0,0.126287 -0.18887,0.292818 -0.51614,0.451781 -0.41336,0.200858 -0.50689,0.298218 -0.46145,0.480477 0.0974,0.390685 0.6969,1.96785 0.77947,2.05043 0.043,0.04315 0.31502,0.01823 0.6043,-0.054 0.36387,-0.09173 0.56949,-0.09646 0.6673,-0.01558 0.20304,0.168378 0.57557,2.372579 0.42623,2.521884 -0.0643,0.06438 -0.34795,0.142913 -0.6303,0.174874 -0.28239,0.03173 -0.5305,0.115382 -0.55137,0.185524 -0.021,0.07015 -0.0115,0.638054 0.0216,1.261743 l 0.0595,1.133993 0.5339,0.06127 c 0.29363,0.03381 0.57163,0.099 0.61781,0.145255 0.10326,0.103152 -0.12216,1.940782 -0.29218,2.381959 -0.11203,0.290891 -0.15784,0.312687 -0.49154,0.234377 -0.75941,-0.178255 -0.89736,-0.134594 -1.06229,0.336848 -0.0843,0.241138 -0.12526,0.483823 -0.0909,0.539402 0.0357,0.05792 1.23564,0.07073 2.80517,0.03012 2.75295,-0.07119 10.68752,0.08677 14.96712,0.298091 17.70773,0.873805 35.72461,3.466683 50.82477,7.314373 6.1227,1.56014 7.18947,1.96517 8.293,3.14874 0.77496,0.83122 1.21228,1.58925 1.45548,2.52295 0.19513,0.74862 0.2232,2.02596 0.0606,2.73111 -0.0592,0.25698 -5.16915,13.83064 -11.35514,30.16381 -6.18599,16.33314 -11.26929,29.8293 -11.29621,29.99143 -0.0343,0.20684 11.64933,29.03553 39.27138,96.89835 21.62617,53.13201 39.39015,96.85877 39.47553,97.17061 0.23775,0.86905 0.3195,2.75485 0.15538,3.58945 -0.67103,3.41072 -3.7708,5.47284 -10.09801,6.71775 -12.96583,2.55107 -43.67618,4.49884 -83.34733,5.28615 -16.44821,0.32659 -41.19194,0.41845 -58.45653,0.21671 z m 41.33351,-25.35457 c 0.0314,-7.61934 0.096,-13.89274 0.14411,-13.94081 0.0481,-0.0481 0.39254,-0.10938 0.76543,-0.13642 l 0.67801,-0.0488 0.003,-0.69509 c 0,-0.38238 0.0489,-0.76985 0.10672,-0.86114 0.0709,-0.11203 0.36556,-0.18058 0.90545,-0.21124 l 0.80045,-0.045 v -2.65209 -2.65209 h -0.78982 c -0.94287,0 -1.02455,-0.0897 -1.02455,-1.1265 v -0.68785 h -0.76543 c -0.421,0 -0.82394,-0.0387 -0.89542,-0.0849 -0.0715,-0.046 -0.19036,-0.49151 -0.26423,-0.99047 -0.87723,-5.92678 -3.48793,-11.25191 -7.44873,-15.19342 -3.88796,-3.86902 -8.88656,-6.19278 -14.60982,-6.79173 l -1.24738,-0.13044 -0.0314,-1.47263 c -0.0172,-0.80997 0.008,-1.82563 0.0566,-2.25707 l 0.0879,-0.78439 0.72209,-0.36864 c 0.83692,-0.42743 1.39008,-0.92377 1.79726,-1.61338 0.76674,-1.29841 -0.24812,-3.49582 -1.99227,-4.31352 -0.54802,-0.25698 -0.78778,-0.29955 -1.66106,-0.29525 -0.91562,0.006 -1.09128,0.0429 -1.70776,0.35919 -1.2578,0.64862 -2.18872,2.03986 -2.04868,3.0617 0.15161,1.10588 1.00116,2.16848 2.23911,2.80062 l 0.72355,0.36951 0.0309,2.13037 c 0.0216,1.47522 -0.009,2.17853 -0.0989,2.28688 -0.0775,0.0936 -0.35023,0.15668 -0.67713,0.15668 -0.98826,0 -3.14572,0.33733 -4.67248,0.73026 -5.66414,1.45834 -10.45991,4.95994 -13.83169,10.09926 -2.04775,3.1212 -3.48166,6.85336 -4.15599,10.81708 -0.12508,0.7352 -0.28483,1.33295 -0.3707,1.38736 -0.083,0.0527 -0.85257,0.0967 -1.71014,0.0975 h -1.55911 v 0.77109 c 0,0.44859 -0.0569,0.82808 -0.13607,0.90723 -0.0791,0.079 -0.45862,0.13616 -0.90718,0.13616 h -0.77111 v 2.66492 2.66485 h 0.68787 c 1.03667,0 1.1265,0.0816 1.1265,1.02457 v 0.78978 h 1.63619 c 1.33621,0 1.66882,0.0343 1.81435,0.17799 0.15832,0.15823 0.1782,0.99283 0.1782,7.47614 0,6.07415 -0.0266,7.32435 -0.15736,7.45535 -0.1248,0.12499 -1.11742,0.18319 -4.79106,0.28239 -2.5485,0.0691 -4.67757,0.0828 -4.73123,0.0301 -0.16315,-0.15747 -0.006,-12.11079 0.19904,-15.14013 0.1013,-1.49708 0.19652,-3.76786 0.21148,-5.04622 l 0.0275,-2.32435 -5.27299,-0.0566 -5.273,-0.0566 -0.60366,-0.33431 c -0.94652,-0.5243 -1.66964,-1.62032 -2.00363,-3.03693 -0.21406,-0.90788 -0.2145,-2.63858 0,-3.65923 0.21912,-1.04752 0.92723,-2.45786 1.62254,-3.23187 l 0.56029,-0.62369 h 5.59718 5.5972 l 0.68769,-2.04115 c 1.7174,-5.09746 3.72058,-8.62684 6.93575,-12.21998 0.60059,-0.67122 1.30061,-1.38918 1.55558,-1.59552 0.25495,-0.20631 2.47923,-1.58974 4.9428,-3.07443 2.46356,-1.48461 4.57073,-2.77949 4.68261,-2.87743 0.19233,-0.16863 0.19994,-0.50502 0.13961,-6.19443 -0.0352,-3.30904 -0.0898,-6.45782 -0.12158,-6.99731 -0.0738,-1.25492 0,-1.3437 1.09237,-1.3437 h 0.78734 l -0.03,-3.54368 -0.03,-3.5437 -1.16235,-0.0343 c -0.82118,-0.0208 -1.16127,-0.073 -1.15875,-0.16994 0,-0.0759 -0.0177,-1.34651 -0.044,-2.82385 -0.0412,-2.32713 -0.0757,-2.74378 -0.25869,-3.11844 -0.40868,-0.83657 0.0816,-0.79121 -10.24694,-0.94786 -5.08306,-0.0772 -9.33121,-0.18579 -9.44037,-0.24166 -0.17743,-0.0907 -0.19825,-0.3077 -0.19671,-2.05354 0,-1.07371 0.039,-2.00554 0.085,-2.07087 0.0458,-0.0652 0.3643,-0.25438 0.70777,-0.42013 2.31693,-1.1181 2.99066,-4.04542 1.35799,-5.90022 -1.63804,-1.86091 -4.37546,-2.04938 -6.15425,-0.42357 -0.33027,0.30168 -0.75144,0.82133 -0.93588,1.15431 -0.30555,0.55164 -0.33543,0.70133 -0.33543,1.68279 0,0.92541 0.0421,1.16654 0.2971,1.71078 0.37654,0.80295 0.94623,1.37316 1.80512,1.80673 l 0.67602,0.34116 v 2.08407 c 0,1.79587 -0.0249,2.09364 -0.17933,2.15296 -0.0987,0.0388 -4.10649,0.0686 -8.90626,0.0686 -8.54207,0 -8.73641,0.006 -9.17746,0.22996 -0.53204,0.27121 -1.07795,0.98029 -1.25545,1.63032 -0.0873,0.3197 -0.1,1.08261 -0.0403,2.44893 0.0475,1.09145 0.092,2.16302 0.0989,2.38133 l 0.0125,0.39695 -1.41748,0.0567 -1.41747,0.0567 0.0313,3.11842 c 0.0171,1.71514 0.0613,3.92478 0.0982,4.91038 l 0.0672,1.79193 1.20585,-0.013 c 0.6632,-0.008 1.27806,-0.008 1.36634,-0.006 0.13825,0.006 0.15036,5.40916 0.0875,38.95357 -0.047,25.05131 -0.0339,38.9711 0.0365,39.0147 0.0603,0.0388 4.35844,0.34332 9.55134,0.67981 l 9.4416,0.61198 18.20034,0.12914 c 35.71569,0.25412 43.04348,0.30255 43.71487,0.29097 l 0.68039,-0.013 0.0566,-13.85346 z m -26.19488,-11.3307 c -1.75218,-0.0969 -3.79336,-0.29784 -5.2163,-0.51249 -2.43659,-0.36777 -5.69214,-1.27186 -5.8152,-1.61492 -0.0731,-0.20397 1.69076,-3.98043 1.87683,-4.01812 0.0918,-0.0182 0.59949,0.14499 1.12805,0.36393 1.33346,0.552 3.13931,1.04602 5.07828,1.38919 1.38441,0.24502 2.10123,0.29953 4.5359,0.34589 4.50665,0.0857 7.95337,-0.38109 11.43965,-1.54867 0.91179,-0.30554 1.69533,-0.51931 1.74122,-0.47523 0.18093,0.17382 1.79193,3.8854 1.72992,3.98575 -0.2066,0.33431 -4.33435,1.3098 -6.91624,1.63449 -2.78345,0.35019 -7.44041,0.56875 -9.58211,0.44996 z m -6.35028,-13.34598 c -1.92885,-0.55269 -3.32241,-2.10721 -3.64743,-4.06877 -0.42911,-2.5895 1.45146,-5.11284 4.14273,-5.5588 2.41492,-0.39998 4.84458,1.2234 5.46791,3.65384 0.60653,2.3649 -0.7227,4.9191 -3.01486,5.79314 -0.77394,0.29526 -2.23621,0.38452 -2.94835,0.18059 z m 14.40152,-0.35532 c -1.76748,-0.49185 -3.14615,-1.9722 -3.52203,-3.78179 -0.55748,-2.68406 1.34154,-5.37795 4.09094,-5.80317 3.22237,-0.49843 6.1182,2.41929 5.56336,5.60542 -0.50299,2.8883 -3.36922,4.74829 -6.13227,3.97954 z m -46.37971,-27.06511 c -3.13038,-0.27335 -7.03067,-1.19063 -7.03067,-1.65333 0,-0.22216 1.37138,-3.2109 1.47333,-3.2109 0.0457,0 0.46004,0.1559 0.92079,0.3459 2.32905,0.9615 4.9979,1.40723 8.37867,1.39912 3.42958,-0.008 5.73995,-0.34589 8.52337,-1.24569 0.68591,-0.2219 1.30879,-0.37936 1.38416,-0.35063 0.0753,0.0301 0.43619,0.72493 0.80179,1.54669 0.57014,1.28153 0.64208,1.51671 0.50572,1.65305 -0.23703,0.23697 -3.03388,0.92033 -4.82443,1.1787 -3.05197,0.44039 -7.3232,0.58243 -10.13273,0.33688 z m -4.01655,-10.89842 c -1.52414,-0.19515 -2.9494,-1.22428 -3.64294,-2.63045 -0.97986,-1.9867 -0.63623,-4.1464 0.90495,-5.68754 0.89985,-0.89989 1.8678,-1.3289 3.13499,-1.38949 2.12915,-0.10188 3.81619,0.89047 4.72025,2.77636 1.68282,3.51035 -1.2119,7.43112 -5.11725,6.93112 z m 14.13744,-0.37464 c -2.49872,-0.54283 -4.22864,-3.07457 -3.80213,-5.56446 0.69918,-4.08185 5.81147,-5.5536 8.53662,-2.45768 2.46275,2.7978 0.97023,7.25164 -2.69004,8.02723 -0.92107,0.19514 -1.12483,0.19488 -2.04445,-0.006 z m 71.12863,76.73001 2.83494,-0.0712 v -20.52496 c 0,-11.28874 -0.0205,-37.56868 -0.0457,-58.39983 l -0.0457,-37.87488 1.29306,-0.1133 1.29308,-0.11331 0.0297,-6.57045 c 0.0177,-4.01593 -0.0125,-6.61215 -0.0779,-6.67763 -0.059,-0.0587 -0.65895,-0.13876 -1.33335,-0.17695 l -1.22622,-0.0697 -0.0566,-4.53592 -0.0567,-4.53589 -1.81436,-0.0301 c -0.9979,-0.0182 -6.40697,0.013 -12.02016,0.0699 -5.61319,0.0558 -10.27037,0.0772 -10.34928,0.0473 -0.11204,-0.0429 -0.13694,-0.74018 -0.11342,-3.17604 0.0253,-2.63839 0.0564,-3.13546 0.20021,-3.21099 0.0936,-0.0488 0.40957,-0.19826 0.70225,-0.33132 1.22807,-0.558 1.91858,-1.59944 1.99318,-3.0061 0.0663,-1.25047 -0.22952,-2.03139 -1.09879,-2.90073 -0.84988,-0.84983 -1.65175,-1.16114 -2.84402,-1.10393 -1.07147,0.0515 -1.74962,0.37594 -2.4995,1.19651 -1.45879,1.59616 -1.78017,3.91896 -0.69955,5.0563 0.37087,0.39054 0.76731,0.61028 1.66819,0.92562 l 0.68037,0.23827 0.0305,3.00004 c 0.0262,2.59799 0.007,3.01727 -0.14484,3.12824 -0.12881,0.0943 -3.119,0.1125 -11.28506,0.0683 l -11.10986,-0.06 v 4.99715 c 0,2.7485 -0.0309,5.07795 -0.0689,5.17661 -0.0572,0.1494 -0.2889,0.17928 -1.37935,0.17928 h -1.31048 l 0.0738,6.53795 c 0.0407,3.59584 0.092,6.55595 0.114,6.57801 0.0218,0.0208 0.56307,0.13356 1.20233,0.24762 0.68119,0.12135 1.20421,0.2738 1.2636,0.36779 0.13146,0.2076 0.22156,28.80168 0.10788,34.23615 -0.0501,2.3936 -0.0387,2.59118 0.18667,3.19414 0.35511,0.95074 0.85697,1.60493 1.62431,2.11736 0.83539,0.55782 1.43611,0.78746 3.91247,1.49556 6.93686,1.98352 11.95642,4.33384 16.42637,7.69133 1.78237,1.3388 4.07293,3.50226 5.48013,5.17608 1.31732,1.56695 3.00114,4.11847 3.96626,6.01009 2.24347,4.39726 3.55427,9.14059 4.19912,15.19531 0.19153,1.79845 0.20265,3.22212 0.16557,21.22608 -0.0218,10.61411 -0.006,19.35335 0.0357,19.42052 0.0743,0.12031 2.54142,0.0975 10.0964,-0.0922 z M 221.53615,261.28723 c -2.87882,-0.23568 -6.04285,-0.83091 -7.97086,-1.4996 -0.71367,-0.24763 -1.05436,-0.42359 -1.07963,-0.55736 -0.0386,-0.20424 1.48676,-3.66538 1.72702,-3.91848 0.11134,-0.1172 0.35438,-0.0587 1.26428,0.30554 4.46914,1.78791 10.13205,2.26864 16.08508,1.36556 1.81829,-0.27595 3.96516,-0.79849 5.37215,-1.30775 0.58942,-0.21332 1.13316,-0.38796 1.20828,-0.38796 0.0751,0 0.52865,0.87461 1.00782,1.94358 0.66217,1.47716 0.84117,1.97974 0.74609,2.09432 -0.14285,0.17202 -1.49965,0.60369 -2.98664,0.95001 -1.3756,0.32014 -3.45967,0.65179 -5.41418,0.86107 -1.95902,0.20995 -8.10432,0.303 -9.95941,0.15097 z m -4.50504,-12.9671 c -2.12352,-0.51448 -3.95496,-2.31666 -4.50657,-4.43436 -0.84134,-3.23011 1.36505,-6.68012 4.67961,-7.31718 3.48357,-0.66961 6.82994,1.86433 7.12864,5.39792 0.33473,3.95994 -3.48033,7.27961 -7.30168,6.35362 z m 15.70664,-0.006 c -1.09354,-0.27798 -2.00554,-0.81514 -2.86881,-1.68991 -1.26687,-1.28375 -1.75572,-2.45646 -1.75572,-4.21153 0,-1.60578 0.59845,-3.03323 1.75767,-4.19246 2.3681,-2.36809 6.07192,-2.349 8.45574,0.0438 3.14137,3.15291 1.89658,8.40821 -2.34134,9.88475 -0.88117,0.30682 -2.38893,0.38406 -3.24754,0.16552 z m 40.03775,114.70813 c 9.68931,-0.42916 17.65902,-0.82333 17.71045,-0.876 0.0515,-0.0527 0.19435,-6.28863 0.31796,-13.85774 0.12342,-7.56899 0.2674,-13.80443 0.3198,-13.85647 0.0525,-0.0519 0.49026,-0.14343 0.97294,-0.20345 1.01709,-0.12577 1.51632,-0.3781 1.83992,-0.92869 0.22268,-0.37892 0.23073,-0.56736 0.22944,-5.32567 -0.001,-4.75629 -0.0104,-4.94695 -0.2323,-5.32817 -0.26699,-0.45695 -0.86469,-0.72843 -1.92101,-0.87263 l -0.68041,-0.0928 -0.008,-3.96892 -0.008,-3.96893 -0.44581,-0.0343 c -0.24529,-0.0182 -3.77535,-0.14837 -7.84481,-0.28882 -4.96977,-0.17174 -7.44049,-0.29741 -7.52546,-0.38238 -0.12731,-0.12757 -0.78419,-5.3128 -0.702,-5.54201 0.0234,-0.0673 0.32535,-0.23957 0.66906,-0.38193 1.77028,-0.7337 2.93575,-3.11022 2.55054,-5.20072 -0.61672,-3.34704 -4.53698,-5.16968 -7.45208,-3.4647 -0.68047,0.39822 -1.59608,1.41689 -1.94793,2.1677 -0.27878,0.59485 -0.30572,0.77216 -0.30572,2.0131 0,1.26322 0.0234,1.40751 0.31997,2.01252 0.51299,1.04507 1.31792,1.83521 2.40578,2.36177 l 0.93789,0.45394 0.0685,1.27131 c 0.0377,0.69922 0.0808,1.96019 0.0959,2.80217 l 0.0276,1.53087 -8.49409,0.0301 c -6.04568,0.0208 -8.53805,0.0658 -8.6466,0.15591 -0.12288,0.10211 -0.15247,0.97138 -0.15247,4.47636 v 4.34974 l -0.31187,0.0697 c -0.17151,0.0386 -0.41391,0.0969 -0.53864,0.13044 -0.40975,0.11019 -0.85179,0.49649 -1.07983,0.94352 -0.21379,0.41928 -0.22419,0.68286 -0.2238,5.68864 0,5.11226 0.007,5.25926 0.23573,5.63508 0.31723,0.52041 0.63964,0.77565 1.18132,0.93516 0.24947,0.0733 0.51738,0.21151 0.59534,0.30684 0.11169,0.13642 0.14174,3.11128 0.14174,14.02384 0,7.61783 0.0339,13.88464 0.0756,13.92621 0.0417,0.0428 0.10535,0.0743 0.14175,0.073 0.0365,0 7.99377,-0.35407 17.68308,-0.78308 z m -0.66396,-21.06275 c -2.17997,-0.12186 -4.39415,-0.5097 -6.01887,-1.05403 -1.06073,-0.35533 -2.08174,-0.82834 -2.19948,-1.01887 -0.11589,-0.18708 1.19655,-4.08716 1.37541,-4.08716 0.0863,0 0.36007,0.12837 0.60835,0.28496 1.13236,0.71482 3.21215,1.41713 5.04391,1.70325 0.97722,0.15278 1.68947,0.18189 3.28853,0.1359 2.9686,-0.0855 5.08166,-0.55356 7.46131,-1.65354 0.68386,-0.31586 1.01375,-0.418 1.04889,-0.32402 0.44999,1.20222 1.25514,3.82165 1.20074,3.90641 -0.30449,0.47402 -3.24388,1.38184 -5.7496,1.77576 -1.0802,0.16993 -4.54083,0.4292 -5.15202,0.38625 -0.1559,-0.013 -0.56414,-0.0343 -0.90717,-0.0548 z m -6.26699,-11.03922 c -3.01815,-0.76013 -3.95656,-4.55411 -1.64129,-6.63572 1.46081,-1.3134 3.63409,-1.28574 5.11205,0.0652 2.47371,2.26085 1.02223,6.40138 -2.32391,6.62923 -0.39589,0.026 -0.91201,0 -1.14685,-0.0585 z m 13.29763,-0.0572 c -1.19782,-0.33002 -2.1647,-1.22368 -2.61488,-2.41654 -0.33734,-0.89387 -0.27091,-2.11823 0.16292,-3.00524 0.39178,-0.80077 1.2474,-1.57655 2.08878,-1.89399 0.52345,-0.19747 0.8193,-0.23463 1.55374,-0.19565 1.50674,0.0803 2.64136,0.84278 3.30821,2.22335 0.43788,0.90651 0.44544,2.17321 0.0182,3.09356 -0.81948,1.76659 -2.72004,2.68983 -4.51739,2.19436 z m -171.09042,29.79986 c 0.0956,-0.56746 75.38998,-190.02184 75.60746,-190.24203 0.20945,-0.21202 0.26503,-0.21151 3.25436,0.0301 7.636,0.61831 12.44441,0.81288 21.92202,0.88709 11.37004,0.0888 18.77853,-0.15928 28.27105,-0.94747 1.94279,-0.16136 2.2681,-0.16475 2.40769,-0.026 0.14997,0.15018 75.80174,190.2789 75.80174,190.50587 0,0.1507 0.21307,0.1364 3.57202,-0.24114 4.81226,-0.54093 8.96756,-1.1542 9.16907,-1.35313 0.0538,-0.0533 -17.2959,-42.82947 -38.80847,-95.6842 -32.48497,-79.81326 -38.92461,-95.72206 -39.02058,-96.39871 -0.0753,-0.53131 -0.0774,-1.07391 -0.006,-1.57578 0.0811,-0.56889 2.83205,-7.95804 10.71227,-28.77404 8.25031,-21.79362 10.5724,-28.03753 10.46478,-28.13892 -0.24243,-0.2284 -7.31083,-1.78761 -12.21521,-2.69453 -11.00668,-2.0353 -21.51595,-3.31715 -32.60182,-3.97648 -9.29185,-0.55262 -20.7586,-0.55262 -30.05041,0 -12.17857,0.72433 -24.03135,2.24843 -35.68641,4.58879 -3.46845,0.69648 -7.21426,1.5253 -8.69283,1.92345 -0.42146,0.11354 -0.48523,0.1689 -0.43871,0.38039 0.0296,0.13615 4.86349,12.72419 10.74125,27.97336 5.87773,15.24916 10.75985,27.98087 10.84915,28.29273 0.23934,0.8359 0.21609,2.35367 -0.0487,3.17514 -0.12065,0.37422 -17.73003,43.42322 -39.13201,95.66446 -21.40198,52.24124 -38.912721,95.06191 -38.912721,95.15695 0,0.20268 0.345403,0.27252 3.798824,0.77098 2.587237,0.37335 7.766047,0.98218 8.520317,1.00159 0.42715,0.013 0.47375,-0.0182 0.52159,-0.29999 z m 97.38191,-240.05594 c -12.59332,-0.24555 -25.25676,-1.33417 -32.1483,-2.76359 -4.04862,-0.83978 -5.95338,-1.63924 -5.95338,-2.49879 0,-1.90433 11.55131,-3.92717 27.44229,-4.80563 10.47515,-0.5791 22.86977,-0.57949 33.45234,-0.001 14.92899,0.81598 25.99027,2.63128 27.3595,4.49006 0.18766,0.2549 0.19862,0.33649 0.0758,0.56697 -0.19646,0.36882 -0.39112,0.51419 -1.19802,0.8949 -5.53791,2.61312 -28.27008,4.52198 -49.0302,4.11715 z m 38.41866,-34.027696 -0.0335,-0.765425 -1.34033,-0.2206 c -1.49827,-0.246596 -1.48015,-0.252561 -1.61131,0.523675 -0.12152,0.719515 -0.24052,0.738299 -1.6408,0.259058 -0.68721,-0.235416 -1.30846,-0.49873 -1.38047,-0.585521 -0.10119,-0.121867 -0.072,-0.29988 0.12758,-0.781568 0.14221,-0.343067 0.23986,-0.637327 0.21697,-0.653908 -0.24599,-0.178508 -2.30643,-1.31925 -2.38274,-1.31925 -0.0558,0 -0.2634,0.229692 -0.4612,0.510291 -0.19779,0.28068 -0.43435,0.510303 -0.52561,0.510303 -0.34083,0 -2.28517,-1.630853 -2.28517,-1.916748 0,-0.106268 0.17861,-0.366455 0.39688,-0.578009 0.21831,-0.211508 0.39687,-0.432189 0.39687,-0.490296 0,-0.110652 -1.53534,-1.958782 -1.72421,-2.075503 -0.0599,-0.03692 -0.32992,0.0915 -0.60002,0.285376 -0.58474,0.419924 -0.74283,0.435985 -0.96037,0.0975 -0.70441,-1.095812 -1.25131,-2.08336 -1.25131,-2.259526 0,-0.133556 0.15551,-0.280807 0.42524,-0.402674 0.8316,-0.375721 0.84255,-0.403863 0.49012,-1.258606 -0.17164,-0.416254 -0.37872,-0.960976 -0.46007,-1.210456 -0.0813,-0.249446 -0.19678,-0.485299 -0.25641,-0.524091 -0.0597,-0.03877 -0.34104,-3.35e-4 -0.62528,0.08492 -0.28422,0.0855 -0.58287,0.155385 -0.66355,0.155385 -0.17801,0 -0.33019,-0.508664 -0.57199,-1.911659 -0.20702,-1.20133 -0.18218,-1.258675 0.54704,-1.261744 0.78159,-0.0023 0.77472,0.01038 0.77472,-1.539597 V 67.85045 l -0.36856,-0.06023 c -0.20267,-0.033 -0.52162,-0.07385 -0.70873,-0.09011 -0.26602,-0.02342 -0.34911,-0.09173 -0.38108,-0.313437 -0.0621,-0.431 0.33525,-2.589394 0.50225,-2.727992 0.10419,-0.08654 0.27276,-0.087 0.57984,-0.0023 0.84889,0.235669 0.84571,0.23853 1.31758,-1.128015 0.23705,-0.686493 0.40078,-1.297086 0.36388,-1.356866 -0.0369,-0.05977 -0.28813,-0.206315 -0.55817,-0.325921 -0.27002,-0.119525 -0.52631,-0.274392 -0.56953,-0.34429 -0.0846,-0.136925 0.81826,-1.932752 1.23355,-2.453543 l 0.25246,-0.316645 0.5211,0.358529 c 0.63116,0.434266 0.79442,0.44495 1.04127,0.06808 0.10466,-0.159794 0.46929,-0.619294 0.81041,-1.021368 0.68456,-0.806986 0.68654,-0.859104 0.0557,-1.459428 -0.19245,-0.183193 -0.34992,-0.396651 -0.34992,-0.474362 0,-0.145774 2.11756,-1.970827 2.28677,-1.970827 0.0523,0 0.27826,0.255157 0.50229,0.56699 0.224,0.311868 0.42511,0.567002 0.44685,0.567002 0.0386,0 1.16392,-0.677562 2.00707,-1.208483 l 0.42358,-0.266673 -0.28096,-0.635389 c -0.15453,-0.349448 -0.25503,-0.677365 -0.22333,-0.728687 0.10292,-0.166555 2.44543,-1.030829 2.69568,-0.994657 0.18553,0.02654 0.28765,0.182409 0.43233,0.658766 0.14496,0.477188 0.23903,0.620309 0.40048,0.609267 0.32524,-0.02342 2.472,-0.417062 2.53273,-0.465812 0.0297,-0.02342 0.0395,-0.364713 0.0216,-0.757764 l -0.0322,-0.714634 0.43191,-0.07142 c 0.23754,-0.039 0.89764,-0.072 1.46689,-0.07246 1.23607,-0.0012 1.33342,0.06784 1.22669,0.872143 -0.0534,0.40242 -0.0314,0.585786 0.0797,0.670408 0.0844,0.06415 0.61252,0.184231 1.17385,0.267018 1.65078,0.243469 1.55004,0.271265 1.73481,-0.478365 0.19738,-0.800928 0.25454,-0.809109 1.79781,-0.257499 1.42448,0.509126 1.48941,0.573544 1.18313,1.173949 -0.35736,0.700419 -0.31521,0.839097 0.35881,1.181115 0.32744,0.166301 0.86115,0.460434 1.18607,0.653988 l 0.5907,0.351906 0.41214,-0.573671 c 0.22669,-0.315525 0.46381,-0.573706 0.52696,-0.573706 0.21807,0 2.35867,1.761997 2.35867,1.941544 0,0.05769 -0.20977,0.332279 -0.46621,0.610467 l -0.46617,0.505745 0.32443,0.387397 c 0.17843,0.213066 0.55409,0.670373 0.83475,1.016244 0.28067,0.345906 0.58952,0.63172 0.6864,0.635205 0.0969,0.0023 0.39438,-0.154348 0.66123,-0.35044 l 0.48512,-0.35674 0.26397,0.271714 c 0.26298,0.270734 1.41858,2.221254 1.41858,2.394409 0,0.05019 -0.28064,0.228665 -0.62366,0.396928 -0.34304,0.168124 -0.62369,0.354686 -0.62369,0.414339 0,0.05977 0.1585,0.521057 0.35211,1.025302 0.19358,0.504268 0.40397,1.05717 0.46735,1.228663 0.13199,0.357225 0.20137,0.369179 0.9087,0.156425 0.28426,-0.0855 0.57403,-0.120044 0.64398,-0.07696 0.13382,0.08261 0.57622,2.167267 0.57622,2.71545 0,0.306583 -0.0303,0.324687 -0.70874,0.421216 l -0.70876,0.100844 v 1.304078 c 0,0.71723 0.0444,1.367838 0.099,1.445814 0.0543,0.078 0.31262,0.141874 0.57367,0.141874 0.83899,0 0.88459,0.0975 0.68128,1.454549 -0.0965,0.644089 -0.22477,1.301054 -0.28525,1.459925 -0.10212,0.268391 -0.1437,0.282676 -0.58922,0.201896 -1.01372,-0.183712 -0.95488,-0.226842 -1.39226,1.022544 -0.21827,0.62369 -0.40841,1.209176 -0.42245,1.301055 -0.0156,0.09854 0.21879,0.29921 0.56985,0.489142 0.33366,0.180596 0.59535,0.401323 0.59535,0.502399 0,0.37092 -1.30449,2.526822 -1.52892,2.526822 -0.0759,0 -0.35348,-0.156159 -0.61688,-0.346875 -0.26338,-0.190728 -0.52381,-0.331148 -0.57874,-0.311868 -0.15902,0.05585 -1.69797,2.01502 -1.69797,2.161729 0,0.07304 0.21221,0.34894 0.47163,0.613247 l 0.47166,0.480569 -0.38663,0.364089 c -0.73945,0.696439 -1.84905,1.575008 -1.98917,1.575008 -0.0775,0 -0.30589,-0.229704 -0.50745,-0.510303 -0.20153,-0.280679 -0.4113,-0.510291 -0.46614,-0.510291 -0.0548,0 -0.51819,0.251777 -1.02972,0.559687 -0.51149,0.307829 -1.0193,0.593966 -1.12845,0.635827 -0.25714,0.09877 -0.25046,0.299176 0.0284,0.84564 0.12474,0.244507 0.22681,0.516175 0.22681,0.603682 0,0.301391 -2.6316,1.3131 -2.8798,1.107119 -0.0751,-0.06231 -0.20247,-0.370678 -0.28312,-0.685246 -0.16663,-0.650054 -0.15281,-0.64575 -1.31629,-0.412977 -0.43659,0.08734 -0.98965,0.192539 -1.22906,0.233846 l -0.43527,0.07488 0.036,0.645024 c 0.0197,0.354778 -0.005,0.708807 -0.0534,0.786759 -0.0639,0.101306 -0.50497,0.141875 -1.55161,0.141875 H 243.8855 Z M 204.66671,60.261687 c -0.10176,-0.06473 -0.13457,-0.382459 -0.11342,-1.096804 l 0.0297,-1.005837 -1.24738,-0.189158 c -0.68606,-0.10396 -1.52414,-0.248926 -1.86238,-0.321964 -0.33826,-0.07304 -0.65774,-0.09023 -0.71002,-0.03773 -0.0523,0.05227 -0.19981,0.474627 -0.32791,0.938569 -0.12805,0.463907 -0.27486,0.886277 -0.32619,0.938534 -0.0514,0.05227 -0.77518,-0.134594 -1.60858,-0.415124 -1.86054,-0.626412 -2.35956,-0.836109 -2.43065,-1.021263 -0.0305,-0.07904 0.0996,-0.484446 0.28848,-0.901116 0.18889,-0.416658 0.34348,-0.832866 0.34348,-0.924872 0,-0.09196 -0.21688,-0.263846 -0.48193,-0.381801 -0.26509,-0.117968 -1.00981,-0.528649 -1.65498,-0.912585 -0.64512,-0.383913 -1.21947,-0.669311 -1.27625,-0.634212 -0.0569,0.03508 -0.31121,0.369963 -0.56532,0.744172 -0.2541,0.37422 -0.53613,0.708795 -0.62674,0.74356 -0.28572,0.109614 -3.33262,-2.354602 -3.33262,-2.695361 0,-0.09219 0.28067,-0.44502 0.62369,-0.783772 0.34302,-0.338775 0.6221,-0.668723 0.62015,-0.73321 0,-0.0645 -0.41194,-0.576556 -0.91105,-1.137858 -0.49916,-0.561325 -1.02062,-1.185614 -1.15882,-1.387349 -0.13819,-0.201643 -0.31014,-0.389578 -0.38207,-0.417489 -0.0719,-0.02781 -0.488,0.200858 -0.92455,0.508526 -0.43657,0.307575 -0.82535,0.559225 -0.86397,0.559225 -0.23363,0 -2.28366,-3.546866 -2.16293,-3.742212 0.0404,-0.06548 0.4231,-0.294994 0.85045,-0.510192 0.4273,-0.215146 0.80463,-0.436112 0.83851,-0.490938 0.0339,-0.05483 -0.10846,-0.502918 -0.31632,-0.995778 -0.20788,-0.492862 -0.499,-1.271961 -0.64694,-1.731328 -0.14798,-0.459394 -0.3371,-0.861364 -0.42027,-0.893298 -0.0832,-0.0317 -0.5323,0.05275 -0.99804,0.188123 -0.46575,0.135375 -0.89177,0.218264 -0.94672,0.184225 -0.21097,-0.130439 -0.85992,-3.476349 -0.78175,-4.030793 0.0374,-0.263657 0.10039,-0.288523 1.00357,-0.394771 l 0.96388,-0.113294 v -1.966794 c 0,-1.081732 -0.03,-1.985657 -0.0676,-2.008705 -0.0374,-0.02339 -0.4885,-0.07691 -1.00262,-0.119785 -0.57351,-0.04781 -0.95559,-0.131998 -0.98854,-0.218004 -0.12047,-0.313912 0.46163,-3.778023 0.68475,-4.074862 0.11077,-0.147588 0.23629,-0.139793 1.0211,0.06288 0.58194,0.150186 0.93348,0.19228 1.00549,0.120305 0.0608,-0.06081 0.30267,-0.689039 0.53736,-1.395878 0.23466,-0.706837 0.50937,-1.474893 0.61043,-1.706772 0.10108,-0.231776 0.18382,-0.451262 0.18382,-0.487534 0,-0.03611 -0.38735,-0.249965 -0.86077,-0.4747 -0.4734,-0.224759 -0.88499,-0.472022 -0.91468,-0.549324 -0.12429,-0.323836 1.79359,-3.680295 2.10259,-3.679672 0.10073,2.34e-4 0.48932,0.204233 0.86354,0.453236 0.37421,0.249185 0.7386,0.453028 0.8098,0.45321 0.0712,2.33e-4 0.48831,-0.446142 0.92702,-0.991855 0.43871,-0.545738 0.98751,-1.212977 1.21956,-1.482767 l 0.42193,-0.490575 -0.69697,-0.703174 c -0.38306,-0.386743 -0.69666,-0.760805 -0.69666,-0.831222 0,-0.258278 2.93304,-2.757507 3.23628,-2.757507 0.0848,0 0.39086,0.331684 0.68017,0.737083 0.28929,0.405426 0.59254,0.737084 0.67387,0.737084 0.0813,0 0.59994,-0.285069 1.15241,-0.633512 0.55245,-0.348417 1.24322,-0.755714 1.53503,-0.905043 0.29188,-0.149407 0.55917,-0.317652 0.59401,-0.373985 0.0347,-0.05639 -0.11915,-0.497538 -0.34217,-0.980318 -0.33675,-0.72882 -0.37979,-0.902262 -0.25381,-1.022073 0.18376,-0.174611 2.54744,-1.119955 3.29789,-1.318835 0.36726,-0.09744 0.57486,-0.10576 0.65416,-0.0265 0.0639,0.06392 0.21635,0.466358 0.33873,0.894363 0.12238,0.427979 0.26316,0.818802 0.3128,0.868431 0.0496,0.04963 0.72671,-0.03767 1.50461,-0.19384 0.77794,-0.156162 1.61854,-0.321939 1.86802,-0.368294 l 0.45359,-0.08418 -0.0369,-1.030648 -0.0369,-1.030675 0.36302,-0.07276 c 0.69634,-0.139273 3.82912,-0.08418 3.92832,0.06911 0.0504,0.07795 0.0917,0.574268 0.0917,1.102935 v 0.961167 l 1.07728,0.137715 c 0.5925,0.07588 1.43448,0.214106 1.87107,0.307414 0.43657,0.09329 0.83535,0.128621 0.88619,0.07874 0.0508,-0.05014 0.18784,-0.461915 0.30449,-0.915331 0.11664,-0.453445 0.26023,-0.872563 0.31902,-0.931418 0.12394,-0.123941 1.22757,0.183707 2.78406,0.775982 1.42034,0.540489 1.41063,0.526173 0.98759,1.459251 -0.19171,0.422783 -0.34856,0.855959 -0.34856,0.962597 0,0.117186 0.18351,0.276623 0.46422,0.403216 0.2553,0.115106 1.00262,0.529603 1.66061,0.920997 0.65798,0.391446 1.22897,0.691508 1.26889,0.666849 0.0399,-0.02339 0.30005,-0.380299 0.57811,-0.790376 0.27808,-0.41005 0.58254,-0.745034 0.67659,-0.744384 0.29843,0.0021 3.28942,2.399112 3.28942,2.636214 0,0.05795 -0.28066,0.415325 -0.62369,0.794377 -0.34302,0.379053 -0.62369,0.738616 -0.62369,0.799029 0,0.06054 0.29341,0.441257 0.65204,0.846319 0.35865,0.405088 0.89673,1.035845 1.19582,1.401723 0.29907,0.365878 0.60806,0.665212 0.68658,0.665212 0.0786,0 0.46894,-0.229697 0.8675,-0.510296 0.39855,-0.280652 0.76688,-0.51027 0.81848,-0.51027 0.26058,0 2.31438,3.53528 2.18008,3.752609 -0.044,0.07119 -0.45597,0.30071 -0.91555,0.510167 -0.45962,0.209428 -0.83564,0.422496 -0.83564,0.47345 0,0.05093 0.1987,0.579076 0.44155,1.173612 0.24281,0.594535 0.53467,1.376493 0.64849,1.737668 0.11389,0.361175 0.26818,0.680152 0.34293,0.708838 0.0748,0.02885 0.52871,-0.0582 1.00885,-0.1928 0.52535,-0.147328 0.91406,-0.203712 0.97624,-0.141611 0.13468,0.134596 0.63007,2.478545 0.72997,3.453873 0.0888,0.866613 0.16043,0.807733 -1.14146,0.938172 -0.37335,0.03742 -0.71907,0.108356 -0.76826,0.157461 -0.0491,0.04911 -0.0753,0.953061 -0.0583,2.008654 l 0.0314,1.919269 0.98453,0.113294 c 0.54148,0.06236 1.01424,0.143951 1.05056,0.181107 0.17861,0.183446 -0.50944,4.047682 -0.74679,4.194387 -0.0667,0.04132 -0.48591,-0.02079 -0.9316,-0.135636 -0.44565,-0.115888 -0.87245,-0.211508 -0.9484,-0.212548 -0.0759,-0.0011 -0.27096,0.433619 -0.43332,0.965949 -0.1624,0.532356 -0.44469,1.330319 -0.62733,1.773266 -0.1827,0.442972 -0.33212,0.852295 -0.33212,0.909641 0,0.05743 0.38404,0.279275 0.85346,0.493174 0.46939,0.213846 0.88266,0.465005 0.91834,0.558002 0.11089,0.288862 -1.71826,3.519116 -2.06888,3.653664 -0.0959,0.03692 -0.49596,-0.161109 -0.92943,-0.460077 -0.41855,-0.288595 -0.79154,-0.524691 -0.82894,-0.524691 -0.0374,0 -0.32426,0.344417 -0.63754,0.765437 -0.31327,0.420985 -0.85608,1.086281 -1.20626,1.478455 -0.35014,0.39214 -0.63666,0.750957 -0.63666,0.79734 0,0.0465 0.30616,0.387282 0.68039,0.75758 0.37421,0.37032 0.68037,0.720138 0.68037,0.777379 0,0.237492 -2.97335,2.792698 -3.2511,2.794014 -0.0729,3.46e-4 -0.39323,-0.35764 -0.71171,-0.795518 -0.65722,-0.903584 -0.49835,-0.898334 -1.80736,-0.05977 -0.41262,0.264353 -1.06912,0.648705 -1.45893,0.854166 -0.38978,0.205266 -0.70874,0.411063 -0.70874,0.45695 0,0.04604 0.17913,0.476519 0.39808,0.956961 0.21897,0.480465 0.37328,0.913773 0.3429,0.96288 -0.0755,0.122121 -2.08504,0.942791 -3.09424,1.263716 -0.60111,0.191247 -0.85619,0.227881 -0.9479,0.136163 -0.069,-0.06911 -0.22143,-0.471476 -0.33869,-0.894342 -0.11724,-0.422889 -0.25619,-0.811867 -0.30881,-0.864424 -0.0526,-0.0525 -0.75477,0.03092 -1.56042,0.186043 -0.80569,0.154855 -1.66124,0.312837 -1.90129,0.351064 l -0.43644,0.06935 0.0395,1.038236 0.0395,1.038236 -0.45359,0.08215 c -0.62202,0.112498 -3.59514,0.112729 -3.772,7.04e-4 z"
     id="path868"
     inkscape:connector-curvature="0" />
</svg>
