<?xml version="1.0" encoding="UTF-8" standalone="no"?>
<!-- Generator: Adobe Illustrator 19.0.0, SVG Export Plug-In . SVG Version: 6.00 Build 0)  -->

<svg
   xmlns:dc="http://purl.org/dc/elements/1.1/"
   xmlns:cc="http://creativecommons.org/ns#"
   xmlns:rdf="http://www.w3.org/1999/02/22-rdf-syntax-ns#"
   xmlns:svg="http://www.w3.org/2000/svg"
   xmlns="http://www.w3.org/2000/svg"
   xmlns:sodipodi="http://sodipodi.sourceforge.net/DTD/sodipodi-0.dtd"
   xmlns:inkscape="http://www.inkscape.org/namespaces/inkscape"
   version="1.1"
   id="Capa_1"
   x="0px"
   y="0px"
   viewBox="0 0 511.99988 430.03601"
   xml:space="preserve"
   width="511.99988"
   height="430.03601"
   sodipodi:docname="organize.svg"
   inkscape:export-filename="/home/arch/Documents/Jekyll/jekyll-bulma/assets/images/getinvolve/organize.png"
   inkscape:export-xdpi="78.730003"
   inkscape:export-ydpi="78.730003"
   inkscape:version="0.92.2 2405546, 2018-03-11"><metadata
   id="metadata109"><rdf:RDF><cc:Work
       rdf:about=""><dc:format>image/svg+xml</dc:format><dc:type
         rdf:resource="http://purl.org/dc/dcmitype/StillImage" /><dc:title /></cc:Work></rdf:RDF></metadata><defs
   id="defs107" /><sodipodi:namedview
   pagecolor="#ffffff"
   bordercolor="#666666"
   borderopacity="1"
   objecttolerance="10"
   gridtolerance="10"
   guidetolerance="10"
   inkscape:pageopacity="0"
   inkscape:pageshadow="2"
   inkscape:window-width="1364"
   inkscape:window-height="732"
   id="namedview105"
   showgrid="false"
   fit-margin-top="0"
   fit-margin-left="0"
   fit-margin-right="0"
   fit-margin-bottom="0"
   inkscape:zoom="0.4609375"
   inkscape:cx="-236.47458"
   inkscape:cy="215.018"
   inkscape:window-x="0"
   inkscape:window-y="35"
   inkscape:window-maximized="0"
   inkscape:current-layer="Capa_1" />
<g
   id="g6"
   transform="translate(0,-40.982)">
	<g
   id="g4">
		<path
   d="m 184.698,208.046 c -16.869,0 -30.593,13.724 -30.593,30.593 0,16.869 13.724,30.593 30.593,30.593 16.869,0 30.593,-13.724 30.593,-30.593 0,-16.869 -13.724,-30.593 -30.593,-30.593 z m 0,46.185 c -8.598,0 -15.592,-6.994 -15.592,-15.592 0,-8.598 6.994,-15.592 15.592,-15.592 8.597,0 15.592,6.994 15.592,15.592 0,8.597 -6.995,15.592 -15.592,15.592 z"
   id="path2"
   inkscape:connector-curvature="0"
   style="fill:#13123d;fill-opacity:1" />
	</g>
</g>
<g
   id="g12"
   transform="translate(0,-40.982)">
	<g
   id="g10">
		<path
   d="m 264.457,208.046 c -16.869,0 -30.594,13.724 -30.594,30.593 0,16.869 13.725,30.593 30.594,30.593 16.869,0 30.593,-13.724 30.593,-30.593 0,-16.869 -13.724,-30.593 -30.593,-30.593 z m 0,46.185 c -8.599,0 -15.593,-6.994 -15.593,-15.592 0,-8.598 6.995,-15.592 15.593,-15.592 8.598,0 15.592,6.994 15.592,15.592 0,8.598 -6.995,15.592 -15.592,15.592 z"
   id="path8"
   inkscape:connector-curvature="0"
   style="fill:#13123d;fill-opacity:1" />
	</g>
</g>
<g
   id="g18"
   transform="translate(0,-40.982)">
	<g
   id="g16">
		<path
   d="m 344.216,208.046 c -16.869,0 -30.593,13.724 -30.593,30.593 0,16.869 13.724,30.593 30.593,30.593 16.869,0 30.593,-13.724 30.593,-30.593 0,-16.869 -13.725,-30.593 -30.593,-30.593 z m 0,46.185 c -8.598,0 -15.592,-6.994 -15.592,-15.592 0,-8.598 6.995,-15.592 15.592,-15.592 8.597,0 15.592,6.994 15.592,15.592 0,8.598 -6.995,15.592 -15.592,15.592 z"
   id="path14"
   inkscape:connector-curvature="0"
   style="fill:#13123d;fill-opacity:1" />
	</g>
</g>
<g
   id="g24"
   transform="translate(0,-40.982)">
	<g
   id="g22">
		<path
   d="m 184.698,282.671 c -16.869,0 -30.593,13.724 -30.593,30.593 0,16.869 13.724,30.593 30.593,30.593 16.869,0 30.593,-13.724 30.593,-30.593 0,-16.869 -13.724,-30.593 -30.593,-30.593 z m 0,46.185 c -8.598,0 -15.592,-6.994 -15.592,-15.592 0,-8.598 6.994,-15.592 15.592,-15.592 8.597,0 15.592,6.994 15.592,15.592 0,8.598 -6.995,15.592 -15.592,15.592 z"
   id="path20"
   inkscape:connector-curvature="0"
   style="fill:#13123d;fill-opacity:1" />
	</g>
</g>
<g
   id="g30"
   transform="translate(0,-40.982)">
	<g
   id="g28">
		<path
   d="m 344.216,282.671 c -16.869,0 -30.593,13.724 -30.593,30.593 0,16.869 13.724,30.593 30.593,30.593 16.869,0 30.593,-13.724 30.593,-30.593 -0.001,-16.869 -13.725,-30.593 -30.593,-30.593 z m 0,46.185 c -8.598,0 -15.592,-6.994 -15.592,-15.592 0,-8.598 6.995,-15.592 15.592,-15.592 8.597,0 15.592,6.994 15.592,15.592 -10e-4,8.598 -6.995,15.592 -15.592,15.592 z"
   id="path26"
   inkscape:connector-curvature="0"
   style="fill:#13123d;fill-opacity:1" />
	</g>
</g>
<g
   id="g36"
   transform="translate(0,-40.982)">
	<g
   id="g34">
		<path
   d="m 264.457,282.671 c -16.869,0 -30.594,13.724 -30.594,30.593 0,16.869 13.725,30.593 30.594,30.593 16.869,0 30.593,-13.724 30.593,-30.593 0,-16.869 -13.724,-30.593 -30.593,-30.593 z m 0,46.185 c -8.599,0 -15.593,-6.994 -15.593,-15.592 0,-8.598 6.995,-15.592 15.593,-15.592 8.598,0 15.592,6.994 15.592,15.592 0,8.598 -6.995,15.592 -15.592,15.592 z"
   id="path32"
   inkscape:connector-curvature="0"
   style="fill:#13123d;fill-opacity:1" />
	</g>
</g>
<g
   id="g42"
   transform="translate(0,-40.982)">
	<g
   id="g40">
		<path
   d="m 264.457,357.296 c -16.869,0 -30.593,13.725 -30.593,30.594 0,16.869 13.724,30.593 30.593,30.593 16.869,0 30.593,-13.724 30.593,-30.593 0,-16.869 -13.724,-30.594 -30.593,-30.594 z m 0,46.185 c -8.599,0 -15.593,-6.994 -15.593,-15.592 0.001,-8.597 6.995,-15.593 15.593,-15.593 8.598,0 15.592,6.994 15.592,15.593 0,8.598 -6.995,15.592 -15.592,15.592 z"
   id="path38"
   inkscape:connector-curvature="0"
   style="fill:#13123d;fill-opacity:1" />
	</g>
</g>
<g
   id="g48"
   transform="translate(0,-40.982)">
	<g
   id="g46">
		<path
   d="m 184.698,357.296 c -16.869,0 -30.593,13.725 -30.593,30.594 0,16.869 13.724,30.593 30.593,30.593 16.869,0 30.593,-13.724 30.593,-30.593 0,-16.869 -13.724,-30.594 -30.593,-30.594 z m 0,46.185 c -8.598,0 -15.592,-6.994 -15.592,-15.592 0,-8.598 6.994,-15.593 15.592,-15.593 8.597,0 15.592,6.994 15.592,15.593 -0.001,8.598 -6.995,15.592 -15.592,15.592 z"
   id="path44"
   inkscape:connector-curvature="0"
   style="fill:#13123d;fill-opacity:1" />
	</g>
</g>
<g
   id="g54"
   transform="translate(0,-40.982)">
	<g
   id="g52">
		<path
   d="m 115.548,238.64 11.026,-11.026 c 2.929,-2.929 2.929,-7.677 -0.001,-10.607 -2.928,-2.928 -7.677,-2.929 -10.607,0.001 l -11.025,11.025 -11.025,-11.025 c -2.929,-2.929 -7.678,-2.93 -10.607,-0.001 -2.93,2.93 -2.93,7.678 -10e-4,10.607 l 11.026,11.026 -11.026,11.026 c -2.931,2.928 -2.931,7.676 -0.001,10.607 1.464,1.464 3.384,2.196 5.303,2.196 1.919,0 3.839,-0.732 5.304,-2.197 l 11.025,-11.025 11.025,11.025 c 1.465,1.465 3.384,2.197 5.304,2.197 1.919,0 3.839,-0.732 5.303,-2.196 2.93,-2.93 2.93,-7.678 0.001,-10.607 z"
   id="path50"
   inkscape:connector-curvature="0"
   style="fill:#13123d;fill-opacity:1" />
	</g>
</g>
<g
   id="g60"
   transform="translate(0,-40.982)">
	<g
   id="g58">
		<path
   d="m 115.548,313.265 11.026,-11.026 c 2.929,-2.929 2.929,-7.677 -0.001,-10.607 -2.928,-2.928 -7.677,-2.929 -10.607,10e-4 l -11.025,11.025 -11.025,-11.025 c -2.929,-2.93 -7.678,-2.929 -10.607,-10e-4 -2.93,2.93 -2.93,7.678 -10e-4,10.607 l 11.026,11.026 -11.026,11.026 c -2.931,2.928 -2.931,7.676 -0.001,10.607 1.464,1.464 3.384,2.196 5.303,2.196 1.919,0 3.839,-0.732 5.304,-2.197 l 11.025,-11.025 11.025,11.025 c 1.465,1.465 3.384,2.197 5.304,2.197 1.919,0 3.839,-0.732 5.303,-2.196 2.93,-2.93 2.93,-7.678 0.001,-10.607 z"
   id="path56"
   inkscape:connector-curvature="0"
   style="fill:#13123d;fill-opacity:1" />
	</g>
</g>
<g
   id="g66"
   transform="translate(0,-40.982)">
	<g
   id="g64">
		<path
   d="m 126.573,398.913 -11.025,-11.025 11.025,-11.025 c 2.927,-2.929 2.927,-7.677 -0.002,-10.608 -2.93,-2.928 -7.678,-2.928 -10.608,0 L 104.938,377.28 93.913,366.255 c -2.93,-2.928 -7.678,-2.928 -10.608,0 -2.929,2.93 -2.929,7.678 0,10.608 l 11.025,11.025 -11.025,11.025 c -2.929,2.93 -2.929,7.678 0,10.608 1.465,1.464 3.385,2.196 5.304,2.196 1.919,0 3.839,-0.732 5.304,-2.196 l 11.025,-11.025 11.025,11.025 c 1.465,1.464 3.385,2.196 5.304,2.196 1.919,0 3.839,-0.732 5.304,-2.196 2.931,-2.931 2.931,-7.679 0.002,-10.608 z"
   id="path62"
   inkscape:connector-curvature="0"
   style="fill:#13123d;fill-opacity:1" />
	</g>
</g>
<g
   id="g72"
   transform="translate(0,-40.982)">
	<g
   id="g70">
		<path
   d="M 511.569,421.227 491.114,313.582 c -0.773,-4.069 -4.708,-6.741 -8.77,-5.968 -4.069,0.773 -6.741,4.699 -5.968,8.77 l 20.455,107.645 c 1.144,6.025 -3.943,11.712 -10.872,11.712 h -110.99 l 71.99,-71.989 c 1.317,-1.317 2.196,-3.241 2.196,-5.304 V 173.133 l 20.569,108.248 c 0.773,4.069 4.703,6.742 8.769,5.968 4.069,-0.773 6.741,-4.699 5.968,-8.77 L 449.106,92.522 C 448.597,81.453 439.459,72.599 428.268,72.599 h -65.73 V 48.482 c 0,-4.143 -3.357,-7.5 -7.5,-7.5 -4.143,0 -7.5,3.357 -7.5,7.5 v 24.116 h -50.23 V 48.482 c 0,-4.143 -3.357,-7.5 -7.5,-7.5 -4.143,0 -7.5,3.357 -7.5,7.5 V 72.598 H 232.077 V 48.482 c 0,-4.143 -3.357,-7.5 -7.5,-7.5 -4.143,0 -7.5,3.357 -7.5,7.5 v 24.116 h -50.23 V 48.482 c 0,-4.143 -3.357,-7.5 -7.5,-7.5 -4.143,0 -7.5,3.357 -7.5,7.5 v 24.116 h -50.23 V 48.482 c 0,-4.143 -3.357,-7.5 -7.5,-7.5 -4.143,0 -7.5,3.357 -7.5,7.5 V 72.598 H 20.887 C 9.37,72.599 0,81.968 0,93.486 v 356.646 c 0,11.517 9.37,20.886 20.887,20.886 h 186.19 c 4.143,0 7.5,-3.357 7.5,-7.5 0,-4.143 -3.357,-7.5 -7.5,-7.5 H 20.887 c -3.245,0 -5.886,-2.64 -5.886,-5.885 V 169.981 h 419.154 v 180.964 h -84.186 c -11.517,0 -20.886,9.37 -20.886,20.887 v 84.185 h -87.005 c -4.143,0 -7.5,3.357 -7.5,7.5 0,4.143 3.357,7.5 7.5,7.5 h 94.505 c 1.935,0 3.875,-0.767 5.304,-2.196 l 18.08,-18.08 H 485.96 c 16.29,0 28.523,-14.182 25.609,-29.514 z M 15.001,154.98 V 93.486 c 0,-3.245 2.641,-5.886 5.886,-5.886 h 65.73 v 33.69 c 0,4.143 3.357,7.5 7.5,7.5 4.143,0 7.5,-3.357 7.5,-7.5 V 87.6 h 50.23 v 33.69 c 0,4.143 3.357,7.5 7.5,7.5 4.143,0 7.5,-3.357 7.5,-7.5 V 87.6 h 50.23 v 33.69 c 0,4.143 3.357,7.5 7.5,7.5 4.143,0 7.5,-3.357 7.5,-7.5 V 87.6 h 50.231 v 33.69 c 0,4.143 3.357,7.5 7.5,7.5 4.143,0 7.5,-3.357 7.5,-7.5 V 87.6 h 50.23 v 33.69 c 0,4.143 3.357,7.5 7.5,7.5 4.143,0 7.5,-3.357 7.5,-7.5 V 87.6 h 65.73 c 3.245,0 5.886,2.641 5.886,5.886 v 61.495 H 15.001 Z m 329.082,290.43 v -73.577 c 0,-3.245 2.64,-5.886 5.885,-5.886 h 73.578 c -7.505,7.506 -71.942,71.942 -79.463,79.463 z"
   id="path68"
   inkscape:connector-curvature="0"
   style="fill:#13123d;fill-opacity:1" />
	</g>
</g>
<g
   id="g74"
   transform="translate(0,-40.982)">
</g>
<g
   id="g76"
   transform="translate(0,-40.982)">
</g>
<g
   id="g78"
   transform="translate(0,-40.982)">
</g>
<g
   id="g80"
   transform="translate(0,-40.982)">
</g>
<g
   id="g82"
   transform="translate(0,-40.982)">
</g>
<g
   id="g84"
   transform="translate(0,-40.982)">
</g>
<g
   id="g86"
   transform="translate(0,-40.982)">
</g>
<g
   id="g88"
   transform="translate(0,-40.982)">
</g>
<g
   id="g90"
   transform="translate(0,-40.982)">
</g>
<g
   id="g92"
   transform="translate(0,-40.982)">
</g>
<g
   id="g94"
   transform="translate(0,-40.982)">
</g>
<g
   id="g96"
   transform="translate(0,-40.982)">
</g>
<g
   id="g98"
   transform="translate(0,-40.982)">
</g>
<g
   id="g100"
   transform="translate(0,-40.982)">
</g>
<g
   id="g102"
   transform="translate(0,-40.982)">
</g>
</svg>