<?xml version="1.0" encoding="UTF-8" standalone="no"?>
<!-- Generator: Adobe Illustrator 19.0.0, SVG Export Plug-In . SVG Version: 6.00 Build 0)  -->

<svg
   xmlns:dc="http://purl.org/dc/elements/1.1/"
   xmlns:cc="http://creativecommons.org/ns#"
   xmlns:rdf="http://www.w3.org/1999/02/22-rdf-syntax-ns#"
   xmlns:svg="http://www.w3.org/2000/svg"
   xmlns="http://www.w3.org/2000/svg"
   xmlns:sodipodi="http://sodipodi.sourceforge.net/DTD/sodipodi-0.dtd"
   xmlns:inkscape="http://www.inkscape.org/namespaces/inkscape"
   version="1.1"
   id="Capa_1"
   x="0px"
   y="0px"
   viewBox="0 0 496 496"
   style="enable-background:new 0 0 496 496;"
   xml:space="preserve"
   width="512px"
   height="512px"
   sodipodi:docname="PARTNER.svg"
   inkscape:version="0.92.2 2405546, 2018-03-11"><metadata
   id="metadata61"><rdf:RDF><cc:Work
       rdf:about=""><dc:format>image/svg+xml</dc:format><dc:type
         rdf:resource="http://purl.org/dc/dcmitype/StillImage" /></cc:Work></rdf:RDF></metadata><defs
   id="defs59" /><sodipodi:namedview
   pagecolor="#ffffff"
   bordercolor="#666666"
   borderopacity="1"
   objecttolerance="10"
   gridtolerance="10"
   guidetolerance="10"
   inkscape:pageopacity="0"
   inkscape:pageshadow="2"
   inkscape:window-width="1364"
   inkscape:window-height="732"
   id="namedview57"
   showgrid="false"
   inkscape:zoom="0.4609375"
   inkscape:cx="-119.32203"
   inkscape:cy="256"
   inkscape:window-x="0"
   inkscape:window-y="35"
   inkscape:window-maximized="0"
   inkscape:current-layer="Capa_1" />
<g
   id="g6"
   inkscape:export-xdpi="78.730003"
   inkscape:export-ydpi="78.730003">
	<g
   id="g4">
		<path
   d="M327.592,344H328c17.648,0,32-14.352,32-32v-56h136v-21.768c0-18.944-13.448-35.384-32-39.176V80    c0-44.112-35.888-80-80-80s-80,35.888-80,80v79.152C287.504,149.576,268.408,144,248,144c-36.36,0-68.632,17.496-89.104,44.424    L144,185.44v-11.552c8.008-5.6,14.456-13.24,18.648-22.16C179.04,150.36,192,136.736,192,120V80c0-44.112-35.888-80-80-80    S32,35.888,32,80v40c0,16.736,12.96,30.36,29.352,31.736c4.192,8.92,10.64,16.56,18.648,22.16v11.552l-47.84,9.568    C13.52,198.736,0,215.232,0,234.232V256h136v56c0,17.648,14.352,32,32,32h0.408c2.608,26.16,17.904,48.584,39.592,61.176v4.152    l-59.432,10.808c-16.312,2.968-30.384,12.92-38.608,27.312L82.216,496h331.56l-27.744-48.56    c-8.224-14.392-22.296-24.344-38.608-27.312L288,409.32v-4.152C309.688,392.584,324.984,370.16,327.592,344z M328,328v-32    c8.824,0,16,7.176,16,16C344,320.824,336.824,328,328,328z M480,234.232V240H358.72c-1.912-13.256-6.024-25.808-12.168-37.152    l10.816-2.168L384,227.312l26.632-26.632l50.072,10.016C471.88,212.936,480,222.832,480,234.232z M448,147.552v44.296l-32-6.4    v-11.552c8.008-5.608,14.456-13.248,18.648-22.16C439.496,151.328,444.008,149.88,448,147.552z M439.672,133.952    c0.208-1.96,0.328-3.944,0.328-5.952v-21.776c4.76,2.776,8,7.88,8,13.776C448,126.032,444.608,131.224,439.672,133.952z M424,128    c0,22.056-17.944,40-40,40c-22.056,0-40-17.944-40-40V95.52c14.576-1.752,28.072-8.288,38.624-18.832L384,75.312l1.376,1.376    C395.928,87.24,409.424,93.768,424,95.52V128z M400,181.64v7.048l-16,16l-16-16v-7.048c5.072,1.52,10.44,2.36,16,2.36    S394.928,183.16,400,181.64z M320,80c0-35.288,28.712-64,64-64c35.288,0,64,28.712,64,64v12.448c-2.48-1.448-5.152-2.576-8-3.312    V80h-8c-13.336,0-25.872-5.192-35.312-14.624L384,52.688l-12.688,12.688C361.872,74.808,349.336,80,336,80h-8v9.136    c-2.848,0.744-5.52,1.864-8,3.312V80z M328,106.224V128c0,2.008,0.12,3.992,0.328,5.952C323.392,131.224,320,126.032,320,120    C320,114.104,323.24,109,328,106.224z M320,147.552c3.992,2.328,8.504,3.776,13.352,4.184c4.192,8.92,10.64,16.56,18.648,22.16    v11.552l-14.896,2.976c-5.04-6.632-10.736-12.728-17.104-18.088V147.552z M167.672,133.952c0.208-1.96,0.328-3.944,0.328-5.952    v-21.776c4.76,2.776,8,7.88,8,13.776C176,126.032,172.608,131.224,167.672,133.952z M48,120c0-5.896,3.24-11,8-13.776V128    c0,2.008,0.12,3.992,0.328,5.952C51.392,131.224,48,126.032,48,120z M56,72v17.136c-2.848,0.744-5.52,1.864-8,3.312V80    c0-35.288,28.712-64,64-64s64,28.712,64,64v12.448c-2.48-1.448-5.152-2.576-8-3.312V72H56z M72,128V88h80v40    c0,22.056-17.944,40-40,40C89.944,168,72,150.056,72,128z M128,181.64v7.048l-16,16l-16-16v-7.048c5.072,1.52,10.44,2.36,16,2.36    S122.928,183.16,128,181.64z M137.28,240H16v-5.768c0-11.4,8.12-21.296,19.296-23.536l50.072-10.016L112,227.312l26.632-26.632    l10.816,2.168C143.304,214.192,139.192,226.744,137.28,240z M168,328c-8.824,0-16-7.176-16-16c0-8.824,7.176-16,16-16V328z     M168,280c-5.856,0-11.272,1.696-16,4.448V256c0-52.936,43.064-96,96-96c52.936,0,96,43.064,96,96v28.448    c-4.728-2.752-10.144-4.448-16-4.448v-2.744c0-10.68-4.168-20.728-11.72-28.28L296,228.68l-15.592,15.6    C272.84,251.84,262.8,256,252.12,256H192C178.768,256,168,266.768,168,280z M217.224,480h-107.44l14.064-24.624    c5.872-10.28,15.928-17.392,27.576-19.504l33.568-6.104l9.656,48.248l26.176-19.64L217.224,480z M205.352,449.984l-4.616-23.08    l11.52-2.096l8.888,13.336L205.352,449.984z M233.44,480l5.336-32h18.448l5.336,32H233.44z M272,413.584L259.72,432h-23.44    L224,413.576v-1.272c7.584,2.392,15.64,3.696,24,3.696s16.416-1.304,24-3.688V413.584z M311,429.768l33.568,6.104    c11.648,2.12,21.704,9.232,27.584,19.504L386.216,480h-107.44l-3.608-21.624l26.176,19.64L311,429.768z M295.264,426.904    l-4.616,23.08l-15.792-11.84l8.888-13.336L295.264,426.904z M248,400c-35.288,0-64-28.712-64-64v-56c0-4.408,3.584-8,8-8h60.12    c14.952,0,29.016-5.824,39.6-16.4l4.28-4.28l8.968,8.968c4.472,4.464,7.032,10.648,7.032,16.968V336    C312,371.288,283.288,400,248,400z"
   fill="#f4bf00"
   id="path2" />
	</g>
</g>
<g
   id="g12">
	<g
   id="g10">
		<circle
   cx="288"
   cy="296"
   r="8"
   fill="#f4bf00"
   id="circle8" />
	</g>
</g>
<g
   id="g18">
	<g
   id="g16">
		<circle
   cx="208"
   cy="296"
   r="8"
   fill="#f4bf00"
   id="circle14" />
	</g>
</g>
<g
   id="g24">
	<g
   id="g22">
		<path
   d="M280,336c0,17.648-14.352,32-32,32s-32-14.352-32-32h-16c0,26.472,21.528,48,48,48s48-21.528,48-48H280z"
   fill="#f4bf00"
   id="path20" />
	</g>
</g>
<g
   id="g26">
</g>
<g
   id="g28">
</g>
<g
   id="g30">
</g>
<g
   id="g32">
</g>
<g
   id="g34">
</g>
<g
   id="g36">
</g>
<g
   id="g38">
</g>
<g
   id="g40">
</g>
<g
   id="g42">
</g>
<g
   id="g44">
</g>
<g
   id="g46">
</g>
<g
   id="g48">
</g>
<g
   id="g50">
</g>
<g
   id="g52">
</g>
<g
   id="g54">
</g>
</svg>